0
SECTION
2
HEADER
9
$INSUNITS
70
4
9
$ACADVER
1
AC1014
9
$HANDSEED
5
FFFF
0
ENDSEC
0
SECTION
2
TABLES
0
TABLE
2
VPORT
5
8
100
AcDbSymbolTable
0
ENDTAB
0
TABLE
2
LTYPE
5
5
100
AcDbSymbolTable
0
LTYPE
5
14
100
AcDbSymbolTableRecord
100
AcDbLinetypeTableRecord
2
BYBLOCK
70
0
0
LTYPE
5
15
100
AcDbSymbolTableRecord
100
AcDbLinetypeTableRecord
2
BYLAYER
70
0
0
ENDTAB
0
TABLE
2
LAYER
5
2
100
AcDbSymbolTable
70
2
0
LAYER
5
50
100
AcDbSymbolTableRecord
100
AcDbLayerTableRecord
2
0
70
0
6
CONTINUOUS
0
ENDTAB
0
TABLE
2
STYLE
5
3
100
AcDbSymbolTable
70
1
0
STYLE
5
11
100
AcDbSymbolTableRecord
100
AcDbTextStyleTableRecord
2
STANDARD
70
0
0
ENDTAB
0
TABLE
2
VIEW
5
6
100
AcDbSymbolTable
70
0
0
ENDTAB
0
TABLE
2
UCS
5
7
100
AcDbSymbolTable
70
0
0
ENDTAB
0
TABLE
2
APPID
5
9
100
AcDbSymbolTable
70
2
0
APPID
5
12
100
AcDbSymbolTableRecord
100
AcDbRegAppTableRecord
2
ACAD
70
0
0
ENDTAB
0
TABLE
2
DIMSTYLE
5
A
100
AcDbSymbolTable
70
1
0
ENDTAB
0
TABLE
2
BLOCK_RECORD
5
1
100
AcDbSymbolTable
70
1
0
BLOCK_RECORD
5
1F
100
AcDbSymbolTableRecord
100
AcDbBlockTableRecord
2
*MODEL_SPACE
0
BLOCK_RECORD
5
1B
100
AcDbSymbolTableRecord
100
AcDbBlockTableRecord
2
*PAPER_SPACE
0
ENDTAB
0
ENDSEC
0
SECTION
2
BLOCKS
0
BLOCK
5
20
100
AcDbEntity
100
AcDbBlockBegin
2
*MODEL_SPACE
0
ENDBLK
5
21
100
AcDbEntity
100
AcDbBlockEnd
0
BLOCK
5
1C
100
AcDbEntity
100
AcDbBlockBegin
2
*PAPER_SPACE
0
ENDBLK
5
1D
100
AcDbEntity
100
AcDbBlockEnd
0
ENDSEC
0
SECTION
2
ENTITIES
0
LWPOLYLINE
5
100
100
AcDbEntity
8
0
100
AcDbPolyline
90
60
70
1
43
0.0
10
345.60000000000002
20
106.02000000000001
10
345.60000000000002
20
0
10
247.60000000000002
20
-3.6803893266323939e-13
10
247.60000000000002
20
3.0099999999996414
10
226
20
3.0099999999996467
10
226
20
-3.9247429307299179e-13
10
204.40000000000001
20
-2.9976021664879227e-14
10
204.40000000000001
20
3.0099999999999949
10
182.80000000000001
20
3.0099999999999998
10
182.80000000000001
20
-2.9691493006459193e-13
10
161.20000000000002
20
8.0158102377936302e-13
10
161.20000000000002
20
3.0099999999999967
10
139.60000000000002
20
3.0100000000000011
10
139.60000000000002
20
2.0919701787132225e-13
10
118
20
5.7343019221889335e-13
10
118
20
3.0100000000001166
10
96.400000000000006
20
3.010000000000121
10
96.400000000000006
20
7.0294654858783558e-15
10
74.800000000000011
20
-1.0713652187632761e-13
10
74.800000000000011
20
3.0099999999998928
10
53.200000000000003
20
3.0099999999998968
10
53.200000000000003
20
-9.5722575577681697e-14
10
31.600000000000001
20
2.7755575615628914e-15
10
31.600000000000001
20
3.0100000000000025
10
10
20
3.0100000000000033
10
10
20
3.4166979972509649e-15
10
0
20
0
10
0
20
106.02000000000001
10
10
20
106.02000000000001
10
10
20
103.01000000000001
10
31.600000000000001
20
103.01000000000001
10
31.600000000000001
20
106.02000000000001
10
53.200000000000003
20
106.02000000000001
10
53.200000000000003
20
103.01000000000001
10
74.800000000000011
20
103.01000000000001
10
74.800000000000011
20
106.02000000000001
10
96.400000000000006
20
106.02000000000001
10
96.400000000000006
20
103.01000000000001
10
118
20
103.01000000000001
10
118
20
106.02000000000001
10
139.59999999999999
20
106.02000000000001
10
139.59999999999999
20
103.01000000000001
10
161.19999999999999
20
103.01000000000001
10
161.19999999999999
20
106.02000000000001
10
182.79999999999998
20
106.02000000000001
10
182.79999999999998
20
103.01000000000001
10
204.39999999999998
20
103.01000000000001
10
204.39999999999998
20
106.02000000000001
10
226
20
106.02000000000001
10
226
20
103.01000000000001
10
247.60000000000002
20
103.01000000000001
10
247.60000000000002
20
106.02000000000001
10
269.20000000000005
20
106.02000000000001
10
269.20000000000005
20
103.01000000000001
10
290.80000000000001
20
103.01000000000001
10
290.80000000000001
20
106.02000000000001
10
312.39999999999998
20
106.02000000000001
10
312.39999999999998
20
103.01000000000001
10
334
20
103.01000000000001
10
334
20
106.02000000000001
0
LWPOLYLINE
5
101
100
AcDbEntity
8
0
100
AcDbPolyline
90
4
70
1
43
0.0
10
18.02
20
75.009999999999991
10
15
20
75.009999999999991
10
15
20
31.009999999999991
10
18.02
20
31.009999999999991
0
LWPOLYLINE
5
102
100
AcDbEntity
8
0
100
AcDbPolyline
90
4
70
1
43
0.0
10
27.020000000000003
20
100.02000000000001
10
24.020000000000003
20
100.02000000000001
10
24.020000000000003
20
96.52000000000001
10
27.020000000000003
20
96.52000000000001
0
LWPOLYLINE
5
103
100
AcDbEntity
8
0
100
AcDbPolyline
90
4
70
1
43
0.0
10
27.02
20
9.4999999999999911
10
24.020000000000003
20
9.4999999999999929
10
24.020000000000003
20
5.999999999999992
10
27.02
20
5.999999999999992
0
LWPOLYLINE
5
104
100
AcDbEntity
8
0
100
AcDbPolyline
90
4
70
1
43
0.0
10
177.40000000000003
20
93.019999999999996
10
180.60000000000002
20
93.019999999999996
10
180.60000000000002
20
80.019999999999982
10
177.40000000000003
20
80.019999999999982
0
LWPOLYLINE
5
105
100
AcDbEntity
8
0
100
AcDbPolyline
90
4
70
1
43
0.0
10
230.60000000000002
20
93.019999999999996
10
227.40000000000003
20
93.019999999999996
10
227.40000000000003
20
80.019999999999982
10
230.60000000000002
20
80.019999999999982
0
LWPOLYLINE
5
106
100
AcDbEntity
8
0
100
AcDbPolyline
90
4
70
1
43
0.0
10
280.59999999999997
20
93.019999999999996
10
277.39999999999998
20
93.019999999999996
10
277.39999999999998
20
80.019999999999982
10
280.59999999999997
20
80.019999999999982
0
LWPOLYLINE
5
107
100
AcDbEntity
8
0
100
AcDbPolyline
90
4
70
1
43
0.0
10
330.60000000000002
20
93.019999999999996
10
327.40000000000003
20
93.019999999999996
10
327.40000000000003
20
80.019999999999982
10
330.60000000000002
20
80.019999999999982
0
LWPOLYLINE
5
108
100
AcDbEntity
8
0
100
AcDbPolyline
90
4
70
1
43
0.0
10
180.60000000000002
20
25.999999999999996
10
177.40000000000003
20
25.999999999999996
10
177.40000000000003
20
12.999999999999998
10
180.60000000000002
20
12.999999999999998
0
LWPOLYLINE
5
109
100
AcDbEntity
8
0
100
AcDbPolyline
90
4
70
1
43
0.0
10
230.60000000000002
20
25.999999999999996
10
227.40000000000003
20
25.999999999999996
10
227.40000000000003
20
12.999999999999996
10
230.60000000000002
20
12.999999999999996
0
LWPOLYLINE
5
110
100
AcDbEntity
8
0
100
AcDbPolyline
90
4
70
1
43
0.0
10
280.59999999999997
20
25.999999999999996
10
277.39999999999998
20
25.999999999999996
10
277.39999999999998
20
12.999999999999996
10
280.59999999999997
20
12.999999999999996
0
LWPOLYLINE
5
111
100
AcDbEntity
8
0
100
AcDbPolyline
90
4
70
1
43
0.0
10
330.60000000000002
20
25.999999999999996
10
327.40000000000003
20
25.999999999999996
10
327.40000000000003
20
12.999999999999996
10
330.60000000000002
20
12.999999999999996
0
LWPOLYLINE
5
112
100
AcDbEntity
8
0
100
AcDbPolyline
90
4
70
1
43
0.0
10
290.80000000000001
20
0
10
269.20000000000005
20
0
10
269.20000000000005
20
3.0099999999999998
10
290.80000000000001
20
3.0099999999999998
0
LWPOLYLINE
5
113
100
AcDbEntity
8
0
100
AcDbPolyline
90
4
70
1
43
0.0
10
334
20
-1.8398279566363132e-13
10
312.39999999999998
20
-1.8374191057546341e-13
10
312.39999999999998
20
3.0099999999998155
10
334
20
3.0099999999998155
0
ENDSEC
0
SECTION
2
OBJECTS
0
DICTIONARY
5
C
100
AcDbDictionary
3
ACAD_GROUP
350
D
3
ACAD_MLINESTYLE
350
17
0
DICTIONARY
5
D
100
AcDbDictionary
0
DICTIONARY
5
1A
330
C
100
AcDbDictionary
0
DICTIONARY
5
17
100
AcDbDictionary
0
ENDSEC
0
EOF
