0
SECTION
2
HEADER
9
$INSUNITS
70
4
9
$ACADVER
1
AC1014
9
$HANDSEED
5
FFFF
0
ENDSEC
0
SECTION
2
TABLES
0
TABLE
2
VPORT
5
8
100
AcDbSymbolTable
0
ENDTAB
0
TABLE
2
LTYPE
5
5
100
AcDbSymbolTable
0
LTYPE
5
14
100
AcDbSymbolTableRecord
100
AcDbLinetypeTableRecord
2
BYBLOCK
70
0
0
LTYPE
5
15
100
AcDbSymbolTableRecord
100
AcDbLinetypeTableRecord
2
BYLAYER
70
0
0
ENDTAB
0
TABLE
2
LAYER
5
2
100
AcDbSymbolTable
70
2
0
LAYER
5
50
100
AcDbSymbolTableRecord
100
AcDbLayerTableRecord
2
0
70
0
6
CONTINUOUS
0
ENDTAB
0
TABLE
2
STYLE
5
3
100
AcDbSymbolTable
70
1
0
STYLE
5
11
100
AcDbSymbolTableRecord
100
AcDbTextStyleTableRecord
2
STANDARD
70
0
0
ENDTAB
0
TABLE
2
VIEW
5
6
100
AcDbSymbolTable
70
0
0
ENDTAB
0
TABLE
2
UCS
5
7
100
AcDbSymbolTable
70
0
0
ENDTAB
0
TABLE
2
APPID
5
9
100
AcDbSymbolTable
70
2
0
APPID
5
12
100
AcDbSymbolTableRecord
100
AcDbRegAppTableRecord
2
ACAD
70
0
0
ENDTAB
0
TABLE
2
DIMSTYLE
5
A
100
AcDbSymbolTable
70
1
0
ENDTAB
0
TABLE
2
BLOCK_RECORD
5
1
100
AcDbSymbolTable
70
1
0
BLOCK_RECORD
5
1F
100
AcDbSymbolTableRecord
100
AcDbBlockTableRecord
2
*MODEL_SPACE
0
BLOCK_RECORD
5
1B
100
AcDbSymbolTableRecord
100
AcDbBlockTableRecord
2
*PAPER_SPACE
0
ENDTAB
0
ENDSEC
0
SECTION
2
BLOCKS
0
BLOCK
5
20
100
AcDbEntity
100
AcDbBlockBegin
2
*MODEL_SPACE
0
ENDBLK
5
21
100
AcDbEntity
100
AcDbBlockEnd
0
BLOCK
5
1C
100
AcDbEntity
100
AcDbBlockBegin
2
*PAPER_SPACE
0
ENDBLK
5
1D
100
AcDbEntity
100
AcDbBlockEnd
0
ENDSEC
0
SECTION
2
ENTITIES
0
LWPOLYLINE
5
100
100
AcDbEntity
8
0
100
AcDbPolyline
90
64
70
1
43
0.0
10
345.60000000000002
20
106.02000000000001
10
345.60000000000002
20
3.0099999999999998
10
334.10000000000002
20
3.0099999999999998
10
334.10000000000002
20
-8.1401175808859995e-17
10
312.44999999999999
20
5.5511151231257827e-16
10
312.44999999999999
20
3.0100000000000007
10
290.89999999999998
20
3.0100000000000007
10
290.89999999999998
20
-2.124950901231713e-14
10
269.25
20
-9.9920072216264089e-15
10
269.25
20
3.0099999999999905
10
247.69999999999999
20
3.0099999999999905
10
247.69999999999999
20
-5.109702468185469e-15
10
226.05000000000001
20
3.3306690738754696e-15
10
226.05000000000001
20
3.0099999999999967
10
204.5
20
3.010000000000002
10
204.5
20
-3.3890956615025662e-16
10
182.84999999999999
20
-5.5511151231257827e-16
10
182.84999999999999
20
3.0099999999999936
10
161.29999999999998
20
3.0099999999999989
10
161.29999999999998
20
-2.6367373234917169e-16
10
139.65000000000003
20
-3.3306690738754696e-15
10
139.65000000000003
20
3.0099999999999949
10
118.10000000000002
20
3.0099999999999993
10
118.10000000000002
20
-1.884378985480873e-16
10
96.449999999999989
20
1.6653345369377348e-15
10
96.449999999999989
20
3.0100000000000011
10
74.899999999999991
20
3.0100000000000051
10
74.899999999999991
20
-1.1320206474700242e-16
10
53.249999999999993
20
3.8857805861880479e-15
10
53.249999999999993
20
3.0100000000000038
10
31.699999999999996
20
3.0100000000000042
10
31.699999999999996
20
1.3122422319443833e-17
10
9.9499999999999993
20
0
10
9.9499999999999993
20
3.0099999999999998
10
0
20
3.0100000000000016
10
0
20
106.02000000000001
10
10
20
106.02000000000001
10
10
20
103.01000000000001
10
14.999999999999929
20
103.01000000000001
10
15
20
98.010000000000005
10
18.02
20
98.010000000000005
10
18.01999999999996
20
103.01000000000001
10
24.02000000000001
20
103.01000000000001
10
24.020000000000003
20
93.010000000000005
10
27.040000000000003
20
93.010000000000005
10
27.040000000000006
20
103.01000000000001
10
177.04000000000002
20
103.01000000000001
10
177.04000000000002
20
98.009999999999991
10
180.06
20
98.009999999999991
10
180.06
20
103.01000000000001
10
227.04000000000002
20
103.01000000000001
10
227.04000000000002
20
98.010000000000005
10
230.06
20
98.010000000000005
10
230.06
20
103.01000000000001
10
277.04000000000002
20
103.01000000000001
10
277.04000000000002
20
98.010000000000005
10
280.06000000000006
20
98.010000000000005
10
280.06000000000006
20
103.01000000000001
10
327.04000000000002
20
103.01000000000001
10
327.04000000000002
20
98.010000000000005
10
330.06
20
98.010000000000005
10
330.06
20
103.01000000000001
10
335.60000000000002
20
103.01000000000001
10
335.60000000000002
20
106.02000000000001
0
LINE
5
101
100
AcDbEntity
8
0
100
AcDbLine
10
0
20
3.0099999999999998
30
0
11
0
21
0
31
0
0
LWPOLYLINE
5
102
100
AcDbEntity
8
0
100
AcDbPolyline
90
4
70
1
43
0.0
10
97.040000000000006
20
53.010000000000005
10
57.040000000000006
20
53.010000000000005
10
57.040000000000006
20
13.010000000000002
10
97.040000000000006
20
13.010000000000002
0
ENDSEC
0
SECTION
2
OBJECTS
0
DICTIONARY
5
C
100
AcDbDictionary
3
ACAD_GROUP
350
D
3
ACAD_MLINESTYLE
350
17
0
DICTIONARY
5
D
100
AcDbDictionary
0
DICTIONARY
5
1A
330
C
100
AcDbDictionary
0
DICTIONARY
5
17
100
AcDbDictionary
0
ENDSEC
0
EOF
