G04 #@! TF.GenerationSoftware,KiCad,Pcbnew,(5.1.6)-1*
G04 #@! TF.CreationDate,2020-08-28T23:53:28+02:00*
G04 #@! TF.ProjectId,labAThome,6c616241-5468-46f6-9d65-2e6b69636164,rev?*
G04 #@! TF.SameCoordinates,Original*
G04 #@! TF.FileFunction,Legend,Bot*
G04 #@! TF.FilePolarity,Positive*
%FSLAX46Y46*%
G04 Gerber Fmt 4.6, Leading zero omitted, Abs format (unit mm)*
G04 Created by KiCad (PCBNEW (5.1.6)-1) date 2020-08-28 23:53:28*
%MOMM*%
%LPD*%
G01*
G04 APERTURE LIST*
%ADD10C,0.200000*%
%ADD11C,0.300000*%
%ADD12C,0.150000*%
%ADD13C,0.010000*%
%ADD14C,0.120000*%
G04 APERTURE END LIST*
D10*
X33293857Y-70500380D02*
X33293857Y-69738476D01*
X33293857Y-68500380D02*
X33293857Y-67738476D01*
X32722428Y-68119428D02*
X33865285Y-68119428D01*
X32793857Y-66548000D02*
X32722428Y-66405142D01*
X32722428Y-66167047D01*
X32793857Y-66071809D01*
X32865285Y-66024190D01*
X33008142Y-65976571D01*
X33151000Y-65976571D01*
X33293857Y-66024190D01*
X33365285Y-66071809D01*
X33436714Y-66167047D01*
X33508142Y-66357523D01*
X33579571Y-66452761D01*
X33651000Y-66500380D01*
X33793857Y-66548000D01*
X33936714Y-66548000D01*
X34079571Y-66500380D01*
X34151000Y-66452761D01*
X34222428Y-66357523D01*
X34222428Y-66119428D01*
X34151000Y-65976571D01*
X32793857Y-65167047D02*
X32722428Y-65262285D01*
X32722428Y-65452761D01*
X32793857Y-65548000D01*
X32936714Y-65595619D01*
X33508142Y-65595619D01*
X33651000Y-65548000D01*
X33722428Y-65452761D01*
X33722428Y-65262285D01*
X33651000Y-65167047D01*
X33508142Y-65119428D01*
X33365285Y-65119428D01*
X33222428Y-65595619D01*
X33722428Y-64690857D02*
X32722428Y-64690857D01*
X33579571Y-64690857D02*
X33651000Y-64643238D01*
X33722428Y-64548000D01*
X33722428Y-64405142D01*
X33651000Y-64309904D01*
X33508142Y-64262285D01*
X32722428Y-64262285D01*
X32793857Y-63833714D02*
X32722428Y-63738476D01*
X32722428Y-63548000D01*
X32793857Y-63452761D01*
X32936714Y-63405142D01*
X33008142Y-63405142D01*
X33151000Y-63452761D01*
X33222428Y-63548000D01*
X33222428Y-63690857D01*
X33293857Y-63786095D01*
X33436714Y-63833714D01*
X33508142Y-63833714D01*
X33651000Y-63786095D01*
X33722428Y-63690857D01*
X33722428Y-63548000D01*
X33651000Y-63452761D01*
X32793857Y-62595619D02*
X32722428Y-62690857D01*
X32722428Y-62881333D01*
X32793857Y-62976571D01*
X32936714Y-63024190D01*
X33508142Y-63024190D01*
X33651000Y-62976571D01*
X33722428Y-62881333D01*
X33722428Y-62690857D01*
X33651000Y-62595619D01*
X33508142Y-62548000D01*
X33365285Y-62548000D01*
X33222428Y-63024190D01*
X56771904Y-76495000D02*
X56676666Y-76542619D01*
X56533809Y-76542619D01*
X56390952Y-76495000D01*
X56295714Y-76399761D01*
X56248095Y-76304523D01*
X56200476Y-76114047D01*
X56200476Y-75971190D01*
X56248095Y-75780714D01*
X56295714Y-75685476D01*
X56390952Y-75590238D01*
X56533809Y-75542619D01*
X56629047Y-75542619D01*
X56771904Y-75590238D01*
X56819523Y-75637857D01*
X56819523Y-75971190D01*
X56629047Y-75971190D01*
X57629047Y-75590238D02*
X57533809Y-75542619D01*
X57343333Y-75542619D01*
X57248095Y-75590238D01*
X57200476Y-75685476D01*
X57200476Y-76066428D01*
X57248095Y-76161666D01*
X57343333Y-76209285D01*
X57533809Y-76209285D01*
X57629047Y-76161666D01*
X57676666Y-76066428D01*
X57676666Y-75971190D01*
X57200476Y-75875952D01*
X58533809Y-76209285D02*
X58533809Y-75399761D01*
X58486190Y-75304523D01*
X58438571Y-75256904D01*
X58343333Y-75209285D01*
X58200476Y-75209285D01*
X58105238Y-75256904D01*
X58533809Y-75590238D02*
X58438571Y-75542619D01*
X58248095Y-75542619D01*
X58152857Y-75590238D01*
X58105238Y-75637857D01*
X58057619Y-75733095D01*
X58057619Y-76018809D01*
X58105238Y-76114047D01*
X58152857Y-76161666D01*
X58248095Y-76209285D01*
X58438571Y-76209285D01*
X58533809Y-76161666D01*
X59390952Y-75590238D02*
X59295714Y-75542619D01*
X59105238Y-75542619D01*
X59010000Y-75590238D01*
X58962380Y-75685476D01*
X58962380Y-76066428D01*
X59010000Y-76161666D01*
X59105238Y-76209285D01*
X59295714Y-76209285D01*
X59390952Y-76161666D01*
X59438571Y-76066428D01*
X59438571Y-75971190D01*
X58962380Y-75875952D01*
X59867142Y-76209285D02*
X59867142Y-75542619D01*
X59867142Y-76114047D02*
X59914761Y-76161666D01*
X60010000Y-76209285D01*
X60152857Y-76209285D01*
X60248095Y-76161666D01*
X60295714Y-76066428D01*
X60295714Y-75542619D01*
X60724285Y-75590238D02*
X60819523Y-75542619D01*
X61010000Y-75542619D01*
X61105238Y-75590238D01*
X61152857Y-75685476D01*
X61152857Y-75733095D01*
X61105238Y-75828333D01*
X61010000Y-75875952D01*
X60867142Y-75875952D01*
X60771904Y-75923571D01*
X60724285Y-76018809D01*
X60724285Y-76066428D01*
X60771904Y-76161666D01*
X60867142Y-76209285D01*
X61010000Y-76209285D01*
X61105238Y-76161666D01*
X61962380Y-75590238D02*
X61867142Y-75542619D01*
X61676666Y-75542619D01*
X61581428Y-75590238D01*
X61533809Y-75685476D01*
X61533809Y-76066428D01*
X61581428Y-76161666D01*
X61676666Y-76209285D01*
X61867142Y-76209285D01*
X61962380Y-76161666D01*
X62010000Y-76066428D01*
X62010000Y-75971190D01*
X61533809Y-75875952D01*
X62438571Y-75542619D02*
X62438571Y-76209285D01*
X62438571Y-76542619D02*
X62390952Y-76495000D01*
X62438571Y-76447380D01*
X62486190Y-76495000D01*
X62438571Y-76542619D01*
X62438571Y-76447380D01*
X62771904Y-76209285D02*
X63152857Y-76209285D01*
X62914761Y-76542619D02*
X62914761Y-75685476D01*
X62962380Y-75590238D01*
X63057619Y-75542619D01*
X63152857Y-75542619D01*
X63486190Y-75542619D02*
X63486190Y-76209285D01*
X63486190Y-76542619D02*
X63438571Y-76495000D01*
X63486190Y-76447380D01*
X63533809Y-76495000D01*
X63486190Y-76542619D01*
X63486190Y-76447380D01*
X64390952Y-76209285D02*
X64390952Y-75399761D01*
X64343333Y-75304523D01*
X64295714Y-75256904D01*
X64200476Y-75209285D01*
X64057619Y-75209285D01*
X63962380Y-75256904D01*
X64390952Y-75590238D02*
X64295714Y-75542619D01*
X64105238Y-75542619D01*
X64009999Y-75590238D01*
X63962380Y-75637857D01*
X63914761Y-75733095D01*
X63914761Y-76018809D01*
X63962380Y-76114047D01*
X64009999Y-76161666D01*
X64105238Y-76209285D01*
X64295714Y-76209285D01*
X64390952Y-76161666D01*
X65248095Y-75590238D02*
X65152857Y-75542619D01*
X64962380Y-75542619D01*
X64867142Y-75590238D01*
X64819523Y-75685476D01*
X64819523Y-76066428D01*
X64867142Y-76161666D01*
X64962380Y-76209285D01*
X65152857Y-76209285D01*
X65248095Y-76161666D01*
X65295714Y-76066428D01*
X65295714Y-75971190D01*
X64819523Y-75875952D01*
X65724285Y-75542619D02*
X65724285Y-76209285D01*
X65724285Y-76018809D02*
X65771904Y-76114047D01*
X65819523Y-76161666D01*
X65914761Y-76209285D01*
X66009999Y-76209285D01*
X67057619Y-75828333D02*
X67533809Y-75828333D01*
X66962380Y-75542619D02*
X67295714Y-76542619D01*
X67629047Y-75542619D01*
X68390952Y-76209285D02*
X68390952Y-75542619D01*
X67962380Y-76209285D02*
X67962380Y-75685476D01*
X68010000Y-75590238D01*
X68105238Y-75542619D01*
X68248095Y-75542619D01*
X68343333Y-75590238D01*
X68390952Y-75637857D01*
X68819523Y-75590238D02*
X68914761Y-75542619D01*
X69105238Y-75542619D01*
X69200476Y-75590238D01*
X69248095Y-75685476D01*
X69248095Y-75733095D01*
X69200476Y-75828333D01*
X69105238Y-75875952D01*
X68962380Y-75875952D01*
X68867142Y-75923571D01*
X68819523Y-76018809D01*
X68819523Y-76066428D01*
X68867142Y-76161666D01*
X68962380Y-76209285D01*
X69105238Y-76209285D01*
X69200476Y-76161666D01*
X69629047Y-75590238D02*
X69724285Y-75542619D01*
X69914761Y-75542619D01*
X70010000Y-75590238D01*
X70057619Y-75685476D01*
X70057619Y-75733095D01*
X70010000Y-75828333D01*
X69914761Y-75875952D01*
X69771904Y-75875952D01*
X69676666Y-75923571D01*
X69629047Y-76018809D01*
X69629047Y-76066428D01*
X69676666Y-76161666D01*
X69771904Y-76209285D01*
X69914761Y-76209285D01*
X70010000Y-76161666D01*
X70914761Y-75590238D02*
X70819523Y-75542619D01*
X70629047Y-75542619D01*
X70533809Y-75590238D01*
X70486190Y-75637857D01*
X70438571Y-75733095D01*
X70438571Y-76018809D01*
X70486190Y-76114047D01*
X70533809Y-76161666D01*
X70629047Y-76209285D01*
X70819523Y-76209285D01*
X70914761Y-76161666D01*
X71343333Y-75542619D02*
X71343333Y-76542619D01*
X71771904Y-75542619D02*
X71771904Y-76066428D01*
X71724285Y-76161666D01*
X71629047Y-76209285D01*
X71486190Y-76209285D01*
X71390952Y-76161666D01*
X71343333Y-76114047D01*
X72390952Y-75542619D02*
X72295714Y-75590238D01*
X72248095Y-75685476D01*
X72248095Y-76542619D01*
X73200476Y-76209285D02*
X73200476Y-75542619D01*
X72771904Y-76209285D02*
X72771904Y-75685476D01*
X72819523Y-75590238D01*
X72914761Y-75542619D01*
X73057619Y-75542619D01*
X73152857Y-75590238D01*
X73200476Y-75637857D01*
X73629047Y-75590238D02*
X73724285Y-75542619D01*
X73914761Y-75542619D01*
X74010000Y-75590238D01*
X74057619Y-75685476D01*
X74057619Y-75733095D01*
X74010000Y-75828333D01*
X73914761Y-75875952D01*
X73771904Y-75875952D01*
X73676666Y-75923571D01*
X73629047Y-76018809D01*
X73629047Y-76066428D01*
X73676666Y-76161666D01*
X73771904Y-76209285D01*
X73914761Y-76209285D01*
X74010000Y-76161666D01*
X74438571Y-75590238D02*
X74533809Y-75542619D01*
X74724285Y-75542619D01*
X74819523Y-75590238D01*
X74867142Y-75685476D01*
X74867142Y-75733095D01*
X74819523Y-75828333D01*
X74724285Y-75875952D01*
X74581428Y-75875952D01*
X74486190Y-75923571D01*
X74438571Y-76018809D01*
X74438571Y-76066428D01*
X74486190Y-76161666D01*
X74581428Y-76209285D01*
X74724285Y-76209285D01*
X74819523Y-76161666D01*
X75295714Y-75637857D02*
X75343333Y-75590238D01*
X75295714Y-75542619D01*
X75248095Y-75590238D01*
X75295714Y-75637857D01*
X75295714Y-75542619D01*
X75295714Y-76161666D02*
X75343333Y-76114047D01*
X75295714Y-76066428D01*
X75248095Y-76114047D01*
X75295714Y-76161666D01*
X75295714Y-76066428D01*
X56248095Y-74223571D02*
X57010000Y-74223571D01*
X58200476Y-73890238D02*
X58343333Y-73842619D01*
X58581428Y-73842619D01*
X58676666Y-73890238D01*
X58724285Y-73937857D01*
X58771904Y-74033095D01*
X58771904Y-74128333D01*
X58724285Y-74223571D01*
X58676666Y-74271190D01*
X58581428Y-74318809D01*
X58390952Y-74366428D01*
X58295714Y-74414047D01*
X58248095Y-74461666D01*
X58200476Y-74556904D01*
X58200476Y-74652142D01*
X58248095Y-74747380D01*
X58295714Y-74795000D01*
X58390952Y-74842619D01*
X58629047Y-74842619D01*
X58771904Y-74795000D01*
X59200476Y-74366428D02*
X59533809Y-74366428D01*
X59676666Y-73842619D02*
X59200476Y-73842619D01*
X59200476Y-74842619D01*
X59676666Y-74842619D01*
X60676666Y-73842619D02*
X60343333Y-74318809D01*
X60105238Y-73842619D02*
X60105238Y-74842619D01*
X60486190Y-74842619D01*
X60581428Y-74795000D01*
X60629047Y-74747380D01*
X60676666Y-74652142D01*
X60676666Y-74509285D01*
X60629047Y-74414047D01*
X60581428Y-74366428D01*
X60486190Y-74318809D01*
X60105238Y-74318809D01*
X60962380Y-74842619D02*
X61295714Y-73842619D01*
X61629047Y-74842619D01*
X62152857Y-74842619D02*
X62343333Y-74842619D01*
X62438571Y-74795000D01*
X62533809Y-74699761D01*
X62581428Y-74509285D01*
X62581428Y-74175952D01*
X62533809Y-73985476D01*
X62438571Y-73890238D01*
X62343333Y-73842619D01*
X62152857Y-73842619D01*
X62057619Y-73890238D01*
X61962380Y-73985476D01*
X61914761Y-74175952D01*
X61914761Y-74509285D01*
X61962380Y-74699761D01*
X62057619Y-74795000D01*
X62152857Y-74842619D01*
X62962380Y-74747380D02*
X63010000Y-74795000D01*
X63105238Y-74842619D01*
X63343333Y-74842619D01*
X63438571Y-74795000D01*
X63486190Y-74747380D01*
X63533809Y-74652142D01*
X63533809Y-74556904D01*
X63486190Y-74414047D01*
X62914761Y-73842619D01*
X63533809Y-73842619D01*
X64010000Y-73890238D02*
X64010000Y-73842619D01*
X63962380Y-73747380D01*
X63914761Y-73699761D01*
X64771904Y-74366428D02*
X64438571Y-74366428D01*
X64438571Y-73842619D02*
X64438571Y-74842619D01*
X64914761Y-74842619D01*
X65248095Y-74128333D02*
X65724285Y-74128333D01*
X65152857Y-73842619D02*
X65486190Y-74842619D01*
X65819523Y-73842619D01*
X66152857Y-73842619D02*
X66152857Y-74842619D01*
X66724285Y-73842619D01*
X66724285Y-74842619D01*
X67724285Y-73842619D02*
X67152857Y-73842619D01*
X67438571Y-73842619D02*
X67438571Y-74842619D01*
X67343333Y-74699761D01*
X67248095Y-74604523D01*
X67152857Y-74556904D01*
X67914761Y-73747380D02*
X68676666Y-73747380D01*
X68867142Y-73890238D02*
X69010000Y-73842619D01*
X69248095Y-73842619D01*
X69343333Y-73890238D01*
X69390952Y-73937857D01*
X69438571Y-74033095D01*
X69438571Y-74128333D01*
X69390952Y-74223571D01*
X69343333Y-74271190D01*
X69248095Y-74318809D01*
X69057619Y-74366428D01*
X68962380Y-74414047D01*
X68914761Y-74461666D01*
X68867142Y-74556904D01*
X68867142Y-74652142D01*
X68914761Y-74747380D01*
X68962380Y-74795000D01*
X69057619Y-74842619D01*
X69295714Y-74842619D01*
X69438571Y-74795000D01*
X69867142Y-74366428D02*
X70200476Y-74366428D01*
X70343333Y-73842619D02*
X69867142Y-73842619D01*
X69867142Y-74842619D01*
X70343333Y-74842619D01*
X70771904Y-73842619D02*
X70771904Y-74842619D01*
X71343333Y-73842619D01*
X71343333Y-74842619D01*
X71771904Y-73890238D02*
X71914761Y-73842619D01*
X72152857Y-73842619D01*
X72248095Y-73890238D01*
X72295714Y-73937857D01*
X72343333Y-74033095D01*
X72343333Y-74128333D01*
X72295714Y-74223571D01*
X72248095Y-74271190D01*
X72152857Y-74318809D01*
X71962380Y-74366428D01*
X71867142Y-74414047D01*
X71819523Y-74461666D01*
X71771904Y-74556904D01*
X71771904Y-74652142D01*
X71819523Y-74747380D01*
X71867142Y-74795000D01*
X71962380Y-74842619D01*
X72200476Y-74842619D01*
X72343333Y-74795000D01*
X72771904Y-74366428D02*
X73105238Y-74366428D01*
X73248095Y-73842619D02*
X72771904Y-73842619D01*
X72771904Y-74842619D01*
X73248095Y-74842619D01*
X56248095Y-72523571D02*
X57010000Y-72523571D01*
X58200476Y-72190238D02*
X58343333Y-72142619D01*
X58581428Y-72142619D01*
X58676666Y-72190238D01*
X58724285Y-72237857D01*
X58771904Y-72333095D01*
X58771904Y-72428333D01*
X58724285Y-72523571D01*
X58676666Y-72571190D01*
X58581428Y-72618809D01*
X58390952Y-72666428D01*
X58295714Y-72714047D01*
X58248095Y-72761666D01*
X58200476Y-72856904D01*
X58200476Y-72952142D01*
X58248095Y-73047380D01*
X58295714Y-73095000D01*
X58390952Y-73142619D01*
X58629047Y-73142619D01*
X58771904Y-73095000D01*
X59200476Y-72666428D02*
X59533809Y-72666428D01*
X59676666Y-72142619D02*
X59200476Y-72142619D01*
X59200476Y-73142619D01*
X59676666Y-73142619D01*
X60676666Y-72142619D02*
X60343333Y-72618809D01*
X60105238Y-72142619D02*
X60105238Y-73142619D01*
X60486190Y-73142619D01*
X60581428Y-73095000D01*
X60629047Y-73047380D01*
X60676666Y-72952142D01*
X60676666Y-72809285D01*
X60629047Y-72714047D01*
X60581428Y-72666428D01*
X60486190Y-72618809D01*
X60105238Y-72618809D01*
X60962380Y-73142619D02*
X61295714Y-72142619D01*
X61629047Y-73142619D01*
X62152857Y-73142619D02*
X62343333Y-73142619D01*
X62438571Y-73095000D01*
X62533809Y-72999761D01*
X62581428Y-72809285D01*
X62581428Y-72475952D01*
X62533809Y-72285476D01*
X62438571Y-72190238D01*
X62343333Y-72142619D01*
X62152857Y-72142619D01*
X62057619Y-72190238D01*
X61962380Y-72285476D01*
X61914761Y-72475952D01*
X61914761Y-72809285D01*
X61962380Y-72999761D01*
X62057619Y-73095000D01*
X62152857Y-73142619D01*
X63533809Y-72142619D02*
X62962380Y-72142619D01*
X63248095Y-72142619D02*
X63248095Y-73142619D01*
X63152857Y-72999761D01*
X63057619Y-72904523D01*
X62962380Y-72856904D01*
X64009999Y-72190238D02*
X64009999Y-72142619D01*
X63962380Y-72047380D01*
X63914761Y-71999761D01*
X64438571Y-72142619D02*
X64438571Y-73142619D01*
X64867142Y-73047380D02*
X64914761Y-73095000D01*
X65009999Y-73142619D01*
X65248095Y-73142619D01*
X65343333Y-73095000D01*
X65390952Y-73047380D01*
X65438571Y-72952142D01*
X65438571Y-72856904D01*
X65390952Y-72714047D01*
X64819523Y-72142619D01*
X65438571Y-72142619D01*
X65819523Y-72190238D02*
X65962380Y-72142619D01*
X66200476Y-72142619D01*
X66295714Y-72190238D01*
X66343333Y-72237857D01*
X66390952Y-72333095D01*
X66390952Y-72428333D01*
X66343333Y-72523571D01*
X66295714Y-72571190D01*
X66200476Y-72618809D01*
X66009999Y-72666428D01*
X65914761Y-72714047D01*
X65867142Y-72761666D01*
X65819523Y-72856904D01*
X65819523Y-72952142D01*
X65867142Y-73047380D01*
X65914761Y-73095000D01*
X66009999Y-73142619D01*
X66248095Y-73142619D01*
X66390952Y-73095000D01*
X66867142Y-72190238D02*
X66867142Y-72142619D01*
X66819523Y-72047380D01*
X66771904Y-71999761D01*
X67867142Y-72142619D02*
X67533809Y-72618809D01*
X67295714Y-72142619D02*
X67295714Y-73142619D01*
X67676666Y-73142619D01*
X67771904Y-73095000D01*
X67819523Y-73047380D01*
X67867142Y-72952142D01*
X67867142Y-72809285D01*
X67819523Y-72714047D01*
X67771904Y-72666428D01*
X67676666Y-72618809D01*
X67295714Y-72618809D01*
X68248095Y-72190238D02*
X68390952Y-72142619D01*
X68629047Y-72142619D01*
X68724285Y-72190238D01*
X68771904Y-72237857D01*
X68819523Y-72333095D01*
X68819523Y-72428333D01*
X68771904Y-72523571D01*
X68724285Y-72571190D01*
X68629047Y-72618809D01*
X68438571Y-72666428D01*
X68343333Y-72714047D01*
X68295714Y-72761666D01*
X68248095Y-72856904D01*
X68248095Y-72952142D01*
X68295714Y-73047380D01*
X68343333Y-73095000D01*
X68438571Y-73142619D01*
X68676666Y-73142619D01*
X68819523Y-73095000D01*
X69676666Y-72809285D02*
X69676666Y-72142619D01*
X69438571Y-73190238D02*
X69200476Y-72475952D01*
X69819523Y-72475952D01*
X70343333Y-72714047D02*
X70248095Y-72761666D01*
X70200476Y-72809285D01*
X70152857Y-72904523D01*
X70152857Y-72952142D01*
X70200476Y-73047380D01*
X70248095Y-73095000D01*
X70343333Y-73142619D01*
X70533809Y-73142619D01*
X70629047Y-73095000D01*
X70676666Y-73047380D01*
X70724285Y-72952142D01*
X70724285Y-72904523D01*
X70676666Y-72809285D01*
X70629047Y-72761666D01*
X70533809Y-72714047D01*
X70343333Y-72714047D01*
X70248095Y-72666428D01*
X70200476Y-72618809D01*
X70152857Y-72523571D01*
X70152857Y-72333095D01*
X70200476Y-72237857D01*
X70248095Y-72190238D01*
X70343333Y-72142619D01*
X70533809Y-72142619D01*
X70629047Y-72190238D01*
X70676666Y-72237857D01*
X70724285Y-72333095D01*
X70724285Y-72523571D01*
X70676666Y-72618809D01*
X70629047Y-72666428D01*
X70533809Y-72714047D01*
X71629047Y-73142619D02*
X71152857Y-73142619D01*
X71105238Y-72666428D01*
X71152857Y-72714047D01*
X71248095Y-72761666D01*
X71486190Y-72761666D01*
X71581428Y-72714047D01*
X71629047Y-72666428D01*
X71676666Y-72571190D01*
X71676666Y-72333095D01*
X71629047Y-72237857D01*
X71581428Y-72190238D01*
X71486190Y-72142619D01*
X71248095Y-72142619D01*
X71152857Y-72190238D01*
X71105238Y-72237857D01*
X72152857Y-72190238D02*
X72152857Y-72142619D01*
X72105238Y-72047380D01*
X72057619Y-71999761D01*
X73152857Y-72237857D02*
X73105238Y-72190238D01*
X72962380Y-72142619D01*
X72867142Y-72142619D01*
X72724285Y-72190238D01*
X72629047Y-72285476D01*
X72581428Y-72380714D01*
X72533809Y-72571190D01*
X72533809Y-72714047D01*
X72581428Y-72904523D01*
X72629047Y-72999761D01*
X72724285Y-73095000D01*
X72867142Y-73142619D01*
X72962380Y-73142619D01*
X73105238Y-73095000D01*
X73152857Y-73047380D01*
X73533809Y-72428333D02*
X74010000Y-72428333D01*
X73438571Y-72142619D02*
X73771904Y-73142619D01*
X74105238Y-72142619D01*
X74438571Y-72142619D02*
X74438571Y-73142619D01*
X75010000Y-72142619D01*
X75010000Y-73142619D01*
X75533809Y-72190238D02*
X75533809Y-72142619D01*
X75486190Y-72047380D01*
X75438571Y-71999761D01*
X75962380Y-72666428D02*
X76295714Y-72666428D01*
X76438571Y-72142619D02*
X75962380Y-72142619D01*
X75962380Y-73142619D01*
X76438571Y-73142619D01*
X76771904Y-73142619D02*
X77438571Y-72142619D01*
X77438571Y-73142619D02*
X76771904Y-72142619D01*
X77676666Y-73142619D02*
X78248095Y-73142619D01*
X77962380Y-72142619D02*
X77962380Y-73142619D01*
X83604761Y-69663571D02*
X84080952Y-69663571D01*
X84128571Y-70377857D01*
X84080952Y-70306428D01*
X83985714Y-70235000D01*
X83747619Y-70235000D01*
X83652380Y-70306428D01*
X83604761Y-70377857D01*
X83557142Y-70520714D01*
X83557142Y-70877857D01*
X83604761Y-71020714D01*
X83652380Y-71092142D01*
X83747619Y-71163571D01*
X83985714Y-71163571D01*
X84080952Y-71092142D01*
X84128571Y-71020714D01*
X83271428Y-69663571D02*
X82938095Y-71163571D01*
X82604761Y-69663571D01*
X81604761Y-69663571D02*
X80985714Y-69663571D01*
X81319047Y-70235000D01*
X81176190Y-70235000D01*
X81080952Y-70306428D01*
X81033333Y-70377857D01*
X80985714Y-70520714D01*
X80985714Y-70877857D01*
X81033333Y-71020714D01*
X81080952Y-71092142D01*
X81176190Y-71163571D01*
X81461904Y-71163571D01*
X81557142Y-71092142D01*
X81604761Y-71020714D01*
X80700000Y-69663571D02*
X80366666Y-71163571D01*
X80033333Y-69663571D01*
X79795238Y-69663571D02*
X79176190Y-69663571D01*
X79509523Y-70235000D01*
X79366666Y-70235000D01*
X79271428Y-70306428D01*
X79223809Y-70377857D01*
X79176190Y-70520714D01*
X79176190Y-70877857D01*
X79223809Y-71020714D01*
X79271428Y-71092142D01*
X79366666Y-71163571D01*
X79652380Y-71163571D01*
X79747619Y-71092142D01*
X79795238Y-71020714D01*
X77461904Y-69735000D02*
X77557142Y-69663571D01*
X77700000Y-69663571D01*
X77842857Y-69735000D01*
X77938095Y-69877857D01*
X77985714Y-70020714D01*
X78033333Y-70306428D01*
X78033333Y-70520714D01*
X77985714Y-70806428D01*
X77938095Y-70949285D01*
X77842857Y-71092142D01*
X77700000Y-71163571D01*
X77604761Y-71163571D01*
X77461904Y-71092142D01*
X77414285Y-71020714D01*
X77414285Y-70520714D01*
X77604761Y-70520714D01*
X76985714Y-71163571D02*
X76985714Y-69663571D01*
X76414285Y-71163571D01*
X76414285Y-69663571D01*
X75938095Y-71163571D02*
X75938095Y-69663571D01*
X75700000Y-69663571D01*
X75557142Y-69735000D01*
X75461904Y-69877857D01*
X75414285Y-70020714D01*
X75366666Y-70306428D01*
X75366666Y-70520714D01*
X75414285Y-70806428D01*
X75461904Y-70949285D01*
X75557142Y-71092142D01*
X75700000Y-71163571D01*
X75938095Y-71163571D01*
X74223809Y-71092142D02*
X74080952Y-71163571D01*
X73842857Y-71163571D01*
X73747619Y-71092142D01*
X73700000Y-71020714D01*
X73652380Y-70877857D01*
X73652380Y-70735000D01*
X73700000Y-70592142D01*
X73747619Y-70520714D01*
X73842857Y-70449285D01*
X74033333Y-70377857D01*
X74128571Y-70306428D01*
X74176190Y-70235000D01*
X74223809Y-70092142D01*
X74223809Y-69949285D01*
X74176190Y-69806428D01*
X74128571Y-69735000D01*
X74033333Y-69663571D01*
X73795238Y-69663571D01*
X73652380Y-69735000D01*
X72652380Y-71020714D02*
X72700000Y-71092142D01*
X72842857Y-71163571D01*
X72938095Y-71163571D01*
X73080952Y-71092142D01*
X73176190Y-70949285D01*
X73223809Y-70806428D01*
X73271428Y-70520714D01*
X73271428Y-70306428D01*
X73223809Y-70020714D01*
X73176190Y-69877857D01*
X73080952Y-69735000D01*
X72938095Y-69663571D01*
X72842857Y-69663571D01*
X72700000Y-69735000D01*
X72652380Y-69806428D01*
X71747619Y-71163571D02*
X72223809Y-71163571D01*
X72223809Y-69663571D01*
X70700000Y-71092142D02*
X70557142Y-71163571D01*
X70319047Y-71163571D01*
X70223809Y-71092142D01*
X70176190Y-71020714D01*
X70128571Y-70877857D01*
X70128571Y-70735000D01*
X70176190Y-70592142D01*
X70223809Y-70520714D01*
X70319047Y-70449285D01*
X70509523Y-70377857D01*
X70604761Y-70306428D01*
X70652380Y-70235000D01*
X70700000Y-70092142D01*
X70700000Y-69949285D01*
X70652380Y-69806428D01*
X70604761Y-69735000D01*
X70509523Y-69663571D01*
X70271428Y-69663571D01*
X70128571Y-69735000D01*
X69700000Y-71163571D02*
X69700000Y-69663571D01*
X69461904Y-69663571D01*
X69319047Y-69735000D01*
X69223809Y-69877857D01*
X69176190Y-70020714D01*
X69128571Y-70306428D01*
X69128571Y-70520714D01*
X69176190Y-70806428D01*
X69223809Y-70949285D01*
X69319047Y-71092142D01*
X69461904Y-71163571D01*
X69700000Y-71163571D01*
X68747619Y-70735000D02*
X68271428Y-70735000D01*
X68842857Y-71163571D02*
X68509523Y-69663571D01*
X68176190Y-71163571D01*
X44325619Y-61003571D02*
X44325619Y-59503571D01*
X43944666Y-59503571D01*
X43849428Y-59575000D01*
X43801809Y-59646428D01*
X43754190Y-59789285D01*
X43754190Y-60003571D01*
X43801809Y-60146428D01*
X43849428Y-60217857D01*
X43944666Y-60289285D01*
X44325619Y-60289285D01*
X43420857Y-59503571D02*
X43182761Y-61003571D01*
X42992285Y-59932142D01*
X42801809Y-61003571D01*
X42563714Y-59503571D01*
X42182761Y-61003571D02*
X42182761Y-59503571D01*
X41849428Y-60575000D01*
X41516095Y-59503571D01*
X41516095Y-61003571D01*
X42373238Y-56836571D02*
X42849428Y-56836571D01*
X42897047Y-57550857D01*
X42849428Y-57479428D01*
X42754190Y-57408000D01*
X42516095Y-57408000D01*
X42420857Y-57479428D01*
X42373238Y-57550857D01*
X42325619Y-57693714D01*
X42325619Y-58050857D01*
X42373238Y-58193714D01*
X42420857Y-58265142D01*
X42516095Y-58336571D01*
X42754190Y-58336571D01*
X42849428Y-58265142D01*
X42897047Y-58193714D01*
X42039904Y-56836571D02*
X41706571Y-58336571D01*
X41373238Y-56836571D01*
X43563714Y-54495000D02*
X43658952Y-54423571D01*
X43801809Y-54423571D01*
X43944666Y-54495000D01*
X44039904Y-54637857D01*
X44087523Y-54780714D01*
X44135142Y-55066428D01*
X44135142Y-55280714D01*
X44087523Y-55566428D01*
X44039904Y-55709285D01*
X43944666Y-55852142D01*
X43801809Y-55923571D01*
X43706571Y-55923571D01*
X43563714Y-55852142D01*
X43516095Y-55780714D01*
X43516095Y-55280714D01*
X43706571Y-55280714D01*
X43087523Y-55923571D02*
X43087523Y-54423571D01*
X42516095Y-55923571D01*
X42516095Y-54423571D01*
X42039904Y-55923571D02*
X42039904Y-54423571D01*
X41801809Y-54423571D01*
X41658952Y-54495000D01*
X41563714Y-54637857D01*
X41516095Y-54780714D01*
X41468476Y-55066428D01*
X41468476Y-55280714D01*
X41516095Y-55566428D01*
X41563714Y-55709285D01*
X41658952Y-55852142D01*
X41801809Y-55923571D01*
X42039904Y-55923571D01*
D11*
X73279142Y-107783285D02*
X75564857Y-107783285D01*
X73279142Y-125944285D02*
X75564857Y-125944285D01*
X74422000Y-127087142D02*
X74422000Y-124801428D01*
D12*
X43053095Y-34686857D02*
X44576904Y-34686857D01*
X43815000Y-35448761D02*
X43815000Y-33924952D01*
D11*
X35576285Y-45069238D02*
X34719142Y-45069238D01*
X35147714Y-45069238D02*
X35147714Y-47069238D01*
X35004857Y-46783523D01*
X34862000Y-46593047D01*
X34719142Y-46497809D01*
X36433428Y-46212095D02*
X36290571Y-46307333D01*
X36219142Y-46402571D01*
X36147714Y-46593047D01*
X36147714Y-46688285D01*
X36219142Y-46878761D01*
X36290571Y-46974000D01*
X36433428Y-47069238D01*
X36719142Y-47069238D01*
X36862000Y-46974000D01*
X36933428Y-46878761D01*
X37004857Y-46688285D01*
X37004857Y-46593047D01*
X36933428Y-46402571D01*
X36862000Y-46307333D01*
X36719142Y-46212095D01*
X36433428Y-46212095D01*
X36290571Y-46116857D01*
X36219142Y-46021619D01*
X36147714Y-45831142D01*
X36147714Y-45450190D01*
X36219142Y-45259714D01*
X36290571Y-45164476D01*
X36433428Y-45069238D01*
X36719142Y-45069238D01*
X36862000Y-45164476D01*
X36933428Y-45259714D01*
X37004857Y-45450190D01*
X37004857Y-45831142D01*
X36933428Y-46021619D01*
X36862000Y-46116857D01*
X36719142Y-46212095D01*
X37647714Y-45831142D02*
X38790571Y-45831142D01*
X39433428Y-46878761D02*
X39504857Y-46974000D01*
X39647714Y-47069238D01*
X40004857Y-47069238D01*
X40147714Y-46974000D01*
X40219142Y-46878761D01*
X40290571Y-46688285D01*
X40290571Y-46497809D01*
X40219142Y-46212095D01*
X39362000Y-45069238D01*
X40290571Y-45069238D01*
X41576285Y-46402571D02*
X41576285Y-45069238D01*
X41219142Y-47164476D02*
X40862000Y-45735904D01*
X41790571Y-45735904D01*
X42147714Y-47069238D02*
X42647714Y-45069238D01*
X43147714Y-47069238D01*
D12*
X64953571Y-79923809D02*
X64953571Y-79590476D01*
X65477380Y-79590476D02*
X64477380Y-79590476D01*
X64477380Y-80066666D01*
X64810714Y-80876190D02*
X65477380Y-80876190D01*
X64810714Y-80447619D02*
X65334523Y-80447619D01*
X65429761Y-80495238D01*
X65477380Y-80590476D01*
X65477380Y-80733333D01*
X65429761Y-80828571D01*
X65382142Y-80876190D01*
X64477380Y-80495238D02*
X64525000Y-80542857D01*
X64572619Y-80495238D01*
X64525000Y-80447619D01*
X64477380Y-80495238D01*
X64572619Y-80495238D01*
X64477380Y-80876190D02*
X64525000Y-80923809D01*
X64572619Y-80876190D01*
X64525000Y-80828571D01*
X64477380Y-80876190D01*
X64572619Y-80876190D01*
X65477380Y-81352380D02*
X64810714Y-81352380D01*
X65001190Y-81352380D02*
X64905952Y-81400000D01*
X64858333Y-81447619D01*
X64810714Y-81542857D01*
X64810714Y-81638095D01*
X65477380Y-83209523D02*
X65477380Y-82733333D01*
X64477380Y-82733333D01*
X65429761Y-83923809D02*
X65477380Y-83828571D01*
X65477380Y-83638095D01*
X65429761Y-83542857D01*
X65334523Y-83495238D01*
X64953571Y-83495238D01*
X64858333Y-83542857D01*
X64810714Y-83638095D01*
X64810714Y-83828571D01*
X64858333Y-83923809D01*
X64953571Y-83971428D01*
X65048809Y-83971428D01*
X65144047Y-83495238D01*
X65477380Y-84400000D02*
X64477380Y-84400000D01*
X65477380Y-84828571D02*
X64953571Y-84828571D01*
X64858333Y-84780952D01*
X64810714Y-84685714D01*
X64810714Y-84542857D01*
X64858333Y-84447619D01*
X64905952Y-84400000D01*
X65477380Y-85304761D02*
X64810714Y-85304761D01*
X65001190Y-85304761D02*
X64905952Y-85352380D01*
X64858333Y-85400000D01*
X64810714Y-85495238D01*
X64810714Y-85590476D01*
X65429761Y-86304761D02*
X65477380Y-86209523D01*
X65477380Y-86019047D01*
X65429761Y-85923809D01*
X65334523Y-85876190D01*
X64953571Y-85876190D01*
X64858333Y-85923809D01*
X64810714Y-86019047D01*
X64810714Y-86209523D01*
X64858333Y-86304761D01*
X64953571Y-86352380D01*
X65048809Y-86352380D01*
X65144047Y-85876190D01*
X64810714Y-87971428D02*
X65477380Y-87971428D01*
X64810714Y-87542857D02*
X65334523Y-87542857D01*
X65429761Y-87590476D01*
X65477380Y-87685714D01*
X65477380Y-87828571D01*
X65429761Y-87923809D01*
X65382142Y-87971428D01*
X64810714Y-88447619D02*
X65477380Y-88447619D01*
X64905952Y-88447619D02*
X64858333Y-88495238D01*
X64810714Y-88590476D01*
X64810714Y-88733333D01*
X64858333Y-88828571D01*
X64953571Y-88876190D01*
X65477380Y-88876190D01*
X65477380Y-89780952D02*
X64477380Y-89780952D01*
X65429761Y-89780952D02*
X65477380Y-89685714D01*
X65477380Y-89495238D01*
X65429761Y-89400000D01*
X65382142Y-89352380D01*
X65286904Y-89304761D01*
X65001190Y-89304761D01*
X64905952Y-89352380D01*
X64858333Y-89400000D01*
X64810714Y-89495238D01*
X64810714Y-89685714D01*
X64858333Y-89780952D01*
X64953571Y-91352380D02*
X64953571Y-91019047D01*
X65477380Y-91019047D02*
X64477380Y-91019047D01*
X64477380Y-91495238D01*
X65477380Y-92019047D02*
X65429761Y-91923809D01*
X65382142Y-91876190D01*
X65286904Y-91828571D01*
X65001190Y-91828571D01*
X64905952Y-91876190D01*
X64858333Y-91923809D01*
X64810714Y-92019047D01*
X64810714Y-92161904D01*
X64858333Y-92257142D01*
X64905952Y-92304761D01*
X65001190Y-92352380D01*
X65286904Y-92352380D01*
X65382142Y-92304761D01*
X65429761Y-92257142D01*
X65477380Y-92161904D01*
X65477380Y-92019047D01*
X65477380Y-92780952D02*
X64810714Y-92780952D01*
X65001190Y-92780952D02*
X64905952Y-92828571D01*
X64858333Y-92876190D01*
X64810714Y-92971428D01*
X64810714Y-93066666D01*
X65429761Y-93352380D02*
X65477380Y-93447619D01*
X65477380Y-93638095D01*
X65429761Y-93733333D01*
X65334523Y-93780952D01*
X65286904Y-93780952D01*
X65191666Y-93733333D01*
X65144047Y-93638095D01*
X65144047Y-93495238D01*
X65096428Y-93400000D01*
X65001190Y-93352380D01*
X64953571Y-93352380D01*
X64858333Y-93400000D01*
X64810714Y-93495238D01*
X64810714Y-93638095D01*
X64858333Y-93733333D01*
X65429761Y-94638095D02*
X65477380Y-94542857D01*
X65477380Y-94352380D01*
X65429761Y-94257142D01*
X65382142Y-94209523D01*
X65286904Y-94161904D01*
X65001190Y-94161904D01*
X64905952Y-94209523D01*
X64858333Y-94257142D01*
X64810714Y-94352380D01*
X64810714Y-94542857D01*
X64858333Y-94638095D01*
X65477380Y-95066666D02*
X64477380Y-95066666D01*
X65477380Y-95495238D02*
X64953571Y-95495238D01*
X64858333Y-95447619D01*
X64810714Y-95352380D01*
X64810714Y-95209523D01*
X64858333Y-95114285D01*
X64905952Y-95066666D01*
X64810714Y-96400000D02*
X65477380Y-96400000D01*
X64810714Y-95971428D02*
X65334523Y-95971428D01*
X65429761Y-96019047D01*
X65477380Y-96114285D01*
X65477380Y-96257142D01*
X65429761Y-96352380D01*
X65382142Y-96400000D01*
X64810714Y-96876190D02*
X65477380Y-96876190D01*
X64905952Y-96876190D02*
X64858333Y-96923809D01*
X64810714Y-97019047D01*
X64810714Y-97161904D01*
X64858333Y-97257142D01*
X64953571Y-97304761D01*
X65477380Y-97304761D01*
X64810714Y-98209523D02*
X65620238Y-98209523D01*
X65715476Y-98161904D01*
X65763095Y-98114285D01*
X65810714Y-98019047D01*
X65810714Y-97876190D01*
X65763095Y-97780952D01*
X65429761Y-98209523D02*
X65477380Y-98114285D01*
X65477380Y-97923809D01*
X65429761Y-97828571D01*
X65382142Y-97780952D01*
X65286904Y-97733333D01*
X65001190Y-97733333D01*
X64905952Y-97780952D01*
X64858333Y-97828571D01*
X64810714Y-97923809D01*
X64810714Y-98114285D01*
X64858333Y-98209523D01*
X67127380Y-78495238D02*
X66127380Y-78495238D01*
X67127380Y-79066666D02*
X66555952Y-78638095D01*
X66127380Y-79066666D02*
X66698809Y-78495238D01*
X67127380Y-79638095D02*
X67079761Y-79542857D01*
X66984523Y-79495238D01*
X66127380Y-79495238D01*
X67127380Y-80447619D02*
X66603571Y-80447619D01*
X66508333Y-80400000D01*
X66460714Y-80304761D01*
X66460714Y-80114285D01*
X66508333Y-80019047D01*
X67079761Y-80447619D02*
X67127380Y-80352380D01*
X67127380Y-80114285D01*
X67079761Y-80019047D01*
X66984523Y-79971428D01*
X66889285Y-79971428D01*
X66794047Y-80019047D01*
X66746428Y-80114285D01*
X66746428Y-80352380D01*
X66698809Y-80447619D01*
X66460714Y-81352380D02*
X67127380Y-81352380D01*
X66460714Y-80923809D02*
X66984523Y-80923809D01*
X67079761Y-80971428D01*
X67127380Y-81066666D01*
X67127380Y-81209523D01*
X67079761Y-81304761D01*
X67032142Y-81352380D01*
X67079761Y-81780952D02*
X67127380Y-81876190D01*
X67127380Y-82066666D01*
X67079761Y-82161904D01*
X66984523Y-82209523D01*
X66936904Y-82209523D01*
X66841666Y-82161904D01*
X66794047Y-82066666D01*
X66794047Y-81923809D01*
X66746428Y-81828571D01*
X66651190Y-81780952D01*
X66603571Y-81780952D01*
X66508333Y-81828571D01*
X66460714Y-81923809D01*
X66460714Y-82066666D01*
X66508333Y-82161904D01*
X67127380Y-83876190D02*
X67127380Y-83400000D01*
X66127380Y-83400000D01*
X67127380Y-84209523D02*
X66460714Y-84209523D01*
X66127380Y-84209523D02*
X66175000Y-84161904D01*
X66222619Y-84209523D01*
X66175000Y-84257142D01*
X66127380Y-84209523D01*
X66222619Y-84209523D01*
X67079761Y-85066666D02*
X67127380Y-84971428D01*
X67127380Y-84780952D01*
X67079761Y-84685714D01*
X66984523Y-84638095D01*
X66603571Y-84638095D01*
X66508333Y-84685714D01*
X66460714Y-84780952D01*
X66460714Y-84971428D01*
X66508333Y-85066666D01*
X66603571Y-85114285D01*
X66698809Y-85114285D01*
X66794047Y-84638095D01*
X67127380Y-85542857D02*
X66127380Y-85542857D01*
X66508333Y-85542857D02*
X66460714Y-85638095D01*
X66460714Y-85828571D01*
X66508333Y-85923809D01*
X66555952Y-85971428D01*
X66651190Y-86019047D01*
X66936904Y-86019047D01*
X67032142Y-85971428D01*
X67079761Y-85923809D01*
X67127380Y-85828571D01*
X67127380Y-85638095D01*
X67079761Y-85542857D01*
X67127380Y-86590476D02*
X67079761Y-86495238D01*
X66984523Y-86447619D01*
X66127380Y-86447619D01*
X67079761Y-87352380D02*
X67127380Y-87257142D01*
X67127380Y-87066666D01*
X67079761Y-86971428D01*
X66984523Y-86923809D01*
X66603571Y-86923809D01*
X66508333Y-86971428D01*
X66460714Y-87066666D01*
X66460714Y-87257142D01*
X66508333Y-87352380D01*
X66603571Y-87400000D01*
X66698809Y-87400000D01*
X66794047Y-86923809D01*
X67127380Y-87828571D02*
X66460714Y-87828571D01*
X66651190Y-87828571D02*
X66555952Y-87876190D01*
X66508333Y-87923809D01*
X66460714Y-88019047D01*
X66460714Y-88114285D01*
X67079761Y-88495238D02*
X67127380Y-88495238D01*
X67222619Y-88447619D01*
X67270238Y-88400000D01*
X66222619Y-89638095D02*
X66175000Y-89685714D01*
X66127380Y-89780952D01*
X66127380Y-90019047D01*
X66175000Y-90114285D01*
X66222619Y-90161904D01*
X66317857Y-90209523D01*
X66413095Y-90209523D01*
X66555952Y-90161904D01*
X67127380Y-89590476D01*
X67127380Y-90209523D01*
X66127380Y-90828571D02*
X66127380Y-90923809D01*
X66175000Y-91019047D01*
X66222619Y-91066666D01*
X66317857Y-91114285D01*
X66508333Y-91161904D01*
X66746428Y-91161904D01*
X66936904Y-91114285D01*
X67032142Y-91066666D01*
X67079761Y-91019047D01*
X67127380Y-90923809D01*
X67127380Y-90828571D01*
X67079761Y-90733333D01*
X67032142Y-90685714D01*
X66936904Y-90638095D01*
X66746428Y-90590476D01*
X66508333Y-90590476D01*
X66317857Y-90638095D01*
X66222619Y-90685714D01*
X66175000Y-90733333D01*
X66127380Y-90828571D01*
X66222619Y-91542857D02*
X66175000Y-91590476D01*
X66127380Y-91685714D01*
X66127380Y-91923809D01*
X66175000Y-92019047D01*
X66222619Y-92066666D01*
X66317857Y-92114285D01*
X66413095Y-92114285D01*
X66555952Y-92066666D01*
X67127380Y-91495238D01*
X67127380Y-92114285D01*
X66127380Y-92733333D02*
X66127380Y-92828571D01*
X66175000Y-92923809D01*
X66222619Y-92971428D01*
X66317857Y-93019047D01*
X66508333Y-93066666D01*
X66746428Y-93066666D01*
X66936904Y-93019047D01*
X67032142Y-92971428D01*
X67079761Y-92923809D01*
X67127380Y-92828571D01*
X67127380Y-92733333D01*
X67079761Y-92638095D01*
X67032142Y-92590476D01*
X66936904Y-92542857D01*
X66746428Y-92495238D01*
X66508333Y-92495238D01*
X66317857Y-92542857D01*
X66222619Y-92590476D01*
X66175000Y-92638095D01*
X66127380Y-92733333D01*
X66746428Y-93495238D02*
X66746428Y-94257142D01*
X66127380Y-94923809D02*
X66127380Y-95019047D01*
X66175000Y-95114285D01*
X66222619Y-95161904D01*
X66317857Y-95209523D01*
X66508333Y-95257142D01*
X66746428Y-95257142D01*
X66936904Y-95209523D01*
X67032142Y-95161904D01*
X67079761Y-95114285D01*
X67127380Y-95019047D01*
X67127380Y-94923809D01*
X67079761Y-94828571D01*
X67032142Y-94780952D01*
X66936904Y-94733333D01*
X66746428Y-94685714D01*
X66508333Y-94685714D01*
X66317857Y-94733333D01*
X66222619Y-94780952D01*
X66175000Y-94828571D01*
X66127380Y-94923809D01*
X66555952Y-95828571D02*
X66508333Y-95733333D01*
X66460714Y-95685714D01*
X66365476Y-95638095D01*
X66317857Y-95638095D01*
X66222619Y-95685714D01*
X66175000Y-95733333D01*
X66127380Y-95828571D01*
X66127380Y-96019047D01*
X66175000Y-96114285D01*
X66222619Y-96161904D01*
X66317857Y-96209523D01*
X66365476Y-96209523D01*
X66460714Y-96161904D01*
X66508333Y-96114285D01*
X66555952Y-96019047D01*
X66555952Y-95828571D01*
X66603571Y-95733333D01*
X66651190Y-95685714D01*
X66746428Y-95638095D01*
X66936904Y-95638095D01*
X67032142Y-95685714D01*
X67079761Y-95733333D01*
X67127380Y-95828571D01*
X67127380Y-96019047D01*
X67079761Y-96114285D01*
X67032142Y-96161904D01*
X66936904Y-96209523D01*
X66746428Y-96209523D01*
X66651190Y-96161904D01*
X66603571Y-96114285D01*
X66555952Y-96019047D01*
X66746428Y-96638095D02*
X66746428Y-97400000D01*
X66222619Y-97828571D02*
X66175000Y-97876190D01*
X66127380Y-97971428D01*
X66127380Y-98209523D01*
X66175000Y-98304761D01*
X66222619Y-98352380D01*
X66317857Y-98400000D01*
X66413095Y-98400000D01*
X66555952Y-98352380D01*
X67127380Y-97780952D01*
X67127380Y-98400000D01*
X66555952Y-98971428D02*
X66508333Y-98876190D01*
X66460714Y-98828571D01*
X66365476Y-98780952D01*
X66317857Y-98780952D01*
X66222619Y-98828571D01*
X66175000Y-98876190D01*
X66127380Y-98971428D01*
X66127380Y-99161904D01*
X66175000Y-99257142D01*
X66222619Y-99304761D01*
X66317857Y-99352380D01*
X66365476Y-99352380D01*
X66460714Y-99304761D01*
X66508333Y-99257142D01*
X66555952Y-99161904D01*
X66555952Y-98971428D01*
X66603571Y-98876190D01*
X66651190Y-98828571D01*
X66746428Y-98780952D01*
X66936904Y-98780952D01*
X67032142Y-98828571D01*
X67079761Y-98876190D01*
X67127380Y-98971428D01*
X67127380Y-99161904D01*
X67079761Y-99257142D01*
X67032142Y-99304761D01*
X66936904Y-99352380D01*
X66746428Y-99352380D01*
X66651190Y-99304761D01*
X66603571Y-99257142D01*
X66555952Y-99161904D01*
X67777380Y-79733333D02*
X68777380Y-79971428D01*
X68063095Y-80161904D01*
X68777380Y-80352380D01*
X67777380Y-80590476D01*
X68729761Y-81352380D02*
X68777380Y-81257142D01*
X68777380Y-81066666D01*
X68729761Y-80971428D01*
X68634523Y-80923809D01*
X68253571Y-80923809D01*
X68158333Y-80971428D01*
X68110714Y-81066666D01*
X68110714Y-81257142D01*
X68158333Y-81352380D01*
X68253571Y-81400000D01*
X68348809Y-81400000D01*
X68444047Y-80923809D01*
X68729761Y-81780952D02*
X68777380Y-81876190D01*
X68777380Y-82066666D01*
X68729761Y-82161904D01*
X68634523Y-82209523D01*
X68586904Y-82209523D01*
X68491666Y-82161904D01*
X68444047Y-82066666D01*
X68444047Y-81923809D01*
X68396428Y-81828571D01*
X68301190Y-81780952D01*
X68253571Y-81780952D01*
X68158333Y-81828571D01*
X68110714Y-81923809D01*
X68110714Y-82066666D01*
X68158333Y-82161904D01*
X68110714Y-82495238D02*
X68110714Y-82876190D01*
X67777380Y-82638095D02*
X68634523Y-82638095D01*
X68729761Y-82685714D01*
X68777380Y-82780952D01*
X68777380Y-82876190D01*
X68110714Y-83066666D02*
X68110714Y-83447619D01*
X68777380Y-83209523D02*
X67920238Y-83209523D01*
X67825000Y-83257142D01*
X67777380Y-83352380D01*
X67777380Y-83447619D01*
X68777380Y-84209523D02*
X68253571Y-84209523D01*
X68158333Y-84161904D01*
X68110714Y-84066666D01*
X68110714Y-83876190D01*
X68158333Y-83780952D01*
X68729761Y-84209523D02*
X68777380Y-84114285D01*
X68777380Y-83876190D01*
X68729761Y-83780952D01*
X68634523Y-83733333D01*
X68539285Y-83733333D01*
X68444047Y-83780952D01*
X68396428Y-83876190D01*
X68396428Y-84114285D01*
X68348809Y-84209523D01*
X67777380Y-83780952D02*
X67825000Y-83828571D01*
X67872619Y-83780952D01*
X67825000Y-83733333D01*
X67777380Y-83780952D01*
X67872619Y-83780952D01*
X67777380Y-84161904D02*
X67825000Y-84209523D01*
X67872619Y-84161904D01*
X67825000Y-84114285D01*
X67777380Y-84161904D01*
X67872619Y-84161904D01*
X68777380Y-84828571D02*
X68729761Y-84733333D01*
X68634523Y-84685714D01*
X67777380Y-84685714D01*
X68777380Y-85209523D02*
X68110714Y-85209523D01*
X67777380Y-85209523D02*
X67825000Y-85161904D01*
X67872619Y-85209523D01*
X67825000Y-85257142D01*
X67777380Y-85209523D01*
X67872619Y-85209523D01*
X68729761Y-85638095D02*
X68777380Y-85733333D01*
X68777380Y-85923809D01*
X68729761Y-86019047D01*
X68634523Y-86066666D01*
X68586904Y-86066666D01*
X68491666Y-86019047D01*
X68444047Y-85923809D01*
X68444047Y-85780952D01*
X68396428Y-85685714D01*
X68301190Y-85638095D01*
X68253571Y-85638095D01*
X68158333Y-85685714D01*
X68110714Y-85780952D01*
X68110714Y-85923809D01*
X68158333Y-86019047D01*
X68729761Y-86923809D02*
X68777380Y-86828571D01*
X68777380Y-86638095D01*
X68729761Y-86542857D01*
X68682142Y-86495238D01*
X68586904Y-86447619D01*
X68301190Y-86447619D01*
X68205952Y-86495238D01*
X68158333Y-86542857D01*
X68110714Y-86638095D01*
X68110714Y-86828571D01*
X68158333Y-86923809D01*
X68777380Y-87352380D02*
X67777380Y-87352380D01*
X68777380Y-87780952D02*
X68253571Y-87780952D01*
X68158333Y-87733333D01*
X68110714Y-87638095D01*
X68110714Y-87495238D01*
X68158333Y-87400000D01*
X68205952Y-87352380D01*
X68729761Y-88638095D02*
X68777380Y-88542857D01*
X68777380Y-88352380D01*
X68729761Y-88257142D01*
X68634523Y-88209523D01*
X68253571Y-88209523D01*
X68158333Y-88257142D01*
X68110714Y-88352380D01*
X68110714Y-88542857D01*
X68158333Y-88638095D01*
X68253571Y-88685714D01*
X68348809Y-88685714D01*
X68444047Y-88209523D01*
X68777380Y-89876190D02*
X67777380Y-89876190D01*
X68253571Y-89876190D02*
X68253571Y-90447619D01*
X68777380Y-90447619D02*
X67777380Y-90447619D01*
X68777380Y-91066666D02*
X68729761Y-90971428D01*
X68682142Y-90923809D01*
X68586904Y-90876190D01*
X68301190Y-90876190D01*
X68205952Y-90923809D01*
X68158333Y-90971428D01*
X68110714Y-91066666D01*
X68110714Y-91209523D01*
X68158333Y-91304761D01*
X68205952Y-91352380D01*
X68301190Y-91400000D01*
X68586904Y-91400000D01*
X68682142Y-91352380D01*
X68729761Y-91304761D01*
X68777380Y-91209523D01*
X68777380Y-91066666D01*
X68729761Y-92257142D02*
X68777380Y-92161904D01*
X68777380Y-91971428D01*
X68729761Y-91876190D01*
X68682142Y-91828571D01*
X68586904Y-91780952D01*
X68301190Y-91780952D01*
X68205952Y-91828571D01*
X68158333Y-91876190D01*
X68110714Y-91971428D01*
X68110714Y-92161904D01*
X68158333Y-92257142D01*
X68777380Y-92685714D02*
X67777380Y-92685714D01*
X68777380Y-93114285D02*
X68253571Y-93114285D01*
X68158333Y-93066666D01*
X68110714Y-92971428D01*
X68110714Y-92828571D01*
X68158333Y-92733333D01*
X68205952Y-92685714D01*
X68729761Y-93542857D02*
X68777380Y-93638095D01*
X68777380Y-93828571D01*
X68729761Y-93923809D01*
X68634523Y-93971428D01*
X68586904Y-93971428D01*
X68491666Y-93923809D01*
X68444047Y-93828571D01*
X68444047Y-93685714D01*
X68396428Y-93590476D01*
X68301190Y-93542857D01*
X68253571Y-93542857D01*
X68158333Y-93590476D01*
X68110714Y-93685714D01*
X68110714Y-93828571D01*
X68158333Y-93923809D01*
X68729761Y-94828571D02*
X68777380Y-94733333D01*
X68777380Y-94542857D01*
X68729761Y-94447619D01*
X68682142Y-94400000D01*
X68586904Y-94352380D01*
X68301190Y-94352380D01*
X68205952Y-94400000D01*
X68158333Y-94447619D01*
X68110714Y-94542857D01*
X68110714Y-94733333D01*
X68158333Y-94828571D01*
X68777380Y-95257142D02*
X67777380Y-95257142D01*
X68777380Y-95685714D02*
X68253571Y-95685714D01*
X68158333Y-95638095D01*
X68110714Y-95542857D01*
X68110714Y-95400000D01*
X68158333Y-95304761D01*
X68205952Y-95257142D01*
X68110714Y-96590476D02*
X68777380Y-96590476D01*
X68110714Y-96161904D02*
X68634523Y-96161904D01*
X68729761Y-96209523D01*
X68777380Y-96304761D01*
X68777380Y-96447619D01*
X68729761Y-96542857D01*
X68682142Y-96590476D01*
X68777380Y-97209523D02*
X68729761Y-97114285D01*
X68634523Y-97066666D01*
X67777380Y-97066666D01*
X68729761Y-97971428D02*
X68777380Y-97876190D01*
X68777380Y-97685714D01*
X68729761Y-97590476D01*
X68634523Y-97542857D01*
X68253571Y-97542857D01*
X68158333Y-97590476D01*
X68110714Y-97685714D01*
X68110714Y-97876190D01*
X68158333Y-97971428D01*
X68253571Y-98019047D01*
X68348809Y-98019047D01*
X68444047Y-97542857D01*
D13*
G36*
X62868759Y-101799184D02*
G01*
X62842247Y-101812282D01*
X62809553Y-101835106D01*
X62785725Y-101859996D01*
X62769406Y-101891249D01*
X62759240Y-101933166D01*
X62753872Y-101990044D01*
X62751944Y-102066184D01*
X62751831Y-102098917D01*
X62752161Y-102170656D01*
X62753527Y-102221927D01*
X62756500Y-102257404D01*
X62761649Y-102281763D01*
X62769543Y-102299680D01*
X62777757Y-102311902D01*
X62830187Y-102363905D01*
X62891930Y-102395184D01*
X62958536Y-102404592D01*
X63025558Y-102390980D01*
X63046792Y-102381354D01*
X63097624Y-102354859D01*
X63097624Y-102770052D01*
X63060525Y-102750868D01*
X63011643Y-102736025D01*
X62951561Y-102732222D01*
X62891564Y-102739243D01*
X62846256Y-102755013D01*
X62808675Y-102785047D01*
X62776564Y-102828024D01*
X62774150Y-102832436D01*
X62763967Y-102853221D01*
X62756530Y-102874170D01*
X62751411Y-102899548D01*
X62748181Y-102933618D01*
X62746413Y-102980641D01*
X62745677Y-103044882D01*
X62745544Y-103117176D01*
X62745544Y-103347822D01*
X62883861Y-103347822D01*
X62883861Y-102922533D01*
X62922549Y-102889979D01*
X62962738Y-102863940D01*
X63000797Y-102859205D01*
X63039066Y-102871389D01*
X63059462Y-102883320D01*
X63074642Y-102900313D01*
X63085438Y-102925995D01*
X63092683Y-102963991D01*
X63097208Y-103017926D01*
X63099844Y-103091425D01*
X63100772Y-103140347D01*
X63103911Y-103341535D01*
X63169926Y-103345336D01*
X63235940Y-103349136D01*
X63235940Y-102100650D01*
X63097624Y-102100650D01*
X63094097Y-102170254D01*
X63082215Y-102218569D01*
X63060020Y-102248631D01*
X63025559Y-102263471D01*
X62990742Y-102266436D01*
X62951329Y-102263028D01*
X62925171Y-102249617D01*
X62908814Y-102231896D01*
X62895937Y-102212835D01*
X62888272Y-102191601D01*
X62884861Y-102161849D01*
X62884749Y-102117236D01*
X62885897Y-102079880D01*
X62888532Y-102023604D01*
X62892456Y-101986658D01*
X62899063Y-101963223D01*
X62909749Y-101947480D01*
X62919833Y-101938380D01*
X62961970Y-101918537D01*
X63011840Y-101915332D01*
X63040476Y-101922168D01*
X63068828Y-101946464D01*
X63087609Y-101993728D01*
X63096712Y-102063624D01*
X63097624Y-102100650D01*
X63235940Y-102100650D01*
X63235940Y-101788614D01*
X63166782Y-101788614D01*
X63125260Y-101790256D01*
X63103838Y-101796087D01*
X63097626Y-101807461D01*
X63097624Y-101807798D01*
X63094742Y-101818938D01*
X63082030Y-101817673D01*
X63056757Y-101805433D01*
X62997869Y-101786707D01*
X62931615Y-101784739D01*
X62868759Y-101799184D01*
G37*
X62868759Y-101799184D02*
X62842247Y-101812282D01*
X62809553Y-101835106D01*
X62785725Y-101859996D01*
X62769406Y-101891249D01*
X62759240Y-101933166D01*
X62753872Y-101990044D01*
X62751944Y-102066184D01*
X62751831Y-102098917D01*
X62752161Y-102170656D01*
X62753527Y-102221927D01*
X62756500Y-102257404D01*
X62761649Y-102281763D01*
X62769543Y-102299680D01*
X62777757Y-102311902D01*
X62830187Y-102363905D01*
X62891930Y-102395184D01*
X62958536Y-102404592D01*
X63025558Y-102390980D01*
X63046792Y-102381354D01*
X63097624Y-102354859D01*
X63097624Y-102770052D01*
X63060525Y-102750868D01*
X63011643Y-102736025D01*
X62951561Y-102732222D01*
X62891564Y-102739243D01*
X62846256Y-102755013D01*
X62808675Y-102785047D01*
X62776564Y-102828024D01*
X62774150Y-102832436D01*
X62763967Y-102853221D01*
X62756530Y-102874170D01*
X62751411Y-102899548D01*
X62748181Y-102933618D01*
X62746413Y-102980641D01*
X62745677Y-103044882D01*
X62745544Y-103117176D01*
X62745544Y-103347822D01*
X62883861Y-103347822D01*
X62883861Y-102922533D01*
X62922549Y-102889979D01*
X62962738Y-102863940D01*
X63000797Y-102859205D01*
X63039066Y-102871389D01*
X63059462Y-102883320D01*
X63074642Y-102900313D01*
X63085438Y-102925995D01*
X63092683Y-102963991D01*
X63097208Y-103017926D01*
X63099844Y-103091425D01*
X63100772Y-103140347D01*
X63103911Y-103341535D01*
X63169926Y-103345336D01*
X63235940Y-103349136D01*
X63235940Y-102100650D01*
X63097624Y-102100650D01*
X63094097Y-102170254D01*
X63082215Y-102218569D01*
X63060020Y-102248631D01*
X63025559Y-102263471D01*
X62990742Y-102266436D01*
X62951329Y-102263028D01*
X62925171Y-102249617D01*
X62908814Y-102231896D01*
X62895937Y-102212835D01*
X62888272Y-102191601D01*
X62884861Y-102161849D01*
X62884749Y-102117236D01*
X62885897Y-102079880D01*
X62888532Y-102023604D01*
X62892456Y-101986658D01*
X62899063Y-101963223D01*
X62909749Y-101947480D01*
X62919833Y-101938380D01*
X62961970Y-101918537D01*
X63011840Y-101915332D01*
X63040476Y-101922168D01*
X63068828Y-101946464D01*
X63087609Y-101993728D01*
X63096712Y-102063624D01*
X63097624Y-102100650D01*
X63235940Y-102100650D01*
X63235940Y-101788614D01*
X63166782Y-101788614D01*
X63125260Y-101790256D01*
X63103838Y-101796087D01*
X63097626Y-101807461D01*
X63097624Y-101807798D01*
X63094742Y-101818938D01*
X63082030Y-101817673D01*
X63056757Y-101805433D01*
X62997869Y-101786707D01*
X62931615Y-101784739D01*
X62868759Y-101799184D01*
G36*
X62344210Y-102736555D02*
G01*
X62285055Y-102752339D01*
X62240023Y-102780948D01*
X62208246Y-102818419D01*
X62198366Y-102834411D01*
X62191073Y-102851163D01*
X62185974Y-102872592D01*
X62182679Y-102902616D01*
X62180797Y-102945154D01*
X62179937Y-103004122D01*
X62179707Y-103083440D01*
X62179703Y-103104484D01*
X62179703Y-103347822D01*
X62240059Y-103347822D01*
X62278557Y-103345126D01*
X62307023Y-103338295D01*
X62314155Y-103334083D01*
X62333652Y-103326813D01*
X62353566Y-103334083D01*
X62386353Y-103343160D01*
X62433978Y-103346813D01*
X62486764Y-103345228D01*
X62535036Y-103338589D01*
X62563218Y-103330072D01*
X62617753Y-103295063D01*
X62651835Y-103246479D01*
X62667157Y-103181882D01*
X62667299Y-103180223D01*
X62665955Y-103151566D01*
X62544356Y-103151566D01*
X62533726Y-103184161D01*
X62516410Y-103202505D01*
X62481652Y-103216379D01*
X62435773Y-103221917D01*
X62388988Y-103219191D01*
X62351514Y-103208274D01*
X62341015Y-103201269D01*
X62322668Y-103168904D01*
X62318020Y-103132111D01*
X62318020Y-103083763D01*
X62387582Y-103083763D01*
X62453667Y-103088850D01*
X62503764Y-103103263D01*
X62534929Y-103125729D01*
X62544356Y-103151566D01*
X62665955Y-103151566D01*
X62663987Y-103109647D01*
X62640710Y-103053845D01*
X62596948Y-103011647D01*
X62590899Y-103007808D01*
X62564907Y-102995309D01*
X62532735Y-102987740D01*
X62487760Y-102984061D01*
X62434331Y-102983216D01*
X62318020Y-102983169D01*
X62318020Y-102934411D01*
X62322953Y-102896581D01*
X62335543Y-102871236D01*
X62337017Y-102869887D01*
X62365034Y-102858800D01*
X62407326Y-102854503D01*
X62454064Y-102856615D01*
X62495418Y-102864756D01*
X62519957Y-102876965D01*
X62533253Y-102886746D01*
X62547294Y-102888613D01*
X62566671Y-102880600D01*
X62595976Y-102860739D01*
X62639803Y-102827063D01*
X62643825Y-102823909D01*
X62641764Y-102812236D01*
X62624568Y-102792822D01*
X62598433Y-102771248D01*
X62569552Y-102753096D01*
X62560478Y-102748809D01*
X62527380Y-102740256D01*
X62478880Y-102734155D01*
X62424695Y-102731708D01*
X62422161Y-102731703D01*
X62344210Y-102736555D01*
G37*
X62344210Y-102736555D02*
X62285055Y-102752339D01*
X62240023Y-102780948D01*
X62208246Y-102818419D01*
X62198366Y-102834411D01*
X62191073Y-102851163D01*
X62185974Y-102872592D01*
X62182679Y-102902616D01*
X62180797Y-102945154D01*
X62179937Y-103004122D01*
X62179707Y-103083440D01*
X62179703Y-103104484D01*
X62179703Y-103347822D01*
X62240059Y-103347822D01*
X62278557Y-103345126D01*
X62307023Y-103338295D01*
X62314155Y-103334083D01*
X62333652Y-103326813D01*
X62353566Y-103334083D01*
X62386353Y-103343160D01*
X62433978Y-103346813D01*
X62486764Y-103345228D01*
X62535036Y-103338589D01*
X62563218Y-103330072D01*
X62617753Y-103295063D01*
X62651835Y-103246479D01*
X62667157Y-103181882D01*
X62667299Y-103180223D01*
X62665955Y-103151566D01*
X62544356Y-103151566D01*
X62533726Y-103184161D01*
X62516410Y-103202505D01*
X62481652Y-103216379D01*
X62435773Y-103221917D01*
X62388988Y-103219191D01*
X62351514Y-103208274D01*
X62341015Y-103201269D01*
X62322668Y-103168904D01*
X62318020Y-103132111D01*
X62318020Y-103083763D01*
X62387582Y-103083763D01*
X62453667Y-103088850D01*
X62503764Y-103103263D01*
X62534929Y-103125729D01*
X62544356Y-103151566D01*
X62665955Y-103151566D01*
X62663987Y-103109647D01*
X62640710Y-103053845D01*
X62596948Y-103011647D01*
X62590899Y-103007808D01*
X62564907Y-102995309D01*
X62532735Y-102987740D01*
X62487760Y-102984061D01*
X62434331Y-102983216D01*
X62318020Y-102983169D01*
X62318020Y-102934411D01*
X62322953Y-102896581D01*
X62335543Y-102871236D01*
X62337017Y-102869887D01*
X62365034Y-102858800D01*
X62407326Y-102854503D01*
X62454064Y-102856615D01*
X62495418Y-102864756D01*
X62519957Y-102876965D01*
X62533253Y-102886746D01*
X62547294Y-102888613D01*
X62566671Y-102880600D01*
X62595976Y-102860739D01*
X62639803Y-102827063D01*
X62643825Y-102823909D01*
X62641764Y-102812236D01*
X62624568Y-102792822D01*
X62598433Y-102771248D01*
X62569552Y-102753096D01*
X62560478Y-102748809D01*
X62527380Y-102740256D01*
X62478880Y-102734155D01*
X62424695Y-102731708D01*
X62422161Y-102731703D01*
X62344210Y-102736555D01*
G36*
X61953356Y-102733020D02*
G01*
X61934539Y-102738660D01*
X61928473Y-102751053D01*
X61928218Y-102756647D01*
X61927129Y-102772230D01*
X61919632Y-102774676D01*
X61899381Y-102763993D01*
X61887351Y-102756694D01*
X61849400Y-102741063D01*
X61804072Y-102733334D01*
X61756544Y-102732740D01*
X61711995Y-102738513D01*
X61675602Y-102749884D01*
X61652543Y-102766088D01*
X61647996Y-102786355D01*
X61650291Y-102791843D01*
X61667020Y-102814626D01*
X61692963Y-102842647D01*
X61697655Y-102847177D01*
X61722383Y-102868005D01*
X61743718Y-102874735D01*
X61773555Y-102870038D01*
X61785508Y-102866917D01*
X61822705Y-102859421D01*
X61848859Y-102862792D01*
X61870946Y-102874681D01*
X61891178Y-102890635D01*
X61906079Y-102910700D01*
X61916434Y-102938702D01*
X61923029Y-102978467D01*
X61926649Y-103033823D01*
X61928078Y-103108594D01*
X61928218Y-103153740D01*
X61928218Y-103347822D01*
X62053960Y-103347822D01*
X62053960Y-102731683D01*
X61991089Y-102731683D01*
X61953356Y-102733020D01*
G37*
X61953356Y-102733020D02*
X61934539Y-102738660D01*
X61928473Y-102751053D01*
X61928218Y-102756647D01*
X61927129Y-102772230D01*
X61919632Y-102774676D01*
X61899381Y-102763993D01*
X61887351Y-102756694D01*
X61849400Y-102741063D01*
X61804072Y-102733334D01*
X61756544Y-102732740D01*
X61711995Y-102738513D01*
X61675602Y-102749884D01*
X61652543Y-102766088D01*
X61647996Y-102786355D01*
X61650291Y-102791843D01*
X61667020Y-102814626D01*
X61692963Y-102842647D01*
X61697655Y-102847177D01*
X61722383Y-102868005D01*
X61743718Y-102874735D01*
X61773555Y-102870038D01*
X61785508Y-102866917D01*
X61822705Y-102859421D01*
X61848859Y-102862792D01*
X61870946Y-102874681D01*
X61891178Y-102890635D01*
X61906079Y-102910700D01*
X61916434Y-102938702D01*
X61923029Y-102978467D01*
X61926649Y-103033823D01*
X61928078Y-103108594D01*
X61928218Y-103153740D01*
X61928218Y-103347822D01*
X62053960Y-103347822D01*
X62053960Y-102731683D01*
X61991089Y-102731683D01*
X61953356Y-102733020D01*
G36*
X61161188Y-103347822D02*
G01*
X61230346Y-103347822D01*
X61270488Y-103346645D01*
X61291394Y-103341772D01*
X61298922Y-103331186D01*
X61299505Y-103324029D01*
X61300774Y-103309676D01*
X61308779Y-103306923D01*
X61329815Y-103315771D01*
X61346173Y-103324029D01*
X61408977Y-103343597D01*
X61477248Y-103344729D01*
X61532752Y-103330135D01*
X61584438Y-103294877D01*
X61623838Y-103242835D01*
X61645413Y-103181450D01*
X61645962Y-103178018D01*
X61649167Y-103140571D01*
X61650761Y-103086813D01*
X61650633Y-103046155D01*
X61513279Y-103046155D01*
X61510097Y-103100194D01*
X61502859Y-103144735D01*
X61493060Y-103169888D01*
X61455989Y-103204260D01*
X61411974Y-103216582D01*
X61366584Y-103206618D01*
X61327797Y-103176895D01*
X61313108Y-103156905D01*
X61304519Y-103133050D01*
X61300496Y-103098230D01*
X61299505Y-103045930D01*
X61301278Y-102994139D01*
X61305963Y-102948634D01*
X61312603Y-102918181D01*
X61313710Y-102915452D01*
X61340491Y-102883000D01*
X61379579Y-102865183D01*
X61423315Y-102862306D01*
X61464038Y-102874674D01*
X61494087Y-102902593D01*
X61497204Y-102908148D01*
X61506961Y-102942022D01*
X61512277Y-102990728D01*
X61513279Y-103046155D01*
X61650633Y-103046155D01*
X61650568Y-103025540D01*
X61649664Y-102992563D01*
X61643514Y-102910981D01*
X61630733Y-102849730D01*
X61609471Y-102804449D01*
X61577878Y-102770779D01*
X61547207Y-102751014D01*
X61504354Y-102737120D01*
X61451056Y-102732354D01*
X61396480Y-102736236D01*
X61349792Y-102748282D01*
X61325124Y-102762693D01*
X61299505Y-102785878D01*
X61299505Y-102492773D01*
X61161188Y-102492773D01*
X61161188Y-103347822D01*
G37*
X61161188Y-103347822D02*
X61230346Y-103347822D01*
X61270488Y-103346645D01*
X61291394Y-103341772D01*
X61298922Y-103331186D01*
X61299505Y-103324029D01*
X61300774Y-103309676D01*
X61308779Y-103306923D01*
X61329815Y-103315771D01*
X61346173Y-103324029D01*
X61408977Y-103343597D01*
X61477248Y-103344729D01*
X61532752Y-103330135D01*
X61584438Y-103294877D01*
X61623838Y-103242835D01*
X61645413Y-103181450D01*
X61645962Y-103178018D01*
X61649167Y-103140571D01*
X61650761Y-103086813D01*
X61650633Y-103046155D01*
X61513279Y-103046155D01*
X61510097Y-103100194D01*
X61502859Y-103144735D01*
X61493060Y-103169888D01*
X61455989Y-103204260D01*
X61411974Y-103216582D01*
X61366584Y-103206618D01*
X61327797Y-103176895D01*
X61313108Y-103156905D01*
X61304519Y-103133050D01*
X61300496Y-103098230D01*
X61299505Y-103045930D01*
X61301278Y-102994139D01*
X61305963Y-102948634D01*
X61312603Y-102918181D01*
X61313710Y-102915452D01*
X61340491Y-102883000D01*
X61379579Y-102865183D01*
X61423315Y-102862306D01*
X61464038Y-102874674D01*
X61494087Y-102902593D01*
X61497204Y-102908148D01*
X61506961Y-102942022D01*
X61512277Y-102990728D01*
X61513279Y-103046155D01*
X61650633Y-103046155D01*
X61650568Y-103025540D01*
X61649664Y-102992563D01*
X61643514Y-102910981D01*
X61630733Y-102849730D01*
X61609471Y-102804449D01*
X61577878Y-102770779D01*
X61547207Y-102751014D01*
X61504354Y-102737120D01*
X61451056Y-102732354D01*
X61396480Y-102736236D01*
X61349792Y-102748282D01*
X61325124Y-102762693D01*
X61299505Y-102785878D01*
X61299505Y-102492773D01*
X61161188Y-102492773D01*
X61161188Y-103347822D01*
G36*
X60678476Y-102734237D02*
G01*
X60628745Y-102737971D01*
X60498709Y-103127773D01*
X60478322Y-103058614D01*
X60466054Y-103015874D01*
X60449915Y-102958115D01*
X60432488Y-102894625D01*
X60423274Y-102860570D01*
X60388612Y-102731683D01*
X60245609Y-102731683D01*
X60288354Y-102866857D01*
X60309404Y-102933342D01*
X60334833Y-103013539D01*
X60361390Y-103097193D01*
X60385098Y-103171782D01*
X60439098Y-103341535D01*
X60497402Y-103345328D01*
X60555705Y-103349122D01*
X60587321Y-103244734D01*
X60606818Y-103179889D01*
X60628096Y-103108400D01*
X60646692Y-103045263D01*
X60647426Y-103042750D01*
X60661316Y-102999969D01*
X60673571Y-102970779D01*
X60682154Y-102959741D01*
X60683918Y-102961018D01*
X60690109Y-102978130D01*
X60701872Y-103014787D01*
X60717775Y-103066378D01*
X60736386Y-103128294D01*
X60746457Y-103162352D01*
X60800993Y-103347822D01*
X60916736Y-103347822D01*
X61009263Y-103055471D01*
X61035256Y-102973462D01*
X61058934Y-102898987D01*
X61079180Y-102835544D01*
X61094874Y-102786632D01*
X61104898Y-102755749D01*
X61107945Y-102746726D01*
X61105533Y-102737487D01*
X61086592Y-102733441D01*
X61047177Y-102733846D01*
X61041007Y-102734152D01*
X60967914Y-102737971D01*
X60920043Y-102914010D01*
X60902447Y-102978211D01*
X60886723Y-103034649D01*
X60874254Y-103078422D01*
X60866426Y-103104630D01*
X60864980Y-103108903D01*
X60858986Y-103103990D01*
X60846899Y-103078532D01*
X60830107Y-103035997D01*
X60809997Y-102979850D01*
X60792997Y-102929130D01*
X60728206Y-102730504D01*
X60678476Y-102734237D01*
G37*
X60678476Y-102734237D02*
X60628745Y-102737971D01*
X60498709Y-103127773D01*
X60478322Y-103058614D01*
X60466054Y-103015874D01*
X60449915Y-102958115D01*
X60432488Y-102894625D01*
X60423274Y-102860570D01*
X60388612Y-102731683D01*
X60245609Y-102731683D01*
X60288354Y-102866857D01*
X60309404Y-102933342D01*
X60334833Y-103013539D01*
X60361390Y-103097193D01*
X60385098Y-103171782D01*
X60439098Y-103341535D01*
X60497402Y-103345328D01*
X60555705Y-103349122D01*
X60587321Y-103244734D01*
X60606818Y-103179889D01*
X60628096Y-103108400D01*
X60646692Y-103045263D01*
X60647426Y-103042750D01*
X60661316Y-102999969D01*
X60673571Y-102970779D01*
X60682154Y-102959741D01*
X60683918Y-102961018D01*
X60690109Y-102978130D01*
X60701872Y-103014787D01*
X60717775Y-103066378D01*
X60736386Y-103128294D01*
X60746457Y-103162352D01*
X60800993Y-103347822D01*
X60916736Y-103347822D01*
X61009263Y-103055471D01*
X61035256Y-102973462D01*
X61058934Y-102898987D01*
X61079180Y-102835544D01*
X61094874Y-102786632D01*
X61104898Y-102755749D01*
X61107945Y-102746726D01*
X61105533Y-102737487D01*
X61086592Y-102733441D01*
X61047177Y-102733846D01*
X61041007Y-102734152D01*
X60967914Y-102737971D01*
X60920043Y-102914010D01*
X60902447Y-102978211D01*
X60886723Y-103034649D01*
X60874254Y-103078422D01*
X60866426Y-103104630D01*
X60864980Y-103108903D01*
X60858986Y-103103990D01*
X60846899Y-103078532D01*
X60830107Y-103035997D01*
X60809997Y-102979850D01*
X60792997Y-102929130D01*
X60728206Y-102730504D01*
X60678476Y-102734237D01*
G36*
X59921589Y-102735417D02*
G01*
X59868589Y-102748290D01*
X59853269Y-102755110D01*
X59823572Y-102772974D01*
X59800780Y-102793093D01*
X59783917Y-102818962D01*
X59772002Y-102854073D01*
X59764058Y-102901920D01*
X59759106Y-102965996D01*
X59756169Y-103049794D01*
X59755053Y-103105768D01*
X59750948Y-103347822D01*
X59821068Y-103347822D01*
X59863607Y-103346038D01*
X59885524Y-103339942D01*
X59891188Y-103329706D01*
X59894179Y-103318637D01*
X59907549Y-103320754D01*
X59925767Y-103329629D01*
X59971376Y-103343233D01*
X60029993Y-103346899D01*
X60091646Y-103340903D01*
X60146362Y-103325521D01*
X60151270Y-103323386D01*
X60201277Y-103288255D01*
X60234244Y-103239419D01*
X60249413Y-103182333D01*
X60248254Y-103161824D01*
X60124492Y-103161824D01*
X60113587Y-103189425D01*
X60081255Y-103209204D01*
X60029090Y-103219819D01*
X60001213Y-103221228D01*
X59954753Y-103217620D01*
X59923871Y-103203597D01*
X59916336Y-103196931D01*
X59895924Y-103160666D01*
X59891188Y-103127773D01*
X59891188Y-103083763D01*
X59952487Y-103083763D01*
X60023744Y-103087395D01*
X60073724Y-103098818D01*
X60105304Y-103118824D01*
X60112374Y-103127743D01*
X60124492Y-103161824D01*
X60248254Y-103161824D01*
X60246029Y-103122456D01*
X60223337Y-103065244D01*
X60192376Y-103026580D01*
X60173624Y-103009864D01*
X60155267Y-102998878D01*
X60131381Y-102992180D01*
X60096043Y-102988326D01*
X60043331Y-102985873D01*
X60022423Y-102985168D01*
X59891188Y-102980879D01*
X59891380Y-102941158D01*
X59896463Y-102899405D01*
X59914838Y-102874158D01*
X59951961Y-102858030D01*
X59952957Y-102857742D01*
X60005590Y-102851400D01*
X60057094Y-102859684D01*
X60095370Y-102879827D01*
X60110728Y-102889773D01*
X60127270Y-102888397D01*
X60152725Y-102873987D01*
X60167672Y-102863817D01*
X60196909Y-102842088D01*
X60215020Y-102825800D01*
X60217926Y-102821137D01*
X60205960Y-102797005D01*
X60170604Y-102768185D01*
X60155247Y-102758461D01*
X60111099Y-102741714D01*
X60051602Y-102732227D01*
X59985513Y-102730095D01*
X59921589Y-102735417D01*
G37*
X59921589Y-102735417D02*
X59868589Y-102748290D01*
X59853269Y-102755110D01*
X59823572Y-102772974D01*
X59800780Y-102793093D01*
X59783917Y-102818962D01*
X59772002Y-102854073D01*
X59764058Y-102901920D01*
X59759106Y-102965996D01*
X59756169Y-103049794D01*
X59755053Y-103105768D01*
X59750948Y-103347822D01*
X59821068Y-103347822D01*
X59863607Y-103346038D01*
X59885524Y-103339942D01*
X59891188Y-103329706D01*
X59894179Y-103318637D01*
X59907549Y-103320754D01*
X59925767Y-103329629D01*
X59971376Y-103343233D01*
X60029993Y-103346899D01*
X60091646Y-103340903D01*
X60146362Y-103325521D01*
X60151270Y-103323386D01*
X60201277Y-103288255D01*
X60234244Y-103239419D01*
X60249413Y-103182333D01*
X60248254Y-103161824D01*
X60124492Y-103161824D01*
X60113587Y-103189425D01*
X60081255Y-103209204D01*
X60029090Y-103219819D01*
X60001213Y-103221228D01*
X59954753Y-103217620D01*
X59923871Y-103203597D01*
X59916336Y-103196931D01*
X59895924Y-103160666D01*
X59891188Y-103127773D01*
X59891188Y-103083763D01*
X59952487Y-103083763D01*
X60023744Y-103087395D01*
X60073724Y-103098818D01*
X60105304Y-103118824D01*
X60112374Y-103127743D01*
X60124492Y-103161824D01*
X60248254Y-103161824D01*
X60246029Y-103122456D01*
X60223337Y-103065244D01*
X60192376Y-103026580D01*
X60173624Y-103009864D01*
X60155267Y-102998878D01*
X60131381Y-102992180D01*
X60096043Y-102988326D01*
X60043331Y-102985873D01*
X60022423Y-102985168D01*
X59891188Y-102980879D01*
X59891380Y-102941158D01*
X59896463Y-102899405D01*
X59914838Y-102874158D01*
X59951961Y-102858030D01*
X59952957Y-102857742D01*
X60005590Y-102851400D01*
X60057094Y-102859684D01*
X60095370Y-102879827D01*
X60110728Y-102889773D01*
X60127270Y-102888397D01*
X60152725Y-102873987D01*
X60167672Y-102863817D01*
X60196909Y-102842088D01*
X60215020Y-102825800D01*
X60217926Y-102821137D01*
X60205960Y-102797005D01*
X60170604Y-102768185D01*
X60155247Y-102758461D01*
X60111099Y-102741714D01*
X60051602Y-102732227D01*
X59985513Y-102730095D01*
X59921589Y-102735417D01*
G36*
X59324745Y-102731486D02*
G01*
X59276405Y-102741015D01*
X59248886Y-102755125D01*
X59219936Y-102778568D01*
X59261124Y-102830571D01*
X59286518Y-102862064D01*
X59303762Y-102877428D01*
X59320898Y-102879776D01*
X59345973Y-102872217D01*
X59357743Y-102867941D01*
X59405730Y-102861631D01*
X59449676Y-102875156D01*
X59481940Y-102905710D01*
X59487181Y-102915452D01*
X59492888Y-102941258D01*
X59497294Y-102988817D01*
X59500189Y-103054758D01*
X59501369Y-103135710D01*
X59501386Y-103147226D01*
X59501386Y-103347822D01*
X59639703Y-103347822D01*
X59639703Y-102731683D01*
X59570544Y-102731683D01*
X59530667Y-102732725D01*
X59509893Y-102737358D01*
X59502211Y-102747849D01*
X59501386Y-102757745D01*
X59501386Y-102783806D01*
X59468255Y-102757745D01*
X59430265Y-102739965D01*
X59379230Y-102731174D01*
X59324745Y-102731486D01*
G37*
X59324745Y-102731486D02*
X59276405Y-102741015D01*
X59248886Y-102755125D01*
X59219936Y-102778568D01*
X59261124Y-102830571D01*
X59286518Y-102862064D01*
X59303762Y-102877428D01*
X59320898Y-102879776D01*
X59345973Y-102872217D01*
X59357743Y-102867941D01*
X59405730Y-102861631D01*
X59449676Y-102875156D01*
X59481940Y-102905710D01*
X59487181Y-102915452D01*
X59492888Y-102941258D01*
X59497294Y-102988817D01*
X59500189Y-103054758D01*
X59501369Y-103135710D01*
X59501386Y-103147226D01*
X59501386Y-103347822D01*
X59639703Y-103347822D01*
X59639703Y-102731683D01*
X59570544Y-102731683D01*
X59530667Y-102732725D01*
X59509893Y-102737358D01*
X59502211Y-102747849D01*
X59501386Y-102757745D01*
X59501386Y-102783806D01*
X59468255Y-102757745D01*
X59430265Y-102739965D01*
X59379230Y-102731174D01*
X59324745Y-102731486D01*
G36*
X58927419Y-102734970D02*
G01*
X58867315Y-102750597D01*
X58816979Y-102782848D01*
X58792607Y-102806940D01*
X58752655Y-102863895D01*
X58729758Y-102929965D01*
X58721892Y-103011182D01*
X58721852Y-103017748D01*
X58721782Y-103083763D01*
X59101736Y-103083763D01*
X59093637Y-103118342D01*
X59079013Y-103149659D01*
X59053419Y-103182291D01*
X59048065Y-103187500D01*
X59002057Y-103215694D01*
X58949590Y-103220475D01*
X58889197Y-103201926D01*
X58878960Y-103196931D01*
X58847561Y-103181745D01*
X58826530Y-103173094D01*
X58822861Y-103172293D01*
X58810052Y-103180063D01*
X58785622Y-103199072D01*
X58773221Y-103209460D01*
X58747524Y-103233321D01*
X58739085Y-103249077D01*
X58744942Y-103263571D01*
X58748072Y-103267534D01*
X58769275Y-103284879D01*
X58804262Y-103305959D01*
X58828663Y-103318265D01*
X58897928Y-103339946D01*
X58974612Y-103346971D01*
X59047235Y-103338647D01*
X59067574Y-103332686D01*
X59130524Y-103298952D01*
X59177185Y-103247045D01*
X59207827Y-103176459D01*
X59222718Y-103086692D01*
X59224353Y-103039753D01*
X59219579Y-102971413D01*
X59099010Y-102971413D01*
X59087348Y-102976465D01*
X59056002Y-102980429D01*
X59010429Y-102982768D01*
X58979554Y-102983169D01*
X58924019Y-102982783D01*
X58888967Y-102980975D01*
X58869738Y-102976773D01*
X58861670Y-102969203D01*
X58860099Y-102958218D01*
X58870879Y-102924381D01*
X58898020Y-102890940D01*
X58933723Y-102865272D01*
X58969440Y-102854772D01*
X59017952Y-102864086D01*
X59059947Y-102891013D01*
X59089064Y-102929827D01*
X59099010Y-102971413D01*
X59219579Y-102971413D01*
X59217401Y-102940236D01*
X59195945Y-102860949D01*
X59159530Y-102801263D01*
X59107703Y-102760549D01*
X59040010Y-102738179D01*
X59003338Y-102733871D01*
X58927419Y-102734970D01*
G37*
X58927419Y-102734970D02*
X58867315Y-102750597D01*
X58816979Y-102782848D01*
X58792607Y-102806940D01*
X58752655Y-102863895D01*
X58729758Y-102929965D01*
X58721892Y-103011182D01*
X58721852Y-103017748D01*
X58721782Y-103083763D01*
X59101736Y-103083763D01*
X59093637Y-103118342D01*
X59079013Y-103149659D01*
X59053419Y-103182291D01*
X59048065Y-103187500D01*
X59002057Y-103215694D01*
X58949590Y-103220475D01*
X58889197Y-103201926D01*
X58878960Y-103196931D01*
X58847561Y-103181745D01*
X58826530Y-103173094D01*
X58822861Y-103172293D01*
X58810052Y-103180063D01*
X58785622Y-103199072D01*
X58773221Y-103209460D01*
X58747524Y-103233321D01*
X58739085Y-103249077D01*
X58744942Y-103263571D01*
X58748072Y-103267534D01*
X58769275Y-103284879D01*
X58804262Y-103305959D01*
X58828663Y-103318265D01*
X58897928Y-103339946D01*
X58974612Y-103346971D01*
X59047235Y-103338647D01*
X59067574Y-103332686D01*
X59130524Y-103298952D01*
X59177185Y-103247045D01*
X59207827Y-103176459D01*
X59222718Y-103086692D01*
X59224353Y-103039753D01*
X59219579Y-102971413D01*
X59099010Y-102971413D01*
X59087348Y-102976465D01*
X59056002Y-102980429D01*
X59010429Y-102982768D01*
X58979554Y-102983169D01*
X58924019Y-102982783D01*
X58888967Y-102980975D01*
X58869738Y-102976773D01*
X58861670Y-102969203D01*
X58860099Y-102958218D01*
X58870879Y-102924381D01*
X58898020Y-102890940D01*
X58933723Y-102865272D01*
X58969440Y-102854772D01*
X59017952Y-102864086D01*
X59059947Y-102891013D01*
X59089064Y-102929827D01*
X59099010Y-102971413D01*
X59219579Y-102971413D01*
X59217401Y-102940236D01*
X59195945Y-102860949D01*
X59159530Y-102801263D01*
X59107703Y-102760549D01*
X59040010Y-102738179D01*
X59003338Y-102733871D01*
X58927419Y-102734970D01*
G36*
X63498261Y-101795148D02*
G01*
X63432479Y-101824231D01*
X63382540Y-101872793D01*
X63348374Y-101940908D01*
X63329907Y-102028651D01*
X63328583Y-102042351D01*
X63327546Y-102138939D01*
X63340993Y-102223602D01*
X63368108Y-102292221D01*
X63382627Y-102314294D01*
X63433201Y-102361011D01*
X63497609Y-102391268D01*
X63569666Y-102403824D01*
X63643185Y-102397439D01*
X63699072Y-102377772D01*
X63747132Y-102344629D01*
X63786412Y-102301175D01*
X63787092Y-102300158D01*
X63803044Y-102273338D01*
X63813410Y-102246368D01*
X63819688Y-102212332D01*
X63823373Y-102164310D01*
X63824997Y-102124931D01*
X63825672Y-102089219D01*
X63699955Y-102089219D01*
X63698726Y-102124770D01*
X63694266Y-102172094D01*
X63686397Y-102202465D01*
X63672207Y-102224072D01*
X63658917Y-102236694D01*
X63611802Y-102263122D01*
X63562505Y-102266653D01*
X63516593Y-102247639D01*
X63493638Y-102226331D01*
X63477096Y-102204859D01*
X63467421Y-102184313D01*
X63463174Y-102157574D01*
X63462920Y-102117523D01*
X63464228Y-102080638D01*
X63467043Y-102027947D01*
X63471505Y-101993772D01*
X63479548Y-101971480D01*
X63493103Y-101954442D01*
X63503845Y-101944703D01*
X63548777Y-101919123D01*
X63597249Y-101917847D01*
X63637894Y-101932999D01*
X63672567Y-101964642D01*
X63693224Y-102016620D01*
X63699955Y-102089219D01*
X63825672Y-102089219D01*
X63826479Y-102046621D01*
X63823948Y-101988056D01*
X63816362Y-101944007D01*
X63802681Y-101909248D01*
X63781865Y-101878551D01*
X63774147Y-101869436D01*
X63725889Y-101824021D01*
X63674128Y-101797493D01*
X63610828Y-101786379D01*
X63579961Y-101785471D01*
X63498261Y-101795148D01*
G37*
X63498261Y-101795148D02*
X63432479Y-101824231D01*
X63382540Y-101872793D01*
X63348374Y-101940908D01*
X63329907Y-102028651D01*
X63328583Y-102042351D01*
X63327546Y-102138939D01*
X63340993Y-102223602D01*
X63368108Y-102292221D01*
X63382627Y-102314294D01*
X63433201Y-102361011D01*
X63497609Y-102391268D01*
X63569666Y-102403824D01*
X63643185Y-102397439D01*
X63699072Y-102377772D01*
X63747132Y-102344629D01*
X63786412Y-102301175D01*
X63787092Y-102300158D01*
X63803044Y-102273338D01*
X63813410Y-102246368D01*
X63819688Y-102212332D01*
X63823373Y-102164310D01*
X63824997Y-102124931D01*
X63825672Y-102089219D01*
X63699955Y-102089219D01*
X63698726Y-102124770D01*
X63694266Y-102172094D01*
X63686397Y-102202465D01*
X63672207Y-102224072D01*
X63658917Y-102236694D01*
X63611802Y-102263122D01*
X63562505Y-102266653D01*
X63516593Y-102247639D01*
X63493638Y-102226331D01*
X63477096Y-102204859D01*
X63467421Y-102184313D01*
X63463174Y-102157574D01*
X63462920Y-102117523D01*
X63464228Y-102080638D01*
X63467043Y-102027947D01*
X63471505Y-101993772D01*
X63479548Y-101971480D01*
X63493103Y-101954442D01*
X63503845Y-101944703D01*
X63548777Y-101919123D01*
X63597249Y-101917847D01*
X63637894Y-101932999D01*
X63672567Y-101964642D01*
X63693224Y-102016620D01*
X63699955Y-102089219D01*
X63825672Y-102089219D01*
X63826479Y-102046621D01*
X63823948Y-101988056D01*
X63816362Y-101944007D01*
X63802681Y-101909248D01*
X63781865Y-101878551D01*
X63774147Y-101869436D01*
X63725889Y-101824021D01*
X63674128Y-101797493D01*
X63610828Y-101786379D01*
X63579961Y-101785471D01*
X63498261Y-101795148D01*
G36*
X62316699Y-101802614D02*
G01*
X62304168Y-101808514D01*
X62260799Y-101840283D01*
X62219790Y-101886646D01*
X62189168Y-101937696D01*
X62180459Y-101961166D01*
X62172512Y-102003091D01*
X62167774Y-102053757D01*
X62167199Y-102074679D01*
X62167129Y-102140693D01*
X62547083Y-102140693D01*
X62538983Y-102175273D01*
X62519104Y-102216170D01*
X62484347Y-102251514D01*
X62442998Y-102274282D01*
X62416649Y-102279010D01*
X62380916Y-102273273D01*
X62338282Y-102258882D01*
X62323799Y-102252262D01*
X62270240Y-102225513D01*
X62224533Y-102260376D01*
X62198158Y-102283955D01*
X62184124Y-102303417D01*
X62183414Y-102309129D01*
X62195951Y-102322973D01*
X62223428Y-102344012D01*
X62248366Y-102360425D01*
X62315664Y-102389930D01*
X62391110Y-102403284D01*
X62465888Y-102399812D01*
X62525495Y-102381663D01*
X62586941Y-102342784D01*
X62630608Y-102291595D01*
X62657926Y-102225367D01*
X62670322Y-102141371D01*
X62671421Y-102102936D01*
X62667022Y-102014861D01*
X62666482Y-102012299D01*
X62540582Y-102012299D01*
X62537115Y-102020558D01*
X62522863Y-102025113D01*
X62493470Y-102027065D01*
X62444575Y-102027517D01*
X62425748Y-102027525D01*
X62368467Y-102026843D01*
X62332141Y-102024364D01*
X62312604Y-102019443D01*
X62305690Y-102011434D01*
X62305445Y-102008862D01*
X62313336Y-101988423D01*
X62333085Y-101959789D01*
X62341575Y-101949763D01*
X62373094Y-101921408D01*
X62405949Y-101910259D01*
X62423651Y-101909327D01*
X62471539Y-101920981D01*
X62511699Y-101952285D01*
X62537173Y-101997752D01*
X62537625Y-101999233D01*
X62540582Y-102012299D01*
X62666482Y-102012299D01*
X62652392Y-101945510D01*
X62626038Y-101890025D01*
X62593807Y-101850639D01*
X62534217Y-101807931D01*
X62464168Y-101785109D01*
X62389661Y-101783046D01*
X62316699Y-101802614D01*
G37*
X62316699Y-101802614D02*
X62304168Y-101808514D01*
X62260799Y-101840283D01*
X62219790Y-101886646D01*
X62189168Y-101937696D01*
X62180459Y-101961166D01*
X62172512Y-102003091D01*
X62167774Y-102053757D01*
X62167199Y-102074679D01*
X62167129Y-102140693D01*
X62547083Y-102140693D01*
X62538983Y-102175273D01*
X62519104Y-102216170D01*
X62484347Y-102251514D01*
X62442998Y-102274282D01*
X62416649Y-102279010D01*
X62380916Y-102273273D01*
X62338282Y-102258882D01*
X62323799Y-102252262D01*
X62270240Y-102225513D01*
X62224533Y-102260376D01*
X62198158Y-102283955D01*
X62184124Y-102303417D01*
X62183414Y-102309129D01*
X62195951Y-102322973D01*
X62223428Y-102344012D01*
X62248366Y-102360425D01*
X62315664Y-102389930D01*
X62391110Y-102403284D01*
X62465888Y-102399812D01*
X62525495Y-102381663D01*
X62586941Y-102342784D01*
X62630608Y-102291595D01*
X62657926Y-102225367D01*
X62670322Y-102141371D01*
X62671421Y-102102936D01*
X62667022Y-102014861D01*
X62666482Y-102012299D01*
X62540582Y-102012299D01*
X62537115Y-102020558D01*
X62522863Y-102025113D01*
X62493470Y-102027065D01*
X62444575Y-102027517D01*
X62425748Y-102027525D01*
X62368467Y-102026843D01*
X62332141Y-102024364D01*
X62312604Y-102019443D01*
X62305690Y-102011434D01*
X62305445Y-102008862D01*
X62313336Y-101988423D01*
X62333085Y-101959789D01*
X62341575Y-101949763D01*
X62373094Y-101921408D01*
X62405949Y-101910259D01*
X62423651Y-101909327D01*
X62471539Y-101920981D01*
X62511699Y-101952285D01*
X62537173Y-101997752D01*
X62537625Y-101999233D01*
X62540582Y-102012299D01*
X62666482Y-102012299D01*
X62652392Y-101945510D01*
X62626038Y-101890025D01*
X62593807Y-101850639D01*
X62534217Y-101807931D01*
X62464168Y-101785109D01*
X62389661Y-101783046D01*
X62316699Y-101802614D01*
G36*
X60945983Y-101786452D02*
G01*
X60898366Y-101795482D01*
X60848966Y-101814370D01*
X60843688Y-101816777D01*
X60806226Y-101836476D01*
X60780283Y-101854781D01*
X60771897Y-101866508D01*
X60779883Y-101885632D01*
X60799280Y-101913850D01*
X60807890Y-101924384D01*
X60843372Y-101965847D01*
X60889115Y-101938858D01*
X60932650Y-101920878D01*
X60982950Y-101911267D01*
X61031188Y-101910660D01*
X61068533Y-101919691D01*
X61077495Y-101925327D01*
X61094563Y-101951171D01*
X61096637Y-101980941D01*
X61083866Y-102004197D01*
X61076312Y-102008708D01*
X61053675Y-102014309D01*
X61013885Y-102020892D01*
X60964834Y-102027183D01*
X60955785Y-102028170D01*
X60877004Y-102041798D01*
X60819864Y-102064946D01*
X60781970Y-102099752D01*
X60760921Y-102148354D01*
X60754365Y-102207718D01*
X60763423Y-102275198D01*
X60792836Y-102328188D01*
X60842722Y-102366783D01*
X60913200Y-102391081D01*
X60991435Y-102400667D01*
X61055234Y-102400552D01*
X61106984Y-102391845D01*
X61142327Y-102379825D01*
X61186983Y-102358880D01*
X61228253Y-102334574D01*
X61242921Y-102323876D01*
X61280643Y-102293084D01*
X61235148Y-102247049D01*
X61189653Y-102201013D01*
X61137928Y-102235243D01*
X61086048Y-102260952D01*
X61030649Y-102274399D01*
X60977395Y-102275818D01*
X60931951Y-102265443D01*
X60899984Y-102243507D01*
X60889662Y-102224998D01*
X60891211Y-102195314D01*
X60916860Y-102172615D01*
X60966540Y-102156940D01*
X61020969Y-102149695D01*
X61104736Y-102135873D01*
X61166967Y-102109796D01*
X61208493Y-102070699D01*
X61230147Y-102017820D01*
X61233147Y-101955126D01*
X61218329Y-101889642D01*
X61184546Y-101840144D01*
X61131495Y-101806408D01*
X61058874Y-101788207D01*
X61005072Y-101784639D01*
X60945983Y-101786452D01*
G37*
X60945983Y-101786452D02*
X60898366Y-101795482D01*
X60848966Y-101814370D01*
X60843688Y-101816777D01*
X60806226Y-101836476D01*
X60780283Y-101854781D01*
X60771897Y-101866508D01*
X60779883Y-101885632D01*
X60799280Y-101913850D01*
X60807890Y-101924384D01*
X60843372Y-101965847D01*
X60889115Y-101938858D01*
X60932650Y-101920878D01*
X60982950Y-101911267D01*
X61031188Y-101910660D01*
X61068533Y-101919691D01*
X61077495Y-101925327D01*
X61094563Y-101951171D01*
X61096637Y-101980941D01*
X61083866Y-102004197D01*
X61076312Y-102008708D01*
X61053675Y-102014309D01*
X61013885Y-102020892D01*
X60964834Y-102027183D01*
X60955785Y-102028170D01*
X60877004Y-102041798D01*
X60819864Y-102064946D01*
X60781970Y-102099752D01*
X60760921Y-102148354D01*
X60754365Y-102207718D01*
X60763423Y-102275198D01*
X60792836Y-102328188D01*
X60842722Y-102366783D01*
X60913200Y-102391081D01*
X60991435Y-102400667D01*
X61055234Y-102400552D01*
X61106984Y-102391845D01*
X61142327Y-102379825D01*
X61186983Y-102358880D01*
X61228253Y-102334574D01*
X61242921Y-102323876D01*
X61280643Y-102293084D01*
X61235148Y-102247049D01*
X61189653Y-102201013D01*
X61137928Y-102235243D01*
X61086048Y-102260952D01*
X61030649Y-102274399D01*
X60977395Y-102275818D01*
X60931951Y-102265443D01*
X60899984Y-102243507D01*
X60889662Y-102224998D01*
X60891211Y-102195314D01*
X60916860Y-102172615D01*
X60966540Y-102156940D01*
X61020969Y-102149695D01*
X61104736Y-102135873D01*
X61166967Y-102109796D01*
X61208493Y-102070699D01*
X61230147Y-102017820D01*
X61233147Y-101955126D01*
X61218329Y-101889642D01*
X61184546Y-101840144D01*
X61131495Y-101806408D01*
X61058874Y-101788207D01*
X61005072Y-101784639D01*
X60945983Y-101786452D01*
G36*
X60349238Y-101796055D02*
G01*
X60285637Y-101830692D01*
X60235877Y-101885372D01*
X60212432Y-101929842D01*
X60202366Y-101969121D01*
X60195844Y-102025116D01*
X60193049Y-102089621D01*
X60194164Y-102154429D01*
X60199374Y-102211334D01*
X60205459Y-102241727D01*
X60225986Y-102283306D01*
X60261537Y-102327468D01*
X60304381Y-102366087D01*
X60346789Y-102391034D01*
X60347823Y-102391430D01*
X60400447Y-102402331D01*
X60462812Y-102402601D01*
X60522076Y-102392676D01*
X60544960Y-102384722D01*
X60603898Y-102351300D01*
X60646110Y-102307511D01*
X60673844Y-102249538D01*
X60689349Y-102173565D01*
X60692857Y-102133771D01*
X60692410Y-102083766D01*
X60557624Y-102083766D01*
X60553083Y-102156732D01*
X60540014Y-102212334D01*
X60519244Y-102247861D01*
X60504448Y-102258020D01*
X60466536Y-102265104D01*
X60421473Y-102263007D01*
X60382513Y-102252812D01*
X60372296Y-102247204D01*
X60345341Y-102214538D01*
X60327549Y-102164545D01*
X60319976Y-102103705D01*
X60323675Y-102038497D01*
X60331943Y-101999253D01*
X60355680Y-101953805D01*
X60393151Y-101925396D01*
X60438280Y-101915573D01*
X60484989Y-101925887D01*
X60520868Y-101951112D01*
X60539723Y-101971925D01*
X60550728Y-101992439D01*
X60555974Y-102020203D01*
X60557551Y-102062762D01*
X60557624Y-102083766D01*
X60692410Y-102083766D01*
X60691906Y-102027580D01*
X60674612Y-101940501D01*
X60640971Y-101872530D01*
X60590982Y-101823664D01*
X60524644Y-101793899D01*
X60510399Y-101790448D01*
X60424790Y-101782345D01*
X60349238Y-101796055D01*
G37*
X60349238Y-101796055D02*
X60285637Y-101830692D01*
X60235877Y-101885372D01*
X60212432Y-101929842D01*
X60202366Y-101969121D01*
X60195844Y-102025116D01*
X60193049Y-102089621D01*
X60194164Y-102154429D01*
X60199374Y-102211334D01*
X60205459Y-102241727D01*
X60225986Y-102283306D01*
X60261537Y-102327468D01*
X60304381Y-102366087D01*
X60346789Y-102391034D01*
X60347823Y-102391430D01*
X60400447Y-102402331D01*
X60462812Y-102402601D01*
X60522076Y-102392676D01*
X60544960Y-102384722D01*
X60603898Y-102351300D01*
X60646110Y-102307511D01*
X60673844Y-102249538D01*
X60689349Y-102173565D01*
X60692857Y-102133771D01*
X60692410Y-102083766D01*
X60557624Y-102083766D01*
X60553083Y-102156732D01*
X60540014Y-102212334D01*
X60519244Y-102247861D01*
X60504448Y-102258020D01*
X60466536Y-102265104D01*
X60421473Y-102263007D01*
X60382513Y-102252812D01*
X60372296Y-102247204D01*
X60345341Y-102214538D01*
X60327549Y-102164545D01*
X60319976Y-102103705D01*
X60323675Y-102038497D01*
X60331943Y-101999253D01*
X60355680Y-101953805D01*
X60393151Y-101925396D01*
X60438280Y-101915573D01*
X60484989Y-101925887D01*
X60520868Y-101951112D01*
X60539723Y-101971925D01*
X60550728Y-101992439D01*
X60555974Y-102020203D01*
X60557551Y-102062762D01*
X60557624Y-102083766D01*
X60692410Y-102083766D01*
X60691906Y-102027580D01*
X60674612Y-101940501D01*
X60640971Y-101872530D01*
X60590982Y-101823664D01*
X60524644Y-101793899D01*
X60510399Y-101790448D01*
X60424790Y-101782345D01*
X60349238Y-101796055D01*
G36*
X59966633Y-101984342D02*
G01*
X59965445Y-102076563D01*
X59961103Y-102146610D01*
X59952442Y-102197381D01*
X59938296Y-102231772D01*
X59917500Y-102252679D01*
X59888890Y-102263000D01*
X59853465Y-102265636D01*
X59816364Y-102262682D01*
X59788182Y-102251889D01*
X59767757Y-102230360D01*
X59753921Y-102195199D01*
X59745509Y-102143510D01*
X59741357Y-102072394D01*
X59740297Y-101984342D01*
X59740297Y-101788614D01*
X59601980Y-101788614D01*
X59601980Y-102392179D01*
X59671138Y-102392179D01*
X59712830Y-102390489D01*
X59734299Y-102384556D01*
X59740297Y-102373293D01*
X59743909Y-102363261D01*
X59758286Y-102365383D01*
X59787264Y-102379580D01*
X59853681Y-102401480D01*
X59924125Y-102399928D01*
X59991623Y-102376147D01*
X60023767Y-102357362D01*
X60048285Y-102337022D01*
X60066196Y-102311573D01*
X60078521Y-102277458D01*
X60086277Y-102231121D01*
X60090484Y-102169007D01*
X60092160Y-102087561D01*
X60092376Y-102024578D01*
X60092376Y-101788614D01*
X59966633Y-101788614D01*
X59966633Y-101984342D01*
G37*
X59966633Y-101984342D02*
X59965445Y-102076563D01*
X59961103Y-102146610D01*
X59952442Y-102197381D01*
X59938296Y-102231772D01*
X59917500Y-102252679D01*
X59888890Y-102263000D01*
X59853465Y-102265636D01*
X59816364Y-102262682D01*
X59788182Y-102251889D01*
X59767757Y-102230360D01*
X59753921Y-102195199D01*
X59745509Y-102143510D01*
X59741357Y-102072394D01*
X59740297Y-101984342D01*
X59740297Y-101788614D01*
X59601980Y-101788614D01*
X59601980Y-102392179D01*
X59671138Y-102392179D01*
X59712830Y-102390489D01*
X59734299Y-102384556D01*
X59740297Y-102373293D01*
X59743909Y-102363261D01*
X59758286Y-102365383D01*
X59787264Y-102379580D01*
X59853681Y-102401480D01*
X59924125Y-102399928D01*
X59991623Y-102376147D01*
X60023767Y-102357362D01*
X60048285Y-102337022D01*
X60066196Y-102311573D01*
X60078521Y-102277458D01*
X60086277Y-102231121D01*
X60090484Y-102169007D01*
X60092160Y-102087561D01*
X60092376Y-102024578D01*
X60092376Y-101788614D01*
X59966633Y-101788614D01*
X59966633Y-101984342D01*
G36*
X58742774Y-101793880D02*
G01*
X58669920Y-101824830D01*
X58646973Y-101839895D01*
X58617646Y-101863048D01*
X58599236Y-101881253D01*
X58596039Y-101887183D01*
X58605065Y-101900340D01*
X58628163Y-101922667D01*
X58646656Y-101938250D01*
X58697272Y-101978926D01*
X58737240Y-101945295D01*
X58768126Y-101923584D01*
X58798241Y-101916090D01*
X58832708Y-101917920D01*
X58887439Y-101931528D01*
X58925114Y-101959772D01*
X58948009Y-102005433D01*
X58958403Y-102071289D01*
X58958405Y-102071331D01*
X58957506Y-102144939D01*
X58943537Y-102198946D01*
X58915672Y-102235716D01*
X58896675Y-102248168D01*
X58846224Y-102263673D01*
X58792337Y-102263683D01*
X58745454Y-102248638D01*
X58734356Y-102241287D01*
X58706524Y-102222511D01*
X58684764Y-102219434D01*
X58661296Y-102233409D01*
X58635351Y-102258510D01*
X58594284Y-102300880D01*
X58639879Y-102338464D01*
X58710326Y-102380882D01*
X58789767Y-102401785D01*
X58872785Y-102400272D01*
X58927306Y-102386411D01*
X58991030Y-102352135D01*
X59041995Y-102298212D01*
X59065149Y-102260149D01*
X59083901Y-102205536D01*
X59093285Y-102136369D01*
X59093357Y-102061407D01*
X59084176Y-101989409D01*
X59065801Y-101929137D01*
X59062907Y-101922958D01*
X59020048Y-101862351D01*
X58962021Y-101818224D01*
X58893409Y-101791493D01*
X58818799Y-101783073D01*
X58742774Y-101793880D01*
G37*
X58742774Y-101793880D02*
X58669920Y-101824830D01*
X58646973Y-101839895D01*
X58617646Y-101863048D01*
X58599236Y-101881253D01*
X58596039Y-101887183D01*
X58605065Y-101900340D01*
X58628163Y-101922667D01*
X58646656Y-101938250D01*
X58697272Y-101978926D01*
X58737240Y-101945295D01*
X58768126Y-101923584D01*
X58798241Y-101916090D01*
X58832708Y-101917920D01*
X58887439Y-101931528D01*
X58925114Y-101959772D01*
X58948009Y-102005433D01*
X58958403Y-102071289D01*
X58958405Y-102071331D01*
X58957506Y-102144939D01*
X58943537Y-102198946D01*
X58915672Y-102235716D01*
X58896675Y-102248168D01*
X58846224Y-102263673D01*
X58792337Y-102263683D01*
X58745454Y-102248638D01*
X58734356Y-102241287D01*
X58706524Y-102222511D01*
X58684764Y-102219434D01*
X58661296Y-102233409D01*
X58635351Y-102258510D01*
X58594284Y-102300880D01*
X58639879Y-102338464D01*
X58710326Y-102380882D01*
X58789767Y-102401785D01*
X58872785Y-102400272D01*
X58927306Y-102386411D01*
X58991030Y-102352135D01*
X59041995Y-102298212D01*
X59065149Y-102260149D01*
X59083901Y-102205536D01*
X59093285Y-102136369D01*
X59093357Y-102061407D01*
X59084176Y-101989409D01*
X59065801Y-101929137D01*
X59062907Y-101922958D01*
X59020048Y-101862351D01*
X58962021Y-101818224D01*
X58893409Y-101791493D01*
X58818799Y-101783073D01*
X58742774Y-101793880D01*
G36*
X58282102Y-101786457D02*
G01*
X58249904Y-101794279D01*
X58188175Y-101822921D01*
X58135390Y-101866667D01*
X58098859Y-101919117D01*
X58093840Y-101930893D01*
X58086955Y-101961740D01*
X58082136Y-102007371D01*
X58080495Y-102053492D01*
X58080495Y-102140693D01*
X58262822Y-102140693D01*
X58338021Y-102140978D01*
X58390997Y-102142704D01*
X58424675Y-102147181D01*
X58441980Y-102155720D01*
X58445837Y-102169630D01*
X58439171Y-102190222D01*
X58427230Y-102214315D01*
X58393920Y-102254525D01*
X58347632Y-102274558D01*
X58291056Y-102273905D01*
X58226969Y-102252101D01*
X58171583Y-102225193D01*
X58125625Y-102261532D01*
X58079667Y-102297872D01*
X58122904Y-102337819D01*
X58180626Y-102375563D01*
X58251614Y-102398320D01*
X58327971Y-102404688D01*
X58401801Y-102393268D01*
X58413713Y-102389393D01*
X58478601Y-102355506D01*
X58526870Y-102304986D01*
X58559535Y-102236325D01*
X58577615Y-102148014D01*
X58577825Y-102146121D01*
X58579444Y-102049878D01*
X58572900Y-102015542D01*
X58445148Y-102015542D01*
X58433416Y-102020822D01*
X58401562Y-102024867D01*
X58354603Y-102027176D01*
X58324846Y-102027525D01*
X58269352Y-102027306D01*
X58234654Y-102025916D01*
X58216399Y-102022251D01*
X58210234Y-102015210D01*
X58211805Y-102003690D01*
X58213122Y-101999233D01*
X58235618Y-101957355D01*
X58270997Y-101923604D01*
X58302220Y-101908773D01*
X58343699Y-101909668D01*
X58385731Y-101928164D01*
X58420988Y-101958786D01*
X58442146Y-101996062D01*
X58445148Y-102015542D01*
X58572900Y-102015542D01*
X58563310Y-101965229D01*
X58531302Y-101894191D01*
X58485299Y-101838779D01*
X58427179Y-101801009D01*
X58358820Y-101782896D01*
X58282102Y-101786457D01*
G37*
X58282102Y-101786457D02*
X58249904Y-101794279D01*
X58188175Y-101822921D01*
X58135390Y-101866667D01*
X58098859Y-101919117D01*
X58093840Y-101930893D01*
X58086955Y-101961740D01*
X58082136Y-102007371D01*
X58080495Y-102053492D01*
X58080495Y-102140693D01*
X58262822Y-102140693D01*
X58338021Y-102140978D01*
X58390997Y-102142704D01*
X58424675Y-102147181D01*
X58441980Y-102155720D01*
X58445837Y-102169630D01*
X58439171Y-102190222D01*
X58427230Y-102214315D01*
X58393920Y-102254525D01*
X58347632Y-102274558D01*
X58291056Y-102273905D01*
X58226969Y-102252101D01*
X58171583Y-102225193D01*
X58125625Y-102261532D01*
X58079667Y-102297872D01*
X58122904Y-102337819D01*
X58180626Y-102375563D01*
X58251614Y-102398320D01*
X58327971Y-102404688D01*
X58401801Y-102393268D01*
X58413713Y-102389393D01*
X58478601Y-102355506D01*
X58526870Y-102304986D01*
X58559535Y-102236325D01*
X58577615Y-102148014D01*
X58577825Y-102146121D01*
X58579444Y-102049878D01*
X58572900Y-102015542D01*
X58445148Y-102015542D01*
X58433416Y-102020822D01*
X58401562Y-102024867D01*
X58354603Y-102027176D01*
X58324846Y-102027525D01*
X58269352Y-102027306D01*
X58234654Y-102025916D01*
X58216399Y-102022251D01*
X58210234Y-102015210D01*
X58211805Y-102003690D01*
X58213122Y-101999233D01*
X58235618Y-101957355D01*
X58270997Y-101923604D01*
X58302220Y-101908773D01*
X58343699Y-101909668D01*
X58385731Y-101928164D01*
X58420988Y-101958786D01*
X58442146Y-101996062D01*
X58445148Y-102015542D01*
X58572900Y-102015542D01*
X58563310Y-101965229D01*
X58531302Y-101894191D01*
X58485299Y-101838779D01*
X58427179Y-101801009D01*
X58358820Y-101782896D01*
X58282102Y-101786457D01*
G36*
X61714012Y-101799002D02*
G01*
X61682717Y-101813950D01*
X61652409Y-101835541D01*
X61629318Y-101860391D01*
X61612500Y-101892087D01*
X61601006Y-101934214D01*
X61593891Y-101990358D01*
X61590207Y-102064106D01*
X61589008Y-102159044D01*
X61588989Y-102168985D01*
X61588713Y-102392179D01*
X61727030Y-102392179D01*
X61727030Y-102186418D01*
X61727128Y-102110189D01*
X61727809Y-102054939D01*
X61729651Y-102016501D01*
X61733233Y-101990706D01*
X61739132Y-101973384D01*
X61747927Y-101960368D01*
X61760180Y-101947507D01*
X61803047Y-101919873D01*
X61849843Y-101914745D01*
X61894424Y-101932217D01*
X61909928Y-101945221D01*
X61921310Y-101957447D01*
X61929481Y-101970540D01*
X61934974Y-101988615D01*
X61938320Y-102015787D01*
X61940051Y-102056170D01*
X61940697Y-102113879D01*
X61940792Y-102184132D01*
X61940792Y-102392179D01*
X62079109Y-102392179D01*
X62079109Y-101788614D01*
X62009950Y-101788614D01*
X61968428Y-101790256D01*
X61947006Y-101796087D01*
X61940795Y-101807461D01*
X61940792Y-101807798D01*
X61937910Y-101818938D01*
X61925199Y-101817674D01*
X61899926Y-101805434D01*
X61842605Y-101787424D01*
X61777037Y-101785421D01*
X61714012Y-101799002D01*
G37*
X61714012Y-101799002D02*
X61682717Y-101813950D01*
X61652409Y-101835541D01*
X61629318Y-101860391D01*
X61612500Y-101892087D01*
X61601006Y-101934214D01*
X61593891Y-101990358D01*
X61590207Y-102064106D01*
X61589008Y-102159044D01*
X61588989Y-102168985D01*
X61588713Y-102392179D01*
X61727030Y-102392179D01*
X61727030Y-102186418D01*
X61727128Y-102110189D01*
X61727809Y-102054939D01*
X61729651Y-102016501D01*
X61733233Y-101990706D01*
X61739132Y-101973384D01*
X61747927Y-101960368D01*
X61760180Y-101947507D01*
X61803047Y-101919873D01*
X61849843Y-101914745D01*
X61894424Y-101932217D01*
X61909928Y-101945221D01*
X61921310Y-101957447D01*
X61929481Y-101970540D01*
X61934974Y-101988615D01*
X61938320Y-102015787D01*
X61940051Y-102056170D01*
X61940697Y-102113879D01*
X61940792Y-102184132D01*
X61940792Y-102392179D01*
X62079109Y-102392179D01*
X62079109Y-101788614D01*
X62009950Y-101788614D01*
X61968428Y-101790256D01*
X61947006Y-101796087D01*
X61940795Y-101807461D01*
X61940792Y-101807798D01*
X61937910Y-101818938D01*
X61925199Y-101817674D01*
X61899926Y-101805434D01*
X61842605Y-101787424D01*
X61777037Y-101785421D01*
X61714012Y-101799002D01*
G36*
X59160540Y-101788030D02*
G01*
X59117289Y-101801245D01*
X59089442Y-101817941D01*
X59080371Y-101831145D01*
X59082868Y-101846797D01*
X59099069Y-101871385D01*
X59112768Y-101888800D01*
X59141008Y-101920283D01*
X59162225Y-101933529D01*
X59180312Y-101932664D01*
X59233965Y-101919010D01*
X59273370Y-101919630D01*
X59305368Y-101935104D01*
X59316110Y-101944161D01*
X59350495Y-101976027D01*
X59350495Y-102392179D01*
X59488812Y-102392179D01*
X59488812Y-101788614D01*
X59419653Y-101788614D01*
X59378131Y-101790256D01*
X59356709Y-101796087D01*
X59350498Y-101807461D01*
X59350495Y-101807798D01*
X59347561Y-101819713D01*
X59334296Y-101818159D01*
X59315916Y-101809563D01*
X59277954Y-101793568D01*
X59247128Y-101783945D01*
X59207464Y-101781478D01*
X59160540Y-101788030D01*
G37*
X59160540Y-101788030D02*
X59117289Y-101801245D01*
X59089442Y-101817941D01*
X59080371Y-101831145D01*
X59082868Y-101846797D01*
X59099069Y-101871385D01*
X59112768Y-101888800D01*
X59141008Y-101920283D01*
X59162225Y-101933529D01*
X59180312Y-101932664D01*
X59233965Y-101919010D01*
X59273370Y-101919630D01*
X59305368Y-101935104D01*
X59316110Y-101944161D01*
X59350495Y-101976027D01*
X59350495Y-102392179D01*
X59488812Y-102392179D01*
X59488812Y-101788614D01*
X59419653Y-101788614D01*
X59378131Y-101790256D01*
X59356709Y-101796087D01*
X59350498Y-101807461D01*
X59350495Y-101807798D01*
X59347561Y-101819713D01*
X59334296Y-101818159D01*
X59315916Y-101809563D01*
X59277954Y-101793568D01*
X59247128Y-101783945D01*
X59207464Y-101781478D01*
X59160540Y-101788030D01*
G36*
X60583036Y-97620018D02*
G01*
X60526188Y-97921570D01*
X60106662Y-98094512D01*
X59855016Y-97923395D01*
X59784542Y-97875750D01*
X59720837Y-97833210D01*
X59666874Y-97797715D01*
X59625627Y-97771210D01*
X59600066Y-97755636D01*
X59593105Y-97752278D01*
X59580565Y-97760914D01*
X59553769Y-97784792D01*
X59515720Y-97820859D01*
X59469421Y-97866067D01*
X59417877Y-97917364D01*
X59364091Y-97971701D01*
X59311065Y-98026028D01*
X59261805Y-98077295D01*
X59219313Y-98122451D01*
X59186593Y-98158446D01*
X59166649Y-98182230D01*
X59161881Y-98190190D01*
X59168743Y-98204865D01*
X59187980Y-98237014D01*
X59217570Y-98283492D01*
X59255490Y-98341156D01*
X59299718Y-98406860D01*
X59325346Y-98444336D01*
X59372059Y-98512768D01*
X59413568Y-98574520D01*
X59447860Y-98626519D01*
X59472920Y-98665692D01*
X59486736Y-98688965D01*
X59488812Y-98693855D01*
X59484105Y-98707755D01*
X59471277Y-98740150D01*
X59452262Y-98786485D01*
X59428997Y-98842206D01*
X59403416Y-98902758D01*
X59377455Y-98963586D01*
X59353050Y-99020136D01*
X59332137Y-99067852D01*
X59316651Y-99102181D01*
X59308528Y-99118568D01*
X59308048Y-99119212D01*
X59295293Y-99122341D01*
X59261323Y-99129321D01*
X59209660Y-99139467D01*
X59143824Y-99152092D01*
X59067336Y-99166509D01*
X59022710Y-99174823D01*
X58940979Y-99190384D01*
X58867157Y-99205192D01*
X58804979Y-99218436D01*
X58758178Y-99229305D01*
X58730491Y-99236989D01*
X58724926Y-99239427D01*
X58719474Y-99255930D01*
X58715076Y-99293200D01*
X58711728Y-99346880D01*
X58709426Y-99412612D01*
X58708168Y-99486037D01*
X58707952Y-99562796D01*
X58708773Y-99638532D01*
X58710629Y-99708886D01*
X58713518Y-99769500D01*
X58717435Y-99816016D01*
X58722378Y-99844075D01*
X58725343Y-99849916D01*
X58743066Y-99856917D01*
X58780619Y-99866927D01*
X58833036Y-99878769D01*
X58895348Y-99891267D01*
X58917100Y-99895310D01*
X59021976Y-99914520D01*
X59104820Y-99929991D01*
X59168370Y-99942337D01*
X59215363Y-99952173D01*
X59248537Y-99960114D01*
X59270629Y-99966776D01*
X59284376Y-99972773D01*
X59292516Y-99978719D01*
X59293655Y-99979894D01*
X59305023Y-99998826D01*
X59322365Y-100035669D01*
X59343950Y-100085913D01*
X59368046Y-100145046D01*
X59392921Y-100208556D01*
X59416843Y-100271932D01*
X59438081Y-100330662D01*
X59454903Y-100380235D01*
X59465578Y-100416139D01*
X59468373Y-100433862D01*
X59468140Y-100434483D01*
X59458669Y-100448970D01*
X59437182Y-100480844D01*
X59405937Y-100526789D01*
X59367193Y-100583485D01*
X59323207Y-100647617D01*
X59310681Y-100665842D01*
X59266016Y-100731914D01*
X59226712Y-100792200D01*
X59194912Y-100843235D01*
X59172755Y-100881560D01*
X59162383Y-100903711D01*
X59161881Y-100906432D01*
X59170595Y-100920736D01*
X59194675Y-100949072D01*
X59231024Y-100988396D01*
X59276547Y-101035661D01*
X59328148Y-101087823D01*
X59382733Y-101141835D01*
X59437206Y-101194653D01*
X59488471Y-101243231D01*
X59533433Y-101284523D01*
X59568996Y-101315485D01*
X59592065Y-101333070D01*
X59598446Y-101335941D01*
X59613301Y-101329178D01*
X59643714Y-101310939D01*
X59684732Y-101284297D01*
X59716291Y-101262852D01*
X59773475Y-101223503D01*
X59841194Y-101177171D01*
X59909120Y-101130913D01*
X59945639Y-101106155D01*
X60069248Y-101022547D01*
X60173009Y-101078650D01*
X60220280Y-101103228D01*
X60260477Y-101122331D01*
X60287674Y-101133227D01*
X60294598Y-101134743D01*
X60302923Y-101123549D01*
X60319346Y-101091917D01*
X60342643Y-101042765D01*
X60371586Y-100979010D01*
X60404950Y-100903571D01*
X60441509Y-100819364D01*
X60480036Y-100729308D01*
X60519306Y-100636321D01*
X60558092Y-100543320D01*
X60595170Y-100453223D01*
X60629311Y-100368948D01*
X60659292Y-100293413D01*
X60683884Y-100229534D01*
X60701864Y-100180231D01*
X60712003Y-100148421D01*
X60713634Y-100137496D01*
X60700709Y-100123561D01*
X60672411Y-100100940D01*
X60634654Y-100074333D01*
X60631485Y-100072228D01*
X60533900Y-99994114D01*
X60455214Y-99902982D01*
X60396109Y-99801745D01*
X60357268Y-99693318D01*
X60339372Y-99580614D01*
X60343103Y-99466548D01*
X60369143Y-99354034D01*
X60418175Y-99245985D01*
X60432600Y-99222345D01*
X60507631Y-99126887D01*
X60596270Y-99050232D01*
X60695451Y-98992780D01*
X60802105Y-98954929D01*
X60913164Y-98937078D01*
X61025561Y-98939625D01*
X61136227Y-98962970D01*
X61242094Y-99007510D01*
X61340095Y-99073645D01*
X61370410Y-99100487D01*
X61447562Y-99184512D01*
X61503782Y-99272966D01*
X61542347Y-99372115D01*
X61563826Y-99470303D01*
X61569128Y-99580697D01*
X61551448Y-99691640D01*
X61512581Y-99799381D01*
X61454323Y-99900169D01*
X61378469Y-99990256D01*
X61286817Y-100065892D01*
X61274772Y-100073864D01*
X61236611Y-100099974D01*
X61207601Y-100122595D01*
X61193732Y-100137039D01*
X61193531Y-100137496D01*
X61196508Y-100153121D01*
X61208311Y-100188582D01*
X61227714Y-100240962D01*
X61253488Y-100307345D01*
X61284409Y-100384814D01*
X61319249Y-100470450D01*
X61356783Y-100561337D01*
X61395783Y-100654559D01*
X61435023Y-100747197D01*
X61473276Y-100836335D01*
X61509317Y-100919055D01*
X61541917Y-100992441D01*
X61569852Y-101053575D01*
X61591895Y-101099541D01*
X61606818Y-101127421D01*
X61612828Y-101134743D01*
X61631191Y-101129041D01*
X61665552Y-101113749D01*
X61709984Y-101091599D01*
X61734417Y-101078650D01*
X61838178Y-101022547D01*
X61961787Y-101106155D01*
X62024886Y-101148987D01*
X62093970Y-101196122D01*
X62158707Y-101240503D01*
X62191134Y-101262852D01*
X62236741Y-101293477D01*
X62275360Y-101317747D01*
X62301952Y-101332587D01*
X62310590Y-101335724D01*
X62323161Y-101327261D01*
X62350984Y-101303636D01*
X62391361Y-101267302D01*
X62441595Y-101220711D01*
X62498988Y-101166317D01*
X62535286Y-101131392D01*
X62598790Y-101068996D01*
X62653673Y-101013188D01*
X62697714Y-100966354D01*
X62728695Y-100930882D01*
X62744398Y-100909161D01*
X62745905Y-100904752D01*
X62738914Y-100887985D01*
X62719594Y-100854082D01*
X62690091Y-100806476D01*
X62652545Y-100748599D01*
X62609100Y-100683884D01*
X62596745Y-100665842D01*
X62551727Y-100600267D01*
X62511340Y-100541228D01*
X62477840Y-100492042D01*
X62453486Y-100456028D01*
X62440536Y-100436502D01*
X62439285Y-100434483D01*
X62441156Y-100418922D01*
X62451087Y-100384709D01*
X62467347Y-100336355D01*
X62488205Y-100278371D01*
X62511927Y-100215270D01*
X62536784Y-100151563D01*
X62561042Y-100091761D01*
X62582971Y-100040376D01*
X62600838Y-100001919D01*
X62612913Y-99980902D01*
X62613771Y-99979894D01*
X62621154Y-99973888D01*
X62633625Y-99967948D01*
X62653920Y-99961460D01*
X62684778Y-99953809D01*
X62728934Y-99944380D01*
X62789126Y-99932559D01*
X62868093Y-99917729D01*
X62968570Y-99899277D01*
X62990325Y-99895310D01*
X63054802Y-99882853D01*
X63111011Y-99870666D01*
X63153987Y-99859926D01*
X63178760Y-99851809D01*
X63182082Y-99849916D01*
X63187556Y-99833138D01*
X63192006Y-99795645D01*
X63195428Y-99741794D01*
X63197819Y-99675944D01*
X63199177Y-99602453D01*
X63199499Y-99525680D01*
X63198781Y-99449983D01*
X63197021Y-99379720D01*
X63194216Y-99319250D01*
X63190362Y-99272930D01*
X63185457Y-99245119D01*
X63182500Y-99239427D01*
X63166037Y-99233686D01*
X63128551Y-99224345D01*
X63073775Y-99212215D01*
X63005445Y-99198107D01*
X62927294Y-99182830D01*
X62884716Y-99174823D01*
X62803929Y-99159721D01*
X62731887Y-99146040D01*
X62672111Y-99134467D01*
X62628121Y-99125687D01*
X62603439Y-99120387D01*
X62599377Y-99119212D01*
X62592511Y-99105965D01*
X62577998Y-99074057D01*
X62557771Y-99028047D01*
X62533766Y-98972492D01*
X62507918Y-98911953D01*
X62482160Y-98850986D01*
X62458427Y-98794151D01*
X62438654Y-98746006D01*
X62424776Y-98711110D01*
X62418726Y-98694021D01*
X62418614Y-98693274D01*
X62425472Y-98679793D01*
X62444698Y-98648770D01*
X62474272Y-98603289D01*
X62512173Y-98546432D01*
X62556380Y-98481283D01*
X62582079Y-98443862D01*
X62628907Y-98375247D01*
X62670499Y-98312952D01*
X62704825Y-98260129D01*
X62729857Y-98219927D01*
X62743565Y-98195500D01*
X62745544Y-98190024D01*
X62737034Y-98177278D01*
X62713507Y-98150063D01*
X62677968Y-98111428D01*
X62633423Y-98064423D01*
X62582877Y-98012095D01*
X62529336Y-97957495D01*
X62475805Y-97903670D01*
X62425289Y-97853670D01*
X62380794Y-97810543D01*
X62345325Y-97777339D01*
X62321887Y-97757106D01*
X62314046Y-97752278D01*
X62301280Y-97759067D01*
X62270744Y-97778142D01*
X62225410Y-97807561D01*
X62168244Y-97845381D01*
X62102216Y-97889661D01*
X62052410Y-97923395D01*
X61800764Y-98094512D01*
X61591001Y-98008041D01*
X61381237Y-97921570D01*
X61324389Y-97620018D01*
X61267540Y-97318466D01*
X60639885Y-97318466D01*
X60583036Y-97620018D01*
G37*
X60583036Y-97620018D02*
X60526188Y-97921570D01*
X60106662Y-98094512D01*
X59855016Y-97923395D01*
X59784542Y-97875750D01*
X59720837Y-97833210D01*
X59666874Y-97797715D01*
X59625627Y-97771210D01*
X59600066Y-97755636D01*
X59593105Y-97752278D01*
X59580565Y-97760914D01*
X59553769Y-97784792D01*
X59515720Y-97820859D01*
X59469421Y-97866067D01*
X59417877Y-97917364D01*
X59364091Y-97971701D01*
X59311065Y-98026028D01*
X59261805Y-98077295D01*
X59219313Y-98122451D01*
X59186593Y-98158446D01*
X59166649Y-98182230D01*
X59161881Y-98190190D01*
X59168743Y-98204865D01*
X59187980Y-98237014D01*
X59217570Y-98283492D01*
X59255490Y-98341156D01*
X59299718Y-98406860D01*
X59325346Y-98444336D01*
X59372059Y-98512768D01*
X59413568Y-98574520D01*
X59447860Y-98626519D01*
X59472920Y-98665692D01*
X59486736Y-98688965D01*
X59488812Y-98693855D01*
X59484105Y-98707755D01*
X59471277Y-98740150D01*
X59452262Y-98786485D01*
X59428997Y-98842206D01*
X59403416Y-98902758D01*
X59377455Y-98963586D01*
X59353050Y-99020136D01*
X59332137Y-99067852D01*
X59316651Y-99102181D01*
X59308528Y-99118568D01*
X59308048Y-99119212D01*
X59295293Y-99122341D01*
X59261323Y-99129321D01*
X59209660Y-99139467D01*
X59143824Y-99152092D01*
X59067336Y-99166509D01*
X59022710Y-99174823D01*
X58940979Y-99190384D01*
X58867157Y-99205192D01*
X58804979Y-99218436D01*
X58758178Y-99229305D01*
X58730491Y-99236989D01*
X58724926Y-99239427D01*
X58719474Y-99255930D01*
X58715076Y-99293200D01*
X58711728Y-99346880D01*
X58709426Y-99412612D01*
X58708168Y-99486037D01*
X58707952Y-99562796D01*
X58708773Y-99638532D01*
X58710629Y-99708886D01*
X58713518Y-99769500D01*
X58717435Y-99816016D01*
X58722378Y-99844075D01*
X58725343Y-99849916D01*
X58743066Y-99856917D01*
X58780619Y-99866927D01*
X58833036Y-99878769D01*
X58895348Y-99891267D01*
X58917100Y-99895310D01*
X59021976Y-99914520D01*
X59104820Y-99929991D01*
X59168370Y-99942337D01*
X59215363Y-99952173D01*
X59248537Y-99960114D01*
X59270629Y-99966776D01*
X59284376Y-99972773D01*
X59292516Y-99978719D01*
X59293655Y-99979894D01*
X59305023Y-99998826D01*
X59322365Y-100035669D01*
X59343950Y-100085913D01*
X59368046Y-100145046D01*
X59392921Y-100208556D01*
X59416843Y-100271932D01*
X59438081Y-100330662D01*
X59454903Y-100380235D01*
X59465578Y-100416139D01*
X59468373Y-100433862D01*
X59468140Y-100434483D01*
X59458669Y-100448970D01*
X59437182Y-100480844D01*
X59405937Y-100526789D01*
X59367193Y-100583485D01*
X59323207Y-100647617D01*
X59310681Y-100665842D01*
X59266016Y-100731914D01*
X59226712Y-100792200D01*
X59194912Y-100843235D01*
X59172755Y-100881560D01*
X59162383Y-100903711D01*
X59161881Y-100906432D01*
X59170595Y-100920736D01*
X59194675Y-100949072D01*
X59231024Y-100988396D01*
X59276547Y-101035661D01*
X59328148Y-101087823D01*
X59382733Y-101141835D01*
X59437206Y-101194653D01*
X59488471Y-101243231D01*
X59533433Y-101284523D01*
X59568996Y-101315485D01*
X59592065Y-101333070D01*
X59598446Y-101335941D01*
X59613301Y-101329178D01*
X59643714Y-101310939D01*
X59684732Y-101284297D01*
X59716291Y-101262852D01*
X59773475Y-101223503D01*
X59841194Y-101177171D01*
X59909120Y-101130913D01*
X59945639Y-101106155D01*
X60069248Y-101022547D01*
X60173009Y-101078650D01*
X60220280Y-101103228D01*
X60260477Y-101122331D01*
X60287674Y-101133227D01*
X60294598Y-101134743D01*
X60302923Y-101123549D01*
X60319346Y-101091917D01*
X60342643Y-101042765D01*
X60371586Y-100979010D01*
X60404950Y-100903571D01*
X60441509Y-100819364D01*
X60480036Y-100729308D01*
X60519306Y-100636321D01*
X60558092Y-100543320D01*
X60595170Y-100453223D01*
X60629311Y-100368948D01*
X60659292Y-100293413D01*
X60683884Y-100229534D01*
X60701864Y-100180231D01*
X60712003Y-100148421D01*
X60713634Y-100137496D01*
X60700709Y-100123561D01*
X60672411Y-100100940D01*
X60634654Y-100074333D01*
X60631485Y-100072228D01*
X60533900Y-99994114D01*
X60455214Y-99902982D01*
X60396109Y-99801745D01*
X60357268Y-99693318D01*
X60339372Y-99580614D01*
X60343103Y-99466548D01*
X60369143Y-99354034D01*
X60418175Y-99245985D01*
X60432600Y-99222345D01*
X60507631Y-99126887D01*
X60596270Y-99050232D01*
X60695451Y-98992780D01*
X60802105Y-98954929D01*
X60913164Y-98937078D01*
X61025561Y-98939625D01*
X61136227Y-98962970D01*
X61242094Y-99007510D01*
X61340095Y-99073645D01*
X61370410Y-99100487D01*
X61447562Y-99184512D01*
X61503782Y-99272966D01*
X61542347Y-99372115D01*
X61563826Y-99470303D01*
X61569128Y-99580697D01*
X61551448Y-99691640D01*
X61512581Y-99799381D01*
X61454323Y-99900169D01*
X61378469Y-99990256D01*
X61286817Y-100065892D01*
X61274772Y-100073864D01*
X61236611Y-100099974D01*
X61207601Y-100122595D01*
X61193732Y-100137039D01*
X61193531Y-100137496D01*
X61196508Y-100153121D01*
X61208311Y-100188582D01*
X61227714Y-100240962D01*
X61253488Y-100307345D01*
X61284409Y-100384814D01*
X61319249Y-100470450D01*
X61356783Y-100561337D01*
X61395783Y-100654559D01*
X61435023Y-100747197D01*
X61473276Y-100836335D01*
X61509317Y-100919055D01*
X61541917Y-100992441D01*
X61569852Y-101053575D01*
X61591895Y-101099541D01*
X61606818Y-101127421D01*
X61612828Y-101134743D01*
X61631191Y-101129041D01*
X61665552Y-101113749D01*
X61709984Y-101091599D01*
X61734417Y-101078650D01*
X61838178Y-101022547D01*
X61961787Y-101106155D01*
X62024886Y-101148987D01*
X62093970Y-101196122D01*
X62158707Y-101240503D01*
X62191134Y-101262852D01*
X62236741Y-101293477D01*
X62275360Y-101317747D01*
X62301952Y-101332587D01*
X62310590Y-101335724D01*
X62323161Y-101327261D01*
X62350984Y-101303636D01*
X62391361Y-101267302D01*
X62441595Y-101220711D01*
X62498988Y-101166317D01*
X62535286Y-101131392D01*
X62598790Y-101068996D01*
X62653673Y-101013188D01*
X62697714Y-100966354D01*
X62728695Y-100930882D01*
X62744398Y-100909161D01*
X62745905Y-100904752D01*
X62738914Y-100887985D01*
X62719594Y-100854082D01*
X62690091Y-100806476D01*
X62652545Y-100748599D01*
X62609100Y-100683884D01*
X62596745Y-100665842D01*
X62551727Y-100600267D01*
X62511340Y-100541228D01*
X62477840Y-100492042D01*
X62453486Y-100456028D01*
X62440536Y-100436502D01*
X62439285Y-100434483D01*
X62441156Y-100418922D01*
X62451087Y-100384709D01*
X62467347Y-100336355D01*
X62488205Y-100278371D01*
X62511927Y-100215270D01*
X62536784Y-100151563D01*
X62561042Y-100091761D01*
X62582971Y-100040376D01*
X62600838Y-100001919D01*
X62612913Y-99980902D01*
X62613771Y-99979894D01*
X62621154Y-99973888D01*
X62633625Y-99967948D01*
X62653920Y-99961460D01*
X62684778Y-99953809D01*
X62728934Y-99944380D01*
X62789126Y-99932559D01*
X62868093Y-99917729D01*
X62968570Y-99899277D01*
X62990325Y-99895310D01*
X63054802Y-99882853D01*
X63111011Y-99870666D01*
X63153987Y-99859926D01*
X63178760Y-99851809D01*
X63182082Y-99849916D01*
X63187556Y-99833138D01*
X63192006Y-99795645D01*
X63195428Y-99741794D01*
X63197819Y-99675944D01*
X63199177Y-99602453D01*
X63199499Y-99525680D01*
X63198781Y-99449983D01*
X63197021Y-99379720D01*
X63194216Y-99319250D01*
X63190362Y-99272930D01*
X63185457Y-99245119D01*
X63182500Y-99239427D01*
X63166037Y-99233686D01*
X63128551Y-99224345D01*
X63073775Y-99212215D01*
X63005445Y-99198107D01*
X62927294Y-99182830D01*
X62884716Y-99174823D01*
X62803929Y-99159721D01*
X62731887Y-99146040D01*
X62672111Y-99134467D01*
X62628121Y-99125687D01*
X62603439Y-99120387D01*
X62599377Y-99119212D01*
X62592511Y-99105965D01*
X62577998Y-99074057D01*
X62557771Y-99028047D01*
X62533766Y-98972492D01*
X62507918Y-98911953D01*
X62482160Y-98850986D01*
X62458427Y-98794151D01*
X62438654Y-98746006D01*
X62424776Y-98711110D01*
X62418726Y-98694021D01*
X62418614Y-98693274D01*
X62425472Y-98679793D01*
X62444698Y-98648770D01*
X62474272Y-98603289D01*
X62512173Y-98546432D01*
X62556380Y-98481283D01*
X62582079Y-98443862D01*
X62628907Y-98375247D01*
X62670499Y-98312952D01*
X62704825Y-98260129D01*
X62729857Y-98219927D01*
X62743565Y-98195500D01*
X62745544Y-98190024D01*
X62737034Y-98177278D01*
X62713507Y-98150063D01*
X62677968Y-98111428D01*
X62633423Y-98064423D01*
X62582877Y-98012095D01*
X62529336Y-97957495D01*
X62475805Y-97903670D01*
X62425289Y-97853670D01*
X62380794Y-97810543D01*
X62345325Y-97777339D01*
X62321887Y-97757106D01*
X62314046Y-97752278D01*
X62301280Y-97759067D01*
X62270744Y-97778142D01*
X62225410Y-97807561D01*
X62168244Y-97845381D01*
X62102216Y-97889661D01*
X62052410Y-97923395D01*
X61800764Y-98094512D01*
X61591001Y-98008041D01*
X61381237Y-97921570D01*
X61324389Y-97620018D01*
X61267540Y-97318466D01*
X60639885Y-97318466D01*
X60583036Y-97620018D01*
D14*
X38421000Y-61655000D02*
X39751000Y-61655000D01*
X38421000Y-60325000D02*
X38421000Y-61655000D01*
X38421000Y-59055000D02*
X41081000Y-59055000D01*
X41081000Y-59055000D02*
X41081000Y-53915000D01*
X38421000Y-59055000D02*
X38421000Y-53915000D01*
X38421000Y-53915000D02*
X41081000Y-53915000D01*
X40291936Y-105177000D02*
X41496064Y-105177000D01*
X40291936Y-103357000D02*
X41496064Y-103357000D01*
X101605000Y-73559000D02*
X101605000Y-75019000D01*
X104765000Y-73559000D02*
X104765000Y-76719000D01*
X104765000Y-73559000D02*
X103835000Y-73559000D01*
X101605000Y-73559000D02*
X102535000Y-73559000D01*
X101601000Y-62529000D02*
X101601000Y-69429000D01*
X104901000Y-62529000D02*
X104901000Y-69429000D01*
X101601000Y-62529000D02*
X104901000Y-62529000D01*
X46145000Y-72414000D02*
X47395000Y-72414000D01*
X46145000Y-73664000D02*
X46145000Y-72414000D01*
X51645000Y-82064000D02*
X51645000Y-77764000D01*
X48695000Y-82064000D02*
X51645000Y-82064000D01*
X48695000Y-82814000D02*
X48695000Y-82064000D01*
X51645000Y-73464000D02*
X51645000Y-77764000D01*
X48695000Y-73464000D02*
X51645000Y-73464000D01*
X48695000Y-72714000D02*
X48695000Y-73464000D01*
X46445000Y-82814000D02*
X46445000Y-81014000D01*
X47195000Y-82814000D02*
X46445000Y-82814000D01*
X47195000Y-81014000D02*
X47195000Y-82814000D01*
X46445000Y-81014000D02*
X47195000Y-81014000D01*
X46445000Y-74514000D02*
X46445000Y-72714000D01*
X47195000Y-74514000D02*
X46445000Y-74514000D01*
X47195000Y-72714000D02*
X47195000Y-74514000D01*
X46445000Y-72714000D02*
X47195000Y-72714000D01*
X46445000Y-79514000D02*
X46445000Y-76014000D01*
X47195000Y-79514000D02*
X46445000Y-79514000D01*
X47195000Y-76014000D02*
X47195000Y-79514000D01*
X46445000Y-76014000D02*
X47195000Y-76014000D01*
X46435000Y-82824000D02*
X46435000Y-72704000D01*
X52405000Y-82824000D02*
X46435000Y-82824000D01*
X52405000Y-72704000D02*
X52405000Y-82824000D01*
X46435000Y-72704000D02*
X52405000Y-72704000D01*
X46145000Y-83336000D02*
X47395000Y-83336000D01*
X46145000Y-84586000D02*
X46145000Y-83336000D01*
X51645000Y-92986000D02*
X51645000Y-88686000D01*
X48695000Y-92986000D02*
X51645000Y-92986000D01*
X48695000Y-93736000D02*
X48695000Y-92986000D01*
X51645000Y-84386000D02*
X51645000Y-88686000D01*
X48695000Y-84386000D02*
X51645000Y-84386000D01*
X48695000Y-83636000D02*
X48695000Y-84386000D01*
X46445000Y-93736000D02*
X46445000Y-91936000D01*
X47195000Y-93736000D02*
X46445000Y-93736000D01*
X47195000Y-91936000D02*
X47195000Y-93736000D01*
X46445000Y-91936000D02*
X47195000Y-91936000D01*
X46445000Y-85436000D02*
X46445000Y-83636000D01*
X47195000Y-85436000D02*
X46445000Y-85436000D01*
X47195000Y-83636000D02*
X47195000Y-85436000D01*
X46445000Y-83636000D02*
X47195000Y-83636000D01*
X46445000Y-90436000D02*
X46445000Y-86936000D01*
X47195000Y-90436000D02*
X46445000Y-90436000D01*
X47195000Y-86936000D02*
X47195000Y-90436000D01*
X46445000Y-86936000D02*
X47195000Y-86936000D01*
X46435000Y-93746000D02*
X46435000Y-83626000D01*
X52405000Y-93746000D02*
X46435000Y-93746000D01*
X52405000Y-83626000D02*
X52405000Y-93746000D01*
X46435000Y-83626000D02*
X52405000Y-83626000D01*
X117634936Y-59034000D02*
X118839064Y-59034000D01*
X117634936Y-60854000D02*
X118839064Y-60854000D01*
X38587000Y-124427064D02*
X38587000Y-123222936D01*
X40407000Y-124427064D02*
X40407000Y-123222936D01*
X38587000Y-113124064D02*
X38587000Y-111919936D01*
X40407000Y-113124064D02*
X40407000Y-111919936D01*
X41115064Y-87397000D02*
X39910936Y-87397000D01*
X41115064Y-85577000D02*
X39910936Y-85577000D01*
X43782064Y-85111000D02*
X42577936Y-85111000D01*
X43782064Y-83291000D02*
X42577936Y-83291000D01*
X41459564Y-107590000D02*
X40255436Y-107590000D01*
X41459564Y-105770000D02*
X40255436Y-105770000D01*
X104754000Y-102202064D02*
X104754000Y-100997936D01*
X106574000Y-102202064D02*
X106574000Y-100997936D01*
X116819000Y-102202064D02*
X116819000Y-100997936D01*
X118639000Y-102202064D02*
X118639000Y-100997936D01*
X101796436Y-77449000D02*
X103000564Y-77449000D01*
X101796436Y-79269000D02*
X103000564Y-79269000D01*
X45487000Y-87245436D02*
X45487000Y-88449564D01*
X43667000Y-87245436D02*
X43667000Y-88449564D01*
X43667000Y-80993064D02*
X43667000Y-79788936D01*
X45487000Y-80993064D02*
X45487000Y-79788936D01*
X51783064Y-71776000D02*
X50578936Y-71776000D01*
X51783064Y-69956000D02*
X50578936Y-69956000D01*
X40407000Y-90710936D02*
X40407000Y-91915064D01*
X38587000Y-90710936D02*
X38587000Y-91915064D01*
X84145000Y-73235000D02*
X84145000Y-71985000D01*
X85395000Y-73235000D02*
X84145000Y-73235000D01*
X98795000Y-67735000D02*
X91995000Y-67735000D01*
X98795000Y-70685000D02*
X98795000Y-67735000D01*
X99545000Y-70685000D02*
X98795000Y-70685000D01*
X91995000Y-67735000D02*
X86255000Y-67735000D01*
X85195000Y-70685000D02*
X85195000Y-69345000D01*
X84445000Y-70685000D02*
X85195000Y-70685000D01*
X99545000Y-72935000D02*
X97745000Y-72935000D01*
X99545000Y-72185000D02*
X99545000Y-72935000D01*
X97745000Y-72185000D02*
X99545000Y-72185000D01*
X97745000Y-72935000D02*
X97745000Y-72185000D01*
X86245000Y-72935000D02*
X84445000Y-72935000D01*
X86245000Y-72185000D02*
X86245000Y-72935000D01*
X84445000Y-72185000D02*
X86245000Y-72185000D01*
X84445000Y-72935000D02*
X84445000Y-72185000D01*
X96245000Y-72935000D02*
X87745000Y-72935000D01*
X96245000Y-72185000D02*
X96245000Y-72935000D01*
X87745000Y-72185000D02*
X96245000Y-72185000D01*
X87745000Y-72935000D02*
X87745000Y-72185000D01*
X99555000Y-72945000D02*
X84435000Y-72945000D01*
X99555000Y-66975000D02*
X99555000Y-72945000D01*
X84435000Y-66975000D02*
X99555000Y-66975000D01*
X84435000Y-72945000D02*
X84435000Y-66975000D01*
X81788000Y-108585000D02*
X81788000Y-114300000D01*
X119888000Y-108585000D02*
X81788000Y-108585000D01*
X119888000Y-120015000D02*
X119888000Y-108585000D01*
X81788000Y-120015000D02*
X119888000Y-120015000D01*
X81788000Y-114300000D02*
X81788000Y-120015000D01*
X76424000Y-101863000D02*
X76424000Y-110363000D01*
X115424000Y-101863000D02*
X76424000Y-101863000D01*
X115424000Y-118863000D02*
X115424000Y-101863000D01*
X76424000Y-118863000D02*
X115424000Y-118863000D01*
X76424000Y-110363000D02*
X76424000Y-118863000D01*
X53534000Y-123892000D02*
X53534000Y-125222000D01*
X54864000Y-123892000D02*
X53534000Y-123892000D01*
X56134000Y-123892000D02*
X56134000Y-126552000D01*
X56134000Y-126552000D02*
X58734000Y-126552000D01*
X56134000Y-123892000D02*
X58734000Y-123892000D01*
X58734000Y-123892000D02*
X58734000Y-126552000D01*
X120463000Y-123892000D02*
X120463000Y-125222000D01*
X121793000Y-123892000D02*
X120463000Y-123892000D01*
X123063000Y-123892000D02*
X123063000Y-126552000D01*
X123063000Y-126552000D02*
X125663000Y-126552000D01*
X123063000Y-123892000D02*
X125663000Y-123892000D01*
X125663000Y-123892000D02*
X125663000Y-126552000D01*
X52046000Y-117395000D02*
X52046000Y-112395000D01*
X34046000Y-117395000D02*
X52046000Y-117395000D01*
X34046000Y-107395000D02*
X34046000Y-117395000D01*
X52046000Y-107395000D02*
X34046000Y-107395000D01*
X52046000Y-112395000D02*
X52046000Y-107395000D01*
X43176000Y-64008000D02*
X42166000Y-64008000D01*
X43176000Y-69088000D02*
X43176000Y-64008000D01*
X42166000Y-69088000D02*
X43176000Y-69088000D01*
X42066000Y-62638000D02*
X42066000Y-70438000D01*
X48116000Y-62638000D02*
X42066000Y-62638000D01*
X48116000Y-70438000D02*
X48116000Y-62638000D01*
X42066000Y-70438000D02*
X48116000Y-70438000D01*
X35429000Y-64008000D02*
X34419000Y-64008000D01*
X35429000Y-69088000D02*
X35429000Y-64008000D01*
X34419000Y-69088000D02*
X35429000Y-69088000D01*
X34319000Y-62638000D02*
X34319000Y-70438000D01*
X40369000Y-62638000D02*
X34319000Y-62638000D01*
X40369000Y-70438000D02*
X40369000Y-62638000D01*
X34319000Y-70438000D02*
X40369000Y-70438000D01*
X50000000Y-55000000D02*
X110000000Y-55000000D01*
X110000000Y-58000000D02*
X110000000Y-37000000D01*
X110000000Y-37000000D02*
X50000000Y-37000000D01*
X50000000Y-37000000D02*
X50000000Y-58000000D01*
X110000000Y-50500000D02*
X110000000Y-53500000D01*
X110000000Y-57000000D02*
X50000000Y-57000000D01*
X50000000Y-58000000D02*
X110000000Y-58000000D01*
X110000000Y-56000000D02*
X50000000Y-56000000D01*
X50000000Y-44000000D02*
X110000000Y-44000000D01*
X50000000Y-43000000D02*
X110000000Y-43000000D01*
X110000000Y-52500000D02*
X118000000Y-52500000D01*
X118000000Y-48500000D02*
X110000000Y-48500000D01*
X50000000Y-48500000D02*
X42000000Y-48500000D01*
X42000000Y-52500000D02*
X50000000Y-52500000D01*
X50000000Y-45000000D02*
X110000000Y-45000000D01*
X50000000Y-46000000D02*
X110000000Y-46000000D01*
X34357000Y-61655000D02*
X35687000Y-61655000D01*
X34357000Y-60325000D02*
X34357000Y-61655000D01*
X34357000Y-59055000D02*
X37017000Y-59055000D01*
X37017000Y-59055000D02*
X37017000Y-53915000D01*
X34357000Y-59055000D02*
X34357000Y-53915000D01*
X34357000Y-53915000D02*
X37017000Y-53915000D01*
X66040000Y-106696000D02*
X61040000Y-106696000D01*
X61040000Y-106696000D02*
X56040000Y-111696000D01*
X56040000Y-111696000D02*
X56040000Y-121696000D01*
X56040000Y-121696000D02*
X61040000Y-126696000D01*
X61040000Y-126696000D02*
X71040000Y-126696000D01*
X71040000Y-126696000D02*
X76040000Y-121696000D01*
X76040000Y-121696000D02*
X76040000Y-111696000D01*
X76040000Y-111696000D02*
X71040000Y-106696000D01*
X71040000Y-106696000D02*
X66040000Y-106696000D01*
X125499000Y-56388000D02*
X125499000Y-54888000D01*
X125499000Y-54888000D02*
X112499000Y-54888000D01*
X112499000Y-54888000D02*
X112499000Y-71888000D01*
X112499000Y-71888000D02*
X125499000Y-71888000D01*
X125499000Y-71888000D02*
X125499000Y-56388000D01*
X124499000Y-69388000D02*
G75*
G03*
X124499000Y-69388000I-1500000J0D01*
G01*
X116499000Y-69388000D02*
G75*
G03*
X116499000Y-69388000I-1500000J0D01*
G01*
X63694000Y-67370000D02*
X65024000Y-67370000D01*
X63694000Y-66040000D02*
X63694000Y-67370000D01*
X63694000Y-64770000D02*
X66354000Y-64770000D01*
X66354000Y-64770000D02*
X66354000Y-62170000D01*
X63694000Y-64770000D02*
X63694000Y-62170000D01*
X63694000Y-62170000D02*
X66354000Y-62170000D01*
D12*
X41441476Y-53617761D02*
X41298619Y-53665380D01*
X41060523Y-53665380D01*
X40965285Y-53617761D01*
X40917666Y-53570142D01*
X40870047Y-53474904D01*
X40870047Y-53379666D01*
X40917666Y-53284428D01*
X40965285Y-53236809D01*
X41060523Y-53189190D01*
X41251000Y-53141571D01*
X41346238Y-53093952D01*
X41393857Y-53046333D01*
X41441476Y-52951095D01*
X41441476Y-52855857D01*
X41393857Y-52760619D01*
X41346238Y-52713000D01*
X41251000Y-52665380D01*
X41012904Y-52665380D01*
X40870047Y-52713000D01*
X39870047Y-53665380D02*
X40203380Y-53189190D01*
X40441476Y-53665380D02*
X40441476Y-52665380D01*
X40060523Y-52665380D01*
X39965285Y-52713000D01*
X39917666Y-52760619D01*
X39870047Y-52855857D01*
X39870047Y-52998714D01*
X39917666Y-53093952D01*
X39965285Y-53141571D01*
X40060523Y-53189190D01*
X40441476Y-53189190D01*
X39584333Y-52665380D02*
X39251000Y-53665380D01*
X38917666Y-52665380D01*
X38631952Y-52760619D02*
X38584333Y-52713000D01*
X38489095Y-52665380D01*
X38251000Y-52665380D01*
X38155761Y-52713000D01*
X38108142Y-52760619D01*
X38060523Y-52855857D01*
X38060523Y-52951095D01*
X38108142Y-53093952D01*
X38679571Y-53665380D01*
X38060523Y-53665380D01*
X37774476Y-104719380D02*
X38345904Y-104719380D01*
X38060190Y-104719380D02*
X38060190Y-103719380D01*
X38155428Y-103862238D01*
X38250666Y-103957476D01*
X38345904Y-104005095D01*
X37155428Y-103719380D02*
X37060190Y-103719380D01*
X36964952Y-103767000D01*
X36917333Y-103814619D01*
X36869714Y-103909857D01*
X36822095Y-104100333D01*
X36822095Y-104338428D01*
X36869714Y-104528904D01*
X36917333Y-104624142D01*
X36964952Y-104671761D01*
X37060190Y-104719380D01*
X37155428Y-104719380D01*
X37250666Y-104671761D01*
X37298285Y-104624142D01*
X37345904Y-104528904D01*
X37393523Y-104338428D01*
X37393523Y-104100333D01*
X37345904Y-103909857D01*
X37298285Y-103814619D01*
X37250666Y-103767000D01*
X37155428Y-103719380D01*
X36393523Y-104719380D02*
X36393523Y-103719380D01*
X35822095Y-104719380D02*
X36250666Y-104147952D01*
X35822095Y-103719380D02*
X36393523Y-104290809D01*
X109172142Y-76001571D02*
X109029285Y-76049190D01*
X108981666Y-76096809D01*
X108934047Y-76192047D01*
X108934047Y-76334904D01*
X108981666Y-76430142D01*
X109029285Y-76477761D01*
X109124523Y-76525380D01*
X109505476Y-76525380D01*
X109505476Y-75525380D01*
X109172142Y-75525380D01*
X109076904Y-75573000D01*
X109029285Y-75620619D01*
X108981666Y-75715857D01*
X108981666Y-75811095D01*
X109029285Y-75906333D01*
X109076904Y-75953952D01*
X109172142Y-76001571D01*
X109505476Y-76001571D01*
X107934047Y-76430142D02*
X107981666Y-76477761D01*
X108124523Y-76525380D01*
X108219761Y-76525380D01*
X108362619Y-76477761D01*
X108457857Y-76382523D01*
X108505476Y-76287285D01*
X108553095Y-76096809D01*
X108553095Y-75953952D01*
X108505476Y-75763476D01*
X108457857Y-75668238D01*
X108362619Y-75573000D01*
X108219761Y-75525380D01*
X108124523Y-75525380D01*
X107981666Y-75573000D01*
X107934047Y-75620619D01*
X107362619Y-75953952D02*
X107457857Y-75906333D01*
X107505476Y-75858714D01*
X107553095Y-75763476D01*
X107553095Y-75715857D01*
X107505476Y-75620619D01*
X107457857Y-75573000D01*
X107362619Y-75525380D01*
X107172142Y-75525380D01*
X107076904Y-75573000D01*
X107029285Y-75620619D01*
X106981666Y-75715857D01*
X106981666Y-75763476D01*
X107029285Y-75858714D01*
X107076904Y-75906333D01*
X107172142Y-75953952D01*
X107362619Y-75953952D01*
X107457857Y-76001571D01*
X107505476Y-76049190D01*
X107553095Y-76144428D01*
X107553095Y-76334904D01*
X107505476Y-76430142D01*
X107457857Y-76477761D01*
X107362619Y-76525380D01*
X107172142Y-76525380D01*
X107076904Y-76477761D01*
X107029285Y-76430142D01*
X106981666Y-76334904D01*
X106981666Y-76144428D01*
X107029285Y-76049190D01*
X107076904Y-76001571D01*
X107172142Y-75953952D01*
X106124523Y-75858714D02*
X106124523Y-76525380D01*
X106362619Y-75477761D02*
X106600714Y-76192047D01*
X105981666Y-76192047D01*
X105695952Y-75525380D02*
X105029285Y-75525380D01*
X105457857Y-76525380D01*
X106303380Y-64786142D02*
X106303380Y-64214714D01*
X106303380Y-64500428D02*
X105303380Y-64500428D01*
X105446238Y-64405190D01*
X105541476Y-64309952D01*
X105589095Y-64214714D01*
X106303380Y-65214714D02*
X105303380Y-65214714D01*
X106303380Y-65786142D01*
X105303380Y-65786142D01*
X105636714Y-66690904D02*
X106303380Y-66690904D01*
X105255761Y-66452809D02*
X105970047Y-66214714D01*
X105970047Y-66833761D01*
X106303380Y-67738523D02*
X106303380Y-67167095D01*
X106303380Y-67452809D02*
X105303380Y-67452809D01*
X105446238Y-67357571D01*
X105541476Y-67262333D01*
X105589095Y-67167095D01*
X105636714Y-68595666D02*
X106303380Y-68595666D01*
X105255761Y-68357571D02*
X105970047Y-68119476D01*
X105970047Y-68738523D01*
X105731952Y-69262333D02*
X105684333Y-69167095D01*
X105636714Y-69119476D01*
X105541476Y-69071857D01*
X105493857Y-69071857D01*
X105398619Y-69119476D01*
X105351000Y-69167095D01*
X105303380Y-69262333D01*
X105303380Y-69452809D01*
X105351000Y-69548047D01*
X105398619Y-69595666D01*
X105493857Y-69643285D01*
X105541476Y-69643285D01*
X105636714Y-69595666D01*
X105684333Y-69548047D01*
X105731952Y-69452809D01*
X105731952Y-69262333D01*
X105779571Y-69167095D01*
X105827190Y-69119476D01*
X105922428Y-69071857D01*
X106112904Y-69071857D01*
X106208142Y-69119476D01*
X106255761Y-69167095D01*
X106303380Y-69262333D01*
X106303380Y-69452809D01*
X106255761Y-69548047D01*
X106208142Y-69595666D01*
X106112904Y-69643285D01*
X105922428Y-69643285D01*
X105827190Y-69595666D01*
X105779571Y-69548047D01*
X105731952Y-69452809D01*
X53538380Y-76549714D02*
X53538380Y-75978285D01*
X53538380Y-76264000D02*
X52538380Y-76264000D01*
X52681238Y-76168761D01*
X52776476Y-76073523D01*
X52824095Y-75978285D01*
X52871714Y-76883047D02*
X53538380Y-77073523D01*
X53062190Y-77264000D01*
X53538380Y-77454476D01*
X52871714Y-77644952D01*
X53538380Y-78025904D02*
X52871714Y-78025904D01*
X52538380Y-78025904D02*
X52586000Y-77978285D01*
X52633619Y-78025904D01*
X52586000Y-78073523D01*
X52538380Y-78025904D01*
X52633619Y-78025904D01*
X53538380Y-78502095D02*
X52871714Y-78502095D01*
X53062190Y-78502095D02*
X52966952Y-78549714D01*
X52919333Y-78597333D01*
X52871714Y-78692571D01*
X52871714Y-78787809D01*
X53490761Y-79502095D02*
X53538380Y-79406857D01*
X53538380Y-79216380D01*
X53490761Y-79121142D01*
X53395523Y-79073523D01*
X53014571Y-79073523D01*
X52919333Y-79121142D01*
X52871714Y-79216380D01*
X52871714Y-79406857D01*
X52919333Y-79502095D01*
X53014571Y-79549714D01*
X53109809Y-79549714D01*
X53205047Y-79073523D01*
X53538380Y-87471714D02*
X53538380Y-86900285D01*
X53538380Y-87186000D02*
X52538380Y-87186000D01*
X52681238Y-87090761D01*
X52776476Y-86995523D01*
X52824095Y-86900285D01*
X52871714Y-87805047D02*
X53538380Y-87995523D01*
X53062190Y-88186000D01*
X53538380Y-88376476D01*
X52871714Y-88566952D01*
X53538380Y-88947904D02*
X52871714Y-88947904D01*
X52538380Y-88947904D02*
X52586000Y-88900285D01*
X52633619Y-88947904D01*
X52586000Y-88995523D01*
X52538380Y-88947904D01*
X52633619Y-88947904D01*
X53538380Y-89424095D02*
X52871714Y-89424095D01*
X53062190Y-89424095D02*
X52966952Y-89471714D01*
X52919333Y-89519333D01*
X52871714Y-89614571D01*
X52871714Y-89709809D01*
X53490761Y-90424095D02*
X53538380Y-90328857D01*
X53538380Y-90138380D01*
X53490761Y-90043142D01*
X53395523Y-89995523D01*
X53014571Y-89995523D01*
X52919333Y-90043142D01*
X52871714Y-90138380D01*
X52871714Y-90328857D01*
X52919333Y-90424095D01*
X53014571Y-90471714D01*
X53109809Y-90471714D01*
X53205047Y-89995523D01*
X115593666Y-59491619D02*
X115546047Y-59444000D01*
X115450809Y-59396380D01*
X115212714Y-59396380D01*
X115117476Y-59444000D01*
X115069857Y-59491619D01*
X115022238Y-59586857D01*
X115022238Y-59682095D01*
X115069857Y-59824952D01*
X115641285Y-60396380D01*
X115022238Y-60396380D01*
X114593666Y-60396380D02*
X114593666Y-59396380D01*
X114498428Y-60015428D02*
X114212714Y-60396380D01*
X114212714Y-59729714D02*
X114593666Y-60110666D01*
X113831761Y-59491619D02*
X113784142Y-59444000D01*
X113688904Y-59396380D01*
X113450809Y-59396380D01*
X113355571Y-59444000D01*
X113307952Y-59491619D01*
X113260333Y-59586857D01*
X113260333Y-59682095D01*
X113307952Y-59824952D01*
X113879380Y-60396380D01*
X113260333Y-60396380D01*
X39711285Y-121229380D02*
X40282714Y-121229380D01*
X39997000Y-121229380D02*
X39997000Y-120229380D01*
X40092238Y-120372238D01*
X40187476Y-120467476D01*
X40282714Y-120515095D01*
X39282714Y-121229380D02*
X39282714Y-120229380D01*
X38711285Y-121229380D02*
X39139857Y-120657952D01*
X38711285Y-120229380D02*
X39282714Y-120800809D01*
X40663666Y-109148619D02*
X40616047Y-109101000D01*
X40520809Y-109053380D01*
X40282714Y-109053380D01*
X40187476Y-109101000D01*
X40139857Y-109148619D01*
X40092238Y-109243857D01*
X40092238Y-109339095D01*
X40139857Y-109481952D01*
X40711285Y-110053380D01*
X40092238Y-110053380D01*
X39663666Y-110053380D02*
X39663666Y-109053380D01*
X39568428Y-109672428D02*
X39282714Y-110053380D01*
X39282714Y-109386714D02*
X39663666Y-109767666D01*
X38901761Y-109148619D02*
X38854142Y-109101000D01*
X38758904Y-109053380D01*
X38520809Y-109053380D01*
X38425571Y-109101000D01*
X38377952Y-109148619D01*
X38330333Y-109243857D01*
X38330333Y-109339095D01*
X38377952Y-109481952D01*
X38949380Y-110053380D01*
X38330333Y-110053380D01*
X40695476Y-87923714D02*
X40695476Y-88590380D01*
X40933571Y-87542761D02*
X41171666Y-88257047D01*
X40552619Y-88257047D01*
X40171666Y-88590380D02*
X40171666Y-87590380D01*
X40076428Y-88209428D02*
X39790714Y-88590380D01*
X39790714Y-87923714D02*
X40171666Y-88304666D01*
X39457380Y-87590380D02*
X38790714Y-87590380D01*
X39219285Y-88590380D01*
X40663666Y-83748619D02*
X40616047Y-83701000D01*
X40520809Y-83653380D01*
X40282714Y-83653380D01*
X40187476Y-83701000D01*
X40139857Y-83748619D01*
X40092238Y-83843857D01*
X40092238Y-83939095D01*
X40139857Y-84081952D01*
X40711285Y-84653380D01*
X40092238Y-84653380D01*
X39711285Y-83748619D02*
X39663666Y-83701000D01*
X39568428Y-83653380D01*
X39330333Y-83653380D01*
X39235095Y-83701000D01*
X39187476Y-83748619D01*
X39139857Y-83843857D01*
X39139857Y-83939095D01*
X39187476Y-84081952D01*
X39758904Y-84653380D01*
X39139857Y-84653380D01*
X38711285Y-84653380D02*
X38711285Y-83653380D01*
X38616047Y-84272428D02*
X38330333Y-84653380D01*
X38330333Y-83986714D02*
X38711285Y-84367666D01*
X37679285Y-107132380D02*
X38250714Y-107132380D01*
X37965000Y-107132380D02*
X37965000Y-106132380D01*
X38060238Y-106275238D01*
X38155476Y-106370476D01*
X38250714Y-106418095D01*
X37250714Y-107132380D02*
X37250714Y-106132380D01*
X36679285Y-107132380D02*
X37107857Y-106560952D01*
X36679285Y-106132380D02*
X37250714Y-106703809D01*
X108307095Y-101671380D02*
X108307095Y-100671380D01*
X107735666Y-101671380D02*
X108164238Y-101099952D01*
X107735666Y-100671380D02*
X108307095Y-101242809D01*
X106783285Y-101671380D02*
X107354714Y-101671380D01*
X107069000Y-101671380D02*
X107069000Y-100671380D01*
X107164238Y-100814238D01*
X107259476Y-100909476D01*
X107354714Y-100957095D01*
X120372095Y-102052380D02*
X120372095Y-101052380D01*
X119800666Y-102052380D02*
X120229238Y-101480952D01*
X119800666Y-101052380D02*
X120372095Y-101623809D01*
X118848285Y-102052380D02*
X119419714Y-102052380D01*
X119134000Y-102052380D02*
X119134000Y-101052380D01*
X119229238Y-101195238D01*
X119324476Y-101290476D01*
X119419714Y-101338095D01*
X102612785Y-80589380D02*
X103184214Y-80589380D01*
X102898500Y-80589380D02*
X102898500Y-79589380D01*
X102993738Y-79732238D01*
X103088976Y-79827476D01*
X103184214Y-79875095D01*
X102184214Y-80589380D02*
X102184214Y-79589380D01*
X101612785Y-80589380D02*
X102041357Y-80017952D01*
X101612785Y-79589380D02*
X102184214Y-80160809D01*
X42886285Y-88590380D02*
X43457714Y-88590380D01*
X43172000Y-88590380D02*
X43172000Y-87590380D01*
X43267238Y-87733238D01*
X43362476Y-87828476D01*
X43457714Y-87876095D01*
X42457714Y-88590380D02*
X42457714Y-87590380D01*
X41886285Y-88590380D02*
X42314857Y-88018952D01*
X41886285Y-87590380D02*
X42457714Y-88161809D01*
X42886285Y-82367380D02*
X43457714Y-82367380D01*
X43172000Y-82367380D02*
X43172000Y-81367380D01*
X43267238Y-81510238D01*
X43362476Y-81605476D01*
X43457714Y-81653095D01*
X42457714Y-82367380D02*
X42457714Y-81367380D01*
X41886285Y-82367380D02*
X42314857Y-81795952D01*
X41886285Y-81367380D02*
X42457714Y-81938809D01*
X54787785Y-71318380D02*
X55359214Y-71318380D01*
X55073500Y-71318380D02*
X55073500Y-70318380D01*
X55168738Y-70461238D01*
X55263976Y-70556476D01*
X55359214Y-70604095D01*
X54359214Y-71318380D02*
X54359214Y-70318380D01*
X53787785Y-71318380D02*
X54216357Y-70746952D01*
X53787785Y-70318380D02*
X54359214Y-70889809D01*
X37980904Y-89574714D02*
X37980904Y-90241380D01*
X38409476Y-89574714D02*
X38409476Y-90098523D01*
X38361857Y-90193761D01*
X38266619Y-90241380D01*
X38123761Y-90241380D01*
X38028523Y-90193761D01*
X37980904Y-90146142D01*
X36980904Y-90241380D02*
X37552333Y-90241380D01*
X37266619Y-90241380D02*
X37266619Y-89241380D01*
X37361857Y-89384238D01*
X37457095Y-89479476D01*
X37552333Y-89527095D01*
X86574190Y-66619380D02*
X86574190Y-65619380D01*
X86145619Y-65714619D02*
X86098000Y-65667000D01*
X86002761Y-65619380D01*
X85764666Y-65619380D01*
X85669428Y-65667000D01*
X85621809Y-65714619D01*
X85574190Y-65809857D01*
X85574190Y-65905095D01*
X85621809Y-66047952D01*
X86193238Y-66619380D01*
X85574190Y-66619380D01*
X84574190Y-66524142D02*
X84621809Y-66571761D01*
X84764666Y-66619380D01*
X84859904Y-66619380D01*
X85002761Y-66571761D01*
X85098000Y-66476523D01*
X85145619Y-66381285D01*
X85193238Y-66190809D01*
X85193238Y-66047952D01*
X85145619Y-65857476D01*
X85098000Y-65762238D01*
X85002761Y-65667000D01*
X84859904Y-65619380D01*
X84764666Y-65619380D01*
X84621809Y-65667000D01*
X84574190Y-65714619D01*
X99567000Y-118514761D02*
X99424142Y-118562380D01*
X99186047Y-118562380D01*
X99090809Y-118514761D01*
X99043190Y-118467142D01*
X98995571Y-118371904D01*
X98995571Y-118276666D01*
X99043190Y-118181428D01*
X99090809Y-118133809D01*
X99186047Y-118086190D01*
X99376523Y-118038571D01*
X99471761Y-117990952D01*
X99519380Y-117943333D01*
X99567000Y-117848095D01*
X99567000Y-117752857D01*
X99519380Y-117657619D01*
X99471761Y-117610000D01*
X99376523Y-117562380D01*
X99138428Y-117562380D01*
X98995571Y-117610000D01*
X98567000Y-118562380D02*
X98567000Y-117562380D01*
X97995571Y-118562380D01*
X97995571Y-117562380D01*
X97090809Y-117562380D02*
X97281285Y-117562380D01*
X97376523Y-117610000D01*
X97424142Y-117657619D01*
X97519380Y-117800476D01*
X97567000Y-117990952D01*
X97567000Y-118371904D01*
X97519380Y-118467142D01*
X97471761Y-118514761D01*
X97376523Y-118562380D01*
X97186047Y-118562380D01*
X97090809Y-118514761D01*
X97043190Y-118467142D01*
X96995571Y-118371904D01*
X96995571Y-118133809D01*
X97043190Y-118038571D01*
X97090809Y-117990952D01*
X97186047Y-117943333D01*
X97376523Y-117943333D01*
X97471761Y-117990952D01*
X97519380Y-118038571D01*
X97567000Y-118133809D01*
X96090809Y-117562380D02*
X96567000Y-117562380D01*
X96614619Y-118038571D01*
X96567000Y-117990952D01*
X96471761Y-117943333D01*
X96233666Y-117943333D01*
X96138428Y-117990952D01*
X96090809Y-118038571D01*
X96043190Y-118133809D01*
X96043190Y-118371904D01*
X96090809Y-118467142D01*
X96138428Y-118514761D01*
X96233666Y-118562380D01*
X96471761Y-118562380D01*
X96567000Y-118514761D01*
X96614619Y-118467142D01*
X95614619Y-118562380D02*
X95614619Y-117562380D01*
X95614619Y-118038571D02*
X95043190Y-118038571D01*
X95043190Y-118562380D02*
X95043190Y-117562380D01*
X94709857Y-117562380D02*
X94376523Y-118562380D01*
X94043190Y-117562380D01*
X93709857Y-118562380D02*
X93709857Y-117562380D01*
X93471761Y-117562380D01*
X93328904Y-117610000D01*
X93233666Y-117705238D01*
X93186047Y-117800476D01*
X93138428Y-117990952D01*
X93138428Y-118133809D01*
X93186047Y-118324285D01*
X93233666Y-118419523D01*
X93328904Y-118514761D01*
X93471761Y-118562380D01*
X93709857Y-118562380D01*
X92757476Y-117657619D02*
X92709857Y-117610000D01*
X92614619Y-117562380D01*
X92376523Y-117562380D01*
X92281285Y-117610000D01*
X92233666Y-117657619D01*
X92186047Y-117752857D01*
X92186047Y-117848095D01*
X92233666Y-117990952D01*
X92805095Y-118562380D01*
X92186047Y-118562380D01*
X91852714Y-117562380D02*
X91233666Y-117562380D01*
X91567000Y-117943333D01*
X91424142Y-117943333D01*
X91328904Y-117990952D01*
X91281285Y-118038571D01*
X91233666Y-118133809D01*
X91233666Y-118371904D01*
X91281285Y-118467142D01*
X91328904Y-118514761D01*
X91424142Y-118562380D01*
X91709857Y-118562380D01*
X91805095Y-118514761D01*
X91852714Y-118467142D01*
X90614619Y-117562380D02*
X90519380Y-117562380D01*
X90424142Y-117610000D01*
X90376523Y-117657619D01*
X90328904Y-117752857D01*
X90281285Y-117943333D01*
X90281285Y-118181428D01*
X90328904Y-118371904D01*
X90376523Y-118467142D01*
X90424142Y-118514761D01*
X90519380Y-118562380D01*
X90614619Y-118562380D01*
X90709857Y-118514761D01*
X90757476Y-118467142D01*
X90805095Y-118371904D01*
X90852714Y-118181428D01*
X90852714Y-117943333D01*
X90805095Y-117752857D01*
X90757476Y-117657619D01*
X90709857Y-117610000D01*
X90614619Y-117562380D01*
X90090809Y-118657619D02*
X89328904Y-118657619D01*
X89090809Y-118562380D02*
X89090809Y-117562380D01*
X88757476Y-118276666D01*
X88424142Y-117562380D01*
X88424142Y-118562380D01*
X87757476Y-117562380D02*
X87567000Y-117562380D01*
X87471761Y-117610000D01*
X87376523Y-117705238D01*
X87328904Y-117895714D01*
X87328904Y-118229047D01*
X87376523Y-118419523D01*
X87471761Y-118514761D01*
X87567000Y-118562380D01*
X87757476Y-118562380D01*
X87852714Y-118514761D01*
X87947952Y-118419523D01*
X87995571Y-118229047D01*
X87995571Y-117895714D01*
X87947952Y-117705238D01*
X87852714Y-117610000D01*
X87757476Y-117562380D01*
X86900333Y-118562380D02*
X86900333Y-117562380D01*
X86662238Y-117562380D01*
X86519380Y-117610000D01*
X86424142Y-117705238D01*
X86376523Y-117800476D01*
X86328904Y-117990952D01*
X86328904Y-118133809D01*
X86376523Y-118324285D01*
X86424142Y-118419523D01*
X86519380Y-118514761D01*
X86662238Y-118562380D01*
X86900333Y-118562380D01*
X85900333Y-117562380D02*
X85900333Y-118371904D01*
X85852714Y-118467142D01*
X85805095Y-118514761D01*
X85709857Y-118562380D01*
X85519380Y-118562380D01*
X85424142Y-118514761D01*
X85376523Y-118467142D01*
X85328904Y-118371904D01*
X85328904Y-117562380D01*
X84376523Y-118562380D02*
X84852714Y-118562380D01*
X84852714Y-117562380D01*
X84043190Y-118038571D02*
X83709857Y-118038571D01*
X83567000Y-118562380D02*
X84043190Y-118562380D01*
X84043190Y-117562380D01*
X83567000Y-117562380D01*
X103655000Y-103068380D02*
X103655000Y-102068380D01*
X103321666Y-102782666D01*
X102988333Y-102068380D01*
X102988333Y-103068380D01*
X102559761Y-102782666D02*
X102083571Y-102782666D01*
X102655000Y-103068380D02*
X102321666Y-102068380D01*
X101988333Y-103068380D01*
X101750238Y-102068380D02*
X101083571Y-103068380D01*
X101083571Y-102068380D02*
X101750238Y-103068380D01*
X100797857Y-102068380D02*
X100178809Y-102068380D01*
X100512142Y-102449333D01*
X100369285Y-102449333D01*
X100274047Y-102496952D01*
X100226428Y-102544571D01*
X100178809Y-102639809D01*
X100178809Y-102877904D01*
X100226428Y-102973142D01*
X100274047Y-103020761D01*
X100369285Y-103068380D01*
X100655000Y-103068380D01*
X100750238Y-103020761D01*
X100797857Y-102973142D01*
X99321666Y-102401714D02*
X99321666Y-103068380D01*
X99559761Y-102020761D02*
X99797857Y-102735047D01*
X99178809Y-102735047D01*
X98655000Y-102496952D02*
X98750238Y-102449333D01*
X98797857Y-102401714D01*
X98845476Y-102306476D01*
X98845476Y-102258857D01*
X98797857Y-102163619D01*
X98750238Y-102116000D01*
X98655000Y-102068380D01*
X98464523Y-102068380D01*
X98369285Y-102116000D01*
X98321666Y-102163619D01*
X98274047Y-102258857D01*
X98274047Y-102306476D01*
X98321666Y-102401714D01*
X98369285Y-102449333D01*
X98464523Y-102496952D01*
X98655000Y-102496952D01*
X98750238Y-102544571D01*
X98797857Y-102592190D01*
X98845476Y-102687428D01*
X98845476Y-102877904D01*
X98797857Y-102973142D01*
X98750238Y-103020761D01*
X98655000Y-103068380D01*
X98464523Y-103068380D01*
X98369285Y-103020761D01*
X98321666Y-102973142D01*
X98274047Y-102877904D01*
X98274047Y-102687428D01*
X98321666Y-102592190D01*
X98369285Y-102544571D01*
X98464523Y-102496952D01*
X97369285Y-102068380D02*
X97845476Y-102068380D01*
X97893095Y-102544571D01*
X97845476Y-102496952D01*
X97750238Y-102449333D01*
X97512142Y-102449333D01*
X97416904Y-102496952D01*
X97369285Y-102544571D01*
X97321666Y-102639809D01*
X97321666Y-102877904D01*
X97369285Y-102973142D01*
X97416904Y-103020761D01*
X97512142Y-103068380D01*
X97750238Y-103068380D01*
X97845476Y-103020761D01*
X97893095Y-102973142D01*
X97131190Y-103163619D02*
X96369285Y-103163619D01*
X96131190Y-103068380D02*
X96131190Y-102068380D01*
X95797857Y-102782666D01*
X95464523Y-102068380D01*
X95464523Y-103068380D01*
X94797857Y-102068380D02*
X94607380Y-102068380D01*
X94512142Y-102116000D01*
X94416904Y-102211238D01*
X94369285Y-102401714D01*
X94369285Y-102735047D01*
X94416904Y-102925523D01*
X94512142Y-103020761D01*
X94607380Y-103068380D01*
X94797857Y-103068380D01*
X94893095Y-103020761D01*
X94988333Y-102925523D01*
X95035952Y-102735047D01*
X95035952Y-102401714D01*
X94988333Y-102211238D01*
X94893095Y-102116000D01*
X94797857Y-102068380D01*
X93940714Y-103068380D02*
X93940714Y-102068380D01*
X93702619Y-102068380D01*
X93559761Y-102116000D01*
X93464523Y-102211238D01*
X93416904Y-102306476D01*
X93369285Y-102496952D01*
X93369285Y-102639809D01*
X93416904Y-102830285D01*
X93464523Y-102925523D01*
X93559761Y-103020761D01*
X93702619Y-103068380D01*
X93940714Y-103068380D01*
X92940714Y-102068380D02*
X92940714Y-102877904D01*
X92893095Y-102973142D01*
X92845476Y-103020761D01*
X92750238Y-103068380D01*
X92559761Y-103068380D01*
X92464523Y-103020761D01*
X92416904Y-102973142D01*
X92369285Y-102877904D01*
X92369285Y-102068380D01*
X91416904Y-103068380D02*
X91893095Y-103068380D01*
X91893095Y-102068380D01*
X91083571Y-102544571D02*
X90750238Y-102544571D01*
X90607380Y-103068380D02*
X91083571Y-103068380D01*
X91083571Y-102068380D01*
X90607380Y-102068380D01*
X40703142Y-117165380D02*
X41179333Y-117165380D01*
X41179333Y-116165380D01*
X40369809Y-117165380D02*
X40369809Y-116165380D01*
X40131714Y-116165380D01*
X39988857Y-116213000D01*
X39893619Y-116308238D01*
X39846000Y-116403476D01*
X39798380Y-116593952D01*
X39798380Y-116736809D01*
X39846000Y-116927285D01*
X39893619Y-117022523D01*
X39988857Y-117117761D01*
X40131714Y-117165380D01*
X40369809Y-117165380D01*
X39179333Y-116165380D02*
X39084095Y-116165380D01*
X38988857Y-116213000D01*
X38941238Y-116260619D01*
X38893619Y-116355857D01*
X38846000Y-116546333D01*
X38846000Y-116784428D01*
X38893619Y-116974904D01*
X38941238Y-117070142D01*
X38988857Y-117117761D01*
X39084095Y-117165380D01*
X39179333Y-117165380D01*
X39274571Y-117117761D01*
X39322190Y-117070142D01*
X39369809Y-116974904D01*
X39417428Y-116784428D01*
X39417428Y-116546333D01*
X39369809Y-116355857D01*
X39322190Y-116260619D01*
X39274571Y-116213000D01*
X39179333Y-116165380D01*
X37988857Y-116165380D02*
X38179333Y-116165380D01*
X38274571Y-116213000D01*
X38322190Y-116260619D01*
X38417428Y-116403476D01*
X38465047Y-116593952D01*
X38465047Y-116974904D01*
X38417428Y-117070142D01*
X38369809Y-117117761D01*
X38274571Y-117165380D01*
X38084095Y-117165380D01*
X37988857Y-117117761D01*
X37941238Y-117070142D01*
X37893619Y-116974904D01*
X37893619Y-116736809D01*
X37941238Y-116641571D01*
X37988857Y-116593952D01*
X38084095Y-116546333D01*
X38274571Y-116546333D01*
X38369809Y-116593952D01*
X38417428Y-116641571D01*
X38465047Y-116736809D01*
X37512666Y-116879666D02*
X37036476Y-116879666D01*
X37607904Y-117165380D02*
X37274571Y-116165380D01*
X36941238Y-117165380D01*
X36322190Y-116165380D02*
X36322190Y-116879666D01*
X36369809Y-117022523D01*
X36465047Y-117117761D01*
X36607904Y-117165380D01*
X36703142Y-117165380D01*
X35893619Y-117117761D02*
X35750761Y-117165380D01*
X35512666Y-117165380D01*
X35417428Y-117117761D01*
X35369809Y-117070142D01*
X35322190Y-116974904D01*
X35322190Y-116879666D01*
X35369809Y-116784428D01*
X35417428Y-116736809D01*
X35512666Y-116689190D01*
X35703142Y-116641571D01*
X35798380Y-116593952D01*
X35846000Y-116546333D01*
X35893619Y-116451095D01*
X35893619Y-116355857D01*
X35846000Y-116260619D01*
X35798380Y-116213000D01*
X35703142Y-116165380D01*
X35465047Y-116165380D01*
X35322190Y-116213000D01*
X34941238Y-116879666D02*
X34465047Y-116879666D01*
X35036476Y-117165380D02*
X34703142Y-116165380D01*
X34369809Y-117165380D01*
X46751714Y-71175571D02*
X47085047Y-71175571D01*
X47085047Y-71699380D02*
X47085047Y-70699380D01*
X46608857Y-70699380D01*
X46275523Y-71413666D02*
X45799333Y-71413666D01*
X46370761Y-71699380D02*
X46037428Y-70699380D01*
X45704095Y-71699380D01*
X45370761Y-71699380D02*
X45370761Y-70699380D01*
X44799333Y-71699380D01*
X44799333Y-70699380D01*
X43799333Y-71699380D02*
X44370761Y-71699380D01*
X44085047Y-71699380D02*
X44085047Y-70699380D01*
X44180285Y-70842238D01*
X44275523Y-70937476D01*
X44370761Y-70985095D01*
X39004714Y-71175571D02*
X39338047Y-71175571D01*
X39338047Y-71699380D02*
X39338047Y-70699380D01*
X38861857Y-70699380D01*
X38528523Y-71413666D02*
X38052333Y-71413666D01*
X38623761Y-71699380D02*
X38290428Y-70699380D01*
X37957095Y-71699380D01*
X37623761Y-71699380D02*
X37623761Y-70699380D01*
X37052333Y-71699380D01*
X37052333Y-70699380D01*
X36671380Y-70699380D02*
X36052333Y-70699380D01*
X36385666Y-71080333D01*
X36242809Y-71080333D01*
X36147571Y-71127952D01*
X36099952Y-71175571D01*
X36052333Y-71270809D01*
X36052333Y-71508904D01*
X36099952Y-71604142D01*
X36147571Y-71651761D01*
X36242809Y-71699380D01*
X36528523Y-71699380D01*
X36623761Y-71651761D01*
X36671380Y-71604142D01*
X109798952Y-53903619D02*
X109751333Y-53856000D01*
X109656095Y-53808380D01*
X109418000Y-53808380D01*
X109322761Y-53856000D01*
X109275142Y-53903619D01*
X109227523Y-53998857D01*
X109227523Y-54094095D01*
X109275142Y-54236952D01*
X109846571Y-54808380D01*
X109227523Y-54808380D01*
X108846571Y-53903619D02*
X108798952Y-53856000D01*
X108703714Y-53808380D01*
X108465619Y-53808380D01*
X108370380Y-53856000D01*
X108322761Y-53903619D01*
X108275142Y-53998857D01*
X108275142Y-54094095D01*
X108322761Y-54236952D01*
X108894190Y-54808380D01*
X108275142Y-54808380D01*
X107275142Y-54808380D02*
X107608476Y-54332190D01*
X107846571Y-54808380D02*
X107846571Y-53808380D01*
X107465619Y-53808380D01*
X107370380Y-53856000D01*
X107322761Y-53903619D01*
X107275142Y-53998857D01*
X107275142Y-54141714D01*
X107322761Y-54236952D01*
X107370380Y-54284571D01*
X107465619Y-54332190D01*
X107846571Y-54332190D01*
X106798952Y-54760761D02*
X106798952Y-54808380D01*
X106846571Y-54903619D01*
X106894190Y-54951238D01*
X105084666Y-54808380D02*
X105656095Y-54808380D01*
X105370380Y-54808380D02*
X105370380Y-53808380D01*
X105465619Y-53951238D01*
X105560857Y-54046476D01*
X105656095Y-54094095D01*
X104465619Y-53808380D02*
X104370380Y-53808380D01*
X104275142Y-53856000D01*
X104227523Y-53903619D01*
X104179904Y-53998857D01*
X104132285Y-54189333D01*
X104132285Y-54427428D01*
X104179904Y-54617904D01*
X104227523Y-54713142D01*
X104275142Y-54760761D01*
X104370380Y-54808380D01*
X104465619Y-54808380D01*
X104560857Y-54760761D01*
X104608476Y-54713142D01*
X104656095Y-54617904D01*
X104703714Y-54427428D01*
X104703714Y-54189333D01*
X104656095Y-53998857D01*
X104608476Y-53903619D01*
X104560857Y-53856000D01*
X104465619Y-53808380D01*
X103513238Y-53808380D02*
X103418000Y-53808380D01*
X103322761Y-53856000D01*
X103275142Y-53903619D01*
X103227523Y-53998857D01*
X103179904Y-54189333D01*
X103179904Y-54427428D01*
X103227523Y-54617904D01*
X103275142Y-54713142D01*
X103322761Y-54760761D01*
X103418000Y-54808380D01*
X103513238Y-54808380D01*
X103608476Y-54760761D01*
X103656095Y-54713142D01*
X103703714Y-54617904D01*
X103751333Y-54427428D01*
X103751333Y-54189333D01*
X103703714Y-53998857D01*
X103656095Y-53903619D01*
X103608476Y-53856000D01*
X103513238Y-53808380D01*
X102846571Y-53808380D02*
X102608476Y-54808380D01*
X102418000Y-54094095D01*
X102227523Y-54808380D01*
X101989428Y-53808380D01*
X37377476Y-53617761D02*
X37234619Y-53665380D01*
X36996523Y-53665380D01*
X36901285Y-53617761D01*
X36853666Y-53570142D01*
X36806047Y-53474904D01*
X36806047Y-53379666D01*
X36853666Y-53284428D01*
X36901285Y-53236809D01*
X36996523Y-53189190D01*
X37187000Y-53141571D01*
X37282238Y-53093952D01*
X37329857Y-53046333D01*
X37377476Y-52951095D01*
X37377476Y-52855857D01*
X37329857Y-52760619D01*
X37282238Y-52713000D01*
X37187000Y-52665380D01*
X36948904Y-52665380D01*
X36806047Y-52713000D01*
X35806047Y-53665380D02*
X36139380Y-53189190D01*
X36377476Y-53665380D02*
X36377476Y-52665380D01*
X35996523Y-52665380D01*
X35901285Y-52713000D01*
X35853666Y-52760619D01*
X35806047Y-52855857D01*
X35806047Y-52998714D01*
X35853666Y-53093952D01*
X35901285Y-53141571D01*
X35996523Y-53189190D01*
X36377476Y-53189190D01*
X35520333Y-52665380D02*
X35187000Y-53665380D01*
X34853666Y-52665380D01*
X33996523Y-53665380D02*
X34567952Y-53665380D01*
X34282238Y-53665380D02*
X34282238Y-52665380D01*
X34377476Y-52808238D01*
X34472714Y-52903476D01*
X34567952Y-52951095D01*
X70087619Y-106370380D02*
X70087619Y-105370380D01*
X69706666Y-105370380D01*
X69611428Y-105418000D01*
X69563809Y-105465619D01*
X69516190Y-105560857D01*
X69516190Y-105703714D01*
X69563809Y-105798952D01*
X69611428Y-105846571D01*
X69706666Y-105894190D01*
X70087619Y-105894190D01*
X68897142Y-105370380D02*
X68706666Y-105370380D01*
X68611428Y-105418000D01*
X68516190Y-105513238D01*
X68468571Y-105703714D01*
X68468571Y-106037047D01*
X68516190Y-106227523D01*
X68611428Y-106322761D01*
X68706666Y-106370380D01*
X68897142Y-106370380D01*
X68992380Y-106322761D01*
X69087619Y-106227523D01*
X69135238Y-106037047D01*
X69135238Y-105703714D01*
X69087619Y-105513238D01*
X68992380Y-105418000D01*
X68897142Y-105370380D01*
X68135238Y-105370380D02*
X67897142Y-106370380D01*
X67706666Y-105656095D01*
X67516190Y-106370380D01*
X67278095Y-105370380D01*
X66897142Y-105846571D02*
X66563809Y-105846571D01*
X66420952Y-106370380D02*
X66897142Y-106370380D01*
X66897142Y-105370380D01*
X66420952Y-105370380D01*
X65420952Y-106370380D02*
X65754285Y-105894190D01*
X65992380Y-106370380D02*
X65992380Y-105370380D01*
X65611428Y-105370380D01*
X65516190Y-105418000D01*
X65468571Y-105465619D01*
X65420952Y-105560857D01*
X65420952Y-105703714D01*
X65468571Y-105798952D01*
X65516190Y-105846571D01*
X65611428Y-105894190D01*
X65992380Y-105894190D01*
X65230476Y-106465619D02*
X64468571Y-106465619D01*
X63754285Y-106370380D02*
X64230476Y-106370380D01*
X64230476Y-105370380D01*
X63420952Y-105846571D02*
X63087619Y-105846571D01*
X62944761Y-106370380D02*
X63420952Y-106370380D01*
X63420952Y-105370380D01*
X62944761Y-105370380D01*
X62516190Y-106370380D02*
X62516190Y-105370380D01*
X62278095Y-105370380D01*
X62135238Y-105418000D01*
X62040000Y-105513238D01*
X61992380Y-105608476D01*
X61944761Y-105798952D01*
X61944761Y-105941809D01*
X61992380Y-106132285D01*
X62040000Y-106227523D01*
X62135238Y-106322761D01*
X62278095Y-106370380D01*
X62516190Y-106370380D01*
X112784000Y-64943023D02*
X112736380Y-64847785D01*
X112736380Y-64704928D01*
X112784000Y-64562071D01*
X112879238Y-64466833D01*
X112974476Y-64419214D01*
X113164952Y-64371595D01*
X113307809Y-64371595D01*
X113498285Y-64419214D01*
X113593523Y-64466833D01*
X113688761Y-64562071D01*
X113736380Y-64704928D01*
X113736380Y-64800166D01*
X113688761Y-64943023D01*
X113641142Y-64990642D01*
X113307809Y-64990642D01*
X113307809Y-64800166D01*
X113260190Y-65609690D02*
X113736380Y-65609690D01*
X112736380Y-65276357D02*
X113260190Y-65609690D01*
X112736380Y-65943023D01*
X113355428Y-66276357D02*
X113355428Y-67038261D01*
X112736380Y-67419214D02*
X112736380Y-68038261D01*
X113117333Y-67704928D01*
X113117333Y-67847785D01*
X113164952Y-67943023D01*
X113212571Y-67990642D01*
X113307809Y-68038261D01*
X113545904Y-68038261D01*
X113641142Y-67990642D01*
X113688761Y-67943023D01*
X113736380Y-67847785D01*
X113736380Y-67562071D01*
X113688761Y-67466833D01*
X113641142Y-67419214D01*
X112736380Y-68657309D02*
X112736380Y-68752547D01*
X112784000Y-68847785D01*
X112831619Y-68895404D01*
X112926857Y-68943023D01*
X113117333Y-68990642D01*
X113355428Y-68990642D01*
X113545904Y-68943023D01*
X113641142Y-68895404D01*
X113688761Y-68847785D01*
X113736380Y-68752547D01*
X113736380Y-68657309D01*
X113688761Y-68562071D01*
X113641142Y-68514452D01*
X113545904Y-68466833D01*
X113355428Y-68419214D01*
X113117333Y-68419214D01*
X112926857Y-68466833D01*
X112831619Y-68514452D01*
X112784000Y-68562071D01*
X112736380Y-68657309D01*
X112831619Y-69371595D02*
X112784000Y-69419214D01*
X112736380Y-69514452D01*
X112736380Y-69752547D01*
X112784000Y-69847785D01*
X112831619Y-69895404D01*
X112926857Y-69943023D01*
X113022095Y-69943023D01*
X113164952Y-69895404D01*
X113736380Y-69323976D01*
X113736380Y-69943023D01*
X66904952Y-67651380D02*
X67381142Y-67651380D01*
X67428761Y-68127571D01*
X67381142Y-68079952D01*
X67285904Y-68032333D01*
X67047809Y-68032333D01*
X66952571Y-68079952D01*
X66904952Y-68127571D01*
X66857333Y-68222809D01*
X66857333Y-68460904D01*
X66904952Y-68556142D01*
X66952571Y-68603761D01*
X67047809Y-68651380D01*
X67285904Y-68651380D01*
X67381142Y-68603761D01*
X67428761Y-68556142D01*
X66571619Y-67651380D02*
X66238285Y-68651380D01*
X65904952Y-67651380D01*
X65809714Y-68746619D02*
X65047809Y-68746619D01*
X64809714Y-68127571D02*
X64476380Y-68127571D01*
X64333523Y-68651380D02*
X64809714Y-68651380D01*
X64809714Y-67651380D01*
X64333523Y-67651380D01*
X64000190Y-67651380D02*
X63333523Y-68651380D01*
X63333523Y-67651380D02*
X64000190Y-68651380D01*
X63095428Y-67651380D02*
X62524000Y-67651380D01*
X62809714Y-68651380D02*
X62809714Y-67651380D01*
M02*
