G04 #@! TF.GenerationSoftware,KiCad,Pcbnew,(5.1.5)-3*
G04 #@! TF.CreationDate,2020-06-21T14:06:44+02:00*
G04 #@! TF.ProjectId,labAThome,6c616241-5468-46f6-9d65-2e6b69636164,rev?*
G04 #@! TF.SameCoordinates,Original*
G04 #@! TF.FileFunction,Legend,Bot*
G04 #@! TF.FilePolarity,Positive*
%FSLAX46Y46*%
G04 Gerber Fmt 4.6, Leading zero omitted, Abs format (unit mm)*
G04 Created by KiCad (PCBNEW (5.1.5)-3) date 2020-06-21 14:06:44*
%MOMM*%
%LPD*%
G04 APERTURE LIST*
%ADD10C,0.150000*%
%ADD11C,0.300000*%
%ADD12C,0.500000*%
%ADD13C,0.120000*%
G04 APERTURE END LIST*
D10*
X42291095Y-34813857D02*
X43814904Y-34813857D01*
X43053000Y-35575761D02*
X43053000Y-34051952D01*
D11*
X49236142Y-35370047D02*
X49236142Y-34227190D01*
X49236142Y-34798619D02*
X46236142Y-34798619D01*
X46664714Y-34608142D01*
X46950428Y-34417666D01*
X47093285Y-34227190D01*
X47521857Y-36512904D02*
X47379000Y-36322428D01*
X47236142Y-36227190D01*
X46950428Y-36131952D01*
X46807571Y-36131952D01*
X46521857Y-36227190D01*
X46379000Y-36322428D01*
X46236142Y-36512904D01*
X46236142Y-36893857D01*
X46379000Y-37084333D01*
X46521857Y-37179571D01*
X46807571Y-37274809D01*
X46950428Y-37274809D01*
X47236142Y-37179571D01*
X47379000Y-37084333D01*
X47521857Y-36893857D01*
X47521857Y-36512904D01*
X47664714Y-36322428D01*
X47807571Y-36227190D01*
X48093285Y-36131952D01*
X48664714Y-36131952D01*
X48950428Y-36227190D01*
X49093285Y-36322428D01*
X49236142Y-36512904D01*
X49236142Y-36893857D01*
X49093285Y-37084333D01*
X48950428Y-37179571D01*
X48664714Y-37274809D01*
X48093285Y-37274809D01*
X47807571Y-37179571D01*
X47664714Y-37084333D01*
X47521857Y-36893857D01*
X48093285Y-38131952D02*
X48093285Y-39655761D01*
X46521857Y-40512904D02*
X46379000Y-40608142D01*
X46236142Y-40798619D01*
X46236142Y-41274809D01*
X46379000Y-41465285D01*
X46521857Y-41560523D01*
X46807571Y-41655761D01*
X47093285Y-41655761D01*
X47521857Y-41560523D01*
X49236142Y-40417666D01*
X49236142Y-41655761D01*
X47236142Y-43370047D02*
X49236142Y-43370047D01*
X46093285Y-42893857D02*
X48236142Y-42417666D01*
X48236142Y-43655761D01*
X46236142Y-44131952D02*
X49236142Y-44798619D01*
X46236142Y-45465285D01*
D10*
X76905285Y-74605571D02*
X77238619Y-74605571D01*
X77238619Y-75129380D02*
X77238619Y-74129380D01*
X76762428Y-74129380D01*
X75952904Y-74462714D02*
X75952904Y-75129380D01*
X76381476Y-74462714D02*
X76381476Y-74986523D01*
X76333857Y-75081761D01*
X76238619Y-75129380D01*
X76095761Y-75129380D01*
X76000523Y-75081761D01*
X75952904Y-75034142D01*
X76333857Y-74129380D02*
X76286238Y-74177000D01*
X76333857Y-74224619D01*
X76381476Y-74177000D01*
X76333857Y-74129380D01*
X76333857Y-74224619D01*
X75952904Y-74129380D02*
X75905285Y-74177000D01*
X75952904Y-74224619D01*
X76000523Y-74177000D01*
X75952904Y-74129380D01*
X75952904Y-74224619D01*
X75476714Y-75129380D02*
X75476714Y-74462714D01*
X75476714Y-74653190D02*
X75429095Y-74557952D01*
X75381476Y-74510333D01*
X75286238Y-74462714D01*
X75191000Y-74462714D01*
X73619571Y-75129380D02*
X74095761Y-75129380D01*
X74095761Y-74129380D01*
X72905285Y-75081761D02*
X73000523Y-75129380D01*
X73191000Y-75129380D01*
X73286238Y-75081761D01*
X73333857Y-74986523D01*
X73333857Y-74605571D01*
X73286238Y-74510333D01*
X73191000Y-74462714D01*
X73000523Y-74462714D01*
X72905285Y-74510333D01*
X72857666Y-74605571D01*
X72857666Y-74700809D01*
X73333857Y-74796047D01*
X72429095Y-75129380D02*
X72429095Y-74129380D01*
X72000523Y-75129380D02*
X72000523Y-74605571D01*
X72048142Y-74510333D01*
X72143380Y-74462714D01*
X72286238Y-74462714D01*
X72381476Y-74510333D01*
X72429095Y-74557952D01*
X71524333Y-75129380D02*
X71524333Y-74462714D01*
X71524333Y-74653190D02*
X71476714Y-74557952D01*
X71429095Y-74510333D01*
X71333857Y-74462714D01*
X71238619Y-74462714D01*
X70524333Y-75081761D02*
X70619571Y-75129380D01*
X70810047Y-75129380D01*
X70905285Y-75081761D01*
X70952904Y-74986523D01*
X70952904Y-74605571D01*
X70905285Y-74510333D01*
X70810047Y-74462714D01*
X70619571Y-74462714D01*
X70524333Y-74510333D01*
X70476714Y-74605571D01*
X70476714Y-74700809D01*
X70952904Y-74796047D01*
X68857666Y-74462714D02*
X68857666Y-75129380D01*
X69286238Y-74462714D02*
X69286238Y-74986523D01*
X69238619Y-75081761D01*
X69143380Y-75129380D01*
X69000523Y-75129380D01*
X68905285Y-75081761D01*
X68857666Y-75034142D01*
X68381476Y-74462714D02*
X68381476Y-75129380D01*
X68381476Y-74557952D02*
X68333857Y-74510333D01*
X68238619Y-74462714D01*
X68095761Y-74462714D01*
X68000523Y-74510333D01*
X67952904Y-74605571D01*
X67952904Y-75129380D01*
X67048142Y-75129380D02*
X67048142Y-74129380D01*
X67048142Y-75081761D02*
X67143380Y-75129380D01*
X67333857Y-75129380D01*
X67429095Y-75081761D01*
X67476714Y-75034142D01*
X67524333Y-74938904D01*
X67524333Y-74653190D01*
X67476714Y-74557952D01*
X67429095Y-74510333D01*
X67333857Y-74462714D01*
X67143380Y-74462714D01*
X67048142Y-74510333D01*
X65476714Y-74605571D02*
X65810047Y-74605571D01*
X65810047Y-75129380D02*
X65810047Y-74129380D01*
X65333857Y-74129380D01*
X64810047Y-75129380D02*
X64905285Y-75081761D01*
X64952904Y-75034142D01*
X65000523Y-74938904D01*
X65000523Y-74653190D01*
X64952904Y-74557952D01*
X64905285Y-74510333D01*
X64810047Y-74462714D01*
X64667190Y-74462714D01*
X64571952Y-74510333D01*
X64524333Y-74557952D01*
X64476714Y-74653190D01*
X64476714Y-74938904D01*
X64524333Y-75034142D01*
X64571952Y-75081761D01*
X64667190Y-75129380D01*
X64810047Y-75129380D01*
X64048142Y-75129380D02*
X64048142Y-74462714D01*
X64048142Y-74653190D02*
X64000523Y-74557952D01*
X63952904Y-74510333D01*
X63857666Y-74462714D01*
X63762428Y-74462714D01*
X63476714Y-75081761D02*
X63381476Y-75129380D01*
X63191000Y-75129380D01*
X63095761Y-75081761D01*
X63048142Y-74986523D01*
X63048142Y-74938904D01*
X63095761Y-74843666D01*
X63191000Y-74796047D01*
X63333857Y-74796047D01*
X63429095Y-74748428D01*
X63476714Y-74653190D01*
X63476714Y-74605571D01*
X63429095Y-74510333D01*
X63333857Y-74462714D01*
X63191000Y-74462714D01*
X63095761Y-74510333D01*
X62191000Y-75081761D02*
X62286238Y-75129380D01*
X62476714Y-75129380D01*
X62571952Y-75081761D01*
X62619571Y-75034142D01*
X62667190Y-74938904D01*
X62667190Y-74653190D01*
X62619571Y-74557952D01*
X62571952Y-74510333D01*
X62476714Y-74462714D01*
X62286238Y-74462714D01*
X62191000Y-74510333D01*
X61762428Y-75129380D02*
X61762428Y-74129380D01*
X61333857Y-75129380D02*
X61333857Y-74605571D01*
X61381476Y-74510333D01*
X61476714Y-74462714D01*
X61619571Y-74462714D01*
X61714809Y-74510333D01*
X61762428Y-74557952D01*
X60429095Y-74462714D02*
X60429095Y-75129380D01*
X60857666Y-74462714D02*
X60857666Y-74986523D01*
X60810047Y-75081761D01*
X60714809Y-75129380D01*
X60571952Y-75129380D01*
X60476714Y-75081761D01*
X60429095Y-75034142D01*
X59952904Y-74462714D02*
X59952904Y-75129380D01*
X59952904Y-74557952D02*
X59905285Y-74510333D01*
X59810047Y-74462714D01*
X59667190Y-74462714D01*
X59571952Y-74510333D01*
X59524333Y-74605571D01*
X59524333Y-75129380D01*
X58619571Y-74462714D02*
X58619571Y-75272238D01*
X58667190Y-75367476D01*
X58714809Y-75415095D01*
X58810047Y-75462714D01*
X58952904Y-75462714D01*
X59048142Y-75415095D01*
X58619571Y-75081761D02*
X58714809Y-75129380D01*
X58905285Y-75129380D01*
X59000523Y-75081761D01*
X59048142Y-75034142D01*
X59095761Y-74938904D01*
X59095761Y-74653190D01*
X59048142Y-74557952D01*
X59000523Y-74510333D01*
X58905285Y-74462714D01*
X58714809Y-74462714D01*
X58619571Y-74510333D01*
X58143380Y-75034142D02*
X58095761Y-75081761D01*
X58143380Y-75129380D01*
X58191000Y-75081761D01*
X58143380Y-75034142D01*
X58143380Y-75129380D01*
X58143380Y-74748428D02*
X58191000Y-74177000D01*
X58143380Y-74129380D01*
X58095761Y-74177000D01*
X58143380Y-74748428D01*
X58143380Y-74129380D01*
X78095761Y-76779380D02*
X78095761Y-75779380D01*
X77524333Y-76779380D02*
X77952904Y-76207952D01*
X77524333Y-75779380D02*
X78095761Y-76350809D01*
X76952904Y-76779380D02*
X77048142Y-76731761D01*
X77095761Y-76636523D01*
X77095761Y-75779380D01*
X76143380Y-76779380D02*
X76143380Y-76255571D01*
X76191000Y-76160333D01*
X76286238Y-76112714D01*
X76476714Y-76112714D01*
X76571952Y-76160333D01*
X76143380Y-76731761D02*
X76238619Y-76779380D01*
X76476714Y-76779380D01*
X76571952Y-76731761D01*
X76619571Y-76636523D01*
X76619571Y-76541285D01*
X76571952Y-76446047D01*
X76476714Y-76398428D01*
X76238619Y-76398428D01*
X76143380Y-76350809D01*
X75238619Y-76112714D02*
X75238619Y-76779380D01*
X75667190Y-76112714D02*
X75667190Y-76636523D01*
X75619571Y-76731761D01*
X75524333Y-76779380D01*
X75381476Y-76779380D01*
X75286238Y-76731761D01*
X75238619Y-76684142D01*
X74810047Y-76731761D02*
X74714809Y-76779380D01*
X74524333Y-76779380D01*
X74429095Y-76731761D01*
X74381476Y-76636523D01*
X74381476Y-76588904D01*
X74429095Y-76493666D01*
X74524333Y-76446047D01*
X74667190Y-76446047D01*
X74762428Y-76398428D01*
X74810047Y-76303190D01*
X74810047Y-76255571D01*
X74762428Y-76160333D01*
X74667190Y-76112714D01*
X74524333Y-76112714D01*
X74429095Y-76160333D01*
X72714809Y-76779380D02*
X73191000Y-76779380D01*
X73191000Y-75779380D01*
X72381476Y-76779380D02*
X72381476Y-76112714D01*
X72381476Y-75779380D02*
X72429095Y-75827000D01*
X72381476Y-75874619D01*
X72333857Y-75827000D01*
X72381476Y-75779380D01*
X72381476Y-75874619D01*
X71524333Y-76731761D02*
X71619571Y-76779380D01*
X71810047Y-76779380D01*
X71905285Y-76731761D01*
X71952904Y-76636523D01*
X71952904Y-76255571D01*
X71905285Y-76160333D01*
X71810047Y-76112714D01*
X71619571Y-76112714D01*
X71524333Y-76160333D01*
X71476714Y-76255571D01*
X71476714Y-76350809D01*
X71952904Y-76446047D01*
X71048142Y-76779380D02*
X71048142Y-75779380D01*
X71048142Y-76160333D02*
X70952904Y-76112714D01*
X70762428Y-76112714D01*
X70667190Y-76160333D01*
X70619571Y-76207952D01*
X70571952Y-76303190D01*
X70571952Y-76588904D01*
X70619571Y-76684142D01*
X70667190Y-76731761D01*
X70762428Y-76779380D01*
X70952904Y-76779380D01*
X71048142Y-76731761D01*
X70000523Y-76779380D02*
X70095761Y-76731761D01*
X70143380Y-76636523D01*
X70143380Y-75779380D01*
X69238619Y-76731761D02*
X69333857Y-76779380D01*
X69524333Y-76779380D01*
X69619571Y-76731761D01*
X69667190Y-76636523D01*
X69667190Y-76255571D01*
X69619571Y-76160333D01*
X69524333Y-76112714D01*
X69333857Y-76112714D01*
X69238619Y-76160333D01*
X69191000Y-76255571D01*
X69191000Y-76350809D01*
X69667190Y-76446047D01*
X68762428Y-76779380D02*
X68762428Y-76112714D01*
X68762428Y-76303190D02*
X68714809Y-76207952D01*
X68667190Y-76160333D01*
X68571952Y-76112714D01*
X68476714Y-76112714D01*
X68095761Y-76731761D02*
X68095761Y-76779380D01*
X68143380Y-76874619D01*
X68191000Y-76922238D01*
X66952904Y-75874619D02*
X66905285Y-75827000D01*
X66810047Y-75779380D01*
X66571952Y-75779380D01*
X66476714Y-75827000D01*
X66429095Y-75874619D01*
X66381476Y-75969857D01*
X66381476Y-76065095D01*
X66429095Y-76207952D01*
X67000523Y-76779380D01*
X66381476Y-76779380D01*
X65762428Y-75779380D02*
X65667190Y-75779380D01*
X65571952Y-75827000D01*
X65524333Y-75874619D01*
X65476714Y-75969857D01*
X65429095Y-76160333D01*
X65429095Y-76398428D01*
X65476714Y-76588904D01*
X65524333Y-76684142D01*
X65571952Y-76731761D01*
X65667190Y-76779380D01*
X65762428Y-76779380D01*
X65857666Y-76731761D01*
X65905285Y-76684142D01*
X65952904Y-76588904D01*
X66000523Y-76398428D01*
X66000523Y-76160333D01*
X65952904Y-75969857D01*
X65905285Y-75874619D01*
X65857666Y-75827000D01*
X65762428Y-75779380D01*
X65048142Y-75874619D02*
X65000523Y-75827000D01*
X64905285Y-75779380D01*
X64667190Y-75779380D01*
X64571952Y-75827000D01*
X64524333Y-75874619D01*
X64476714Y-75969857D01*
X64476714Y-76065095D01*
X64524333Y-76207952D01*
X65095761Y-76779380D01*
X64476714Y-76779380D01*
X63857666Y-75779380D02*
X63762428Y-75779380D01*
X63667190Y-75827000D01*
X63619571Y-75874619D01*
X63571952Y-75969857D01*
X63524333Y-76160333D01*
X63524333Y-76398428D01*
X63571952Y-76588904D01*
X63619571Y-76684142D01*
X63667190Y-76731761D01*
X63762428Y-76779380D01*
X63857666Y-76779380D01*
X63952904Y-76731761D01*
X64000523Y-76684142D01*
X64048142Y-76588904D01*
X64095761Y-76398428D01*
X64095761Y-76160333D01*
X64048142Y-75969857D01*
X64000523Y-75874619D01*
X63952904Y-75827000D01*
X63857666Y-75779380D01*
X63095761Y-76398428D02*
X62333857Y-76398428D01*
X61667190Y-75779380D02*
X61571952Y-75779380D01*
X61476714Y-75827000D01*
X61429095Y-75874619D01*
X61381476Y-75969857D01*
X61333857Y-76160333D01*
X61333857Y-76398428D01*
X61381476Y-76588904D01*
X61429095Y-76684142D01*
X61476714Y-76731761D01*
X61571952Y-76779380D01*
X61667190Y-76779380D01*
X61762428Y-76731761D01*
X61810047Y-76684142D01*
X61857666Y-76588904D01*
X61905285Y-76398428D01*
X61905285Y-76160333D01*
X61857666Y-75969857D01*
X61810047Y-75874619D01*
X61762428Y-75827000D01*
X61667190Y-75779380D01*
X60476714Y-75779380D02*
X60667190Y-75779380D01*
X60762428Y-75827000D01*
X60810047Y-75874619D01*
X60905285Y-76017476D01*
X60952904Y-76207952D01*
X60952904Y-76588904D01*
X60905285Y-76684142D01*
X60857666Y-76731761D01*
X60762428Y-76779380D01*
X60571952Y-76779380D01*
X60476714Y-76731761D01*
X60429095Y-76684142D01*
X60381476Y-76588904D01*
X60381476Y-76350809D01*
X60429095Y-76255571D01*
X60476714Y-76207952D01*
X60571952Y-76160333D01*
X60762428Y-76160333D01*
X60857666Y-76207952D01*
X60905285Y-76255571D01*
X60952904Y-76350809D01*
X59952904Y-76398428D02*
X59191000Y-76398428D01*
X58191000Y-76779380D02*
X58762428Y-76779380D01*
X58476714Y-76779380D02*
X58476714Y-75779380D01*
X58571952Y-75922238D01*
X58667190Y-76017476D01*
X58762428Y-76065095D01*
X57857666Y-75779380D02*
X57191000Y-75779380D01*
X57619571Y-76779380D01*
X76857666Y-77429380D02*
X76619571Y-78429380D01*
X76429095Y-77715095D01*
X76238619Y-78429380D01*
X76000523Y-77429380D01*
X75238619Y-78381761D02*
X75333857Y-78429380D01*
X75524333Y-78429380D01*
X75619571Y-78381761D01*
X75667190Y-78286523D01*
X75667190Y-77905571D01*
X75619571Y-77810333D01*
X75524333Y-77762714D01*
X75333857Y-77762714D01*
X75238619Y-77810333D01*
X75191000Y-77905571D01*
X75191000Y-78000809D01*
X75667190Y-78096047D01*
X74810047Y-78381761D02*
X74714809Y-78429380D01*
X74524333Y-78429380D01*
X74429095Y-78381761D01*
X74381476Y-78286523D01*
X74381476Y-78238904D01*
X74429095Y-78143666D01*
X74524333Y-78096047D01*
X74667190Y-78096047D01*
X74762428Y-78048428D01*
X74810047Y-77953190D01*
X74810047Y-77905571D01*
X74762428Y-77810333D01*
X74667190Y-77762714D01*
X74524333Y-77762714D01*
X74429095Y-77810333D01*
X74095761Y-77762714D02*
X73714809Y-77762714D01*
X73952904Y-77429380D02*
X73952904Y-78286523D01*
X73905285Y-78381761D01*
X73810047Y-78429380D01*
X73714809Y-78429380D01*
X73524333Y-77762714D02*
X73143380Y-77762714D01*
X73381476Y-78429380D02*
X73381476Y-77572238D01*
X73333857Y-77477000D01*
X73238619Y-77429380D01*
X73143380Y-77429380D01*
X72381476Y-78429380D02*
X72381476Y-77905571D01*
X72429095Y-77810333D01*
X72524333Y-77762714D01*
X72714809Y-77762714D01*
X72810047Y-77810333D01*
X72381476Y-78381761D02*
X72476714Y-78429380D01*
X72714809Y-78429380D01*
X72810047Y-78381761D01*
X72857666Y-78286523D01*
X72857666Y-78191285D01*
X72810047Y-78096047D01*
X72714809Y-78048428D01*
X72476714Y-78048428D01*
X72381476Y-78000809D01*
X72810047Y-77429380D02*
X72762428Y-77477000D01*
X72810047Y-77524619D01*
X72857666Y-77477000D01*
X72810047Y-77429380D01*
X72810047Y-77524619D01*
X72429095Y-77429380D02*
X72381476Y-77477000D01*
X72429095Y-77524619D01*
X72476714Y-77477000D01*
X72429095Y-77429380D01*
X72429095Y-77524619D01*
X71762428Y-78429380D02*
X71857666Y-78381761D01*
X71905285Y-78286523D01*
X71905285Y-77429380D01*
X71381476Y-78429380D02*
X71381476Y-77762714D01*
X71381476Y-77429380D02*
X71429095Y-77477000D01*
X71381476Y-77524619D01*
X71333857Y-77477000D01*
X71381476Y-77429380D01*
X71381476Y-77524619D01*
X70952904Y-78381761D02*
X70857666Y-78429380D01*
X70667190Y-78429380D01*
X70571952Y-78381761D01*
X70524333Y-78286523D01*
X70524333Y-78238904D01*
X70571952Y-78143666D01*
X70667190Y-78096047D01*
X70810047Y-78096047D01*
X70905285Y-78048428D01*
X70952904Y-77953190D01*
X70952904Y-77905571D01*
X70905285Y-77810333D01*
X70810047Y-77762714D01*
X70667190Y-77762714D01*
X70571952Y-77810333D01*
X69667190Y-78381761D02*
X69762428Y-78429380D01*
X69952904Y-78429380D01*
X70048142Y-78381761D01*
X70095761Y-78334142D01*
X70143380Y-78238904D01*
X70143380Y-77953190D01*
X70095761Y-77857952D01*
X70048142Y-77810333D01*
X69952904Y-77762714D01*
X69762428Y-77762714D01*
X69667190Y-77810333D01*
X69238619Y-78429380D02*
X69238619Y-77429380D01*
X68810047Y-78429380D02*
X68810047Y-77905571D01*
X68857666Y-77810333D01*
X68952904Y-77762714D01*
X69095761Y-77762714D01*
X69191000Y-77810333D01*
X69238619Y-77857952D01*
X67952904Y-78381761D02*
X68048142Y-78429380D01*
X68238619Y-78429380D01*
X68333857Y-78381761D01*
X68381476Y-78286523D01*
X68381476Y-77905571D01*
X68333857Y-77810333D01*
X68238619Y-77762714D01*
X68048142Y-77762714D01*
X67952904Y-77810333D01*
X67905285Y-77905571D01*
X67905285Y-78000809D01*
X68381476Y-78096047D01*
X66714809Y-78429380D02*
X66714809Y-77429380D01*
X66714809Y-77905571D02*
X66143380Y-77905571D01*
X66143380Y-78429380D02*
X66143380Y-77429380D01*
X65524333Y-78429380D02*
X65619571Y-78381761D01*
X65667190Y-78334142D01*
X65714809Y-78238904D01*
X65714809Y-77953190D01*
X65667190Y-77857952D01*
X65619571Y-77810333D01*
X65524333Y-77762714D01*
X65381476Y-77762714D01*
X65286238Y-77810333D01*
X65238619Y-77857952D01*
X65191000Y-77953190D01*
X65191000Y-78238904D01*
X65238619Y-78334142D01*
X65286238Y-78381761D01*
X65381476Y-78429380D01*
X65524333Y-78429380D01*
X64333857Y-78381761D02*
X64429095Y-78429380D01*
X64619571Y-78429380D01*
X64714809Y-78381761D01*
X64762428Y-78334142D01*
X64810047Y-78238904D01*
X64810047Y-77953190D01*
X64762428Y-77857952D01*
X64714809Y-77810333D01*
X64619571Y-77762714D01*
X64429095Y-77762714D01*
X64333857Y-77810333D01*
X63905285Y-78429380D02*
X63905285Y-77429380D01*
X63476714Y-78429380D02*
X63476714Y-77905571D01*
X63524333Y-77810333D01*
X63619571Y-77762714D01*
X63762428Y-77762714D01*
X63857666Y-77810333D01*
X63905285Y-77857952D01*
X63048142Y-78381761D02*
X62952904Y-78429380D01*
X62762428Y-78429380D01*
X62667190Y-78381761D01*
X62619571Y-78286523D01*
X62619571Y-78238904D01*
X62667190Y-78143666D01*
X62762428Y-78096047D01*
X62905285Y-78096047D01*
X63000523Y-78048428D01*
X63048142Y-77953190D01*
X63048142Y-77905571D01*
X63000523Y-77810333D01*
X62905285Y-77762714D01*
X62762428Y-77762714D01*
X62667190Y-77810333D01*
X61762428Y-78381761D02*
X61857666Y-78429380D01*
X62048142Y-78429380D01*
X62143380Y-78381761D01*
X62191000Y-78334142D01*
X62238619Y-78238904D01*
X62238619Y-77953190D01*
X62191000Y-77857952D01*
X62143380Y-77810333D01*
X62048142Y-77762714D01*
X61857666Y-77762714D01*
X61762428Y-77810333D01*
X61333857Y-78429380D02*
X61333857Y-77429380D01*
X60905285Y-78429380D02*
X60905285Y-77905571D01*
X60952904Y-77810333D01*
X61048142Y-77762714D01*
X61191000Y-77762714D01*
X61286238Y-77810333D01*
X61333857Y-77857952D01*
X60000523Y-77762714D02*
X60000523Y-78429380D01*
X60429095Y-77762714D02*
X60429095Y-78286523D01*
X60381476Y-78381761D01*
X60286238Y-78429380D01*
X60143380Y-78429380D01*
X60048142Y-78381761D01*
X60000523Y-78334142D01*
X59381476Y-78429380D02*
X59476714Y-78381761D01*
X59524333Y-78286523D01*
X59524333Y-77429380D01*
X58619571Y-78381761D02*
X58714809Y-78429380D01*
X58905285Y-78429380D01*
X59000523Y-78381761D01*
X59048142Y-78286523D01*
X59048142Y-77905571D01*
X59000523Y-77810333D01*
X58905285Y-77762714D01*
X58714809Y-77762714D01*
X58619571Y-77810333D01*
X58571952Y-77905571D01*
X58571952Y-78000809D01*
X59048142Y-78096047D01*
X40807000Y-35473000D02*
G75*
G02X40882000Y-34048000I-675000J750000D01*
G01*
D12*
X40307000Y-34723000D02*
G75*
G03X40307000Y-34723000I-175000J0D01*
G01*
D10*
X44057000Y-34723000D02*
G75*
G03X44057000Y-34723000I-925000J0D01*
G01*
X38057000Y-34723000D02*
G75*
G03X38057000Y-34723000I-925000J0D01*
G01*
X38132000Y-34723000D02*
X39032000Y-34723000D01*
X40132000Y-34723000D02*
X42132000Y-34723000D01*
D13*
X72310000Y-106696000D02*
X67310000Y-106696000D01*
X77310000Y-111696000D02*
X72310000Y-106696000D01*
X77310000Y-121696000D02*
X77310000Y-111696000D01*
X72310000Y-126696000D02*
X77310000Y-121696000D01*
X62310000Y-126696000D02*
X72310000Y-126696000D01*
X57310000Y-121696000D02*
X62310000Y-126696000D01*
X57310000Y-111696000D02*
X57310000Y-121696000D01*
X62310000Y-106696000D02*
X57310000Y-111696000D01*
X67310000Y-106696000D02*
X62310000Y-106696000D01*
X50000000Y-43500000D02*
X110000000Y-43500000D01*
X50000000Y-42500000D02*
X110000000Y-42500000D01*
X39500000Y-50000000D02*
X50000000Y-50000000D01*
X50000000Y-46000000D02*
X39500000Y-46000000D01*
X120500000Y-46000000D02*
X110000000Y-46000000D01*
X110000000Y-50000000D02*
X120500000Y-50000000D01*
X50000000Y-40500000D02*
X110000000Y-40500000D01*
X50000000Y-41500000D02*
X110000000Y-41500000D01*
X110000000Y-53500000D02*
X50000000Y-53500000D01*
X50000000Y-55500000D02*
X110000000Y-55500000D01*
X110000000Y-54500000D02*
X50000000Y-54500000D01*
X110000000Y-48000000D02*
X110000000Y-51000000D01*
X50000000Y-34500000D02*
X50000000Y-55500000D01*
X110000000Y-34500000D02*
X50000000Y-34500000D01*
X110000000Y-55500000D02*
X110000000Y-34500000D01*
X50000000Y-52500000D02*
X110000000Y-52500000D01*
X103445000Y-56709000D02*
X103445000Y-58039000D01*
X104775000Y-56709000D02*
X103445000Y-56709000D01*
X106045000Y-56709000D02*
X106045000Y-59369000D01*
X106045000Y-59369000D02*
X111185000Y-59369000D01*
X106045000Y-56709000D02*
X111185000Y-56709000D01*
X111185000Y-56709000D02*
X111185000Y-59369000D01*
X44136000Y-72323000D02*
X45466000Y-72323000D01*
X44136000Y-70993000D02*
X44136000Y-72323000D01*
X44136000Y-69723000D02*
X46796000Y-69723000D01*
X46796000Y-69723000D02*
X46796000Y-64583000D01*
X44136000Y-69723000D02*
X44136000Y-64583000D01*
X44136000Y-64583000D02*
X46796000Y-64583000D01*
X62087000Y-96520000D02*
X59547000Y-96520000D01*
X62087000Y-99060000D02*
X59547000Y-99060000D01*
X62087000Y-101600000D02*
X59547000Y-101600000D01*
X77977000Y-93940000D02*
X62087000Y-93940000D01*
X77977000Y-104180000D02*
X62087000Y-104180000D01*
X77977000Y-104180000D02*
X77977000Y-93940000D01*
X62087000Y-104180000D02*
X62087000Y-93940000D01*
X52010000Y-123130000D02*
X52010000Y-124460000D01*
X53340000Y-123130000D02*
X52010000Y-123130000D01*
X54610000Y-123130000D02*
X54610000Y-125790000D01*
X54610000Y-125790000D02*
X57210000Y-125790000D01*
X54610000Y-123130000D02*
X57210000Y-123130000D01*
X57210000Y-123130000D02*
X57210000Y-125790000D01*
X81820000Y-115912000D02*
X81820000Y-121412000D01*
X98820000Y-115912000D02*
X81820000Y-115912000D01*
X98820000Y-126912000D02*
X98820000Y-115912000D01*
X81820000Y-126912000D02*
X98820000Y-126912000D01*
X81820000Y-121412000D02*
X81820000Y-126912000D01*
X116499000Y-69388000D02*
G75*
G03X116499000Y-69388000I-1500000J0D01*
G01*
X124499000Y-69388000D02*
G75*
G03X124499000Y-69388000I-1500000J0D01*
G01*
X125499000Y-71888000D02*
X125499000Y-56388000D01*
X112499000Y-71888000D02*
X125499000Y-71888000D01*
X112499000Y-54888000D02*
X112499000Y-71888000D01*
X125499000Y-54888000D02*
X112499000Y-54888000D01*
X125499000Y-56388000D02*
X125499000Y-54888000D01*
X61281000Y-62036000D02*
X62611000Y-62036000D01*
X61281000Y-60706000D02*
X61281000Y-62036000D01*
X61281000Y-59436000D02*
X63941000Y-59436000D01*
X63941000Y-59436000D02*
X63941000Y-56836000D01*
X61281000Y-59436000D02*
X61281000Y-56836000D01*
X61281000Y-56836000D02*
X63941000Y-56836000D01*
X41596000Y-60766000D02*
X42926000Y-60766000D01*
X41596000Y-59436000D02*
X41596000Y-60766000D01*
X41596000Y-58166000D02*
X44256000Y-58166000D01*
X44256000Y-58166000D02*
X44256000Y-53026000D01*
X41596000Y-58166000D02*
X41596000Y-53026000D01*
X41596000Y-53026000D02*
X44256000Y-53026000D01*
X86801000Y-73600000D02*
X85471000Y-73600000D01*
X86801000Y-74930000D02*
X86801000Y-73600000D01*
X86801000Y-76200000D02*
X84141000Y-76200000D01*
X84141000Y-76200000D02*
X84141000Y-88960000D01*
X86801000Y-76200000D02*
X86801000Y-88960000D01*
X86801000Y-88960000D02*
X84141000Y-88960000D01*
X37913000Y-60766000D02*
X39243000Y-60766000D01*
X37913000Y-59436000D02*
X37913000Y-60766000D01*
X37913000Y-58166000D02*
X40573000Y-58166000D01*
X40573000Y-58166000D02*
X40573000Y-53026000D01*
X37913000Y-58166000D02*
X37913000Y-53026000D01*
X37913000Y-53026000D02*
X40573000Y-53026000D01*
X34230000Y-60766000D02*
X35560000Y-60766000D01*
X34230000Y-59436000D02*
X34230000Y-60766000D01*
X34230000Y-58166000D02*
X36890000Y-58166000D01*
X36890000Y-58166000D02*
X36890000Y-53026000D01*
X34230000Y-58166000D02*
X34230000Y-53026000D01*
X34230000Y-53026000D02*
X36890000Y-53026000D01*
D10*
X71357619Y-106370380D02*
X71357619Y-105370380D01*
X70976666Y-105370380D01*
X70881428Y-105418000D01*
X70833809Y-105465619D01*
X70786190Y-105560857D01*
X70786190Y-105703714D01*
X70833809Y-105798952D01*
X70881428Y-105846571D01*
X70976666Y-105894190D01*
X71357619Y-105894190D01*
X70167142Y-105370380D02*
X69976666Y-105370380D01*
X69881428Y-105418000D01*
X69786190Y-105513238D01*
X69738571Y-105703714D01*
X69738571Y-106037047D01*
X69786190Y-106227523D01*
X69881428Y-106322761D01*
X69976666Y-106370380D01*
X70167142Y-106370380D01*
X70262380Y-106322761D01*
X70357619Y-106227523D01*
X70405238Y-106037047D01*
X70405238Y-105703714D01*
X70357619Y-105513238D01*
X70262380Y-105418000D01*
X70167142Y-105370380D01*
X69405238Y-105370380D02*
X69167142Y-106370380D01*
X68976666Y-105656095D01*
X68786190Y-106370380D01*
X68548095Y-105370380D01*
X68167142Y-105846571D02*
X67833809Y-105846571D01*
X67690952Y-106370380D02*
X68167142Y-106370380D01*
X68167142Y-105370380D01*
X67690952Y-105370380D01*
X66690952Y-106370380D02*
X67024285Y-105894190D01*
X67262380Y-106370380D02*
X67262380Y-105370380D01*
X66881428Y-105370380D01*
X66786190Y-105418000D01*
X66738571Y-105465619D01*
X66690952Y-105560857D01*
X66690952Y-105703714D01*
X66738571Y-105798952D01*
X66786190Y-105846571D01*
X66881428Y-105894190D01*
X67262380Y-105894190D01*
X66500476Y-106465619D02*
X65738571Y-106465619D01*
X65024285Y-106370380D02*
X65500476Y-106370380D01*
X65500476Y-105370380D01*
X64690952Y-105846571D02*
X64357619Y-105846571D01*
X64214761Y-106370380D02*
X64690952Y-106370380D01*
X64690952Y-105370380D01*
X64214761Y-105370380D01*
X63786190Y-106370380D02*
X63786190Y-105370380D01*
X63548095Y-105370380D01*
X63405238Y-105418000D01*
X63310000Y-105513238D01*
X63262380Y-105608476D01*
X63214761Y-105798952D01*
X63214761Y-105941809D01*
X63262380Y-106132285D01*
X63310000Y-106227523D01*
X63405238Y-106322761D01*
X63548095Y-106370380D01*
X63786190Y-106370380D01*
X83880952Y-48047619D02*
X83833333Y-48000000D01*
X83738095Y-47952380D01*
X83500000Y-47952380D01*
X83404761Y-48000000D01*
X83357142Y-48047619D01*
X83309523Y-48142857D01*
X83309523Y-48238095D01*
X83357142Y-48380952D01*
X83928571Y-48952380D01*
X83309523Y-48952380D01*
X82928571Y-48047619D02*
X82880952Y-48000000D01*
X82785714Y-47952380D01*
X82547619Y-47952380D01*
X82452380Y-48000000D01*
X82404761Y-48047619D01*
X82357142Y-48142857D01*
X82357142Y-48238095D01*
X82404761Y-48380952D01*
X82976190Y-48952380D01*
X82357142Y-48952380D01*
X81357142Y-48952380D02*
X81690476Y-48476190D01*
X81928571Y-48952380D02*
X81928571Y-47952380D01*
X81547619Y-47952380D01*
X81452380Y-48000000D01*
X81404761Y-48047619D01*
X81357142Y-48142857D01*
X81357142Y-48285714D01*
X81404761Y-48380952D01*
X81452380Y-48428571D01*
X81547619Y-48476190D01*
X81928571Y-48476190D01*
X80880952Y-48904761D02*
X80880952Y-48952380D01*
X80928571Y-49047619D01*
X80976190Y-49095238D01*
X79166666Y-48952380D02*
X79738095Y-48952380D01*
X79452380Y-48952380D02*
X79452380Y-47952380D01*
X79547619Y-48095238D01*
X79642857Y-48190476D01*
X79738095Y-48238095D01*
X78547619Y-47952380D02*
X78452380Y-47952380D01*
X78357142Y-48000000D01*
X78309523Y-48047619D01*
X78261904Y-48142857D01*
X78214285Y-48333333D01*
X78214285Y-48571428D01*
X78261904Y-48761904D01*
X78309523Y-48857142D01*
X78357142Y-48904761D01*
X78452380Y-48952380D01*
X78547619Y-48952380D01*
X78642857Y-48904761D01*
X78690476Y-48857142D01*
X78738095Y-48761904D01*
X78785714Y-48571428D01*
X78785714Y-48333333D01*
X78738095Y-48142857D01*
X78690476Y-48047619D01*
X78642857Y-48000000D01*
X78547619Y-47952380D01*
X77595238Y-47952380D02*
X77500000Y-47952380D01*
X77404761Y-48000000D01*
X77357142Y-48047619D01*
X77309523Y-48142857D01*
X77261904Y-48333333D01*
X77261904Y-48571428D01*
X77309523Y-48761904D01*
X77357142Y-48857142D01*
X77404761Y-48904761D01*
X77500000Y-48952380D01*
X77595238Y-48952380D01*
X77690476Y-48904761D01*
X77738095Y-48857142D01*
X77785714Y-48761904D01*
X77833333Y-48571428D01*
X77833333Y-48333333D01*
X77785714Y-48142857D01*
X77738095Y-48047619D01*
X77690476Y-48000000D01*
X77595238Y-47952380D01*
X76928571Y-47952380D02*
X76690476Y-48952380D01*
X76500000Y-48238095D01*
X76309523Y-48952380D01*
X76071428Y-47952380D01*
X102290571Y-57150095D02*
X102290571Y-56816761D01*
X102814380Y-56816761D02*
X101814380Y-56816761D01*
X101814380Y-57292952D01*
X102528666Y-57626285D02*
X102528666Y-58102476D01*
X102814380Y-57531047D02*
X101814380Y-57864380D01*
X102814380Y-58197714D01*
X101814380Y-58435809D02*
X101814380Y-59054857D01*
X102195333Y-58721523D01*
X102195333Y-58864380D01*
X102242952Y-58959619D01*
X102290571Y-59007238D01*
X102385809Y-59054857D01*
X102623904Y-59054857D01*
X102719142Y-59007238D01*
X102766761Y-58959619D01*
X102814380Y-58864380D01*
X102814380Y-58578666D01*
X102766761Y-58483428D01*
X102719142Y-58435809D01*
X46227904Y-63511571D02*
X46561238Y-63511571D01*
X46561238Y-64035380D02*
X46561238Y-63035380D01*
X46085047Y-63035380D01*
X45751714Y-63749666D02*
X45275523Y-63749666D01*
X45846952Y-64035380D02*
X45513619Y-63035380D01*
X45180285Y-64035380D01*
X44894571Y-63130619D02*
X44846952Y-63083000D01*
X44751714Y-63035380D01*
X44513619Y-63035380D01*
X44418380Y-63083000D01*
X44370761Y-63130619D01*
X44323142Y-63225857D01*
X44323142Y-63321095D01*
X44370761Y-63463952D01*
X44942190Y-64035380D01*
X44323142Y-64035380D01*
X56610000Y-126071380D02*
X57086190Y-126071380D01*
X57133809Y-126547571D01*
X57086190Y-126499952D01*
X56990952Y-126452333D01*
X56752857Y-126452333D01*
X56657619Y-126499952D01*
X56610000Y-126547571D01*
X56562380Y-126642809D01*
X56562380Y-126880904D01*
X56610000Y-126976142D01*
X56657619Y-127023761D01*
X56752857Y-127071380D01*
X56990952Y-127071380D01*
X57086190Y-127023761D01*
X57133809Y-126976142D01*
X56276666Y-126071380D02*
X55943333Y-127071380D01*
X55610000Y-126071380D01*
X55514761Y-127166619D02*
X54752857Y-127166619D01*
X54514761Y-126547571D02*
X54181428Y-126547571D01*
X54038571Y-127071380D02*
X54514761Y-127071380D01*
X54514761Y-126071380D01*
X54038571Y-126071380D01*
X53657619Y-127023761D02*
X53514761Y-127071380D01*
X53276666Y-127071380D01*
X53181428Y-127023761D01*
X53133809Y-126976142D01*
X53086190Y-126880904D01*
X53086190Y-126785666D01*
X53133809Y-126690428D01*
X53181428Y-126642809D01*
X53276666Y-126595190D01*
X53467142Y-126547571D01*
X53562380Y-126499952D01*
X53610000Y-126452333D01*
X53657619Y-126357095D01*
X53657619Y-126261857D01*
X53610000Y-126166619D01*
X53562380Y-126119000D01*
X53467142Y-126071380D01*
X53229047Y-126071380D01*
X53086190Y-126119000D01*
X52657619Y-127071380D02*
X52657619Y-126071380D01*
X52276666Y-126071380D01*
X52181428Y-126119000D01*
X52133809Y-126166619D01*
X52086190Y-126261857D01*
X52086190Y-126404714D01*
X52133809Y-126499952D01*
X52181428Y-126547571D01*
X52276666Y-126595190D01*
X52657619Y-126595190D01*
X91677142Y-126364380D02*
X92153333Y-126364380D01*
X92153333Y-125364380D01*
X91343809Y-126364380D02*
X91343809Y-125364380D01*
X91105714Y-125364380D01*
X90962857Y-125412000D01*
X90867619Y-125507238D01*
X90820000Y-125602476D01*
X90772380Y-125792952D01*
X90772380Y-125935809D01*
X90820000Y-126126285D01*
X90867619Y-126221523D01*
X90962857Y-126316761D01*
X91105714Y-126364380D01*
X91343809Y-126364380D01*
X90153333Y-125364380D02*
X90058095Y-125364380D01*
X89962857Y-125412000D01*
X89915238Y-125459619D01*
X89867619Y-125554857D01*
X89820000Y-125745333D01*
X89820000Y-125983428D01*
X89867619Y-126173904D01*
X89915238Y-126269142D01*
X89962857Y-126316761D01*
X90058095Y-126364380D01*
X90153333Y-126364380D01*
X90248571Y-126316761D01*
X90296190Y-126269142D01*
X90343809Y-126173904D01*
X90391428Y-125983428D01*
X90391428Y-125745333D01*
X90343809Y-125554857D01*
X90296190Y-125459619D01*
X90248571Y-125412000D01*
X90153333Y-125364380D01*
X88962857Y-125364380D02*
X89153333Y-125364380D01*
X89248571Y-125412000D01*
X89296190Y-125459619D01*
X89391428Y-125602476D01*
X89439047Y-125792952D01*
X89439047Y-126173904D01*
X89391428Y-126269142D01*
X89343809Y-126316761D01*
X89248571Y-126364380D01*
X89058095Y-126364380D01*
X88962857Y-126316761D01*
X88915238Y-126269142D01*
X88867619Y-126173904D01*
X88867619Y-125935809D01*
X88915238Y-125840571D01*
X88962857Y-125792952D01*
X89058095Y-125745333D01*
X89248571Y-125745333D01*
X89343809Y-125792952D01*
X89391428Y-125840571D01*
X89439047Y-125935809D01*
X88486666Y-126078666D02*
X88010476Y-126078666D01*
X88581904Y-126364380D02*
X88248571Y-125364380D01*
X87915238Y-126364380D01*
X87296190Y-125364380D02*
X87296190Y-126078666D01*
X87343809Y-126221523D01*
X87439047Y-126316761D01*
X87581904Y-126364380D01*
X87677142Y-126364380D01*
X86867619Y-126316761D02*
X86724761Y-126364380D01*
X86486666Y-126364380D01*
X86391428Y-126316761D01*
X86343809Y-126269142D01*
X86296190Y-126173904D01*
X86296190Y-126078666D01*
X86343809Y-125983428D01*
X86391428Y-125935809D01*
X86486666Y-125888190D01*
X86677142Y-125840571D01*
X86772380Y-125792952D01*
X86820000Y-125745333D01*
X86867619Y-125650095D01*
X86867619Y-125554857D01*
X86820000Y-125459619D01*
X86772380Y-125412000D01*
X86677142Y-125364380D01*
X86439047Y-125364380D01*
X86296190Y-125412000D01*
X85915238Y-126078666D02*
X85439047Y-126078666D01*
X86010476Y-126364380D02*
X85677142Y-125364380D01*
X85343809Y-126364380D01*
X124286976Y-57666000D02*
X124382214Y-57618380D01*
X124525071Y-57618380D01*
X124667928Y-57666000D01*
X124763166Y-57761238D01*
X124810785Y-57856476D01*
X124858404Y-58046952D01*
X124858404Y-58189809D01*
X124810785Y-58380285D01*
X124763166Y-58475523D01*
X124667928Y-58570761D01*
X124525071Y-58618380D01*
X124429833Y-58618380D01*
X124286976Y-58570761D01*
X124239357Y-58523142D01*
X124239357Y-58189809D01*
X124429833Y-58189809D01*
X123620309Y-58142190D02*
X123620309Y-58618380D01*
X123953642Y-57618380D02*
X123620309Y-58142190D01*
X123286976Y-57618380D01*
X122953642Y-58237428D02*
X122191738Y-58237428D01*
X121810785Y-57618380D02*
X121191738Y-57618380D01*
X121525071Y-57999333D01*
X121382214Y-57999333D01*
X121286976Y-58046952D01*
X121239357Y-58094571D01*
X121191738Y-58189809D01*
X121191738Y-58427904D01*
X121239357Y-58523142D01*
X121286976Y-58570761D01*
X121382214Y-58618380D01*
X121667928Y-58618380D01*
X121763166Y-58570761D01*
X121810785Y-58523142D01*
X120572690Y-57618380D02*
X120477452Y-57618380D01*
X120382214Y-57666000D01*
X120334595Y-57713619D01*
X120286976Y-57808857D01*
X120239357Y-57999333D01*
X120239357Y-58237428D01*
X120286976Y-58427904D01*
X120334595Y-58523142D01*
X120382214Y-58570761D01*
X120477452Y-58618380D01*
X120572690Y-58618380D01*
X120667928Y-58570761D01*
X120715547Y-58523142D01*
X120763166Y-58427904D01*
X120810785Y-58237428D01*
X120810785Y-57999333D01*
X120763166Y-57808857D01*
X120715547Y-57713619D01*
X120667928Y-57666000D01*
X120572690Y-57618380D01*
X119858404Y-57713619D02*
X119810785Y-57666000D01*
X119715547Y-57618380D01*
X119477452Y-57618380D01*
X119382214Y-57666000D01*
X119334595Y-57713619D01*
X119286976Y-57808857D01*
X119286976Y-57904095D01*
X119334595Y-58046952D01*
X119906023Y-58618380D01*
X119286976Y-58618380D01*
X64491952Y-62317380D02*
X64968142Y-62317380D01*
X65015761Y-62793571D01*
X64968142Y-62745952D01*
X64872904Y-62698333D01*
X64634809Y-62698333D01*
X64539571Y-62745952D01*
X64491952Y-62793571D01*
X64444333Y-62888809D01*
X64444333Y-63126904D01*
X64491952Y-63222142D01*
X64539571Y-63269761D01*
X64634809Y-63317380D01*
X64872904Y-63317380D01*
X64968142Y-63269761D01*
X65015761Y-63222142D01*
X64158619Y-62317380D02*
X63825285Y-63317380D01*
X63491952Y-62317380D01*
X63396714Y-63412619D02*
X62634809Y-63412619D01*
X62396714Y-62793571D02*
X62063380Y-62793571D01*
X61920523Y-63317380D02*
X62396714Y-63317380D01*
X62396714Y-62317380D01*
X61920523Y-62317380D01*
X61587190Y-62317380D02*
X60920523Y-63317380D01*
X60920523Y-62317380D02*
X61587190Y-63317380D01*
X60682428Y-62317380D02*
X60111000Y-62317380D01*
X60396714Y-63317380D02*
X60396714Y-62317380D01*
X44235476Y-52430761D02*
X44092619Y-52478380D01*
X43854523Y-52478380D01*
X43759285Y-52430761D01*
X43711666Y-52383142D01*
X43664047Y-52287904D01*
X43664047Y-52192666D01*
X43711666Y-52097428D01*
X43759285Y-52049809D01*
X43854523Y-52002190D01*
X44045000Y-51954571D01*
X44140238Y-51906952D01*
X44187857Y-51859333D01*
X44235476Y-51764095D01*
X44235476Y-51668857D01*
X44187857Y-51573619D01*
X44140238Y-51526000D01*
X44045000Y-51478380D01*
X43806904Y-51478380D01*
X43664047Y-51526000D01*
X42664047Y-52478380D02*
X42997380Y-52002190D01*
X43235476Y-52478380D02*
X43235476Y-51478380D01*
X42854523Y-51478380D01*
X42759285Y-51526000D01*
X42711666Y-51573619D01*
X42664047Y-51668857D01*
X42664047Y-51811714D01*
X42711666Y-51906952D01*
X42759285Y-51954571D01*
X42854523Y-52002190D01*
X43235476Y-52002190D01*
X42378333Y-51478380D02*
X42045000Y-52478380D01*
X41711666Y-51478380D01*
X41425952Y-51573619D02*
X41378333Y-51526000D01*
X41283095Y-51478380D01*
X41045000Y-51478380D01*
X40949761Y-51526000D01*
X40902142Y-51573619D01*
X40854523Y-51668857D01*
X40854523Y-51764095D01*
X40902142Y-51906952D01*
X41473571Y-52478380D01*
X40854523Y-52478380D01*
X87685571Y-75598928D02*
X87733190Y-75741785D01*
X87780809Y-75789404D01*
X87876047Y-75837023D01*
X88018904Y-75837023D01*
X88114142Y-75789404D01*
X88161761Y-75741785D01*
X88209380Y-75646547D01*
X88209380Y-75265595D01*
X87209380Y-75265595D01*
X87209380Y-75598928D01*
X87257000Y-75694166D01*
X87304619Y-75741785D01*
X87399857Y-75789404D01*
X87495095Y-75789404D01*
X87590333Y-75741785D01*
X87637952Y-75694166D01*
X87685571Y-75598928D01*
X87685571Y-75265595D01*
X88209380Y-76265595D02*
X87209380Y-76265595D01*
X87923666Y-76598928D01*
X87209380Y-76932261D01*
X88209380Y-76932261D01*
X87685571Y-77408452D02*
X87685571Y-77741785D01*
X88209380Y-77884642D02*
X88209380Y-77408452D01*
X87209380Y-77408452D01*
X87209380Y-77884642D01*
X87304619Y-78265595D02*
X87257000Y-78313214D01*
X87209380Y-78408452D01*
X87209380Y-78646547D01*
X87257000Y-78741785D01*
X87304619Y-78789404D01*
X87399857Y-78837023D01*
X87495095Y-78837023D01*
X87637952Y-78789404D01*
X88209380Y-78217976D01*
X88209380Y-78837023D01*
X87637952Y-79408452D02*
X87590333Y-79313214D01*
X87542714Y-79265595D01*
X87447476Y-79217976D01*
X87399857Y-79217976D01*
X87304619Y-79265595D01*
X87257000Y-79313214D01*
X87209380Y-79408452D01*
X87209380Y-79598928D01*
X87257000Y-79694166D01*
X87304619Y-79741785D01*
X87399857Y-79789404D01*
X87447476Y-79789404D01*
X87542714Y-79741785D01*
X87590333Y-79694166D01*
X87637952Y-79598928D01*
X87637952Y-79408452D01*
X87685571Y-79313214D01*
X87733190Y-79265595D01*
X87828428Y-79217976D01*
X88018904Y-79217976D01*
X88114142Y-79265595D01*
X88161761Y-79313214D01*
X88209380Y-79408452D01*
X88209380Y-79598928D01*
X88161761Y-79694166D01*
X88114142Y-79741785D01*
X88018904Y-79789404D01*
X87828428Y-79789404D01*
X87733190Y-79741785D01*
X87685571Y-79694166D01*
X87637952Y-79598928D01*
X87209380Y-80408452D02*
X87209380Y-80503690D01*
X87257000Y-80598928D01*
X87304619Y-80646547D01*
X87399857Y-80694166D01*
X87590333Y-80741785D01*
X87828428Y-80741785D01*
X88018904Y-80694166D01*
X88114142Y-80646547D01*
X88161761Y-80598928D01*
X88209380Y-80503690D01*
X88209380Y-80408452D01*
X88161761Y-80313214D01*
X88114142Y-80265595D01*
X88018904Y-80217976D01*
X87828428Y-80170357D01*
X87590333Y-80170357D01*
X87399857Y-80217976D01*
X87304619Y-80265595D01*
X87257000Y-80313214D01*
X87209380Y-80408452D01*
X40004904Y-51954571D02*
X40338238Y-51954571D01*
X40338238Y-52478380D02*
X40338238Y-51478380D01*
X39862047Y-51478380D01*
X39528714Y-52192666D02*
X39052523Y-52192666D01*
X39623952Y-52478380D02*
X39290619Y-51478380D01*
X38957285Y-52478380D01*
X38100142Y-52478380D02*
X38671571Y-52478380D01*
X38385857Y-52478380D02*
X38385857Y-51478380D01*
X38481095Y-51621238D01*
X38576333Y-51716476D01*
X38671571Y-51764095D01*
X37250476Y-52430761D02*
X37107619Y-52478380D01*
X36869523Y-52478380D01*
X36774285Y-52430761D01*
X36726666Y-52383142D01*
X36679047Y-52287904D01*
X36679047Y-52192666D01*
X36726666Y-52097428D01*
X36774285Y-52049809D01*
X36869523Y-52002190D01*
X37060000Y-51954571D01*
X37155238Y-51906952D01*
X37202857Y-51859333D01*
X37250476Y-51764095D01*
X37250476Y-51668857D01*
X37202857Y-51573619D01*
X37155238Y-51526000D01*
X37060000Y-51478380D01*
X36821904Y-51478380D01*
X36679047Y-51526000D01*
X35679047Y-52478380D02*
X36012380Y-52002190D01*
X36250476Y-52478380D02*
X36250476Y-51478380D01*
X35869523Y-51478380D01*
X35774285Y-51526000D01*
X35726666Y-51573619D01*
X35679047Y-51668857D01*
X35679047Y-51811714D01*
X35726666Y-51906952D01*
X35774285Y-51954571D01*
X35869523Y-52002190D01*
X36250476Y-52002190D01*
X35393333Y-51478380D02*
X35060000Y-52478380D01*
X34726666Y-51478380D01*
X33869523Y-52478380D02*
X34440952Y-52478380D01*
X34155238Y-52478380D02*
X34155238Y-51478380D01*
X34250476Y-51621238D01*
X34345714Y-51716476D01*
X34440952Y-51764095D01*
M02*
