G04 #@! TF.GenerationSoftware,KiCad,Pcbnew,(5.1.8)-1*
G04 #@! TF.CreationDate,2021-05-03T11:48:02+02:00*
G04 #@! TF.ProjectId,labAThome,6c616241-5468-46f6-9d65-2e6b69636164,rev?*
G04 #@! TF.SameCoordinates,Original*
G04 #@! TF.FileFunction,Legend,Bot*
G04 #@! TF.FilePolarity,Positive*
%FSLAX46Y46*%
G04 Gerber Fmt 4.6, Leading zero omitted, Abs format (unit mm)*
G04 Created by KiCad (PCBNEW (5.1.8)-1) date 2021-05-03 11:48:02*
%MOMM*%
%LPD*%
G01*
G04 APERTURE LIST*
%ADD10C,0.150000*%
%ADD11C,0.200000*%
%ADD12C,0.300000*%
%ADD13C,0.120000*%
%ADD14C,0.010000*%
%ADD15O,1.800000X2.200000*%
%ADD16R,1.050000X1.500000*%
%ADD17O,1.050000X1.500000*%
%ADD18R,1.230000X1.230000*%
%ADD19O,1.600000X2.000000*%
%ADD20O,1.700000X2.200000*%
%ADD21O,1.700000X1.700000*%
%ADD22R,1.700000X1.700000*%
%ADD23C,0.100000*%
%ADD24C,1.700000*%
%ADD25R,0.800000X1.900000*%
%ADD26O,2.030000X1.730000*%
%ADD27R,2.030000X1.730000*%
%ADD28R,1.800000X1.800000*%
%ADD29C,1.800000*%
%ADD30O,1.600000X2.400000*%
%ADD31R,1.600000X2.400000*%
%ADD32C,3.400000*%
%ADD33O,1.950000X1.700000*%
%ADD34R,2.200000X0.600000*%
%ADD35O,2.000000X1.905000*%
%ADD36R,2.000000X1.905000*%
%ADD37O,3.500000X3.500000*%
%ADD38R,2.200000X1.550000*%
%ADD39R,2.200000X2.500000*%
%ADD40O,2.200000X1.700000*%
%ADD41C,2.000000*%
%ADD42R,1.350000X4.200000*%
%ADD43C,1.524000*%
%ADD44R,1.800000X3.500000*%
%ADD45C,1.200000*%
%ADD46O,1.700000X1.950000*%
%ADD47O,2.200000X1.800000*%
%ADD48R,2.000000X2.000000*%
%ADD49R,2.000000X3.200000*%
%ADD50C,1.400000*%
%ADD51R,1.400000X1.400000*%
%ADD52O,3.048000X1.850000*%
%ADD53C,3.600000*%
%ADD54O,9.500000X7.500000*%
%ADD55O,1.850000X3.048000*%
%ADD56R,2.200000X1.800000*%
%ADD57R,3.500000X3.500000*%
G04 APERTURE END LIST*
D10*
X36052619Y-73223380D02*
X36100238Y-73271000D01*
X36195476Y-73318619D01*
X36433571Y-73318619D01*
X36528809Y-73271000D01*
X36576428Y-73223380D01*
X36624047Y-73128142D01*
X36624047Y-73032904D01*
X36576428Y-72890047D01*
X36005000Y-72318619D01*
X36624047Y-72318619D01*
X37481190Y-72985285D02*
X37481190Y-72318619D01*
X37243095Y-73366238D02*
X37005000Y-72651952D01*
X37624047Y-72651952D01*
X38005000Y-72413857D02*
X38052619Y-72366238D01*
X38005000Y-72318619D01*
X37957380Y-72366238D01*
X38005000Y-72413857D01*
X38005000Y-72318619D01*
X38957380Y-73318619D02*
X38481190Y-73318619D01*
X38433571Y-72842428D01*
X38481190Y-72890047D01*
X38576428Y-72937666D01*
X38814523Y-72937666D01*
X38909761Y-72890047D01*
X38957380Y-72842428D01*
X39005000Y-72747190D01*
X39005000Y-72509095D01*
X38957380Y-72413857D01*
X38909761Y-72366238D01*
X38814523Y-72318619D01*
X38576428Y-72318619D01*
X38481190Y-72366238D01*
X38433571Y-72413857D01*
X39433571Y-72413857D02*
X39481190Y-72366238D01*
X39433571Y-72318619D01*
X39385952Y-72366238D01*
X39433571Y-72413857D01*
X39433571Y-72318619D01*
X40433571Y-73271000D02*
X40338333Y-73318619D01*
X40195476Y-73318619D01*
X40052619Y-73271000D01*
X39957380Y-73175761D01*
X39909761Y-73080523D01*
X39862142Y-72890047D01*
X39862142Y-72747190D01*
X39909761Y-72556714D01*
X39957380Y-72461476D01*
X40052619Y-72366238D01*
X40195476Y-72318619D01*
X40290714Y-72318619D01*
X40433571Y-72366238D01*
X40481190Y-72413857D01*
X40481190Y-72747190D01*
X40290714Y-72747190D01*
X40909761Y-72318619D02*
X40909761Y-73318619D01*
X41481190Y-72318619D01*
X41481190Y-73318619D01*
X41957380Y-72318619D02*
X41957380Y-73318619D01*
X42195476Y-73318619D01*
X42338333Y-73271000D01*
X42433571Y-73175761D01*
X42481190Y-73080523D01*
X42528809Y-72890047D01*
X42528809Y-72747190D01*
X42481190Y-72556714D01*
X42433571Y-72461476D01*
X42338333Y-72366238D01*
X42195476Y-72318619D01*
X41957380Y-72318619D01*
X42957380Y-72413857D02*
X43005000Y-72366238D01*
X42957380Y-72318619D01*
X42909761Y-72366238D01*
X42957380Y-72413857D01*
X42957380Y-72318619D01*
X43338333Y-73318619D02*
X43957380Y-73318619D01*
X43624047Y-72937666D01*
X43766904Y-72937666D01*
X43862142Y-72890047D01*
X43909761Y-72842428D01*
X43957380Y-72747190D01*
X43957380Y-72509095D01*
X43909761Y-72413857D01*
X43862142Y-72366238D01*
X43766904Y-72318619D01*
X43481190Y-72318619D01*
X43385952Y-72366238D01*
X43338333Y-72413857D01*
D11*
X47135428Y-58011142D02*
X46992571Y-58082571D01*
X46754476Y-58082571D01*
X46659238Y-58011142D01*
X46611619Y-57939714D01*
X46564000Y-57796857D01*
X46564000Y-57654000D01*
X46611619Y-57511142D01*
X46659238Y-57439714D01*
X46754476Y-57368285D01*
X46944952Y-57296857D01*
X47040190Y-57225428D01*
X47087809Y-57154000D01*
X47135428Y-57011142D01*
X47135428Y-56868285D01*
X47087809Y-56725428D01*
X47040190Y-56654000D01*
X46944952Y-56582571D01*
X46706857Y-56582571D01*
X46564000Y-56654000D01*
X45564000Y-58082571D02*
X45897333Y-57368285D01*
X46135428Y-58082571D02*
X46135428Y-56582571D01*
X45754476Y-56582571D01*
X45659238Y-56654000D01*
X45611619Y-56725428D01*
X45564000Y-56868285D01*
X45564000Y-57082571D01*
X45611619Y-57225428D01*
X45659238Y-57296857D01*
X45754476Y-57368285D01*
X46135428Y-57368285D01*
X45278285Y-56582571D02*
X44944952Y-58082571D01*
X44611619Y-56582571D01*
X44325904Y-56725428D02*
X44278285Y-56654000D01*
X44183047Y-56582571D01*
X43944952Y-56582571D01*
X43849714Y-56654000D01*
X43802095Y-56725428D01*
X43754476Y-56868285D01*
X43754476Y-57011142D01*
X43802095Y-57225428D01*
X44373523Y-58082571D01*
X43754476Y-58082571D01*
X34477523Y-58011142D02*
X34334666Y-58082571D01*
X34096571Y-58082571D01*
X34001333Y-58011142D01*
X33953714Y-57939714D01*
X33906095Y-57796857D01*
X33906095Y-57654000D01*
X33953714Y-57511142D01*
X34001333Y-57439714D01*
X34096571Y-57368285D01*
X34287047Y-57296857D01*
X34382285Y-57225428D01*
X34429904Y-57154000D01*
X34477523Y-57011142D01*
X34477523Y-56868285D01*
X34429904Y-56725428D01*
X34382285Y-56654000D01*
X34287047Y-56582571D01*
X34048952Y-56582571D01*
X33906095Y-56654000D01*
X32906095Y-58082571D02*
X33239428Y-57368285D01*
X33477523Y-58082571D02*
X33477523Y-56582571D01*
X33096571Y-56582571D01*
X33001333Y-56654000D01*
X32953714Y-56725428D01*
X32906095Y-56868285D01*
X32906095Y-57082571D01*
X32953714Y-57225428D01*
X33001333Y-57296857D01*
X33096571Y-57368285D01*
X33477523Y-57368285D01*
X32620380Y-56582571D02*
X32287047Y-58082571D01*
X31953714Y-56582571D01*
X31096571Y-58082571D02*
X31668000Y-58082571D01*
X31382285Y-58082571D02*
X31382285Y-56582571D01*
X31477523Y-56796857D01*
X31572761Y-56939714D01*
X31668000Y-57011142D01*
X32912857Y-70500380D02*
X32912857Y-69738476D01*
X32912857Y-68500380D02*
X32912857Y-67738476D01*
X32341428Y-68119428D02*
X33484285Y-68119428D01*
X32412857Y-66548000D02*
X32341428Y-66405142D01*
X32341428Y-66167047D01*
X32412857Y-66071809D01*
X32484285Y-66024190D01*
X32627142Y-65976571D01*
X32770000Y-65976571D01*
X32912857Y-66024190D01*
X32984285Y-66071809D01*
X33055714Y-66167047D01*
X33127142Y-66357523D01*
X33198571Y-66452761D01*
X33270000Y-66500380D01*
X33412857Y-66548000D01*
X33555714Y-66548000D01*
X33698571Y-66500380D01*
X33770000Y-66452761D01*
X33841428Y-66357523D01*
X33841428Y-66119428D01*
X33770000Y-65976571D01*
X32412857Y-65167047D02*
X32341428Y-65262285D01*
X32341428Y-65452761D01*
X32412857Y-65548000D01*
X32555714Y-65595619D01*
X33127142Y-65595619D01*
X33270000Y-65548000D01*
X33341428Y-65452761D01*
X33341428Y-65262285D01*
X33270000Y-65167047D01*
X33127142Y-65119428D01*
X32984285Y-65119428D01*
X32841428Y-65595619D01*
X33341428Y-64690857D02*
X32341428Y-64690857D01*
X33198571Y-64690857D02*
X33270000Y-64643238D01*
X33341428Y-64548000D01*
X33341428Y-64405142D01*
X33270000Y-64309904D01*
X33127142Y-64262285D01*
X32341428Y-64262285D01*
X32412857Y-63833714D02*
X32341428Y-63738476D01*
X32341428Y-63548000D01*
X32412857Y-63452761D01*
X32555714Y-63405142D01*
X32627142Y-63405142D01*
X32770000Y-63452761D01*
X32841428Y-63548000D01*
X32841428Y-63690857D01*
X32912857Y-63786095D01*
X33055714Y-63833714D01*
X33127142Y-63833714D01*
X33270000Y-63786095D01*
X33341428Y-63690857D01*
X33341428Y-63548000D01*
X33270000Y-63452761D01*
X32412857Y-62595619D02*
X32341428Y-62690857D01*
X32341428Y-62881333D01*
X32412857Y-62976571D01*
X32555714Y-63024190D01*
X33127142Y-63024190D01*
X33270000Y-62976571D01*
X33341428Y-62881333D01*
X33341428Y-62690857D01*
X33270000Y-62595619D01*
X33127142Y-62548000D01*
X32984285Y-62548000D01*
X32841428Y-63024190D01*
X56771904Y-76495000D02*
X56676666Y-76542619D01*
X56533809Y-76542619D01*
X56390952Y-76495000D01*
X56295714Y-76399761D01*
X56248095Y-76304523D01*
X56200476Y-76114047D01*
X56200476Y-75971190D01*
X56248095Y-75780714D01*
X56295714Y-75685476D01*
X56390952Y-75590238D01*
X56533809Y-75542619D01*
X56629047Y-75542619D01*
X56771904Y-75590238D01*
X56819523Y-75637857D01*
X56819523Y-75971190D01*
X56629047Y-75971190D01*
X57629047Y-75590238D02*
X57533809Y-75542619D01*
X57343333Y-75542619D01*
X57248095Y-75590238D01*
X57200476Y-75685476D01*
X57200476Y-76066428D01*
X57248095Y-76161666D01*
X57343333Y-76209285D01*
X57533809Y-76209285D01*
X57629047Y-76161666D01*
X57676666Y-76066428D01*
X57676666Y-75971190D01*
X57200476Y-75875952D01*
X58533809Y-76209285D02*
X58533809Y-75399761D01*
X58486190Y-75304523D01*
X58438571Y-75256904D01*
X58343333Y-75209285D01*
X58200476Y-75209285D01*
X58105238Y-75256904D01*
X58533809Y-75590238D02*
X58438571Y-75542619D01*
X58248095Y-75542619D01*
X58152857Y-75590238D01*
X58105238Y-75637857D01*
X58057619Y-75733095D01*
X58057619Y-76018809D01*
X58105238Y-76114047D01*
X58152857Y-76161666D01*
X58248095Y-76209285D01*
X58438571Y-76209285D01*
X58533809Y-76161666D01*
X59390952Y-75590238D02*
X59295714Y-75542619D01*
X59105238Y-75542619D01*
X59010000Y-75590238D01*
X58962380Y-75685476D01*
X58962380Y-76066428D01*
X59010000Y-76161666D01*
X59105238Y-76209285D01*
X59295714Y-76209285D01*
X59390952Y-76161666D01*
X59438571Y-76066428D01*
X59438571Y-75971190D01*
X58962380Y-75875952D01*
X59867142Y-76209285D02*
X59867142Y-75542619D01*
X59867142Y-76114047D02*
X59914761Y-76161666D01*
X60010000Y-76209285D01*
X60152857Y-76209285D01*
X60248095Y-76161666D01*
X60295714Y-76066428D01*
X60295714Y-75542619D01*
X60724285Y-75590238D02*
X60819523Y-75542619D01*
X61010000Y-75542619D01*
X61105238Y-75590238D01*
X61152857Y-75685476D01*
X61152857Y-75733095D01*
X61105238Y-75828333D01*
X61010000Y-75875952D01*
X60867142Y-75875952D01*
X60771904Y-75923571D01*
X60724285Y-76018809D01*
X60724285Y-76066428D01*
X60771904Y-76161666D01*
X60867142Y-76209285D01*
X61010000Y-76209285D01*
X61105238Y-76161666D01*
X61962380Y-75590238D02*
X61867142Y-75542619D01*
X61676666Y-75542619D01*
X61581428Y-75590238D01*
X61533809Y-75685476D01*
X61533809Y-76066428D01*
X61581428Y-76161666D01*
X61676666Y-76209285D01*
X61867142Y-76209285D01*
X61962380Y-76161666D01*
X62010000Y-76066428D01*
X62010000Y-75971190D01*
X61533809Y-75875952D01*
X62438571Y-75542619D02*
X62438571Y-76209285D01*
X62438571Y-76542619D02*
X62390952Y-76495000D01*
X62438571Y-76447380D01*
X62486190Y-76495000D01*
X62438571Y-76542619D01*
X62438571Y-76447380D01*
X62771904Y-76209285D02*
X63152857Y-76209285D01*
X62914761Y-76542619D02*
X62914761Y-75685476D01*
X62962380Y-75590238D01*
X63057619Y-75542619D01*
X63152857Y-75542619D01*
X63486190Y-75542619D02*
X63486190Y-76209285D01*
X63486190Y-76542619D02*
X63438571Y-76495000D01*
X63486190Y-76447380D01*
X63533809Y-76495000D01*
X63486190Y-76542619D01*
X63486190Y-76447380D01*
X64390952Y-76209285D02*
X64390952Y-75399761D01*
X64343333Y-75304523D01*
X64295714Y-75256904D01*
X64200476Y-75209285D01*
X64057619Y-75209285D01*
X63962380Y-75256904D01*
X64390952Y-75590238D02*
X64295714Y-75542619D01*
X64105238Y-75542619D01*
X64009999Y-75590238D01*
X63962380Y-75637857D01*
X63914761Y-75733095D01*
X63914761Y-76018809D01*
X63962380Y-76114047D01*
X64009999Y-76161666D01*
X64105238Y-76209285D01*
X64295714Y-76209285D01*
X64390952Y-76161666D01*
X65248095Y-75590238D02*
X65152857Y-75542619D01*
X64962380Y-75542619D01*
X64867142Y-75590238D01*
X64819523Y-75685476D01*
X64819523Y-76066428D01*
X64867142Y-76161666D01*
X64962380Y-76209285D01*
X65152857Y-76209285D01*
X65248095Y-76161666D01*
X65295714Y-76066428D01*
X65295714Y-75971190D01*
X64819523Y-75875952D01*
X65724285Y-75542619D02*
X65724285Y-76209285D01*
X65724285Y-76018809D02*
X65771904Y-76114047D01*
X65819523Y-76161666D01*
X65914761Y-76209285D01*
X66009999Y-76209285D01*
X67057619Y-75828333D02*
X67533809Y-75828333D01*
X66962380Y-75542619D02*
X67295714Y-76542619D01*
X67629047Y-75542619D01*
X68390952Y-76209285D02*
X68390952Y-75542619D01*
X67962380Y-76209285D02*
X67962380Y-75685476D01*
X68010000Y-75590238D01*
X68105238Y-75542619D01*
X68248095Y-75542619D01*
X68343333Y-75590238D01*
X68390952Y-75637857D01*
X68819523Y-75590238D02*
X68914761Y-75542619D01*
X69105238Y-75542619D01*
X69200476Y-75590238D01*
X69248095Y-75685476D01*
X69248095Y-75733095D01*
X69200476Y-75828333D01*
X69105238Y-75875952D01*
X68962380Y-75875952D01*
X68867142Y-75923571D01*
X68819523Y-76018809D01*
X68819523Y-76066428D01*
X68867142Y-76161666D01*
X68962380Y-76209285D01*
X69105238Y-76209285D01*
X69200476Y-76161666D01*
X69629047Y-75590238D02*
X69724285Y-75542619D01*
X69914761Y-75542619D01*
X70010000Y-75590238D01*
X70057619Y-75685476D01*
X70057619Y-75733095D01*
X70010000Y-75828333D01*
X69914761Y-75875952D01*
X69771904Y-75875952D01*
X69676666Y-75923571D01*
X69629047Y-76018809D01*
X69629047Y-76066428D01*
X69676666Y-76161666D01*
X69771904Y-76209285D01*
X69914761Y-76209285D01*
X70010000Y-76161666D01*
X70914761Y-75590238D02*
X70819523Y-75542619D01*
X70629047Y-75542619D01*
X70533809Y-75590238D01*
X70486190Y-75637857D01*
X70438571Y-75733095D01*
X70438571Y-76018809D01*
X70486190Y-76114047D01*
X70533809Y-76161666D01*
X70629047Y-76209285D01*
X70819523Y-76209285D01*
X70914761Y-76161666D01*
X71343333Y-75542619D02*
X71343333Y-76542619D01*
X71771904Y-75542619D02*
X71771904Y-76066428D01*
X71724285Y-76161666D01*
X71629047Y-76209285D01*
X71486190Y-76209285D01*
X71390952Y-76161666D01*
X71343333Y-76114047D01*
X72390952Y-75542619D02*
X72295714Y-75590238D01*
X72248095Y-75685476D01*
X72248095Y-76542619D01*
X73200476Y-76209285D02*
X73200476Y-75542619D01*
X72771904Y-76209285D02*
X72771904Y-75685476D01*
X72819523Y-75590238D01*
X72914761Y-75542619D01*
X73057619Y-75542619D01*
X73152857Y-75590238D01*
X73200476Y-75637857D01*
X73629047Y-75590238D02*
X73724285Y-75542619D01*
X73914761Y-75542619D01*
X74010000Y-75590238D01*
X74057619Y-75685476D01*
X74057619Y-75733095D01*
X74010000Y-75828333D01*
X73914761Y-75875952D01*
X73771904Y-75875952D01*
X73676666Y-75923571D01*
X73629047Y-76018809D01*
X73629047Y-76066428D01*
X73676666Y-76161666D01*
X73771904Y-76209285D01*
X73914761Y-76209285D01*
X74010000Y-76161666D01*
X74438571Y-75590238D02*
X74533809Y-75542619D01*
X74724285Y-75542619D01*
X74819523Y-75590238D01*
X74867142Y-75685476D01*
X74867142Y-75733095D01*
X74819523Y-75828333D01*
X74724285Y-75875952D01*
X74581428Y-75875952D01*
X74486190Y-75923571D01*
X74438571Y-76018809D01*
X74438571Y-76066428D01*
X74486190Y-76161666D01*
X74581428Y-76209285D01*
X74724285Y-76209285D01*
X74819523Y-76161666D01*
X75295714Y-75637857D02*
X75343333Y-75590238D01*
X75295714Y-75542619D01*
X75248095Y-75590238D01*
X75295714Y-75637857D01*
X75295714Y-75542619D01*
X75295714Y-76161666D02*
X75343333Y-76114047D01*
X75295714Y-76066428D01*
X75248095Y-76114047D01*
X75295714Y-76161666D01*
X75295714Y-76066428D01*
X56248095Y-74223571D02*
X57010000Y-74223571D01*
X58200476Y-73890238D02*
X58343333Y-73842619D01*
X58581428Y-73842619D01*
X58676666Y-73890238D01*
X58724285Y-73937857D01*
X58771904Y-74033095D01*
X58771904Y-74128333D01*
X58724285Y-74223571D01*
X58676666Y-74271190D01*
X58581428Y-74318809D01*
X58390952Y-74366428D01*
X58295714Y-74414047D01*
X58248095Y-74461666D01*
X58200476Y-74556904D01*
X58200476Y-74652142D01*
X58248095Y-74747380D01*
X58295714Y-74795000D01*
X58390952Y-74842619D01*
X58629047Y-74842619D01*
X58771904Y-74795000D01*
X59200476Y-74366428D02*
X59533809Y-74366428D01*
X59676666Y-73842619D02*
X59200476Y-73842619D01*
X59200476Y-74842619D01*
X59676666Y-74842619D01*
X60676666Y-73842619D02*
X60343333Y-74318809D01*
X60105238Y-73842619D02*
X60105238Y-74842619D01*
X60486190Y-74842619D01*
X60581428Y-74795000D01*
X60629047Y-74747380D01*
X60676666Y-74652142D01*
X60676666Y-74509285D01*
X60629047Y-74414047D01*
X60581428Y-74366428D01*
X60486190Y-74318809D01*
X60105238Y-74318809D01*
X60962380Y-74842619D02*
X61295714Y-73842619D01*
X61629047Y-74842619D01*
X62152857Y-74842619D02*
X62343333Y-74842619D01*
X62438571Y-74795000D01*
X62533809Y-74699761D01*
X62581428Y-74509285D01*
X62581428Y-74175952D01*
X62533809Y-73985476D01*
X62438571Y-73890238D01*
X62343333Y-73842619D01*
X62152857Y-73842619D01*
X62057619Y-73890238D01*
X61962380Y-73985476D01*
X61914761Y-74175952D01*
X61914761Y-74509285D01*
X61962380Y-74699761D01*
X62057619Y-74795000D01*
X62152857Y-74842619D01*
X62962380Y-74747380D02*
X63010000Y-74795000D01*
X63105238Y-74842619D01*
X63343333Y-74842619D01*
X63438571Y-74795000D01*
X63486190Y-74747380D01*
X63533809Y-74652142D01*
X63533809Y-74556904D01*
X63486190Y-74414047D01*
X62914761Y-73842619D01*
X63533809Y-73842619D01*
X64010000Y-73890238D02*
X64010000Y-73842619D01*
X63962380Y-73747380D01*
X63914761Y-73699761D01*
X64771904Y-74366428D02*
X64438571Y-74366428D01*
X64438571Y-73842619D02*
X64438571Y-74842619D01*
X64914761Y-74842619D01*
X65248095Y-74128333D02*
X65724285Y-74128333D01*
X65152857Y-73842619D02*
X65486190Y-74842619D01*
X65819523Y-73842619D01*
X66152857Y-73842619D02*
X66152857Y-74842619D01*
X66724285Y-73842619D01*
X66724285Y-74842619D01*
X67724285Y-73842619D02*
X67152857Y-73842619D01*
X67438571Y-73842619D02*
X67438571Y-74842619D01*
X67343333Y-74699761D01*
X67248095Y-74604523D01*
X67152857Y-74556904D01*
X67914761Y-73747380D02*
X68676666Y-73747380D01*
X68867142Y-73890238D02*
X69010000Y-73842619D01*
X69248095Y-73842619D01*
X69343333Y-73890238D01*
X69390952Y-73937857D01*
X69438571Y-74033095D01*
X69438571Y-74128333D01*
X69390952Y-74223571D01*
X69343333Y-74271190D01*
X69248095Y-74318809D01*
X69057619Y-74366428D01*
X68962380Y-74414047D01*
X68914761Y-74461666D01*
X68867142Y-74556904D01*
X68867142Y-74652142D01*
X68914761Y-74747380D01*
X68962380Y-74795000D01*
X69057619Y-74842619D01*
X69295714Y-74842619D01*
X69438571Y-74795000D01*
X69867142Y-74366428D02*
X70200476Y-74366428D01*
X70343333Y-73842619D02*
X69867142Y-73842619D01*
X69867142Y-74842619D01*
X70343333Y-74842619D01*
X70771904Y-73842619D02*
X70771904Y-74842619D01*
X71343333Y-73842619D01*
X71343333Y-74842619D01*
X71771904Y-73890238D02*
X71914761Y-73842619D01*
X72152857Y-73842619D01*
X72248095Y-73890238D01*
X72295714Y-73937857D01*
X72343333Y-74033095D01*
X72343333Y-74128333D01*
X72295714Y-74223571D01*
X72248095Y-74271190D01*
X72152857Y-74318809D01*
X71962380Y-74366428D01*
X71867142Y-74414047D01*
X71819523Y-74461666D01*
X71771904Y-74556904D01*
X71771904Y-74652142D01*
X71819523Y-74747380D01*
X71867142Y-74795000D01*
X71962380Y-74842619D01*
X72200476Y-74842619D01*
X72343333Y-74795000D01*
X72771904Y-74366428D02*
X73105238Y-74366428D01*
X73248095Y-73842619D02*
X72771904Y-73842619D01*
X72771904Y-74842619D01*
X73248095Y-74842619D01*
X56248095Y-72523571D02*
X57010000Y-72523571D01*
X58200476Y-72190238D02*
X58343333Y-72142619D01*
X58581428Y-72142619D01*
X58676666Y-72190238D01*
X58724285Y-72237857D01*
X58771904Y-72333095D01*
X58771904Y-72428333D01*
X58724285Y-72523571D01*
X58676666Y-72571190D01*
X58581428Y-72618809D01*
X58390952Y-72666428D01*
X58295714Y-72714047D01*
X58248095Y-72761666D01*
X58200476Y-72856904D01*
X58200476Y-72952142D01*
X58248095Y-73047380D01*
X58295714Y-73095000D01*
X58390952Y-73142619D01*
X58629047Y-73142619D01*
X58771904Y-73095000D01*
X59200476Y-72666428D02*
X59533809Y-72666428D01*
X59676666Y-72142619D02*
X59200476Y-72142619D01*
X59200476Y-73142619D01*
X59676666Y-73142619D01*
X60676666Y-72142619D02*
X60343333Y-72618809D01*
X60105238Y-72142619D02*
X60105238Y-73142619D01*
X60486190Y-73142619D01*
X60581428Y-73095000D01*
X60629047Y-73047380D01*
X60676666Y-72952142D01*
X60676666Y-72809285D01*
X60629047Y-72714047D01*
X60581428Y-72666428D01*
X60486190Y-72618809D01*
X60105238Y-72618809D01*
X60962380Y-73142619D02*
X61295714Y-72142619D01*
X61629047Y-73142619D01*
X62152857Y-73142619D02*
X62343333Y-73142619D01*
X62438571Y-73095000D01*
X62533809Y-72999761D01*
X62581428Y-72809285D01*
X62581428Y-72475952D01*
X62533809Y-72285476D01*
X62438571Y-72190238D01*
X62343333Y-72142619D01*
X62152857Y-72142619D01*
X62057619Y-72190238D01*
X61962380Y-72285476D01*
X61914761Y-72475952D01*
X61914761Y-72809285D01*
X61962380Y-72999761D01*
X62057619Y-73095000D01*
X62152857Y-73142619D01*
X63533809Y-72142619D02*
X62962380Y-72142619D01*
X63248095Y-72142619D02*
X63248095Y-73142619D01*
X63152857Y-72999761D01*
X63057619Y-72904523D01*
X62962380Y-72856904D01*
X64009999Y-72190238D02*
X64009999Y-72142619D01*
X63962380Y-72047380D01*
X63914761Y-71999761D01*
X64438571Y-72142619D02*
X64438571Y-73142619D01*
X64867142Y-73047380D02*
X64914761Y-73095000D01*
X65009999Y-73142619D01*
X65248095Y-73142619D01*
X65343333Y-73095000D01*
X65390952Y-73047380D01*
X65438571Y-72952142D01*
X65438571Y-72856904D01*
X65390952Y-72714047D01*
X64819523Y-72142619D01*
X65438571Y-72142619D01*
X65819523Y-72190238D02*
X65962380Y-72142619D01*
X66200476Y-72142619D01*
X66295714Y-72190238D01*
X66343333Y-72237857D01*
X66390952Y-72333095D01*
X66390952Y-72428333D01*
X66343333Y-72523571D01*
X66295714Y-72571190D01*
X66200476Y-72618809D01*
X66009999Y-72666428D01*
X65914761Y-72714047D01*
X65867142Y-72761666D01*
X65819523Y-72856904D01*
X65819523Y-72952142D01*
X65867142Y-73047380D01*
X65914761Y-73095000D01*
X66009999Y-73142619D01*
X66248095Y-73142619D01*
X66390952Y-73095000D01*
X66867142Y-72190238D02*
X66867142Y-72142619D01*
X66819523Y-72047380D01*
X66771904Y-71999761D01*
X67867142Y-72142619D02*
X67533809Y-72618809D01*
X67295714Y-72142619D02*
X67295714Y-73142619D01*
X67676666Y-73142619D01*
X67771904Y-73095000D01*
X67819523Y-73047380D01*
X67867142Y-72952142D01*
X67867142Y-72809285D01*
X67819523Y-72714047D01*
X67771904Y-72666428D01*
X67676666Y-72618809D01*
X67295714Y-72618809D01*
X68248095Y-72190238D02*
X68390952Y-72142619D01*
X68629047Y-72142619D01*
X68724285Y-72190238D01*
X68771904Y-72237857D01*
X68819523Y-72333095D01*
X68819523Y-72428333D01*
X68771904Y-72523571D01*
X68724285Y-72571190D01*
X68629047Y-72618809D01*
X68438571Y-72666428D01*
X68343333Y-72714047D01*
X68295714Y-72761666D01*
X68248095Y-72856904D01*
X68248095Y-72952142D01*
X68295714Y-73047380D01*
X68343333Y-73095000D01*
X68438571Y-73142619D01*
X68676666Y-73142619D01*
X68819523Y-73095000D01*
X69676666Y-72809285D02*
X69676666Y-72142619D01*
X69438571Y-73190238D02*
X69200476Y-72475952D01*
X69819523Y-72475952D01*
X70343333Y-72714047D02*
X70248095Y-72761666D01*
X70200476Y-72809285D01*
X70152857Y-72904523D01*
X70152857Y-72952142D01*
X70200476Y-73047380D01*
X70248095Y-73095000D01*
X70343333Y-73142619D01*
X70533809Y-73142619D01*
X70629047Y-73095000D01*
X70676666Y-73047380D01*
X70724285Y-72952142D01*
X70724285Y-72904523D01*
X70676666Y-72809285D01*
X70629047Y-72761666D01*
X70533809Y-72714047D01*
X70343333Y-72714047D01*
X70248095Y-72666428D01*
X70200476Y-72618809D01*
X70152857Y-72523571D01*
X70152857Y-72333095D01*
X70200476Y-72237857D01*
X70248095Y-72190238D01*
X70343333Y-72142619D01*
X70533809Y-72142619D01*
X70629047Y-72190238D01*
X70676666Y-72237857D01*
X70724285Y-72333095D01*
X70724285Y-72523571D01*
X70676666Y-72618809D01*
X70629047Y-72666428D01*
X70533809Y-72714047D01*
X71629047Y-73142619D02*
X71152857Y-73142619D01*
X71105238Y-72666428D01*
X71152857Y-72714047D01*
X71248095Y-72761666D01*
X71486190Y-72761666D01*
X71581428Y-72714047D01*
X71629047Y-72666428D01*
X71676666Y-72571190D01*
X71676666Y-72333095D01*
X71629047Y-72237857D01*
X71581428Y-72190238D01*
X71486190Y-72142619D01*
X71248095Y-72142619D01*
X71152857Y-72190238D01*
X71105238Y-72237857D01*
X72152857Y-72190238D02*
X72152857Y-72142619D01*
X72105238Y-72047380D01*
X72057619Y-71999761D01*
X73152857Y-72237857D02*
X73105238Y-72190238D01*
X72962380Y-72142619D01*
X72867142Y-72142619D01*
X72724285Y-72190238D01*
X72629047Y-72285476D01*
X72581428Y-72380714D01*
X72533809Y-72571190D01*
X72533809Y-72714047D01*
X72581428Y-72904523D01*
X72629047Y-72999761D01*
X72724285Y-73095000D01*
X72867142Y-73142619D01*
X72962380Y-73142619D01*
X73105238Y-73095000D01*
X73152857Y-73047380D01*
X73533809Y-72428333D02*
X74010000Y-72428333D01*
X73438571Y-72142619D02*
X73771904Y-73142619D01*
X74105238Y-72142619D01*
X74438571Y-72142619D02*
X74438571Y-73142619D01*
X75010000Y-72142619D01*
X75010000Y-73142619D01*
X75533809Y-72190238D02*
X75533809Y-72142619D01*
X75486190Y-72047380D01*
X75438571Y-71999761D01*
X75962380Y-72666428D02*
X76295714Y-72666428D01*
X76438571Y-72142619D02*
X75962380Y-72142619D01*
X75962380Y-73142619D01*
X76438571Y-73142619D01*
X76771904Y-73142619D02*
X77438571Y-72142619D01*
X77438571Y-73142619D02*
X76771904Y-72142619D01*
X77676666Y-73142619D02*
X78248095Y-73142619D01*
X77962380Y-72142619D02*
X77962380Y-73142619D01*
X97892428Y-61699857D02*
X98368619Y-61699857D01*
X98416238Y-62271285D01*
X98368619Y-62214142D01*
X98273380Y-62157000D01*
X98035285Y-62157000D01*
X97940047Y-62214142D01*
X97892428Y-62271285D01*
X97844809Y-62385571D01*
X97844809Y-62671285D01*
X97892428Y-62785571D01*
X97940047Y-62842714D01*
X98035285Y-62899857D01*
X98273380Y-62899857D01*
X98368619Y-62842714D01*
X98416238Y-62785571D01*
X97559095Y-61699857D02*
X97225761Y-62899857D01*
X96892428Y-61699857D01*
X95892428Y-61699857D02*
X95273380Y-61699857D01*
X95606714Y-62157000D01*
X95463857Y-62157000D01*
X95368619Y-62214142D01*
X95321000Y-62271285D01*
X95273380Y-62385571D01*
X95273380Y-62671285D01*
X95321000Y-62785571D01*
X95368619Y-62842714D01*
X95463857Y-62899857D01*
X95749571Y-62899857D01*
X95844809Y-62842714D01*
X95892428Y-62785571D01*
X94987666Y-61699857D02*
X94654333Y-62899857D01*
X94321000Y-61699857D01*
X94082904Y-61699857D02*
X93463857Y-61699857D01*
X93797190Y-62157000D01*
X93654333Y-62157000D01*
X93559095Y-62214142D01*
X93511476Y-62271285D01*
X93463857Y-62385571D01*
X93463857Y-62671285D01*
X93511476Y-62785571D01*
X93559095Y-62842714D01*
X93654333Y-62899857D01*
X93940047Y-62899857D01*
X94035285Y-62842714D01*
X94082904Y-62785571D01*
X91749571Y-61757000D02*
X91844809Y-61699857D01*
X91987666Y-61699857D01*
X92130523Y-61757000D01*
X92225761Y-61871285D01*
X92273380Y-61985571D01*
X92321000Y-62214142D01*
X92321000Y-62385571D01*
X92273380Y-62614142D01*
X92225761Y-62728428D01*
X92130523Y-62842714D01*
X91987666Y-62899857D01*
X91892428Y-62899857D01*
X91749571Y-62842714D01*
X91701952Y-62785571D01*
X91701952Y-62385571D01*
X91892428Y-62385571D01*
X91273380Y-62899857D02*
X91273380Y-61699857D01*
X90701952Y-62899857D01*
X90701952Y-61699857D01*
X89511476Y-62842714D02*
X89368619Y-62899857D01*
X89130523Y-62899857D01*
X89035285Y-62842714D01*
X88987666Y-62785571D01*
X88940047Y-62671285D01*
X88940047Y-62557000D01*
X88987666Y-62442714D01*
X89035285Y-62385571D01*
X89130523Y-62328428D01*
X89321000Y-62271285D01*
X89416238Y-62214142D01*
X89463857Y-62157000D01*
X89511476Y-62042714D01*
X89511476Y-61928428D01*
X89463857Y-61814142D01*
X89416238Y-61757000D01*
X89321000Y-61699857D01*
X89082904Y-61699857D01*
X88940047Y-61757000D01*
X87940047Y-62785571D02*
X87987666Y-62842714D01*
X88130523Y-62899857D01*
X88225761Y-62899857D01*
X88368619Y-62842714D01*
X88463857Y-62728428D01*
X88511476Y-62614142D01*
X88559095Y-62385571D01*
X88559095Y-62214142D01*
X88511476Y-61985571D01*
X88463857Y-61871285D01*
X88368619Y-61757000D01*
X88225761Y-61699857D01*
X88130523Y-61699857D01*
X87987666Y-61757000D01*
X87940047Y-61814142D01*
X86797190Y-62842714D02*
X86654333Y-62899857D01*
X86416238Y-62899857D01*
X86321000Y-62842714D01*
X86273380Y-62785571D01*
X86225761Y-62671285D01*
X86225761Y-62557000D01*
X86273380Y-62442714D01*
X86321000Y-62385571D01*
X86416238Y-62328428D01*
X86606714Y-62271285D01*
X86701952Y-62214142D01*
X86749571Y-62157000D01*
X86797190Y-62042714D01*
X86797190Y-61928428D01*
X86749571Y-61814142D01*
X86701952Y-61757000D01*
X86606714Y-61699857D01*
X86368619Y-61699857D01*
X86225761Y-61757000D01*
X85797190Y-62899857D02*
X85797190Y-61699857D01*
X85559095Y-61699857D01*
X85416238Y-61757000D01*
X85321000Y-61871285D01*
X85273380Y-61985571D01*
X85225761Y-62214142D01*
X85225761Y-62385571D01*
X85273380Y-62614142D01*
X85321000Y-62728428D01*
X85416238Y-62842714D01*
X85559095Y-62899857D01*
X85797190Y-62899857D01*
X43563619Y-60622571D02*
X43563619Y-59122571D01*
X43182666Y-59122571D01*
X43087428Y-59194000D01*
X43039809Y-59265428D01*
X42992190Y-59408285D01*
X42992190Y-59622571D01*
X43039809Y-59765428D01*
X43087428Y-59836857D01*
X43182666Y-59908285D01*
X43563619Y-59908285D01*
X42658857Y-59122571D02*
X42420761Y-60622571D01*
X42230285Y-59551142D01*
X42039809Y-60622571D01*
X41801714Y-59122571D01*
X41420761Y-60622571D02*
X41420761Y-59122571D01*
X41087428Y-60194000D01*
X40754095Y-59122571D01*
X40754095Y-60622571D01*
X41611238Y-56582571D02*
X42087428Y-56582571D01*
X42135047Y-57296857D01*
X42087428Y-57225428D01*
X41992190Y-57154000D01*
X41754095Y-57154000D01*
X41658857Y-57225428D01*
X41611238Y-57296857D01*
X41563619Y-57439714D01*
X41563619Y-57796857D01*
X41611238Y-57939714D01*
X41658857Y-58011142D01*
X41754095Y-58082571D01*
X41992190Y-58082571D01*
X42087428Y-58011142D01*
X42135047Y-57939714D01*
X41277904Y-56582571D02*
X40944571Y-58082571D01*
X40611238Y-56582571D01*
X42801714Y-54114000D02*
X42896952Y-54042571D01*
X43039809Y-54042571D01*
X43182666Y-54114000D01*
X43277904Y-54256857D01*
X43325523Y-54399714D01*
X43373142Y-54685428D01*
X43373142Y-54899714D01*
X43325523Y-55185428D01*
X43277904Y-55328285D01*
X43182666Y-55471142D01*
X43039809Y-55542571D01*
X42944571Y-55542571D01*
X42801714Y-55471142D01*
X42754095Y-55399714D01*
X42754095Y-54899714D01*
X42944571Y-54899714D01*
X42325523Y-55542571D02*
X42325523Y-54042571D01*
X41754095Y-55542571D01*
X41754095Y-54042571D01*
X41277904Y-55542571D02*
X41277904Y-54042571D01*
X41039809Y-54042571D01*
X40896952Y-54114000D01*
X40801714Y-54256857D01*
X40754095Y-54399714D01*
X40706476Y-54685428D01*
X40706476Y-54899714D01*
X40754095Y-55185428D01*
X40801714Y-55328285D01*
X40896952Y-55471142D01*
X41039809Y-55542571D01*
X41277904Y-55542571D01*
D12*
X73279142Y-107783285D02*
X75564857Y-107783285D01*
X73279142Y-125944285D02*
X75564857Y-125944285D01*
X74422000Y-127087142D02*
X74422000Y-124801428D01*
D10*
X43053095Y-34686857D02*
X44576904Y-34686857D01*
X43815000Y-35448761D02*
X43815000Y-33924952D01*
D12*
X35576285Y-45069238D02*
X34719142Y-45069238D01*
X35147714Y-45069238D02*
X35147714Y-47069238D01*
X35004857Y-46783523D01*
X34862000Y-46593047D01*
X34719142Y-46497809D01*
X36433428Y-46212095D02*
X36290571Y-46307333D01*
X36219142Y-46402571D01*
X36147714Y-46593047D01*
X36147714Y-46688285D01*
X36219142Y-46878761D01*
X36290571Y-46974000D01*
X36433428Y-47069238D01*
X36719142Y-47069238D01*
X36862000Y-46974000D01*
X36933428Y-46878761D01*
X37004857Y-46688285D01*
X37004857Y-46593047D01*
X36933428Y-46402571D01*
X36862000Y-46307333D01*
X36719142Y-46212095D01*
X36433428Y-46212095D01*
X36290571Y-46116857D01*
X36219142Y-46021619D01*
X36147714Y-45831142D01*
X36147714Y-45450190D01*
X36219142Y-45259714D01*
X36290571Y-45164476D01*
X36433428Y-45069238D01*
X36719142Y-45069238D01*
X36862000Y-45164476D01*
X36933428Y-45259714D01*
X37004857Y-45450190D01*
X37004857Y-45831142D01*
X36933428Y-46021619D01*
X36862000Y-46116857D01*
X36719142Y-46212095D01*
X37647714Y-45831142D02*
X38790571Y-45831142D01*
X39433428Y-46878761D02*
X39504857Y-46974000D01*
X39647714Y-47069238D01*
X40004857Y-47069238D01*
X40147714Y-46974000D01*
X40219142Y-46878761D01*
X40290571Y-46688285D01*
X40290571Y-46497809D01*
X40219142Y-46212095D01*
X39362000Y-45069238D01*
X40290571Y-45069238D01*
X41576285Y-46402571D02*
X41576285Y-45069238D01*
X41219142Y-47164476D02*
X40862000Y-45735904D01*
X41790571Y-45735904D01*
X42147714Y-47069238D02*
X42647714Y-45069238D01*
X43147714Y-47069238D01*
D10*
X64953571Y-79923809D02*
X64953571Y-79590476D01*
X65477380Y-79590476D02*
X64477380Y-79590476D01*
X64477380Y-80066666D01*
X64810714Y-80876190D02*
X65477380Y-80876190D01*
X64810714Y-80447619D02*
X65334523Y-80447619D01*
X65429761Y-80495238D01*
X65477380Y-80590476D01*
X65477380Y-80733333D01*
X65429761Y-80828571D01*
X65382142Y-80876190D01*
X64477380Y-80495238D02*
X64525000Y-80542857D01*
X64572619Y-80495238D01*
X64525000Y-80447619D01*
X64477380Y-80495238D01*
X64572619Y-80495238D01*
X64477380Y-80876190D02*
X64525000Y-80923809D01*
X64572619Y-80876190D01*
X64525000Y-80828571D01*
X64477380Y-80876190D01*
X64572619Y-80876190D01*
X65477380Y-81352380D02*
X64810714Y-81352380D01*
X65001190Y-81352380D02*
X64905952Y-81400000D01*
X64858333Y-81447619D01*
X64810714Y-81542857D01*
X64810714Y-81638095D01*
X65477380Y-83209523D02*
X65477380Y-82733333D01*
X64477380Y-82733333D01*
X65429761Y-83923809D02*
X65477380Y-83828571D01*
X65477380Y-83638095D01*
X65429761Y-83542857D01*
X65334523Y-83495238D01*
X64953571Y-83495238D01*
X64858333Y-83542857D01*
X64810714Y-83638095D01*
X64810714Y-83828571D01*
X64858333Y-83923809D01*
X64953571Y-83971428D01*
X65048809Y-83971428D01*
X65144047Y-83495238D01*
X65477380Y-84400000D02*
X64477380Y-84400000D01*
X65477380Y-84828571D02*
X64953571Y-84828571D01*
X64858333Y-84780952D01*
X64810714Y-84685714D01*
X64810714Y-84542857D01*
X64858333Y-84447619D01*
X64905952Y-84400000D01*
X65477380Y-85304761D02*
X64810714Y-85304761D01*
X65001190Y-85304761D02*
X64905952Y-85352380D01*
X64858333Y-85400000D01*
X64810714Y-85495238D01*
X64810714Y-85590476D01*
X65429761Y-86304761D02*
X65477380Y-86209523D01*
X65477380Y-86019047D01*
X65429761Y-85923809D01*
X65334523Y-85876190D01*
X64953571Y-85876190D01*
X64858333Y-85923809D01*
X64810714Y-86019047D01*
X64810714Y-86209523D01*
X64858333Y-86304761D01*
X64953571Y-86352380D01*
X65048809Y-86352380D01*
X65144047Y-85876190D01*
X64810714Y-87971428D02*
X65477380Y-87971428D01*
X64810714Y-87542857D02*
X65334523Y-87542857D01*
X65429761Y-87590476D01*
X65477380Y-87685714D01*
X65477380Y-87828571D01*
X65429761Y-87923809D01*
X65382142Y-87971428D01*
X64810714Y-88447619D02*
X65477380Y-88447619D01*
X64905952Y-88447619D02*
X64858333Y-88495238D01*
X64810714Y-88590476D01*
X64810714Y-88733333D01*
X64858333Y-88828571D01*
X64953571Y-88876190D01*
X65477380Y-88876190D01*
X65477380Y-89780952D02*
X64477380Y-89780952D01*
X65429761Y-89780952D02*
X65477380Y-89685714D01*
X65477380Y-89495238D01*
X65429761Y-89400000D01*
X65382142Y-89352380D01*
X65286904Y-89304761D01*
X65001190Y-89304761D01*
X64905952Y-89352380D01*
X64858333Y-89400000D01*
X64810714Y-89495238D01*
X64810714Y-89685714D01*
X64858333Y-89780952D01*
X64953571Y-91352380D02*
X64953571Y-91019047D01*
X65477380Y-91019047D02*
X64477380Y-91019047D01*
X64477380Y-91495238D01*
X65477380Y-92019047D02*
X65429761Y-91923809D01*
X65382142Y-91876190D01*
X65286904Y-91828571D01*
X65001190Y-91828571D01*
X64905952Y-91876190D01*
X64858333Y-91923809D01*
X64810714Y-92019047D01*
X64810714Y-92161904D01*
X64858333Y-92257142D01*
X64905952Y-92304761D01*
X65001190Y-92352380D01*
X65286904Y-92352380D01*
X65382142Y-92304761D01*
X65429761Y-92257142D01*
X65477380Y-92161904D01*
X65477380Y-92019047D01*
X65477380Y-92780952D02*
X64810714Y-92780952D01*
X65001190Y-92780952D02*
X64905952Y-92828571D01*
X64858333Y-92876190D01*
X64810714Y-92971428D01*
X64810714Y-93066666D01*
X65429761Y-93352380D02*
X65477380Y-93447619D01*
X65477380Y-93638095D01*
X65429761Y-93733333D01*
X65334523Y-93780952D01*
X65286904Y-93780952D01*
X65191666Y-93733333D01*
X65144047Y-93638095D01*
X65144047Y-93495238D01*
X65096428Y-93400000D01*
X65001190Y-93352380D01*
X64953571Y-93352380D01*
X64858333Y-93400000D01*
X64810714Y-93495238D01*
X64810714Y-93638095D01*
X64858333Y-93733333D01*
X65429761Y-94638095D02*
X65477380Y-94542857D01*
X65477380Y-94352380D01*
X65429761Y-94257142D01*
X65382142Y-94209523D01*
X65286904Y-94161904D01*
X65001190Y-94161904D01*
X64905952Y-94209523D01*
X64858333Y-94257142D01*
X64810714Y-94352380D01*
X64810714Y-94542857D01*
X64858333Y-94638095D01*
X65477380Y-95066666D02*
X64477380Y-95066666D01*
X65477380Y-95495238D02*
X64953571Y-95495238D01*
X64858333Y-95447619D01*
X64810714Y-95352380D01*
X64810714Y-95209523D01*
X64858333Y-95114285D01*
X64905952Y-95066666D01*
X64810714Y-96400000D02*
X65477380Y-96400000D01*
X64810714Y-95971428D02*
X65334523Y-95971428D01*
X65429761Y-96019047D01*
X65477380Y-96114285D01*
X65477380Y-96257142D01*
X65429761Y-96352380D01*
X65382142Y-96400000D01*
X64810714Y-96876190D02*
X65477380Y-96876190D01*
X64905952Y-96876190D02*
X64858333Y-96923809D01*
X64810714Y-97019047D01*
X64810714Y-97161904D01*
X64858333Y-97257142D01*
X64953571Y-97304761D01*
X65477380Y-97304761D01*
X64810714Y-98209523D02*
X65620238Y-98209523D01*
X65715476Y-98161904D01*
X65763095Y-98114285D01*
X65810714Y-98019047D01*
X65810714Y-97876190D01*
X65763095Y-97780952D01*
X65429761Y-98209523D02*
X65477380Y-98114285D01*
X65477380Y-97923809D01*
X65429761Y-97828571D01*
X65382142Y-97780952D01*
X65286904Y-97733333D01*
X65001190Y-97733333D01*
X64905952Y-97780952D01*
X64858333Y-97828571D01*
X64810714Y-97923809D01*
X64810714Y-98114285D01*
X64858333Y-98209523D01*
X67127380Y-78495238D02*
X66127380Y-78495238D01*
X67127380Y-79066666D02*
X66555952Y-78638095D01*
X66127380Y-79066666D02*
X66698809Y-78495238D01*
X67127380Y-79638095D02*
X67079761Y-79542857D01*
X66984523Y-79495238D01*
X66127380Y-79495238D01*
X67127380Y-80447619D02*
X66603571Y-80447619D01*
X66508333Y-80400000D01*
X66460714Y-80304761D01*
X66460714Y-80114285D01*
X66508333Y-80019047D01*
X67079761Y-80447619D02*
X67127380Y-80352380D01*
X67127380Y-80114285D01*
X67079761Y-80019047D01*
X66984523Y-79971428D01*
X66889285Y-79971428D01*
X66794047Y-80019047D01*
X66746428Y-80114285D01*
X66746428Y-80352380D01*
X66698809Y-80447619D01*
X66460714Y-81352380D02*
X67127380Y-81352380D01*
X66460714Y-80923809D02*
X66984523Y-80923809D01*
X67079761Y-80971428D01*
X67127380Y-81066666D01*
X67127380Y-81209523D01*
X67079761Y-81304761D01*
X67032142Y-81352380D01*
X67079761Y-81780952D02*
X67127380Y-81876190D01*
X67127380Y-82066666D01*
X67079761Y-82161904D01*
X66984523Y-82209523D01*
X66936904Y-82209523D01*
X66841666Y-82161904D01*
X66794047Y-82066666D01*
X66794047Y-81923809D01*
X66746428Y-81828571D01*
X66651190Y-81780952D01*
X66603571Y-81780952D01*
X66508333Y-81828571D01*
X66460714Y-81923809D01*
X66460714Y-82066666D01*
X66508333Y-82161904D01*
X67127380Y-83876190D02*
X67127380Y-83400000D01*
X66127380Y-83400000D01*
X67127380Y-84209523D02*
X66460714Y-84209523D01*
X66127380Y-84209523D02*
X66175000Y-84161904D01*
X66222619Y-84209523D01*
X66175000Y-84257142D01*
X66127380Y-84209523D01*
X66222619Y-84209523D01*
X67079761Y-85066666D02*
X67127380Y-84971428D01*
X67127380Y-84780952D01*
X67079761Y-84685714D01*
X66984523Y-84638095D01*
X66603571Y-84638095D01*
X66508333Y-84685714D01*
X66460714Y-84780952D01*
X66460714Y-84971428D01*
X66508333Y-85066666D01*
X66603571Y-85114285D01*
X66698809Y-85114285D01*
X66794047Y-84638095D01*
X67127380Y-85542857D02*
X66127380Y-85542857D01*
X66508333Y-85542857D02*
X66460714Y-85638095D01*
X66460714Y-85828571D01*
X66508333Y-85923809D01*
X66555952Y-85971428D01*
X66651190Y-86019047D01*
X66936904Y-86019047D01*
X67032142Y-85971428D01*
X67079761Y-85923809D01*
X67127380Y-85828571D01*
X67127380Y-85638095D01*
X67079761Y-85542857D01*
X67127380Y-86590476D02*
X67079761Y-86495238D01*
X66984523Y-86447619D01*
X66127380Y-86447619D01*
X67079761Y-87352380D02*
X67127380Y-87257142D01*
X67127380Y-87066666D01*
X67079761Y-86971428D01*
X66984523Y-86923809D01*
X66603571Y-86923809D01*
X66508333Y-86971428D01*
X66460714Y-87066666D01*
X66460714Y-87257142D01*
X66508333Y-87352380D01*
X66603571Y-87400000D01*
X66698809Y-87400000D01*
X66794047Y-86923809D01*
X67127380Y-87828571D02*
X66460714Y-87828571D01*
X66651190Y-87828571D02*
X66555952Y-87876190D01*
X66508333Y-87923809D01*
X66460714Y-88019047D01*
X66460714Y-88114285D01*
X67079761Y-88495238D02*
X67127380Y-88495238D01*
X67222619Y-88447619D01*
X67270238Y-88400000D01*
X66222619Y-89638095D02*
X66175000Y-89685714D01*
X66127380Y-89780952D01*
X66127380Y-90019047D01*
X66175000Y-90114285D01*
X66222619Y-90161904D01*
X66317857Y-90209523D01*
X66413095Y-90209523D01*
X66555952Y-90161904D01*
X67127380Y-89590476D01*
X67127380Y-90209523D01*
X66127380Y-90828571D02*
X66127380Y-90923809D01*
X66175000Y-91019047D01*
X66222619Y-91066666D01*
X66317857Y-91114285D01*
X66508333Y-91161904D01*
X66746428Y-91161904D01*
X66936904Y-91114285D01*
X67032142Y-91066666D01*
X67079761Y-91019047D01*
X67127380Y-90923809D01*
X67127380Y-90828571D01*
X67079761Y-90733333D01*
X67032142Y-90685714D01*
X66936904Y-90638095D01*
X66746428Y-90590476D01*
X66508333Y-90590476D01*
X66317857Y-90638095D01*
X66222619Y-90685714D01*
X66175000Y-90733333D01*
X66127380Y-90828571D01*
X66222619Y-91542857D02*
X66175000Y-91590476D01*
X66127380Y-91685714D01*
X66127380Y-91923809D01*
X66175000Y-92019047D01*
X66222619Y-92066666D01*
X66317857Y-92114285D01*
X66413095Y-92114285D01*
X66555952Y-92066666D01*
X67127380Y-91495238D01*
X67127380Y-92114285D01*
X67127380Y-93066666D02*
X67127380Y-92495238D01*
X67127380Y-92780952D02*
X66127380Y-92780952D01*
X66270238Y-92685714D01*
X66365476Y-92590476D01*
X66413095Y-92495238D01*
X66746428Y-93495238D02*
X66746428Y-94257142D01*
X66127380Y-94923809D02*
X66127380Y-95019047D01*
X66175000Y-95114285D01*
X66222619Y-95161904D01*
X66317857Y-95209523D01*
X66508333Y-95257142D01*
X66746428Y-95257142D01*
X66936904Y-95209523D01*
X67032142Y-95161904D01*
X67079761Y-95114285D01*
X67127380Y-95019047D01*
X67127380Y-94923809D01*
X67079761Y-94828571D01*
X67032142Y-94780952D01*
X66936904Y-94733333D01*
X66746428Y-94685714D01*
X66508333Y-94685714D01*
X66317857Y-94733333D01*
X66222619Y-94780952D01*
X66175000Y-94828571D01*
X66127380Y-94923809D01*
X66127380Y-96161904D02*
X66127380Y-95685714D01*
X66603571Y-95638095D01*
X66555952Y-95685714D01*
X66508333Y-95780952D01*
X66508333Y-96019047D01*
X66555952Y-96114285D01*
X66603571Y-96161904D01*
X66698809Y-96209523D01*
X66936904Y-96209523D01*
X67032142Y-96161904D01*
X67079761Y-96114285D01*
X67127380Y-96019047D01*
X67127380Y-95780952D01*
X67079761Y-95685714D01*
X67032142Y-95638095D01*
X66746428Y-96638095D02*
X66746428Y-97400000D01*
X66127380Y-98066666D02*
X66127380Y-98161904D01*
X66175000Y-98257142D01*
X66222619Y-98304761D01*
X66317857Y-98352380D01*
X66508333Y-98400000D01*
X66746428Y-98400000D01*
X66936904Y-98352380D01*
X67032142Y-98304761D01*
X67079761Y-98257142D01*
X67127380Y-98161904D01*
X67127380Y-98066666D01*
X67079761Y-97971428D01*
X67032142Y-97923809D01*
X66936904Y-97876190D01*
X66746428Y-97828571D01*
X66508333Y-97828571D01*
X66317857Y-97876190D01*
X66222619Y-97923809D01*
X66175000Y-97971428D01*
X66127380Y-98066666D01*
X67127380Y-99352380D02*
X67127380Y-98780952D01*
X67127380Y-99066666D02*
X66127380Y-99066666D01*
X66270238Y-98971428D01*
X66365476Y-98876190D01*
X66413095Y-98780952D01*
X67777380Y-79733333D02*
X68777380Y-79971428D01*
X68063095Y-80161904D01*
X68777380Y-80352380D01*
X67777380Y-80590476D01*
X68729761Y-81352380D02*
X68777380Y-81257142D01*
X68777380Y-81066666D01*
X68729761Y-80971428D01*
X68634523Y-80923809D01*
X68253571Y-80923809D01*
X68158333Y-80971428D01*
X68110714Y-81066666D01*
X68110714Y-81257142D01*
X68158333Y-81352380D01*
X68253571Y-81400000D01*
X68348809Y-81400000D01*
X68444047Y-80923809D01*
X68729761Y-81780952D02*
X68777380Y-81876190D01*
X68777380Y-82066666D01*
X68729761Y-82161904D01*
X68634523Y-82209523D01*
X68586904Y-82209523D01*
X68491666Y-82161904D01*
X68444047Y-82066666D01*
X68444047Y-81923809D01*
X68396428Y-81828571D01*
X68301190Y-81780952D01*
X68253571Y-81780952D01*
X68158333Y-81828571D01*
X68110714Y-81923809D01*
X68110714Y-82066666D01*
X68158333Y-82161904D01*
X68110714Y-82495238D02*
X68110714Y-82876190D01*
X67777380Y-82638095D02*
X68634523Y-82638095D01*
X68729761Y-82685714D01*
X68777380Y-82780952D01*
X68777380Y-82876190D01*
X68110714Y-83066666D02*
X68110714Y-83447619D01*
X68777380Y-83209523D02*
X67920238Y-83209523D01*
X67825000Y-83257142D01*
X67777380Y-83352380D01*
X67777380Y-83447619D01*
X68777380Y-84209523D02*
X68253571Y-84209523D01*
X68158333Y-84161904D01*
X68110714Y-84066666D01*
X68110714Y-83876190D01*
X68158333Y-83780952D01*
X68729761Y-84209523D02*
X68777380Y-84114285D01*
X68777380Y-83876190D01*
X68729761Y-83780952D01*
X68634523Y-83733333D01*
X68539285Y-83733333D01*
X68444047Y-83780952D01*
X68396428Y-83876190D01*
X68396428Y-84114285D01*
X68348809Y-84209523D01*
X67777380Y-83780952D02*
X67825000Y-83828571D01*
X67872619Y-83780952D01*
X67825000Y-83733333D01*
X67777380Y-83780952D01*
X67872619Y-83780952D01*
X67777380Y-84161904D02*
X67825000Y-84209523D01*
X67872619Y-84161904D01*
X67825000Y-84114285D01*
X67777380Y-84161904D01*
X67872619Y-84161904D01*
X68777380Y-84828571D02*
X68729761Y-84733333D01*
X68634523Y-84685714D01*
X67777380Y-84685714D01*
X68777380Y-85209523D02*
X68110714Y-85209523D01*
X67777380Y-85209523D02*
X67825000Y-85161904D01*
X67872619Y-85209523D01*
X67825000Y-85257142D01*
X67777380Y-85209523D01*
X67872619Y-85209523D01*
X68729761Y-85638095D02*
X68777380Y-85733333D01*
X68777380Y-85923809D01*
X68729761Y-86019047D01*
X68634523Y-86066666D01*
X68586904Y-86066666D01*
X68491666Y-86019047D01*
X68444047Y-85923809D01*
X68444047Y-85780952D01*
X68396428Y-85685714D01*
X68301190Y-85638095D01*
X68253571Y-85638095D01*
X68158333Y-85685714D01*
X68110714Y-85780952D01*
X68110714Y-85923809D01*
X68158333Y-86019047D01*
X68729761Y-86923809D02*
X68777380Y-86828571D01*
X68777380Y-86638095D01*
X68729761Y-86542857D01*
X68682142Y-86495238D01*
X68586904Y-86447619D01*
X68301190Y-86447619D01*
X68205952Y-86495238D01*
X68158333Y-86542857D01*
X68110714Y-86638095D01*
X68110714Y-86828571D01*
X68158333Y-86923809D01*
X68777380Y-87352380D02*
X67777380Y-87352380D01*
X68777380Y-87780952D02*
X68253571Y-87780952D01*
X68158333Y-87733333D01*
X68110714Y-87638095D01*
X68110714Y-87495238D01*
X68158333Y-87400000D01*
X68205952Y-87352380D01*
X68729761Y-88638095D02*
X68777380Y-88542857D01*
X68777380Y-88352380D01*
X68729761Y-88257142D01*
X68634523Y-88209523D01*
X68253571Y-88209523D01*
X68158333Y-88257142D01*
X68110714Y-88352380D01*
X68110714Y-88542857D01*
X68158333Y-88638095D01*
X68253571Y-88685714D01*
X68348809Y-88685714D01*
X68444047Y-88209523D01*
X68777380Y-89876190D02*
X67777380Y-89876190D01*
X68253571Y-89876190D02*
X68253571Y-90447619D01*
X68777380Y-90447619D02*
X67777380Y-90447619D01*
X68777380Y-91066666D02*
X68729761Y-90971428D01*
X68682142Y-90923809D01*
X68586904Y-90876190D01*
X68301190Y-90876190D01*
X68205952Y-90923809D01*
X68158333Y-90971428D01*
X68110714Y-91066666D01*
X68110714Y-91209523D01*
X68158333Y-91304761D01*
X68205952Y-91352380D01*
X68301190Y-91400000D01*
X68586904Y-91400000D01*
X68682142Y-91352380D01*
X68729761Y-91304761D01*
X68777380Y-91209523D01*
X68777380Y-91066666D01*
X68729761Y-92257142D02*
X68777380Y-92161904D01*
X68777380Y-91971428D01*
X68729761Y-91876190D01*
X68682142Y-91828571D01*
X68586904Y-91780952D01*
X68301190Y-91780952D01*
X68205952Y-91828571D01*
X68158333Y-91876190D01*
X68110714Y-91971428D01*
X68110714Y-92161904D01*
X68158333Y-92257142D01*
X68777380Y-92685714D02*
X67777380Y-92685714D01*
X68777380Y-93114285D02*
X68253571Y-93114285D01*
X68158333Y-93066666D01*
X68110714Y-92971428D01*
X68110714Y-92828571D01*
X68158333Y-92733333D01*
X68205952Y-92685714D01*
X68729761Y-93542857D02*
X68777380Y-93638095D01*
X68777380Y-93828571D01*
X68729761Y-93923809D01*
X68634523Y-93971428D01*
X68586904Y-93971428D01*
X68491666Y-93923809D01*
X68444047Y-93828571D01*
X68444047Y-93685714D01*
X68396428Y-93590476D01*
X68301190Y-93542857D01*
X68253571Y-93542857D01*
X68158333Y-93590476D01*
X68110714Y-93685714D01*
X68110714Y-93828571D01*
X68158333Y-93923809D01*
X68729761Y-94828571D02*
X68777380Y-94733333D01*
X68777380Y-94542857D01*
X68729761Y-94447619D01*
X68682142Y-94400000D01*
X68586904Y-94352380D01*
X68301190Y-94352380D01*
X68205952Y-94400000D01*
X68158333Y-94447619D01*
X68110714Y-94542857D01*
X68110714Y-94733333D01*
X68158333Y-94828571D01*
X68777380Y-95257142D02*
X67777380Y-95257142D01*
X68777380Y-95685714D02*
X68253571Y-95685714D01*
X68158333Y-95638095D01*
X68110714Y-95542857D01*
X68110714Y-95400000D01*
X68158333Y-95304761D01*
X68205952Y-95257142D01*
X68110714Y-96590476D02*
X68777380Y-96590476D01*
X68110714Y-96161904D02*
X68634523Y-96161904D01*
X68729761Y-96209523D01*
X68777380Y-96304761D01*
X68777380Y-96447619D01*
X68729761Y-96542857D01*
X68682142Y-96590476D01*
X68777380Y-97209523D02*
X68729761Y-97114285D01*
X68634523Y-97066666D01*
X67777380Y-97066666D01*
X68729761Y-97971428D02*
X68777380Y-97876190D01*
X68777380Y-97685714D01*
X68729761Y-97590476D01*
X68634523Y-97542857D01*
X68253571Y-97542857D01*
X68158333Y-97590476D01*
X68110714Y-97685714D01*
X68110714Y-97876190D01*
X68158333Y-97971428D01*
X68253571Y-98019047D01*
X68348809Y-98019047D01*
X68444047Y-97542857D01*
D13*
X72368000Y-57078000D02*
X75968000Y-57078000D01*
X76006478Y-57089522D02*
G75*
G02*
X74168000Y-61528000I-1838478J-1838478D01*
G01*
X72329522Y-57089522D02*
G75*
G03*
X74168000Y-61528000I1838478J-1838478D01*
G01*
X116499000Y-69388000D02*
G75*
G03*
X116499000Y-69388000I-1500000J0D01*
G01*
X124499000Y-69388000D02*
G75*
G03*
X124499000Y-69388000I-1500000J0D01*
G01*
X125499000Y-71888000D02*
X125499000Y-56388000D01*
X112499000Y-71888000D02*
X125499000Y-71888000D01*
X112499000Y-54888000D02*
X112499000Y-71888000D01*
X125499000Y-54888000D02*
X112499000Y-54888000D01*
X125499000Y-56388000D02*
X125499000Y-54888000D01*
X49497064Y-107929000D02*
X48292936Y-107929000D01*
X49497064Y-109749000D02*
X48292936Y-109749000D01*
X76170000Y-110363000D02*
X76170000Y-118863000D01*
X76170000Y-118863000D02*
X115170000Y-118863000D01*
X115170000Y-118863000D02*
X115170000Y-101863000D01*
X115170000Y-101863000D02*
X76170000Y-101863000D01*
X76170000Y-101863000D02*
X76170000Y-110363000D01*
X51287000Y-67370936D02*
X51287000Y-68825064D01*
X53107000Y-67370936D02*
X53107000Y-68825064D01*
X56205000Y-99189000D02*
X57135000Y-99189000D01*
X59365000Y-99189000D02*
X58435000Y-99189000D01*
X59365000Y-99189000D02*
X59365000Y-102349000D01*
X56205000Y-99189000D02*
X56205000Y-100649000D01*
X34319000Y-70438000D02*
X40369000Y-70438000D01*
X40369000Y-70438000D02*
X40369000Y-62638000D01*
X40369000Y-62638000D02*
X34319000Y-62638000D01*
X34319000Y-62638000D02*
X34319000Y-70438000D01*
X34419000Y-69088000D02*
X35429000Y-69088000D01*
X35429000Y-69088000D02*
X35429000Y-64008000D01*
X35429000Y-64008000D02*
X34419000Y-64008000D01*
X114855000Y-83312000D02*
X114855000Y-77112000D01*
X114855000Y-83312000D02*
X114855000Y-89512000D01*
X104855000Y-89512000D02*
X104855000Y-77112000D01*
X114855000Y-88512000D02*
X122455000Y-88512000D01*
X122455000Y-88512000D02*
X122455000Y-84512000D01*
X122455000Y-84512000D02*
X114855000Y-84512000D01*
X114855000Y-82312000D02*
X122455000Y-82312000D01*
X122455000Y-82312000D02*
X122455000Y-78312000D01*
X122455000Y-78312000D02*
X114855000Y-78312000D01*
X40734064Y-96499000D02*
X39529936Y-96499000D01*
X40734064Y-98319000D02*
X39529936Y-98319000D01*
X110088000Y-93123936D02*
X110088000Y-94328064D01*
X111908000Y-93123936D02*
X111908000Y-94328064D01*
X40407000Y-112362064D02*
X40407000Y-111157936D01*
X38587000Y-112362064D02*
X38587000Y-111157936D01*
X46435000Y-72751000D02*
X52405000Y-72751000D01*
X52405000Y-72751000D02*
X52405000Y-85371000D01*
X52405000Y-85371000D02*
X46435000Y-85371000D01*
X46435000Y-85371000D02*
X46435000Y-72751000D01*
X46445000Y-76061000D02*
X47195000Y-76061000D01*
X47195000Y-76061000D02*
X47195000Y-82061000D01*
X47195000Y-82061000D02*
X46445000Y-82061000D01*
X46445000Y-82061000D02*
X46445000Y-76061000D01*
X46445000Y-72761000D02*
X47195000Y-72761000D01*
X47195000Y-72761000D02*
X47195000Y-74561000D01*
X47195000Y-74561000D02*
X46445000Y-74561000D01*
X46445000Y-74561000D02*
X46445000Y-72761000D01*
X46445000Y-83561000D02*
X47195000Y-83561000D01*
X47195000Y-83561000D02*
X47195000Y-85361000D01*
X47195000Y-85361000D02*
X46445000Y-85361000D01*
X46445000Y-85361000D02*
X46445000Y-83561000D01*
X48695000Y-72761000D02*
X48695000Y-73511000D01*
X48695000Y-73511000D02*
X51645000Y-73511000D01*
X51645000Y-73511000D02*
X51645000Y-79061000D01*
X48695000Y-85361000D02*
X48695000Y-84611000D01*
X48695000Y-84611000D02*
X51645000Y-84611000D01*
X51645000Y-84611000D02*
X51645000Y-79061000D01*
X46145000Y-73711000D02*
X46145000Y-72461000D01*
X46145000Y-72461000D02*
X47395000Y-72461000D01*
X46435000Y-86213000D02*
X52405000Y-86213000D01*
X52405000Y-86213000D02*
X52405000Y-98833000D01*
X52405000Y-98833000D02*
X46435000Y-98833000D01*
X46435000Y-98833000D02*
X46435000Y-86213000D01*
X46445000Y-89523000D02*
X47195000Y-89523000D01*
X47195000Y-89523000D02*
X47195000Y-95523000D01*
X47195000Y-95523000D02*
X46445000Y-95523000D01*
X46445000Y-95523000D02*
X46445000Y-89523000D01*
X46445000Y-86223000D02*
X47195000Y-86223000D01*
X47195000Y-86223000D02*
X47195000Y-88023000D01*
X47195000Y-88023000D02*
X46445000Y-88023000D01*
X46445000Y-88023000D02*
X46445000Y-86223000D01*
X46445000Y-97023000D02*
X47195000Y-97023000D01*
X47195000Y-97023000D02*
X47195000Y-98823000D01*
X47195000Y-98823000D02*
X46445000Y-98823000D01*
X46445000Y-98823000D02*
X46445000Y-97023000D01*
X48695000Y-86223000D02*
X48695000Y-86973000D01*
X48695000Y-86973000D02*
X51645000Y-86973000D01*
X51645000Y-86973000D02*
X51645000Y-92523000D01*
X48695000Y-98823000D02*
X48695000Y-98073000D01*
X48695000Y-98073000D02*
X51645000Y-98073000D01*
X51645000Y-98073000D02*
X51645000Y-92523000D01*
X46145000Y-87173000D02*
X46145000Y-85923000D01*
X46145000Y-85923000D02*
X47395000Y-85923000D01*
X44175000Y-106966936D02*
X44175000Y-108171064D01*
X45995000Y-106966936D02*
X45995000Y-108171064D01*
X43413000Y-78899936D02*
X43413000Y-80104064D01*
X45233000Y-78899936D02*
X45233000Y-80104064D01*
D10*
X41524000Y-102962000D02*
X41524000Y-103107000D01*
X37374000Y-102962000D02*
X37374000Y-103107000D01*
X37374000Y-108112000D02*
X37374000Y-107967000D01*
X41524000Y-108112000D02*
X41524000Y-107967000D01*
X41524000Y-102962000D02*
X37374000Y-102962000D01*
X41524000Y-108112000D02*
X37374000Y-108112000D01*
X41524000Y-103107000D02*
X42924000Y-103107000D01*
D13*
X59838000Y-105885064D02*
X59838000Y-104680936D01*
X58018000Y-105885064D02*
X58018000Y-104680936D01*
X62124000Y-105885064D02*
X62124000Y-104680936D01*
X60304000Y-105885064D02*
X60304000Y-104680936D01*
X48789000Y-105504064D02*
X48789000Y-104299936D01*
X46969000Y-105504064D02*
X46969000Y-104299936D01*
X60332000Y-119420000D02*
X60332000Y-109180000D01*
X76222000Y-119420000D02*
X76222000Y-109180000D01*
X76222000Y-119420000D02*
X60332000Y-119420000D01*
X76222000Y-109180000D02*
X60332000Y-109180000D01*
X60332000Y-116840000D02*
X57792000Y-116840000D01*
X60332000Y-114300000D02*
X57792000Y-114300000D01*
X60332000Y-111760000D02*
X57792000Y-111760000D01*
X41097000Y-89278000D02*
X41097000Y-93178000D01*
X37897000Y-89278000D02*
X37897000Y-93178000D01*
X41097000Y-93178000D02*
X37897000Y-93178000D01*
X36779000Y-83437000D02*
X36779000Y-87337000D01*
X33579000Y-83437000D02*
X33579000Y-87337000D01*
X36779000Y-87337000D02*
X33579000Y-87337000D01*
X41097000Y-83437000D02*
X41097000Y-87337000D01*
X37897000Y-83437000D02*
X37897000Y-87337000D01*
X41097000Y-87337000D02*
X37897000Y-87337000D01*
X45415000Y-83437000D02*
X45415000Y-87337000D01*
X42215000Y-83437000D02*
X42215000Y-87337000D01*
X45415000Y-87337000D02*
X42215000Y-87337000D01*
X41097000Y-77214000D02*
X41097000Y-81114000D01*
X37897000Y-77214000D02*
X37897000Y-81114000D01*
X41097000Y-81114000D02*
X37897000Y-81114000D01*
X37359000Y-100678064D02*
X37359000Y-99473936D01*
X35539000Y-100678064D02*
X35539000Y-99473936D01*
X41750064Y-100436000D02*
X40545936Y-100436000D01*
X41750064Y-102256000D02*
X40545936Y-102256000D01*
X34992000Y-53534000D02*
X40192000Y-53534000D01*
X34992000Y-58674000D02*
X34992000Y-53534000D01*
X40192000Y-61274000D02*
X40192000Y-53534000D01*
X34992000Y-58674000D02*
X37592000Y-58674000D01*
X37592000Y-58674000D02*
X37592000Y-61274000D01*
X37592000Y-61274000D02*
X40192000Y-61274000D01*
X34992000Y-59944000D02*
X34992000Y-61274000D01*
X34992000Y-61274000D02*
X36322000Y-61274000D01*
D14*
G36*
X72140036Y-89746018D02*
G01*
X72083188Y-90047570D01*
X71663662Y-90220512D01*
X71412016Y-90049395D01*
X71341542Y-90001750D01*
X71277837Y-89959210D01*
X71223874Y-89923715D01*
X71182627Y-89897210D01*
X71157066Y-89881636D01*
X71150105Y-89878278D01*
X71137565Y-89886914D01*
X71110769Y-89910792D01*
X71072720Y-89946859D01*
X71026421Y-89992067D01*
X70974877Y-90043364D01*
X70921091Y-90097701D01*
X70868065Y-90152028D01*
X70818805Y-90203295D01*
X70776313Y-90248451D01*
X70743593Y-90284446D01*
X70723649Y-90308230D01*
X70718881Y-90316190D01*
X70725743Y-90330865D01*
X70744980Y-90363014D01*
X70774570Y-90409492D01*
X70812490Y-90467156D01*
X70856718Y-90532860D01*
X70882346Y-90570336D01*
X70929059Y-90638768D01*
X70970568Y-90700520D01*
X71004860Y-90752519D01*
X71029920Y-90791692D01*
X71043736Y-90814965D01*
X71045812Y-90819855D01*
X71041105Y-90833755D01*
X71028277Y-90866150D01*
X71009262Y-90912485D01*
X70985997Y-90968206D01*
X70960416Y-91028758D01*
X70934455Y-91089586D01*
X70910050Y-91146136D01*
X70889137Y-91193852D01*
X70873651Y-91228181D01*
X70865528Y-91244568D01*
X70865048Y-91245212D01*
X70852293Y-91248341D01*
X70818323Y-91255321D01*
X70766660Y-91265467D01*
X70700824Y-91278092D01*
X70624336Y-91292509D01*
X70579710Y-91300823D01*
X70497979Y-91316384D01*
X70424157Y-91331192D01*
X70361979Y-91344436D01*
X70315178Y-91355305D01*
X70287491Y-91362989D01*
X70281926Y-91365427D01*
X70276474Y-91381930D01*
X70272076Y-91419200D01*
X70268728Y-91472880D01*
X70266426Y-91538612D01*
X70265168Y-91612037D01*
X70264952Y-91688796D01*
X70265773Y-91764532D01*
X70267629Y-91834886D01*
X70270518Y-91895500D01*
X70274435Y-91942016D01*
X70279378Y-91970075D01*
X70282343Y-91975916D01*
X70300066Y-91982917D01*
X70337619Y-91992927D01*
X70390036Y-92004769D01*
X70452348Y-92017267D01*
X70474100Y-92021310D01*
X70578976Y-92040520D01*
X70661820Y-92055991D01*
X70725370Y-92068337D01*
X70772363Y-92078173D01*
X70805537Y-92086114D01*
X70827629Y-92092776D01*
X70841376Y-92098773D01*
X70849516Y-92104719D01*
X70850655Y-92105894D01*
X70862023Y-92124826D01*
X70879365Y-92161669D01*
X70900950Y-92211913D01*
X70925046Y-92271046D01*
X70949921Y-92334556D01*
X70973843Y-92397932D01*
X70995081Y-92456662D01*
X71011903Y-92506235D01*
X71022578Y-92542139D01*
X71025373Y-92559862D01*
X71025140Y-92560483D01*
X71015669Y-92574970D01*
X70994182Y-92606844D01*
X70962937Y-92652789D01*
X70924193Y-92709485D01*
X70880207Y-92773617D01*
X70867681Y-92791842D01*
X70823016Y-92857914D01*
X70783712Y-92918200D01*
X70751912Y-92969235D01*
X70729755Y-93007560D01*
X70719383Y-93029711D01*
X70718881Y-93032432D01*
X70727595Y-93046736D01*
X70751675Y-93075072D01*
X70788024Y-93114396D01*
X70833547Y-93161661D01*
X70885148Y-93213823D01*
X70939733Y-93267835D01*
X70994206Y-93320653D01*
X71045471Y-93369231D01*
X71090433Y-93410523D01*
X71125996Y-93441485D01*
X71149065Y-93459070D01*
X71155446Y-93461941D01*
X71170301Y-93455178D01*
X71200714Y-93436939D01*
X71241732Y-93410297D01*
X71273291Y-93388852D01*
X71330475Y-93349503D01*
X71398194Y-93303171D01*
X71466120Y-93256913D01*
X71502639Y-93232155D01*
X71626248Y-93148547D01*
X71730009Y-93204650D01*
X71777280Y-93229228D01*
X71817477Y-93248331D01*
X71844674Y-93259227D01*
X71851598Y-93260743D01*
X71859923Y-93249549D01*
X71876346Y-93217917D01*
X71899643Y-93168765D01*
X71928586Y-93105010D01*
X71961950Y-93029571D01*
X71998509Y-92945364D01*
X72037036Y-92855308D01*
X72076306Y-92762321D01*
X72115092Y-92669320D01*
X72152170Y-92579223D01*
X72186311Y-92494948D01*
X72216292Y-92419413D01*
X72240884Y-92355534D01*
X72258864Y-92306231D01*
X72269003Y-92274421D01*
X72270634Y-92263496D01*
X72257709Y-92249561D01*
X72229411Y-92226940D01*
X72191654Y-92200333D01*
X72188485Y-92198228D01*
X72090900Y-92120114D01*
X72012214Y-92028982D01*
X71953109Y-91927745D01*
X71914268Y-91819318D01*
X71896372Y-91706614D01*
X71900103Y-91592548D01*
X71926143Y-91480034D01*
X71975175Y-91371985D01*
X71989600Y-91348345D01*
X72064631Y-91252887D01*
X72153270Y-91176232D01*
X72252451Y-91118780D01*
X72359105Y-91080929D01*
X72470164Y-91063078D01*
X72582561Y-91065625D01*
X72693227Y-91088970D01*
X72799094Y-91133510D01*
X72897095Y-91199645D01*
X72927410Y-91226487D01*
X73004562Y-91310512D01*
X73060782Y-91398966D01*
X73099347Y-91498115D01*
X73120826Y-91596303D01*
X73126128Y-91706697D01*
X73108448Y-91817640D01*
X73069581Y-91925381D01*
X73011323Y-92026169D01*
X72935469Y-92116256D01*
X72843817Y-92191892D01*
X72831772Y-92199864D01*
X72793611Y-92225974D01*
X72764601Y-92248595D01*
X72750732Y-92263039D01*
X72750531Y-92263496D01*
X72753508Y-92279121D01*
X72765311Y-92314582D01*
X72784714Y-92366962D01*
X72810488Y-92433345D01*
X72841409Y-92510814D01*
X72876249Y-92596450D01*
X72913783Y-92687337D01*
X72952783Y-92780559D01*
X72992023Y-92873197D01*
X73030276Y-92962335D01*
X73066317Y-93045055D01*
X73098917Y-93118441D01*
X73126852Y-93179575D01*
X73148895Y-93225541D01*
X73163818Y-93253421D01*
X73169828Y-93260743D01*
X73188191Y-93255041D01*
X73222552Y-93239749D01*
X73266984Y-93217599D01*
X73291417Y-93204650D01*
X73395178Y-93148547D01*
X73518787Y-93232155D01*
X73581886Y-93274987D01*
X73650970Y-93322122D01*
X73715707Y-93366503D01*
X73748134Y-93388852D01*
X73793741Y-93419477D01*
X73832360Y-93443747D01*
X73858952Y-93458587D01*
X73867590Y-93461724D01*
X73880161Y-93453261D01*
X73907984Y-93429636D01*
X73948361Y-93393302D01*
X73998595Y-93346711D01*
X74055988Y-93292317D01*
X74092286Y-93257392D01*
X74155790Y-93194996D01*
X74210673Y-93139188D01*
X74254714Y-93092354D01*
X74285695Y-93056882D01*
X74301398Y-93035161D01*
X74302905Y-93030752D01*
X74295914Y-93013985D01*
X74276594Y-92980082D01*
X74247091Y-92932476D01*
X74209545Y-92874599D01*
X74166100Y-92809884D01*
X74153745Y-92791842D01*
X74108727Y-92726267D01*
X74068340Y-92667228D01*
X74034840Y-92618042D01*
X74010486Y-92582028D01*
X73997536Y-92562502D01*
X73996285Y-92560483D01*
X73998156Y-92544922D01*
X74008087Y-92510709D01*
X74024347Y-92462355D01*
X74045205Y-92404371D01*
X74068927Y-92341270D01*
X74093784Y-92277563D01*
X74118042Y-92217761D01*
X74139971Y-92166376D01*
X74157838Y-92127919D01*
X74169913Y-92106902D01*
X74170771Y-92105894D01*
X74178154Y-92099888D01*
X74190625Y-92093948D01*
X74210920Y-92087460D01*
X74241778Y-92079809D01*
X74285934Y-92070380D01*
X74346126Y-92058559D01*
X74425093Y-92043729D01*
X74525570Y-92025277D01*
X74547325Y-92021310D01*
X74611802Y-92008853D01*
X74668011Y-91996666D01*
X74710987Y-91985926D01*
X74735760Y-91977809D01*
X74739082Y-91975916D01*
X74744556Y-91959138D01*
X74749006Y-91921645D01*
X74752428Y-91867794D01*
X74754819Y-91801944D01*
X74756177Y-91728453D01*
X74756499Y-91651680D01*
X74755781Y-91575983D01*
X74754021Y-91505720D01*
X74751216Y-91445250D01*
X74747362Y-91398930D01*
X74742457Y-91371119D01*
X74739500Y-91365427D01*
X74723037Y-91359686D01*
X74685551Y-91350345D01*
X74630775Y-91338215D01*
X74562445Y-91324107D01*
X74484294Y-91308830D01*
X74441716Y-91300823D01*
X74360929Y-91285721D01*
X74288887Y-91272040D01*
X74229111Y-91260467D01*
X74185121Y-91251687D01*
X74160439Y-91246387D01*
X74156377Y-91245212D01*
X74149511Y-91231965D01*
X74134998Y-91200057D01*
X74114771Y-91154047D01*
X74090766Y-91098492D01*
X74064918Y-91037953D01*
X74039160Y-90976986D01*
X74015427Y-90920151D01*
X73995654Y-90872006D01*
X73981776Y-90837110D01*
X73975726Y-90820021D01*
X73975614Y-90819274D01*
X73982472Y-90805793D01*
X74001698Y-90774770D01*
X74031272Y-90729289D01*
X74069173Y-90672432D01*
X74113380Y-90607283D01*
X74139079Y-90569862D01*
X74185907Y-90501247D01*
X74227499Y-90438952D01*
X74261825Y-90386129D01*
X74286857Y-90345927D01*
X74300565Y-90321500D01*
X74302544Y-90316024D01*
X74294034Y-90303278D01*
X74270507Y-90276063D01*
X74234968Y-90237428D01*
X74190423Y-90190423D01*
X74139877Y-90138095D01*
X74086336Y-90083495D01*
X74032805Y-90029670D01*
X73982289Y-89979670D01*
X73937794Y-89936543D01*
X73902325Y-89903339D01*
X73878887Y-89883106D01*
X73871046Y-89878278D01*
X73858280Y-89885067D01*
X73827744Y-89904142D01*
X73782410Y-89933561D01*
X73725244Y-89971381D01*
X73659216Y-90015661D01*
X73609410Y-90049395D01*
X73357764Y-90220512D01*
X73148001Y-90134041D01*
X72938237Y-90047570D01*
X72881389Y-89746018D01*
X72824540Y-89444466D01*
X72196885Y-89444466D01*
X72140036Y-89746018D01*
G37*
X72140036Y-89746018D02*
X72083188Y-90047570D01*
X71663662Y-90220512D01*
X71412016Y-90049395D01*
X71341542Y-90001750D01*
X71277837Y-89959210D01*
X71223874Y-89923715D01*
X71182627Y-89897210D01*
X71157066Y-89881636D01*
X71150105Y-89878278D01*
X71137565Y-89886914D01*
X71110769Y-89910792D01*
X71072720Y-89946859D01*
X71026421Y-89992067D01*
X70974877Y-90043364D01*
X70921091Y-90097701D01*
X70868065Y-90152028D01*
X70818805Y-90203295D01*
X70776313Y-90248451D01*
X70743593Y-90284446D01*
X70723649Y-90308230D01*
X70718881Y-90316190D01*
X70725743Y-90330865D01*
X70744980Y-90363014D01*
X70774570Y-90409492D01*
X70812490Y-90467156D01*
X70856718Y-90532860D01*
X70882346Y-90570336D01*
X70929059Y-90638768D01*
X70970568Y-90700520D01*
X71004860Y-90752519D01*
X71029920Y-90791692D01*
X71043736Y-90814965D01*
X71045812Y-90819855D01*
X71041105Y-90833755D01*
X71028277Y-90866150D01*
X71009262Y-90912485D01*
X70985997Y-90968206D01*
X70960416Y-91028758D01*
X70934455Y-91089586D01*
X70910050Y-91146136D01*
X70889137Y-91193852D01*
X70873651Y-91228181D01*
X70865528Y-91244568D01*
X70865048Y-91245212D01*
X70852293Y-91248341D01*
X70818323Y-91255321D01*
X70766660Y-91265467D01*
X70700824Y-91278092D01*
X70624336Y-91292509D01*
X70579710Y-91300823D01*
X70497979Y-91316384D01*
X70424157Y-91331192D01*
X70361979Y-91344436D01*
X70315178Y-91355305D01*
X70287491Y-91362989D01*
X70281926Y-91365427D01*
X70276474Y-91381930D01*
X70272076Y-91419200D01*
X70268728Y-91472880D01*
X70266426Y-91538612D01*
X70265168Y-91612037D01*
X70264952Y-91688796D01*
X70265773Y-91764532D01*
X70267629Y-91834886D01*
X70270518Y-91895500D01*
X70274435Y-91942016D01*
X70279378Y-91970075D01*
X70282343Y-91975916D01*
X70300066Y-91982917D01*
X70337619Y-91992927D01*
X70390036Y-92004769D01*
X70452348Y-92017267D01*
X70474100Y-92021310D01*
X70578976Y-92040520D01*
X70661820Y-92055991D01*
X70725370Y-92068337D01*
X70772363Y-92078173D01*
X70805537Y-92086114D01*
X70827629Y-92092776D01*
X70841376Y-92098773D01*
X70849516Y-92104719D01*
X70850655Y-92105894D01*
X70862023Y-92124826D01*
X70879365Y-92161669D01*
X70900950Y-92211913D01*
X70925046Y-92271046D01*
X70949921Y-92334556D01*
X70973843Y-92397932D01*
X70995081Y-92456662D01*
X71011903Y-92506235D01*
X71022578Y-92542139D01*
X71025373Y-92559862D01*
X71025140Y-92560483D01*
X71015669Y-92574970D01*
X70994182Y-92606844D01*
X70962937Y-92652789D01*
X70924193Y-92709485D01*
X70880207Y-92773617D01*
X70867681Y-92791842D01*
X70823016Y-92857914D01*
X70783712Y-92918200D01*
X70751912Y-92969235D01*
X70729755Y-93007560D01*
X70719383Y-93029711D01*
X70718881Y-93032432D01*
X70727595Y-93046736D01*
X70751675Y-93075072D01*
X70788024Y-93114396D01*
X70833547Y-93161661D01*
X70885148Y-93213823D01*
X70939733Y-93267835D01*
X70994206Y-93320653D01*
X71045471Y-93369231D01*
X71090433Y-93410523D01*
X71125996Y-93441485D01*
X71149065Y-93459070D01*
X71155446Y-93461941D01*
X71170301Y-93455178D01*
X71200714Y-93436939D01*
X71241732Y-93410297D01*
X71273291Y-93388852D01*
X71330475Y-93349503D01*
X71398194Y-93303171D01*
X71466120Y-93256913D01*
X71502639Y-93232155D01*
X71626248Y-93148547D01*
X71730009Y-93204650D01*
X71777280Y-93229228D01*
X71817477Y-93248331D01*
X71844674Y-93259227D01*
X71851598Y-93260743D01*
X71859923Y-93249549D01*
X71876346Y-93217917D01*
X71899643Y-93168765D01*
X71928586Y-93105010D01*
X71961950Y-93029571D01*
X71998509Y-92945364D01*
X72037036Y-92855308D01*
X72076306Y-92762321D01*
X72115092Y-92669320D01*
X72152170Y-92579223D01*
X72186311Y-92494948D01*
X72216292Y-92419413D01*
X72240884Y-92355534D01*
X72258864Y-92306231D01*
X72269003Y-92274421D01*
X72270634Y-92263496D01*
X72257709Y-92249561D01*
X72229411Y-92226940D01*
X72191654Y-92200333D01*
X72188485Y-92198228D01*
X72090900Y-92120114D01*
X72012214Y-92028982D01*
X71953109Y-91927745D01*
X71914268Y-91819318D01*
X71896372Y-91706614D01*
X71900103Y-91592548D01*
X71926143Y-91480034D01*
X71975175Y-91371985D01*
X71989600Y-91348345D01*
X72064631Y-91252887D01*
X72153270Y-91176232D01*
X72252451Y-91118780D01*
X72359105Y-91080929D01*
X72470164Y-91063078D01*
X72582561Y-91065625D01*
X72693227Y-91088970D01*
X72799094Y-91133510D01*
X72897095Y-91199645D01*
X72927410Y-91226487D01*
X73004562Y-91310512D01*
X73060782Y-91398966D01*
X73099347Y-91498115D01*
X73120826Y-91596303D01*
X73126128Y-91706697D01*
X73108448Y-91817640D01*
X73069581Y-91925381D01*
X73011323Y-92026169D01*
X72935469Y-92116256D01*
X72843817Y-92191892D01*
X72831772Y-92199864D01*
X72793611Y-92225974D01*
X72764601Y-92248595D01*
X72750732Y-92263039D01*
X72750531Y-92263496D01*
X72753508Y-92279121D01*
X72765311Y-92314582D01*
X72784714Y-92366962D01*
X72810488Y-92433345D01*
X72841409Y-92510814D01*
X72876249Y-92596450D01*
X72913783Y-92687337D01*
X72952783Y-92780559D01*
X72992023Y-92873197D01*
X73030276Y-92962335D01*
X73066317Y-93045055D01*
X73098917Y-93118441D01*
X73126852Y-93179575D01*
X73148895Y-93225541D01*
X73163818Y-93253421D01*
X73169828Y-93260743D01*
X73188191Y-93255041D01*
X73222552Y-93239749D01*
X73266984Y-93217599D01*
X73291417Y-93204650D01*
X73395178Y-93148547D01*
X73518787Y-93232155D01*
X73581886Y-93274987D01*
X73650970Y-93322122D01*
X73715707Y-93366503D01*
X73748134Y-93388852D01*
X73793741Y-93419477D01*
X73832360Y-93443747D01*
X73858952Y-93458587D01*
X73867590Y-93461724D01*
X73880161Y-93453261D01*
X73907984Y-93429636D01*
X73948361Y-93393302D01*
X73998595Y-93346711D01*
X74055988Y-93292317D01*
X74092286Y-93257392D01*
X74155790Y-93194996D01*
X74210673Y-93139188D01*
X74254714Y-93092354D01*
X74285695Y-93056882D01*
X74301398Y-93035161D01*
X74302905Y-93030752D01*
X74295914Y-93013985D01*
X74276594Y-92980082D01*
X74247091Y-92932476D01*
X74209545Y-92874599D01*
X74166100Y-92809884D01*
X74153745Y-92791842D01*
X74108727Y-92726267D01*
X74068340Y-92667228D01*
X74034840Y-92618042D01*
X74010486Y-92582028D01*
X73997536Y-92562502D01*
X73996285Y-92560483D01*
X73998156Y-92544922D01*
X74008087Y-92510709D01*
X74024347Y-92462355D01*
X74045205Y-92404371D01*
X74068927Y-92341270D01*
X74093784Y-92277563D01*
X74118042Y-92217761D01*
X74139971Y-92166376D01*
X74157838Y-92127919D01*
X74169913Y-92106902D01*
X74170771Y-92105894D01*
X74178154Y-92099888D01*
X74190625Y-92093948D01*
X74210920Y-92087460D01*
X74241778Y-92079809D01*
X74285934Y-92070380D01*
X74346126Y-92058559D01*
X74425093Y-92043729D01*
X74525570Y-92025277D01*
X74547325Y-92021310D01*
X74611802Y-92008853D01*
X74668011Y-91996666D01*
X74710987Y-91985926D01*
X74735760Y-91977809D01*
X74739082Y-91975916D01*
X74744556Y-91959138D01*
X74749006Y-91921645D01*
X74752428Y-91867794D01*
X74754819Y-91801944D01*
X74756177Y-91728453D01*
X74756499Y-91651680D01*
X74755781Y-91575983D01*
X74754021Y-91505720D01*
X74751216Y-91445250D01*
X74747362Y-91398930D01*
X74742457Y-91371119D01*
X74739500Y-91365427D01*
X74723037Y-91359686D01*
X74685551Y-91350345D01*
X74630775Y-91338215D01*
X74562445Y-91324107D01*
X74484294Y-91308830D01*
X74441716Y-91300823D01*
X74360929Y-91285721D01*
X74288887Y-91272040D01*
X74229111Y-91260467D01*
X74185121Y-91251687D01*
X74160439Y-91246387D01*
X74156377Y-91245212D01*
X74149511Y-91231965D01*
X74134998Y-91200057D01*
X74114771Y-91154047D01*
X74090766Y-91098492D01*
X74064918Y-91037953D01*
X74039160Y-90976986D01*
X74015427Y-90920151D01*
X73995654Y-90872006D01*
X73981776Y-90837110D01*
X73975726Y-90820021D01*
X73975614Y-90819274D01*
X73982472Y-90805793D01*
X74001698Y-90774770D01*
X74031272Y-90729289D01*
X74069173Y-90672432D01*
X74113380Y-90607283D01*
X74139079Y-90569862D01*
X74185907Y-90501247D01*
X74227499Y-90438952D01*
X74261825Y-90386129D01*
X74286857Y-90345927D01*
X74300565Y-90321500D01*
X74302544Y-90316024D01*
X74294034Y-90303278D01*
X74270507Y-90276063D01*
X74234968Y-90237428D01*
X74190423Y-90190423D01*
X74139877Y-90138095D01*
X74086336Y-90083495D01*
X74032805Y-90029670D01*
X73982289Y-89979670D01*
X73937794Y-89936543D01*
X73902325Y-89903339D01*
X73878887Y-89883106D01*
X73871046Y-89878278D01*
X73858280Y-89885067D01*
X73827744Y-89904142D01*
X73782410Y-89933561D01*
X73725244Y-89971381D01*
X73659216Y-90015661D01*
X73609410Y-90049395D01*
X73357764Y-90220512D01*
X73148001Y-90134041D01*
X72938237Y-90047570D01*
X72881389Y-89746018D01*
X72824540Y-89444466D01*
X72196885Y-89444466D01*
X72140036Y-89746018D01*
G36*
X70717540Y-93914030D02*
G01*
X70674289Y-93927245D01*
X70646442Y-93943941D01*
X70637371Y-93957145D01*
X70639868Y-93972797D01*
X70656069Y-93997385D01*
X70669768Y-94014800D01*
X70698008Y-94046283D01*
X70719225Y-94059529D01*
X70737312Y-94058664D01*
X70790965Y-94045010D01*
X70830370Y-94045630D01*
X70862368Y-94061104D01*
X70873110Y-94070161D01*
X70907495Y-94102027D01*
X70907495Y-94518179D01*
X71045812Y-94518179D01*
X71045812Y-93914614D01*
X70976653Y-93914614D01*
X70935131Y-93916256D01*
X70913709Y-93922087D01*
X70907498Y-93933461D01*
X70907495Y-93933798D01*
X70904561Y-93945713D01*
X70891296Y-93944159D01*
X70872916Y-93935563D01*
X70834954Y-93919568D01*
X70804128Y-93909945D01*
X70764464Y-93907478D01*
X70717540Y-93914030D01*
G37*
X70717540Y-93914030D02*
X70674289Y-93927245D01*
X70646442Y-93943941D01*
X70637371Y-93957145D01*
X70639868Y-93972797D01*
X70656069Y-93997385D01*
X70669768Y-94014800D01*
X70698008Y-94046283D01*
X70719225Y-94059529D01*
X70737312Y-94058664D01*
X70790965Y-94045010D01*
X70830370Y-94045630D01*
X70862368Y-94061104D01*
X70873110Y-94070161D01*
X70907495Y-94102027D01*
X70907495Y-94518179D01*
X71045812Y-94518179D01*
X71045812Y-93914614D01*
X70976653Y-93914614D01*
X70935131Y-93916256D01*
X70913709Y-93922087D01*
X70907498Y-93933461D01*
X70907495Y-93933798D01*
X70904561Y-93945713D01*
X70891296Y-93944159D01*
X70872916Y-93935563D01*
X70834954Y-93919568D01*
X70804128Y-93909945D01*
X70764464Y-93907478D01*
X70717540Y-93914030D01*
G36*
X73271012Y-93925002D02*
G01*
X73239717Y-93939950D01*
X73209409Y-93961541D01*
X73186318Y-93986391D01*
X73169500Y-94018087D01*
X73158006Y-94060214D01*
X73150891Y-94116358D01*
X73147207Y-94190106D01*
X73146008Y-94285044D01*
X73145989Y-94294985D01*
X73145713Y-94518179D01*
X73284030Y-94518179D01*
X73284030Y-94312418D01*
X73284128Y-94236189D01*
X73284809Y-94180939D01*
X73286651Y-94142501D01*
X73290233Y-94116706D01*
X73296132Y-94099384D01*
X73304927Y-94086368D01*
X73317180Y-94073507D01*
X73360047Y-94045873D01*
X73406843Y-94040745D01*
X73451424Y-94058217D01*
X73466928Y-94071221D01*
X73478310Y-94083447D01*
X73486481Y-94096540D01*
X73491974Y-94114615D01*
X73495320Y-94141787D01*
X73497051Y-94182170D01*
X73497697Y-94239879D01*
X73497792Y-94310132D01*
X73497792Y-94518179D01*
X73636109Y-94518179D01*
X73636109Y-93914614D01*
X73566950Y-93914614D01*
X73525428Y-93916256D01*
X73504006Y-93922087D01*
X73497795Y-93933461D01*
X73497792Y-93933798D01*
X73494910Y-93944938D01*
X73482199Y-93943674D01*
X73456926Y-93931434D01*
X73399605Y-93913424D01*
X73334037Y-93911421D01*
X73271012Y-93925002D01*
G37*
X73271012Y-93925002D02*
X73239717Y-93939950D01*
X73209409Y-93961541D01*
X73186318Y-93986391D01*
X73169500Y-94018087D01*
X73158006Y-94060214D01*
X73150891Y-94116358D01*
X73147207Y-94190106D01*
X73146008Y-94285044D01*
X73145989Y-94294985D01*
X73145713Y-94518179D01*
X73284030Y-94518179D01*
X73284030Y-94312418D01*
X73284128Y-94236189D01*
X73284809Y-94180939D01*
X73286651Y-94142501D01*
X73290233Y-94116706D01*
X73296132Y-94099384D01*
X73304927Y-94086368D01*
X73317180Y-94073507D01*
X73360047Y-94045873D01*
X73406843Y-94040745D01*
X73451424Y-94058217D01*
X73466928Y-94071221D01*
X73478310Y-94083447D01*
X73486481Y-94096540D01*
X73491974Y-94114615D01*
X73495320Y-94141787D01*
X73497051Y-94182170D01*
X73497697Y-94239879D01*
X73497792Y-94310132D01*
X73497792Y-94518179D01*
X73636109Y-94518179D01*
X73636109Y-93914614D01*
X73566950Y-93914614D01*
X73525428Y-93916256D01*
X73504006Y-93922087D01*
X73497795Y-93933461D01*
X73497792Y-93933798D01*
X73494910Y-93944938D01*
X73482199Y-93943674D01*
X73456926Y-93931434D01*
X73399605Y-93913424D01*
X73334037Y-93911421D01*
X73271012Y-93925002D01*
G36*
X69839102Y-93912457D02*
G01*
X69806904Y-93920279D01*
X69745175Y-93948921D01*
X69692390Y-93992667D01*
X69655859Y-94045117D01*
X69650840Y-94056893D01*
X69643955Y-94087740D01*
X69639136Y-94133371D01*
X69637495Y-94179492D01*
X69637495Y-94266693D01*
X69819822Y-94266693D01*
X69895021Y-94266978D01*
X69947997Y-94268704D01*
X69981675Y-94273181D01*
X69998980Y-94281720D01*
X70002837Y-94295630D01*
X69996171Y-94316222D01*
X69984230Y-94340315D01*
X69950920Y-94380525D01*
X69904632Y-94400558D01*
X69848056Y-94399905D01*
X69783969Y-94378101D01*
X69728583Y-94351193D01*
X69682625Y-94387532D01*
X69636667Y-94423872D01*
X69679904Y-94463819D01*
X69737626Y-94501563D01*
X69808614Y-94524320D01*
X69884971Y-94530688D01*
X69958801Y-94519268D01*
X69970713Y-94515393D01*
X70035601Y-94481506D01*
X70083870Y-94430986D01*
X70116535Y-94362325D01*
X70134615Y-94274014D01*
X70134825Y-94272121D01*
X70136444Y-94175878D01*
X70129900Y-94141542D01*
X70002148Y-94141542D01*
X69990416Y-94146822D01*
X69958562Y-94150867D01*
X69911603Y-94153176D01*
X69881846Y-94153525D01*
X69826352Y-94153306D01*
X69791654Y-94151916D01*
X69773399Y-94148251D01*
X69767234Y-94141210D01*
X69768805Y-94129690D01*
X69770122Y-94125233D01*
X69792618Y-94083355D01*
X69827997Y-94049604D01*
X69859220Y-94034773D01*
X69900699Y-94035668D01*
X69942731Y-94054164D01*
X69977988Y-94084786D01*
X69999146Y-94122062D01*
X70002148Y-94141542D01*
X70129900Y-94141542D01*
X70120310Y-94091229D01*
X70088302Y-94020191D01*
X70042299Y-93964779D01*
X69984179Y-93927009D01*
X69915820Y-93908896D01*
X69839102Y-93912457D01*
G37*
X69839102Y-93912457D02*
X69806904Y-93920279D01*
X69745175Y-93948921D01*
X69692390Y-93992667D01*
X69655859Y-94045117D01*
X69650840Y-94056893D01*
X69643955Y-94087740D01*
X69639136Y-94133371D01*
X69637495Y-94179492D01*
X69637495Y-94266693D01*
X69819822Y-94266693D01*
X69895021Y-94266978D01*
X69947997Y-94268704D01*
X69981675Y-94273181D01*
X69998980Y-94281720D01*
X70002837Y-94295630D01*
X69996171Y-94316222D01*
X69984230Y-94340315D01*
X69950920Y-94380525D01*
X69904632Y-94400558D01*
X69848056Y-94399905D01*
X69783969Y-94378101D01*
X69728583Y-94351193D01*
X69682625Y-94387532D01*
X69636667Y-94423872D01*
X69679904Y-94463819D01*
X69737626Y-94501563D01*
X69808614Y-94524320D01*
X69884971Y-94530688D01*
X69958801Y-94519268D01*
X69970713Y-94515393D01*
X70035601Y-94481506D01*
X70083870Y-94430986D01*
X70116535Y-94362325D01*
X70134615Y-94274014D01*
X70134825Y-94272121D01*
X70136444Y-94175878D01*
X70129900Y-94141542D01*
X70002148Y-94141542D01*
X69990416Y-94146822D01*
X69958562Y-94150867D01*
X69911603Y-94153176D01*
X69881846Y-94153525D01*
X69826352Y-94153306D01*
X69791654Y-94151916D01*
X69773399Y-94148251D01*
X69767234Y-94141210D01*
X69768805Y-94129690D01*
X69770122Y-94125233D01*
X69792618Y-94083355D01*
X69827997Y-94049604D01*
X69859220Y-94034773D01*
X69900699Y-94035668D01*
X69942731Y-94054164D01*
X69977988Y-94084786D01*
X69999146Y-94122062D01*
X70002148Y-94141542D01*
X70129900Y-94141542D01*
X70120310Y-94091229D01*
X70088302Y-94020191D01*
X70042299Y-93964779D01*
X69984179Y-93927009D01*
X69915820Y-93908896D01*
X69839102Y-93912457D01*
G36*
X70299774Y-93919880D02*
G01*
X70226920Y-93950830D01*
X70203973Y-93965895D01*
X70174646Y-93989048D01*
X70156236Y-94007253D01*
X70153039Y-94013183D01*
X70162065Y-94026340D01*
X70185163Y-94048667D01*
X70203656Y-94064250D01*
X70254272Y-94104926D01*
X70294240Y-94071295D01*
X70325126Y-94049584D01*
X70355241Y-94042090D01*
X70389708Y-94043920D01*
X70444439Y-94057528D01*
X70482114Y-94085772D01*
X70505009Y-94131433D01*
X70515403Y-94197289D01*
X70515405Y-94197331D01*
X70514506Y-94270939D01*
X70500537Y-94324946D01*
X70472672Y-94361716D01*
X70453675Y-94374168D01*
X70403224Y-94389673D01*
X70349337Y-94389683D01*
X70302454Y-94374638D01*
X70291356Y-94367287D01*
X70263524Y-94348511D01*
X70241764Y-94345434D01*
X70218296Y-94359409D01*
X70192351Y-94384510D01*
X70151284Y-94426880D01*
X70196879Y-94464464D01*
X70267326Y-94506882D01*
X70346767Y-94527785D01*
X70429785Y-94526272D01*
X70484306Y-94512411D01*
X70548030Y-94478135D01*
X70598995Y-94424212D01*
X70622149Y-94386149D01*
X70640901Y-94331536D01*
X70650285Y-94262369D01*
X70650357Y-94187407D01*
X70641176Y-94115409D01*
X70622801Y-94055137D01*
X70619907Y-94048958D01*
X70577048Y-93988351D01*
X70519021Y-93944224D01*
X70450409Y-93917493D01*
X70375799Y-93909073D01*
X70299774Y-93919880D01*
G37*
X70299774Y-93919880D02*
X70226920Y-93950830D01*
X70203973Y-93965895D01*
X70174646Y-93989048D01*
X70156236Y-94007253D01*
X70153039Y-94013183D01*
X70162065Y-94026340D01*
X70185163Y-94048667D01*
X70203656Y-94064250D01*
X70254272Y-94104926D01*
X70294240Y-94071295D01*
X70325126Y-94049584D01*
X70355241Y-94042090D01*
X70389708Y-94043920D01*
X70444439Y-94057528D01*
X70482114Y-94085772D01*
X70505009Y-94131433D01*
X70515403Y-94197289D01*
X70515405Y-94197331D01*
X70514506Y-94270939D01*
X70500537Y-94324946D01*
X70472672Y-94361716D01*
X70453675Y-94374168D01*
X70403224Y-94389673D01*
X70349337Y-94389683D01*
X70302454Y-94374638D01*
X70291356Y-94367287D01*
X70263524Y-94348511D01*
X70241764Y-94345434D01*
X70218296Y-94359409D01*
X70192351Y-94384510D01*
X70151284Y-94426880D01*
X70196879Y-94464464D01*
X70267326Y-94506882D01*
X70346767Y-94527785D01*
X70429785Y-94526272D01*
X70484306Y-94512411D01*
X70548030Y-94478135D01*
X70598995Y-94424212D01*
X70622149Y-94386149D01*
X70640901Y-94331536D01*
X70650285Y-94262369D01*
X70650357Y-94187407D01*
X70641176Y-94115409D01*
X70622801Y-94055137D01*
X70619907Y-94048958D01*
X70577048Y-93988351D01*
X70519021Y-93944224D01*
X70450409Y-93917493D01*
X70375799Y-93909073D01*
X70299774Y-93919880D01*
G36*
X71523633Y-94110342D02*
G01*
X71522445Y-94202563D01*
X71518103Y-94272610D01*
X71509442Y-94323381D01*
X71495296Y-94357772D01*
X71474500Y-94378679D01*
X71445890Y-94389000D01*
X71410465Y-94391636D01*
X71373364Y-94388682D01*
X71345182Y-94377889D01*
X71324757Y-94356360D01*
X71310921Y-94321199D01*
X71302509Y-94269510D01*
X71298357Y-94198394D01*
X71297297Y-94110342D01*
X71297297Y-93914614D01*
X71158980Y-93914614D01*
X71158980Y-94518179D01*
X71228138Y-94518179D01*
X71269830Y-94516489D01*
X71291299Y-94510556D01*
X71297297Y-94499293D01*
X71300909Y-94489261D01*
X71315286Y-94491383D01*
X71344264Y-94505580D01*
X71410681Y-94527480D01*
X71481125Y-94525928D01*
X71548623Y-94502147D01*
X71580767Y-94483362D01*
X71605285Y-94463022D01*
X71623196Y-94437573D01*
X71635521Y-94403458D01*
X71643277Y-94357121D01*
X71647484Y-94295007D01*
X71649160Y-94213561D01*
X71649376Y-94150578D01*
X71649376Y-93914614D01*
X71523633Y-93914614D01*
X71523633Y-94110342D01*
G37*
X71523633Y-94110342D02*
X71522445Y-94202563D01*
X71518103Y-94272610D01*
X71509442Y-94323381D01*
X71495296Y-94357772D01*
X71474500Y-94378679D01*
X71445890Y-94389000D01*
X71410465Y-94391636D01*
X71373364Y-94388682D01*
X71345182Y-94377889D01*
X71324757Y-94356360D01*
X71310921Y-94321199D01*
X71302509Y-94269510D01*
X71298357Y-94198394D01*
X71297297Y-94110342D01*
X71297297Y-93914614D01*
X71158980Y-93914614D01*
X71158980Y-94518179D01*
X71228138Y-94518179D01*
X71269830Y-94516489D01*
X71291299Y-94510556D01*
X71297297Y-94499293D01*
X71300909Y-94489261D01*
X71315286Y-94491383D01*
X71344264Y-94505580D01*
X71410681Y-94527480D01*
X71481125Y-94525928D01*
X71548623Y-94502147D01*
X71580767Y-94483362D01*
X71605285Y-94463022D01*
X71623196Y-94437573D01*
X71635521Y-94403458D01*
X71643277Y-94357121D01*
X71647484Y-94295007D01*
X71649160Y-94213561D01*
X71649376Y-94150578D01*
X71649376Y-93914614D01*
X71523633Y-93914614D01*
X71523633Y-94110342D01*
G36*
X71906238Y-93922055D02*
G01*
X71842637Y-93956692D01*
X71792877Y-94011372D01*
X71769432Y-94055842D01*
X71759366Y-94095121D01*
X71752844Y-94151116D01*
X71750049Y-94215621D01*
X71751164Y-94280429D01*
X71756374Y-94337334D01*
X71762459Y-94367727D01*
X71782986Y-94409306D01*
X71818537Y-94453468D01*
X71861381Y-94492087D01*
X71903789Y-94517034D01*
X71904823Y-94517430D01*
X71957447Y-94528331D01*
X72019812Y-94528601D01*
X72079076Y-94518676D01*
X72101960Y-94510722D01*
X72160898Y-94477300D01*
X72203110Y-94433511D01*
X72230844Y-94375538D01*
X72246349Y-94299565D01*
X72249857Y-94259771D01*
X72249410Y-94209766D01*
X72114624Y-94209766D01*
X72110083Y-94282732D01*
X72097014Y-94338334D01*
X72076244Y-94373861D01*
X72061448Y-94384020D01*
X72023536Y-94391104D01*
X71978473Y-94389007D01*
X71939513Y-94378812D01*
X71929296Y-94373204D01*
X71902341Y-94340538D01*
X71884549Y-94290545D01*
X71876976Y-94229705D01*
X71880675Y-94164497D01*
X71888943Y-94125253D01*
X71912680Y-94079805D01*
X71950151Y-94051396D01*
X71995280Y-94041573D01*
X72041989Y-94051887D01*
X72077868Y-94077112D01*
X72096723Y-94097925D01*
X72107728Y-94118439D01*
X72112974Y-94146203D01*
X72114551Y-94188762D01*
X72114624Y-94209766D01*
X72249410Y-94209766D01*
X72248906Y-94153580D01*
X72231612Y-94066501D01*
X72197971Y-93998530D01*
X72147982Y-93949664D01*
X72081644Y-93919899D01*
X72067399Y-93916448D01*
X71981790Y-93908345D01*
X71906238Y-93922055D01*
G37*
X71906238Y-93922055D02*
X71842637Y-93956692D01*
X71792877Y-94011372D01*
X71769432Y-94055842D01*
X71759366Y-94095121D01*
X71752844Y-94151116D01*
X71750049Y-94215621D01*
X71751164Y-94280429D01*
X71756374Y-94337334D01*
X71762459Y-94367727D01*
X71782986Y-94409306D01*
X71818537Y-94453468D01*
X71861381Y-94492087D01*
X71903789Y-94517034D01*
X71904823Y-94517430D01*
X71957447Y-94528331D01*
X72019812Y-94528601D01*
X72079076Y-94518676D01*
X72101960Y-94510722D01*
X72160898Y-94477300D01*
X72203110Y-94433511D01*
X72230844Y-94375538D01*
X72246349Y-94299565D01*
X72249857Y-94259771D01*
X72249410Y-94209766D01*
X72114624Y-94209766D01*
X72110083Y-94282732D01*
X72097014Y-94338334D01*
X72076244Y-94373861D01*
X72061448Y-94384020D01*
X72023536Y-94391104D01*
X71978473Y-94389007D01*
X71939513Y-94378812D01*
X71929296Y-94373204D01*
X71902341Y-94340538D01*
X71884549Y-94290545D01*
X71876976Y-94229705D01*
X71880675Y-94164497D01*
X71888943Y-94125253D01*
X71912680Y-94079805D01*
X71950151Y-94051396D01*
X71995280Y-94041573D01*
X72041989Y-94051887D01*
X72077868Y-94077112D01*
X72096723Y-94097925D01*
X72107728Y-94118439D01*
X72112974Y-94146203D01*
X72114551Y-94188762D01*
X72114624Y-94209766D01*
X72249410Y-94209766D01*
X72248906Y-94153580D01*
X72231612Y-94066501D01*
X72197971Y-93998530D01*
X72147982Y-93949664D01*
X72081644Y-93919899D01*
X72067399Y-93916448D01*
X71981790Y-93908345D01*
X71906238Y-93922055D01*
G36*
X72502983Y-93912452D02*
G01*
X72455366Y-93921482D01*
X72405966Y-93940370D01*
X72400688Y-93942777D01*
X72363226Y-93962476D01*
X72337283Y-93980781D01*
X72328897Y-93992508D01*
X72336883Y-94011632D01*
X72356280Y-94039850D01*
X72364890Y-94050384D01*
X72400372Y-94091847D01*
X72446115Y-94064858D01*
X72489650Y-94046878D01*
X72539950Y-94037267D01*
X72588188Y-94036660D01*
X72625533Y-94045691D01*
X72634495Y-94051327D01*
X72651563Y-94077171D01*
X72653637Y-94106941D01*
X72640866Y-94130197D01*
X72633312Y-94134708D01*
X72610675Y-94140309D01*
X72570885Y-94146892D01*
X72521834Y-94153183D01*
X72512785Y-94154170D01*
X72434004Y-94167798D01*
X72376864Y-94190946D01*
X72338970Y-94225752D01*
X72317921Y-94274354D01*
X72311365Y-94333718D01*
X72320423Y-94401198D01*
X72349836Y-94454188D01*
X72399722Y-94492783D01*
X72470200Y-94517081D01*
X72548435Y-94526667D01*
X72612234Y-94526552D01*
X72663984Y-94517845D01*
X72699327Y-94505825D01*
X72743983Y-94484880D01*
X72785253Y-94460574D01*
X72799921Y-94449876D01*
X72837643Y-94419084D01*
X72792148Y-94373049D01*
X72746653Y-94327013D01*
X72694928Y-94361243D01*
X72643048Y-94386952D01*
X72587649Y-94400399D01*
X72534395Y-94401818D01*
X72488951Y-94391443D01*
X72456984Y-94369507D01*
X72446662Y-94350998D01*
X72448211Y-94321314D01*
X72473860Y-94298615D01*
X72523540Y-94282940D01*
X72577969Y-94275695D01*
X72661736Y-94261873D01*
X72723967Y-94235796D01*
X72765493Y-94196699D01*
X72787147Y-94143820D01*
X72790147Y-94081126D01*
X72775329Y-94015642D01*
X72741546Y-93966144D01*
X72688495Y-93932408D01*
X72615874Y-93914207D01*
X72562072Y-93910639D01*
X72502983Y-93912452D01*
G37*
X72502983Y-93912452D02*
X72455366Y-93921482D01*
X72405966Y-93940370D01*
X72400688Y-93942777D01*
X72363226Y-93962476D01*
X72337283Y-93980781D01*
X72328897Y-93992508D01*
X72336883Y-94011632D01*
X72356280Y-94039850D01*
X72364890Y-94050384D01*
X72400372Y-94091847D01*
X72446115Y-94064858D01*
X72489650Y-94046878D01*
X72539950Y-94037267D01*
X72588188Y-94036660D01*
X72625533Y-94045691D01*
X72634495Y-94051327D01*
X72651563Y-94077171D01*
X72653637Y-94106941D01*
X72640866Y-94130197D01*
X72633312Y-94134708D01*
X72610675Y-94140309D01*
X72570885Y-94146892D01*
X72521834Y-94153183D01*
X72512785Y-94154170D01*
X72434004Y-94167798D01*
X72376864Y-94190946D01*
X72338970Y-94225752D01*
X72317921Y-94274354D01*
X72311365Y-94333718D01*
X72320423Y-94401198D01*
X72349836Y-94454188D01*
X72399722Y-94492783D01*
X72470200Y-94517081D01*
X72548435Y-94526667D01*
X72612234Y-94526552D01*
X72663984Y-94517845D01*
X72699327Y-94505825D01*
X72743983Y-94484880D01*
X72785253Y-94460574D01*
X72799921Y-94449876D01*
X72837643Y-94419084D01*
X72792148Y-94373049D01*
X72746653Y-94327013D01*
X72694928Y-94361243D01*
X72643048Y-94386952D01*
X72587649Y-94400399D01*
X72534395Y-94401818D01*
X72488951Y-94391443D01*
X72456984Y-94369507D01*
X72446662Y-94350998D01*
X72448211Y-94321314D01*
X72473860Y-94298615D01*
X72523540Y-94282940D01*
X72577969Y-94275695D01*
X72661736Y-94261873D01*
X72723967Y-94235796D01*
X72765493Y-94196699D01*
X72787147Y-94143820D01*
X72790147Y-94081126D01*
X72775329Y-94015642D01*
X72741546Y-93966144D01*
X72688495Y-93932408D01*
X72615874Y-93914207D01*
X72562072Y-93910639D01*
X72502983Y-93912452D01*
G36*
X73873699Y-93928614D02*
G01*
X73861168Y-93934514D01*
X73817799Y-93966283D01*
X73776790Y-94012646D01*
X73746168Y-94063696D01*
X73737459Y-94087166D01*
X73729512Y-94129091D01*
X73724774Y-94179757D01*
X73724199Y-94200679D01*
X73724129Y-94266693D01*
X74104083Y-94266693D01*
X74095983Y-94301273D01*
X74076104Y-94342170D01*
X74041347Y-94377514D01*
X73999998Y-94400282D01*
X73973649Y-94405010D01*
X73937916Y-94399273D01*
X73895282Y-94384882D01*
X73880799Y-94378262D01*
X73827240Y-94351513D01*
X73781533Y-94386376D01*
X73755158Y-94409955D01*
X73741124Y-94429417D01*
X73740414Y-94435129D01*
X73752951Y-94448973D01*
X73780428Y-94470012D01*
X73805366Y-94486425D01*
X73872664Y-94515930D01*
X73948110Y-94529284D01*
X74022888Y-94525812D01*
X74082495Y-94507663D01*
X74143941Y-94468784D01*
X74187608Y-94417595D01*
X74214926Y-94351367D01*
X74227322Y-94267371D01*
X74228421Y-94228936D01*
X74224022Y-94140861D01*
X74223482Y-94138299D01*
X74097582Y-94138299D01*
X74094115Y-94146558D01*
X74079863Y-94151113D01*
X74050470Y-94153065D01*
X74001575Y-94153517D01*
X73982748Y-94153525D01*
X73925467Y-94152843D01*
X73889141Y-94150364D01*
X73869604Y-94145443D01*
X73862690Y-94137434D01*
X73862445Y-94134862D01*
X73870336Y-94114423D01*
X73890085Y-94085789D01*
X73898575Y-94075763D01*
X73930094Y-94047408D01*
X73962949Y-94036259D01*
X73980651Y-94035327D01*
X74028539Y-94046981D01*
X74068699Y-94078285D01*
X74094173Y-94123752D01*
X74094625Y-94125233D01*
X74097582Y-94138299D01*
X74223482Y-94138299D01*
X74209392Y-94071510D01*
X74183038Y-94016025D01*
X74150807Y-93976639D01*
X74091217Y-93933931D01*
X74021168Y-93911109D01*
X73946661Y-93909046D01*
X73873699Y-93928614D01*
G37*
X73873699Y-93928614D02*
X73861168Y-93934514D01*
X73817799Y-93966283D01*
X73776790Y-94012646D01*
X73746168Y-94063696D01*
X73737459Y-94087166D01*
X73729512Y-94129091D01*
X73724774Y-94179757D01*
X73724199Y-94200679D01*
X73724129Y-94266693D01*
X74104083Y-94266693D01*
X74095983Y-94301273D01*
X74076104Y-94342170D01*
X74041347Y-94377514D01*
X73999998Y-94400282D01*
X73973649Y-94405010D01*
X73937916Y-94399273D01*
X73895282Y-94384882D01*
X73880799Y-94378262D01*
X73827240Y-94351513D01*
X73781533Y-94386376D01*
X73755158Y-94409955D01*
X73741124Y-94429417D01*
X73740414Y-94435129D01*
X73752951Y-94448973D01*
X73780428Y-94470012D01*
X73805366Y-94486425D01*
X73872664Y-94515930D01*
X73948110Y-94529284D01*
X74022888Y-94525812D01*
X74082495Y-94507663D01*
X74143941Y-94468784D01*
X74187608Y-94417595D01*
X74214926Y-94351367D01*
X74227322Y-94267371D01*
X74228421Y-94228936D01*
X74224022Y-94140861D01*
X74223482Y-94138299D01*
X74097582Y-94138299D01*
X74094115Y-94146558D01*
X74079863Y-94151113D01*
X74050470Y-94153065D01*
X74001575Y-94153517D01*
X73982748Y-94153525D01*
X73925467Y-94152843D01*
X73889141Y-94150364D01*
X73869604Y-94145443D01*
X73862690Y-94137434D01*
X73862445Y-94134862D01*
X73870336Y-94114423D01*
X73890085Y-94085789D01*
X73898575Y-94075763D01*
X73930094Y-94047408D01*
X73962949Y-94036259D01*
X73980651Y-94035327D01*
X74028539Y-94046981D01*
X74068699Y-94078285D01*
X74094173Y-94123752D01*
X74094625Y-94125233D01*
X74097582Y-94138299D01*
X74223482Y-94138299D01*
X74209392Y-94071510D01*
X74183038Y-94016025D01*
X74150807Y-93976639D01*
X74091217Y-93933931D01*
X74021168Y-93911109D01*
X73946661Y-93909046D01*
X73873699Y-93928614D01*
G36*
X75055261Y-93921148D02*
G01*
X74989479Y-93950231D01*
X74939540Y-93998793D01*
X74905374Y-94066908D01*
X74886907Y-94154651D01*
X74885583Y-94168351D01*
X74884546Y-94264939D01*
X74897993Y-94349602D01*
X74925108Y-94418221D01*
X74939627Y-94440294D01*
X74990201Y-94487011D01*
X75054609Y-94517268D01*
X75126666Y-94529824D01*
X75200185Y-94523439D01*
X75256072Y-94503772D01*
X75304132Y-94470629D01*
X75343412Y-94427175D01*
X75344092Y-94426158D01*
X75360044Y-94399338D01*
X75370410Y-94372368D01*
X75376688Y-94338332D01*
X75380373Y-94290310D01*
X75381997Y-94250931D01*
X75382672Y-94215219D01*
X75256955Y-94215219D01*
X75255726Y-94250770D01*
X75251266Y-94298094D01*
X75243397Y-94328465D01*
X75229207Y-94350072D01*
X75215917Y-94362694D01*
X75168802Y-94389122D01*
X75119505Y-94392653D01*
X75073593Y-94373639D01*
X75050638Y-94352331D01*
X75034096Y-94330859D01*
X75024421Y-94310313D01*
X75020174Y-94283574D01*
X75019920Y-94243523D01*
X75021228Y-94206638D01*
X75024043Y-94153947D01*
X75028505Y-94119772D01*
X75036548Y-94097480D01*
X75050103Y-94080442D01*
X75060845Y-94070703D01*
X75105777Y-94045123D01*
X75154249Y-94043847D01*
X75194894Y-94058999D01*
X75229567Y-94090642D01*
X75250224Y-94142620D01*
X75256955Y-94215219D01*
X75382672Y-94215219D01*
X75383479Y-94172621D01*
X75380948Y-94114056D01*
X75373362Y-94070007D01*
X75359681Y-94035248D01*
X75338865Y-94004551D01*
X75331147Y-93995436D01*
X75282889Y-93950021D01*
X75231128Y-93923493D01*
X75167828Y-93912379D01*
X75136961Y-93911471D01*
X75055261Y-93921148D01*
G37*
X75055261Y-93921148D02*
X74989479Y-93950231D01*
X74939540Y-93998793D01*
X74905374Y-94066908D01*
X74886907Y-94154651D01*
X74885583Y-94168351D01*
X74884546Y-94264939D01*
X74897993Y-94349602D01*
X74925108Y-94418221D01*
X74939627Y-94440294D01*
X74990201Y-94487011D01*
X75054609Y-94517268D01*
X75126666Y-94529824D01*
X75200185Y-94523439D01*
X75256072Y-94503772D01*
X75304132Y-94470629D01*
X75343412Y-94427175D01*
X75344092Y-94426158D01*
X75360044Y-94399338D01*
X75370410Y-94372368D01*
X75376688Y-94338332D01*
X75380373Y-94290310D01*
X75381997Y-94250931D01*
X75382672Y-94215219D01*
X75256955Y-94215219D01*
X75255726Y-94250770D01*
X75251266Y-94298094D01*
X75243397Y-94328465D01*
X75229207Y-94350072D01*
X75215917Y-94362694D01*
X75168802Y-94389122D01*
X75119505Y-94392653D01*
X75073593Y-94373639D01*
X75050638Y-94352331D01*
X75034096Y-94330859D01*
X75024421Y-94310313D01*
X75020174Y-94283574D01*
X75019920Y-94243523D01*
X75021228Y-94206638D01*
X75024043Y-94153947D01*
X75028505Y-94119772D01*
X75036548Y-94097480D01*
X75050103Y-94080442D01*
X75060845Y-94070703D01*
X75105777Y-94045123D01*
X75154249Y-94043847D01*
X75194894Y-94058999D01*
X75229567Y-94090642D01*
X75250224Y-94142620D01*
X75256955Y-94215219D01*
X75382672Y-94215219D01*
X75383479Y-94172621D01*
X75380948Y-94114056D01*
X75373362Y-94070007D01*
X75359681Y-94035248D01*
X75338865Y-94004551D01*
X75331147Y-93995436D01*
X75282889Y-93950021D01*
X75231128Y-93923493D01*
X75167828Y-93912379D01*
X75136961Y-93911471D01*
X75055261Y-93921148D01*
G36*
X70484419Y-94860970D02*
G01*
X70424315Y-94876597D01*
X70373979Y-94908848D01*
X70349607Y-94932940D01*
X70309655Y-94989895D01*
X70286758Y-95055965D01*
X70278892Y-95137182D01*
X70278852Y-95143748D01*
X70278782Y-95209763D01*
X70658736Y-95209763D01*
X70650637Y-95244342D01*
X70636013Y-95275659D01*
X70610419Y-95308291D01*
X70605065Y-95313500D01*
X70559057Y-95341694D01*
X70506590Y-95346475D01*
X70446197Y-95327926D01*
X70435960Y-95322931D01*
X70404561Y-95307745D01*
X70383530Y-95299094D01*
X70379861Y-95298293D01*
X70367052Y-95306063D01*
X70342622Y-95325072D01*
X70330221Y-95335460D01*
X70304524Y-95359321D01*
X70296085Y-95375077D01*
X70301942Y-95389571D01*
X70305072Y-95393534D01*
X70326275Y-95410879D01*
X70361262Y-95431959D01*
X70385663Y-95444265D01*
X70454928Y-95465946D01*
X70531612Y-95472971D01*
X70604235Y-95464647D01*
X70624574Y-95458686D01*
X70687524Y-95424952D01*
X70734185Y-95373045D01*
X70764827Y-95302459D01*
X70779718Y-95212692D01*
X70781353Y-95165753D01*
X70776579Y-95097413D01*
X70656010Y-95097413D01*
X70644348Y-95102465D01*
X70613002Y-95106429D01*
X70567429Y-95108768D01*
X70536554Y-95109169D01*
X70481019Y-95108783D01*
X70445967Y-95106975D01*
X70426738Y-95102773D01*
X70418670Y-95095203D01*
X70417099Y-95084218D01*
X70427879Y-95050381D01*
X70455020Y-95016940D01*
X70490723Y-94991272D01*
X70526440Y-94980772D01*
X70574952Y-94990086D01*
X70616947Y-95017013D01*
X70646064Y-95055827D01*
X70656010Y-95097413D01*
X70776579Y-95097413D01*
X70774401Y-95066236D01*
X70752945Y-94986949D01*
X70716530Y-94927263D01*
X70664703Y-94886549D01*
X70597010Y-94864179D01*
X70560338Y-94859871D01*
X70484419Y-94860970D01*
G37*
X70484419Y-94860970D02*
X70424315Y-94876597D01*
X70373979Y-94908848D01*
X70349607Y-94932940D01*
X70309655Y-94989895D01*
X70286758Y-95055965D01*
X70278892Y-95137182D01*
X70278852Y-95143748D01*
X70278782Y-95209763D01*
X70658736Y-95209763D01*
X70650637Y-95244342D01*
X70636013Y-95275659D01*
X70610419Y-95308291D01*
X70605065Y-95313500D01*
X70559057Y-95341694D01*
X70506590Y-95346475D01*
X70446197Y-95327926D01*
X70435960Y-95322931D01*
X70404561Y-95307745D01*
X70383530Y-95299094D01*
X70379861Y-95298293D01*
X70367052Y-95306063D01*
X70342622Y-95325072D01*
X70330221Y-95335460D01*
X70304524Y-95359321D01*
X70296085Y-95375077D01*
X70301942Y-95389571D01*
X70305072Y-95393534D01*
X70326275Y-95410879D01*
X70361262Y-95431959D01*
X70385663Y-95444265D01*
X70454928Y-95465946D01*
X70531612Y-95472971D01*
X70604235Y-95464647D01*
X70624574Y-95458686D01*
X70687524Y-95424952D01*
X70734185Y-95373045D01*
X70764827Y-95302459D01*
X70779718Y-95212692D01*
X70781353Y-95165753D01*
X70776579Y-95097413D01*
X70656010Y-95097413D01*
X70644348Y-95102465D01*
X70613002Y-95106429D01*
X70567429Y-95108768D01*
X70536554Y-95109169D01*
X70481019Y-95108783D01*
X70445967Y-95106975D01*
X70426738Y-95102773D01*
X70418670Y-95095203D01*
X70417099Y-95084218D01*
X70427879Y-95050381D01*
X70455020Y-95016940D01*
X70490723Y-94991272D01*
X70526440Y-94980772D01*
X70574952Y-94990086D01*
X70616947Y-95017013D01*
X70646064Y-95055827D01*
X70656010Y-95097413D01*
X70776579Y-95097413D01*
X70774401Y-95066236D01*
X70752945Y-94986949D01*
X70716530Y-94927263D01*
X70664703Y-94886549D01*
X70597010Y-94864179D01*
X70560338Y-94859871D01*
X70484419Y-94860970D01*
G36*
X70881745Y-94857486D02*
G01*
X70833405Y-94867015D01*
X70805886Y-94881125D01*
X70776936Y-94904568D01*
X70818124Y-94956571D01*
X70843518Y-94988064D01*
X70860762Y-95003428D01*
X70877898Y-95005776D01*
X70902973Y-94998217D01*
X70914743Y-94993941D01*
X70962730Y-94987631D01*
X71006676Y-95001156D01*
X71038940Y-95031710D01*
X71044181Y-95041452D01*
X71049888Y-95067258D01*
X71054294Y-95114817D01*
X71057189Y-95180758D01*
X71058369Y-95261710D01*
X71058386Y-95273226D01*
X71058386Y-95473822D01*
X71196703Y-95473822D01*
X71196703Y-94857683D01*
X71127544Y-94857683D01*
X71087667Y-94858725D01*
X71066893Y-94863358D01*
X71059211Y-94873849D01*
X71058386Y-94883745D01*
X71058386Y-94909806D01*
X71025255Y-94883745D01*
X70987265Y-94865965D01*
X70936230Y-94857174D01*
X70881745Y-94857486D01*
G37*
X70881745Y-94857486D02*
X70833405Y-94867015D01*
X70805886Y-94881125D01*
X70776936Y-94904568D01*
X70818124Y-94956571D01*
X70843518Y-94988064D01*
X70860762Y-95003428D01*
X70877898Y-95005776D01*
X70902973Y-94998217D01*
X70914743Y-94993941D01*
X70962730Y-94987631D01*
X71006676Y-95001156D01*
X71038940Y-95031710D01*
X71044181Y-95041452D01*
X71049888Y-95067258D01*
X71054294Y-95114817D01*
X71057189Y-95180758D01*
X71058369Y-95261710D01*
X71058386Y-95273226D01*
X71058386Y-95473822D01*
X71196703Y-95473822D01*
X71196703Y-94857683D01*
X71127544Y-94857683D01*
X71087667Y-94858725D01*
X71066893Y-94863358D01*
X71059211Y-94873849D01*
X71058386Y-94883745D01*
X71058386Y-94909806D01*
X71025255Y-94883745D01*
X70987265Y-94865965D01*
X70936230Y-94857174D01*
X70881745Y-94857486D01*
G36*
X71478589Y-94861417D02*
G01*
X71425589Y-94874290D01*
X71410269Y-94881110D01*
X71380572Y-94898974D01*
X71357780Y-94919093D01*
X71340917Y-94944962D01*
X71329002Y-94980073D01*
X71321058Y-95027920D01*
X71316106Y-95091996D01*
X71313169Y-95175794D01*
X71312053Y-95231768D01*
X71307948Y-95473822D01*
X71378068Y-95473822D01*
X71420607Y-95472038D01*
X71442524Y-95465942D01*
X71448188Y-95455706D01*
X71451179Y-95444637D01*
X71464549Y-95446754D01*
X71482767Y-95455629D01*
X71528376Y-95469233D01*
X71586993Y-95472899D01*
X71648646Y-95466903D01*
X71703362Y-95451521D01*
X71708270Y-95449386D01*
X71758277Y-95414255D01*
X71791244Y-95365419D01*
X71806413Y-95308333D01*
X71805254Y-95287824D01*
X71681492Y-95287824D01*
X71670587Y-95315425D01*
X71638255Y-95335204D01*
X71586090Y-95345819D01*
X71558213Y-95347228D01*
X71511753Y-95343620D01*
X71480871Y-95329597D01*
X71473336Y-95322931D01*
X71452924Y-95286666D01*
X71448188Y-95253773D01*
X71448188Y-95209763D01*
X71509487Y-95209763D01*
X71580744Y-95213395D01*
X71630724Y-95224818D01*
X71662304Y-95244824D01*
X71669374Y-95253743D01*
X71681492Y-95287824D01*
X71805254Y-95287824D01*
X71803029Y-95248456D01*
X71780337Y-95191244D01*
X71749376Y-95152580D01*
X71730624Y-95135864D01*
X71712267Y-95124878D01*
X71688381Y-95118180D01*
X71653043Y-95114326D01*
X71600331Y-95111873D01*
X71579423Y-95111168D01*
X71448188Y-95106879D01*
X71448380Y-95067158D01*
X71453463Y-95025405D01*
X71471838Y-95000158D01*
X71508961Y-94984030D01*
X71509957Y-94983742D01*
X71562590Y-94977400D01*
X71614094Y-94985684D01*
X71652370Y-95005827D01*
X71667728Y-95015773D01*
X71684270Y-95014397D01*
X71709725Y-94999987D01*
X71724672Y-94989817D01*
X71753909Y-94968088D01*
X71772020Y-94951800D01*
X71774926Y-94947137D01*
X71762960Y-94923005D01*
X71727604Y-94894185D01*
X71712247Y-94884461D01*
X71668099Y-94867714D01*
X71608602Y-94858227D01*
X71542513Y-94856095D01*
X71478589Y-94861417D01*
G37*
X71478589Y-94861417D02*
X71425589Y-94874290D01*
X71410269Y-94881110D01*
X71380572Y-94898974D01*
X71357780Y-94919093D01*
X71340917Y-94944962D01*
X71329002Y-94980073D01*
X71321058Y-95027920D01*
X71316106Y-95091996D01*
X71313169Y-95175794D01*
X71312053Y-95231768D01*
X71307948Y-95473822D01*
X71378068Y-95473822D01*
X71420607Y-95472038D01*
X71442524Y-95465942D01*
X71448188Y-95455706D01*
X71451179Y-95444637D01*
X71464549Y-95446754D01*
X71482767Y-95455629D01*
X71528376Y-95469233D01*
X71586993Y-95472899D01*
X71648646Y-95466903D01*
X71703362Y-95451521D01*
X71708270Y-95449386D01*
X71758277Y-95414255D01*
X71791244Y-95365419D01*
X71806413Y-95308333D01*
X71805254Y-95287824D01*
X71681492Y-95287824D01*
X71670587Y-95315425D01*
X71638255Y-95335204D01*
X71586090Y-95345819D01*
X71558213Y-95347228D01*
X71511753Y-95343620D01*
X71480871Y-95329597D01*
X71473336Y-95322931D01*
X71452924Y-95286666D01*
X71448188Y-95253773D01*
X71448188Y-95209763D01*
X71509487Y-95209763D01*
X71580744Y-95213395D01*
X71630724Y-95224818D01*
X71662304Y-95244824D01*
X71669374Y-95253743D01*
X71681492Y-95287824D01*
X71805254Y-95287824D01*
X71803029Y-95248456D01*
X71780337Y-95191244D01*
X71749376Y-95152580D01*
X71730624Y-95135864D01*
X71712267Y-95124878D01*
X71688381Y-95118180D01*
X71653043Y-95114326D01*
X71600331Y-95111873D01*
X71579423Y-95111168D01*
X71448188Y-95106879D01*
X71448380Y-95067158D01*
X71453463Y-95025405D01*
X71471838Y-95000158D01*
X71508961Y-94984030D01*
X71509957Y-94983742D01*
X71562590Y-94977400D01*
X71614094Y-94985684D01*
X71652370Y-95005827D01*
X71667728Y-95015773D01*
X71684270Y-95014397D01*
X71709725Y-94999987D01*
X71724672Y-94989817D01*
X71753909Y-94968088D01*
X71772020Y-94951800D01*
X71774926Y-94947137D01*
X71762960Y-94923005D01*
X71727604Y-94894185D01*
X71712247Y-94884461D01*
X71668099Y-94867714D01*
X71608602Y-94858227D01*
X71542513Y-94856095D01*
X71478589Y-94861417D01*
G36*
X72235476Y-94860237D02*
G01*
X72185745Y-94863971D01*
X72055709Y-95253773D01*
X72035322Y-95184614D01*
X72023054Y-95141874D01*
X72006915Y-95084115D01*
X71989488Y-95020625D01*
X71980274Y-94986570D01*
X71945612Y-94857683D01*
X71802609Y-94857683D01*
X71845354Y-94992857D01*
X71866404Y-95059342D01*
X71891833Y-95139539D01*
X71918390Y-95223193D01*
X71942098Y-95297782D01*
X71996098Y-95467535D01*
X72054402Y-95471328D01*
X72112705Y-95475122D01*
X72144321Y-95370734D01*
X72163818Y-95305889D01*
X72185096Y-95234400D01*
X72203692Y-95171263D01*
X72204426Y-95168750D01*
X72218316Y-95125969D01*
X72230571Y-95096779D01*
X72239154Y-95085741D01*
X72240918Y-95087018D01*
X72247109Y-95104130D01*
X72258872Y-95140787D01*
X72274775Y-95192378D01*
X72293386Y-95254294D01*
X72303457Y-95288352D01*
X72357993Y-95473822D01*
X72473736Y-95473822D01*
X72566263Y-95181471D01*
X72592256Y-95099462D01*
X72615934Y-95024987D01*
X72636180Y-94961544D01*
X72651874Y-94912632D01*
X72661898Y-94881749D01*
X72664945Y-94872726D01*
X72662533Y-94863487D01*
X72643592Y-94859441D01*
X72604177Y-94859846D01*
X72598007Y-94860152D01*
X72524914Y-94863971D01*
X72477043Y-95040010D01*
X72459447Y-95104211D01*
X72443723Y-95160649D01*
X72431254Y-95204422D01*
X72423426Y-95230630D01*
X72421980Y-95234903D01*
X72415986Y-95229990D01*
X72403899Y-95204532D01*
X72387107Y-95161997D01*
X72366997Y-95105850D01*
X72349997Y-95055130D01*
X72285206Y-94856504D01*
X72235476Y-94860237D01*
G37*
X72235476Y-94860237D02*
X72185745Y-94863971D01*
X72055709Y-95253773D01*
X72035322Y-95184614D01*
X72023054Y-95141874D01*
X72006915Y-95084115D01*
X71989488Y-95020625D01*
X71980274Y-94986570D01*
X71945612Y-94857683D01*
X71802609Y-94857683D01*
X71845354Y-94992857D01*
X71866404Y-95059342D01*
X71891833Y-95139539D01*
X71918390Y-95223193D01*
X71942098Y-95297782D01*
X71996098Y-95467535D01*
X72054402Y-95471328D01*
X72112705Y-95475122D01*
X72144321Y-95370734D01*
X72163818Y-95305889D01*
X72185096Y-95234400D01*
X72203692Y-95171263D01*
X72204426Y-95168750D01*
X72218316Y-95125969D01*
X72230571Y-95096779D01*
X72239154Y-95085741D01*
X72240918Y-95087018D01*
X72247109Y-95104130D01*
X72258872Y-95140787D01*
X72274775Y-95192378D01*
X72293386Y-95254294D01*
X72303457Y-95288352D01*
X72357993Y-95473822D01*
X72473736Y-95473822D01*
X72566263Y-95181471D01*
X72592256Y-95099462D01*
X72615934Y-95024987D01*
X72636180Y-94961544D01*
X72651874Y-94912632D01*
X72661898Y-94881749D01*
X72664945Y-94872726D01*
X72662533Y-94863487D01*
X72643592Y-94859441D01*
X72604177Y-94859846D01*
X72598007Y-94860152D01*
X72524914Y-94863971D01*
X72477043Y-95040010D01*
X72459447Y-95104211D01*
X72443723Y-95160649D01*
X72431254Y-95204422D01*
X72423426Y-95230630D01*
X72421980Y-95234903D01*
X72415986Y-95229990D01*
X72403899Y-95204532D01*
X72387107Y-95161997D01*
X72366997Y-95105850D01*
X72349997Y-95055130D01*
X72285206Y-94856504D01*
X72235476Y-94860237D01*
G36*
X72718188Y-95473822D02*
G01*
X72787346Y-95473822D01*
X72827488Y-95472645D01*
X72848394Y-95467772D01*
X72855922Y-95457186D01*
X72856505Y-95450029D01*
X72857774Y-95435676D01*
X72865779Y-95432923D01*
X72886815Y-95441771D01*
X72903173Y-95450029D01*
X72965977Y-95469597D01*
X73034248Y-95470729D01*
X73089752Y-95456135D01*
X73141438Y-95420877D01*
X73180838Y-95368835D01*
X73202413Y-95307450D01*
X73202962Y-95304018D01*
X73206167Y-95266571D01*
X73207761Y-95212813D01*
X73207633Y-95172155D01*
X73070279Y-95172155D01*
X73067097Y-95226194D01*
X73059859Y-95270735D01*
X73050060Y-95295888D01*
X73012989Y-95330260D01*
X72968974Y-95342582D01*
X72923584Y-95332618D01*
X72884797Y-95302895D01*
X72870108Y-95282905D01*
X72861519Y-95259050D01*
X72857496Y-95224230D01*
X72856505Y-95171930D01*
X72858278Y-95120139D01*
X72862963Y-95074634D01*
X72869603Y-95044181D01*
X72870710Y-95041452D01*
X72897491Y-95009000D01*
X72936579Y-94991183D01*
X72980315Y-94988306D01*
X73021038Y-95000674D01*
X73051087Y-95028593D01*
X73054204Y-95034148D01*
X73063961Y-95068022D01*
X73069277Y-95116728D01*
X73070279Y-95172155D01*
X73207633Y-95172155D01*
X73207568Y-95151540D01*
X73206664Y-95118563D01*
X73200514Y-95036981D01*
X73187733Y-94975730D01*
X73166471Y-94930449D01*
X73134878Y-94896779D01*
X73104207Y-94877014D01*
X73061354Y-94863120D01*
X73008056Y-94858354D01*
X72953480Y-94862236D01*
X72906792Y-94874282D01*
X72882124Y-94888693D01*
X72856505Y-94911878D01*
X72856505Y-94618773D01*
X72718188Y-94618773D01*
X72718188Y-95473822D01*
G37*
X72718188Y-95473822D02*
X72787346Y-95473822D01*
X72827488Y-95472645D01*
X72848394Y-95467772D01*
X72855922Y-95457186D01*
X72856505Y-95450029D01*
X72857774Y-95435676D01*
X72865779Y-95432923D01*
X72886815Y-95441771D01*
X72903173Y-95450029D01*
X72965977Y-95469597D01*
X73034248Y-95470729D01*
X73089752Y-95456135D01*
X73141438Y-95420877D01*
X73180838Y-95368835D01*
X73202413Y-95307450D01*
X73202962Y-95304018D01*
X73206167Y-95266571D01*
X73207761Y-95212813D01*
X73207633Y-95172155D01*
X73070279Y-95172155D01*
X73067097Y-95226194D01*
X73059859Y-95270735D01*
X73050060Y-95295888D01*
X73012989Y-95330260D01*
X72968974Y-95342582D01*
X72923584Y-95332618D01*
X72884797Y-95302895D01*
X72870108Y-95282905D01*
X72861519Y-95259050D01*
X72857496Y-95224230D01*
X72856505Y-95171930D01*
X72858278Y-95120139D01*
X72862963Y-95074634D01*
X72869603Y-95044181D01*
X72870710Y-95041452D01*
X72897491Y-95009000D01*
X72936579Y-94991183D01*
X72980315Y-94988306D01*
X73021038Y-95000674D01*
X73051087Y-95028593D01*
X73054204Y-95034148D01*
X73063961Y-95068022D01*
X73069277Y-95116728D01*
X73070279Y-95172155D01*
X73207633Y-95172155D01*
X73207568Y-95151540D01*
X73206664Y-95118563D01*
X73200514Y-95036981D01*
X73187733Y-94975730D01*
X73166471Y-94930449D01*
X73134878Y-94896779D01*
X73104207Y-94877014D01*
X73061354Y-94863120D01*
X73008056Y-94858354D01*
X72953480Y-94862236D01*
X72906792Y-94874282D01*
X72882124Y-94888693D01*
X72856505Y-94911878D01*
X72856505Y-94618773D01*
X72718188Y-94618773D01*
X72718188Y-95473822D01*
G36*
X73510356Y-94859020D02*
G01*
X73491539Y-94864660D01*
X73485473Y-94877053D01*
X73485218Y-94882647D01*
X73484129Y-94898230D01*
X73476632Y-94900676D01*
X73456381Y-94889993D01*
X73444351Y-94882694D01*
X73406400Y-94867063D01*
X73361072Y-94859334D01*
X73313544Y-94858740D01*
X73268995Y-94864513D01*
X73232602Y-94875884D01*
X73209543Y-94892088D01*
X73204996Y-94912355D01*
X73207291Y-94917843D01*
X73224020Y-94940626D01*
X73249963Y-94968647D01*
X73254655Y-94973177D01*
X73279383Y-94994005D01*
X73300718Y-95000735D01*
X73330555Y-94996038D01*
X73342508Y-94992917D01*
X73379705Y-94985421D01*
X73405859Y-94988792D01*
X73427946Y-95000681D01*
X73448178Y-95016635D01*
X73463079Y-95036700D01*
X73473434Y-95064702D01*
X73480029Y-95104467D01*
X73483649Y-95159823D01*
X73485078Y-95234594D01*
X73485218Y-95279740D01*
X73485218Y-95473822D01*
X73610960Y-95473822D01*
X73610960Y-94857683D01*
X73548089Y-94857683D01*
X73510356Y-94859020D01*
G37*
X73510356Y-94859020D02*
X73491539Y-94864660D01*
X73485473Y-94877053D01*
X73485218Y-94882647D01*
X73484129Y-94898230D01*
X73476632Y-94900676D01*
X73456381Y-94889993D01*
X73444351Y-94882694D01*
X73406400Y-94867063D01*
X73361072Y-94859334D01*
X73313544Y-94858740D01*
X73268995Y-94864513D01*
X73232602Y-94875884D01*
X73209543Y-94892088D01*
X73204996Y-94912355D01*
X73207291Y-94917843D01*
X73224020Y-94940626D01*
X73249963Y-94968647D01*
X73254655Y-94973177D01*
X73279383Y-94994005D01*
X73300718Y-95000735D01*
X73330555Y-94996038D01*
X73342508Y-94992917D01*
X73379705Y-94985421D01*
X73405859Y-94988792D01*
X73427946Y-95000681D01*
X73448178Y-95016635D01*
X73463079Y-95036700D01*
X73473434Y-95064702D01*
X73480029Y-95104467D01*
X73483649Y-95159823D01*
X73485078Y-95234594D01*
X73485218Y-95279740D01*
X73485218Y-95473822D01*
X73610960Y-95473822D01*
X73610960Y-94857683D01*
X73548089Y-94857683D01*
X73510356Y-94859020D01*
G36*
X73901210Y-94862555D02*
G01*
X73842055Y-94878339D01*
X73797023Y-94906948D01*
X73765246Y-94944419D01*
X73755366Y-94960411D01*
X73748073Y-94977163D01*
X73742974Y-94998592D01*
X73739679Y-95028616D01*
X73737797Y-95071154D01*
X73736937Y-95130122D01*
X73736707Y-95209440D01*
X73736703Y-95230484D01*
X73736703Y-95473822D01*
X73797059Y-95473822D01*
X73835557Y-95471126D01*
X73864023Y-95464295D01*
X73871155Y-95460083D01*
X73890652Y-95452813D01*
X73910566Y-95460083D01*
X73943353Y-95469160D01*
X73990978Y-95472813D01*
X74043764Y-95471228D01*
X74092036Y-95464589D01*
X74120218Y-95456072D01*
X74174753Y-95421063D01*
X74208835Y-95372479D01*
X74224157Y-95307882D01*
X74224299Y-95306223D01*
X74222955Y-95277566D01*
X74101356Y-95277566D01*
X74090726Y-95310161D01*
X74073410Y-95328505D01*
X74038652Y-95342379D01*
X73992773Y-95347917D01*
X73945988Y-95345191D01*
X73908514Y-95334274D01*
X73898015Y-95327269D01*
X73879668Y-95294904D01*
X73875020Y-95258111D01*
X73875020Y-95209763D01*
X73944582Y-95209763D01*
X74010667Y-95214850D01*
X74060764Y-95229263D01*
X74091929Y-95251729D01*
X74101356Y-95277566D01*
X74222955Y-95277566D01*
X74220987Y-95235647D01*
X74197710Y-95179845D01*
X74153948Y-95137647D01*
X74147899Y-95133808D01*
X74121907Y-95121309D01*
X74089735Y-95113740D01*
X74044760Y-95110061D01*
X73991331Y-95109216D01*
X73875020Y-95109169D01*
X73875020Y-95060411D01*
X73879953Y-95022581D01*
X73892543Y-94997236D01*
X73894017Y-94995887D01*
X73922034Y-94984800D01*
X73964326Y-94980503D01*
X74011064Y-94982615D01*
X74052418Y-94990756D01*
X74076957Y-95002965D01*
X74090253Y-95012746D01*
X74104294Y-95014613D01*
X74123671Y-95006600D01*
X74152976Y-94986739D01*
X74196803Y-94953063D01*
X74200825Y-94949909D01*
X74198764Y-94938236D01*
X74181568Y-94918822D01*
X74155433Y-94897248D01*
X74126552Y-94879096D01*
X74117478Y-94874809D01*
X74084380Y-94866256D01*
X74035880Y-94860155D01*
X73981695Y-94857708D01*
X73979161Y-94857703D01*
X73901210Y-94862555D01*
G37*
X73901210Y-94862555D02*
X73842055Y-94878339D01*
X73797023Y-94906948D01*
X73765246Y-94944419D01*
X73755366Y-94960411D01*
X73748073Y-94977163D01*
X73742974Y-94998592D01*
X73739679Y-95028616D01*
X73737797Y-95071154D01*
X73736937Y-95130122D01*
X73736707Y-95209440D01*
X73736703Y-95230484D01*
X73736703Y-95473822D01*
X73797059Y-95473822D01*
X73835557Y-95471126D01*
X73864023Y-95464295D01*
X73871155Y-95460083D01*
X73890652Y-95452813D01*
X73910566Y-95460083D01*
X73943353Y-95469160D01*
X73990978Y-95472813D01*
X74043764Y-95471228D01*
X74092036Y-95464589D01*
X74120218Y-95456072D01*
X74174753Y-95421063D01*
X74208835Y-95372479D01*
X74224157Y-95307882D01*
X74224299Y-95306223D01*
X74222955Y-95277566D01*
X74101356Y-95277566D01*
X74090726Y-95310161D01*
X74073410Y-95328505D01*
X74038652Y-95342379D01*
X73992773Y-95347917D01*
X73945988Y-95345191D01*
X73908514Y-95334274D01*
X73898015Y-95327269D01*
X73879668Y-95294904D01*
X73875020Y-95258111D01*
X73875020Y-95209763D01*
X73944582Y-95209763D01*
X74010667Y-95214850D01*
X74060764Y-95229263D01*
X74091929Y-95251729D01*
X74101356Y-95277566D01*
X74222955Y-95277566D01*
X74220987Y-95235647D01*
X74197710Y-95179845D01*
X74153948Y-95137647D01*
X74147899Y-95133808D01*
X74121907Y-95121309D01*
X74089735Y-95113740D01*
X74044760Y-95110061D01*
X73991331Y-95109216D01*
X73875020Y-95109169D01*
X73875020Y-95060411D01*
X73879953Y-95022581D01*
X73892543Y-94997236D01*
X73894017Y-94995887D01*
X73922034Y-94984800D01*
X73964326Y-94980503D01*
X74011064Y-94982615D01*
X74052418Y-94990756D01*
X74076957Y-95002965D01*
X74090253Y-95012746D01*
X74104294Y-95014613D01*
X74123671Y-95006600D01*
X74152976Y-94986739D01*
X74196803Y-94953063D01*
X74200825Y-94949909D01*
X74198764Y-94938236D01*
X74181568Y-94918822D01*
X74155433Y-94897248D01*
X74126552Y-94879096D01*
X74117478Y-94874809D01*
X74084380Y-94866256D01*
X74035880Y-94860155D01*
X73981695Y-94857708D01*
X73979161Y-94857703D01*
X73901210Y-94862555D01*
G36*
X74425759Y-93925184D02*
G01*
X74399247Y-93938282D01*
X74366553Y-93961106D01*
X74342725Y-93985996D01*
X74326406Y-94017249D01*
X74316240Y-94059166D01*
X74310872Y-94116044D01*
X74308944Y-94192184D01*
X74308831Y-94224917D01*
X74309161Y-94296656D01*
X74310527Y-94347927D01*
X74313500Y-94383404D01*
X74318649Y-94407763D01*
X74326543Y-94425680D01*
X74334757Y-94437902D01*
X74387187Y-94489905D01*
X74448930Y-94521184D01*
X74515536Y-94530592D01*
X74582558Y-94516980D01*
X74603792Y-94507354D01*
X74654624Y-94480859D01*
X74654624Y-94896052D01*
X74617525Y-94876868D01*
X74568643Y-94862025D01*
X74508561Y-94858222D01*
X74448564Y-94865243D01*
X74403256Y-94881013D01*
X74365675Y-94911047D01*
X74333564Y-94954024D01*
X74331150Y-94958436D01*
X74320967Y-94979221D01*
X74313530Y-95000170D01*
X74308411Y-95025548D01*
X74305181Y-95059618D01*
X74303413Y-95106641D01*
X74302677Y-95170882D01*
X74302544Y-95243176D01*
X74302544Y-95473822D01*
X74440861Y-95473822D01*
X74440861Y-95048533D01*
X74479549Y-95015979D01*
X74519738Y-94989940D01*
X74557797Y-94985205D01*
X74596066Y-94997389D01*
X74616462Y-95009320D01*
X74631642Y-95026313D01*
X74642438Y-95051995D01*
X74649683Y-95089991D01*
X74654208Y-95143926D01*
X74656844Y-95217425D01*
X74657772Y-95266347D01*
X74660911Y-95467535D01*
X74726926Y-95471336D01*
X74792940Y-95475136D01*
X74792940Y-94226650D01*
X74654624Y-94226650D01*
X74651097Y-94296254D01*
X74639215Y-94344569D01*
X74617020Y-94374631D01*
X74582559Y-94389471D01*
X74547742Y-94392436D01*
X74508329Y-94389028D01*
X74482171Y-94375617D01*
X74465814Y-94357896D01*
X74452937Y-94338835D01*
X74445272Y-94317601D01*
X74441861Y-94287849D01*
X74441749Y-94243236D01*
X74442897Y-94205880D01*
X74445532Y-94149604D01*
X74449456Y-94112658D01*
X74456063Y-94089223D01*
X74466749Y-94073480D01*
X74476833Y-94064380D01*
X74518970Y-94044537D01*
X74568840Y-94041332D01*
X74597476Y-94048168D01*
X74625828Y-94072464D01*
X74644609Y-94119728D01*
X74653712Y-94189624D01*
X74654624Y-94226650D01*
X74792940Y-94226650D01*
X74792940Y-93914614D01*
X74723782Y-93914614D01*
X74682260Y-93916256D01*
X74660838Y-93922087D01*
X74654626Y-93933461D01*
X74654624Y-93933798D01*
X74651742Y-93944938D01*
X74639030Y-93943673D01*
X74613757Y-93931433D01*
X74554869Y-93912707D01*
X74488615Y-93910739D01*
X74425759Y-93925184D01*
G37*
X74425759Y-93925184D02*
X74399247Y-93938282D01*
X74366553Y-93961106D01*
X74342725Y-93985996D01*
X74326406Y-94017249D01*
X74316240Y-94059166D01*
X74310872Y-94116044D01*
X74308944Y-94192184D01*
X74308831Y-94224917D01*
X74309161Y-94296656D01*
X74310527Y-94347927D01*
X74313500Y-94383404D01*
X74318649Y-94407763D01*
X74326543Y-94425680D01*
X74334757Y-94437902D01*
X74387187Y-94489905D01*
X74448930Y-94521184D01*
X74515536Y-94530592D01*
X74582558Y-94516980D01*
X74603792Y-94507354D01*
X74654624Y-94480859D01*
X74654624Y-94896052D01*
X74617525Y-94876868D01*
X74568643Y-94862025D01*
X74508561Y-94858222D01*
X74448564Y-94865243D01*
X74403256Y-94881013D01*
X74365675Y-94911047D01*
X74333564Y-94954024D01*
X74331150Y-94958436D01*
X74320967Y-94979221D01*
X74313530Y-95000170D01*
X74308411Y-95025548D01*
X74305181Y-95059618D01*
X74303413Y-95106641D01*
X74302677Y-95170882D01*
X74302544Y-95243176D01*
X74302544Y-95473822D01*
X74440861Y-95473822D01*
X74440861Y-95048533D01*
X74479549Y-95015979D01*
X74519738Y-94989940D01*
X74557797Y-94985205D01*
X74596066Y-94997389D01*
X74616462Y-95009320D01*
X74631642Y-95026313D01*
X74642438Y-95051995D01*
X74649683Y-95089991D01*
X74654208Y-95143926D01*
X74656844Y-95217425D01*
X74657772Y-95266347D01*
X74660911Y-95467535D01*
X74726926Y-95471336D01*
X74792940Y-95475136D01*
X74792940Y-94226650D01*
X74654624Y-94226650D01*
X74651097Y-94296254D01*
X74639215Y-94344569D01*
X74617020Y-94374631D01*
X74582559Y-94389471D01*
X74547742Y-94392436D01*
X74508329Y-94389028D01*
X74482171Y-94375617D01*
X74465814Y-94357896D01*
X74452937Y-94338835D01*
X74445272Y-94317601D01*
X74441861Y-94287849D01*
X74441749Y-94243236D01*
X74442897Y-94205880D01*
X74445532Y-94149604D01*
X74449456Y-94112658D01*
X74456063Y-94089223D01*
X74466749Y-94073480D01*
X74476833Y-94064380D01*
X74518970Y-94044537D01*
X74568840Y-94041332D01*
X74597476Y-94048168D01*
X74625828Y-94072464D01*
X74644609Y-94119728D01*
X74653712Y-94189624D01*
X74654624Y-94226650D01*
X74792940Y-94226650D01*
X74792940Y-93914614D01*
X74723782Y-93914614D01*
X74682260Y-93916256D01*
X74660838Y-93922087D01*
X74654626Y-93933461D01*
X74654624Y-93933798D01*
X74651742Y-93944938D01*
X74639030Y-93943673D01*
X74613757Y-93931433D01*
X74554869Y-93912707D01*
X74488615Y-93910739D01*
X74425759Y-93925184D01*
D13*
X57891000Y-93250936D02*
X57891000Y-94455064D01*
X59711000Y-93250936D02*
X59711000Y-94455064D01*
X59923000Y-100805064D02*
X59923000Y-99600936D01*
X61743000Y-100805064D02*
X61743000Y-99600936D01*
X101605000Y-73559000D02*
X102535000Y-73559000D01*
X104765000Y-73559000D02*
X103835000Y-73559000D01*
X104765000Y-73559000D02*
X104765000Y-76719000D01*
X101605000Y-73559000D02*
X101605000Y-75019000D01*
X101601000Y-62529000D02*
X104901000Y-62529000D01*
X104901000Y-62529000D02*
X104901000Y-69429000D01*
X101601000Y-62529000D02*
X101601000Y-69429000D01*
X116734000Y-64864064D02*
X116734000Y-63659936D01*
X114914000Y-64864064D02*
X114914000Y-63659936D01*
X117634936Y-61489000D02*
X118839064Y-61489000D01*
X117634936Y-59669000D02*
X118839064Y-59669000D01*
X40407000Y-124046064D02*
X40407000Y-122841936D01*
X38587000Y-124046064D02*
X38587000Y-122841936D01*
X57552000Y-105885064D02*
X57552000Y-104680936D01*
X55732000Y-105885064D02*
X55732000Y-104680936D01*
X106574000Y-102202064D02*
X106574000Y-100997936D01*
X104754000Y-102202064D02*
X104754000Y-100997936D01*
X118639000Y-102202064D02*
X118639000Y-100997936D01*
X116819000Y-102202064D02*
X116819000Y-100997936D01*
X101796436Y-79269000D02*
X103000564Y-79269000D01*
X101796436Y-77449000D02*
X103000564Y-77449000D01*
X57425000Y-89465564D02*
X57425000Y-88261436D01*
X55605000Y-89465564D02*
X55605000Y-88261436D01*
X50005064Y-99547000D02*
X48800936Y-99547000D01*
X50005064Y-101367000D02*
X48800936Y-101367000D01*
X55605000Y-93250936D02*
X55605000Y-94455064D01*
X57425000Y-93250936D02*
X57425000Y-94455064D01*
X57425000Y-84331564D02*
X57425000Y-83127436D01*
X55605000Y-84331564D02*
X55605000Y-83127436D01*
X84181000Y-69008000D02*
X84181000Y-63038000D01*
X84181000Y-63038000D02*
X99301000Y-63038000D01*
X99301000Y-63038000D02*
X99301000Y-69008000D01*
X99301000Y-69008000D02*
X84181000Y-69008000D01*
X87491000Y-68998000D02*
X87491000Y-68248000D01*
X87491000Y-68248000D02*
X95991000Y-68248000D01*
X95991000Y-68248000D02*
X95991000Y-68998000D01*
X95991000Y-68998000D02*
X87491000Y-68998000D01*
X84191000Y-68998000D02*
X84191000Y-68248000D01*
X84191000Y-68248000D02*
X85991000Y-68248000D01*
X85991000Y-68248000D02*
X85991000Y-68998000D01*
X85991000Y-68998000D02*
X84191000Y-68998000D01*
X97491000Y-68998000D02*
X97491000Y-68248000D01*
X97491000Y-68248000D02*
X99291000Y-68248000D01*
X99291000Y-68248000D02*
X99291000Y-68998000D01*
X99291000Y-68998000D02*
X97491000Y-68998000D01*
X84191000Y-66748000D02*
X84941000Y-66748000D01*
X84941000Y-66748000D02*
X84941000Y-65408000D01*
X91741000Y-63798000D02*
X86001000Y-63798000D01*
X99291000Y-66748000D02*
X98541000Y-66748000D01*
X98541000Y-66748000D02*
X98541000Y-63798000D01*
X98541000Y-63798000D02*
X91741000Y-63798000D01*
X85141000Y-69298000D02*
X83891000Y-69298000D01*
X83891000Y-69298000D02*
X83891000Y-68048000D01*
X81788000Y-114300000D02*
X81788000Y-120015000D01*
X81788000Y-120015000D02*
X119888000Y-120015000D01*
X119888000Y-120015000D02*
X119888000Y-108585000D01*
X119888000Y-108585000D02*
X81788000Y-108585000D01*
X81788000Y-108585000D02*
X81788000Y-114300000D01*
X42066000Y-70438000D02*
X48116000Y-70438000D01*
X48116000Y-70438000D02*
X48116000Y-62638000D01*
X48116000Y-62638000D02*
X42066000Y-62638000D01*
X42066000Y-62638000D02*
X42066000Y-70438000D01*
X42166000Y-69088000D02*
X43176000Y-69088000D01*
X43176000Y-69088000D02*
X43176000Y-64008000D01*
X43176000Y-64008000D02*
X42166000Y-64008000D01*
X50000000Y-46000000D02*
X110000000Y-46000000D01*
X50000000Y-45000000D02*
X110000000Y-45000000D01*
X42000000Y-52500000D02*
X50000000Y-52500000D01*
X50000000Y-48500000D02*
X42000000Y-48500000D01*
X118000000Y-48500000D02*
X110000000Y-48500000D01*
X110000000Y-52500000D02*
X118000000Y-52500000D01*
X50000000Y-43000000D02*
X110000000Y-43000000D01*
X50000000Y-44000000D02*
X110000000Y-44000000D01*
X110000000Y-56000000D02*
X50000000Y-56000000D01*
X50000000Y-58000000D02*
X110000000Y-58000000D01*
X110000000Y-57000000D02*
X50000000Y-57000000D01*
X110000000Y-50500000D02*
X110000000Y-53500000D01*
X50000000Y-37000000D02*
X50000000Y-58000000D01*
X110000000Y-37000000D02*
X50000000Y-37000000D01*
X110000000Y-58000000D02*
X110000000Y-37000000D01*
X50000000Y-55000000D02*
X110000000Y-55000000D01*
X63694000Y-62551000D02*
X66354000Y-62551000D01*
X63694000Y-65151000D02*
X63694000Y-62551000D01*
X66354000Y-65151000D02*
X66354000Y-62551000D01*
X63694000Y-65151000D02*
X66354000Y-65151000D01*
X63694000Y-66421000D02*
X63694000Y-67751000D01*
X63694000Y-67751000D02*
X65024000Y-67751000D01*
D10*
X76167857Y-62555380D02*
X76167857Y-61555380D01*
X75929761Y-61555380D01*
X75786904Y-61603000D01*
X75691666Y-61698238D01*
X75644047Y-61793476D01*
X75596428Y-61983952D01*
X75596428Y-62126809D01*
X75644047Y-62317285D01*
X75691666Y-62412523D01*
X75786904Y-62507761D01*
X75929761Y-62555380D01*
X76167857Y-62555380D01*
X75215476Y-62507761D02*
X75072619Y-62555380D01*
X74834523Y-62555380D01*
X74739285Y-62507761D01*
X74691666Y-62460142D01*
X74644047Y-62364904D01*
X74644047Y-62269666D01*
X74691666Y-62174428D01*
X74739285Y-62126809D01*
X74834523Y-62079190D01*
X75025000Y-62031571D01*
X75120238Y-61983952D01*
X75167857Y-61936333D01*
X75215476Y-61841095D01*
X75215476Y-61745857D01*
X75167857Y-61650619D01*
X75120238Y-61603000D01*
X75025000Y-61555380D01*
X74786904Y-61555380D01*
X74644047Y-61603000D01*
X73691666Y-62555380D02*
X74263095Y-62555380D01*
X73977380Y-62555380D02*
X73977380Y-61555380D01*
X74072619Y-61698238D01*
X74167857Y-61793476D01*
X74263095Y-61841095D01*
X73120238Y-61983952D02*
X73215476Y-61936333D01*
X73263095Y-61888714D01*
X73310714Y-61793476D01*
X73310714Y-61745857D01*
X73263095Y-61650619D01*
X73215476Y-61603000D01*
X73120238Y-61555380D01*
X72929761Y-61555380D01*
X72834523Y-61603000D01*
X72786904Y-61650619D01*
X72739285Y-61745857D01*
X72739285Y-61793476D01*
X72786904Y-61888714D01*
X72834523Y-61936333D01*
X72929761Y-61983952D01*
X73120238Y-61983952D01*
X73215476Y-62031571D01*
X73263095Y-62079190D01*
X73310714Y-62174428D01*
X73310714Y-62364904D01*
X73263095Y-62460142D01*
X73215476Y-62507761D01*
X73120238Y-62555380D01*
X72929761Y-62555380D01*
X72834523Y-62507761D01*
X72786904Y-62460142D01*
X72739285Y-62364904D01*
X72739285Y-62174428D01*
X72786904Y-62079190D01*
X72834523Y-62031571D01*
X72929761Y-61983952D01*
X71977380Y-62031571D02*
X71834523Y-62079190D01*
X71786904Y-62126809D01*
X71739285Y-62222047D01*
X71739285Y-62364904D01*
X71786904Y-62460142D01*
X71834523Y-62507761D01*
X71929761Y-62555380D01*
X72310714Y-62555380D01*
X72310714Y-61555380D01*
X71977380Y-61555380D01*
X71882142Y-61603000D01*
X71834523Y-61650619D01*
X71786904Y-61745857D01*
X71786904Y-61841095D01*
X71834523Y-61936333D01*
X71882142Y-61983952D01*
X71977380Y-62031571D01*
X72310714Y-62031571D01*
X71358333Y-61650619D02*
X71310714Y-61603000D01*
X71215476Y-61555380D01*
X70977380Y-61555380D01*
X70882142Y-61603000D01*
X70834523Y-61650619D01*
X70786904Y-61745857D01*
X70786904Y-61841095D01*
X70834523Y-61983952D01*
X71405952Y-62555380D01*
X70786904Y-62555380D01*
X70167857Y-61555380D02*
X70072619Y-61555380D01*
X69977380Y-61603000D01*
X69929761Y-61650619D01*
X69882142Y-61745857D01*
X69834523Y-61936333D01*
X69834523Y-62174428D01*
X69882142Y-62364904D01*
X69929761Y-62460142D01*
X69977380Y-62507761D01*
X70072619Y-62555380D01*
X70167857Y-62555380D01*
X70263095Y-62507761D01*
X70310714Y-62460142D01*
X70358333Y-62364904D01*
X70405952Y-62174428D01*
X70405952Y-61936333D01*
X70358333Y-61745857D01*
X70310714Y-61650619D01*
X70263095Y-61603000D01*
X70167857Y-61555380D01*
X50061666Y-110291619D02*
X50014047Y-110244000D01*
X49918809Y-110196380D01*
X49680714Y-110196380D01*
X49585476Y-110244000D01*
X49537857Y-110291619D01*
X49490238Y-110386857D01*
X49490238Y-110482095D01*
X49537857Y-110624952D01*
X50109285Y-111196380D01*
X49490238Y-111196380D01*
X49109285Y-110291619D02*
X49061666Y-110244000D01*
X48966428Y-110196380D01*
X48728333Y-110196380D01*
X48633095Y-110244000D01*
X48585476Y-110291619D01*
X48537857Y-110386857D01*
X48537857Y-110482095D01*
X48585476Y-110624952D01*
X49156904Y-111196380D01*
X48537857Y-111196380D01*
X48109285Y-111196380D02*
X48109285Y-110196380D01*
X48014047Y-110815428D02*
X47728333Y-111196380D01*
X47728333Y-110529714D02*
X48109285Y-110910666D01*
X114879380Y-102339000D02*
X113879380Y-102339000D01*
X114593666Y-102672333D01*
X113879380Y-103005666D01*
X114879380Y-103005666D01*
X114593666Y-103434238D02*
X114593666Y-103910428D01*
X114879380Y-103339000D02*
X113879380Y-103672333D01*
X114879380Y-104005666D01*
X113879380Y-104243761D02*
X114879380Y-104910428D01*
X113879380Y-104910428D02*
X114879380Y-104243761D01*
X113879380Y-105196142D02*
X113879380Y-105815190D01*
X114260333Y-105481857D01*
X114260333Y-105624714D01*
X114307952Y-105719952D01*
X114355571Y-105767571D01*
X114450809Y-105815190D01*
X114688904Y-105815190D01*
X114784142Y-105767571D01*
X114831761Y-105719952D01*
X114879380Y-105624714D01*
X114879380Y-105339000D01*
X114831761Y-105243761D01*
X114784142Y-105196142D01*
X114212714Y-106672333D02*
X114879380Y-106672333D01*
X113831761Y-106434238D02*
X114546047Y-106196142D01*
X114546047Y-106815190D01*
X114307952Y-107339000D02*
X114260333Y-107243761D01*
X114212714Y-107196142D01*
X114117476Y-107148523D01*
X114069857Y-107148523D01*
X113974619Y-107196142D01*
X113927000Y-107243761D01*
X113879380Y-107339000D01*
X113879380Y-107529476D01*
X113927000Y-107624714D01*
X113974619Y-107672333D01*
X114069857Y-107719952D01*
X114117476Y-107719952D01*
X114212714Y-107672333D01*
X114260333Y-107624714D01*
X114307952Y-107529476D01*
X114307952Y-107339000D01*
X114355571Y-107243761D01*
X114403190Y-107196142D01*
X114498428Y-107148523D01*
X114688904Y-107148523D01*
X114784142Y-107196142D01*
X114831761Y-107243761D01*
X114879380Y-107339000D01*
X114879380Y-107529476D01*
X114831761Y-107624714D01*
X114784142Y-107672333D01*
X114688904Y-107719952D01*
X114498428Y-107719952D01*
X114403190Y-107672333D01*
X114355571Y-107624714D01*
X114307952Y-107529476D01*
X113879380Y-108624714D02*
X113879380Y-108148523D01*
X114355571Y-108100904D01*
X114307952Y-108148523D01*
X114260333Y-108243761D01*
X114260333Y-108481857D01*
X114307952Y-108577095D01*
X114355571Y-108624714D01*
X114450809Y-108672333D01*
X114688904Y-108672333D01*
X114784142Y-108624714D01*
X114831761Y-108577095D01*
X114879380Y-108481857D01*
X114879380Y-108243761D01*
X114831761Y-108148523D01*
X114784142Y-108100904D01*
X114974619Y-108862809D02*
X114974619Y-109624714D01*
X114879380Y-109862809D02*
X113879380Y-109862809D01*
X114593666Y-110196142D01*
X113879380Y-110529476D01*
X114879380Y-110529476D01*
X113879380Y-111196142D02*
X113879380Y-111386619D01*
X113927000Y-111481857D01*
X114022238Y-111577095D01*
X114212714Y-111624714D01*
X114546047Y-111624714D01*
X114736523Y-111577095D01*
X114831761Y-111481857D01*
X114879380Y-111386619D01*
X114879380Y-111196142D01*
X114831761Y-111100904D01*
X114736523Y-111005666D01*
X114546047Y-110958047D01*
X114212714Y-110958047D01*
X114022238Y-111005666D01*
X113927000Y-111100904D01*
X113879380Y-111196142D01*
X114879380Y-112053285D02*
X113879380Y-112053285D01*
X113879380Y-112291380D01*
X113927000Y-112434238D01*
X114022238Y-112529476D01*
X114117476Y-112577095D01*
X114307952Y-112624714D01*
X114450809Y-112624714D01*
X114641285Y-112577095D01*
X114736523Y-112529476D01*
X114831761Y-112434238D01*
X114879380Y-112291380D01*
X114879380Y-112053285D01*
X113879380Y-113053285D02*
X114688904Y-113053285D01*
X114784142Y-113100904D01*
X114831761Y-113148523D01*
X114879380Y-113243761D01*
X114879380Y-113434238D01*
X114831761Y-113529476D01*
X114784142Y-113577095D01*
X114688904Y-113624714D01*
X113879380Y-113624714D01*
X114879380Y-114577095D02*
X114879380Y-114100904D01*
X113879380Y-114100904D01*
X114355571Y-114910428D02*
X114355571Y-115243761D01*
X114879380Y-115386619D02*
X114879380Y-114910428D01*
X113879380Y-114910428D01*
X113879380Y-115386619D01*
X54443285Y-68524380D02*
X55014714Y-68524380D01*
X54729000Y-68524380D02*
X54729000Y-67524380D01*
X54824238Y-67667238D01*
X54919476Y-67762476D01*
X55014714Y-67810095D01*
X54014714Y-68524380D02*
X54014714Y-67524380D01*
X53443285Y-68524380D02*
X53871857Y-67952952D01*
X53443285Y-67524380D02*
X54014714Y-68095809D01*
X39004714Y-71175571D02*
X39338047Y-71175571D01*
X39338047Y-71699380D02*
X39338047Y-70699380D01*
X38861857Y-70699380D01*
X38528523Y-71413666D02*
X38052333Y-71413666D01*
X38623761Y-71699380D02*
X38290428Y-70699380D01*
X37957095Y-71699380D01*
X37623761Y-71699380D02*
X37623761Y-70699380D01*
X37052333Y-71699380D01*
X37052333Y-70699380D01*
X36052333Y-71699380D02*
X36623761Y-71699380D01*
X36338047Y-71699380D02*
X36338047Y-70699380D01*
X36433285Y-70842238D01*
X36528523Y-70937476D01*
X36623761Y-70985095D01*
X104167380Y-82113904D02*
X103167380Y-82113904D01*
X103881666Y-82447238D01*
X103167380Y-82780571D01*
X104167380Y-82780571D01*
X104119761Y-83209142D02*
X104167380Y-83352000D01*
X104167380Y-83590095D01*
X104119761Y-83685333D01*
X104072142Y-83732952D01*
X103976904Y-83780571D01*
X103881666Y-83780571D01*
X103786428Y-83732952D01*
X103738809Y-83685333D01*
X103691190Y-83590095D01*
X103643571Y-83399619D01*
X103595952Y-83304380D01*
X103548333Y-83256761D01*
X103453095Y-83209142D01*
X103357857Y-83209142D01*
X103262619Y-83256761D01*
X103215000Y-83304380D01*
X103167380Y-83399619D01*
X103167380Y-83637714D01*
X103215000Y-83780571D01*
X103500714Y-84637714D02*
X104167380Y-84637714D01*
X103119761Y-84399619D02*
X103834047Y-84161523D01*
X103834047Y-84780571D01*
X103167380Y-85637714D02*
X103167380Y-85161523D01*
X103643571Y-85113904D01*
X103595952Y-85161523D01*
X103548333Y-85256761D01*
X103548333Y-85494857D01*
X103595952Y-85590095D01*
X103643571Y-85637714D01*
X103738809Y-85685333D01*
X103976904Y-85685333D01*
X104072142Y-85637714D01*
X104119761Y-85590095D01*
X104167380Y-85494857D01*
X104167380Y-85256761D01*
X104119761Y-85161523D01*
X104072142Y-85113904D01*
X103262619Y-86066285D02*
X103215000Y-86113904D01*
X103167380Y-86209142D01*
X103167380Y-86447238D01*
X103215000Y-86542476D01*
X103262619Y-86590095D01*
X103357857Y-86637714D01*
X103453095Y-86637714D01*
X103595952Y-86590095D01*
X104167380Y-86018666D01*
X104167380Y-86637714D01*
X103167380Y-87542476D02*
X103167380Y-87066285D01*
X103643571Y-87018666D01*
X103595952Y-87066285D01*
X103548333Y-87161523D01*
X103548333Y-87399619D01*
X103595952Y-87494857D01*
X103643571Y-87542476D01*
X103738809Y-87590095D01*
X103976904Y-87590095D01*
X104072142Y-87542476D01*
X104119761Y-87494857D01*
X104167380Y-87399619D01*
X104167380Y-87161523D01*
X104119761Y-87066285D01*
X104072142Y-87018666D01*
X104167380Y-88018666D02*
X103167380Y-88018666D01*
X103167380Y-88256761D01*
X103215000Y-88399619D01*
X103310238Y-88494857D01*
X103405476Y-88542476D01*
X103595952Y-88590095D01*
X103738809Y-88590095D01*
X103929285Y-88542476D01*
X104024523Y-88494857D01*
X104119761Y-88399619D01*
X104167380Y-88256761D01*
X104167380Y-88018666D01*
X103167380Y-89209142D02*
X103167380Y-89399619D01*
X103215000Y-89494857D01*
X103310238Y-89590095D01*
X103500714Y-89637714D01*
X103834047Y-89637714D01*
X104024523Y-89590095D01*
X104119761Y-89494857D01*
X104167380Y-89399619D01*
X104167380Y-89209142D01*
X104119761Y-89113904D01*
X104024523Y-89018666D01*
X103834047Y-88971047D01*
X103500714Y-88971047D01*
X103310238Y-89018666D01*
X103215000Y-89113904D01*
X103167380Y-89209142D01*
X44632476Y-97194714D02*
X44632476Y-97861380D01*
X44870571Y-96813761D02*
X45108666Y-97528047D01*
X44489619Y-97528047D01*
X44108666Y-97861380D02*
X44108666Y-96861380D01*
X44013428Y-97480428D02*
X43727714Y-97861380D01*
X43727714Y-97194714D02*
X44108666Y-97575666D01*
X43394380Y-96861380D02*
X42727714Y-96861380D01*
X43156285Y-97861380D01*
X113164904Y-93511714D02*
X113164904Y-94178380D01*
X113593476Y-93511714D02*
X113593476Y-94035523D01*
X113545857Y-94130761D01*
X113450619Y-94178380D01*
X113307761Y-94178380D01*
X113212523Y-94130761D01*
X113164904Y-94083142D01*
X112164904Y-94178380D02*
X112736333Y-94178380D01*
X112450619Y-94178380D02*
X112450619Y-93178380D01*
X112545857Y-93321238D01*
X112641095Y-93416476D01*
X112736333Y-93464095D01*
X40663666Y-114228619D02*
X40616047Y-114181000D01*
X40520809Y-114133380D01*
X40282714Y-114133380D01*
X40187476Y-114181000D01*
X40139857Y-114228619D01*
X40092238Y-114323857D01*
X40092238Y-114419095D01*
X40139857Y-114561952D01*
X40711285Y-115133380D01*
X40092238Y-115133380D01*
X39663666Y-115133380D02*
X39663666Y-114133380D01*
X39568428Y-114752428D02*
X39282714Y-115133380D01*
X39282714Y-114466714D02*
X39663666Y-114847666D01*
X38901761Y-114228619D02*
X38854142Y-114181000D01*
X38758904Y-114133380D01*
X38520809Y-114133380D01*
X38425571Y-114181000D01*
X38377952Y-114228619D01*
X38330333Y-114323857D01*
X38330333Y-114419095D01*
X38377952Y-114561952D01*
X38949380Y-115133380D01*
X38330333Y-115133380D01*
X46045380Y-74604714D02*
X46045380Y-74033285D01*
X46045380Y-74319000D02*
X45045380Y-74319000D01*
X45188238Y-74223761D01*
X45283476Y-74128523D01*
X45331095Y-74033285D01*
X45378714Y-74938047D02*
X46045380Y-75128523D01*
X45569190Y-75319000D01*
X46045380Y-75509476D01*
X45378714Y-75699952D01*
X46045380Y-76080904D02*
X45378714Y-76080904D01*
X45045380Y-76080904D02*
X45093000Y-76033285D01*
X45140619Y-76080904D01*
X45093000Y-76128523D01*
X45045380Y-76080904D01*
X45140619Y-76080904D01*
X46045380Y-76557095D02*
X45378714Y-76557095D01*
X45569190Y-76557095D02*
X45473952Y-76604714D01*
X45426333Y-76652333D01*
X45378714Y-76747571D01*
X45378714Y-76842809D01*
X45997761Y-77557095D02*
X46045380Y-77461857D01*
X46045380Y-77271380D01*
X45997761Y-77176142D01*
X45902523Y-77128523D01*
X45521571Y-77128523D01*
X45426333Y-77176142D01*
X45378714Y-77271380D01*
X45378714Y-77461857D01*
X45426333Y-77557095D01*
X45521571Y-77604714D01*
X45616809Y-77604714D01*
X45712047Y-77128523D01*
X46045380Y-91308714D02*
X46045380Y-90737285D01*
X46045380Y-91023000D02*
X45045380Y-91023000D01*
X45188238Y-90927761D01*
X45283476Y-90832523D01*
X45331095Y-90737285D01*
X45378714Y-91642047D02*
X46045380Y-91832523D01*
X45569190Y-92023000D01*
X46045380Y-92213476D01*
X45378714Y-92403952D01*
X46045380Y-92784904D02*
X45378714Y-92784904D01*
X45045380Y-92784904D02*
X45093000Y-92737285D01*
X45140619Y-92784904D01*
X45093000Y-92832523D01*
X45045380Y-92784904D01*
X45140619Y-92784904D01*
X46045380Y-93261095D02*
X45378714Y-93261095D01*
X45569190Y-93261095D02*
X45473952Y-93308714D01*
X45426333Y-93356333D01*
X45378714Y-93451571D01*
X45378714Y-93546809D01*
X45997761Y-94261095D02*
X46045380Y-94165857D01*
X46045380Y-93975380D01*
X45997761Y-93880142D01*
X45902523Y-93832523D01*
X45521571Y-93832523D01*
X45426333Y-93880142D01*
X45378714Y-93975380D01*
X45378714Y-94165857D01*
X45426333Y-94261095D01*
X45521571Y-94308714D01*
X45616809Y-94308714D01*
X45712047Y-93832523D01*
X45299285Y-111232880D02*
X45870714Y-111232880D01*
X45585000Y-111232880D02*
X45585000Y-110232880D01*
X45680238Y-110375738D01*
X45775476Y-110470976D01*
X45870714Y-110518595D01*
X44870714Y-111232880D02*
X44870714Y-110232880D01*
X44299285Y-111232880D02*
X44727857Y-110661452D01*
X44299285Y-110232880D02*
X44870714Y-110804309D01*
X43076666Y-81335619D02*
X43029047Y-81288000D01*
X42933809Y-81240380D01*
X42695714Y-81240380D01*
X42600476Y-81288000D01*
X42552857Y-81335619D01*
X42505238Y-81430857D01*
X42505238Y-81526095D01*
X42552857Y-81668952D01*
X43124285Y-82240380D01*
X42505238Y-82240380D01*
X42124285Y-81335619D02*
X42076666Y-81288000D01*
X41981428Y-81240380D01*
X41743333Y-81240380D01*
X41648095Y-81288000D01*
X41600476Y-81335619D01*
X41552857Y-81430857D01*
X41552857Y-81526095D01*
X41600476Y-81668952D01*
X42171904Y-82240380D01*
X41552857Y-82240380D01*
X41124285Y-82240380D02*
X41124285Y-81240380D01*
X41029047Y-81859428D02*
X40743333Y-82240380D01*
X40743333Y-81573714D02*
X41124285Y-81954666D01*
X39949380Y-103846523D02*
X39949380Y-103370333D01*
X38949380Y-103370333D01*
X39949380Y-104179857D02*
X38949380Y-104179857D01*
X39663666Y-104513190D01*
X38949380Y-104846523D01*
X39949380Y-104846523D01*
X38949380Y-105227476D02*
X38949380Y-105846523D01*
X39330333Y-105513190D01*
X39330333Y-105656047D01*
X39377952Y-105751285D01*
X39425571Y-105798904D01*
X39520809Y-105846523D01*
X39758904Y-105846523D01*
X39854142Y-105798904D01*
X39901761Y-105751285D01*
X39949380Y-105656047D01*
X39949380Y-105370333D01*
X39901761Y-105275095D01*
X39854142Y-105227476D01*
X38949380Y-106751285D02*
X38949380Y-106275095D01*
X39425571Y-106227476D01*
X39377952Y-106275095D01*
X39330333Y-106370333D01*
X39330333Y-106608428D01*
X39377952Y-106703666D01*
X39425571Y-106751285D01*
X39520809Y-106798904D01*
X39758904Y-106798904D01*
X39854142Y-106751285D01*
X39901761Y-106703666D01*
X39949380Y-106608428D01*
X39949380Y-106370333D01*
X39901761Y-106275095D01*
X39854142Y-106227476D01*
X39377952Y-107370333D02*
X39330333Y-107275095D01*
X39282714Y-107227476D01*
X39187476Y-107179857D01*
X39139857Y-107179857D01*
X39044619Y-107227476D01*
X38997000Y-107275095D01*
X38949380Y-107370333D01*
X38949380Y-107560809D01*
X38997000Y-107656047D01*
X39044619Y-107703666D01*
X39139857Y-107751285D01*
X39187476Y-107751285D01*
X39282714Y-107703666D01*
X39330333Y-107656047D01*
X39377952Y-107560809D01*
X39377952Y-107370333D01*
X39425571Y-107275095D01*
X39473190Y-107227476D01*
X39568428Y-107179857D01*
X39758904Y-107179857D01*
X39854142Y-107227476D01*
X39901761Y-107275095D01*
X39949380Y-107370333D01*
X39949380Y-107560809D01*
X39901761Y-107656047D01*
X39854142Y-107703666D01*
X39758904Y-107751285D01*
X39568428Y-107751285D01*
X39473190Y-107703666D01*
X39425571Y-107656047D01*
X39377952Y-107560809D01*
X59142285Y-108783380D02*
X59713714Y-108783380D01*
X59428000Y-108783380D02*
X59428000Y-107783380D01*
X59523238Y-107926238D01*
X59618476Y-108021476D01*
X59713714Y-108069095D01*
X58142285Y-108783380D02*
X58475619Y-108307190D01*
X58713714Y-108783380D02*
X58713714Y-107783380D01*
X58332761Y-107783380D01*
X58237523Y-107831000D01*
X58189904Y-107878619D01*
X58142285Y-107973857D01*
X58142285Y-108116714D01*
X58189904Y-108211952D01*
X58237523Y-108259571D01*
X58332761Y-108307190D01*
X58713714Y-108307190D01*
X61333047Y-108783380D02*
X61904476Y-108783380D01*
X61618761Y-108783380D02*
X61618761Y-107783380D01*
X61714000Y-107926238D01*
X61809238Y-108021476D01*
X61904476Y-108069095D01*
X60904476Y-108783380D02*
X60904476Y-107783380D01*
X60809238Y-108402428D02*
X60523523Y-108783380D01*
X60523523Y-108116714D02*
X60904476Y-108497666D01*
X50649095Y-105354380D02*
X50649095Y-104354380D01*
X50077666Y-105354380D02*
X50506238Y-104782952D01*
X50077666Y-104354380D02*
X50649095Y-104925809D01*
X49125285Y-105354380D02*
X49696714Y-105354380D01*
X49411000Y-105354380D02*
X49411000Y-104354380D01*
X49506238Y-104497238D01*
X49601476Y-104592476D01*
X49696714Y-104640095D01*
X34678904Y-99861714D02*
X34678904Y-100528380D01*
X35107476Y-99861714D02*
X35107476Y-100385523D01*
X35059857Y-100480761D01*
X34964619Y-100528380D01*
X34821761Y-100528380D01*
X34726523Y-100480761D01*
X34678904Y-100433142D01*
X33678904Y-100528380D02*
X34250333Y-100528380D01*
X33964619Y-100528380D02*
X33964619Y-99528380D01*
X34059857Y-99671238D01*
X34155095Y-99766476D01*
X34250333Y-99814095D01*
X41790857Y-100020380D02*
X42362285Y-100020380D01*
X42076571Y-100020380D02*
X42076571Y-99020380D01*
X42171809Y-99163238D01*
X42267047Y-99258476D01*
X42362285Y-99306095D01*
X41171809Y-99020380D02*
X41076571Y-99020380D01*
X40981333Y-99068000D01*
X40933714Y-99115619D01*
X40886095Y-99210857D01*
X40838476Y-99401333D01*
X40838476Y-99639428D01*
X40886095Y-99829904D01*
X40933714Y-99925142D01*
X40981333Y-99972761D01*
X41076571Y-100020380D01*
X41171809Y-100020380D01*
X41267047Y-99972761D01*
X41314666Y-99925142D01*
X41362285Y-99829904D01*
X41409904Y-99639428D01*
X41409904Y-99401333D01*
X41362285Y-99210857D01*
X41314666Y-99115619D01*
X41267047Y-99068000D01*
X41171809Y-99020380D01*
X40409904Y-99353714D02*
X40409904Y-100020380D01*
X40409904Y-99448952D02*
X40362285Y-99401333D01*
X40267047Y-99353714D01*
X40124190Y-99353714D01*
X40028952Y-99401333D01*
X39981333Y-99496571D01*
X39981333Y-100020380D01*
X59872476Y-97353380D02*
X60443904Y-97353380D01*
X60158190Y-97353380D02*
X60158190Y-96353380D01*
X60253428Y-96496238D01*
X60348666Y-96591476D01*
X60443904Y-96639095D01*
X59253428Y-96353380D02*
X59158190Y-96353380D01*
X59062952Y-96401000D01*
X59015333Y-96448619D01*
X58967714Y-96543857D01*
X58920095Y-96734333D01*
X58920095Y-96972428D01*
X58967714Y-97162904D01*
X59015333Y-97258142D01*
X59062952Y-97305761D01*
X59158190Y-97353380D01*
X59253428Y-97353380D01*
X59348666Y-97305761D01*
X59396285Y-97258142D01*
X59443904Y-97162904D01*
X59491523Y-96972428D01*
X59491523Y-96734333D01*
X59443904Y-96543857D01*
X59396285Y-96448619D01*
X59348666Y-96401000D01*
X59253428Y-96353380D01*
X58491523Y-97353380D02*
X58491523Y-96353380D01*
X57920095Y-97353380D02*
X58348666Y-96781952D01*
X57920095Y-96353380D02*
X58491523Y-96924809D01*
X65619095Y-99750619D02*
X65571476Y-99703000D01*
X65476238Y-99655380D01*
X65238142Y-99655380D01*
X65142904Y-99703000D01*
X65095285Y-99750619D01*
X65047666Y-99845857D01*
X65047666Y-99941095D01*
X65095285Y-100083952D01*
X65666714Y-100655380D01*
X65047666Y-100655380D01*
X64666714Y-99750619D02*
X64619095Y-99703000D01*
X64523857Y-99655380D01*
X64285761Y-99655380D01*
X64190523Y-99703000D01*
X64142904Y-99750619D01*
X64095285Y-99845857D01*
X64095285Y-99941095D01*
X64142904Y-100083952D01*
X64714333Y-100655380D01*
X64095285Y-100655380D01*
X63476238Y-99655380D02*
X63381000Y-99655380D01*
X63285761Y-99703000D01*
X63238142Y-99750619D01*
X63190523Y-99845857D01*
X63142904Y-100036333D01*
X63142904Y-100274428D01*
X63190523Y-100464904D01*
X63238142Y-100560142D01*
X63285761Y-100607761D01*
X63381000Y-100655380D01*
X63476238Y-100655380D01*
X63571476Y-100607761D01*
X63619095Y-100560142D01*
X63666714Y-100464904D01*
X63714333Y-100274428D01*
X63714333Y-100036333D01*
X63666714Y-99845857D01*
X63619095Y-99750619D01*
X63571476Y-99703000D01*
X63476238Y-99655380D01*
X62142904Y-100655380D02*
X62476238Y-100179190D01*
X62714333Y-100655380D02*
X62714333Y-99655380D01*
X62333380Y-99655380D01*
X62238142Y-99703000D01*
X62190523Y-99750619D01*
X62142904Y-99845857D01*
X62142904Y-99988714D01*
X62190523Y-100083952D01*
X62238142Y-100131571D01*
X62333380Y-100179190D01*
X62714333Y-100179190D01*
X109299142Y-72572571D02*
X109156285Y-72620190D01*
X109108666Y-72667809D01*
X109061047Y-72763047D01*
X109061047Y-72905904D01*
X109108666Y-73001142D01*
X109156285Y-73048761D01*
X109251523Y-73096380D01*
X109632476Y-73096380D01*
X109632476Y-72096380D01*
X109299142Y-72096380D01*
X109203904Y-72144000D01*
X109156285Y-72191619D01*
X109108666Y-72286857D01*
X109108666Y-72382095D01*
X109156285Y-72477333D01*
X109203904Y-72524952D01*
X109299142Y-72572571D01*
X109632476Y-72572571D01*
X108061047Y-73001142D02*
X108108666Y-73048761D01*
X108251523Y-73096380D01*
X108346761Y-73096380D01*
X108489619Y-73048761D01*
X108584857Y-72953523D01*
X108632476Y-72858285D01*
X108680095Y-72667809D01*
X108680095Y-72524952D01*
X108632476Y-72334476D01*
X108584857Y-72239238D01*
X108489619Y-72144000D01*
X108346761Y-72096380D01*
X108251523Y-72096380D01*
X108108666Y-72144000D01*
X108061047Y-72191619D01*
X107489619Y-72524952D02*
X107584857Y-72477333D01*
X107632476Y-72429714D01*
X107680095Y-72334476D01*
X107680095Y-72286857D01*
X107632476Y-72191619D01*
X107584857Y-72144000D01*
X107489619Y-72096380D01*
X107299142Y-72096380D01*
X107203904Y-72144000D01*
X107156285Y-72191619D01*
X107108666Y-72286857D01*
X107108666Y-72334476D01*
X107156285Y-72429714D01*
X107203904Y-72477333D01*
X107299142Y-72524952D01*
X107489619Y-72524952D01*
X107584857Y-72572571D01*
X107632476Y-72620190D01*
X107680095Y-72715428D01*
X107680095Y-72905904D01*
X107632476Y-73001142D01*
X107584857Y-73048761D01*
X107489619Y-73096380D01*
X107299142Y-73096380D01*
X107203904Y-73048761D01*
X107156285Y-73001142D01*
X107108666Y-72905904D01*
X107108666Y-72715428D01*
X107156285Y-72620190D01*
X107203904Y-72572571D01*
X107299142Y-72524952D01*
X106251523Y-72429714D02*
X106251523Y-73096380D01*
X106489619Y-72048761D02*
X106727714Y-72763047D01*
X106108666Y-72763047D01*
X105822952Y-72096380D02*
X105156285Y-72096380D01*
X105584857Y-73096380D01*
X106303380Y-64786142D02*
X106303380Y-64214714D01*
X106303380Y-64500428D02*
X105303380Y-64500428D01*
X105446238Y-64405190D01*
X105541476Y-64309952D01*
X105589095Y-64214714D01*
X106303380Y-65214714D02*
X105303380Y-65214714D01*
X106303380Y-65786142D01*
X105303380Y-65786142D01*
X105636714Y-66690904D02*
X106303380Y-66690904D01*
X105255761Y-66452809D02*
X105970047Y-66214714D01*
X105970047Y-66833761D01*
X106303380Y-67738523D02*
X106303380Y-67167095D01*
X106303380Y-67452809D02*
X105303380Y-67452809D01*
X105446238Y-67357571D01*
X105541476Y-67262333D01*
X105589095Y-67167095D01*
X105636714Y-68595666D02*
X106303380Y-68595666D01*
X105255761Y-68357571D02*
X105970047Y-68119476D01*
X105970047Y-68738523D01*
X105731952Y-69262333D02*
X105684333Y-69167095D01*
X105636714Y-69119476D01*
X105541476Y-69071857D01*
X105493857Y-69071857D01*
X105398619Y-69119476D01*
X105351000Y-69167095D01*
X105303380Y-69262333D01*
X105303380Y-69452809D01*
X105351000Y-69548047D01*
X105398619Y-69595666D01*
X105493857Y-69643285D01*
X105541476Y-69643285D01*
X105636714Y-69595666D01*
X105684333Y-69548047D01*
X105731952Y-69452809D01*
X105731952Y-69262333D01*
X105779571Y-69167095D01*
X105827190Y-69119476D01*
X105922428Y-69071857D01*
X106112904Y-69071857D01*
X106208142Y-69119476D01*
X106255761Y-69167095D01*
X106303380Y-69262333D01*
X106303380Y-69452809D01*
X106255761Y-69548047D01*
X106208142Y-69595666D01*
X106112904Y-69643285D01*
X105922428Y-69643285D01*
X105827190Y-69595666D01*
X105779571Y-69548047D01*
X105731952Y-69452809D01*
X119324285Y-64476380D02*
X118705238Y-64476380D01*
X119038571Y-64857333D01*
X118895714Y-64857333D01*
X118800476Y-64904952D01*
X118752857Y-64952571D01*
X118705238Y-65047809D01*
X118705238Y-65285904D01*
X118752857Y-65381142D01*
X118800476Y-65428761D01*
X118895714Y-65476380D01*
X119181428Y-65476380D01*
X119276666Y-65428761D01*
X119324285Y-65381142D01*
X118276666Y-65476380D02*
X118276666Y-64476380D01*
X118181428Y-65095428D02*
X117895714Y-65476380D01*
X117895714Y-64809714D02*
X118276666Y-65190666D01*
X117562380Y-64476380D02*
X116943333Y-64476380D01*
X117276666Y-64857333D01*
X117133809Y-64857333D01*
X117038571Y-64904952D01*
X116990952Y-64952571D01*
X116943333Y-65047809D01*
X116943333Y-65285904D01*
X116990952Y-65381142D01*
X117038571Y-65428761D01*
X117133809Y-65476380D01*
X117419523Y-65476380D01*
X117514761Y-65428761D01*
X117562380Y-65381142D01*
X119403666Y-58348619D02*
X119356047Y-58301000D01*
X119260809Y-58253380D01*
X119022714Y-58253380D01*
X118927476Y-58301000D01*
X118879857Y-58348619D01*
X118832238Y-58443857D01*
X118832238Y-58539095D01*
X118879857Y-58681952D01*
X119451285Y-59253380D01*
X118832238Y-59253380D01*
X118403666Y-59253380D02*
X118403666Y-58253380D01*
X118308428Y-58872428D02*
X118022714Y-59253380D01*
X118022714Y-58586714D02*
X118403666Y-58967666D01*
X117641761Y-58348619D02*
X117594142Y-58301000D01*
X117498904Y-58253380D01*
X117260809Y-58253380D01*
X117165571Y-58301000D01*
X117117952Y-58348619D01*
X117070333Y-58443857D01*
X117070333Y-58539095D01*
X117117952Y-58681952D01*
X117689380Y-59253380D01*
X117070333Y-59253380D01*
X37552285Y-122753380D02*
X38123714Y-122753380D01*
X37838000Y-122753380D02*
X37838000Y-121753380D01*
X37933238Y-121896238D01*
X38028476Y-121991476D01*
X38123714Y-122039095D01*
X37123714Y-122753380D02*
X37123714Y-121753380D01*
X36552285Y-122753380D02*
X36980857Y-122181952D01*
X36552285Y-121753380D02*
X37123714Y-122324809D01*
X56856285Y-108783380D02*
X57427714Y-108783380D01*
X57142000Y-108783380D02*
X57142000Y-107783380D01*
X57237238Y-107926238D01*
X57332476Y-108021476D01*
X57427714Y-108069095D01*
X56427714Y-108783380D02*
X56427714Y-107783380D01*
X55856285Y-108783380D02*
X56284857Y-108211952D01*
X55856285Y-107783380D02*
X56427714Y-108354809D01*
X108561095Y-102052380D02*
X108561095Y-101052380D01*
X107989666Y-102052380D02*
X108418238Y-101480952D01*
X107989666Y-101052380D02*
X108561095Y-101623809D01*
X107037285Y-102052380D02*
X107608714Y-102052380D01*
X107323000Y-102052380D02*
X107323000Y-101052380D01*
X107418238Y-101195238D01*
X107513476Y-101290476D01*
X107608714Y-101338095D01*
X120372095Y-102052380D02*
X120372095Y-101052380D01*
X119800666Y-102052380D02*
X120229238Y-101480952D01*
X119800666Y-101052380D02*
X120372095Y-101623809D01*
X118848285Y-102052380D02*
X119419714Y-102052380D01*
X119134000Y-102052380D02*
X119134000Y-101052380D01*
X119229238Y-101195238D01*
X119324476Y-101290476D01*
X119419714Y-101338095D01*
X102612785Y-80589380D02*
X103184214Y-80589380D01*
X102898500Y-80589380D02*
X102898500Y-79589380D01*
X102993738Y-79732238D01*
X103088976Y-79827476D01*
X103184214Y-79875095D01*
X102184214Y-80589380D02*
X102184214Y-79589380D01*
X101612785Y-80589380D02*
X102041357Y-80017952D01*
X101612785Y-79589380D02*
X102184214Y-80160809D01*
X58634285Y-89225380D02*
X59205714Y-89225380D01*
X58920000Y-89225380D02*
X58920000Y-88225380D01*
X59015238Y-88368238D01*
X59110476Y-88463476D01*
X59205714Y-88511095D01*
X58205714Y-89225380D02*
X58205714Y-88225380D01*
X57634285Y-89225380D02*
X58062857Y-88653952D01*
X57634285Y-88225380D02*
X58205714Y-88796809D01*
X46151785Y-100655380D02*
X46723214Y-100655380D01*
X46437500Y-100655380D02*
X46437500Y-99655380D01*
X46532738Y-99798238D01*
X46627976Y-99893476D01*
X46723214Y-99941095D01*
X45723214Y-100655380D02*
X45723214Y-99655380D01*
X45151785Y-100655380D02*
X45580357Y-100083952D01*
X45151785Y-99655380D02*
X45723214Y-100226809D01*
X56729285Y-97353380D02*
X57300714Y-97353380D01*
X57015000Y-97353380D02*
X57015000Y-96353380D01*
X57110238Y-96496238D01*
X57205476Y-96591476D01*
X57300714Y-96639095D01*
X56300714Y-97353380D02*
X56300714Y-96353380D01*
X55729285Y-97353380D02*
X56157857Y-96781952D01*
X55729285Y-96353380D02*
X56300714Y-96924809D01*
X58935904Y-83605714D02*
X58935904Y-84272380D01*
X59364476Y-83605714D02*
X59364476Y-84129523D01*
X59316857Y-84224761D01*
X59221619Y-84272380D01*
X59078761Y-84272380D01*
X58983523Y-84224761D01*
X58935904Y-84177142D01*
X57935904Y-84272380D02*
X58507333Y-84272380D01*
X58221619Y-84272380D02*
X58221619Y-83272380D01*
X58316857Y-83415238D01*
X58412095Y-83510476D01*
X58507333Y-83558095D01*
X99567000Y-118514761D02*
X99424142Y-118562380D01*
X99186047Y-118562380D01*
X99090809Y-118514761D01*
X99043190Y-118467142D01*
X98995571Y-118371904D01*
X98995571Y-118276666D01*
X99043190Y-118181428D01*
X99090809Y-118133809D01*
X99186047Y-118086190D01*
X99376523Y-118038571D01*
X99471761Y-117990952D01*
X99519380Y-117943333D01*
X99567000Y-117848095D01*
X99567000Y-117752857D01*
X99519380Y-117657619D01*
X99471761Y-117610000D01*
X99376523Y-117562380D01*
X99138428Y-117562380D01*
X98995571Y-117610000D01*
X98567000Y-118562380D02*
X98567000Y-117562380D01*
X97995571Y-118562380D01*
X97995571Y-117562380D01*
X97090809Y-117562380D02*
X97281285Y-117562380D01*
X97376523Y-117610000D01*
X97424142Y-117657619D01*
X97519380Y-117800476D01*
X97567000Y-117990952D01*
X97567000Y-118371904D01*
X97519380Y-118467142D01*
X97471761Y-118514761D01*
X97376523Y-118562380D01*
X97186047Y-118562380D01*
X97090809Y-118514761D01*
X97043190Y-118467142D01*
X96995571Y-118371904D01*
X96995571Y-118133809D01*
X97043190Y-118038571D01*
X97090809Y-117990952D01*
X97186047Y-117943333D01*
X97376523Y-117943333D01*
X97471761Y-117990952D01*
X97519380Y-118038571D01*
X97567000Y-118133809D01*
X96090809Y-117562380D02*
X96567000Y-117562380D01*
X96614619Y-118038571D01*
X96567000Y-117990952D01*
X96471761Y-117943333D01*
X96233666Y-117943333D01*
X96138428Y-117990952D01*
X96090809Y-118038571D01*
X96043190Y-118133809D01*
X96043190Y-118371904D01*
X96090809Y-118467142D01*
X96138428Y-118514761D01*
X96233666Y-118562380D01*
X96471761Y-118562380D01*
X96567000Y-118514761D01*
X96614619Y-118467142D01*
X95614619Y-118562380D02*
X95614619Y-117562380D01*
X95614619Y-118038571D02*
X95043190Y-118038571D01*
X95043190Y-118562380D02*
X95043190Y-117562380D01*
X94709857Y-117562380D02*
X94376523Y-118562380D01*
X94043190Y-117562380D01*
X93709857Y-118562380D02*
X93709857Y-117562380D01*
X93471761Y-117562380D01*
X93328904Y-117610000D01*
X93233666Y-117705238D01*
X93186047Y-117800476D01*
X93138428Y-117990952D01*
X93138428Y-118133809D01*
X93186047Y-118324285D01*
X93233666Y-118419523D01*
X93328904Y-118514761D01*
X93471761Y-118562380D01*
X93709857Y-118562380D01*
X92757476Y-117657619D02*
X92709857Y-117610000D01*
X92614619Y-117562380D01*
X92376523Y-117562380D01*
X92281285Y-117610000D01*
X92233666Y-117657619D01*
X92186047Y-117752857D01*
X92186047Y-117848095D01*
X92233666Y-117990952D01*
X92805095Y-118562380D01*
X92186047Y-118562380D01*
X91852714Y-117562380D02*
X91233666Y-117562380D01*
X91567000Y-117943333D01*
X91424142Y-117943333D01*
X91328904Y-117990952D01*
X91281285Y-118038571D01*
X91233666Y-118133809D01*
X91233666Y-118371904D01*
X91281285Y-118467142D01*
X91328904Y-118514761D01*
X91424142Y-118562380D01*
X91709857Y-118562380D01*
X91805095Y-118514761D01*
X91852714Y-118467142D01*
X90614619Y-117562380D02*
X90519380Y-117562380D01*
X90424142Y-117610000D01*
X90376523Y-117657619D01*
X90328904Y-117752857D01*
X90281285Y-117943333D01*
X90281285Y-118181428D01*
X90328904Y-118371904D01*
X90376523Y-118467142D01*
X90424142Y-118514761D01*
X90519380Y-118562380D01*
X90614619Y-118562380D01*
X90709857Y-118514761D01*
X90757476Y-118467142D01*
X90805095Y-118371904D01*
X90852714Y-118181428D01*
X90852714Y-117943333D01*
X90805095Y-117752857D01*
X90757476Y-117657619D01*
X90709857Y-117610000D01*
X90614619Y-117562380D01*
X90090809Y-118657619D02*
X89328904Y-118657619D01*
X89090809Y-118562380D02*
X89090809Y-117562380D01*
X88757476Y-118276666D01*
X88424142Y-117562380D01*
X88424142Y-118562380D01*
X87757476Y-117562380D02*
X87567000Y-117562380D01*
X87471761Y-117610000D01*
X87376523Y-117705238D01*
X87328904Y-117895714D01*
X87328904Y-118229047D01*
X87376523Y-118419523D01*
X87471761Y-118514761D01*
X87567000Y-118562380D01*
X87757476Y-118562380D01*
X87852714Y-118514761D01*
X87947952Y-118419523D01*
X87995571Y-118229047D01*
X87995571Y-117895714D01*
X87947952Y-117705238D01*
X87852714Y-117610000D01*
X87757476Y-117562380D01*
X86900333Y-118562380D02*
X86900333Y-117562380D01*
X86662238Y-117562380D01*
X86519380Y-117610000D01*
X86424142Y-117705238D01*
X86376523Y-117800476D01*
X86328904Y-117990952D01*
X86328904Y-118133809D01*
X86376523Y-118324285D01*
X86424142Y-118419523D01*
X86519380Y-118514761D01*
X86662238Y-118562380D01*
X86900333Y-118562380D01*
X85900333Y-117562380D02*
X85900333Y-118371904D01*
X85852714Y-118467142D01*
X85805095Y-118514761D01*
X85709857Y-118562380D01*
X85519380Y-118562380D01*
X85424142Y-118514761D01*
X85376523Y-118467142D01*
X85328904Y-118371904D01*
X85328904Y-117562380D01*
X84376523Y-118562380D02*
X84852714Y-118562380D01*
X84852714Y-117562380D01*
X84043190Y-118038571D02*
X83709857Y-118038571D01*
X83567000Y-118562380D02*
X84043190Y-118562380D01*
X84043190Y-117562380D01*
X83567000Y-117562380D01*
X46751714Y-71175571D02*
X47085047Y-71175571D01*
X47085047Y-71699380D02*
X47085047Y-70699380D01*
X46608857Y-70699380D01*
X46275523Y-71413666D02*
X45799333Y-71413666D01*
X46370761Y-71699380D02*
X46037428Y-70699380D01*
X45704095Y-71699380D01*
X45370761Y-71699380D02*
X45370761Y-70699380D01*
X44799333Y-71699380D01*
X44799333Y-70699380D01*
X44370761Y-70794619D02*
X44323142Y-70747000D01*
X44227904Y-70699380D01*
X43989809Y-70699380D01*
X43894571Y-70747000D01*
X43846952Y-70794619D01*
X43799333Y-70889857D01*
X43799333Y-70985095D01*
X43846952Y-71127952D01*
X44418380Y-71699380D01*
X43799333Y-71699380D01*
X109798952Y-53903619D02*
X109751333Y-53856000D01*
X109656095Y-53808380D01*
X109418000Y-53808380D01*
X109322761Y-53856000D01*
X109275142Y-53903619D01*
X109227523Y-53998857D01*
X109227523Y-54094095D01*
X109275142Y-54236952D01*
X109846571Y-54808380D01*
X109227523Y-54808380D01*
X108846571Y-53903619D02*
X108798952Y-53856000D01*
X108703714Y-53808380D01*
X108465619Y-53808380D01*
X108370380Y-53856000D01*
X108322761Y-53903619D01*
X108275142Y-53998857D01*
X108275142Y-54094095D01*
X108322761Y-54236952D01*
X108894190Y-54808380D01*
X108275142Y-54808380D01*
X107275142Y-54808380D02*
X107608476Y-54332190D01*
X107846571Y-54808380D02*
X107846571Y-53808380D01*
X107465619Y-53808380D01*
X107370380Y-53856000D01*
X107322761Y-53903619D01*
X107275142Y-53998857D01*
X107275142Y-54141714D01*
X107322761Y-54236952D01*
X107370380Y-54284571D01*
X107465619Y-54332190D01*
X107846571Y-54332190D01*
X106798952Y-54760761D02*
X106798952Y-54808380D01*
X106846571Y-54903619D01*
X106894190Y-54951238D01*
X105084666Y-54808380D02*
X105656095Y-54808380D01*
X105370380Y-54808380D02*
X105370380Y-53808380D01*
X105465619Y-53951238D01*
X105560857Y-54046476D01*
X105656095Y-54094095D01*
X104465619Y-53808380D02*
X104370380Y-53808380D01*
X104275142Y-53856000D01*
X104227523Y-53903619D01*
X104179904Y-53998857D01*
X104132285Y-54189333D01*
X104132285Y-54427428D01*
X104179904Y-54617904D01*
X104227523Y-54713142D01*
X104275142Y-54760761D01*
X104370380Y-54808380D01*
X104465619Y-54808380D01*
X104560857Y-54760761D01*
X104608476Y-54713142D01*
X104656095Y-54617904D01*
X104703714Y-54427428D01*
X104703714Y-54189333D01*
X104656095Y-53998857D01*
X104608476Y-53903619D01*
X104560857Y-53856000D01*
X104465619Y-53808380D01*
X103513238Y-53808380D02*
X103418000Y-53808380D01*
X103322761Y-53856000D01*
X103275142Y-53903619D01*
X103227523Y-53998857D01*
X103179904Y-54189333D01*
X103179904Y-54427428D01*
X103227523Y-54617904D01*
X103275142Y-54713142D01*
X103322761Y-54760761D01*
X103418000Y-54808380D01*
X103513238Y-54808380D01*
X103608476Y-54760761D01*
X103656095Y-54713142D01*
X103703714Y-54617904D01*
X103751333Y-54427428D01*
X103751333Y-54189333D01*
X103703714Y-53998857D01*
X103656095Y-53903619D01*
X103608476Y-53856000D01*
X103513238Y-53808380D01*
X102846571Y-53808380D02*
X102608476Y-54808380D01*
X102418000Y-54094095D01*
X102227523Y-54808380D01*
X101989428Y-53808380D01*
X66904952Y-68032380D02*
X67381142Y-68032380D01*
X67428761Y-68508571D01*
X67381142Y-68460952D01*
X67285904Y-68413333D01*
X67047809Y-68413333D01*
X66952571Y-68460952D01*
X66904952Y-68508571D01*
X66857333Y-68603809D01*
X66857333Y-68841904D01*
X66904952Y-68937142D01*
X66952571Y-68984761D01*
X67047809Y-69032380D01*
X67285904Y-69032380D01*
X67381142Y-68984761D01*
X67428761Y-68937142D01*
X66571619Y-68032380D02*
X66238285Y-69032380D01*
X65904952Y-68032380D01*
X65809714Y-69127619D02*
X65047809Y-69127619D01*
X64809714Y-68508571D02*
X64476380Y-68508571D01*
X64333523Y-69032380D02*
X64809714Y-69032380D01*
X64809714Y-68032380D01*
X64333523Y-68032380D01*
X64000190Y-68032380D02*
X63333523Y-69032380D01*
X63333523Y-68032380D02*
X64000190Y-69032380D01*
X63095428Y-68032380D02*
X62524000Y-68032380D01*
X62809714Y-69032380D02*
X62809714Y-68032380D01*
%LPC*%
D15*
X53467000Y-63373000D03*
X56007000Y-63373000D03*
X58547000Y-63373000D03*
G36*
G01*
X60637000Y-62273000D02*
X61537000Y-62273000D01*
G75*
G02*
X61987000Y-62723000I0J-450000D01*
G01*
X61987000Y-64023000D01*
G75*
G02*
X61537000Y-64473000I-450000J0D01*
G01*
X60637000Y-64473000D01*
G75*
G02*
X60187000Y-64023000I0J450000D01*
G01*
X60187000Y-62723000D01*
G75*
G02*
X60637000Y-62273000I450000J0D01*
G01*
G37*
D16*
X72898000Y-58928000D03*
D17*
X75438000Y-58928000D03*
X74168000Y-58928000D03*
D18*
X86741000Y-99060000D03*
D19*
X108585000Y-60325000D03*
X106045000Y-60325000D03*
X103505000Y-60325000D03*
X100965000Y-60325000D03*
X98425000Y-60325000D03*
X95885000Y-60325000D03*
X93345000Y-60325000D03*
G36*
G01*
X91255000Y-61325000D02*
X90355000Y-61325000D01*
G75*
G02*
X89905000Y-60875000I0J450000D01*
G01*
X89905000Y-59775000D01*
G75*
G02*
X90355000Y-59325000I450000J0D01*
G01*
X91255000Y-59325000D01*
G75*
G02*
X91705000Y-59775000I0J-450000D01*
G01*
X91705000Y-60875000D01*
G75*
G02*
X91255000Y-61325000I-450000J0D01*
G01*
G37*
D20*
X113919000Y-56388000D03*
X116459000Y-56388000D03*
X118999000Y-56388000D03*
X121539000Y-56388000D03*
G36*
G01*
X124504000Y-57488000D02*
X123654000Y-57488000D01*
G75*
G02*
X123229000Y-57063000I0J425000D01*
G01*
X123229000Y-55713000D01*
G75*
G02*
X123654000Y-55288000I425000J0D01*
G01*
X124504000Y-55288000D01*
G75*
G02*
X124929000Y-55713000I0J-425000D01*
G01*
X124929000Y-57063000D01*
G75*
G02*
X124504000Y-57488000I-425000J0D01*
G01*
G37*
D21*
X84201000Y-104140000D03*
X86741000Y-104140000D03*
D22*
X89281000Y-104140000D03*
D21*
X88011000Y-93980000D03*
D22*
X85471000Y-93980000D03*
D15*
X54610000Y-34290000D03*
X57150000Y-34290000D03*
X59690000Y-34290000D03*
G36*
G01*
X61780000Y-33190000D02*
X62680000Y-33190000D01*
G75*
G02*
X63130000Y-33640000I0J-450000D01*
G01*
X63130000Y-34940000D01*
G75*
G02*
X62680000Y-35390000I-450000J0D01*
G01*
X61780000Y-35390000D01*
G75*
G02*
X61330000Y-34940000I0J450000D01*
G01*
X61330000Y-33640000D01*
G75*
G02*
X61780000Y-33190000I450000J0D01*
G01*
G37*
D23*
G36*
X58958000Y-45594000D02*
G01*
X58958000Y-48894000D01*
X56358000Y-48894000D01*
X56358000Y-45594000D01*
X58958000Y-45594000D01*
G37*
G36*
G01*
X48120000Y-108214000D02*
X48120000Y-109464000D01*
G75*
G02*
X47870000Y-109714000I-250000J0D01*
G01*
X46945000Y-109714000D01*
G75*
G02*
X46695000Y-109464000I0J250000D01*
G01*
X46695000Y-108214000D01*
G75*
G02*
X46945000Y-107964000I250000J0D01*
G01*
X47870000Y-107964000D01*
G75*
G02*
X48120000Y-108214000I0J-250000D01*
G01*
G37*
G36*
G01*
X51095000Y-108214000D02*
X51095000Y-109464000D01*
G75*
G02*
X50845000Y-109714000I-250000J0D01*
G01*
X49920000Y-109714000D01*
G75*
G02*
X49670000Y-109464000I0J250000D01*
G01*
X49670000Y-108214000D01*
G75*
G02*
X49920000Y-107964000I250000J0D01*
G01*
X50845000Y-107964000D01*
G75*
G02*
X51095000Y-108214000I0J-250000D01*
G01*
G37*
D24*
X102870000Y-106553000D03*
X102870000Y-109093000D03*
X102870000Y-111633000D03*
X102870000Y-114173000D03*
G36*
G01*
X76620000Y-114598000D02*
X76620000Y-113748000D01*
G75*
G02*
X77045000Y-113323000I425000J0D01*
G01*
X77895000Y-113323000D01*
G75*
G02*
X78320000Y-113748000I0J-425000D01*
G01*
X78320000Y-114598000D01*
G75*
G02*
X77895000Y-115023000I-425000J0D01*
G01*
X77045000Y-115023000D01*
G75*
G02*
X76620000Y-114598000I0J425000D01*
G01*
G37*
X77470000Y-111633000D03*
X77470000Y-109093000D03*
X77470000Y-106553000D03*
G36*
G01*
X51571999Y-68998000D02*
X52822001Y-68998000D01*
G75*
G02*
X53072000Y-69247999I0J-249999D01*
G01*
X53072000Y-70048001D01*
G75*
G02*
X52822001Y-70298000I-249999J0D01*
G01*
X51571999Y-70298000D01*
G75*
G02*
X51322000Y-70048001I0J249999D01*
G01*
X51322000Y-69247999D01*
G75*
G02*
X51571999Y-68998000I249999J0D01*
G01*
G37*
G36*
G01*
X51571999Y-65898000D02*
X52822001Y-65898000D01*
G75*
G02*
X53072000Y-66147999I0J-249999D01*
G01*
X53072000Y-66948001D01*
G75*
G02*
X52822001Y-67198000I-249999J0D01*
G01*
X51571999Y-67198000D01*
G75*
G02*
X51322000Y-66948001I0J249999D01*
G01*
X51322000Y-66147999D01*
G75*
G02*
X51571999Y-65898000I249999J0D01*
G01*
G37*
D25*
X58735000Y-101449000D03*
X56835000Y-101449000D03*
X57785000Y-98449000D03*
D26*
X37719000Y-64008000D03*
X37719000Y-66548000D03*
D27*
X37719000Y-69088000D03*
D28*
X119634000Y-46228000D03*
D29*
X119634000Y-43688000D03*
D30*
X113665000Y-76962000D03*
X106045000Y-89662000D03*
X111125000Y-76962000D03*
X108585000Y-89662000D03*
X108585000Y-76962000D03*
X111125000Y-89662000D03*
X106045000Y-76962000D03*
D31*
X113665000Y-89662000D03*
G36*
G01*
X39357000Y-96784000D02*
X39357000Y-98034000D01*
G75*
G02*
X39107000Y-98284000I-250000J0D01*
G01*
X38182000Y-98284000D01*
G75*
G02*
X37932000Y-98034000I0J250000D01*
G01*
X37932000Y-96784000D01*
G75*
G02*
X38182000Y-96534000I250000J0D01*
G01*
X39107000Y-96534000D01*
G75*
G02*
X39357000Y-96784000I0J-250000D01*
G01*
G37*
G36*
G01*
X42332000Y-96784000D02*
X42332000Y-98034000D01*
G75*
G02*
X42082000Y-98284000I-250000J0D01*
G01*
X41157000Y-98284000D01*
G75*
G02*
X40907000Y-98034000I0J250000D01*
G01*
X40907000Y-96784000D01*
G75*
G02*
X41157000Y-96534000I250000J0D01*
G01*
X42082000Y-96534000D01*
G75*
G02*
X42332000Y-96784000I0J-250000D01*
G01*
G37*
G36*
G01*
X110373000Y-94501000D02*
X111623000Y-94501000D01*
G75*
G02*
X111873000Y-94751000I0J-250000D01*
G01*
X111873000Y-95676000D01*
G75*
G02*
X111623000Y-95926000I-250000J0D01*
G01*
X110373000Y-95926000D01*
G75*
G02*
X110123000Y-95676000I0J250000D01*
G01*
X110123000Y-94751000D01*
G75*
G02*
X110373000Y-94501000I250000J0D01*
G01*
G37*
G36*
G01*
X110373000Y-91526000D02*
X111623000Y-91526000D01*
G75*
G02*
X111873000Y-91776000I0J-250000D01*
G01*
X111873000Y-92701000D01*
G75*
G02*
X111623000Y-92951000I-250000J0D01*
G01*
X110373000Y-92951000D01*
G75*
G02*
X110123000Y-92701000I0J250000D01*
G01*
X110123000Y-91776000D01*
G75*
G02*
X110373000Y-91526000I250000J0D01*
G01*
G37*
D32*
X99276000Y-122482000D03*
X49276000Y-122482000D03*
G36*
G01*
X40122000Y-110985000D02*
X38872000Y-110985000D01*
G75*
G02*
X38622000Y-110735000I0J250000D01*
G01*
X38622000Y-109810000D01*
G75*
G02*
X38872000Y-109560000I250000J0D01*
G01*
X40122000Y-109560000D01*
G75*
G02*
X40372000Y-109810000I0J-250000D01*
G01*
X40372000Y-110735000D01*
G75*
G02*
X40122000Y-110985000I-250000J0D01*
G01*
G37*
G36*
G01*
X40122000Y-113960000D02*
X38872000Y-113960000D01*
G75*
G02*
X38622000Y-113710000I0J250000D01*
G01*
X38622000Y-112785000D01*
G75*
G02*
X38872000Y-112535000I250000J0D01*
G01*
X40122000Y-112535000D01*
G75*
G02*
X40372000Y-112785000I0J-250000D01*
G01*
X40372000Y-113710000D01*
G75*
G02*
X40122000Y-113960000I-250000J0D01*
G01*
G37*
D33*
X48895000Y-82811000D03*
X48895000Y-80311000D03*
X48895000Y-77811000D03*
G36*
G01*
X48170000Y-74461000D02*
X49620000Y-74461000D01*
G75*
G02*
X49870000Y-74711000I0J-250000D01*
G01*
X49870000Y-75911000D01*
G75*
G02*
X49620000Y-76161000I-250000J0D01*
G01*
X48170000Y-76161000D01*
G75*
G02*
X47920000Y-75911000I0J250000D01*
G01*
X47920000Y-74711000D01*
G75*
G02*
X48170000Y-74461000I250000J0D01*
G01*
G37*
X48895000Y-96273000D03*
X48895000Y-93773000D03*
X48895000Y-91273000D03*
G36*
G01*
X48170000Y-87923000D02*
X49620000Y-87923000D01*
G75*
G02*
X49870000Y-88173000I0J-250000D01*
G01*
X49870000Y-89373000D01*
G75*
G02*
X49620000Y-89623000I-250000J0D01*
G01*
X48170000Y-89623000D01*
G75*
G02*
X47920000Y-89373000I0J250000D01*
G01*
X47920000Y-88173000D01*
G75*
G02*
X48170000Y-87923000I250000J0D01*
G01*
G37*
G36*
G01*
X44460000Y-108344000D02*
X45710000Y-108344000D01*
G75*
G02*
X45960000Y-108594000I0J-250000D01*
G01*
X45960000Y-109519000D01*
G75*
G02*
X45710000Y-109769000I-250000J0D01*
G01*
X44460000Y-109769000D01*
G75*
G02*
X44210000Y-109519000I0J250000D01*
G01*
X44210000Y-108594000D01*
G75*
G02*
X44460000Y-108344000I250000J0D01*
G01*
G37*
G36*
G01*
X44460000Y-105369000D02*
X45710000Y-105369000D01*
G75*
G02*
X45960000Y-105619000I0J-250000D01*
G01*
X45960000Y-106544000D01*
G75*
G02*
X45710000Y-106794000I-250000J0D01*
G01*
X44460000Y-106794000D01*
G75*
G02*
X44210000Y-106544000I0J250000D01*
G01*
X44210000Y-105619000D01*
G75*
G02*
X44460000Y-105369000I250000J0D01*
G01*
G37*
G36*
G01*
X43698000Y-80277000D02*
X44948000Y-80277000D01*
G75*
G02*
X45198000Y-80527000I0J-250000D01*
G01*
X45198000Y-81452000D01*
G75*
G02*
X44948000Y-81702000I-250000J0D01*
G01*
X43698000Y-81702000D01*
G75*
G02*
X43448000Y-81452000I0J250000D01*
G01*
X43448000Y-80527000D01*
G75*
G02*
X43698000Y-80277000I250000J0D01*
G01*
G37*
G36*
G01*
X43698000Y-77302000D02*
X44948000Y-77302000D01*
G75*
G02*
X45198000Y-77552000I0J-250000D01*
G01*
X45198000Y-78477000D01*
G75*
G02*
X44948000Y-78727000I-250000J0D01*
G01*
X43698000Y-78727000D01*
G75*
G02*
X43448000Y-78477000I0J250000D01*
G01*
X43448000Y-77552000D01*
G75*
G02*
X43698000Y-77302000I250000J0D01*
G01*
G37*
D34*
X36449000Y-103632000D03*
X36449000Y-104902000D03*
X36449000Y-106172000D03*
X36449000Y-107442000D03*
X42449000Y-107442000D03*
X42449000Y-106172000D03*
X42449000Y-104902000D03*
X42449000Y-103632000D03*
G36*
G01*
X59553000Y-104508000D02*
X58303000Y-104508000D01*
G75*
G02*
X58053000Y-104258000I0J250000D01*
G01*
X58053000Y-103333000D01*
G75*
G02*
X58303000Y-103083000I250000J0D01*
G01*
X59553000Y-103083000D01*
G75*
G02*
X59803000Y-103333000I0J-250000D01*
G01*
X59803000Y-104258000D01*
G75*
G02*
X59553000Y-104508000I-250000J0D01*
G01*
G37*
G36*
G01*
X59553000Y-107483000D02*
X58303000Y-107483000D01*
G75*
G02*
X58053000Y-107233000I0J250000D01*
G01*
X58053000Y-106308000D01*
G75*
G02*
X58303000Y-106058000I250000J0D01*
G01*
X59553000Y-106058000D01*
G75*
G02*
X59803000Y-106308000I0J-250000D01*
G01*
X59803000Y-107233000D01*
G75*
G02*
X59553000Y-107483000I-250000J0D01*
G01*
G37*
G36*
G01*
X61839000Y-104508000D02*
X60589000Y-104508000D01*
G75*
G02*
X60339000Y-104258000I0J250000D01*
G01*
X60339000Y-103333000D01*
G75*
G02*
X60589000Y-103083000I250000J0D01*
G01*
X61839000Y-103083000D01*
G75*
G02*
X62089000Y-103333000I0J-250000D01*
G01*
X62089000Y-104258000D01*
G75*
G02*
X61839000Y-104508000I-250000J0D01*
G01*
G37*
G36*
G01*
X61839000Y-107483000D02*
X60589000Y-107483000D01*
G75*
G02*
X60339000Y-107233000I0J250000D01*
G01*
X60339000Y-106308000D01*
G75*
G02*
X60589000Y-106058000I250000J0D01*
G01*
X61839000Y-106058000D01*
G75*
G02*
X62089000Y-106308000I0J-250000D01*
G01*
X62089000Y-107233000D01*
G75*
G02*
X61839000Y-107483000I-250000J0D01*
G01*
G37*
G36*
G01*
X48504000Y-104127000D02*
X47254000Y-104127000D01*
G75*
G02*
X47004000Y-103877000I0J250000D01*
G01*
X47004000Y-102952000D01*
G75*
G02*
X47254000Y-102702000I250000J0D01*
G01*
X48504000Y-102702000D01*
G75*
G02*
X48754000Y-102952000I0J-250000D01*
G01*
X48754000Y-103877000D01*
G75*
G02*
X48504000Y-104127000I-250000J0D01*
G01*
G37*
G36*
G01*
X48504000Y-107102000D02*
X47254000Y-107102000D01*
G75*
G02*
X47004000Y-106852000I0J250000D01*
G01*
X47004000Y-105927000D01*
G75*
G02*
X47254000Y-105677000I250000J0D01*
G01*
X48504000Y-105677000D01*
G75*
G02*
X48754000Y-105927000I0J-250000D01*
G01*
X48754000Y-106852000D01*
G75*
G02*
X48504000Y-107102000I-250000J0D01*
G01*
G37*
D35*
X56642000Y-111760000D03*
X56642000Y-114300000D03*
D36*
X56642000Y-116840000D03*
D37*
X73302000Y-114300000D03*
D38*
X39497000Y-89153000D03*
D39*
X39497000Y-91728000D03*
D38*
X35179000Y-83312000D03*
D39*
X35179000Y-85887000D03*
D38*
X39497000Y-83312000D03*
D39*
X39497000Y-85887000D03*
D38*
X43815000Y-83312000D03*
D39*
X43815000Y-85887000D03*
D38*
X39497000Y-77089000D03*
D39*
X39497000Y-79664000D03*
G36*
G01*
X37074000Y-99301000D02*
X35824000Y-99301000D01*
G75*
G02*
X35574000Y-99051000I0J250000D01*
G01*
X35574000Y-98126000D01*
G75*
G02*
X35824000Y-97876000I250000J0D01*
G01*
X37074000Y-97876000D01*
G75*
G02*
X37324000Y-98126000I0J-250000D01*
G01*
X37324000Y-99051000D01*
G75*
G02*
X37074000Y-99301000I-250000J0D01*
G01*
G37*
G36*
G01*
X37074000Y-102276000D02*
X35824000Y-102276000D01*
G75*
G02*
X35574000Y-102026000I0J250000D01*
G01*
X35574000Y-101101000D01*
G75*
G02*
X35824000Y-100851000I250000J0D01*
G01*
X37074000Y-100851000D01*
G75*
G02*
X37324000Y-101101000I0J-250000D01*
G01*
X37324000Y-102026000D01*
G75*
G02*
X37074000Y-102276000I-250000J0D01*
G01*
G37*
G36*
G01*
X40373000Y-100721000D02*
X40373000Y-101971000D01*
G75*
G02*
X40123000Y-102221000I-250000J0D01*
G01*
X39198000Y-102221000D01*
G75*
G02*
X38948000Y-101971000I0J250000D01*
G01*
X38948000Y-100721000D01*
G75*
G02*
X39198000Y-100471000I250000J0D01*
G01*
X40123000Y-100471000D01*
G75*
G02*
X40373000Y-100721000I0J-250000D01*
G01*
G37*
G36*
G01*
X43348000Y-100721000D02*
X43348000Y-101971000D01*
G75*
G02*
X43098000Y-102221000I-250000J0D01*
G01*
X42173000Y-102221000D01*
G75*
G02*
X41923000Y-101971000I0J250000D01*
G01*
X41923000Y-100721000D01*
G75*
G02*
X42173000Y-100471000I250000J0D01*
G01*
X43098000Y-100471000D01*
G75*
G02*
X43348000Y-100721000I0J-250000D01*
G01*
G37*
D40*
X94398000Y-53989000D03*
X94398000Y-51449000D03*
X94398000Y-48909000D03*
X94398000Y-46369000D03*
X94398000Y-43829000D03*
X72898000Y-51689000D03*
X72898000Y-49149000D03*
X72898000Y-46609000D03*
X72898000Y-44069000D03*
X72898000Y-41529000D03*
X94398000Y-41289000D03*
X72898000Y-38989000D03*
D29*
X82677000Y-72390000D03*
X82677000Y-74930000D03*
X82677000Y-77470000D03*
X82677000Y-80010000D03*
X82677000Y-82550000D03*
X82677000Y-85090000D03*
D28*
X82677000Y-87630000D03*
D21*
X38862000Y-54864000D03*
X36322000Y-54864000D03*
X38862000Y-57404000D03*
X36322000Y-57404000D03*
X38862000Y-59944000D03*
D22*
X36322000Y-59944000D03*
D41*
X88873000Y-87660000D03*
X91373000Y-87660000D03*
X93873000Y-87660000D03*
X95123000Y-85660000D03*
X92623000Y-85660000D03*
X90123000Y-85660000D03*
X87623000Y-85660000D03*
X86373000Y-83660000D03*
X88873000Y-83660000D03*
X91373000Y-83660000D03*
X93873000Y-83660000D03*
X96373000Y-83660000D03*
X95123000Y-81660000D03*
X92623000Y-81660000D03*
X90123000Y-81660000D03*
X87623000Y-81660000D03*
X93873000Y-71660000D03*
X91373000Y-71660000D03*
X88873000Y-71660000D03*
X95123000Y-73660000D03*
X92623000Y-73660000D03*
X90123000Y-73660000D03*
X87623000Y-73660000D03*
X96373000Y-75660000D03*
X93873000Y-75660000D03*
X91373000Y-75660000D03*
X88873000Y-75660000D03*
X86373000Y-75660000D03*
X95123000Y-77660000D03*
X92623000Y-77660000D03*
X90123000Y-77660000D03*
X87623000Y-77660000D03*
X96373000Y-79660000D03*
X93873000Y-79660000D03*
X91373000Y-79660000D03*
X88873000Y-79660000D03*
X86373000Y-79660000D03*
D33*
X98425000Y-103451000D03*
X98425000Y-105951000D03*
X98425000Y-108451000D03*
X98425000Y-110951000D03*
X98425000Y-113451000D03*
G36*
G01*
X99150000Y-116801000D02*
X97700000Y-116801000D01*
G75*
G02*
X97450000Y-116551000I0J250000D01*
G01*
X97450000Y-115351000D01*
G75*
G02*
X97700000Y-115101000I250000J0D01*
G01*
X99150000Y-115101000D01*
G75*
G02*
X99400000Y-115351000I0J-250000D01*
G01*
X99400000Y-116551000D01*
G75*
G02*
X99150000Y-116801000I-250000J0D01*
G01*
G37*
D24*
X79629000Y-76200000D03*
X79629000Y-78740000D03*
X79629000Y-81280000D03*
X79629000Y-83820000D03*
X79629000Y-86360000D03*
X79629000Y-88900000D03*
X79629000Y-91440000D03*
X79629000Y-93980000D03*
X79629000Y-96520000D03*
X79629000Y-99060000D03*
X79629000Y-101600000D03*
X79629000Y-104140000D03*
X79629000Y-106680000D03*
X79629000Y-109220000D03*
X79629000Y-111760000D03*
X79629000Y-114300000D03*
X79629000Y-116840000D03*
X79629000Y-119380000D03*
X79629000Y-121920000D03*
X54229000Y-121920000D03*
X54229000Y-119380000D03*
X54229000Y-116840000D03*
X54229000Y-114300000D03*
X54229000Y-111760000D03*
X54229000Y-109220000D03*
X54229000Y-106680000D03*
X54229000Y-104140000D03*
X54229000Y-101600000D03*
X54229000Y-99060000D03*
X54229000Y-96520000D03*
X54229000Y-93980000D03*
X54229000Y-91440000D03*
X54229000Y-88900000D03*
X54229000Y-86360000D03*
X54229000Y-83820000D03*
X54229000Y-81280000D03*
X54229000Y-78740000D03*
X54229000Y-76200000D03*
D42*
X77175000Y-32700000D03*
X82825000Y-32700000D03*
G36*
G01*
X58176000Y-94628000D02*
X59426000Y-94628000D01*
G75*
G02*
X59676000Y-94878000I0J-250000D01*
G01*
X59676000Y-95803000D01*
G75*
G02*
X59426000Y-96053000I-250000J0D01*
G01*
X58176000Y-96053000D01*
G75*
G02*
X57926000Y-95803000I0J250000D01*
G01*
X57926000Y-94878000D01*
G75*
G02*
X58176000Y-94628000I250000J0D01*
G01*
G37*
G36*
G01*
X58176000Y-91653000D02*
X59426000Y-91653000D01*
G75*
G02*
X59676000Y-91903000I0J-250000D01*
G01*
X59676000Y-92828000D01*
G75*
G02*
X59426000Y-93078000I-250000J0D01*
G01*
X58176000Y-93078000D01*
G75*
G02*
X57926000Y-92828000I0J250000D01*
G01*
X57926000Y-91903000D01*
G75*
G02*
X58176000Y-91653000I250000J0D01*
G01*
G37*
D21*
X112649000Y-42545000D03*
X112649000Y-40005000D03*
X112649000Y-37465000D03*
D22*
X112649000Y-34925000D03*
D43*
X109220000Y-42545000D03*
X109220000Y-40005000D03*
X109220000Y-37465000D03*
X109220000Y-34925000D03*
X50800000Y-42545000D03*
X50800000Y-40005000D03*
X50800000Y-37465000D03*
X50800000Y-34925000D03*
G36*
G01*
X61458000Y-99428000D02*
X60208000Y-99428000D01*
G75*
G02*
X59958000Y-99178000I0J250000D01*
G01*
X59958000Y-98253000D01*
G75*
G02*
X60208000Y-98003000I250000J0D01*
G01*
X61458000Y-98003000D01*
G75*
G02*
X61708000Y-98253000I0J-250000D01*
G01*
X61708000Y-99178000D01*
G75*
G02*
X61458000Y-99428000I-250000J0D01*
G01*
G37*
G36*
G01*
X61458000Y-102403000D02*
X60208000Y-102403000D01*
G75*
G02*
X59958000Y-102153000I0J250000D01*
G01*
X59958000Y-101228000D01*
G75*
G02*
X60208000Y-100978000I250000J0D01*
G01*
X61458000Y-100978000D01*
G75*
G02*
X61708000Y-101228000I0J-250000D01*
G01*
X61708000Y-102153000D01*
G75*
G02*
X61458000Y-102403000I-250000J0D01*
G01*
G37*
D25*
X103185000Y-72819000D03*
X102235000Y-75819000D03*
X104135000Y-75819000D03*
D44*
X103251000Y-69429000D03*
X103251000Y-64429000D03*
G36*
G01*
X116449000Y-63487000D02*
X115199000Y-63487000D01*
G75*
G02*
X114949000Y-63237000I0J250000D01*
G01*
X114949000Y-62312000D01*
G75*
G02*
X115199000Y-62062000I250000J0D01*
G01*
X116449000Y-62062000D01*
G75*
G02*
X116699000Y-62312000I0J-250000D01*
G01*
X116699000Y-63237000D01*
G75*
G02*
X116449000Y-63487000I-250000J0D01*
G01*
G37*
G36*
G01*
X116449000Y-66462000D02*
X115199000Y-66462000D01*
G75*
G02*
X114949000Y-66212000I0J250000D01*
G01*
X114949000Y-65287000D01*
G75*
G02*
X115199000Y-65037000I250000J0D01*
G01*
X116449000Y-65037000D01*
G75*
G02*
X116699000Y-65287000I0J-250000D01*
G01*
X116699000Y-66212000D01*
G75*
G02*
X116449000Y-66462000I-250000J0D01*
G01*
G37*
G36*
G01*
X119012000Y-61204000D02*
X119012000Y-59954000D01*
G75*
G02*
X119262000Y-59704000I250000J0D01*
G01*
X120187000Y-59704000D01*
G75*
G02*
X120437000Y-59954000I0J-250000D01*
G01*
X120437000Y-61204000D01*
G75*
G02*
X120187000Y-61454000I-250000J0D01*
G01*
X119262000Y-61454000D01*
G75*
G02*
X119012000Y-61204000I0J250000D01*
G01*
G37*
G36*
G01*
X116037000Y-61204000D02*
X116037000Y-59954000D01*
G75*
G02*
X116287000Y-59704000I250000J0D01*
G01*
X117212000Y-59704000D01*
G75*
G02*
X117462000Y-59954000I0J-250000D01*
G01*
X117462000Y-61204000D01*
G75*
G02*
X117212000Y-61454000I-250000J0D01*
G01*
X116287000Y-61454000D01*
G75*
G02*
X116037000Y-61204000I0J250000D01*
G01*
G37*
G36*
G01*
X40122000Y-122669000D02*
X38872000Y-122669000D01*
G75*
G02*
X38622000Y-122419000I0J250000D01*
G01*
X38622000Y-121494000D01*
G75*
G02*
X38872000Y-121244000I250000J0D01*
G01*
X40122000Y-121244000D01*
G75*
G02*
X40372000Y-121494000I0J-250000D01*
G01*
X40372000Y-122419000D01*
G75*
G02*
X40122000Y-122669000I-250000J0D01*
G01*
G37*
G36*
G01*
X40122000Y-125644000D02*
X38872000Y-125644000D01*
G75*
G02*
X38622000Y-125394000I0J250000D01*
G01*
X38622000Y-124469000D01*
G75*
G02*
X38872000Y-124219000I250000J0D01*
G01*
X40122000Y-124219000D01*
G75*
G02*
X40372000Y-124469000I0J-250000D01*
G01*
X40372000Y-125394000D01*
G75*
G02*
X40122000Y-125644000I-250000J0D01*
G01*
G37*
G36*
G01*
X57267000Y-104508000D02*
X56017000Y-104508000D01*
G75*
G02*
X55767000Y-104258000I0J250000D01*
G01*
X55767000Y-103333000D01*
G75*
G02*
X56017000Y-103083000I250000J0D01*
G01*
X57267000Y-103083000D01*
G75*
G02*
X57517000Y-103333000I0J-250000D01*
G01*
X57517000Y-104258000D01*
G75*
G02*
X57267000Y-104508000I-250000J0D01*
G01*
G37*
G36*
G01*
X57267000Y-107483000D02*
X56017000Y-107483000D01*
G75*
G02*
X55767000Y-107233000I0J250000D01*
G01*
X55767000Y-106308000D01*
G75*
G02*
X56017000Y-106058000I250000J0D01*
G01*
X57267000Y-106058000D01*
G75*
G02*
X57517000Y-106308000I0J-250000D01*
G01*
X57517000Y-107233000D01*
G75*
G02*
X57267000Y-107483000I-250000J0D01*
G01*
G37*
G36*
G01*
X106289000Y-100825000D02*
X105039000Y-100825000D01*
G75*
G02*
X104789000Y-100575000I0J250000D01*
G01*
X104789000Y-99650000D01*
G75*
G02*
X105039000Y-99400000I250000J0D01*
G01*
X106289000Y-99400000D01*
G75*
G02*
X106539000Y-99650000I0J-250000D01*
G01*
X106539000Y-100575000D01*
G75*
G02*
X106289000Y-100825000I-250000J0D01*
G01*
G37*
G36*
G01*
X106289000Y-103800000D02*
X105039000Y-103800000D01*
G75*
G02*
X104789000Y-103550000I0J250000D01*
G01*
X104789000Y-102625000D01*
G75*
G02*
X105039000Y-102375000I250000J0D01*
G01*
X106289000Y-102375000D01*
G75*
G02*
X106539000Y-102625000I0J-250000D01*
G01*
X106539000Y-103550000D01*
G75*
G02*
X106289000Y-103800000I-250000J0D01*
G01*
G37*
G36*
G01*
X118354000Y-100825000D02*
X117104000Y-100825000D01*
G75*
G02*
X116854000Y-100575000I0J250000D01*
G01*
X116854000Y-99650000D01*
G75*
G02*
X117104000Y-99400000I250000J0D01*
G01*
X118354000Y-99400000D01*
G75*
G02*
X118604000Y-99650000I0J-250000D01*
G01*
X118604000Y-100575000D01*
G75*
G02*
X118354000Y-100825000I-250000J0D01*
G01*
G37*
G36*
G01*
X118354000Y-103800000D02*
X117104000Y-103800000D01*
G75*
G02*
X116854000Y-103550000I0J250000D01*
G01*
X116854000Y-102625000D01*
G75*
G02*
X117104000Y-102375000I250000J0D01*
G01*
X118354000Y-102375000D01*
G75*
G02*
X118604000Y-102625000I0J-250000D01*
G01*
X118604000Y-103550000D01*
G75*
G02*
X118354000Y-103800000I-250000J0D01*
G01*
G37*
G36*
G01*
X103173500Y-78984000D02*
X103173500Y-77734000D01*
G75*
G02*
X103423500Y-77484000I250000J0D01*
G01*
X104348500Y-77484000D01*
G75*
G02*
X104598500Y-77734000I0J-250000D01*
G01*
X104598500Y-78984000D01*
G75*
G02*
X104348500Y-79234000I-250000J0D01*
G01*
X103423500Y-79234000D01*
G75*
G02*
X103173500Y-78984000I0J250000D01*
G01*
G37*
G36*
G01*
X100198500Y-78984000D02*
X100198500Y-77734000D01*
G75*
G02*
X100448500Y-77484000I250000J0D01*
G01*
X101373500Y-77484000D01*
G75*
G02*
X101623500Y-77734000I0J-250000D01*
G01*
X101623500Y-78984000D01*
G75*
G02*
X101373500Y-79234000I-250000J0D01*
G01*
X100448500Y-79234000D01*
G75*
G02*
X100198500Y-78984000I0J250000D01*
G01*
G37*
G36*
G01*
X57140000Y-88088500D02*
X55890000Y-88088500D01*
G75*
G02*
X55640000Y-87838500I0J250000D01*
G01*
X55640000Y-86913500D01*
G75*
G02*
X55890000Y-86663500I250000J0D01*
G01*
X57140000Y-86663500D01*
G75*
G02*
X57390000Y-86913500I0J-250000D01*
G01*
X57390000Y-87838500D01*
G75*
G02*
X57140000Y-88088500I-250000J0D01*
G01*
G37*
G36*
G01*
X57140000Y-91063500D02*
X55890000Y-91063500D01*
G75*
G02*
X55640000Y-90813500I0J250000D01*
G01*
X55640000Y-89888500D01*
G75*
G02*
X55890000Y-89638500I250000J0D01*
G01*
X57140000Y-89638500D01*
G75*
G02*
X57390000Y-89888500I0J-250000D01*
G01*
X57390000Y-90813500D01*
G75*
G02*
X57140000Y-91063500I-250000J0D01*
G01*
G37*
G36*
G01*
X48628000Y-99832000D02*
X48628000Y-101082000D01*
G75*
G02*
X48378000Y-101332000I-250000J0D01*
G01*
X47453000Y-101332000D01*
G75*
G02*
X47203000Y-101082000I0J250000D01*
G01*
X47203000Y-99832000D01*
G75*
G02*
X47453000Y-99582000I250000J0D01*
G01*
X48378000Y-99582000D01*
G75*
G02*
X48628000Y-99832000I0J-250000D01*
G01*
G37*
G36*
G01*
X51603000Y-99832000D02*
X51603000Y-101082000D01*
G75*
G02*
X51353000Y-101332000I-250000J0D01*
G01*
X50428000Y-101332000D01*
G75*
G02*
X50178000Y-101082000I0J250000D01*
G01*
X50178000Y-99832000D01*
G75*
G02*
X50428000Y-99582000I250000J0D01*
G01*
X51353000Y-99582000D01*
G75*
G02*
X51603000Y-99832000I0J-250000D01*
G01*
G37*
G36*
G01*
X55890000Y-94628000D02*
X57140000Y-94628000D01*
G75*
G02*
X57390000Y-94878000I0J-250000D01*
G01*
X57390000Y-95803000D01*
G75*
G02*
X57140000Y-96053000I-250000J0D01*
G01*
X55890000Y-96053000D01*
G75*
G02*
X55640000Y-95803000I0J250000D01*
G01*
X55640000Y-94878000D01*
G75*
G02*
X55890000Y-94628000I250000J0D01*
G01*
G37*
G36*
G01*
X55890000Y-91653000D02*
X57140000Y-91653000D01*
G75*
G02*
X57390000Y-91903000I0J-250000D01*
G01*
X57390000Y-92828000D01*
G75*
G02*
X57140000Y-93078000I-250000J0D01*
G01*
X55890000Y-93078000D01*
G75*
G02*
X55640000Y-92828000I0J250000D01*
G01*
X55640000Y-91903000D01*
G75*
G02*
X55890000Y-91653000I250000J0D01*
G01*
G37*
G36*
G01*
X57140000Y-82954500D02*
X55890000Y-82954500D01*
G75*
G02*
X55640000Y-82704500I0J250000D01*
G01*
X55640000Y-81779500D01*
G75*
G02*
X55890000Y-81529500I250000J0D01*
G01*
X57140000Y-81529500D01*
G75*
G02*
X57390000Y-81779500I0J-250000D01*
G01*
X57390000Y-82704500D01*
G75*
G02*
X57140000Y-82954500I-250000J0D01*
G01*
G37*
G36*
G01*
X57140000Y-85929500D02*
X55890000Y-85929500D01*
G75*
G02*
X55640000Y-85679500I0J250000D01*
G01*
X55640000Y-84754500D01*
G75*
G02*
X55890000Y-84504500I250000J0D01*
G01*
X57140000Y-84504500D01*
G75*
G02*
X57390000Y-84754500I0J-250000D01*
G01*
X57390000Y-85679500D01*
G75*
G02*
X57140000Y-85929500I-250000J0D01*
G01*
G37*
D29*
X82540000Y-61722000D03*
G36*
G01*
X76560000Y-62172000D02*
X76560000Y-61272000D01*
G75*
G02*
X77010000Y-60822000I450000J0D01*
G01*
X77910000Y-60822000D01*
G75*
G02*
X78360000Y-61272000I0J-450000D01*
G01*
X78360000Y-62172000D01*
G75*
G02*
X77910000Y-62622000I-450000J0D01*
G01*
X77010000Y-62622000D01*
G75*
G02*
X76560000Y-62172000I0J450000D01*
G01*
G37*
X80000000Y-61722000D03*
D45*
X85141000Y-64548000D03*
D46*
X96741000Y-66548000D03*
X94241000Y-66548000D03*
X91741000Y-66548000D03*
X89241000Y-66548000D03*
G36*
G01*
X85891000Y-67273000D02*
X85891000Y-65823000D01*
G75*
G02*
X86141000Y-65573000I250000J0D01*
G01*
X87341000Y-65573000D01*
G75*
G02*
X87591000Y-65823000I0J-250000D01*
G01*
X87591000Y-67273000D01*
G75*
G02*
X87341000Y-67523000I-250000J0D01*
G01*
X86141000Y-67523000D01*
G75*
G02*
X85891000Y-67273000I0J250000D01*
G01*
G37*
D47*
X83058000Y-110490000D03*
X83058000Y-113030000D03*
X83058000Y-115570000D03*
G36*
G01*
X81958000Y-118560000D02*
X81958000Y-117660000D01*
G75*
G02*
X82408000Y-117210000I450000J0D01*
G01*
X83708000Y-117210000D01*
G75*
G02*
X84158000Y-117660000I0J-450000D01*
G01*
X84158000Y-118560000D01*
G75*
G02*
X83708000Y-119010000I-450000J0D01*
G01*
X82408000Y-119010000D01*
G75*
G02*
X81958000Y-118560000I0J450000D01*
G01*
G37*
D29*
X86360000Y-112141000D03*
X88900000Y-112141000D03*
X91440000Y-112141000D03*
X91440000Y-119761000D03*
X88900000Y-119761000D03*
D28*
X86360000Y-119761000D03*
D46*
X36235000Y-74803000D03*
X38735000Y-74803000D03*
X41235000Y-74803000D03*
G36*
G01*
X44585000Y-74078000D02*
X44585000Y-75528000D01*
G75*
G02*
X44335000Y-75778000I-250000J0D01*
G01*
X43135000Y-75778000D01*
G75*
G02*
X42885000Y-75528000I0J250000D01*
G01*
X42885000Y-74078000D01*
G75*
G02*
X43135000Y-73828000I250000J0D01*
G01*
X44335000Y-73828000D01*
G75*
G02*
X44585000Y-74078000I0J-250000D01*
G01*
G37*
D48*
X42037000Y-94996000D03*
D29*
X39537000Y-94996000D03*
X37037000Y-94996000D03*
D49*
X45137000Y-102496000D03*
X33937000Y-102496000D03*
D41*
X42037000Y-109496000D03*
X37037000Y-109496000D03*
D24*
X82540000Y-59563000D03*
X80000000Y-59563000D03*
X77460000Y-59563000D03*
D26*
X45466000Y-64008000D03*
X45466000Y-66548000D03*
D27*
X45466000Y-69088000D03*
D21*
X49911000Y-64008000D03*
X49911000Y-66548000D03*
D22*
X49911000Y-69088000D03*
D35*
X116078000Y-47371000D03*
X116078000Y-49911000D03*
D36*
X116078000Y-52451000D03*
D37*
X99418000Y-49911000D03*
D21*
X91059000Y-124587000D03*
X88519000Y-124587000D03*
X85979000Y-124587000D03*
D22*
X83439000Y-124587000D03*
D21*
X124206000Y-120904000D03*
X121666000Y-120904000D03*
X124206000Y-118364000D03*
X121666000Y-118364000D03*
X124206000Y-115824000D03*
X121666000Y-115824000D03*
X124206000Y-113284000D03*
X121666000Y-113284000D03*
X124206000Y-110744000D03*
X121666000Y-110744000D03*
X124206000Y-108204000D03*
X121666000Y-108204000D03*
X124206000Y-105664000D03*
X121666000Y-105664000D03*
X124206000Y-103124000D03*
X121666000Y-103124000D03*
X124206000Y-100584000D03*
X121666000Y-100584000D03*
X124206000Y-98044000D03*
X121666000Y-98044000D03*
X124206000Y-95504000D03*
X121666000Y-95504000D03*
X124206000Y-92964000D03*
X121666000Y-92964000D03*
X124206000Y-90424000D03*
X121666000Y-90424000D03*
X124206000Y-87884000D03*
X121666000Y-87884000D03*
X124206000Y-85344000D03*
X121666000Y-85344000D03*
X124206000Y-82804000D03*
X121666000Y-82804000D03*
X124206000Y-80264000D03*
X121666000Y-80264000D03*
X124206000Y-77724000D03*
X121666000Y-77724000D03*
X124206000Y-75184000D03*
X121666000Y-75184000D03*
X124206000Y-72644000D03*
X121666000Y-72644000D03*
X124206000Y-70104000D03*
X121666000Y-70104000D03*
X124206000Y-67564000D03*
X121666000Y-67564000D03*
X124206000Y-65024000D03*
X121666000Y-65024000D03*
X124206000Y-62484000D03*
X121666000Y-62484000D03*
X124206000Y-59944000D03*
D22*
X121666000Y-59944000D03*
D50*
X108077000Y-74168000D03*
X118237000Y-74168000D03*
X113157000Y-74168000D03*
X108077000Y-81788000D03*
X118237000Y-81788000D03*
X113157000Y-81788000D03*
X100457000Y-74168000D03*
D51*
X100457000Y-81788000D03*
D52*
X117983000Y-117936000D03*
X117983000Y-122936000D03*
X105483000Y-117936000D03*
X105483000Y-122936000D03*
D53*
X119700000Y-50500000D03*
X40300000Y-50500000D03*
D54*
X58000000Y-40500000D03*
X102000000Y-40500000D03*
D52*
X117983000Y-105363000D03*
X117983000Y-110363000D03*
X105483000Y-105363000D03*
X105483000Y-110363000D03*
D55*
X37000000Y-112500000D03*
X42000000Y-112500000D03*
X37000000Y-125000000D03*
X42000000Y-125000000D03*
X37000000Y-79502000D03*
X42000000Y-79502000D03*
X37000000Y-92002000D03*
X42000000Y-92002000D03*
D47*
X45500000Y-54310000D03*
X45500000Y-51770000D03*
X45500000Y-49230000D03*
D56*
X45500000Y-46690000D03*
G36*
G01*
X38969000Y-43421000D02*
X38969000Y-41671000D01*
G75*
G02*
X39844000Y-40796000I875000J0D01*
G01*
X41594000Y-40796000D01*
G75*
G02*
X42469000Y-41671000I0J-875000D01*
G01*
X42469000Y-43421000D01*
G75*
G02*
X41594000Y-44296000I-875000J0D01*
G01*
X39844000Y-44296000D01*
G75*
G02*
X38969000Y-43421000I0J875000D01*
G01*
G37*
G36*
G01*
X36219000Y-38846000D02*
X36219000Y-36846000D01*
G75*
G02*
X36969000Y-36096000I750000J0D01*
G01*
X38469000Y-36096000D01*
G75*
G02*
X39219000Y-36846000I0J-750000D01*
G01*
X39219000Y-38846000D01*
G75*
G02*
X38469000Y-39596000I-750000J0D01*
G01*
X36969000Y-39596000D01*
G75*
G02*
X36219000Y-38846000I0J750000D01*
G01*
G37*
D57*
X43719000Y-37846000D03*
D50*
X108077000Y-63500000D03*
X118237000Y-63500000D03*
X113157000Y-63500000D03*
X108077000Y-71120000D03*
X118237000Y-71120000D03*
X113157000Y-71120000D03*
X100457000Y-63500000D03*
D51*
X100457000Y-71120000D03*
D21*
X65024000Y-63881000D03*
D22*
X65024000Y-66421000D03*
D50*
X108077000Y-84836000D03*
X118237000Y-84836000D03*
X113157000Y-84836000D03*
X108077000Y-92456000D03*
X118237000Y-92456000D03*
X113157000Y-92456000D03*
X100457000Y-84836000D03*
D51*
X100457000Y-92456000D03*
D29*
X105537000Y-98171000D03*
D28*
X108077000Y-98171000D03*
D29*
X117729000Y-98171000D03*
D28*
X115189000Y-98171000D03*
M02*
