G04 #@! TF.GenerationSoftware,KiCad,Pcbnew,(5.1.8)-1*
G04 #@! TF.CreationDate,2021-08-06T23:14:03+02:00*
G04 #@! TF.ProjectId,labAThome,6c616241-5468-46f6-9d65-2e6b69636164,rev?*
G04 #@! TF.SameCoordinates,Original*
G04 #@! TF.FileFunction,Paste,Top*
G04 #@! TF.FilePolarity,Positive*
%FSLAX46Y46*%
G04 Gerber Fmt 4.6, Leading zero omitted, Abs format (unit mm)*
G04 Created by KiCad (PCBNEW (5.1.8)-1) date 2021-08-06 23:14:03*
%MOMM*%
%LPD*%
G01*
G04 APERTURE LIST*
%ADD10R,2.200000X0.600000*%
%ADD11R,4.000000X4.000000*%
%ADD12R,2.301240X3.000000*%
%ADD13R,1.900000X0.800000*%
%ADD14R,3.500000X1.800000*%
%ADD15R,1.270000X3.600000*%
%ADD16R,1.350000X4.200000*%
%ADD17R,1.800000X3.500000*%
%ADD18R,2.500000X1.000000*%
G04 APERTURE END LIST*
G36*
G01*
X118660400Y-38166000D02*
X117559600Y-38166000D01*
G75*
G02*
X117310000Y-37916400I0J249600D01*
G01*
X117310000Y-34315600D01*
G75*
G02*
X117559600Y-34066000I249600J0D01*
G01*
X118660400Y-34066000D01*
G75*
G02*
X118910000Y-34315600I0J-249600D01*
G01*
X118910000Y-37916400D01*
G75*
G02*
X118660400Y-38166000I-249600J0D01*
G01*
G37*
G36*
G01*
X118660400Y-44166000D02*
X117559600Y-44166000D01*
G75*
G02*
X117310000Y-43916400I0J249600D01*
G01*
X117310000Y-40315600D01*
G75*
G02*
X117559600Y-40066000I249600J0D01*
G01*
X118660400Y-40066000D01*
G75*
G02*
X118910000Y-40315600I0J-249600D01*
G01*
X118910000Y-43916400D01*
G75*
G02*
X118660400Y-44166000I-249600J0D01*
G01*
G37*
G36*
G01*
X64019000Y-51958003D02*
X64019000Y-50657997D01*
G75*
G02*
X64268997Y-50408000I249997J0D01*
G01*
X65094003Y-50408000D01*
G75*
G02*
X65344000Y-50657997I0J-249997D01*
G01*
X65344000Y-51958003D01*
G75*
G02*
X65094003Y-52208000I-249997J0D01*
G01*
X64268997Y-52208000D01*
G75*
G02*
X64019000Y-51958003I0J249997D01*
G01*
G37*
G36*
G01*
X60894000Y-51958003D02*
X60894000Y-50657997D01*
G75*
G02*
X61143997Y-50408000I249997J0D01*
G01*
X61969003Y-50408000D01*
G75*
G02*
X62219000Y-50657997I0J-249997D01*
G01*
X62219000Y-51958003D01*
G75*
G02*
X61969003Y-52208000I-249997J0D01*
G01*
X61143997Y-52208000D01*
G75*
G02*
X60894000Y-51958003I0J249997D01*
G01*
G37*
G36*
G01*
X69861000Y-60594003D02*
X69861000Y-59293997D01*
G75*
G02*
X70110997Y-59044000I249997J0D01*
G01*
X70936003Y-59044000D01*
G75*
G02*
X71186000Y-59293997I0J-249997D01*
G01*
X71186000Y-60594003D01*
G75*
G02*
X70936003Y-60844000I-249997J0D01*
G01*
X70110997Y-60844000D01*
G75*
G02*
X69861000Y-60594003I0J249997D01*
G01*
G37*
G36*
G01*
X66736000Y-60594003D02*
X66736000Y-59293997D01*
G75*
G02*
X66985997Y-59044000I249997J0D01*
G01*
X67811003Y-59044000D01*
G75*
G02*
X68061000Y-59293997I0J-249997D01*
G01*
X68061000Y-60594003D01*
G75*
G02*
X67811003Y-60844000I-249997J0D01*
G01*
X66985997Y-60844000D01*
G75*
G02*
X66736000Y-60594003I0J249997D01*
G01*
G37*
G36*
G01*
X56377000Y-50657997D02*
X56377000Y-51958003D01*
G75*
G02*
X56127003Y-52208000I-249997J0D01*
G01*
X55301997Y-52208000D01*
G75*
G02*
X55052000Y-51958003I0J249997D01*
G01*
X55052000Y-50657997D01*
G75*
G02*
X55301997Y-50408000I249997J0D01*
G01*
X56127003Y-50408000D01*
G75*
G02*
X56377000Y-50657997I0J-249997D01*
G01*
G37*
G36*
G01*
X59502000Y-50657997D02*
X59502000Y-51958003D01*
G75*
G02*
X59252003Y-52208000I-249997J0D01*
G01*
X58426997Y-52208000D01*
G75*
G02*
X58177000Y-51958003I0J249997D01*
G01*
X58177000Y-50657997D01*
G75*
G02*
X58426997Y-50408000I249997J0D01*
G01*
X59252003Y-50408000D01*
G75*
G02*
X59502000Y-50657997I0J-249997D01*
G01*
G37*
G36*
G01*
X48910003Y-45493500D02*
X47609997Y-45493500D01*
G75*
G02*
X47360000Y-45243503I0J249997D01*
G01*
X47360000Y-44418497D01*
G75*
G02*
X47609997Y-44168500I249997J0D01*
G01*
X48910003Y-44168500D01*
G75*
G02*
X49160000Y-44418497I0J-249997D01*
G01*
X49160000Y-45243503D01*
G75*
G02*
X48910003Y-45493500I-249997J0D01*
G01*
G37*
G36*
G01*
X48910003Y-48618500D02*
X47609997Y-48618500D01*
G75*
G02*
X47360000Y-48368503I0J249997D01*
G01*
X47360000Y-47543497D01*
G75*
G02*
X47609997Y-47293500I249997J0D01*
G01*
X48910003Y-47293500D01*
G75*
G02*
X49160000Y-47543497I0J-249997D01*
G01*
X49160000Y-48368503D01*
G75*
G02*
X48910003Y-48618500I-249997J0D01*
G01*
G37*
D10*
X54658000Y-49149000D03*
X54658000Y-47879000D03*
X54658000Y-46609000D03*
X54658000Y-45339000D03*
X60658000Y-45339000D03*
X60658000Y-46609000D03*
X60658000Y-47879000D03*
X60658000Y-49149000D03*
G36*
G01*
X64860000Y-37474999D02*
X64860000Y-38725001D01*
G75*
G02*
X64610001Y-38975000I-249999J0D01*
G01*
X63809999Y-38975000D01*
G75*
G02*
X63560000Y-38725001I0J249999D01*
G01*
X63560000Y-37474999D01*
G75*
G02*
X63809999Y-37225000I249999J0D01*
G01*
X64610001Y-37225000D01*
G75*
G02*
X64860000Y-37474999I0J-249999D01*
G01*
G37*
G36*
G01*
X67960000Y-37474999D02*
X67960000Y-38725001D01*
G75*
G02*
X67710001Y-38975000I-249999J0D01*
G01*
X66909999Y-38975000D01*
G75*
G02*
X66660000Y-38725001I0J249999D01*
G01*
X66660000Y-37474999D01*
G75*
G02*
X66909999Y-37225000I249999J0D01*
G01*
X67710001Y-37225000D01*
G75*
G02*
X67960000Y-37474999I0J-249999D01*
G01*
G37*
G36*
G01*
X62493999Y-47763000D02*
X63744001Y-47763000D01*
G75*
G02*
X63994000Y-48012999I0J-249999D01*
G01*
X63994000Y-48813001D01*
G75*
G02*
X63744001Y-49063000I-249999J0D01*
G01*
X62493999Y-49063000D01*
G75*
G02*
X62244000Y-48813001I0J249999D01*
G01*
X62244000Y-48012999D01*
G75*
G02*
X62493999Y-47763000I249999J0D01*
G01*
G37*
G36*
G01*
X62493999Y-44663000D02*
X63744001Y-44663000D01*
G75*
G02*
X63994000Y-44912999I0J-249999D01*
G01*
X63994000Y-45713001D01*
G75*
G02*
X63744001Y-45963000I-249999J0D01*
G01*
X62493999Y-45963000D01*
G75*
G02*
X62244000Y-45713001I0J249999D01*
G01*
X62244000Y-44912999D01*
G75*
G02*
X62493999Y-44663000I249999J0D01*
G01*
G37*
D11*
X53928000Y-57658000D03*
X63928000Y-57658000D03*
D12*
X51435000Y-45760000D03*
X51435000Y-50760000D03*
D13*
X40156000Y-64008000D03*
X43156000Y-63058000D03*
X43156000Y-64958000D03*
X43029000Y-69088000D03*
X40029000Y-70038000D03*
X40029000Y-68138000D03*
D14*
X41823000Y-60071000D03*
X46823000Y-60071000D03*
G36*
G01*
X65688999Y-46525000D02*
X69439001Y-46525000D01*
G75*
G02*
X69689000Y-46774999I0J-249999D01*
G01*
X69689000Y-48525001D01*
G75*
G02*
X69439001Y-48775000I-249999J0D01*
G01*
X65688999Y-48775000D01*
G75*
G02*
X65439000Y-48525001I0J249999D01*
G01*
X65439000Y-46774999D01*
G75*
G02*
X65688999Y-46525000I249999J0D01*
G01*
G37*
G36*
G01*
X65688999Y-40125000D02*
X69439001Y-40125000D01*
G75*
G02*
X69689000Y-40374999I0J-249999D01*
G01*
X69689000Y-42125001D01*
G75*
G02*
X69439001Y-42375000I-249999J0D01*
G01*
X65688999Y-42375000D01*
G75*
G02*
X65439000Y-42125001I0J249999D01*
G01*
X65439000Y-40374999D01*
G75*
G02*
X65688999Y-40125000I249999J0D01*
G01*
G37*
G36*
G01*
X123688000Y-38722000D02*
X122438000Y-38722000D01*
G75*
G02*
X122188000Y-38472000I0J250000D01*
G01*
X122188000Y-37547000D01*
G75*
G02*
X122438000Y-37297000I250000J0D01*
G01*
X123688000Y-37297000D01*
G75*
G02*
X123938000Y-37547000I0J-250000D01*
G01*
X123938000Y-38472000D01*
G75*
G02*
X123688000Y-38722000I-250000J0D01*
G01*
G37*
G36*
G01*
X123688000Y-41697000D02*
X122438000Y-41697000D01*
G75*
G02*
X122188000Y-41447000I0J250000D01*
G01*
X122188000Y-40522000D01*
G75*
G02*
X122438000Y-40272000I250000J0D01*
G01*
X123688000Y-40272000D01*
G75*
G02*
X123938000Y-40522000I0J-250000D01*
G01*
X123938000Y-41447000D01*
G75*
G02*
X123688000Y-41697000I-250000J0D01*
G01*
G37*
D15*
X80000000Y-32500000D03*
D16*
X77175000Y-32700000D03*
X82825000Y-32700000D03*
G36*
G01*
X78217000Y-63455999D02*
X78217000Y-64306001D01*
G75*
G02*
X77967001Y-64556000I-249999J0D01*
G01*
X76891999Y-64556000D01*
G75*
G02*
X76642000Y-64306001I0J249999D01*
G01*
X76642000Y-63455999D01*
G75*
G02*
X76891999Y-63206000I249999J0D01*
G01*
X77967001Y-63206000D01*
G75*
G02*
X78217000Y-63455999I0J-249999D01*
G01*
G37*
G36*
G01*
X81092000Y-63455999D02*
X81092000Y-64306001D01*
G75*
G02*
X80842001Y-64556000I-249999J0D01*
G01*
X79766999Y-64556000D01*
G75*
G02*
X79517000Y-64306001I0J249999D01*
G01*
X79517000Y-63455999D01*
G75*
G02*
X79766999Y-63206000I249999J0D01*
G01*
X80842001Y-63206000D01*
G75*
G02*
X81092000Y-63455999I0J-249999D01*
G01*
G37*
D17*
X69088000Y-56435000D03*
X69088000Y-51435000D03*
G36*
G01*
X124066000Y-53477000D02*
X124066000Y-54727000D01*
G75*
G02*
X123816000Y-54977000I-250000J0D01*
G01*
X122891000Y-54977000D01*
G75*
G02*
X122641000Y-54727000I0J250000D01*
G01*
X122641000Y-53477000D01*
G75*
G02*
X122891000Y-53227000I250000J0D01*
G01*
X123816000Y-53227000D01*
G75*
G02*
X124066000Y-53477000I0J-250000D01*
G01*
G37*
G36*
G01*
X127041000Y-53477000D02*
X127041000Y-54727000D01*
G75*
G02*
X126791000Y-54977000I-250000J0D01*
G01*
X125866000Y-54977000D01*
G75*
G02*
X125616000Y-54727000I0J250000D01*
G01*
X125616000Y-53477000D01*
G75*
G02*
X125866000Y-53227000I250000J0D01*
G01*
X126791000Y-53227000D01*
G75*
G02*
X127041000Y-53477000I0J-250000D01*
G01*
G37*
G36*
G01*
X120663000Y-54727000D02*
X120663000Y-53477000D01*
G75*
G02*
X120913000Y-53227000I250000J0D01*
G01*
X121838000Y-53227000D01*
G75*
G02*
X122088000Y-53477000I0J-250000D01*
G01*
X122088000Y-54727000D01*
G75*
G02*
X121838000Y-54977000I-250000J0D01*
G01*
X120913000Y-54977000D01*
G75*
G02*
X120663000Y-54727000I0J250000D01*
G01*
G37*
G36*
G01*
X117688000Y-54727000D02*
X117688000Y-53477000D01*
G75*
G02*
X117938000Y-53227000I250000J0D01*
G01*
X118863000Y-53227000D01*
G75*
G02*
X119113000Y-53477000I0J-250000D01*
G01*
X119113000Y-54727000D01*
G75*
G02*
X118863000Y-54977000I-250000J0D01*
G01*
X117938000Y-54977000D01*
G75*
G02*
X117688000Y-54727000I0J250000D01*
G01*
G37*
D18*
X75694000Y-51323000D03*
X75694000Y-49323000D03*
X75694000Y-47323000D03*
X75694000Y-45323000D03*
X75694000Y-43323000D03*
X75694000Y-41323000D03*
X75694000Y-39323000D03*
X75694000Y-37323000D03*
X91694000Y-37323000D03*
X91694000Y-39323000D03*
X91694000Y-41323000D03*
X91694000Y-43323000D03*
X91694000Y-45323000D03*
X91694000Y-47323000D03*
X91694000Y-49323000D03*
X91694000Y-51323000D03*
M02*
