M48
; DRILL file {KiCad (5.1.5)-3} date 16.04.2020 21:34:40
; FORMAT={-:-/ absolute / inch / decimal}
; #@! TF.CreationDate,2020-04-16T21:34:40+02:00
; #@! TF.GenerationSoftware,Kicad,Pcbnew,(5.1.5)-3
FMAT,2
INCH
T1C0.0157
T2C0.0276
T3C0.0315
T4C0.0354
T5C0.0394
T6C0.0433
T7C0.0472
T8C0.0512
T9C0.1181
T10C0.1378
%
G90
G05
T1
X2.41Y-1.95
X2.74Y-3.25
X4.1695Y-2.2105
T2
X4.22Y-3.02
X4.22Y-3.32
X4.52Y-3.02
X4.52Y-3.32
X4.7196Y-3.32
X4.7204Y-3.0196
X4.92Y-3.32
X4.9204Y-3.0196
X4.22Y-3.6
X4.22Y-3.9
X4.52Y-3.6
X4.52Y-3.9
X4.7196Y-3.9
X4.7204Y-3.5996
X4.92Y-3.9
X4.9204Y-3.5996
X4.22Y-2.44
X4.22Y-2.74
X4.52Y-2.44
X4.52Y-2.74
X4.7196Y-2.74
X4.7204Y-2.4396
X4.92Y-2.74
X4.9204Y-2.4396
T3
X4.79Y-2.07
X4.9081Y-2.07
X2.63Y-3.47
X3.03Y-3.47
X1.61Y-2.61
X1.61Y-3.01
X3.81Y-2.52
X3.81Y-2.62
X3.81Y-2.72
X3.81Y-2.82
X4.11Y-2.52
X4.11Y-2.62
X4.11Y-2.72
X4.11Y-2.82
X3.44Y-2.91
X3.44Y-3.31
X1.74Y-2.61
X1.74Y-3.01
X3.26Y-4.08
X3.66Y-4.08
X3.52Y-2.56
X3.52Y-2.66
X3.52Y-2.76
X3.7Y-2.73
X3.7Y-3.13
X3.26Y-3.95
X3.66Y-3.95
X4.32Y-2.44
X4.32Y-2.74
X2.63Y-3.34
X3.03Y-3.34
X3.8316Y-3.0
X3.93Y-3.0
X2.02Y-3.45
X2.02Y-3.85
X2.02Y-4.21
X2.02Y-4.61
X3.89Y-4.19
X3.89Y-4.59
X3.7Y-2.52
X3.7Y-2.6184
X3.57Y-2.91
X3.57Y-3.31
X4.02Y-4.19
X4.02Y-4.59
T4
X4.16Y-4.12
X4.26Y-4.12
X1.9Y-3.27
X2.0Y-3.27
X1.9Y-4.03
X2.0Y-4.03
X1.91Y-4.79
X2.01Y-4.79
X4.17Y-4.85
X4.27Y-4.85
T5
X2.06Y-2.29
X2.16Y-2.29
X2.26Y-2.29
X2.36Y-2.29
X3.87Y-4.71
X3.87Y-4.81
X3.87Y-4.91
X3.88Y-3.21
X3.88Y-3.31
X3.88Y-3.41
X3.88Y-3.51
X3.88Y-3.61
X3.88Y-3.71
X3.88Y-3.81
X3.88Y-3.91
X4.31Y-2.88
X4.41Y-2.88
X4.51Y-2.88
X4.61Y-2.88
X4.71Y-2.88
X4.81Y-2.88
X4.91Y-2.88
X2.15Y-3.0
X2.15Y-3.1
X2.15Y-3.2
X2.15Y-3.3
X2.15Y-3.4
X2.15Y-3.5
X2.15Y-3.6
X2.15Y-3.7
X2.15Y-3.8
X2.15Y-3.9
X2.15Y-4.0
X2.15Y-4.1
X2.15Y-4.2
X2.15Y-4.3
X2.15Y-4.4
X2.15Y-4.5
X2.15Y-4.6
X2.15Y-4.7
X2.15Y-4.8
X3.15Y-3.0
X3.15Y-3.1
X3.15Y-3.2
X3.15Y-3.3
X3.15Y-3.4
X3.15Y-3.5
X3.15Y-3.6
X3.15Y-3.7
X3.15Y-3.8
X3.15Y-3.9
X3.15Y-4.0
X3.15Y-4.1
X3.15Y-4.2
X3.15Y-4.3
X3.15Y-4.4
X3.15Y-4.5
X3.15Y-4.6
X3.15Y-4.7
X3.15Y-4.8
X3.72Y-4.71
X3.72Y-4.81
X3.72Y-4.91
X3.29Y-3.05
X3.29Y-3.15
X3.29Y-3.25
X3.29Y-3.35
X3.29Y-3.45
X3.29Y-3.55
X4.02Y-4.71
X4.02Y-4.81
X4.02Y-4.91
X2.61Y-4.02
X2.61Y-4.7287
X1.4764Y-1.7323
X4.8228Y-1.7323
X4.31Y-3.46
X4.41Y-3.46
X4.51Y-3.46
X4.61Y-3.46
X4.71Y-3.46
X4.81Y-3.46
X4.91Y-3.46
X4.27Y-4.33
X4.27Y-4.43
X4.27Y-4.53
X4.27Y-4.63
X2.57Y-2.29
X2.67Y-2.29
X2.77Y-2.29
X2.87Y-2.29
X4.31Y-2.3
X4.41Y-2.3
X4.51Y-2.3
X4.61Y-2.3
X4.71Y-2.3
X4.81Y-2.3
X4.91Y-2.3
X4.08Y-3.21
X4.08Y-3.31
X4.08Y-3.41
X4.08Y-3.51
X4.08Y-3.61
X4.08Y-3.71
X4.08Y-3.81
X4.08Y-3.91
X3.23Y-2.45
X3.33Y-2.45
X3.51Y-2.29
X3.61Y-2.29
X3.71Y-2.29
T6
X3.02Y-3.65
X3.02Y-3.75
X3.02Y-3.85
X1.5Y-2.42
X1.9Y-2.42
X4.42Y-2.11
X4.52Y-2.11
X4.62Y-2.11
X3.33Y-4.93
X3.43Y-4.93
X3.53Y-4.93
T7
X2.27Y-4.88
X2.87Y-4.88
T8
X1.4631Y-4.4179
X1.4631Y-4.91
X1.66Y-4.4179
X1.66Y-4.91
X1.4631Y-3.7779
X1.4631Y-4.27
X1.66Y-3.7779
X1.66Y-4.27
X4.42Y-4.64
X4.42Y-4.8369
X4.9121Y-4.64
X4.9121Y-4.8369
X3.4431Y-3.82
X3.5416Y-3.4263
X3.64Y-3.82
X1.4631Y-3.14
X1.4631Y-3.6321
X1.66Y-3.14
X1.66Y-3.6321
X4.42Y-4.14
X4.42Y-4.3369
X4.9121Y-4.14
X4.9121Y-4.3369
T9
X2.2638Y-2.1063
X4.0354Y-2.1063
T10
X2.3641Y-3.75
X4.52Y-1.4541
X3.43Y-4.2741
T5
G00X1.6238Y-2.0306
M15
G01X1.6238Y-2.1094
M16
G05
G00X1.7025Y-2.255
M15
G01X1.7813Y-2.255
M16
G05
G00X1.86Y-2.0306
M15
G01X1.86Y-2.1094
M16
G05
T0
M30
