G04 #@! TF.GenerationSoftware,KiCad,Pcbnew,(5.1.8)-1*
G04 #@! TF.CreationDate,2021-08-06T23:14:03+02:00*
G04 #@! TF.ProjectId,labAThome,6c616241-5468-46f6-9d65-2e6b69636164,rev?*
G04 #@! TF.SameCoordinates,Original*
G04 #@! TF.FileFunction,Soldermask,Top*
G04 #@! TF.FilePolarity,Negative*
%FSLAX46Y46*%
G04 Gerber Fmt 4.6, Leading zero omitted, Abs format (unit mm)*
G04 Created by KiCad (PCBNEW (5.1.8)-1) date 2021-08-06 23:14:03*
%MOMM*%
%LPD*%
G01*
G04 APERTURE LIST*
%ADD10C,1.800000*%
%ADD11C,1.700000*%
%ADD12O,1.600000X2.000000*%
%ADD13R,2.000000X3.200000*%
%ADD14O,3.048000X1.850000*%
%ADD15O,1.850000X3.048000*%
%ADD16C,3.200000*%
%ADD17O,1.700000X1.700000*%
%ADD18R,1.700000X1.700000*%
%ADD19C,3.600000*%
%ADD20O,9.500000X7.500000*%
%ADD21O,2.000000X1.700000*%
%ADD22O,2.000000X1.800000*%
%ADD23R,1.000000X1.500000*%
%ADD24C,0.100000*%
%ADD25C,4.000000*%
%ADD26O,1.800000X2.200000*%
%ADD27R,1.050000X1.500000*%
%ADD28O,1.050000X1.500000*%
%ADD29O,1.700000X2.200000*%
%ADD30R,2.200000X0.600000*%
%ADD31R,4.000000X4.000000*%
%ADD32R,2.301240X3.000000*%
%ADD33R,1.900000X0.800000*%
%ADD34O,2.030000X1.730000*%
%ADD35R,2.030000X1.730000*%
%ADD36R,3.500000X1.800000*%
%ADD37R,1.800000X1.800000*%
%ADD38O,1.600000X2.400000*%
%ADD39R,1.600000X2.400000*%
%ADD40C,3.400000*%
%ADD41O,1.950000X1.700000*%
%ADD42O,2.000000X1.905000*%
%ADD43R,2.000000X1.905000*%
%ADD44O,3.500000X3.500000*%
%ADD45O,2.200000X1.700000*%
%ADD46C,2.000000*%
%ADD47R,1.270000X3.600000*%
%ADD48R,1.350000X4.200000*%
%ADD49R,1.800000X3.500000*%
%ADD50R,1.500000X1.000000*%
%ADD51C,1.200000*%
%ADD52O,1.700000X1.950000*%
%ADD53R,2.500000X1.000000*%
%ADD54O,2.200000X1.800000*%
%ADD55C,1.400000*%
%ADD56R,1.400000X1.400000*%
%ADD57R,2.200000X1.800000*%
%ADD58R,3.500000X3.500000*%
G04 APERTURE END LIST*
D10*
X82540000Y-61722000D03*
G36*
G01*
X76560000Y-62172000D02*
X76560000Y-61272000D01*
G75*
G02*
X77010000Y-60822000I450000J0D01*
G01*
X77910000Y-60822000D01*
G75*
G02*
X78360000Y-61272000I0J-450000D01*
G01*
X78360000Y-62172000D01*
G75*
G02*
X77910000Y-62622000I-450000J0D01*
G01*
X77010000Y-62622000D01*
G75*
G02*
X76560000Y-62172000I0J450000D01*
G01*
G37*
X80000000Y-61722000D03*
D11*
X79629000Y-76200000D03*
X79629000Y-78740000D03*
X79629000Y-81280000D03*
X79629000Y-83820000D03*
X79629000Y-86360000D03*
X79629000Y-88900000D03*
X79629000Y-91440000D03*
X79629000Y-93980000D03*
X79629000Y-96520000D03*
X79629000Y-99060000D03*
X79629000Y-101600000D03*
X79629000Y-104140000D03*
X79629000Y-106680000D03*
X79629000Y-109220000D03*
X79629000Y-111760000D03*
X79629000Y-114300000D03*
X79629000Y-116840000D03*
X79629000Y-119380000D03*
X79629000Y-121920000D03*
X54229000Y-121920000D03*
X54229000Y-119380000D03*
X54229000Y-116840000D03*
X54229000Y-114300000D03*
X54229000Y-111760000D03*
X54229000Y-109220000D03*
X54229000Y-106680000D03*
X54229000Y-104140000D03*
X54229000Y-101600000D03*
X54229000Y-99060000D03*
X54229000Y-96520000D03*
X54229000Y-93980000D03*
X54229000Y-91440000D03*
X54229000Y-88900000D03*
X54229000Y-86360000D03*
X54229000Y-83820000D03*
X54229000Y-81280000D03*
X54229000Y-78740000D03*
X54229000Y-76200000D03*
G36*
G01*
X41600000Y-94000000D02*
X42400000Y-94000000D01*
G75*
G02*
X42800000Y-94400000I0J-400000D01*
G01*
X42800000Y-95600000D01*
G75*
G02*
X42400000Y-96000000I-400000J0D01*
G01*
X41600000Y-96000000D01*
G75*
G02*
X41200000Y-95600000I0J400000D01*
G01*
X41200000Y-94400000D01*
G75*
G02*
X41600000Y-94000000I400000J0D01*
G01*
G37*
D12*
X39500000Y-95000000D03*
X37000000Y-95000000D03*
D13*
X45100000Y-102500000D03*
X33900000Y-102500000D03*
D12*
X42000000Y-109500000D03*
X37000000Y-109500000D03*
D14*
X118000000Y-118000000D03*
X118000000Y-123000000D03*
X105500000Y-118000000D03*
X105500000Y-123000000D03*
X118000000Y-105250000D03*
X118000000Y-110250000D03*
X105500000Y-105250000D03*
X105500000Y-110250000D03*
D15*
X37000000Y-112500000D03*
X42000000Y-112500000D03*
X37000000Y-125000000D03*
X42000000Y-125000000D03*
X37000000Y-79500000D03*
X42000000Y-79500000D03*
X37000000Y-92000000D03*
X42000000Y-92000000D03*
D16*
X106426000Y-114046000D03*
X116586000Y-114046000D03*
G36*
G01*
X109131000Y-104556000D02*
X109131000Y-105756000D01*
G75*
G02*
X108731000Y-106156000I-400000J0D01*
G01*
X107931000Y-106156000D01*
G75*
G02*
X107531000Y-105756000I0J400000D01*
G01*
X107531000Y-104556000D01*
G75*
G02*
X107931000Y-104156000I400000J0D01*
G01*
X108731000Y-104156000D01*
G75*
G02*
X109131000Y-104556000I0J-400000D01*
G01*
G37*
D12*
X109601000Y-107696000D03*
X110871000Y-105156000D03*
X112141000Y-107696000D03*
X113411000Y-105156000D03*
X114681000Y-107696000D03*
D17*
X96901000Y-98488500D03*
D18*
X96901000Y-95948500D03*
D19*
X119700000Y-50500000D03*
X40300000Y-50500000D03*
D20*
X58000000Y-40500000D03*
X102000000Y-40500000D03*
D21*
X109220000Y-42545000D03*
X109220000Y-40005000D03*
D22*
X109220000Y-37465000D03*
D21*
X109220000Y-34925000D03*
X50800000Y-42545000D03*
X50800000Y-40005000D03*
X50800000Y-37465000D03*
X50800000Y-34925000D03*
G36*
G01*
X118660400Y-38166000D02*
X117559600Y-38166000D01*
G75*
G02*
X117310000Y-37916400I0J249600D01*
G01*
X117310000Y-34315600D01*
G75*
G02*
X117559600Y-34066000I249600J0D01*
G01*
X118660400Y-34066000D01*
G75*
G02*
X118910000Y-34315600I0J-249600D01*
G01*
X118910000Y-37916400D01*
G75*
G02*
X118660400Y-38166000I-249600J0D01*
G01*
G37*
G36*
G01*
X118660400Y-44166000D02*
X117559600Y-44166000D01*
G75*
G02*
X117310000Y-43916400I0J249600D01*
G01*
X117310000Y-40315600D01*
G75*
G02*
X117559600Y-40066000I249600J0D01*
G01*
X118660400Y-40066000D01*
G75*
G02*
X118910000Y-40315600I0J-249600D01*
G01*
X118910000Y-43916400D01*
G75*
G02*
X118660400Y-44166000I-249600J0D01*
G01*
G37*
D23*
X92583000Y-107569000D03*
D24*
G36*
X93883000Y-106819602D02*
G01*
X93907534Y-106819602D01*
X93956365Y-106824412D01*
X94004490Y-106833984D01*
X94051445Y-106848228D01*
X94096778Y-106867005D01*
X94140051Y-106890136D01*
X94180850Y-106917396D01*
X94218779Y-106948524D01*
X94253476Y-106983221D01*
X94284604Y-107021150D01*
X94311864Y-107061949D01*
X94334995Y-107105222D01*
X94353772Y-107150555D01*
X94368016Y-107197510D01*
X94377588Y-107245635D01*
X94382398Y-107294466D01*
X94382398Y-107319000D01*
X94383000Y-107319000D01*
X94383000Y-107819000D01*
X94382398Y-107819000D01*
X94382398Y-107843534D01*
X94377588Y-107892365D01*
X94368016Y-107940490D01*
X94353772Y-107987445D01*
X94334995Y-108032778D01*
X94311864Y-108076051D01*
X94284604Y-108116850D01*
X94253476Y-108154779D01*
X94218779Y-108189476D01*
X94180850Y-108220604D01*
X94140051Y-108247864D01*
X94096778Y-108270995D01*
X94051445Y-108289772D01*
X94004490Y-108304016D01*
X93956365Y-108313588D01*
X93907534Y-108318398D01*
X93883000Y-108318398D01*
X93883000Y-108319000D01*
X93333000Y-108319000D01*
X93333000Y-106819000D01*
X93883000Y-106819000D01*
X93883000Y-106819602D01*
G37*
G36*
X91833000Y-108319000D02*
G01*
X91283000Y-108319000D01*
X91283000Y-108318398D01*
X91258466Y-108318398D01*
X91209635Y-108313588D01*
X91161510Y-108304016D01*
X91114555Y-108289772D01*
X91069222Y-108270995D01*
X91025949Y-108247864D01*
X90985150Y-108220604D01*
X90947221Y-108189476D01*
X90912524Y-108154779D01*
X90881396Y-108116850D01*
X90854136Y-108076051D01*
X90831005Y-108032778D01*
X90812228Y-107987445D01*
X90797984Y-107940490D01*
X90788412Y-107892365D01*
X90783602Y-107843534D01*
X90783602Y-107819000D01*
X90783000Y-107819000D01*
X90783000Y-107319000D01*
X90783602Y-107319000D01*
X90783602Y-107294466D01*
X90788412Y-107245635D01*
X90797984Y-107197510D01*
X90812228Y-107150555D01*
X90831005Y-107105222D01*
X90854136Y-107061949D01*
X90881396Y-107021150D01*
X90912524Y-106983221D01*
X90947221Y-106948524D01*
X90985150Y-106917396D01*
X91025949Y-106890136D01*
X91069222Y-106867005D01*
X91114555Y-106848228D01*
X91161510Y-106833984D01*
X91209635Y-106824412D01*
X91258466Y-106819602D01*
X91283000Y-106819602D01*
X91283000Y-106819000D01*
X91833000Y-106819000D01*
X91833000Y-108319000D01*
G37*
D25*
X83420500Y-99964000D03*
X92220500Y-99964000D03*
D10*
X85320500Y-92964000D03*
X87820500Y-92964000D03*
X90320500Y-92964000D03*
D26*
X53467000Y-63373000D03*
X56007000Y-63373000D03*
X58547000Y-63373000D03*
G36*
G01*
X60637000Y-62273000D02*
X61537000Y-62273000D01*
G75*
G02*
X61987000Y-62723000I0J-450000D01*
G01*
X61987000Y-64023000D01*
G75*
G02*
X61537000Y-64473000I-450000J0D01*
G01*
X60637000Y-64473000D01*
G75*
G02*
X60187000Y-64023000I0J450000D01*
G01*
X60187000Y-62723000D01*
G75*
G02*
X60637000Y-62273000I450000J0D01*
G01*
G37*
D27*
X72898000Y-58928000D03*
D28*
X75438000Y-58928000D03*
X74168000Y-58928000D03*
D12*
X108585000Y-60325000D03*
X106045000Y-60325000D03*
X103505000Y-60325000D03*
X100965000Y-60325000D03*
X98425000Y-60325000D03*
X95885000Y-60325000D03*
X93345000Y-60325000D03*
G36*
G01*
X91255000Y-61325000D02*
X90355000Y-61325000D01*
G75*
G02*
X89905000Y-60875000I0J450000D01*
G01*
X89905000Y-59775000D01*
G75*
G02*
X90355000Y-59325000I450000J0D01*
G01*
X91255000Y-59325000D01*
G75*
G02*
X91705000Y-59775000I0J-450000D01*
G01*
X91705000Y-60875000D01*
G75*
G02*
X91255000Y-61325000I-450000J0D01*
G01*
G37*
D29*
X113919000Y-56388000D03*
X116459000Y-56388000D03*
X118999000Y-56388000D03*
X121539000Y-56388000D03*
G36*
G01*
X124504000Y-57488000D02*
X123654000Y-57488000D01*
G75*
G02*
X123229000Y-57063000I0J425000D01*
G01*
X123229000Y-55713000D01*
G75*
G02*
X123654000Y-55288000I425000J0D01*
G01*
X124504000Y-55288000D01*
G75*
G02*
X124929000Y-55713000I0J-425000D01*
G01*
X124929000Y-57063000D01*
G75*
G02*
X124504000Y-57488000I-425000J0D01*
G01*
G37*
D26*
X54610000Y-34290000D03*
X57150000Y-34290000D03*
X59690000Y-34290000D03*
G36*
G01*
X61780000Y-33190000D02*
X62680000Y-33190000D01*
G75*
G02*
X63130000Y-33640000I0J-450000D01*
G01*
X63130000Y-34940000D01*
G75*
G02*
X62680000Y-35390000I-450000J0D01*
G01*
X61780000Y-35390000D01*
G75*
G02*
X61330000Y-34940000I0J450000D01*
G01*
X61330000Y-33640000D01*
G75*
G02*
X61780000Y-33190000I450000J0D01*
G01*
G37*
G36*
G01*
X64019000Y-51958003D02*
X64019000Y-50657997D01*
G75*
G02*
X64268997Y-50408000I249997J0D01*
G01*
X65094003Y-50408000D01*
G75*
G02*
X65344000Y-50657997I0J-249997D01*
G01*
X65344000Y-51958003D01*
G75*
G02*
X65094003Y-52208000I-249997J0D01*
G01*
X64268997Y-52208000D01*
G75*
G02*
X64019000Y-51958003I0J249997D01*
G01*
G37*
G36*
G01*
X60894000Y-51958003D02*
X60894000Y-50657997D01*
G75*
G02*
X61143997Y-50408000I249997J0D01*
G01*
X61969003Y-50408000D01*
G75*
G02*
X62219000Y-50657997I0J-249997D01*
G01*
X62219000Y-51958003D01*
G75*
G02*
X61969003Y-52208000I-249997J0D01*
G01*
X61143997Y-52208000D01*
G75*
G02*
X60894000Y-51958003I0J249997D01*
G01*
G37*
G36*
G01*
X69861000Y-60594003D02*
X69861000Y-59293997D01*
G75*
G02*
X70110997Y-59044000I249997J0D01*
G01*
X70936003Y-59044000D01*
G75*
G02*
X71186000Y-59293997I0J-249997D01*
G01*
X71186000Y-60594003D01*
G75*
G02*
X70936003Y-60844000I-249997J0D01*
G01*
X70110997Y-60844000D01*
G75*
G02*
X69861000Y-60594003I0J249997D01*
G01*
G37*
G36*
G01*
X66736000Y-60594003D02*
X66736000Y-59293997D01*
G75*
G02*
X66985997Y-59044000I249997J0D01*
G01*
X67811003Y-59044000D01*
G75*
G02*
X68061000Y-59293997I0J-249997D01*
G01*
X68061000Y-60594003D01*
G75*
G02*
X67811003Y-60844000I-249997J0D01*
G01*
X66985997Y-60844000D01*
G75*
G02*
X66736000Y-60594003I0J249997D01*
G01*
G37*
G36*
G01*
X56377000Y-50657997D02*
X56377000Y-51958003D01*
G75*
G02*
X56127003Y-52208000I-249997J0D01*
G01*
X55301997Y-52208000D01*
G75*
G02*
X55052000Y-51958003I0J249997D01*
G01*
X55052000Y-50657997D01*
G75*
G02*
X55301997Y-50408000I249997J0D01*
G01*
X56127003Y-50408000D01*
G75*
G02*
X56377000Y-50657997I0J-249997D01*
G01*
G37*
G36*
G01*
X59502000Y-50657997D02*
X59502000Y-51958003D01*
G75*
G02*
X59252003Y-52208000I-249997J0D01*
G01*
X58426997Y-52208000D01*
G75*
G02*
X58177000Y-51958003I0J249997D01*
G01*
X58177000Y-50657997D01*
G75*
G02*
X58426997Y-50408000I249997J0D01*
G01*
X59252003Y-50408000D01*
G75*
G02*
X59502000Y-50657997I0J-249997D01*
G01*
G37*
G36*
G01*
X48910003Y-45493500D02*
X47609997Y-45493500D01*
G75*
G02*
X47360000Y-45243503I0J249997D01*
G01*
X47360000Y-44418497D01*
G75*
G02*
X47609997Y-44168500I249997J0D01*
G01*
X48910003Y-44168500D01*
G75*
G02*
X49160000Y-44418497I0J-249997D01*
G01*
X49160000Y-45243503D01*
G75*
G02*
X48910003Y-45493500I-249997J0D01*
G01*
G37*
G36*
G01*
X48910003Y-48618500D02*
X47609997Y-48618500D01*
G75*
G02*
X47360000Y-48368503I0J249997D01*
G01*
X47360000Y-47543497D01*
G75*
G02*
X47609997Y-47293500I249997J0D01*
G01*
X48910003Y-47293500D01*
G75*
G02*
X49160000Y-47543497I0J-249997D01*
G01*
X49160000Y-48368503D01*
G75*
G02*
X48910003Y-48618500I-249997J0D01*
G01*
G37*
D24*
G36*
X58958000Y-45594000D02*
G01*
X58958000Y-48894000D01*
X56358000Y-48894000D01*
X56358000Y-45594000D01*
X58958000Y-45594000D01*
G37*
D30*
X54658000Y-49149000D03*
X54658000Y-47879000D03*
X54658000Y-46609000D03*
X54658000Y-45339000D03*
X60658000Y-45339000D03*
X60658000Y-46609000D03*
X60658000Y-47879000D03*
X60658000Y-49149000D03*
G36*
G01*
X64860000Y-37474999D02*
X64860000Y-38725001D01*
G75*
G02*
X64610001Y-38975000I-249999J0D01*
G01*
X63809999Y-38975000D01*
G75*
G02*
X63560000Y-38725001I0J249999D01*
G01*
X63560000Y-37474999D01*
G75*
G02*
X63809999Y-37225000I249999J0D01*
G01*
X64610001Y-37225000D01*
G75*
G02*
X64860000Y-37474999I0J-249999D01*
G01*
G37*
G36*
G01*
X67960000Y-37474999D02*
X67960000Y-38725001D01*
G75*
G02*
X67710001Y-38975000I-249999J0D01*
G01*
X66909999Y-38975000D01*
G75*
G02*
X66660000Y-38725001I0J249999D01*
G01*
X66660000Y-37474999D01*
G75*
G02*
X66909999Y-37225000I249999J0D01*
G01*
X67710001Y-37225000D01*
G75*
G02*
X67960000Y-37474999I0J-249999D01*
G01*
G37*
G36*
G01*
X62493999Y-47763000D02*
X63744001Y-47763000D01*
G75*
G02*
X63994000Y-48012999I0J-249999D01*
G01*
X63994000Y-48813001D01*
G75*
G02*
X63744001Y-49063000I-249999J0D01*
G01*
X62493999Y-49063000D01*
G75*
G02*
X62244000Y-48813001I0J249999D01*
G01*
X62244000Y-48012999D01*
G75*
G02*
X62493999Y-47763000I249999J0D01*
G01*
G37*
G36*
G01*
X62493999Y-44663000D02*
X63744001Y-44663000D01*
G75*
G02*
X63994000Y-44912999I0J-249999D01*
G01*
X63994000Y-45713001D01*
G75*
G02*
X63744001Y-45963000I-249999J0D01*
G01*
X62493999Y-45963000D01*
G75*
G02*
X62244000Y-45713001I0J249999D01*
G01*
X62244000Y-44912999D01*
G75*
G02*
X62493999Y-44663000I249999J0D01*
G01*
G37*
D31*
X53928000Y-57658000D03*
X63928000Y-57658000D03*
D32*
X51435000Y-45760000D03*
X51435000Y-50760000D03*
D33*
X40156000Y-64008000D03*
X43156000Y-63058000D03*
X43156000Y-64958000D03*
D11*
X102870000Y-106553000D03*
X102870000Y-109093000D03*
X102870000Y-111633000D03*
X102870000Y-114173000D03*
G36*
G01*
X76620000Y-114598000D02*
X76620000Y-113748000D01*
G75*
G02*
X77045000Y-113323000I425000J0D01*
G01*
X77895000Y-113323000D01*
G75*
G02*
X78320000Y-113748000I0J-425000D01*
G01*
X78320000Y-114598000D01*
G75*
G02*
X77895000Y-115023000I-425000J0D01*
G01*
X77045000Y-115023000D01*
G75*
G02*
X76620000Y-114598000I0J425000D01*
G01*
G37*
X77470000Y-111633000D03*
X77470000Y-109093000D03*
X77470000Y-106553000D03*
D33*
X43029000Y-69088000D03*
X40029000Y-70038000D03*
X40029000Y-68138000D03*
D34*
X37719000Y-64008000D03*
X37719000Y-66548000D03*
D35*
X37719000Y-69088000D03*
D36*
X41823000Y-60071000D03*
X46823000Y-60071000D03*
D37*
X122491500Y-47244000D03*
D10*
X122491500Y-44704000D03*
D38*
X113665000Y-76962000D03*
X106045000Y-89662000D03*
X111125000Y-76962000D03*
X108585000Y-89662000D03*
X108585000Y-76962000D03*
X111125000Y-89662000D03*
X106045000Y-76962000D03*
D39*
X113665000Y-89662000D03*
D24*
G36*
X75704602Y-75296000D02*
G01*
X75704602Y-75271466D01*
X75709412Y-75222635D01*
X75718984Y-75174510D01*
X75733228Y-75127555D01*
X75752005Y-75082222D01*
X75775136Y-75038949D01*
X75802396Y-74998150D01*
X75833524Y-74960221D01*
X75868221Y-74925524D01*
X75906150Y-74894396D01*
X75946949Y-74867136D01*
X75990222Y-74844005D01*
X76035555Y-74825228D01*
X76082510Y-74810984D01*
X76130635Y-74801412D01*
X76179466Y-74796602D01*
X76204000Y-74796602D01*
X76204000Y-74796000D01*
X76704000Y-74796000D01*
X76704000Y-74796602D01*
X76728534Y-74796602D01*
X76777365Y-74801412D01*
X76825490Y-74810984D01*
X76872445Y-74825228D01*
X76917778Y-74844005D01*
X76961051Y-74867136D01*
X77001850Y-74894396D01*
X77039779Y-74925524D01*
X77074476Y-74960221D01*
X77105604Y-74998150D01*
X77132864Y-75038949D01*
X77155995Y-75082222D01*
X77174772Y-75127555D01*
X77189016Y-75174510D01*
X77198588Y-75222635D01*
X77203398Y-75271466D01*
X77203398Y-75296000D01*
X77204000Y-75296000D01*
X77204000Y-75796000D01*
X75704000Y-75796000D01*
X75704000Y-75296000D01*
X75704602Y-75296000D01*
G37*
G36*
X77204000Y-76096000D02*
G01*
X77204000Y-76596000D01*
X77203398Y-76596000D01*
X77203398Y-76620534D01*
X77198588Y-76669365D01*
X77189016Y-76717490D01*
X77174772Y-76764445D01*
X77155995Y-76809778D01*
X77132864Y-76853051D01*
X77105604Y-76893850D01*
X77074476Y-76931779D01*
X77039779Y-76966476D01*
X77001850Y-76997604D01*
X76961051Y-77024864D01*
X76917778Y-77047995D01*
X76872445Y-77066772D01*
X76825490Y-77081016D01*
X76777365Y-77090588D01*
X76728534Y-77095398D01*
X76704000Y-77095398D01*
X76704000Y-77096000D01*
X76204000Y-77096000D01*
X76204000Y-77095398D01*
X76179466Y-77095398D01*
X76130635Y-77090588D01*
X76082510Y-77081016D01*
X76035555Y-77066772D01*
X75990222Y-77047995D01*
X75946949Y-77024864D01*
X75906150Y-76997604D01*
X75868221Y-76966476D01*
X75833524Y-76931779D01*
X75802396Y-76893850D01*
X75775136Y-76853051D01*
X75752005Y-76809778D01*
X75733228Y-76764445D01*
X75718984Y-76717490D01*
X75709412Y-76669365D01*
X75704602Y-76620534D01*
X75704602Y-76596000D01*
X75704000Y-76596000D01*
X75704000Y-76096000D01*
X77204000Y-76096000D01*
G37*
D40*
X99276000Y-122482000D03*
X49276000Y-122482000D03*
D41*
X48895000Y-82811000D03*
X48895000Y-80311000D03*
X48895000Y-77811000D03*
G36*
G01*
X48170000Y-74461000D02*
X49620000Y-74461000D01*
G75*
G02*
X49870000Y-74711000I0J-250000D01*
G01*
X49870000Y-75911000D01*
G75*
G02*
X49620000Y-76161000I-250000J0D01*
G01*
X48170000Y-76161000D01*
G75*
G02*
X47920000Y-75911000I0J250000D01*
G01*
X47920000Y-74711000D01*
G75*
G02*
X48170000Y-74461000I250000J0D01*
G01*
G37*
X48895000Y-96273000D03*
X48895000Y-93773000D03*
X48895000Y-91273000D03*
G36*
G01*
X48170000Y-87923000D02*
X49620000Y-87923000D01*
G75*
G02*
X49870000Y-88173000I0J-250000D01*
G01*
X49870000Y-89373000D01*
G75*
G02*
X49620000Y-89623000I-250000J0D01*
G01*
X48170000Y-89623000D01*
G75*
G02*
X47920000Y-89373000I0J250000D01*
G01*
X47920000Y-88173000D01*
G75*
G02*
X48170000Y-87923000I250000J0D01*
G01*
G37*
D42*
X56642000Y-111760000D03*
X56642000Y-114300000D03*
D43*
X56642000Y-116840000D03*
D44*
X73302000Y-114300000D03*
D45*
X94398000Y-53989000D03*
X94398000Y-51449000D03*
X94398000Y-48909000D03*
X94398000Y-46369000D03*
X94398000Y-43829000D03*
X72898000Y-51689000D03*
X72898000Y-49149000D03*
X72898000Y-46609000D03*
X72898000Y-44069000D03*
X72898000Y-41529000D03*
X94398000Y-41289000D03*
X72898000Y-38989000D03*
G36*
G01*
X65688999Y-46525000D02*
X69439001Y-46525000D01*
G75*
G02*
X69689000Y-46774999I0J-249999D01*
G01*
X69689000Y-48525001D01*
G75*
G02*
X69439001Y-48775000I-249999J0D01*
G01*
X65688999Y-48775000D01*
G75*
G02*
X65439000Y-48525001I0J249999D01*
G01*
X65439000Y-46774999D01*
G75*
G02*
X65688999Y-46525000I249999J0D01*
G01*
G37*
G36*
G01*
X65688999Y-40125000D02*
X69439001Y-40125000D01*
G75*
G02*
X69689000Y-40374999I0J-249999D01*
G01*
X69689000Y-42125001D01*
G75*
G02*
X69439001Y-42375000I-249999J0D01*
G01*
X65688999Y-42375000D01*
G75*
G02*
X65439000Y-42125001I0J249999D01*
G01*
X65439000Y-40374999D01*
G75*
G02*
X65688999Y-40125000I249999J0D01*
G01*
G37*
D10*
X82677000Y-72390000D03*
X82677000Y-74930000D03*
X82677000Y-77470000D03*
X82677000Y-80010000D03*
X82677000Y-82550000D03*
X82677000Y-85090000D03*
D37*
X82677000Y-87630000D03*
D17*
X38862000Y-54864000D03*
X36322000Y-54864000D03*
X38862000Y-57404000D03*
X36322000Y-57404000D03*
X38862000Y-59944000D03*
D18*
X36322000Y-59944000D03*
G36*
G01*
X123688000Y-38722000D02*
X122438000Y-38722000D01*
G75*
G02*
X122188000Y-38472000I0J250000D01*
G01*
X122188000Y-37547000D01*
G75*
G02*
X122438000Y-37297000I250000J0D01*
G01*
X123688000Y-37297000D01*
G75*
G02*
X123938000Y-37547000I0J-250000D01*
G01*
X123938000Y-38472000D01*
G75*
G02*
X123688000Y-38722000I-250000J0D01*
G01*
G37*
G36*
G01*
X123688000Y-41697000D02*
X122438000Y-41697000D01*
G75*
G02*
X122188000Y-41447000I0J250000D01*
G01*
X122188000Y-40522000D01*
G75*
G02*
X122438000Y-40272000I250000J0D01*
G01*
X123688000Y-40272000D01*
G75*
G02*
X123938000Y-40522000I0J-250000D01*
G01*
X123938000Y-41447000D01*
G75*
G02*
X123688000Y-41697000I-250000J0D01*
G01*
G37*
D46*
X88873000Y-87660000D03*
X91373000Y-87660000D03*
X93873000Y-87660000D03*
X95123000Y-85660000D03*
X92623000Y-85660000D03*
X90123000Y-85660000D03*
X87623000Y-85660000D03*
X86373000Y-83660000D03*
X88873000Y-83660000D03*
X91373000Y-83660000D03*
X93873000Y-83660000D03*
X96373000Y-83660000D03*
X95123000Y-81660000D03*
X92623000Y-81660000D03*
X90123000Y-81660000D03*
X87623000Y-81660000D03*
X93873000Y-71660000D03*
X91373000Y-71660000D03*
X88873000Y-71660000D03*
X95123000Y-73660000D03*
X92623000Y-73660000D03*
X90123000Y-73660000D03*
X87623000Y-73660000D03*
X96373000Y-75660000D03*
X93873000Y-75660000D03*
X91373000Y-75660000D03*
X88873000Y-75660000D03*
X86373000Y-75660000D03*
X95123000Y-77660000D03*
X92623000Y-77660000D03*
X90123000Y-77660000D03*
X87623000Y-77660000D03*
X96373000Y-79660000D03*
X93873000Y-79660000D03*
X91373000Y-79660000D03*
X88873000Y-79660000D03*
X86373000Y-79660000D03*
D41*
X98425000Y-103451000D03*
X98425000Y-105951000D03*
X98425000Y-108451000D03*
X98425000Y-110951000D03*
X98425000Y-113451000D03*
G36*
G01*
X99150000Y-116801000D02*
X97700000Y-116801000D01*
G75*
G02*
X97450000Y-116551000I0J250000D01*
G01*
X97450000Y-115351000D01*
G75*
G02*
X97700000Y-115101000I250000J0D01*
G01*
X99150000Y-115101000D01*
G75*
G02*
X99400000Y-115351000I0J-250000D01*
G01*
X99400000Y-116551000D01*
G75*
G02*
X99150000Y-116801000I-250000J0D01*
G01*
G37*
D47*
X80000000Y-32500000D03*
D48*
X77175000Y-32700000D03*
X82825000Y-32700000D03*
D17*
X112649000Y-42545000D03*
X112649000Y-40005000D03*
X112649000Y-37465000D03*
D18*
X112649000Y-34925000D03*
G36*
G01*
X78217000Y-63455999D02*
X78217000Y-64306001D01*
G75*
G02*
X77967001Y-64556000I-249999J0D01*
G01*
X76891999Y-64556000D01*
G75*
G02*
X76642000Y-64306001I0J249999D01*
G01*
X76642000Y-63455999D01*
G75*
G02*
X76891999Y-63206000I249999J0D01*
G01*
X77967001Y-63206000D01*
G75*
G02*
X78217000Y-63455999I0J-249999D01*
G01*
G37*
G36*
G01*
X81092000Y-63455999D02*
X81092000Y-64306001D01*
G75*
G02*
X80842001Y-64556000I-249999J0D01*
G01*
X79766999Y-64556000D01*
G75*
G02*
X79517000Y-64306001I0J249999D01*
G01*
X79517000Y-63455999D01*
G75*
G02*
X79766999Y-63206000I249999J0D01*
G01*
X80842001Y-63206000D01*
G75*
G02*
X81092000Y-63455999I0J-249999D01*
G01*
G37*
D49*
X69088000Y-56435000D03*
X69088000Y-51435000D03*
G36*
G01*
X124066000Y-53477000D02*
X124066000Y-54727000D01*
G75*
G02*
X123816000Y-54977000I-250000J0D01*
G01*
X122891000Y-54977000D01*
G75*
G02*
X122641000Y-54727000I0J250000D01*
G01*
X122641000Y-53477000D01*
G75*
G02*
X122891000Y-53227000I250000J0D01*
G01*
X123816000Y-53227000D01*
G75*
G02*
X124066000Y-53477000I0J-250000D01*
G01*
G37*
G36*
G01*
X127041000Y-53477000D02*
X127041000Y-54727000D01*
G75*
G02*
X126791000Y-54977000I-250000J0D01*
G01*
X125866000Y-54977000D01*
G75*
G02*
X125616000Y-54727000I0J250000D01*
G01*
X125616000Y-53477000D01*
G75*
G02*
X125866000Y-53227000I250000J0D01*
G01*
X126791000Y-53227000D01*
G75*
G02*
X127041000Y-53477000I0J-250000D01*
G01*
G37*
G36*
G01*
X120663000Y-54727000D02*
X120663000Y-53477000D01*
G75*
G02*
X120913000Y-53227000I250000J0D01*
G01*
X121838000Y-53227000D01*
G75*
G02*
X122088000Y-53477000I0J-250000D01*
G01*
X122088000Y-54727000D01*
G75*
G02*
X121838000Y-54977000I-250000J0D01*
G01*
X120913000Y-54977000D01*
G75*
G02*
X120663000Y-54727000I0J250000D01*
G01*
G37*
G36*
G01*
X117688000Y-54727000D02*
X117688000Y-53477000D01*
G75*
G02*
X117938000Y-53227000I250000J0D01*
G01*
X118863000Y-53227000D01*
G75*
G02*
X119113000Y-53477000I0J-250000D01*
G01*
X119113000Y-54727000D01*
G75*
G02*
X118863000Y-54977000I-250000J0D01*
G01*
X117938000Y-54977000D01*
G75*
G02*
X117688000Y-54727000I0J250000D01*
G01*
G37*
D50*
X76454000Y-80010000D03*
D24*
G36*
X75704602Y-78710000D02*
G01*
X75704602Y-78685466D01*
X75709412Y-78636635D01*
X75718984Y-78588510D01*
X75733228Y-78541555D01*
X75752005Y-78496222D01*
X75775136Y-78452949D01*
X75802396Y-78412150D01*
X75833524Y-78374221D01*
X75868221Y-78339524D01*
X75906150Y-78308396D01*
X75946949Y-78281136D01*
X75990222Y-78258005D01*
X76035555Y-78239228D01*
X76082510Y-78224984D01*
X76130635Y-78215412D01*
X76179466Y-78210602D01*
X76204000Y-78210602D01*
X76204000Y-78210000D01*
X76704000Y-78210000D01*
X76704000Y-78210602D01*
X76728534Y-78210602D01*
X76777365Y-78215412D01*
X76825490Y-78224984D01*
X76872445Y-78239228D01*
X76917778Y-78258005D01*
X76961051Y-78281136D01*
X77001850Y-78308396D01*
X77039779Y-78339524D01*
X77074476Y-78374221D01*
X77105604Y-78412150D01*
X77132864Y-78452949D01*
X77155995Y-78496222D01*
X77174772Y-78541555D01*
X77189016Y-78588510D01*
X77198588Y-78636635D01*
X77203398Y-78685466D01*
X77203398Y-78710000D01*
X77204000Y-78710000D01*
X77204000Y-79260000D01*
X75704000Y-79260000D01*
X75704000Y-78710000D01*
X75704602Y-78710000D01*
G37*
G36*
X77204000Y-80760000D02*
G01*
X77204000Y-81310000D01*
X77203398Y-81310000D01*
X77203398Y-81334534D01*
X77198588Y-81383365D01*
X77189016Y-81431490D01*
X77174772Y-81478445D01*
X77155995Y-81523778D01*
X77132864Y-81567051D01*
X77105604Y-81607850D01*
X77074476Y-81645779D01*
X77039779Y-81680476D01*
X77001850Y-81711604D01*
X76961051Y-81738864D01*
X76917778Y-81761995D01*
X76872445Y-81780772D01*
X76825490Y-81795016D01*
X76777365Y-81804588D01*
X76728534Y-81809398D01*
X76704000Y-81809398D01*
X76704000Y-81810000D01*
X76204000Y-81810000D01*
X76204000Y-81809398D01*
X76179466Y-81809398D01*
X76130635Y-81804588D01*
X76082510Y-81795016D01*
X76035555Y-81780772D01*
X75990222Y-81761995D01*
X75946949Y-81738864D01*
X75906150Y-81711604D01*
X75868221Y-81680476D01*
X75833524Y-81645779D01*
X75802396Y-81607850D01*
X75775136Y-81567051D01*
X75752005Y-81523778D01*
X75733228Y-81478445D01*
X75718984Y-81431490D01*
X75709412Y-81383365D01*
X75704602Y-81334534D01*
X75704602Y-81310000D01*
X75704000Y-81310000D01*
X75704000Y-80760000D01*
X77204000Y-80760000D01*
G37*
D50*
X76962000Y-89789000D03*
D24*
G36*
X77711398Y-91089000D02*
G01*
X77711398Y-91113534D01*
X77706588Y-91162365D01*
X77697016Y-91210490D01*
X77682772Y-91257445D01*
X77663995Y-91302778D01*
X77640864Y-91346051D01*
X77613604Y-91386850D01*
X77582476Y-91424779D01*
X77547779Y-91459476D01*
X77509850Y-91490604D01*
X77469051Y-91517864D01*
X77425778Y-91540995D01*
X77380445Y-91559772D01*
X77333490Y-91574016D01*
X77285365Y-91583588D01*
X77236534Y-91588398D01*
X77212000Y-91588398D01*
X77212000Y-91589000D01*
X76712000Y-91589000D01*
X76712000Y-91588398D01*
X76687466Y-91588398D01*
X76638635Y-91583588D01*
X76590510Y-91574016D01*
X76543555Y-91559772D01*
X76498222Y-91540995D01*
X76454949Y-91517864D01*
X76414150Y-91490604D01*
X76376221Y-91459476D01*
X76341524Y-91424779D01*
X76310396Y-91386850D01*
X76283136Y-91346051D01*
X76260005Y-91302778D01*
X76241228Y-91257445D01*
X76226984Y-91210490D01*
X76217412Y-91162365D01*
X76212602Y-91113534D01*
X76212602Y-91089000D01*
X76212000Y-91089000D01*
X76212000Y-90539000D01*
X77712000Y-90539000D01*
X77712000Y-91089000D01*
X77711398Y-91089000D01*
G37*
G36*
X76212000Y-89039000D02*
G01*
X76212000Y-88489000D01*
X76212602Y-88489000D01*
X76212602Y-88464466D01*
X76217412Y-88415635D01*
X76226984Y-88367510D01*
X76241228Y-88320555D01*
X76260005Y-88275222D01*
X76283136Y-88231949D01*
X76310396Y-88191150D01*
X76341524Y-88153221D01*
X76376221Y-88118524D01*
X76414150Y-88087396D01*
X76454949Y-88060136D01*
X76498222Y-88037005D01*
X76543555Y-88018228D01*
X76590510Y-88003984D01*
X76638635Y-87994412D01*
X76687466Y-87989602D01*
X76712000Y-87989602D01*
X76712000Y-87989000D01*
X77212000Y-87989000D01*
X77212000Y-87989602D01*
X77236534Y-87989602D01*
X77285365Y-87994412D01*
X77333490Y-88003984D01*
X77380445Y-88018228D01*
X77425778Y-88037005D01*
X77469051Y-88060136D01*
X77509850Y-88087396D01*
X77547779Y-88118524D01*
X77582476Y-88153221D01*
X77613604Y-88191150D01*
X77640864Y-88231949D01*
X77663995Y-88275222D01*
X77682772Y-88320555D01*
X77697016Y-88367510D01*
X77706588Y-88415635D01*
X77711398Y-88464466D01*
X77711398Y-88489000D01*
X77712000Y-88489000D01*
X77712000Y-89039000D01*
X76212000Y-89039000D01*
G37*
G36*
X83390500Y-89547602D02*
G01*
X83415034Y-89547602D01*
X83463865Y-89552412D01*
X83511990Y-89561984D01*
X83558945Y-89576228D01*
X83604278Y-89595005D01*
X83647551Y-89618136D01*
X83688350Y-89645396D01*
X83726279Y-89676524D01*
X83760976Y-89711221D01*
X83792104Y-89749150D01*
X83819364Y-89789949D01*
X83842495Y-89833222D01*
X83861272Y-89878555D01*
X83875516Y-89925510D01*
X83885088Y-89973635D01*
X83889898Y-90022466D01*
X83889898Y-90047000D01*
X83890500Y-90047000D01*
X83890500Y-90547000D01*
X83889898Y-90547000D01*
X83889898Y-90571534D01*
X83885088Y-90620365D01*
X83875516Y-90668490D01*
X83861272Y-90715445D01*
X83842495Y-90760778D01*
X83819364Y-90804051D01*
X83792104Y-90844850D01*
X83760976Y-90882779D01*
X83726279Y-90917476D01*
X83688350Y-90948604D01*
X83647551Y-90975864D01*
X83604278Y-90998995D01*
X83558945Y-91017772D01*
X83511990Y-91032016D01*
X83463865Y-91041588D01*
X83415034Y-91046398D01*
X83390500Y-91046398D01*
X83390500Y-91047000D01*
X82890500Y-91047000D01*
X82890500Y-89547000D01*
X83390500Y-89547000D01*
X83390500Y-89547602D01*
G37*
G36*
X82590500Y-91047000D02*
G01*
X82090500Y-91047000D01*
X82090500Y-91046398D01*
X82065966Y-91046398D01*
X82017135Y-91041588D01*
X81969010Y-91032016D01*
X81922055Y-91017772D01*
X81876722Y-90998995D01*
X81833449Y-90975864D01*
X81792650Y-90948604D01*
X81754721Y-90917476D01*
X81720024Y-90882779D01*
X81688896Y-90844850D01*
X81661636Y-90804051D01*
X81638505Y-90760778D01*
X81619728Y-90715445D01*
X81605484Y-90668490D01*
X81595912Y-90620365D01*
X81591102Y-90571534D01*
X81591102Y-90547000D01*
X81590500Y-90547000D01*
X81590500Y-90047000D01*
X81591102Y-90047000D01*
X81591102Y-90022466D01*
X81595912Y-89973635D01*
X81605484Y-89925510D01*
X81619728Y-89878555D01*
X81638505Y-89833222D01*
X81661636Y-89789949D01*
X81688896Y-89749150D01*
X81720024Y-89711221D01*
X81754721Y-89676524D01*
X81792650Y-89645396D01*
X81833449Y-89618136D01*
X81876722Y-89595005D01*
X81922055Y-89576228D01*
X81969010Y-89561984D01*
X82017135Y-89552412D01*
X82065966Y-89547602D01*
X82090500Y-89547602D01*
X82090500Y-89547000D01*
X82590500Y-89547000D01*
X82590500Y-91047000D01*
G37*
D51*
X85141000Y-64548000D03*
D52*
X96741000Y-66548000D03*
X94241000Y-66548000D03*
X91741000Y-66548000D03*
X89241000Y-66548000D03*
G36*
G01*
X85891000Y-67273000D02*
X85891000Y-65823000D01*
G75*
G02*
X86141000Y-65573000I250000J0D01*
G01*
X87341000Y-65573000D01*
G75*
G02*
X87591000Y-65823000I0J-250000D01*
G01*
X87591000Y-67273000D01*
G75*
G02*
X87341000Y-67523000I-250000J0D01*
G01*
X86141000Y-67523000D01*
G75*
G02*
X85891000Y-67273000I0J250000D01*
G01*
G37*
D53*
X75694000Y-51323000D03*
X75694000Y-49323000D03*
X75694000Y-47323000D03*
X75694000Y-45323000D03*
X75694000Y-43323000D03*
X75694000Y-41323000D03*
X75694000Y-39323000D03*
X75694000Y-37323000D03*
X91694000Y-37323000D03*
X91694000Y-39323000D03*
X91694000Y-41323000D03*
X91694000Y-43323000D03*
X91694000Y-45323000D03*
X91694000Y-47323000D03*
X91694000Y-49323000D03*
X91694000Y-51323000D03*
D54*
X83058000Y-110490000D03*
X83058000Y-113030000D03*
X83058000Y-115570000D03*
G36*
G01*
X81958000Y-118560000D02*
X81958000Y-117660000D01*
G75*
G02*
X82408000Y-117210000I450000J0D01*
G01*
X83708000Y-117210000D01*
G75*
G02*
X84158000Y-117660000I0J-450000D01*
G01*
X84158000Y-118560000D01*
G75*
G02*
X83708000Y-119010000I-450000J0D01*
G01*
X82408000Y-119010000D01*
G75*
G02*
X81958000Y-118560000I0J450000D01*
G01*
G37*
D10*
X86360000Y-112141000D03*
X88900000Y-112141000D03*
X91440000Y-112141000D03*
X91440000Y-119761000D03*
X88900000Y-119761000D03*
D37*
X86360000Y-119761000D03*
D52*
X36235000Y-74803000D03*
X38735000Y-74803000D03*
X41235000Y-74803000D03*
G36*
G01*
X44585000Y-74078000D02*
X44585000Y-75528000D01*
G75*
G02*
X44335000Y-75778000I-250000J0D01*
G01*
X43135000Y-75778000D01*
G75*
G02*
X42885000Y-75528000I0J250000D01*
G01*
X42885000Y-74078000D01*
G75*
G02*
X43135000Y-73828000I250000J0D01*
G01*
X44335000Y-73828000D01*
G75*
G02*
X44585000Y-74078000I0J-250000D01*
G01*
G37*
D11*
X82540000Y-59563000D03*
X80000000Y-59563000D03*
X77460000Y-59563000D03*
D34*
X45466000Y-64008000D03*
X45466000Y-66548000D03*
D35*
X45466000Y-69088000D03*
D17*
X49911000Y-64008000D03*
X49911000Y-66548000D03*
D18*
X49911000Y-69088000D03*
D42*
X116078000Y-47371000D03*
X116078000Y-49911000D03*
D43*
X116078000Y-52451000D03*
D44*
X99418000Y-49911000D03*
D17*
X91059000Y-124587000D03*
X88519000Y-124587000D03*
X85979000Y-124587000D03*
D18*
X83439000Y-124587000D03*
D17*
X124206000Y-120904000D03*
X121666000Y-120904000D03*
X124206000Y-118364000D03*
X121666000Y-118364000D03*
X124206000Y-115824000D03*
X121666000Y-115824000D03*
X124206000Y-113284000D03*
X121666000Y-113284000D03*
X124206000Y-110744000D03*
X121666000Y-110744000D03*
X124206000Y-108204000D03*
X121666000Y-108204000D03*
X124206000Y-105664000D03*
X121666000Y-105664000D03*
X124206000Y-103124000D03*
X121666000Y-103124000D03*
X124206000Y-100584000D03*
X121666000Y-100584000D03*
X124206000Y-98044000D03*
X121666000Y-98044000D03*
X124206000Y-95504000D03*
X121666000Y-95504000D03*
X124206000Y-92964000D03*
X121666000Y-92964000D03*
X124206000Y-90424000D03*
X121666000Y-90424000D03*
X124206000Y-87884000D03*
X121666000Y-87884000D03*
X124206000Y-85344000D03*
X121666000Y-85344000D03*
X124206000Y-82804000D03*
X121666000Y-82804000D03*
X124206000Y-80264000D03*
X121666000Y-80264000D03*
X124206000Y-77724000D03*
X121666000Y-77724000D03*
X124206000Y-75184000D03*
X121666000Y-75184000D03*
X124206000Y-72644000D03*
X121666000Y-72644000D03*
X124206000Y-70104000D03*
X121666000Y-70104000D03*
X124206000Y-67564000D03*
X121666000Y-67564000D03*
X124206000Y-65024000D03*
X121666000Y-65024000D03*
X124206000Y-62484000D03*
X121666000Y-62484000D03*
X124206000Y-59944000D03*
D18*
X121666000Y-59944000D03*
D55*
X108077000Y-74168000D03*
X118237000Y-74168000D03*
X113157000Y-74168000D03*
X108077000Y-81788000D03*
X118237000Y-81788000D03*
X113157000Y-81788000D03*
X100457000Y-74168000D03*
D56*
X100457000Y-81788000D03*
D54*
X45500000Y-54310000D03*
X45500000Y-51770000D03*
X45500000Y-49230000D03*
D57*
X45500000Y-46690000D03*
G36*
G01*
X38969000Y-43421000D02*
X38969000Y-41671000D01*
G75*
G02*
X39844000Y-40796000I875000J0D01*
G01*
X41594000Y-40796000D01*
G75*
G02*
X42469000Y-41671000I0J-875000D01*
G01*
X42469000Y-43421000D01*
G75*
G02*
X41594000Y-44296000I-875000J0D01*
G01*
X39844000Y-44296000D01*
G75*
G02*
X38969000Y-43421000I0J875000D01*
G01*
G37*
G36*
G01*
X36219000Y-38846000D02*
X36219000Y-36846000D01*
G75*
G02*
X36969000Y-36096000I750000J0D01*
G01*
X38469000Y-36096000D01*
G75*
G02*
X39219000Y-36846000I0J-750000D01*
G01*
X39219000Y-38846000D01*
G75*
G02*
X38469000Y-39596000I-750000J0D01*
G01*
X36969000Y-39596000D01*
G75*
G02*
X36219000Y-38846000I0J750000D01*
G01*
G37*
D58*
X43719000Y-37846000D03*
D55*
X108077000Y-63500000D03*
X118237000Y-63500000D03*
X113157000Y-63500000D03*
X108077000Y-71120000D03*
X118237000Y-71120000D03*
X113157000Y-71120000D03*
X100457000Y-63500000D03*
D56*
X100457000Y-71120000D03*
D17*
X65024000Y-63881000D03*
D18*
X65024000Y-66421000D03*
D55*
X108077000Y-84836000D03*
X118237000Y-84836000D03*
X113157000Y-84836000D03*
X108077000Y-92456000D03*
X118237000Y-92456000D03*
X113157000Y-92456000D03*
X100457000Y-84836000D03*
D56*
X100457000Y-92456000D03*
D10*
X105537000Y-98171000D03*
D37*
X108077000Y-98171000D03*
D10*
X117729000Y-98171000D03*
D37*
X115189000Y-98171000D03*
M02*
