G04 #@! TF.GenerationSoftware,KiCad,Pcbnew,(5.1.5)-3*
G04 #@! TF.CreationDate,2020-04-16T21:33:31+02:00*
G04 #@! TF.ProjectId,labAThome,6c616241-5468-46f6-9d65-2e6b69636164,rev?*
G04 #@! TF.SameCoordinates,Original*
G04 #@! TF.FileFunction,Legend,Bot*
G04 #@! TF.FilePolarity,Positive*
%FSLAX46Y46*%
G04 Gerber Fmt 4.6, Leading zero omitted, Abs format (unit mm)*
G04 Created by KiCad (PCBNEW (5.1.5)-3) date 2020-04-16 21:33:31*
%MOMM*%
%LPD*%
G04 APERTURE LIST*
%ADD10C,0.120000*%
%ADD11C,0.150000*%
G04 APERTURE END LIST*
D10*
X71294000Y-101108000D02*
X66294000Y-101108000D01*
X76294000Y-106108000D02*
X71294000Y-101108000D01*
X76294000Y-116108000D02*
X76294000Y-106108000D01*
X71294000Y-121108000D02*
X76294000Y-116108000D01*
X61294000Y-121108000D02*
X71294000Y-121108000D01*
X56294000Y-116108000D02*
X61294000Y-121108000D01*
X56294000Y-106108000D02*
X56294000Y-116108000D01*
X61294000Y-101108000D02*
X56294000Y-106108000D01*
X66294000Y-101108000D02*
X61294000Y-101108000D01*
X120500000Y-42000000D02*
X110000000Y-42000000D01*
X110000000Y-46000000D02*
X120500000Y-46000000D01*
X39500000Y-46000000D02*
X50000000Y-46000000D01*
X50000000Y-42000000D02*
X39500000Y-42000000D01*
X110000000Y-51000000D02*
X50000000Y-51000000D01*
X110000000Y-49000000D02*
X50000000Y-49000000D01*
X110000000Y-47000000D02*
X50000000Y-47000000D01*
X50000000Y-35000000D02*
X110000000Y-35000000D01*
X110000000Y-36000000D02*
X50000000Y-36000000D01*
X110000000Y-37000000D02*
X110000000Y-36000000D01*
X50000000Y-37000000D02*
X110000000Y-37000000D01*
X110000000Y-39000000D02*
X50000000Y-39000000D01*
X50000000Y-41000000D02*
X110000000Y-41000000D01*
X50000000Y-44000000D02*
X50000000Y-41000000D01*
X110000000Y-44000000D02*
X50000000Y-44000000D01*
X110000000Y-56000000D02*
X110000000Y-34000000D01*
X50000000Y-56000000D02*
X110000000Y-56000000D01*
X50000000Y-34000000D02*
X50000000Y-56000000D01*
X110000000Y-34000000D02*
X50000000Y-34000000D01*
X84896000Y-76140000D02*
X83566000Y-76140000D01*
X84896000Y-77470000D02*
X84896000Y-76140000D01*
X84896000Y-78740000D02*
X82236000Y-78740000D01*
X82236000Y-78740000D02*
X82236000Y-91500000D01*
X84896000Y-78740000D02*
X84896000Y-91500000D01*
X84896000Y-91500000D02*
X82236000Y-91500000D01*
X71458000Y-123952000D02*
X71348000Y-123952000D01*
X59098000Y-123952000D02*
X59208000Y-123952000D01*
X71348000Y-126322000D02*
X59208000Y-126322000D01*
X71348000Y-121582000D02*
X71348000Y-126322000D01*
X59208000Y-121582000D02*
X71348000Y-121582000D01*
X59208000Y-126322000D02*
X59208000Y-121582000D01*
X121779963Y-54687242D02*
G75*
G02X121766000Y-50478000I1386037J2109242D01*
G01*
X124552037Y-50468758D02*
G75*
G02X124566000Y-54678000I-1386037J-2109242D01*
G01*
X121766000Y-54678000D02*
X124566000Y-54678000D01*
X121766000Y-50478000D02*
X124566000Y-50478000D01*
X73018000Y-97790000D02*
X75558000Y-97790000D01*
X73018000Y-95250000D02*
X75558000Y-95250000D01*
X73018000Y-92710000D02*
X75558000Y-92710000D01*
X57128000Y-100370000D02*
X73018000Y-100370000D01*
X57128000Y-90130000D02*
X73018000Y-90130000D01*
X57128000Y-90130000D02*
X57128000Y-100370000D01*
X73018000Y-90130000D02*
X73018000Y-100370000D01*
X110848000Y-67306000D02*
X108608000Y-67306000D01*
X110848000Y-67066000D02*
X108608000Y-67066000D01*
X110848000Y-67186000D02*
X108608000Y-67186000D01*
X109728000Y-63016000D02*
X109728000Y-63666000D01*
X109728000Y-68556000D02*
X109728000Y-67906000D01*
X110848000Y-63666000D02*
X110848000Y-67906000D01*
X108608000Y-63666000D02*
X110848000Y-63666000D01*
X108608000Y-67906000D02*
X108608000Y-63666000D01*
X110848000Y-67906000D02*
X108608000Y-67906000D01*
X75152000Y-86768000D02*
X75152000Y-89508000D01*
X75152000Y-89508000D02*
X68612000Y-89508000D01*
X68612000Y-89508000D02*
X68612000Y-86768000D01*
X68612000Y-86768000D02*
X75152000Y-86768000D01*
X75922000Y-88138000D02*
X75152000Y-88138000D01*
X67842000Y-88138000D02*
X68612000Y-88138000D01*
X67842000Y-84836000D02*
X68612000Y-84836000D01*
X75922000Y-84836000D02*
X75152000Y-84836000D01*
X68612000Y-83466000D02*
X75152000Y-83466000D01*
X68612000Y-86206000D02*
X68612000Y-83466000D01*
X75152000Y-86206000D02*
X68612000Y-86206000D01*
X75152000Y-83466000D02*
X75152000Y-86206000D01*
D11*
X66246380Y-107060380D02*
X65246380Y-107060380D01*
X65246380Y-107441333D01*
X65294000Y-107536571D01*
X65341619Y-107584190D01*
X65436857Y-107631809D01*
X65579714Y-107631809D01*
X65674952Y-107584190D01*
X65722571Y-107536571D01*
X65770190Y-107441333D01*
X65770190Y-107060380D01*
X65246380Y-108250857D02*
X65246380Y-108441333D01*
X65294000Y-108536571D01*
X65389238Y-108631809D01*
X65579714Y-108679428D01*
X65913047Y-108679428D01*
X66103523Y-108631809D01*
X66198761Y-108536571D01*
X66246380Y-108441333D01*
X66246380Y-108250857D01*
X66198761Y-108155619D01*
X66103523Y-108060380D01*
X65913047Y-108012761D01*
X65579714Y-108012761D01*
X65389238Y-108060380D01*
X65294000Y-108155619D01*
X65246380Y-108250857D01*
X65246380Y-109012761D02*
X66246380Y-109250857D01*
X65532095Y-109441333D01*
X66246380Y-109631809D01*
X65246380Y-109869904D01*
X65722571Y-110250857D02*
X65722571Y-110584190D01*
X66246380Y-110727047D02*
X66246380Y-110250857D01*
X65246380Y-110250857D01*
X65246380Y-110727047D01*
X66246380Y-111727047D02*
X65770190Y-111393714D01*
X66246380Y-111155619D02*
X65246380Y-111155619D01*
X65246380Y-111536571D01*
X65294000Y-111631809D01*
X65341619Y-111679428D01*
X65436857Y-111727047D01*
X65579714Y-111727047D01*
X65674952Y-111679428D01*
X65722571Y-111631809D01*
X65770190Y-111536571D01*
X65770190Y-111155619D01*
X66341619Y-111917523D02*
X66341619Y-112679428D01*
X66246380Y-113393714D02*
X66246380Y-112917523D01*
X65246380Y-112917523D01*
X65722571Y-113727047D02*
X65722571Y-114060380D01*
X66246380Y-114203238D02*
X66246380Y-113727047D01*
X65246380Y-113727047D01*
X65246380Y-114203238D01*
X66246380Y-114631809D02*
X65246380Y-114631809D01*
X65246380Y-114869904D01*
X65294000Y-115012761D01*
X65389238Y-115108000D01*
X65484476Y-115155619D01*
X65674952Y-115203238D01*
X65817809Y-115203238D01*
X66008285Y-115155619D01*
X66103523Y-115108000D01*
X66198761Y-115012761D01*
X66246380Y-114869904D01*
X66246380Y-114631809D01*
X83880952Y-43047619D02*
X83833333Y-43000000D01*
X83738095Y-42952380D01*
X83500000Y-42952380D01*
X83404761Y-43000000D01*
X83357142Y-43047619D01*
X83309523Y-43142857D01*
X83309523Y-43238095D01*
X83357142Y-43380952D01*
X83928571Y-43952380D01*
X83309523Y-43952380D01*
X82928571Y-43047619D02*
X82880952Y-43000000D01*
X82785714Y-42952380D01*
X82547619Y-42952380D01*
X82452380Y-43000000D01*
X82404761Y-43047619D01*
X82357142Y-43142857D01*
X82357142Y-43238095D01*
X82404761Y-43380952D01*
X82976190Y-43952380D01*
X82357142Y-43952380D01*
X81357142Y-43952380D02*
X81690476Y-43476190D01*
X81928571Y-43952380D02*
X81928571Y-42952380D01*
X81547619Y-42952380D01*
X81452380Y-43000000D01*
X81404761Y-43047619D01*
X81357142Y-43142857D01*
X81357142Y-43285714D01*
X81404761Y-43380952D01*
X81452380Y-43428571D01*
X81547619Y-43476190D01*
X81928571Y-43476190D01*
X80880952Y-43904761D02*
X80880952Y-43952380D01*
X80928571Y-44047619D01*
X80976190Y-44095238D01*
X79166666Y-43952380D02*
X79738095Y-43952380D01*
X79452380Y-43952380D02*
X79452380Y-42952380D01*
X79547619Y-43095238D01*
X79642857Y-43190476D01*
X79738095Y-43238095D01*
X78547619Y-42952380D02*
X78452380Y-42952380D01*
X78357142Y-43000000D01*
X78309523Y-43047619D01*
X78261904Y-43142857D01*
X78214285Y-43333333D01*
X78214285Y-43571428D01*
X78261904Y-43761904D01*
X78309523Y-43857142D01*
X78357142Y-43904761D01*
X78452380Y-43952380D01*
X78547619Y-43952380D01*
X78642857Y-43904761D01*
X78690476Y-43857142D01*
X78738095Y-43761904D01*
X78785714Y-43571428D01*
X78785714Y-43333333D01*
X78738095Y-43142857D01*
X78690476Y-43047619D01*
X78642857Y-43000000D01*
X78547619Y-42952380D01*
X77595238Y-42952380D02*
X77500000Y-42952380D01*
X77404761Y-43000000D01*
X77357142Y-43047619D01*
X77309523Y-43142857D01*
X77261904Y-43333333D01*
X77261904Y-43571428D01*
X77309523Y-43761904D01*
X77357142Y-43857142D01*
X77404761Y-43904761D01*
X77500000Y-43952380D01*
X77595238Y-43952380D01*
X77690476Y-43904761D01*
X77738095Y-43857142D01*
X77785714Y-43761904D01*
X77833333Y-43571428D01*
X77833333Y-43333333D01*
X77785714Y-43142857D01*
X77738095Y-43047619D01*
X77690476Y-43000000D01*
X77595238Y-42952380D01*
X76928571Y-42952380D02*
X76690476Y-43952380D01*
X76500000Y-43238095D01*
X76309523Y-43952380D01*
X76071428Y-42952380D01*
X85946952Y-92428571D02*
X85804095Y-92476190D01*
X85756476Y-92523809D01*
X85708857Y-92619047D01*
X85708857Y-92761904D01*
X85756476Y-92857142D01*
X85804095Y-92904761D01*
X85899333Y-92952380D01*
X86280285Y-92952380D01*
X86280285Y-91952380D01*
X85946952Y-91952380D01*
X85851714Y-92000000D01*
X85804095Y-92047619D01*
X85756476Y-92142857D01*
X85756476Y-92238095D01*
X85804095Y-92333333D01*
X85851714Y-92380952D01*
X85946952Y-92428571D01*
X86280285Y-92428571D01*
X85280285Y-92952380D02*
X85280285Y-91952380D01*
X84946952Y-92666666D01*
X84613619Y-91952380D01*
X84613619Y-92952380D01*
X84137428Y-92428571D02*
X83804095Y-92428571D01*
X83661238Y-92952380D02*
X84137428Y-92952380D01*
X84137428Y-91952380D01*
X83661238Y-91952380D01*
X83280285Y-92047619D02*
X83232666Y-92000000D01*
X83137428Y-91952380D01*
X82899333Y-91952380D01*
X82804095Y-92000000D01*
X82756476Y-92047619D01*
X82708857Y-92142857D01*
X82708857Y-92238095D01*
X82756476Y-92380952D01*
X83327904Y-92952380D01*
X82708857Y-92952380D01*
X82137428Y-92380952D02*
X82232666Y-92333333D01*
X82280285Y-92285714D01*
X82327904Y-92190476D01*
X82327904Y-92142857D01*
X82280285Y-92047619D01*
X82232666Y-92000000D01*
X82137428Y-91952380D01*
X81946952Y-91952380D01*
X81851714Y-92000000D01*
X81804095Y-92047619D01*
X81756476Y-92142857D01*
X81756476Y-92190476D01*
X81804095Y-92285714D01*
X81851714Y-92333333D01*
X81946952Y-92380952D01*
X82137428Y-92380952D01*
X82232666Y-92428571D01*
X82280285Y-92476190D01*
X82327904Y-92571428D01*
X82327904Y-92761904D01*
X82280285Y-92857142D01*
X82232666Y-92904761D01*
X82137428Y-92952380D01*
X81946952Y-92952380D01*
X81851714Y-92904761D01*
X81804095Y-92857142D01*
X81756476Y-92761904D01*
X81756476Y-92571428D01*
X81804095Y-92476190D01*
X81851714Y-92428571D01*
X81946952Y-92380952D01*
X81137428Y-91952380D02*
X81042190Y-91952380D01*
X80946952Y-92000000D01*
X80899333Y-92047619D01*
X80851714Y-92142857D01*
X80804095Y-92333333D01*
X80804095Y-92571428D01*
X80851714Y-92761904D01*
X80899333Y-92857142D01*
X80946952Y-92904761D01*
X81042190Y-92952380D01*
X81137428Y-92952380D01*
X81232666Y-92904761D01*
X81280285Y-92857142D01*
X81327904Y-92761904D01*
X81375523Y-92571428D01*
X81375523Y-92333333D01*
X81327904Y-92142857D01*
X81280285Y-92047619D01*
X81232666Y-92000000D01*
X81137428Y-91952380D01*
X67222476Y-123404380D02*
X67698666Y-123404380D01*
X67746285Y-123880571D01*
X67698666Y-123832952D01*
X67603428Y-123785333D01*
X67365333Y-123785333D01*
X67270095Y-123832952D01*
X67222476Y-123880571D01*
X67174857Y-123975809D01*
X67174857Y-124213904D01*
X67222476Y-124309142D01*
X67270095Y-124356761D01*
X67365333Y-124404380D01*
X67603428Y-124404380D01*
X67698666Y-124356761D01*
X67746285Y-124309142D01*
X66174857Y-124404380D02*
X66508190Y-123928190D01*
X66746285Y-124404380D02*
X66746285Y-123404380D01*
X66365333Y-123404380D01*
X66270095Y-123452000D01*
X66222476Y-123499619D01*
X66174857Y-123594857D01*
X66174857Y-123737714D01*
X66222476Y-123832952D01*
X66270095Y-123880571D01*
X66365333Y-123928190D01*
X66746285Y-123928190D01*
X64460571Y-124404380D02*
X65032000Y-124404380D01*
X64746285Y-124404380D02*
X64746285Y-123404380D01*
X64841523Y-123547238D01*
X64936761Y-123642476D01*
X65032000Y-123690095D01*
X64127238Y-123404380D02*
X63889142Y-124404380D01*
X63698666Y-123690095D01*
X63508190Y-124404380D01*
X63270095Y-123404380D01*
X125013619Y-55380000D02*
X125108857Y-55332380D01*
X125251714Y-55332380D01*
X125394571Y-55380000D01*
X125489809Y-55475238D01*
X125537428Y-55570476D01*
X125585047Y-55760952D01*
X125585047Y-55903809D01*
X125537428Y-56094285D01*
X125489809Y-56189523D01*
X125394571Y-56284761D01*
X125251714Y-56332380D01*
X125156476Y-56332380D01*
X125013619Y-56284761D01*
X124966000Y-56237142D01*
X124966000Y-55903809D01*
X125156476Y-55903809D01*
X124061238Y-56332380D02*
X124537428Y-56332380D01*
X124537428Y-55332380D01*
X123251714Y-55332380D02*
X123727904Y-55332380D01*
X123775523Y-55808571D01*
X123727904Y-55760952D01*
X123632666Y-55713333D01*
X123394571Y-55713333D01*
X123299333Y-55760952D01*
X123251714Y-55808571D01*
X123204095Y-55903809D01*
X123204095Y-56141904D01*
X123251714Y-56237142D01*
X123299333Y-56284761D01*
X123394571Y-56332380D01*
X123632666Y-56332380D01*
X123727904Y-56284761D01*
X123775523Y-56237142D01*
X122299333Y-55332380D02*
X122775523Y-55332380D01*
X122823142Y-55808571D01*
X122775523Y-55760952D01*
X122680285Y-55713333D01*
X122442190Y-55713333D01*
X122346952Y-55760952D01*
X122299333Y-55808571D01*
X122251714Y-55903809D01*
X122251714Y-56141904D01*
X122299333Y-56237142D01*
X122346952Y-56284761D01*
X122442190Y-56332380D01*
X122680285Y-56332380D01*
X122775523Y-56284761D01*
X122823142Y-56237142D01*
X121870761Y-55427619D02*
X121823142Y-55380000D01*
X121727904Y-55332380D01*
X121489809Y-55332380D01*
X121394571Y-55380000D01*
X121346952Y-55427619D01*
X121299333Y-55522857D01*
X121299333Y-55618095D01*
X121346952Y-55760952D01*
X121918380Y-56332380D01*
X121299333Y-56332380D01*
X120727904Y-55760952D02*
X120823142Y-55713333D01*
X120870761Y-55665714D01*
X120918380Y-55570476D01*
X120918380Y-55522857D01*
X120870761Y-55427619D01*
X120823142Y-55380000D01*
X120727904Y-55332380D01*
X120537428Y-55332380D01*
X120442190Y-55380000D01*
X120394571Y-55427619D01*
X120346952Y-55522857D01*
X120346952Y-55570476D01*
X120394571Y-55665714D01*
X120442190Y-55713333D01*
X120537428Y-55760952D01*
X120727904Y-55760952D01*
X120823142Y-55808571D01*
X120870761Y-55856190D01*
X120918380Y-55951428D01*
X120918380Y-56141904D01*
X120870761Y-56237142D01*
X120823142Y-56284761D01*
X120727904Y-56332380D01*
X120537428Y-56332380D01*
X120442190Y-56284761D01*
X120394571Y-56237142D01*
X120346952Y-56141904D01*
X120346952Y-55951428D01*
X120394571Y-55856190D01*
X120442190Y-55808571D01*
X120537428Y-55760952D01*
X108060380Y-63643142D02*
X108060380Y-63071714D01*
X108060380Y-63357428D02*
X107060380Y-63357428D01*
X107203238Y-63262190D01*
X107298476Y-63166952D01*
X107346095Y-63071714D01*
X108060380Y-64071714D02*
X107060380Y-64071714D01*
X108060380Y-64643142D01*
X107060380Y-64643142D01*
X107393714Y-65547904D02*
X108060380Y-65547904D01*
X107012761Y-65309809D02*
X107727047Y-65071714D01*
X107727047Y-65690761D01*
X108060380Y-66595523D02*
X108060380Y-66024095D01*
X108060380Y-66309809D02*
X107060380Y-66309809D01*
X107203238Y-66214571D01*
X107298476Y-66119333D01*
X107346095Y-66024095D01*
X107393714Y-67452666D02*
X108060380Y-67452666D01*
X107012761Y-67214571D02*
X107727047Y-66976476D01*
X107727047Y-67595523D01*
X107488952Y-68119333D02*
X107441333Y-68024095D01*
X107393714Y-67976476D01*
X107298476Y-67928857D01*
X107250857Y-67928857D01*
X107155619Y-67976476D01*
X107108000Y-68024095D01*
X107060380Y-68119333D01*
X107060380Y-68309809D01*
X107108000Y-68405047D01*
X107155619Y-68452666D01*
X107250857Y-68500285D01*
X107298476Y-68500285D01*
X107393714Y-68452666D01*
X107441333Y-68405047D01*
X107488952Y-68309809D01*
X107488952Y-68119333D01*
X107536571Y-68024095D01*
X107584190Y-67976476D01*
X107679428Y-67928857D01*
X107869904Y-67928857D01*
X107965142Y-67976476D01*
X108012761Y-68024095D01*
X108060380Y-68119333D01*
X108060380Y-68309809D01*
X108012761Y-68405047D01*
X107965142Y-68452666D01*
X107869904Y-68500285D01*
X107679428Y-68500285D01*
X107584190Y-68452666D01*
X107536571Y-68405047D01*
X107488952Y-68309809D01*
X72096285Y-88590380D02*
X72667714Y-88590380D01*
X72382000Y-88590380D02*
X72382000Y-87590380D01*
X72477238Y-87733238D01*
X72572476Y-87828476D01*
X72667714Y-87876095D01*
X71667714Y-88590380D02*
X71667714Y-87590380D01*
X71096285Y-88590380D02*
X71524857Y-88018952D01*
X71096285Y-87590380D02*
X71667714Y-88161809D01*
X72572476Y-85288380D02*
X73143904Y-85288380D01*
X72858190Y-85288380D02*
X72858190Y-84288380D01*
X72953428Y-84431238D01*
X73048666Y-84526476D01*
X73143904Y-84574095D01*
X71953428Y-84288380D02*
X71858190Y-84288380D01*
X71762952Y-84336000D01*
X71715333Y-84383619D01*
X71667714Y-84478857D01*
X71620095Y-84669333D01*
X71620095Y-84907428D01*
X71667714Y-85097904D01*
X71715333Y-85193142D01*
X71762952Y-85240761D01*
X71858190Y-85288380D01*
X71953428Y-85288380D01*
X72048666Y-85240761D01*
X72096285Y-85193142D01*
X72143904Y-85097904D01*
X72191523Y-84907428D01*
X72191523Y-84669333D01*
X72143904Y-84478857D01*
X72096285Y-84383619D01*
X72048666Y-84336000D01*
X71953428Y-84288380D01*
X71191523Y-85288380D02*
X71191523Y-84288380D01*
X70620095Y-85288380D02*
X71048666Y-84716952D01*
X70620095Y-84288380D02*
X71191523Y-84859809D01*
M02*
