M48
; DRILL file {KiCad (5.1.8)-1} date 08/06/21 23:14:07
; FORMAT={-:-/ absolute / metric / decimal}
; #@! TF.CreationDate,2021-08-06T23:14:07+02:00
; #@! TF.GenerationSoftware,Kicad,Pcbnew,(5.1.8)-1
FMAT,2
METRIC
T1C0.400
T2C0.600
T3C0.700
T4C0.750
T5C0.800
T6C0.900
T7C0.950
T8C1.000
T9C1.020
T10C1.100
T11C1.300
T12C1.500
T13C1.600
T14C2.000
T15C3.500
T16C1.200
T17C2.000
T18C3.200
T19C3.400
T20C3.500
%
G90
G05
T1
X32.639Y-74.295
X32.639Y-75.565
X32.639Y-76.835
X35.306Y-121.031
X35.433Y-88.138
X36.195Y-65.278
X36.195Y-81.661
X36.602Y-101.574
X36.703Y-88.138
X36.703Y-89.662
X37.592Y-81.661
X38.862Y-81.661
X39.497Y-120.396
X40.132Y-81.661
X40.386Y-99.314
X40.55Y-67.056
X40.64Y-46.99
X40.894Y-65.278
X41.91Y-99.314
X43.18Y-46.99
X43.307Y-121.031
X43.561Y-99.314
X44.323Y-61.595
X46.482Y-80.391
X46.482Y-81.788
X46.482Y-83.312
X46.482Y-84.709
X46.482Y-85.979
X46.709Y-74.142
X47.117Y-71.247
X48.895Y-84.709
X48.895Y-85.979
X54.102Y-73.914
X54.61Y-72.39
X55.626Y-97.79
X56.515Y-89.027
X57.785Y-69.85
X57.785Y-72.39
X57.785Y-74.803
X58.293Y-77.47
X58.42Y-81.28
X58.42Y-83.82
X58.42Y-86.36
X58.42Y-88.9
X58.42Y-111.76
X58.42Y-114.3
X58.42Y-116.84
X58.42Y-119.38
X60.96Y-69.85
X60.96Y-72.39
X60.96Y-78.74
X60.96Y-81.28
X60.96Y-83.82
X60.96Y-86.36
X60.96Y-88.9
X60.96Y-91.44
X60.96Y-93.98
X60.96Y-111.76
X60.96Y-114.3
X60.96Y-116.84
X60.96Y-119.38
X60.96Y-125.095
X62.23Y-96.52
X64.008Y-102.743
X64.135Y-69.85
X64.135Y-81.28
X64.135Y-96.52
X64.135Y-111.76
X64.135Y-114.3
X64.135Y-116.84
X64.135Y-119.38
X64.897Y-105.537
X65.024Y-101.409
X66.548Y-102.743
X67.056Y-96.52
X67.31Y-49.53
X67.31Y-72.39
X67.31Y-75.565
X67.31Y-111.76
X67.31Y-114.3
X67.31Y-116.84
X67.31Y-119.38
X67.564Y-88.9
X69.088Y-102.743
X70.485Y-69.85
X70.485Y-72.39
X70.485Y-75.565
X70.485Y-78.74
X70.485Y-81.28
X70.485Y-86.36
X70.485Y-88.9
X70.485Y-91.44
X70.485Y-93.98
X70.485Y-99.06
X70.485Y-111.76
X70.485Y-114.3
X70.485Y-116.84
X70.485Y-119.38
X70.485Y-125.095
X71.12Y-31.115
X71.12Y-33.655
X73.66Y-31.115
X73.66Y-33.655
X73.66Y-67.31
X73.66Y-69.85
X73.66Y-72.39
X73.66Y-75.565
X73.66Y-78.74
X73.66Y-81.28
X73.66Y-86.36
X73.66Y-88.9
X73.66Y-91.44
X73.66Y-93.98
X73.66Y-96.52
X73.66Y-99.06
X73.66Y-111.76
X73.66Y-116.84
X73.66Y-119.38
X73.66Y-125.095
X76.2Y-54.61
X76.2Y-67.31
X76.2Y-69.85
X76.2Y-72.39
X76.2Y-116.84
X76.2Y-119.38
X76.2Y-125.095
X77.089Y-101.409
X78.105Y-99.695
X78.613Y-105.41
X78.74Y-38.1
X78.74Y-40.64
X78.74Y-43.18
X78.74Y-45.72
X78.74Y-51.435
X78.74Y-54.61
X78.74Y-67.31
X78.852Y-48.148
X80.01Y-128.27
X80.899Y-82.55
X81.026Y-77.851
X81.28Y-38.1
X81.28Y-40.64
X81.28Y-43.18
X81.28Y-45.72
X81.28Y-48.26
X81.28Y-54.61
X82.169Y-102.616
X82.423Y-69.85
X83.185Y-120.015
X83.185Y-122.555
X83.82Y-38.1
X83.82Y-40.64
X83.82Y-43.18
X83.82Y-45.72
X83.82Y-48.26
X83.82Y-54.61
X83.82Y-128.27
X84.709Y-49.784
X84.709Y-51.054
X84.958Y-90.937
X85.217Y-31.115
X85.217Y-33.782
X85.344Y-47.498
X85.725Y-122.555
X85.979Y-90.932
X86.042Y-109.601
X86.36Y-38.1
X86.36Y-40.64
X86.36Y-48.514
X86.36Y-49.784
X86.868Y-87.63
X87.122Y-105.474
X87.122Y-106.997
X87.122Y-108.394
X87.249Y-43.561
X87.249Y-44.831
X87.249Y-46.101
X87.376Y-33.782
X87.63Y-128.27
X88.265Y-122.555
X88.9Y-54.61
X88.9Y-116.332
X89.027Y-31.877
X89.027Y-33.782
X89.535Y-63.5
X89.535Y-108.394
X89.535Y-109.601
X90.043Y-48.133
X90.297Y-62.23
X90.805Y-54.61
X90.805Y-102.489
X90.805Y-122.555
X91.44Y-113.792
X91.44Y-115.57
X91.44Y-117.475
X91.44Y-128.27
X92.583Y-105.029
X92.964Y-64.77
X93.218Y-113.792
X93.345Y-115.57
X93.345Y-117.475
X93.345Y-122.555
X93.472Y-119.634
X93.853Y-105.029
X95.25Y-113.665
X95.25Y-115.57
X95.25Y-117.475
X95.25Y-122.555
X95.25Y-128.27
X95.631Y-62.484
X97.155Y-64.516
X97.409Y-85.598
X97.409Y-86.995
X97.409Y-88.392
X97.536Y-56.007
X98.171Y-93.091
X98.298Y-63.246
X98.298Y-68.961
X99.06Y-56.007
X99.06Y-128.27
X100.711Y-56.007
X101.6Y-88.9
X101.6Y-95.25
X102.489Y-56.007
X102.87Y-128.27
X103.759Y-85.344
X103.886Y-81.026
X104.14Y-56.007
X104.14Y-88.9
X104.14Y-101.6
X105.791Y-68.58
X105.918Y-56.007
X106.172Y-63.5
X106.553Y-79.629
X106.68Y-95.25
X106.68Y-128.27
X107.823Y-56.007
X109.093Y-68.58
X109.22Y-95.25
X109.982Y-79.121
X110.871Y-81.788
X112.268Y-56.642
X112.268Y-60.192
X113.157Y-101.092
X113.538Y-109.474
X114.3Y-67.31
X115.379Y-36.639
X115.379Y-38.227
X116.205Y-101.6
X116.84Y-67.31
X116.84Y-78.105
X116.967Y-54.61
X118.237Y-83.312
X118.745Y-94.234
X120.523Y-36.639
X120.523Y-38.227
X120.523Y-39.751
X120.587Y-41.402
X122.936Y-63.754
X122.936Y-81.534
X124.46Y-50.8
X125.158Y-36.639
X125.222Y-38.227
X125.222Y-39.814
X127.0Y-55.88
X127.0Y-58.42
X127.0Y-60.96
X127.0Y-63.5
X127.0Y-66.04
X127.0Y-68.58
X127.0Y-71.12
X127.0Y-73.66
X127.0Y-76.2
X127.0Y-78.74
X127.0Y-81.28
X127.0Y-83.82
X127.0Y-86.36
X127.0Y-88.9
X127.0Y-91.44
X127.0Y-93.98
X127.0Y-99.06
X127.0Y-106.68
T2
X61.067Y-74.783
T3
X100.457Y-84.836
X100.457Y-92.456
X108.077Y-84.836
X108.077Y-92.456
X113.157Y-84.836
X113.157Y-92.456
X118.237Y-84.836
X118.237Y-92.456
X100.457Y-63.5
X100.457Y-71.12
X108.077Y-63.5
X108.077Y-71.12
X113.157Y-63.5
X113.157Y-71.12
X118.237Y-63.5
X118.237Y-71.12
X100.457Y-74.168
X100.457Y-81.788
X108.077Y-74.168
X108.077Y-81.788
X113.157Y-74.168
X113.157Y-81.788
X118.237Y-74.168
X118.237Y-81.788
T4
X72.898Y-58.928
X74.168Y-58.928
X75.438Y-58.928
T5
X106.045Y-76.962
X106.045Y-89.662
X108.585Y-76.962
X108.585Y-89.662
X111.125Y-76.962
X111.125Y-89.662
X113.665Y-76.962
X113.665Y-89.662
T6
X115.189Y-98.171
X117.729Y-98.171
X108.331Y-105.156
X109.601Y-107.696
X110.871Y-105.156
X112.141Y-107.696
X113.411Y-105.156
X114.681Y-107.696
X72.898Y-38.989
X72.898Y-41.529
X72.898Y-44.069
X72.898Y-46.609
X72.898Y-49.149
X72.898Y-51.689
X94.398Y-41.289
X94.398Y-43.829
X94.398Y-46.369
X94.398Y-48.909
X94.398Y-51.449
X94.398Y-53.989
X105.537Y-98.171
X108.077Y-98.171
X122.491Y-44.704
X122.491Y-47.244
T7
X36.235Y-74.803
X38.735Y-74.803
X41.235Y-74.803
X43.735Y-74.803
X48.895Y-88.773
X48.895Y-91.273
X48.895Y-93.773
X48.895Y-96.273
X86.741Y-66.548
X89.241Y-66.548
X91.741Y-66.548
X94.241Y-66.548
X96.741Y-66.548
X98.425Y-103.451
X98.425Y-105.951
X98.425Y-108.451
X98.425Y-110.951
X98.425Y-113.451
X98.425Y-115.951
X48.895Y-75.311
X48.895Y-77.811
X48.895Y-80.311
X48.895Y-82.811
T8
X83.439Y-124.587
X85.979Y-124.587
X88.519Y-124.587
X91.059Y-124.587
X112.649Y-34.925
X112.649Y-37.465
X112.649Y-40.005
X112.649Y-42.545
X85.32Y-92.964
X87.82Y-92.964
X90.32Y-92.964
X77.46Y-61.722
X80.0Y-61.722
X82.54Y-61.722
X77.47Y-106.553
X77.47Y-109.093
X77.47Y-111.633
X77.47Y-114.173
X102.87Y-106.553
X102.87Y-109.093
X102.87Y-111.633
X102.87Y-114.173
X53.467Y-63.373
X56.007Y-63.373
X58.547Y-63.373
X61.087Y-63.373
X90.805Y-60.325
X93.345Y-60.325
X95.885Y-60.325
X98.425Y-60.325
X100.965Y-60.325
X103.505Y-60.325
X106.045Y-60.325
X108.585Y-60.325
X49.911Y-64.008
X49.911Y-66.548
X49.911Y-69.088
X86.36Y-112.141
X86.36Y-119.761
X88.9Y-112.141
X88.9Y-119.761
X91.44Y-112.141
X91.44Y-119.761
X36.322Y-54.864
X36.322Y-57.404
X36.322Y-59.944
X38.862Y-54.864
X38.862Y-57.404
X38.862Y-59.944
X113.919Y-56.388
X116.459Y-56.388
X118.999Y-56.388
X121.539Y-56.388
X124.079Y-56.388
X54.229Y-76.2
X54.229Y-78.74
X54.229Y-81.28
X54.229Y-83.82
X54.229Y-86.36
X54.229Y-88.9
X54.229Y-91.44
X54.229Y-93.98
X54.229Y-96.52
X54.229Y-99.06
X54.229Y-101.6
X54.229Y-104.14
X54.229Y-106.68
X54.229Y-109.22
X54.229Y-111.76
X54.229Y-114.3
X54.229Y-116.84
X54.229Y-119.38
X54.229Y-121.92
X79.629Y-76.2
X79.629Y-78.74
X79.629Y-81.28
X79.629Y-83.82
X79.629Y-86.36
X79.629Y-88.9
X79.629Y-91.44
X79.629Y-93.98
X79.629Y-96.52
X79.629Y-99.06
X79.629Y-101.6
X79.629Y-104.14
X79.629Y-106.68
X79.629Y-109.22
X79.629Y-111.76
X79.629Y-114.3
X79.629Y-116.84
X79.629Y-119.38
X79.629Y-121.92
X77.46Y-59.563
X80.0Y-59.563
X82.54Y-59.563
X83.058Y-110.49
X83.058Y-113.03
X83.058Y-115.57
X83.058Y-118.11
X121.666Y-59.944
X121.666Y-62.484
X121.666Y-65.024
X121.666Y-67.564
X121.666Y-70.104
X121.666Y-72.644
X121.666Y-75.184
X121.666Y-77.724
X121.666Y-80.264
X121.666Y-82.804
X121.666Y-85.344
X121.666Y-87.884
X121.666Y-90.424
X121.666Y-92.964
X121.666Y-95.504
X121.666Y-98.044
X121.666Y-100.584
X121.666Y-103.124
X121.666Y-105.664
X121.666Y-108.204
X121.666Y-110.744
X121.666Y-113.284
X121.666Y-115.824
X121.666Y-118.364
X121.666Y-120.904
X124.206Y-59.944
X124.206Y-62.484
X124.206Y-65.024
X124.206Y-67.564
X124.206Y-70.104
X124.206Y-72.644
X124.206Y-75.184
X124.206Y-77.724
X124.206Y-80.264
X124.206Y-82.804
X124.206Y-85.344
X124.206Y-87.884
X124.206Y-90.424
X124.206Y-92.964
X124.206Y-95.504
X124.206Y-98.044
X124.206Y-100.584
X124.206Y-103.124
X124.206Y-105.664
X124.206Y-108.204
X124.206Y-110.744
X124.206Y-113.284
X124.206Y-115.824
X124.206Y-118.364
X124.206Y-120.904
X54.61Y-34.29
X57.15Y-34.29
X59.69Y-34.29
X62.23Y-34.29
X37.0Y-95.0
X37.0Y-109.5
X39.5Y-95.0
X42.0Y-95.0
X42.0Y-109.5
X45.5Y-46.69
X45.5Y-49.23
X45.5Y-51.77
X45.5Y-54.31
X82.677Y-72.39
X82.677Y-74.93
X82.677Y-77.47
X82.677Y-80.01
X82.677Y-82.55
X82.677Y-85.09
X82.677Y-87.63
X50.8Y-34.925
X50.8Y-37.465
X50.8Y-40.005
X50.8Y-42.545
X109.22Y-34.925
X109.22Y-37.465
X109.22Y-40.005
X109.22Y-42.545
X96.901Y-95.948
X96.901Y-98.489
X65.024Y-63.881
X65.024Y-66.421
T9
X37.719Y-64.008
X37.719Y-66.548
X37.719Y-69.088
X45.466Y-64.008
X45.466Y-66.548
X45.466Y-69.088
T10
X56.642Y-111.76
X56.642Y-114.3
X56.642Y-116.84
X116.078Y-47.371
X116.078Y-49.911
X116.078Y-52.451
T11
X105.5Y-105.25
X105.5Y-110.25
X118.0Y-105.25
X118.0Y-110.25
X105.5Y-118.0
X105.5Y-123.0
X118.0Y-118.0
X118.0Y-123.0
X37.0Y-79.5
X37.0Y-92.0
X42.0Y-79.5
X42.0Y-92.0
X37.0Y-112.5
X37.0Y-125.0
X42.0Y-112.5
X42.0Y-125.0
T13
X40.3Y-50.5
X119.7Y-50.5
T14
X57.658Y-47.244
T16
X85.141Y-64.548
T17
X83.42Y-99.964
X92.221Y-99.964
X86.373Y-75.66
X86.373Y-79.66
X86.373Y-83.66
X87.623Y-73.66
X87.623Y-77.66
X87.623Y-81.66
X87.623Y-85.66
X88.873Y-71.66
X88.873Y-75.66
X88.873Y-79.66
X88.873Y-83.66
X88.873Y-87.66
X90.123Y-73.66
X90.123Y-77.66
X90.123Y-81.66
X90.123Y-85.66
X91.373Y-71.66
X91.373Y-75.66
X91.373Y-79.66
X91.373Y-83.66
X91.373Y-87.66
X92.623Y-73.66
X92.623Y-77.66
X92.623Y-81.66
X92.623Y-85.66
X93.873Y-71.66
X93.873Y-75.66
X93.873Y-79.66
X93.873Y-83.66
X93.873Y-87.66
X95.123Y-73.66
X95.123Y-77.66
X95.123Y-81.66
X95.123Y-85.66
X96.373Y-75.66
X96.373Y-79.66
X96.373Y-83.66
T18
X106.426Y-114.046
X116.586Y-114.046
T19
X49.276Y-122.482
X99.276Y-122.482
T20
X73.302Y-114.3
X99.418Y-49.911
T8
X37.719Y-36.846G85X37.719Y-38.846
G05
X39.719Y-42.546G85X41.719Y-42.546
G05
X43.719Y-36.846G85X43.719Y-38.846
G05
T12
X33.9Y-101.85G85X33.9Y-103.15
G05
X45.1Y-101.85G85X45.1Y-103.15
G05
T15
X57.0Y-40.5G85X59.0Y-40.5
G05
X101.0Y-40.5G85X103.0Y-40.5
G05
T0
M30
