M48
; DRILL file {KiCad (5.1.6)-1} date 07/25/20 18:05:41
; FORMAT={-:-/ absolute / inch / decimal}
; #@! TF.CreationDate,2020-07-25T18:05:41+02:00
; #@! TF.GenerationSoftware,Kicad,Pcbnew,(5.1.6)-1
FMAT,2
INCH
T1C0.0157
T2C0.0276
T3C0.0295
T4C0.0300
T5C0.0315
T6C0.0354
T7C0.0374
T8C0.0394
T9C0.0402
T10C0.0433
T11C0.0512
T12C0.0630
T13C0.1181
T14C0.1378
T15C0.1693
%
G90
G05
T1
X1.25Y-3.5
X1.25Y-3.7
X1.25Y-3.9
X1.25Y-4.1
X1.25Y-4.25
X1.3Y-3.1
X1.3Y-3.3
X1.5Y-1.85
X1.55Y-4.3
X1.55Y-4.4
X1.6Y-1.85
X1.6Y-3.3
X1.6Y-4.5
X1.6Y-4.6
X1.6Y-4.7
X1.6Y-4.8
X1.675Y-3.49
X1.7Y-1.85
X1.75Y-3.0
X1.75Y-3.1
X1.75Y-3.2
X1.75Y-3.7
X1.75Y-3.8
X1.75Y-3.9
X1.75Y-4.0
X1.8Y-3.53
X1.9Y-1.85
X2.0Y-1.85
X2.0Y-1.95
X2.0Y-2.05
X2.0Y-2.15
X2.0Y-2.25
X2.1Y-1.85
X2.1Y-1.95
X2.1Y-2.05
X2.1Y-2.15
X2.1Y-2.25
X2.3Y-3.1
X2.3Y-3.2
X2.3Y-3.3
X2.3Y-4.2
X2.3Y-4.3
X2.3Y-4.4
X2.3Y-4.5
X2.3Y-4.6
X2.3Y-4.7
X2.3Y-4.8
X2.355Y-3.725
X2.3598Y-3.6665
X2.39Y-3.695
X2.4Y-3.0
X2.4Y-3.1
X2.4Y-3.2
X2.4Y-3.3
X2.4Y-3.4
X2.4Y-3.5
X2.4Y-3.6
X2.4Y-4.15
X2.5Y-3.0
X2.5Y-3.1
X2.5Y-3.2
X2.5Y-4.15
X2.6Y-3.0
X2.6Y-3.1
X2.6Y-3.2
X2.6Y-4.15
X2.7Y-1.5
X2.7Y-1.6
X2.7Y-1.7
X2.7Y-1.8
X2.7Y-1.9
X2.7Y-3.0
X2.7Y-3.1
X2.7Y-3.2
X2.7Y-4.15
X2.8Y-1.5
X2.8Y-1.6
X2.8Y-1.7
X2.8Y-1.8
X2.8Y-1.9
X2.8Y-3.0
X2.8Y-3.1
X2.8Y-3.2
X2.8Y-4.15
X2.9Y-1.5
X2.9Y-1.6
X2.9Y-1.7
X2.9Y-1.8
X2.9Y-1.9
X2.9Y-3.0
X2.9Y-3.1
X2.9Y-3.2
X2.9Y-4.15
X3.0Y-1.5
X3.0Y-1.6
X3.0Y-1.7
X3.0Y-1.8
X3.0Y-1.9
X3.0Y-3.0
X3.0Y-3.1
X3.0Y-3.2
X3.0Y-4.15
X3.0Y-4.2
X3.0Y-4.3
X3.0Y-4.4
X3.0Y-4.5
X3.0Y-4.6
X3.0Y-4.7
X3.0Y-4.8
X3.055Y-3.45
X3.1Y-1.5
X3.1Y-1.6
X3.1Y-1.7
X3.1Y-1.8
X3.1Y-1.9
X3.2Y-3.15
X3.2Y-3.25
X3.3Y-4.4
X3.3Y-4.5
X3.3Y-4.6
X3.3Y-4.7
X3.3Y-4.8
X3.39Y-2.87
X3.4Y-4.8
X3.445Y-3.0261
X3.4454Y-2.969
X3.45Y-5.05
X3.465Y-3.275
X3.49Y-3.025
X3.5Y-3.9
X3.5Y-4.1
X3.5Y-4.2
X3.5Y-4.8
X3.6Y-3.3
X3.6Y-3.4
X3.6Y-3.5
X3.6Y-3.6
X3.6Y-3.9
X3.6Y-4.0
X3.6Y-4.3
X3.6Y-4.8
X3.6Y-5.05
X3.62Y-2.84
X3.665Y-2.84
X3.7Y-3.8
X3.7Y-3.9
X3.7Y-4.3
X3.7Y-4.6
X3.7Y-4.8
X3.71Y-2.84
X3.71Y-2.88
X3.71Y-2.92
X3.75Y-5.05
X3.8Y-3.3
X3.8Y-3.4
X3.8Y-3.6
X3.8Y-3.7
X3.8Y-4.4
X3.8Y-4.5
X3.8Y-4.7
X3.9Y-5.05
X4.05Y-5.05
X4.1Y-3.5
X4.1Y-4.0
X4.2Y-3.5
X4.2Y-4.0
X4.2Y-4.1
X4.2Y-4.2
X4.2Y-4.3
X4.2Y-4.6
X4.2Y-4.8
X4.2Y-5.05
X4.3Y-3.5
X4.3259Y-2.4131
X4.4Y-3.5
X4.4Y-4.0
X4.4Y-4.1
X4.555Y-2.81
X4.565Y-3.275
X4.6Y-4.8
X4.655Y-3.28
X4.66Y-3.445
X4.675Y-3.71
X4.8Y-1.5
X4.8Y-1.6
X4.8Y-1.7
X4.8Y-1.8
X4.8Y-1.9
X4.84Y-2.51
X4.84Y-3.21
X4.9Y-1.5
X4.9Y-1.6
X4.9Y-1.7
X4.9Y-1.8
X4.9Y-1.9
X4.9Y-2.0
X4.9Y-2.1
X5.0Y-2.1
X5.0Y-2.2
X5.0Y-2.3
X5.0Y-2.4
X5.0Y-2.5
X5.0Y-2.6
X5.0Y-2.7
X5.0Y-2.8
X5.0Y-2.9
X5.0Y-3.0
X5.0Y-3.1
X5.0Y-3.2
X5.0Y-3.3
X5.0Y-3.4
X5.0Y-3.5
X5.0Y-3.6
X5.0Y-3.7
X5.0Y-3.8
X5.0Y-3.9
X5.0Y-4.0
X5.0Y-4.1
X5.0Y-4.2
T2
X3.955Y-2.92
X3.955Y-3.22
X4.255Y-2.92
X4.255Y-3.22
X4.4546Y-3.22
X4.4554Y-2.9196
X4.655Y-3.22
X4.6554Y-2.9196
X3.955Y-3.34
X3.955Y-3.64
X4.255Y-3.34
X4.255Y-3.64
X4.4546Y-3.64
X4.4554Y-3.3396
X4.655Y-3.64
X4.6554Y-3.3396
X3.955Y-2.5
X3.955Y-2.8
X4.255Y-2.5
X4.255Y-2.8
X4.4546Y-2.8
X4.4554Y-2.4996
X4.655Y-2.8
X4.6554Y-2.4996
T3
X3.76Y-3.09
X3.76Y-3.19
X3.81Y-3.14
X1.4813Y-3.43
X1.56Y-3.43
X1.6387Y-3.43
X1.865Y-3.205
X1.9437Y-3.205
X2.0225Y-3.205
X1.4825Y-3.985
X1.5613Y-3.985
X1.64Y-3.985
T4
X4.485Y-2.22
X4.585Y-2.22
X4.685Y-2.22
X4.785Y-2.22
X4.885Y-2.22
T5
X1.865Y-3.015
X1.965Y-3.015
X3.96Y-4.35
X4.06Y-4.35
X1.99Y-3.53
X1.99Y-3.63
X1.87Y-3.32
X1.87Y-3.42
X1.99Y-3.32
X1.99Y-3.42
X3.5Y-2.91
X3.5Y-3.21
X3.84Y-2.45
X3.84Y-2.55
X1.865Y-4.09
X1.865Y-4.19
X1.87Y-3.53
X1.87Y-3.63
X2.6431Y-2.43
X2.84Y-2.43
X4.37Y-2.38
X4.67Y-2.38
X3.31Y-3.58
X3.31Y-3.68
X1.56Y-2.755
X1.56Y-2.855
X1.56Y-2.955
X4.77Y-4.91
X4.87Y-4.91
X3.62Y-2.91
X3.62Y-3.21
X1.985Y-4.09
X1.985Y-4.19
T6
X1.3775Y-2.7856
X1.3775Y-2.8841
X1.3775Y-2.9825
X3.96Y-4.16
X4.06Y-4.16
X3.96Y-4.54
X4.06Y-4.54
T7
X3.4797Y-2.75
X3.5781Y-2.75
X3.6766Y-2.75
X3.775Y-2.75
T8
X3.42Y-4.93
X3.52Y-4.93
X3.62Y-4.93
X3.72Y-4.93
X3.3726Y-3.8
X3.471Y-3.8
X3.5694Y-3.8
X3.0496Y-2.43
X3.1496Y-2.43
X3.2496Y-2.43
X3.4Y-4.43
X3.4Y-4.53
X3.4Y-4.63
X3.4Y-4.73
X4.4Y-4.43
X4.4Y-4.53
X4.4Y-4.63
X4.4Y-4.73
X2.12Y-4.885
X2.22Y-4.885
X3.5Y-4.43
X3.5Y-4.73
X3.6Y-4.43
X3.6Y-4.73
X3.7Y-4.43
X3.7Y-4.73
X1.7913Y-1.8382
X1.7913Y-1.9382
X1.7913Y-2.0382
X1.7913Y-2.1382
X3.275Y-2.85
X3.275Y-2.95
X3.275Y-3.05
X3.275Y-3.15
X3.275Y-3.25
X3.275Y-3.35
X3.275Y-3.45
X3.05Y-2.345
X3.15Y-2.345
X3.25Y-2.345
X2.07Y-2.5
X2.17Y-2.5
X2.27Y-2.5
X2.37Y-2.5
X1.55Y-2.14
X1.55Y-2.24
X1.55Y-2.34
X1.4Y-2.14
X1.4Y-2.24
X1.4Y-2.34
X4.79Y-2.36
X4.79Y-2.46
X4.79Y-2.56
X4.79Y-2.66
X4.79Y-2.76
X4.79Y-2.86
X4.79Y-2.96
X4.79Y-3.06
X4.79Y-3.16
X4.79Y-3.26
X4.79Y-3.36
X4.79Y-3.46
X4.79Y-3.56
X4.79Y-3.66
X4.79Y-3.76
X4.79Y-3.86
X4.79Y-3.96
X4.79Y-4.06
X4.79Y-4.16
X4.79Y-4.26
X4.79Y-4.36
X4.79Y-4.46
X4.79Y-4.56
X4.79Y-4.66
X4.79Y-4.76
X4.89Y-2.36
X4.89Y-2.46
X4.89Y-2.56
X4.89Y-2.66
X4.89Y-2.76
X4.89Y-2.86
X4.89Y-2.96
X4.89Y-3.06
X4.89Y-3.16
X4.89Y-3.26
X4.89Y-3.36
X4.89Y-3.46
X4.89Y-3.56
X4.89Y-3.66
X4.89Y-3.76
X4.89Y-3.86
X4.89Y-3.96
X4.89Y-4.06
X4.89Y-4.16
X4.89Y-4.26
X4.89Y-4.36
X4.89Y-4.46
X4.89Y-4.56
X4.89Y-4.66
X4.89Y-4.76
X2.47Y-2.5
X2.47Y-2.6
X2.15Y-3.0
X2.15Y-3.1
X2.15Y-3.2
X2.15Y-3.3
X2.15Y-3.4
X2.15Y-3.5
X2.15Y-3.6
X2.15Y-3.7
X2.15Y-3.8
X2.15Y-3.9
X2.15Y-4.0
X2.15Y-4.1
X2.15Y-4.2
X2.15Y-4.3
X2.15Y-4.4
X2.15Y-4.5
X2.15Y-4.6
X2.15Y-4.7
X2.15Y-4.8
X3.15Y-3.0
X3.15Y-3.1
X3.15Y-3.2
X3.15Y-3.3
X3.15Y-3.4
X3.15Y-3.5
X3.15Y-3.6
X3.15Y-3.7
X3.15Y-3.8
X3.15Y-3.9
X3.15Y-4.0
X3.15Y-4.1
X3.15Y-4.2
X3.15Y-4.3
X3.15Y-4.4
X3.15Y-4.5
X3.15Y-4.6
X3.15Y-4.7
X3.15Y-4.8
X3.515Y-3.505
X3.7748Y-3.505
X3.365Y-3.0
X3.365Y-3.1
X3.365Y-3.2
X3.365Y-3.3
X3.8Y-4.07
X3.8Y-4.17
X3.8Y-4.27
X1.885Y-1.365
X1.885Y-1.465
X1.885Y-1.565
X1.885Y-1.665
X1.705Y-2.37
X1.805Y-2.37
X1.905Y-2.37
X2.65Y-4.24
X2.65Y-4.9487
X2.0Y-4.275
X2.0Y-4.375
X2.0Y-4.475
X2.0Y-4.575
T9
X1.365Y-2.57
X1.465Y-2.57
X1.565Y-2.57
X1.71Y-2.54
X1.81Y-2.54
X1.91Y-2.54
X1.71Y-2.815
X1.81Y-2.815
X1.91Y-2.815
T10
X2.295Y-3.8
X2.295Y-3.9
X2.295Y-4.0
X2.6Y-2.54
X2.9Y-2.54
X2.295Y-3.375
X2.295Y-3.475
X2.295Y-3.575
X4.34Y-2.1
X4.44Y-2.1
X4.54Y-2.1
T11
X1.4567Y-3.7795
X1.4567Y-4.2717
X1.6535Y-3.7795
X1.6535Y-4.2717
X4.2991Y-3.7795
X4.2991Y-4.2717
X4.496Y-3.7795
X4.496Y-4.2717
X1.4567Y-4.4291
X1.4567Y-4.9213
X1.6535Y-4.4291
X1.6535Y-4.9213
X4.2991Y-4.4291
X4.2991Y-4.9213
X4.496Y-4.4291
X4.496Y-4.9213
X1.4567Y-3.1299
X1.4567Y-3.622
X1.6535Y-3.1299
X1.6535Y-3.622
T12
X1.5866Y-1.9882
X4.7126Y-1.9882
T13
X2.5543Y-1.387
X3.5385Y-1.387
T14
X4.44Y-1.4441
X2.9509Y-3.9
X2.9509Y-3.475
T15
X1.95Y-3.8479
X1.95Y-4.8321
X3.9185Y-3.8479
X3.9185Y-4.8321
T8
G00X1.485Y-1.4506
M15
G01X1.485Y-1.5294
M16
G05
G00X1.5637Y-1.675
M15
G01X1.6425Y-1.675
M16
G05
G00X1.7212Y-1.4506
M15
G01X1.7212Y-1.5294
M16
G05
T10
G00X3.282Y-4.0815
M15
G01X3.282Y-4.1091
M16
G05
G00X3.66Y-4.0815
M15
G01X3.66Y-4.1091
M16
G05
T14
G00X2.2441Y-1.5945
M15
G01X2.3228Y-1.5945
M16
G05
G00X3.9764Y-1.5945
M15
G01X4.0551Y-1.5945
M16
G05
T0
M30
