G04 #@! TF.GenerationSoftware,KiCad,Pcbnew,(5.1.6)-1*
G04 #@! TF.CreationDate,2020-08-11T21:47:18+02:00*
G04 #@! TF.ProjectId,labAThome,6c616241-5468-46f6-9d65-2e6b69636164,rev?*
G04 #@! TF.SameCoordinates,Original*
G04 #@! TF.FileFunction,Legend,Bot*
G04 #@! TF.FilePolarity,Positive*
%FSLAX46Y46*%
G04 Gerber Fmt 4.6, Leading zero omitted, Abs format (unit mm)*
G04 Created by KiCad (PCBNEW (5.1.6)-1) date 2020-08-11 21:47:18*
%MOMM*%
%LPD*%
G01*
G04 APERTURE LIST*
%ADD10C,0.200000*%
%ADD11C,0.300000*%
%ADD12C,0.150000*%
%ADD13C,0.120000*%
G04 APERTURE END LIST*
D10*
X83604761Y-69663571D02*
X84080952Y-69663571D01*
X84128571Y-70377857D01*
X84080952Y-70306428D01*
X83985714Y-70235000D01*
X83747619Y-70235000D01*
X83652380Y-70306428D01*
X83604761Y-70377857D01*
X83557142Y-70520714D01*
X83557142Y-70877857D01*
X83604761Y-71020714D01*
X83652380Y-71092142D01*
X83747619Y-71163571D01*
X83985714Y-71163571D01*
X84080952Y-71092142D01*
X84128571Y-71020714D01*
X83271428Y-69663571D02*
X82938095Y-71163571D01*
X82604761Y-69663571D01*
X81604761Y-69663571D02*
X80985714Y-69663571D01*
X81319047Y-70235000D01*
X81176190Y-70235000D01*
X81080952Y-70306428D01*
X81033333Y-70377857D01*
X80985714Y-70520714D01*
X80985714Y-70877857D01*
X81033333Y-71020714D01*
X81080952Y-71092142D01*
X81176190Y-71163571D01*
X81461904Y-71163571D01*
X81557142Y-71092142D01*
X81604761Y-71020714D01*
X80700000Y-69663571D02*
X80366666Y-71163571D01*
X80033333Y-69663571D01*
X79795238Y-69663571D02*
X79176190Y-69663571D01*
X79509523Y-70235000D01*
X79366666Y-70235000D01*
X79271428Y-70306428D01*
X79223809Y-70377857D01*
X79176190Y-70520714D01*
X79176190Y-70877857D01*
X79223809Y-71020714D01*
X79271428Y-71092142D01*
X79366666Y-71163571D01*
X79652380Y-71163571D01*
X79747619Y-71092142D01*
X79795238Y-71020714D01*
X77461904Y-69735000D02*
X77557142Y-69663571D01*
X77700000Y-69663571D01*
X77842857Y-69735000D01*
X77938095Y-69877857D01*
X77985714Y-70020714D01*
X78033333Y-70306428D01*
X78033333Y-70520714D01*
X77985714Y-70806428D01*
X77938095Y-70949285D01*
X77842857Y-71092142D01*
X77700000Y-71163571D01*
X77604761Y-71163571D01*
X77461904Y-71092142D01*
X77414285Y-71020714D01*
X77414285Y-70520714D01*
X77604761Y-70520714D01*
X76985714Y-71163571D02*
X76985714Y-69663571D01*
X76414285Y-71163571D01*
X76414285Y-69663571D01*
X75938095Y-71163571D02*
X75938095Y-69663571D01*
X75700000Y-69663571D01*
X75557142Y-69735000D01*
X75461904Y-69877857D01*
X75414285Y-70020714D01*
X75366666Y-70306428D01*
X75366666Y-70520714D01*
X75414285Y-70806428D01*
X75461904Y-70949285D01*
X75557142Y-71092142D01*
X75700000Y-71163571D01*
X75938095Y-71163571D01*
X74223809Y-71092142D02*
X74080952Y-71163571D01*
X73842857Y-71163571D01*
X73747619Y-71092142D01*
X73700000Y-71020714D01*
X73652380Y-70877857D01*
X73652380Y-70735000D01*
X73700000Y-70592142D01*
X73747619Y-70520714D01*
X73842857Y-70449285D01*
X74033333Y-70377857D01*
X74128571Y-70306428D01*
X74176190Y-70235000D01*
X74223809Y-70092142D01*
X74223809Y-69949285D01*
X74176190Y-69806428D01*
X74128571Y-69735000D01*
X74033333Y-69663571D01*
X73795238Y-69663571D01*
X73652380Y-69735000D01*
X72652380Y-71020714D02*
X72700000Y-71092142D01*
X72842857Y-71163571D01*
X72938095Y-71163571D01*
X73080952Y-71092142D01*
X73176190Y-70949285D01*
X73223809Y-70806428D01*
X73271428Y-70520714D01*
X73271428Y-70306428D01*
X73223809Y-70020714D01*
X73176190Y-69877857D01*
X73080952Y-69735000D01*
X72938095Y-69663571D01*
X72842857Y-69663571D01*
X72700000Y-69735000D01*
X72652380Y-69806428D01*
X71747619Y-71163571D02*
X72223809Y-71163571D01*
X72223809Y-69663571D01*
X70700000Y-71092142D02*
X70557142Y-71163571D01*
X70319047Y-71163571D01*
X70223809Y-71092142D01*
X70176190Y-71020714D01*
X70128571Y-70877857D01*
X70128571Y-70735000D01*
X70176190Y-70592142D01*
X70223809Y-70520714D01*
X70319047Y-70449285D01*
X70509523Y-70377857D01*
X70604761Y-70306428D01*
X70652380Y-70235000D01*
X70700000Y-70092142D01*
X70700000Y-69949285D01*
X70652380Y-69806428D01*
X70604761Y-69735000D01*
X70509523Y-69663571D01*
X70271428Y-69663571D01*
X70128571Y-69735000D01*
X69700000Y-71163571D02*
X69700000Y-69663571D01*
X69461904Y-69663571D01*
X69319047Y-69735000D01*
X69223809Y-69877857D01*
X69176190Y-70020714D01*
X69128571Y-70306428D01*
X69128571Y-70520714D01*
X69176190Y-70806428D01*
X69223809Y-70949285D01*
X69319047Y-71092142D01*
X69461904Y-71163571D01*
X69700000Y-71163571D01*
X68747619Y-70735000D02*
X68271428Y-70735000D01*
X68842857Y-71163571D02*
X68509523Y-69663571D01*
X68176190Y-71163571D01*
X55643857Y-68306142D02*
X54881952Y-68306142D01*
X53643857Y-68306142D02*
X52881952Y-68306142D01*
X53262904Y-68877571D02*
X53262904Y-67734714D01*
X51691476Y-68806142D02*
X51548619Y-68877571D01*
X51310523Y-68877571D01*
X51215285Y-68806142D01*
X51167666Y-68734714D01*
X51120047Y-68591857D01*
X51120047Y-68449000D01*
X51167666Y-68306142D01*
X51215285Y-68234714D01*
X51310523Y-68163285D01*
X51501000Y-68091857D01*
X51596238Y-68020428D01*
X51643857Y-67949000D01*
X51691476Y-67806142D01*
X51691476Y-67663285D01*
X51643857Y-67520428D01*
X51596238Y-67449000D01*
X51501000Y-67377571D01*
X51262904Y-67377571D01*
X51120047Y-67449000D01*
X50310523Y-68806142D02*
X50405761Y-68877571D01*
X50596238Y-68877571D01*
X50691476Y-68806142D01*
X50739095Y-68663285D01*
X50739095Y-68091857D01*
X50691476Y-67949000D01*
X50596238Y-67877571D01*
X50405761Y-67877571D01*
X50310523Y-67949000D01*
X50262904Y-68091857D01*
X50262904Y-68234714D01*
X50739095Y-68377571D01*
X49834333Y-67877571D02*
X49834333Y-68877571D01*
X49834333Y-68020428D02*
X49786714Y-67949000D01*
X49691476Y-67877571D01*
X49548619Y-67877571D01*
X49453380Y-67949000D01*
X49405761Y-68091857D01*
X49405761Y-68877571D01*
X48977190Y-68806142D02*
X48881952Y-68877571D01*
X48691476Y-68877571D01*
X48596238Y-68806142D01*
X48548619Y-68663285D01*
X48548619Y-68591857D01*
X48596238Y-68449000D01*
X48691476Y-68377571D01*
X48834333Y-68377571D01*
X48929571Y-68306142D01*
X48977190Y-68163285D01*
X48977190Y-68091857D01*
X48929571Y-67949000D01*
X48834333Y-67877571D01*
X48691476Y-67877571D01*
X48596238Y-67949000D01*
X47739095Y-68806142D02*
X47834333Y-68877571D01*
X48024809Y-68877571D01*
X48120047Y-68806142D01*
X48167666Y-68663285D01*
X48167666Y-68091857D01*
X48120047Y-67949000D01*
X48024809Y-67877571D01*
X47834333Y-67877571D01*
X47739095Y-67949000D01*
X47691476Y-68091857D01*
X47691476Y-68234714D01*
X48167666Y-68377571D01*
X43944619Y-59098571D02*
X43944619Y-57598571D01*
X43563666Y-57598571D01*
X43468428Y-57670000D01*
X43420809Y-57741428D01*
X43373190Y-57884285D01*
X43373190Y-58098571D01*
X43420809Y-58241428D01*
X43468428Y-58312857D01*
X43563666Y-58384285D01*
X43944619Y-58384285D01*
X43039857Y-57598571D02*
X42801761Y-59098571D01*
X42611285Y-58027142D01*
X42420809Y-59098571D01*
X42182714Y-57598571D01*
X41801761Y-59098571D02*
X41801761Y-57598571D01*
X41468428Y-58670000D01*
X41135095Y-57598571D01*
X41135095Y-59098571D01*
X41992238Y-55566571D02*
X42468428Y-55566571D01*
X42516047Y-56280857D01*
X42468428Y-56209428D01*
X42373190Y-56138000D01*
X42135095Y-56138000D01*
X42039857Y-56209428D01*
X41992238Y-56280857D01*
X41944619Y-56423714D01*
X41944619Y-56780857D01*
X41992238Y-56923714D01*
X42039857Y-56995142D01*
X42135095Y-57066571D01*
X42373190Y-57066571D01*
X42468428Y-56995142D01*
X42516047Y-56923714D01*
X41658904Y-55566571D02*
X41325571Y-57066571D01*
X40992238Y-55566571D01*
X43055714Y-53098000D02*
X43150952Y-53026571D01*
X43293809Y-53026571D01*
X43436666Y-53098000D01*
X43531904Y-53240857D01*
X43579523Y-53383714D01*
X43627142Y-53669428D01*
X43627142Y-53883714D01*
X43579523Y-54169428D01*
X43531904Y-54312285D01*
X43436666Y-54455142D01*
X43293809Y-54526571D01*
X43198571Y-54526571D01*
X43055714Y-54455142D01*
X43008095Y-54383714D01*
X43008095Y-53883714D01*
X43198571Y-53883714D01*
X42579523Y-54526571D02*
X42579523Y-53026571D01*
X42008095Y-54526571D01*
X42008095Y-53026571D01*
X41531904Y-54526571D02*
X41531904Y-53026571D01*
X41293809Y-53026571D01*
X41150952Y-53098000D01*
X41055714Y-53240857D01*
X41008095Y-53383714D01*
X40960476Y-53669428D01*
X40960476Y-53883714D01*
X41008095Y-54169428D01*
X41055714Y-54312285D01*
X41150952Y-54455142D01*
X41293809Y-54526571D01*
X41531904Y-54526571D01*
D11*
X73279142Y-107783285D02*
X75564857Y-107783285D01*
X73279142Y-125944285D02*
X75564857Y-125944285D01*
X74422000Y-127087142D02*
X74422000Y-124801428D01*
D12*
X42291095Y-34813857D02*
X43814904Y-34813857D01*
X43053000Y-35575761D02*
X43053000Y-34051952D01*
D11*
X35576285Y-45069238D02*
X34719142Y-45069238D01*
X35147714Y-45069238D02*
X35147714Y-47069238D01*
X35004857Y-46783523D01*
X34862000Y-46593047D01*
X34719142Y-46497809D01*
X36433428Y-46212095D02*
X36290571Y-46307333D01*
X36219142Y-46402571D01*
X36147714Y-46593047D01*
X36147714Y-46688285D01*
X36219142Y-46878761D01*
X36290571Y-46974000D01*
X36433428Y-47069238D01*
X36719142Y-47069238D01*
X36862000Y-46974000D01*
X36933428Y-46878761D01*
X37004857Y-46688285D01*
X37004857Y-46593047D01*
X36933428Y-46402571D01*
X36862000Y-46307333D01*
X36719142Y-46212095D01*
X36433428Y-46212095D01*
X36290571Y-46116857D01*
X36219142Y-46021619D01*
X36147714Y-45831142D01*
X36147714Y-45450190D01*
X36219142Y-45259714D01*
X36290571Y-45164476D01*
X36433428Y-45069238D01*
X36719142Y-45069238D01*
X36862000Y-45164476D01*
X36933428Y-45259714D01*
X37004857Y-45450190D01*
X37004857Y-45831142D01*
X36933428Y-46021619D01*
X36862000Y-46116857D01*
X36719142Y-46212095D01*
X37647714Y-45831142D02*
X38790571Y-45831142D01*
X39433428Y-46878761D02*
X39504857Y-46974000D01*
X39647714Y-47069238D01*
X40004857Y-47069238D01*
X40147714Y-46974000D01*
X40219142Y-46878761D01*
X40290571Y-46688285D01*
X40290571Y-46497809D01*
X40219142Y-46212095D01*
X39362000Y-45069238D01*
X40290571Y-45069238D01*
X41576285Y-46402571D02*
X41576285Y-45069238D01*
X41219142Y-47164476D02*
X40862000Y-45735904D01*
X41790571Y-45735904D01*
X42147714Y-47069238D02*
X42647714Y-45069238D01*
X43147714Y-47069238D01*
D12*
X76159190Y-74351571D02*
X76492523Y-74351571D01*
X76492523Y-74875380D02*
X76492523Y-73875380D01*
X76016333Y-73875380D01*
X75206809Y-74208714D02*
X75206809Y-74875380D01*
X75635380Y-74208714D02*
X75635380Y-74732523D01*
X75587761Y-74827761D01*
X75492523Y-74875380D01*
X75349666Y-74875380D01*
X75254428Y-74827761D01*
X75206809Y-74780142D01*
X75587761Y-73875380D02*
X75540142Y-73923000D01*
X75587761Y-73970619D01*
X75635380Y-73923000D01*
X75587761Y-73875380D01*
X75587761Y-73970619D01*
X75206809Y-73875380D02*
X75159190Y-73923000D01*
X75206809Y-73970619D01*
X75254428Y-73923000D01*
X75206809Y-73875380D01*
X75206809Y-73970619D01*
X74730619Y-74875380D02*
X74730619Y-74208714D01*
X74730619Y-74399190D02*
X74683000Y-74303952D01*
X74635380Y-74256333D01*
X74540142Y-74208714D01*
X74444904Y-74208714D01*
X72873476Y-74875380D02*
X73349666Y-74875380D01*
X73349666Y-73875380D01*
X72159190Y-74827761D02*
X72254428Y-74875380D01*
X72444904Y-74875380D01*
X72540142Y-74827761D01*
X72587761Y-74732523D01*
X72587761Y-74351571D01*
X72540142Y-74256333D01*
X72444904Y-74208714D01*
X72254428Y-74208714D01*
X72159190Y-74256333D01*
X72111571Y-74351571D01*
X72111571Y-74446809D01*
X72587761Y-74542047D01*
X71683000Y-74875380D02*
X71683000Y-73875380D01*
X71254428Y-74875380D02*
X71254428Y-74351571D01*
X71302047Y-74256333D01*
X71397285Y-74208714D01*
X71540142Y-74208714D01*
X71635380Y-74256333D01*
X71683000Y-74303952D01*
X70778238Y-74875380D02*
X70778238Y-74208714D01*
X70778238Y-74399190D02*
X70730619Y-74303952D01*
X70683000Y-74256333D01*
X70587761Y-74208714D01*
X70492523Y-74208714D01*
X69778238Y-74827761D02*
X69873476Y-74875380D01*
X70063952Y-74875380D01*
X70159190Y-74827761D01*
X70206809Y-74732523D01*
X70206809Y-74351571D01*
X70159190Y-74256333D01*
X70063952Y-74208714D01*
X69873476Y-74208714D01*
X69778238Y-74256333D01*
X69730619Y-74351571D01*
X69730619Y-74446809D01*
X70206809Y-74542047D01*
X68111571Y-74208714D02*
X68111571Y-74875380D01*
X68540142Y-74208714D02*
X68540142Y-74732523D01*
X68492523Y-74827761D01*
X68397285Y-74875380D01*
X68254428Y-74875380D01*
X68159190Y-74827761D01*
X68111571Y-74780142D01*
X67635380Y-74208714D02*
X67635380Y-74875380D01*
X67635380Y-74303952D02*
X67587761Y-74256333D01*
X67492523Y-74208714D01*
X67349666Y-74208714D01*
X67254428Y-74256333D01*
X67206809Y-74351571D01*
X67206809Y-74875380D01*
X66302047Y-74875380D02*
X66302047Y-73875380D01*
X66302047Y-74827761D02*
X66397285Y-74875380D01*
X66587761Y-74875380D01*
X66683000Y-74827761D01*
X66730619Y-74780142D01*
X66778238Y-74684904D01*
X66778238Y-74399190D01*
X66730619Y-74303952D01*
X66683000Y-74256333D01*
X66587761Y-74208714D01*
X66397285Y-74208714D01*
X66302047Y-74256333D01*
X64730619Y-74351571D02*
X65063952Y-74351571D01*
X65063952Y-74875380D02*
X65063952Y-73875380D01*
X64587761Y-73875380D01*
X64063952Y-74875380D02*
X64159190Y-74827761D01*
X64206809Y-74780142D01*
X64254428Y-74684904D01*
X64254428Y-74399190D01*
X64206809Y-74303952D01*
X64159190Y-74256333D01*
X64063952Y-74208714D01*
X63921095Y-74208714D01*
X63825857Y-74256333D01*
X63778238Y-74303952D01*
X63730619Y-74399190D01*
X63730619Y-74684904D01*
X63778238Y-74780142D01*
X63825857Y-74827761D01*
X63921095Y-74875380D01*
X64063952Y-74875380D01*
X63302047Y-74875380D02*
X63302047Y-74208714D01*
X63302047Y-74399190D02*
X63254428Y-74303952D01*
X63206809Y-74256333D01*
X63111571Y-74208714D01*
X63016333Y-74208714D01*
X62730619Y-74827761D02*
X62635380Y-74875380D01*
X62444904Y-74875380D01*
X62349666Y-74827761D01*
X62302047Y-74732523D01*
X62302047Y-74684904D01*
X62349666Y-74589666D01*
X62444904Y-74542047D01*
X62587761Y-74542047D01*
X62683000Y-74494428D01*
X62730619Y-74399190D01*
X62730619Y-74351571D01*
X62683000Y-74256333D01*
X62587761Y-74208714D01*
X62444904Y-74208714D01*
X62349666Y-74256333D01*
X61444904Y-74827761D02*
X61540142Y-74875380D01*
X61730619Y-74875380D01*
X61825857Y-74827761D01*
X61873476Y-74780142D01*
X61921095Y-74684904D01*
X61921095Y-74399190D01*
X61873476Y-74303952D01*
X61825857Y-74256333D01*
X61730619Y-74208714D01*
X61540142Y-74208714D01*
X61444904Y-74256333D01*
X61016333Y-74875380D02*
X61016333Y-73875380D01*
X60587761Y-74875380D02*
X60587761Y-74351571D01*
X60635380Y-74256333D01*
X60730619Y-74208714D01*
X60873476Y-74208714D01*
X60968714Y-74256333D01*
X61016333Y-74303952D01*
X59683000Y-74208714D02*
X59683000Y-74875380D01*
X60111571Y-74208714D02*
X60111571Y-74732523D01*
X60063952Y-74827761D01*
X59968714Y-74875380D01*
X59825857Y-74875380D01*
X59730619Y-74827761D01*
X59683000Y-74780142D01*
X59206809Y-74208714D02*
X59206809Y-74875380D01*
X59206809Y-74303952D02*
X59159190Y-74256333D01*
X59063952Y-74208714D01*
X58921095Y-74208714D01*
X58825857Y-74256333D01*
X58778238Y-74351571D01*
X58778238Y-74875380D01*
X57873476Y-74208714D02*
X57873476Y-75018238D01*
X57921095Y-75113476D01*
X57968714Y-75161095D01*
X58063952Y-75208714D01*
X58206809Y-75208714D01*
X58302047Y-75161095D01*
X57873476Y-74827761D02*
X57968714Y-74875380D01*
X58159190Y-74875380D01*
X58254428Y-74827761D01*
X58302047Y-74780142D01*
X58349666Y-74684904D01*
X58349666Y-74399190D01*
X58302047Y-74303952D01*
X58254428Y-74256333D01*
X58159190Y-74208714D01*
X57968714Y-74208714D01*
X57873476Y-74256333D01*
X77587761Y-76525380D02*
X77587761Y-75525380D01*
X77016333Y-76525380D02*
X77444904Y-75953952D01*
X77016333Y-75525380D02*
X77587761Y-76096809D01*
X76444904Y-76525380D02*
X76540142Y-76477761D01*
X76587761Y-76382523D01*
X76587761Y-75525380D01*
X75635380Y-76525380D02*
X75635380Y-76001571D01*
X75683000Y-75906333D01*
X75778238Y-75858714D01*
X75968714Y-75858714D01*
X76063952Y-75906333D01*
X75635380Y-76477761D02*
X75730619Y-76525380D01*
X75968714Y-76525380D01*
X76063952Y-76477761D01*
X76111571Y-76382523D01*
X76111571Y-76287285D01*
X76063952Y-76192047D01*
X75968714Y-76144428D01*
X75730619Y-76144428D01*
X75635380Y-76096809D01*
X74730619Y-75858714D02*
X74730619Y-76525380D01*
X75159190Y-75858714D02*
X75159190Y-76382523D01*
X75111571Y-76477761D01*
X75016333Y-76525380D01*
X74873476Y-76525380D01*
X74778238Y-76477761D01*
X74730619Y-76430142D01*
X74302047Y-76477761D02*
X74206809Y-76525380D01*
X74016333Y-76525380D01*
X73921095Y-76477761D01*
X73873476Y-76382523D01*
X73873476Y-76334904D01*
X73921095Y-76239666D01*
X74016333Y-76192047D01*
X74159190Y-76192047D01*
X74254428Y-76144428D01*
X74302047Y-76049190D01*
X74302047Y-76001571D01*
X74254428Y-75906333D01*
X74159190Y-75858714D01*
X74016333Y-75858714D01*
X73921095Y-75906333D01*
X72206809Y-76525380D02*
X72683000Y-76525380D01*
X72683000Y-75525380D01*
X71873476Y-76525380D02*
X71873476Y-75858714D01*
X71873476Y-75525380D02*
X71921095Y-75573000D01*
X71873476Y-75620619D01*
X71825857Y-75573000D01*
X71873476Y-75525380D01*
X71873476Y-75620619D01*
X71016333Y-76477761D02*
X71111571Y-76525380D01*
X71302047Y-76525380D01*
X71397285Y-76477761D01*
X71444904Y-76382523D01*
X71444904Y-76001571D01*
X71397285Y-75906333D01*
X71302047Y-75858714D01*
X71111571Y-75858714D01*
X71016333Y-75906333D01*
X70968714Y-76001571D01*
X70968714Y-76096809D01*
X71444904Y-76192047D01*
X70540142Y-76525380D02*
X70540142Y-75525380D01*
X70540142Y-75906333D02*
X70444904Y-75858714D01*
X70254428Y-75858714D01*
X70159190Y-75906333D01*
X70111571Y-75953952D01*
X70063952Y-76049190D01*
X70063952Y-76334904D01*
X70111571Y-76430142D01*
X70159190Y-76477761D01*
X70254428Y-76525380D01*
X70444904Y-76525380D01*
X70540142Y-76477761D01*
X69492523Y-76525380D02*
X69587761Y-76477761D01*
X69635380Y-76382523D01*
X69635380Y-75525380D01*
X68730619Y-76477761D02*
X68825857Y-76525380D01*
X69016333Y-76525380D01*
X69111571Y-76477761D01*
X69159190Y-76382523D01*
X69159190Y-76001571D01*
X69111571Y-75906333D01*
X69016333Y-75858714D01*
X68825857Y-75858714D01*
X68730619Y-75906333D01*
X68683000Y-76001571D01*
X68683000Y-76096809D01*
X69159190Y-76192047D01*
X68254428Y-76525380D02*
X68254428Y-75858714D01*
X68254428Y-76049190D02*
X68206809Y-75953952D01*
X68159190Y-75906333D01*
X68063952Y-75858714D01*
X67968714Y-75858714D01*
X67587761Y-76477761D02*
X67587761Y-76525380D01*
X67635380Y-76620619D01*
X67683000Y-76668238D01*
X66444904Y-75620619D02*
X66397285Y-75573000D01*
X66302047Y-75525380D01*
X66063952Y-75525380D01*
X65968714Y-75573000D01*
X65921095Y-75620619D01*
X65873476Y-75715857D01*
X65873476Y-75811095D01*
X65921095Y-75953952D01*
X66492523Y-76525380D01*
X65873476Y-76525380D01*
X65254428Y-75525380D02*
X65159190Y-75525380D01*
X65063952Y-75573000D01*
X65016333Y-75620619D01*
X64968714Y-75715857D01*
X64921095Y-75906333D01*
X64921095Y-76144428D01*
X64968714Y-76334904D01*
X65016333Y-76430142D01*
X65063952Y-76477761D01*
X65159190Y-76525380D01*
X65254428Y-76525380D01*
X65349666Y-76477761D01*
X65397285Y-76430142D01*
X65444904Y-76334904D01*
X65492523Y-76144428D01*
X65492523Y-75906333D01*
X65444904Y-75715857D01*
X65397285Y-75620619D01*
X65349666Y-75573000D01*
X65254428Y-75525380D01*
X64540142Y-75620619D02*
X64492523Y-75573000D01*
X64397285Y-75525380D01*
X64159190Y-75525380D01*
X64063952Y-75573000D01*
X64016333Y-75620619D01*
X63968714Y-75715857D01*
X63968714Y-75811095D01*
X64016333Y-75953952D01*
X64587761Y-76525380D01*
X63968714Y-76525380D01*
X63349666Y-75525380D02*
X63254428Y-75525380D01*
X63159190Y-75573000D01*
X63111571Y-75620619D01*
X63063952Y-75715857D01*
X63016333Y-75906333D01*
X63016333Y-76144428D01*
X63063952Y-76334904D01*
X63111571Y-76430142D01*
X63159190Y-76477761D01*
X63254428Y-76525380D01*
X63349666Y-76525380D01*
X63444904Y-76477761D01*
X63492523Y-76430142D01*
X63540142Y-76334904D01*
X63587761Y-76144428D01*
X63587761Y-75906333D01*
X63540142Y-75715857D01*
X63492523Y-75620619D01*
X63444904Y-75573000D01*
X63349666Y-75525380D01*
X62587761Y-76144428D02*
X61825857Y-76144428D01*
X61159190Y-75525380D02*
X61063952Y-75525380D01*
X60968714Y-75573000D01*
X60921095Y-75620619D01*
X60873476Y-75715857D01*
X60825857Y-75906333D01*
X60825857Y-76144428D01*
X60873476Y-76334904D01*
X60921095Y-76430142D01*
X60968714Y-76477761D01*
X61063952Y-76525380D01*
X61159190Y-76525380D01*
X61254428Y-76477761D01*
X61302047Y-76430142D01*
X61349666Y-76334904D01*
X61397285Y-76144428D01*
X61397285Y-75906333D01*
X61349666Y-75715857D01*
X61302047Y-75620619D01*
X61254428Y-75573000D01*
X61159190Y-75525380D01*
X60254428Y-75953952D02*
X60349666Y-75906333D01*
X60397285Y-75858714D01*
X60444904Y-75763476D01*
X60444904Y-75715857D01*
X60397285Y-75620619D01*
X60349666Y-75573000D01*
X60254428Y-75525380D01*
X60063952Y-75525380D01*
X59968714Y-75573000D01*
X59921095Y-75620619D01*
X59873476Y-75715857D01*
X59873476Y-75763476D01*
X59921095Y-75858714D01*
X59968714Y-75906333D01*
X60063952Y-75953952D01*
X60254428Y-75953952D01*
X60349666Y-76001571D01*
X60397285Y-76049190D01*
X60444904Y-76144428D01*
X60444904Y-76334904D01*
X60397285Y-76430142D01*
X60349666Y-76477761D01*
X60254428Y-76525380D01*
X60063952Y-76525380D01*
X59968714Y-76477761D01*
X59921095Y-76430142D01*
X59873476Y-76334904D01*
X59873476Y-76144428D01*
X59921095Y-76049190D01*
X59968714Y-76001571D01*
X60063952Y-75953952D01*
X59444904Y-76144428D02*
X58683000Y-76144428D01*
X57683000Y-76525380D02*
X58254428Y-76525380D01*
X57968714Y-76525380D02*
X57968714Y-75525380D01*
X58063952Y-75668238D01*
X58159190Y-75763476D01*
X58254428Y-75811095D01*
X56730619Y-76525380D02*
X57302047Y-76525380D01*
X57016333Y-76525380D02*
X57016333Y-75525380D01*
X57111571Y-75668238D01*
X57206809Y-75763476D01*
X57302047Y-75811095D01*
X76349666Y-77175380D02*
X76111571Y-78175380D01*
X75921095Y-77461095D01*
X75730619Y-78175380D01*
X75492523Y-77175380D01*
X74730619Y-78127761D02*
X74825857Y-78175380D01*
X75016333Y-78175380D01*
X75111571Y-78127761D01*
X75159190Y-78032523D01*
X75159190Y-77651571D01*
X75111571Y-77556333D01*
X75016333Y-77508714D01*
X74825857Y-77508714D01*
X74730619Y-77556333D01*
X74683000Y-77651571D01*
X74683000Y-77746809D01*
X75159190Y-77842047D01*
X74302047Y-78127761D02*
X74206809Y-78175380D01*
X74016333Y-78175380D01*
X73921095Y-78127761D01*
X73873476Y-78032523D01*
X73873476Y-77984904D01*
X73921095Y-77889666D01*
X74016333Y-77842047D01*
X74159190Y-77842047D01*
X74254428Y-77794428D01*
X74302047Y-77699190D01*
X74302047Y-77651571D01*
X74254428Y-77556333D01*
X74159190Y-77508714D01*
X74016333Y-77508714D01*
X73921095Y-77556333D01*
X73587761Y-77508714D02*
X73206809Y-77508714D01*
X73444904Y-77175380D02*
X73444904Y-78032523D01*
X73397285Y-78127761D01*
X73302047Y-78175380D01*
X73206809Y-78175380D01*
X73016333Y-77508714D02*
X72635380Y-77508714D01*
X72873476Y-78175380D02*
X72873476Y-77318238D01*
X72825857Y-77223000D01*
X72730619Y-77175380D01*
X72635380Y-77175380D01*
X71873476Y-78175380D02*
X71873476Y-77651571D01*
X71921095Y-77556333D01*
X72016333Y-77508714D01*
X72206809Y-77508714D01*
X72302047Y-77556333D01*
X71873476Y-78127761D02*
X71968714Y-78175380D01*
X72206809Y-78175380D01*
X72302047Y-78127761D01*
X72349666Y-78032523D01*
X72349666Y-77937285D01*
X72302047Y-77842047D01*
X72206809Y-77794428D01*
X71968714Y-77794428D01*
X71873476Y-77746809D01*
X72302047Y-77175380D02*
X72254428Y-77223000D01*
X72302047Y-77270619D01*
X72349666Y-77223000D01*
X72302047Y-77175380D01*
X72302047Y-77270619D01*
X71921095Y-77175380D02*
X71873476Y-77223000D01*
X71921095Y-77270619D01*
X71968714Y-77223000D01*
X71921095Y-77175380D01*
X71921095Y-77270619D01*
X71254428Y-78175380D02*
X71349666Y-78127761D01*
X71397285Y-78032523D01*
X71397285Y-77175380D01*
X70873476Y-78175380D02*
X70873476Y-77508714D01*
X70873476Y-77175380D02*
X70921095Y-77223000D01*
X70873476Y-77270619D01*
X70825857Y-77223000D01*
X70873476Y-77175380D01*
X70873476Y-77270619D01*
X70444904Y-78127761D02*
X70349666Y-78175380D01*
X70159190Y-78175380D01*
X70063952Y-78127761D01*
X70016333Y-78032523D01*
X70016333Y-77984904D01*
X70063952Y-77889666D01*
X70159190Y-77842047D01*
X70302047Y-77842047D01*
X70397285Y-77794428D01*
X70444904Y-77699190D01*
X70444904Y-77651571D01*
X70397285Y-77556333D01*
X70302047Y-77508714D01*
X70159190Y-77508714D01*
X70063952Y-77556333D01*
X69159190Y-78127761D02*
X69254428Y-78175380D01*
X69444904Y-78175380D01*
X69540142Y-78127761D01*
X69587761Y-78080142D01*
X69635380Y-77984904D01*
X69635380Y-77699190D01*
X69587761Y-77603952D01*
X69540142Y-77556333D01*
X69444904Y-77508714D01*
X69254428Y-77508714D01*
X69159190Y-77556333D01*
X68730619Y-78175380D02*
X68730619Y-77175380D01*
X68302047Y-78175380D02*
X68302047Y-77651571D01*
X68349666Y-77556333D01*
X68444904Y-77508714D01*
X68587761Y-77508714D01*
X68683000Y-77556333D01*
X68730619Y-77603952D01*
X67444904Y-78127761D02*
X67540142Y-78175380D01*
X67730619Y-78175380D01*
X67825857Y-78127761D01*
X67873476Y-78032523D01*
X67873476Y-77651571D01*
X67825857Y-77556333D01*
X67730619Y-77508714D01*
X67540142Y-77508714D01*
X67444904Y-77556333D01*
X67397285Y-77651571D01*
X67397285Y-77746809D01*
X67873476Y-77842047D01*
X66206809Y-78175380D02*
X66206809Y-77175380D01*
X66206809Y-77651571D02*
X65635380Y-77651571D01*
X65635380Y-78175380D02*
X65635380Y-77175380D01*
X65016333Y-78175380D02*
X65111571Y-78127761D01*
X65159190Y-78080142D01*
X65206809Y-77984904D01*
X65206809Y-77699190D01*
X65159190Y-77603952D01*
X65111571Y-77556333D01*
X65016333Y-77508714D01*
X64873476Y-77508714D01*
X64778238Y-77556333D01*
X64730619Y-77603952D01*
X64683000Y-77699190D01*
X64683000Y-77984904D01*
X64730619Y-78080142D01*
X64778238Y-78127761D01*
X64873476Y-78175380D01*
X65016333Y-78175380D01*
X63825857Y-78127761D02*
X63921095Y-78175380D01*
X64111571Y-78175380D01*
X64206809Y-78127761D01*
X64254428Y-78080142D01*
X64302047Y-77984904D01*
X64302047Y-77699190D01*
X64254428Y-77603952D01*
X64206809Y-77556333D01*
X64111571Y-77508714D01*
X63921095Y-77508714D01*
X63825857Y-77556333D01*
X63397285Y-78175380D02*
X63397285Y-77175380D01*
X62968714Y-78175380D02*
X62968714Y-77651571D01*
X63016333Y-77556333D01*
X63111571Y-77508714D01*
X63254428Y-77508714D01*
X63349666Y-77556333D01*
X63397285Y-77603952D01*
X62540142Y-78127761D02*
X62444904Y-78175380D01*
X62254428Y-78175380D01*
X62159190Y-78127761D01*
X62111571Y-78032523D01*
X62111571Y-77984904D01*
X62159190Y-77889666D01*
X62254428Y-77842047D01*
X62397285Y-77842047D01*
X62492523Y-77794428D01*
X62540142Y-77699190D01*
X62540142Y-77651571D01*
X62492523Y-77556333D01*
X62397285Y-77508714D01*
X62254428Y-77508714D01*
X62159190Y-77556333D01*
X61254428Y-78127761D02*
X61349666Y-78175380D01*
X61540142Y-78175380D01*
X61635380Y-78127761D01*
X61683000Y-78080142D01*
X61730619Y-77984904D01*
X61730619Y-77699190D01*
X61683000Y-77603952D01*
X61635380Y-77556333D01*
X61540142Y-77508714D01*
X61349666Y-77508714D01*
X61254428Y-77556333D01*
X60825857Y-78175380D02*
X60825857Y-77175380D01*
X60397285Y-78175380D02*
X60397285Y-77651571D01*
X60444904Y-77556333D01*
X60540142Y-77508714D01*
X60683000Y-77508714D01*
X60778238Y-77556333D01*
X60825857Y-77603952D01*
X59492523Y-77508714D02*
X59492523Y-78175380D01*
X59921095Y-77508714D02*
X59921095Y-78032523D01*
X59873476Y-78127761D01*
X59778238Y-78175380D01*
X59635380Y-78175380D01*
X59540142Y-78127761D01*
X59492523Y-78080142D01*
X58873476Y-78175380D02*
X58968714Y-78127761D01*
X59016333Y-78032523D01*
X59016333Y-77175380D01*
X58111571Y-78127761D02*
X58206809Y-78175380D01*
X58397285Y-78175380D01*
X58492523Y-78127761D01*
X58540142Y-78032523D01*
X58540142Y-77651571D01*
X58492523Y-77556333D01*
X58397285Y-77508714D01*
X58206809Y-77508714D01*
X58111571Y-77556333D01*
X58063952Y-77651571D01*
X58063952Y-77746809D01*
X58540142Y-77842047D01*
D13*
X60840000Y-96520000D02*
X58300000Y-96520000D01*
X60840000Y-99060000D02*
X58300000Y-99060000D01*
X60840000Y-101600000D02*
X58300000Y-101600000D01*
X76730000Y-93940000D02*
X60840000Y-93940000D01*
X76730000Y-104180000D02*
X60840000Y-104180000D01*
X76730000Y-104180000D02*
X76730000Y-93940000D01*
X60840000Y-104180000D02*
X60840000Y-93940000D01*
X81788000Y-108585000D02*
X81788000Y-114300000D01*
X119888000Y-108585000D02*
X81788000Y-108585000D01*
X119888000Y-120015000D02*
X119888000Y-108585000D01*
X81788000Y-120015000D02*
X119888000Y-120015000D01*
X81788000Y-114300000D02*
X81788000Y-120015000D01*
X76424000Y-101863000D02*
X76424000Y-110363000D01*
X115424000Y-101863000D02*
X76424000Y-101863000D01*
X115424000Y-118863000D02*
X115424000Y-101863000D01*
X76424000Y-118863000D02*
X115424000Y-118863000D01*
X76424000Y-110363000D02*
X76424000Y-118863000D01*
X53534000Y-123892000D02*
X53534000Y-125222000D01*
X54864000Y-123892000D02*
X53534000Y-123892000D01*
X56134000Y-123892000D02*
X56134000Y-126552000D01*
X56134000Y-126552000D02*
X58734000Y-126552000D01*
X56134000Y-123892000D02*
X58734000Y-123892000D01*
X58734000Y-123892000D02*
X58734000Y-126552000D01*
X84145000Y-73235000D02*
X84145000Y-71985000D01*
X85395000Y-73235000D02*
X84145000Y-73235000D01*
X98795000Y-67735000D02*
X91995000Y-67735000D01*
X98795000Y-70685000D02*
X98795000Y-67735000D01*
X99545000Y-70685000D02*
X98795000Y-70685000D01*
X91995000Y-67735000D02*
X86255000Y-67735000D01*
X85195000Y-70685000D02*
X85195000Y-69345000D01*
X84445000Y-70685000D02*
X85195000Y-70685000D01*
X99545000Y-72935000D02*
X97745000Y-72935000D01*
X99545000Y-72185000D02*
X99545000Y-72935000D01*
X97745000Y-72185000D02*
X99545000Y-72185000D01*
X97745000Y-72935000D02*
X97745000Y-72185000D01*
X86245000Y-72935000D02*
X84445000Y-72935000D01*
X86245000Y-72185000D02*
X86245000Y-72935000D01*
X84445000Y-72185000D02*
X86245000Y-72185000D01*
X84445000Y-72935000D02*
X84445000Y-72185000D01*
X96245000Y-72935000D02*
X87745000Y-72935000D01*
X96245000Y-72185000D02*
X96245000Y-72935000D01*
X87745000Y-72185000D02*
X96245000Y-72185000D01*
X87745000Y-72935000D02*
X87745000Y-72185000D01*
X99555000Y-72945000D02*
X84435000Y-72945000D01*
X99555000Y-66975000D02*
X99555000Y-72945000D01*
X84435000Y-66975000D02*
X99555000Y-66975000D01*
X84435000Y-72945000D02*
X84435000Y-66975000D01*
X120463000Y-123892000D02*
X120463000Y-125222000D01*
X121793000Y-123892000D02*
X120463000Y-123892000D01*
X123063000Y-123892000D02*
X123063000Y-126552000D01*
X123063000Y-126552000D02*
X125663000Y-126552000D01*
X123063000Y-123892000D02*
X125663000Y-123892000D01*
X125663000Y-123892000D02*
X125663000Y-126552000D01*
X52046000Y-117395000D02*
X52046000Y-112395000D01*
X34046000Y-117395000D02*
X52046000Y-117395000D01*
X34046000Y-107395000D02*
X34046000Y-117395000D01*
X52046000Y-107395000D02*
X34046000Y-107395000D01*
X52046000Y-112395000D02*
X52046000Y-107395000D01*
X61983000Y-85725000D02*
X59443000Y-85725000D01*
X61983000Y-88265000D02*
X59443000Y-88265000D01*
X61983000Y-90805000D02*
X59443000Y-90805000D01*
X77873000Y-83145000D02*
X61983000Y-83145000D01*
X77873000Y-93385000D02*
X61983000Y-93385000D01*
X77873000Y-93385000D02*
X77873000Y-83145000D01*
X61983000Y-93385000D02*
X61983000Y-83145000D01*
X53414000Y-77646000D02*
X53414000Y-78896000D01*
X52164000Y-77646000D02*
X53414000Y-77646000D01*
X48054000Y-82056000D02*
X48054000Y-81556000D01*
X47954000Y-81556000D02*
X47954000Y-82056000D01*
X48154000Y-81556000D02*
X47954000Y-81556000D01*
X48154000Y-82056000D02*
X48154000Y-81556000D01*
X50054000Y-82056000D02*
X50054000Y-81556000D01*
X49954000Y-81556000D02*
X49954000Y-82056000D01*
X50154000Y-81556000D02*
X49954000Y-81556000D01*
X50154000Y-82056000D02*
X50154000Y-81556000D01*
X44994000Y-80556000D02*
X45604000Y-80556000D01*
X44994000Y-79256000D02*
X45604000Y-79256000D01*
X53114000Y-80556000D02*
X52504000Y-80556000D01*
X53114000Y-79256000D02*
X52504000Y-79256000D01*
X47554000Y-78556000D02*
X47554000Y-77946000D01*
X45604000Y-78556000D02*
X47554000Y-78556000D01*
X45604000Y-82056000D02*
X45604000Y-78556000D01*
X52504000Y-82056000D02*
X45604000Y-82056000D01*
X52504000Y-78556000D02*
X52504000Y-82056000D01*
X50554000Y-78556000D02*
X52504000Y-78556000D01*
X50554000Y-77946000D02*
X50554000Y-78556000D01*
X51354000Y-77846000D02*
X51654000Y-77846000D01*
X51654000Y-77746000D02*
X51654000Y-77946000D01*
X51354000Y-77746000D02*
X51654000Y-77746000D01*
X51354000Y-77946000D02*
X51354000Y-77746000D01*
X44994000Y-77946000D02*
X53114000Y-77946000D01*
X44994000Y-82666000D02*
X44994000Y-77946000D01*
X53114000Y-82666000D02*
X44994000Y-82666000D01*
X53114000Y-77946000D02*
X53114000Y-82666000D01*
X53414000Y-83234000D02*
X53414000Y-84484000D01*
X52164000Y-83234000D02*
X53414000Y-83234000D01*
X48054000Y-87644000D02*
X48054000Y-87144000D01*
X47954000Y-87144000D02*
X47954000Y-87644000D01*
X48154000Y-87144000D02*
X47954000Y-87144000D01*
X48154000Y-87644000D02*
X48154000Y-87144000D01*
X50054000Y-87644000D02*
X50054000Y-87144000D01*
X49954000Y-87144000D02*
X49954000Y-87644000D01*
X50154000Y-87144000D02*
X49954000Y-87144000D01*
X50154000Y-87644000D02*
X50154000Y-87144000D01*
X44994000Y-86144000D02*
X45604000Y-86144000D01*
X44994000Y-84844000D02*
X45604000Y-84844000D01*
X53114000Y-86144000D02*
X52504000Y-86144000D01*
X53114000Y-84844000D02*
X52504000Y-84844000D01*
X47554000Y-84144000D02*
X47554000Y-83534000D01*
X45604000Y-84144000D02*
X47554000Y-84144000D01*
X45604000Y-87644000D02*
X45604000Y-84144000D01*
X52504000Y-87644000D02*
X45604000Y-87644000D01*
X52504000Y-84144000D02*
X52504000Y-87644000D01*
X50554000Y-84144000D02*
X52504000Y-84144000D01*
X50554000Y-83534000D02*
X50554000Y-84144000D01*
X51354000Y-83434000D02*
X51654000Y-83434000D01*
X51654000Y-83334000D02*
X51654000Y-83534000D01*
X51354000Y-83334000D02*
X51654000Y-83334000D01*
X51354000Y-83534000D02*
X51354000Y-83334000D01*
X44994000Y-83534000D02*
X53114000Y-83534000D01*
X44994000Y-88254000D02*
X44994000Y-83534000D01*
X53114000Y-88254000D02*
X44994000Y-88254000D01*
X53114000Y-83534000D02*
X53114000Y-88254000D01*
X40767000Y-73664000D02*
X40767000Y-74674000D01*
X45847000Y-73664000D02*
X40767000Y-73664000D01*
X45847000Y-74674000D02*
X45847000Y-73664000D01*
X39397000Y-74774000D02*
X47197000Y-74774000D01*
X39397000Y-68724000D02*
X39397000Y-74774000D01*
X47197000Y-68724000D02*
X39397000Y-68724000D01*
X47197000Y-74774000D02*
X47197000Y-68724000D01*
X40767000Y-66806000D02*
X40767000Y-67816000D01*
X45847000Y-66806000D02*
X40767000Y-66806000D01*
X45847000Y-67816000D02*
X45847000Y-66806000D01*
X39397000Y-67916000D02*
X47197000Y-67916000D01*
X39397000Y-61866000D02*
X39397000Y-67916000D01*
X47197000Y-61866000D02*
X39397000Y-61866000D01*
X47197000Y-67916000D02*
X47197000Y-61866000D01*
X71790000Y-63427000D02*
X71790000Y-66367000D01*
X71550000Y-63427000D02*
X71550000Y-66367000D01*
X71670000Y-63427000D02*
X71670000Y-66367000D01*
X67130000Y-66367000D02*
X67130000Y-66237000D01*
X72570000Y-66367000D02*
X67130000Y-66367000D01*
X72570000Y-66237000D02*
X72570000Y-66367000D01*
X67130000Y-63427000D02*
X67130000Y-63557000D01*
X72570000Y-63427000D02*
X67130000Y-63427000D01*
X72570000Y-63557000D02*
X72570000Y-63427000D01*
X50000000Y-55000000D02*
X110000000Y-55000000D01*
X110000000Y-58000000D02*
X110000000Y-37000000D01*
X110000000Y-37000000D02*
X50000000Y-37000000D01*
X50000000Y-37000000D02*
X50000000Y-58000000D01*
X110000000Y-50500000D02*
X110000000Y-53500000D01*
X110000000Y-57000000D02*
X50000000Y-57000000D01*
X50000000Y-58000000D02*
X110000000Y-58000000D01*
X110000000Y-56000000D02*
X50000000Y-56000000D01*
X50000000Y-44000000D02*
X110000000Y-44000000D01*
X50000000Y-43000000D02*
X110000000Y-43000000D01*
X110000000Y-52500000D02*
X118000000Y-52500000D01*
X118000000Y-48500000D02*
X110000000Y-48500000D01*
X50000000Y-48500000D02*
X42000000Y-48500000D01*
X42000000Y-52500000D02*
X50000000Y-52500000D01*
X50000000Y-45000000D02*
X110000000Y-45000000D01*
X50000000Y-46000000D02*
X110000000Y-46000000D01*
X34357000Y-60258000D02*
X35687000Y-60258000D01*
X34357000Y-58928000D02*
X34357000Y-60258000D01*
X34357000Y-57658000D02*
X37017000Y-57658000D01*
X37017000Y-57658000D02*
X37017000Y-52518000D01*
X34357000Y-57658000D02*
X34357000Y-52518000D01*
X34357000Y-52518000D02*
X37017000Y-52518000D01*
X66040000Y-106696000D02*
X61040000Y-106696000D01*
X61040000Y-106696000D02*
X56040000Y-111696000D01*
X56040000Y-111696000D02*
X56040000Y-121696000D01*
X56040000Y-121696000D02*
X61040000Y-126696000D01*
X61040000Y-126696000D02*
X71040000Y-126696000D01*
X71040000Y-126696000D02*
X76040000Y-121696000D01*
X76040000Y-121696000D02*
X76040000Y-111696000D01*
X76040000Y-111696000D02*
X71040000Y-106696000D01*
X71040000Y-106696000D02*
X66040000Y-106696000D01*
X125499000Y-56388000D02*
X125499000Y-54888000D01*
X125499000Y-54888000D02*
X112499000Y-54888000D01*
X112499000Y-54888000D02*
X112499000Y-71888000D01*
X112499000Y-71888000D02*
X125499000Y-71888000D01*
X125499000Y-71888000D02*
X125499000Y-56388000D01*
X124499000Y-69388000D02*
G75*
G03*
X124499000Y-69388000I-1500000J0D01*
G01*
X116499000Y-69388000D02*
G75*
G03*
X116499000Y-69388000I-1500000J0D01*
G01*
X61408000Y-67370000D02*
X62738000Y-67370000D01*
X61408000Y-66040000D02*
X61408000Y-67370000D01*
X61408000Y-64770000D02*
X64068000Y-64770000D01*
X64068000Y-64770000D02*
X64068000Y-62170000D01*
X61408000Y-64770000D02*
X61408000Y-62170000D01*
X61408000Y-62170000D02*
X64068000Y-62170000D01*
X38040000Y-60258000D02*
X39370000Y-60258000D01*
X38040000Y-58928000D02*
X38040000Y-60258000D01*
X38040000Y-57658000D02*
X40700000Y-57658000D01*
X40700000Y-57658000D02*
X40700000Y-52518000D01*
X38040000Y-57658000D02*
X38040000Y-52518000D01*
X38040000Y-52518000D02*
X40700000Y-52518000D01*
D12*
X100583000Y-118514761D02*
X100440142Y-118562380D01*
X100202047Y-118562380D01*
X100106809Y-118514761D01*
X100059190Y-118467142D01*
X100011571Y-118371904D01*
X100011571Y-118276666D01*
X100059190Y-118181428D01*
X100106809Y-118133809D01*
X100202047Y-118086190D01*
X100392523Y-118038571D01*
X100487761Y-117990952D01*
X100535380Y-117943333D01*
X100583000Y-117848095D01*
X100583000Y-117752857D01*
X100535380Y-117657619D01*
X100487761Y-117610000D01*
X100392523Y-117562380D01*
X100154428Y-117562380D01*
X100011571Y-117610000D01*
X99583000Y-118562380D02*
X99583000Y-117562380D01*
X99011571Y-118562380D01*
X99011571Y-117562380D01*
X98106809Y-117562380D02*
X98297285Y-117562380D01*
X98392523Y-117610000D01*
X98440142Y-117657619D01*
X98535380Y-117800476D01*
X98583000Y-117990952D01*
X98583000Y-118371904D01*
X98535380Y-118467142D01*
X98487761Y-118514761D01*
X98392523Y-118562380D01*
X98202047Y-118562380D01*
X98106809Y-118514761D01*
X98059190Y-118467142D01*
X98011571Y-118371904D01*
X98011571Y-118133809D01*
X98059190Y-118038571D01*
X98106809Y-117990952D01*
X98202047Y-117943333D01*
X98392523Y-117943333D01*
X98487761Y-117990952D01*
X98535380Y-118038571D01*
X98583000Y-118133809D01*
X97106809Y-117562380D02*
X97583000Y-117562380D01*
X97630619Y-118038571D01*
X97583000Y-117990952D01*
X97487761Y-117943333D01*
X97249666Y-117943333D01*
X97154428Y-117990952D01*
X97106809Y-118038571D01*
X97059190Y-118133809D01*
X97059190Y-118371904D01*
X97106809Y-118467142D01*
X97154428Y-118514761D01*
X97249666Y-118562380D01*
X97487761Y-118562380D01*
X97583000Y-118514761D01*
X97630619Y-118467142D01*
X96630619Y-118562380D02*
X96630619Y-117562380D01*
X96630619Y-118038571D02*
X96059190Y-118038571D01*
X96059190Y-118562380D02*
X96059190Y-117562380D01*
X95725857Y-117562380D02*
X95392523Y-118562380D01*
X95059190Y-117562380D01*
X94725857Y-118562380D02*
X94725857Y-117562380D01*
X94487761Y-117562380D01*
X94344904Y-117610000D01*
X94249666Y-117705238D01*
X94202047Y-117800476D01*
X94154428Y-117990952D01*
X94154428Y-118133809D01*
X94202047Y-118324285D01*
X94249666Y-118419523D01*
X94344904Y-118514761D01*
X94487761Y-118562380D01*
X94725857Y-118562380D01*
X93773476Y-117657619D02*
X93725857Y-117610000D01*
X93630619Y-117562380D01*
X93392523Y-117562380D01*
X93297285Y-117610000D01*
X93249666Y-117657619D01*
X93202047Y-117752857D01*
X93202047Y-117848095D01*
X93249666Y-117990952D01*
X93821095Y-118562380D01*
X93202047Y-118562380D01*
X92868714Y-117562380D02*
X92249666Y-117562380D01*
X92583000Y-117943333D01*
X92440142Y-117943333D01*
X92344904Y-117990952D01*
X92297285Y-118038571D01*
X92249666Y-118133809D01*
X92249666Y-118371904D01*
X92297285Y-118467142D01*
X92344904Y-118514761D01*
X92440142Y-118562380D01*
X92725857Y-118562380D01*
X92821095Y-118514761D01*
X92868714Y-118467142D01*
X91630619Y-117562380D02*
X91535380Y-117562380D01*
X91440142Y-117610000D01*
X91392523Y-117657619D01*
X91344904Y-117752857D01*
X91297285Y-117943333D01*
X91297285Y-118181428D01*
X91344904Y-118371904D01*
X91392523Y-118467142D01*
X91440142Y-118514761D01*
X91535380Y-118562380D01*
X91630619Y-118562380D01*
X91725857Y-118514761D01*
X91773476Y-118467142D01*
X91821095Y-118371904D01*
X91868714Y-118181428D01*
X91868714Y-117943333D01*
X91821095Y-117752857D01*
X91773476Y-117657619D01*
X91725857Y-117610000D01*
X91630619Y-117562380D01*
X91106809Y-118657619D02*
X90344904Y-118657619D01*
X90106809Y-118562380D02*
X90106809Y-117562380D01*
X89773476Y-118276666D01*
X89440142Y-117562380D01*
X89440142Y-118562380D01*
X88773476Y-117562380D02*
X88583000Y-117562380D01*
X88487761Y-117610000D01*
X88392523Y-117705238D01*
X88344904Y-117895714D01*
X88344904Y-118229047D01*
X88392523Y-118419523D01*
X88487761Y-118514761D01*
X88583000Y-118562380D01*
X88773476Y-118562380D01*
X88868714Y-118514761D01*
X88963952Y-118419523D01*
X89011571Y-118229047D01*
X89011571Y-117895714D01*
X88963952Y-117705238D01*
X88868714Y-117610000D01*
X88773476Y-117562380D01*
X87916333Y-118562380D02*
X87916333Y-117562380D01*
X87678238Y-117562380D01*
X87535380Y-117610000D01*
X87440142Y-117705238D01*
X87392523Y-117800476D01*
X87344904Y-117990952D01*
X87344904Y-118133809D01*
X87392523Y-118324285D01*
X87440142Y-118419523D01*
X87535380Y-118514761D01*
X87678238Y-118562380D01*
X87916333Y-118562380D01*
X86916333Y-117562380D02*
X86916333Y-118371904D01*
X86868714Y-118467142D01*
X86821095Y-118514761D01*
X86725857Y-118562380D01*
X86535380Y-118562380D01*
X86440142Y-118514761D01*
X86392523Y-118467142D01*
X86344904Y-118371904D01*
X86344904Y-117562380D01*
X85392523Y-118562380D02*
X85868714Y-118562380D01*
X85868714Y-117562380D01*
X85059190Y-118038571D02*
X84725857Y-118038571D01*
X84583000Y-118562380D02*
X85059190Y-118562380D01*
X85059190Y-117562380D01*
X84583000Y-117562380D01*
X117371000Y-114752380D02*
X117371000Y-113752380D01*
X117037666Y-114466666D01*
X116704333Y-113752380D01*
X116704333Y-114752380D01*
X116275761Y-114466666D02*
X115799571Y-114466666D01*
X116371000Y-114752380D02*
X116037666Y-113752380D01*
X115704333Y-114752380D01*
X115466238Y-113752380D02*
X114799571Y-114752380D01*
X114799571Y-113752380D02*
X115466238Y-114752380D01*
X114513857Y-113752380D02*
X113894809Y-113752380D01*
X114228142Y-114133333D01*
X114085285Y-114133333D01*
X113990047Y-114180952D01*
X113942428Y-114228571D01*
X113894809Y-114323809D01*
X113894809Y-114561904D01*
X113942428Y-114657142D01*
X113990047Y-114704761D01*
X114085285Y-114752380D01*
X114371000Y-114752380D01*
X114466238Y-114704761D01*
X114513857Y-114657142D01*
X113037666Y-114085714D02*
X113037666Y-114752380D01*
X113275761Y-113704761D02*
X113513857Y-114419047D01*
X112894809Y-114419047D01*
X112371000Y-114180952D02*
X112466238Y-114133333D01*
X112513857Y-114085714D01*
X112561476Y-113990476D01*
X112561476Y-113942857D01*
X112513857Y-113847619D01*
X112466238Y-113800000D01*
X112371000Y-113752380D01*
X112180523Y-113752380D01*
X112085285Y-113800000D01*
X112037666Y-113847619D01*
X111990047Y-113942857D01*
X111990047Y-113990476D01*
X112037666Y-114085714D01*
X112085285Y-114133333D01*
X112180523Y-114180952D01*
X112371000Y-114180952D01*
X112466238Y-114228571D01*
X112513857Y-114276190D01*
X112561476Y-114371428D01*
X112561476Y-114561904D01*
X112513857Y-114657142D01*
X112466238Y-114704761D01*
X112371000Y-114752380D01*
X112180523Y-114752380D01*
X112085285Y-114704761D01*
X112037666Y-114657142D01*
X111990047Y-114561904D01*
X111990047Y-114371428D01*
X112037666Y-114276190D01*
X112085285Y-114228571D01*
X112180523Y-114180952D01*
X111085285Y-113752380D02*
X111561476Y-113752380D01*
X111609095Y-114228571D01*
X111561476Y-114180952D01*
X111466238Y-114133333D01*
X111228142Y-114133333D01*
X111132904Y-114180952D01*
X111085285Y-114228571D01*
X111037666Y-114323809D01*
X111037666Y-114561904D01*
X111085285Y-114657142D01*
X111132904Y-114704761D01*
X111228142Y-114752380D01*
X111466238Y-114752380D01*
X111561476Y-114704761D01*
X111609095Y-114657142D01*
X110847190Y-114847619D02*
X110085285Y-114847619D01*
X109847190Y-114752380D02*
X109847190Y-113752380D01*
X109513857Y-114466666D01*
X109180523Y-113752380D01*
X109180523Y-114752380D01*
X108513857Y-113752380D02*
X108323380Y-113752380D01*
X108228142Y-113800000D01*
X108132904Y-113895238D01*
X108085285Y-114085714D01*
X108085285Y-114419047D01*
X108132904Y-114609523D01*
X108228142Y-114704761D01*
X108323380Y-114752380D01*
X108513857Y-114752380D01*
X108609095Y-114704761D01*
X108704333Y-114609523D01*
X108751952Y-114419047D01*
X108751952Y-114085714D01*
X108704333Y-113895238D01*
X108609095Y-113800000D01*
X108513857Y-113752380D01*
X107656714Y-114752380D02*
X107656714Y-113752380D01*
X107418619Y-113752380D01*
X107275761Y-113800000D01*
X107180523Y-113895238D01*
X107132904Y-113990476D01*
X107085285Y-114180952D01*
X107085285Y-114323809D01*
X107132904Y-114514285D01*
X107180523Y-114609523D01*
X107275761Y-114704761D01*
X107418619Y-114752380D01*
X107656714Y-114752380D01*
X106656714Y-113752380D02*
X106656714Y-114561904D01*
X106609095Y-114657142D01*
X106561476Y-114704761D01*
X106466238Y-114752380D01*
X106275761Y-114752380D01*
X106180523Y-114704761D01*
X106132904Y-114657142D01*
X106085285Y-114561904D01*
X106085285Y-113752380D01*
X105132904Y-114752380D02*
X105609095Y-114752380D01*
X105609095Y-113752380D01*
X104799571Y-114228571D02*
X104466238Y-114228571D01*
X104323380Y-114752380D02*
X104799571Y-114752380D01*
X104799571Y-113752380D01*
X104323380Y-113752380D01*
X86574190Y-66619380D02*
X86574190Y-65619380D01*
X86145619Y-65714619D02*
X86098000Y-65667000D01*
X86002761Y-65619380D01*
X85764666Y-65619380D01*
X85669428Y-65667000D01*
X85621809Y-65714619D01*
X85574190Y-65809857D01*
X85574190Y-65905095D01*
X85621809Y-66047952D01*
X86193238Y-66619380D01*
X85574190Y-66619380D01*
X84574190Y-66524142D02*
X84621809Y-66571761D01*
X84764666Y-66619380D01*
X84859904Y-66619380D01*
X85002761Y-66571761D01*
X85098000Y-66476523D01*
X85145619Y-66381285D01*
X85193238Y-66190809D01*
X85193238Y-66047952D01*
X85145619Y-65857476D01*
X85098000Y-65762238D01*
X85002761Y-65667000D01*
X84859904Y-65619380D01*
X84764666Y-65619380D01*
X84621809Y-65667000D01*
X84574190Y-65714619D01*
X48577142Y-111450380D02*
X49053333Y-111450380D01*
X49053333Y-110450380D01*
X48243809Y-111450380D02*
X48243809Y-110450380D01*
X48005714Y-110450380D01*
X47862857Y-110498000D01*
X47767619Y-110593238D01*
X47720000Y-110688476D01*
X47672380Y-110878952D01*
X47672380Y-111021809D01*
X47720000Y-111212285D01*
X47767619Y-111307523D01*
X47862857Y-111402761D01*
X48005714Y-111450380D01*
X48243809Y-111450380D01*
X47053333Y-110450380D02*
X46958095Y-110450380D01*
X46862857Y-110498000D01*
X46815238Y-110545619D01*
X46767619Y-110640857D01*
X46720000Y-110831333D01*
X46720000Y-111069428D01*
X46767619Y-111259904D01*
X46815238Y-111355142D01*
X46862857Y-111402761D01*
X46958095Y-111450380D01*
X47053333Y-111450380D01*
X47148571Y-111402761D01*
X47196190Y-111355142D01*
X47243809Y-111259904D01*
X47291428Y-111069428D01*
X47291428Y-110831333D01*
X47243809Y-110640857D01*
X47196190Y-110545619D01*
X47148571Y-110498000D01*
X47053333Y-110450380D01*
X45862857Y-110450380D02*
X46053333Y-110450380D01*
X46148571Y-110498000D01*
X46196190Y-110545619D01*
X46291428Y-110688476D01*
X46339047Y-110878952D01*
X46339047Y-111259904D01*
X46291428Y-111355142D01*
X46243809Y-111402761D01*
X46148571Y-111450380D01*
X45958095Y-111450380D01*
X45862857Y-111402761D01*
X45815238Y-111355142D01*
X45767619Y-111259904D01*
X45767619Y-111021809D01*
X45815238Y-110926571D01*
X45862857Y-110878952D01*
X45958095Y-110831333D01*
X46148571Y-110831333D01*
X46243809Y-110878952D01*
X46291428Y-110926571D01*
X46339047Y-111021809D01*
X45386666Y-111164666D02*
X44910476Y-111164666D01*
X45481904Y-111450380D02*
X45148571Y-110450380D01*
X44815238Y-111450380D01*
X44196190Y-110450380D02*
X44196190Y-111164666D01*
X44243809Y-111307523D01*
X44339047Y-111402761D01*
X44481904Y-111450380D01*
X44577142Y-111450380D01*
X43767619Y-111402761D02*
X43624761Y-111450380D01*
X43386666Y-111450380D01*
X43291428Y-111402761D01*
X43243809Y-111355142D01*
X43196190Y-111259904D01*
X43196190Y-111164666D01*
X43243809Y-111069428D01*
X43291428Y-111021809D01*
X43386666Y-110974190D01*
X43577142Y-110926571D01*
X43672380Y-110878952D01*
X43720000Y-110831333D01*
X43767619Y-110736095D01*
X43767619Y-110640857D01*
X43720000Y-110545619D01*
X43672380Y-110498000D01*
X43577142Y-110450380D01*
X43339047Y-110450380D01*
X43196190Y-110498000D01*
X42815238Y-111164666D02*
X42339047Y-111164666D01*
X42910476Y-111450380D02*
X42577142Y-110450380D01*
X42243809Y-111450380D01*
X44648380Y-78541714D02*
X44648380Y-77970285D01*
X44648380Y-78256000D02*
X43648380Y-78256000D01*
X43791238Y-78160761D01*
X43886476Y-78065523D01*
X43934095Y-77970285D01*
X43981714Y-78875047D02*
X44648380Y-79065523D01*
X44172190Y-79256000D01*
X44648380Y-79446476D01*
X43981714Y-79636952D01*
X44648380Y-80017904D02*
X43981714Y-80017904D01*
X43648380Y-80017904D02*
X43696000Y-79970285D01*
X43743619Y-80017904D01*
X43696000Y-80065523D01*
X43648380Y-80017904D01*
X43743619Y-80017904D01*
X44648380Y-80494095D02*
X43981714Y-80494095D01*
X44172190Y-80494095D02*
X44076952Y-80541714D01*
X44029333Y-80589333D01*
X43981714Y-80684571D01*
X43981714Y-80779809D01*
X44600761Y-81494095D02*
X44648380Y-81398857D01*
X44648380Y-81208380D01*
X44600761Y-81113142D01*
X44505523Y-81065523D01*
X44124571Y-81065523D01*
X44029333Y-81113142D01*
X43981714Y-81208380D01*
X43981714Y-81398857D01*
X44029333Y-81494095D01*
X44124571Y-81541714D01*
X44219809Y-81541714D01*
X44315047Y-81065523D01*
X44680380Y-84129714D02*
X44680380Y-83558285D01*
X44680380Y-83844000D02*
X43680380Y-83844000D01*
X43823238Y-83748761D01*
X43918476Y-83653523D01*
X43966095Y-83558285D01*
X44013714Y-84463047D02*
X44680380Y-84653523D01*
X44204190Y-84844000D01*
X44680380Y-85034476D01*
X44013714Y-85224952D01*
X44680380Y-85605904D02*
X44013714Y-85605904D01*
X43680380Y-85605904D02*
X43728000Y-85558285D01*
X43775619Y-85605904D01*
X43728000Y-85653523D01*
X43680380Y-85605904D01*
X43775619Y-85605904D01*
X44680380Y-86082095D02*
X44013714Y-86082095D01*
X44204190Y-86082095D02*
X44108952Y-86129714D01*
X44061333Y-86177333D01*
X44013714Y-86272571D01*
X44013714Y-86367809D01*
X44632761Y-87082095D02*
X44680380Y-86986857D01*
X44680380Y-86796380D01*
X44632761Y-86701142D01*
X44537523Y-86653523D01*
X44156571Y-86653523D01*
X44061333Y-86701142D01*
X44013714Y-86796380D01*
X44013714Y-86986857D01*
X44061333Y-87082095D01*
X44156571Y-87129714D01*
X44251809Y-87129714D01*
X44347047Y-86653523D01*
X47934571Y-70088285D02*
X47934571Y-69754952D01*
X48458380Y-69754952D02*
X47458380Y-69754952D01*
X47458380Y-70231142D01*
X48172666Y-70564476D02*
X48172666Y-71040666D01*
X48458380Y-70469238D02*
X47458380Y-70802571D01*
X48458380Y-71135904D01*
X48458380Y-71469238D02*
X47458380Y-71469238D01*
X48458380Y-72040666D01*
X47458380Y-72040666D01*
X48458380Y-73040666D02*
X48458380Y-72469238D01*
X48458380Y-72754952D02*
X47458380Y-72754952D01*
X47601238Y-72659714D01*
X47696476Y-72564476D01*
X47744095Y-72469238D01*
X47934571Y-63230285D02*
X47934571Y-62896952D01*
X48458380Y-62896952D02*
X47458380Y-62896952D01*
X47458380Y-63373142D01*
X48172666Y-63706476D02*
X48172666Y-64182666D01*
X48458380Y-63611238D02*
X47458380Y-63944571D01*
X48458380Y-64277904D01*
X48458380Y-64611238D02*
X47458380Y-64611238D01*
X48458380Y-65182666D01*
X47458380Y-65182666D01*
X47458380Y-65563619D02*
X47458380Y-66182666D01*
X47839333Y-65849333D01*
X47839333Y-65992190D01*
X47886952Y-66087428D01*
X47934571Y-66135047D01*
X48029809Y-66182666D01*
X48267904Y-66182666D01*
X48363142Y-66135047D01*
X48410761Y-66087428D01*
X48458380Y-65992190D01*
X48458380Y-65706476D01*
X48410761Y-65611238D01*
X48363142Y-65563619D01*
X70588095Y-62879380D02*
X70588095Y-61879380D01*
X70350000Y-61879380D01*
X70207142Y-61927000D01*
X70111904Y-62022238D01*
X70064285Y-62117476D01*
X70016666Y-62307952D01*
X70016666Y-62450809D01*
X70064285Y-62641285D01*
X70111904Y-62736523D01*
X70207142Y-62831761D01*
X70350000Y-62879380D01*
X70588095Y-62879380D01*
X69111904Y-61879380D02*
X69588095Y-61879380D01*
X69635714Y-62355571D01*
X69588095Y-62307952D01*
X69492857Y-62260333D01*
X69254761Y-62260333D01*
X69159523Y-62307952D01*
X69111904Y-62355571D01*
X69064285Y-62450809D01*
X69064285Y-62688904D01*
X69111904Y-62784142D01*
X69159523Y-62831761D01*
X69254761Y-62879380D01*
X69492857Y-62879380D01*
X69588095Y-62831761D01*
X69635714Y-62784142D01*
X83880952Y-50547619D02*
X83833333Y-50500000D01*
X83738095Y-50452380D01*
X83500000Y-50452380D01*
X83404761Y-50500000D01*
X83357142Y-50547619D01*
X83309523Y-50642857D01*
X83309523Y-50738095D01*
X83357142Y-50880952D01*
X83928571Y-51452380D01*
X83309523Y-51452380D01*
X82928571Y-50547619D02*
X82880952Y-50500000D01*
X82785714Y-50452380D01*
X82547619Y-50452380D01*
X82452380Y-50500000D01*
X82404761Y-50547619D01*
X82357142Y-50642857D01*
X82357142Y-50738095D01*
X82404761Y-50880952D01*
X82976190Y-51452380D01*
X82357142Y-51452380D01*
X81357142Y-51452380D02*
X81690476Y-50976190D01*
X81928571Y-51452380D02*
X81928571Y-50452380D01*
X81547619Y-50452380D01*
X81452380Y-50500000D01*
X81404761Y-50547619D01*
X81357142Y-50642857D01*
X81357142Y-50785714D01*
X81404761Y-50880952D01*
X81452380Y-50928571D01*
X81547619Y-50976190D01*
X81928571Y-50976190D01*
X80880952Y-51404761D02*
X80880952Y-51452380D01*
X80928571Y-51547619D01*
X80976190Y-51595238D01*
X79166666Y-51452380D02*
X79738095Y-51452380D01*
X79452380Y-51452380D02*
X79452380Y-50452380D01*
X79547619Y-50595238D01*
X79642857Y-50690476D01*
X79738095Y-50738095D01*
X78547619Y-50452380D02*
X78452380Y-50452380D01*
X78357142Y-50500000D01*
X78309523Y-50547619D01*
X78261904Y-50642857D01*
X78214285Y-50833333D01*
X78214285Y-51071428D01*
X78261904Y-51261904D01*
X78309523Y-51357142D01*
X78357142Y-51404761D01*
X78452380Y-51452380D01*
X78547619Y-51452380D01*
X78642857Y-51404761D01*
X78690476Y-51357142D01*
X78738095Y-51261904D01*
X78785714Y-51071428D01*
X78785714Y-50833333D01*
X78738095Y-50642857D01*
X78690476Y-50547619D01*
X78642857Y-50500000D01*
X78547619Y-50452380D01*
X77595238Y-50452380D02*
X77500000Y-50452380D01*
X77404761Y-50500000D01*
X77357142Y-50547619D01*
X77309523Y-50642857D01*
X77261904Y-50833333D01*
X77261904Y-51071428D01*
X77309523Y-51261904D01*
X77357142Y-51357142D01*
X77404761Y-51404761D01*
X77500000Y-51452380D01*
X77595238Y-51452380D01*
X77690476Y-51404761D01*
X77738095Y-51357142D01*
X77785714Y-51261904D01*
X77833333Y-51071428D01*
X77833333Y-50833333D01*
X77785714Y-50642857D01*
X77738095Y-50547619D01*
X77690476Y-50500000D01*
X77595238Y-50452380D01*
X76928571Y-50452380D02*
X76690476Y-51452380D01*
X76500000Y-50738095D01*
X76309523Y-51452380D01*
X76071428Y-50452380D01*
X37377476Y-61491761D02*
X37234619Y-61539380D01*
X36996523Y-61539380D01*
X36901285Y-61491761D01*
X36853666Y-61444142D01*
X36806047Y-61348904D01*
X36806047Y-61253666D01*
X36853666Y-61158428D01*
X36901285Y-61110809D01*
X36996523Y-61063190D01*
X37187000Y-61015571D01*
X37282238Y-60967952D01*
X37329857Y-60920333D01*
X37377476Y-60825095D01*
X37377476Y-60729857D01*
X37329857Y-60634619D01*
X37282238Y-60587000D01*
X37187000Y-60539380D01*
X36948904Y-60539380D01*
X36806047Y-60587000D01*
X35806047Y-61539380D02*
X36139380Y-61063190D01*
X36377476Y-61539380D02*
X36377476Y-60539380D01*
X35996523Y-60539380D01*
X35901285Y-60587000D01*
X35853666Y-60634619D01*
X35806047Y-60729857D01*
X35806047Y-60872714D01*
X35853666Y-60967952D01*
X35901285Y-61015571D01*
X35996523Y-61063190D01*
X36377476Y-61063190D01*
X35520333Y-60539380D02*
X35187000Y-61539380D01*
X34853666Y-60539380D01*
X33996523Y-61539380D02*
X34567952Y-61539380D01*
X34282238Y-61539380D02*
X34282238Y-60539380D01*
X34377476Y-60682238D01*
X34472714Y-60777476D01*
X34567952Y-60825095D01*
X70087619Y-106370380D02*
X70087619Y-105370380D01*
X69706666Y-105370380D01*
X69611428Y-105418000D01*
X69563809Y-105465619D01*
X69516190Y-105560857D01*
X69516190Y-105703714D01*
X69563809Y-105798952D01*
X69611428Y-105846571D01*
X69706666Y-105894190D01*
X70087619Y-105894190D01*
X68897142Y-105370380D02*
X68706666Y-105370380D01*
X68611428Y-105418000D01*
X68516190Y-105513238D01*
X68468571Y-105703714D01*
X68468571Y-106037047D01*
X68516190Y-106227523D01*
X68611428Y-106322761D01*
X68706666Y-106370380D01*
X68897142Y-106370380D01*
X68992380Y-106322761D01*
X69087619Y-106227523D01*
X69135238Y-106037047D01*
X69135238Y-105703714D01*
X69087619Y-105513238D01*
X68992380Y-105418000D01*
X68897142Y-105370380D01*
X68135238Y-105370380D02*
X67897142Y-106370380D01*
X67706666Y-105656095D01*
X67516190Y-106370380D01*
X67278095Y-105370380D01*
X66897142Y-105846571D02*
X66563809Y-105846571D01*
X66420952Y-106370380D02*
X66897142Y-106370380D01*
X66897142Y-105370380D01*
X66420952Y-105370380D01*
X65420952Y-106370380D02*
X65754285Y-105894190D01*
X65992380Y-106370380D02*
X65992380Y-105370380D01*
X65611428Y-105370380D01*
X65516190Y-105418000D01*
X65468571Y-105465619D01*
X65420952Y-105560857D01*
X65420952Y-105703714D01*
X65468571Y-105798952D01*
X65516190Y-105846571D01*
X65611428Y-105894190D01*
X65992380Y-105894190D01*
X65230476Y-106465619D02*
X64468571Y-106465619D01*
X63754285Y-106370380D02*
X64230476Y-106370380D01*
X64230476Y-105370380D01*
X63420952Y-105846571D02*
X63087619Y-105846571D01*
X62944761Y-106370380D02*
X63420952Y-106370380D01*
X63420952Y-105370380D01*
X62944761Y-105370380D01*
X62516190Y-106370380D02*
X62516190Y-105370380D01*
X62278095Y-105370380D01*
X62135238Y-105418000D01*
X62040000Y-105513238D01*
X61992380Y-105608476D01*
X61944761Y-105798952D01*
X61944761Y-105941809D01*
X61992380Y-106132285D01*
X62040000Y-106227523D01*
X62135238Y-106322761D01*
X62278095Y-106370380D01*
X62516190Y-106370380D01*
X124286976Y-57666000D02*
X124382214Y-57618380D01*
X124525071Y-57618380D01*
X124667928Y-57666000D01*
X124763166Y-57761238D01*
X124810785Y-57856476D01*
X124858404Y-58046952D01*
X124858404Y-58189809D01*
X124810785Y-58380285D01*
X124763166Y-58475523D01*
X124667928Y-58570761D01*
X124525071Y-58618380D01*
X124429833Y-58618380D01*
X124286976Y-58570761D01*
X124239357Y-58523142D01*
X124239357Y-58189809D01*
X124429833Y-58189809D01*
X123620309Y-58142190D02*
X123620309Y-58618380D01*
X123953642Y-57618380D02*
X123620309Y-58142190D01*
X123286976Y-57618380D01*
X122953642Y-58237428D02*
X122191738Y-58237428D01*
X121810785Y-57618380D02*
X121191738Y-57618380D01*
X121525071Y-57999333D01*
X121382214Y-57999333D01*
X121286976Y-58046952D01*
X121239357Y-58094571D01*
X121191738Y-58189809D01*
X121191738Y-58427904D01*
X121239357Y-58523142D01*
X121286976Y-58570761D01*
X121382214Y-58618380D01*
X121667928Y-58618380D01*
X121763166Y-58570761D01*
X121810785Y-58523142D01*
X120572690Y-57618380D02*
X120477452Y-57618380D01*
X120382214Y-57666000D01*
X120334595Y-57713619D01*
X120286976Y-57808857D01*
X120239357Y-57999333D01*
X120239357Y-58237428D01*
X120286976Y-58427904D01*
X120334595Y-58523142D01*
X120382214Y-58570761D01*
X120477452Y-58618380D01*
X120572690Y-58618380D01*
X120667928Y-58570761D01*
X120715547Y-58523142D01*
X120763166Y-58427904D01*
X120810785Y-58237428D01*
X120810785Y-57999333D01*
X120763166Y-57808857D01*
X120715547Y-57713619D01*
X120667928Y-57666000D01*
X120572690Y-57618380D01*
X119858404Y-57713619D02*
X119810785Y-57666000D01*
X119715547Y-57618380D01*
X119477452Y-57618380D01*
X119382214Y-57666000D01*
X119334595Y-57713619D01*
X119286976Y-57808857D01*
X119286976Y-57904095D01*
X119334595Y-58046952D01*
X119906023Y-58618380D01*
X119286976Y-58618380D01*
X64618952Y-67651380D02*
X65095142Y-67651380D01*
X65142761Y-68127571D01*
X65095142Y-68079952D01*
X64999904Y-68032333D01*
X64761809Y-68032333D01*
X64666571Y-68079952D01*
X64618952Y-68127571D01*
X64571333Y-68222809D01*
X64571333Y-68460904D01*
X64618952Y-68556142D01*
X64666571Y-68603761D01*
X64761809Y-68651380D01*
X64999904Y-68651380D01*
X65095142Y-68603761D01*
X65142761Y-68556142D01*
X64285619Y-67651380D02*
X63952285Y-68651380D01*
X63618952Y-67651380D01*
X63523714Y-68746619D02*
X62761809Y-68746619D01*
X62523714Y-68127571D02*
X62190380Y-68127571D01*
X62047523Y-68651380D02*
X62523714Y-68651380D01*
X62523714Y-67651380D01*
X62047523Y-67651380D01*
X61714190Y-67651380D02*
X61047523Y-68651380D01*
X61047523Y-67651380D02*
X61714190Y-68651380D01*
X60809428Y-67651380D02*
X60238000Y-67651380D01*
X60523714Y-68651380D02*
X60523714Y-67651380D01*
X41060476Y-61491761D02*
X40917619Y-61539380D01*
X40679523Y-61539380D01*
X40584285Y-61491761D01*
X40536666Y-61444142D01*
X40489047Y-61348904D01*
X40489047Y-61253666D01*
X40536666Y-61158428D01*
X40584285Y-61110809D01*
X40679523Y-61063190D01*
X40870000Y-61015571D01*
X40965238Y-60967952D01*
X41012857Y-60920333D01*
X41060476Y-60825095D01*
X41060476Y-60729857D01*
X41012857Y-60634619D01*
X40965238Y-60587000D01*
X40870000Y-60539380D01*
X40631904Y-60539380D01*
X40489047Y-60587000D01*
X39489047Y-61539380D02*
X39822380Y-61063190D01*
X40060476Y-61539380D02*
X40060476Y-60539380D01*
X39679523Y-60539380D01*
X39584285Y-60587000D01*
X39536666Y-60634619D01*
X39489047Y-60729857D01*
X39489047Y-60872714D01*
X39536666Y-60967952D01*
X39584285Y-61015571D01*
X39679523Y-61063190D01*
X40060476Y-61063190D01*
X39203333Y-60539380D02*
X38870000Y-61539380D01*
X38536666Y-60539380D01*
X38250952Y-60634619D02*
X38203333Y-60587000D01*
X38108095Y-60539380D01*
X37870000Y-60539380D01*
X37774761Y-60587000D01*
X37727142Y-60634619D01*
X37679523Y-60729857D01*
X37679523Y-60825095D01*
X37727142Y-60967952D01*
X38298571Y-61539380D01*
X37679523Y-61539380D01*
M02*
