M48
; DRILL file {KiCad (5.1.6)-1} date 10/19/20 21:50:55
; FORMAT={-:-/ absolute / inch / decimal}
; #@! TF.CreationDate,2020-10-19T21:50:55+02:00
; #@! TF.GenerationSoftware,Kicad,Pcbnew,(5.1.6)-1
FMAT,2
INCH
T1C0.0157
T2C0.0236
T3C0.0276
T4C0.0300
T5C0.0315
T6C0.0354
T7C0.0374
T8C0.0394
T9C0.0402
T10C0.0433
T11C0.0512
T12C0.0591
T13C0.0630
T14C0.0472
T15C0.0787
T16C0.1339
T17C0.1378
%
G90
G05
T1
X1.285Y-2.925
X1.285Y-2.975
X1.285Y-3.025
X1.36Y-3.865
X1.39Y-4.765
X1.395Y-3.47
X1.425Y-2.575
X1.425Y-2.65
X1.425Y-3.215
X1.445Y-3.47
X1.445Y-3.53
X1.48Y-3.215
X1.5Y-2.8
X1.515Y-3.88
X1.53Y-3.215
X1.55Y-2.475
X1.555Y-4.74
X1.57Y-3.88
X1.575Y-2.675
X1.575Y-2.8
X1.58Y-3.215
X1.6Y-1.85
X1.6Y-2.475
X1.6Y-2.625
X1.625Y-2.675
X1.63Y-3.88
X1.695Y-3.88
X1.7Y-1.85
X1.7Y-2.475
X1.705Y-4.765
X1.735Y-4.41
X1.83Y-3.165
X1.83Y-3.22
X1.83Y-3.28
X1.83Y-3.335
X1.83Y-3.385
X1.84Y-2.895
X1.9Y-1.85
X1.91Y-2.79
X1.925Y-3.335
X1.925Y-3.385
X2.0Y-1.85
X2.0Y-1.95
X2.0Y-2.05
X2.0Y-2.15
X2.025Y-2.55
X2.025Y-2.6
X2.05Y-2.5
X2.075Y-2.6
X2.1Y-1.95
X2.1Y-2.05
X2.1Y-2.15
X2.125Y-2.6
X2.15Y-2.75
X2.15Y-2.85
X2.175Y-2.6
X2.225Y-2.6
X2.225Y-3.505
X2.275Y-2.6
X2.275Y-2.75
X2.275Y-2.85
X2.275Y-3.6
X2.275Y-3.7
X2.275Y-3.8
X2.295Y-3.05
X2.3Y-4.4
X2.3Y-4.5
X2.3Y-4.6
X2.3Y-4.7
X2.325Y-2.6
X2.375Y-2.6
X2.38Y-4.0
X2.38Y-3.905
X2.4Y-2.75
X2.4Y-2.85
X2.4Y-3.1
X2.4Y-3.2
X2.4Y-3.5
X2.4Y-3.8
X2.4Y-4.4
X2.4Y-4.5
X2.4Y-4.6
X2.4Y-4.7
X2.4Y-4.925
X2.425Y-2.6
X2.475Y-2.6
X2.525Y-2.75
X2.525Y-3.2
X2.525Y-3.3
X2.525Y-3.4
X2.525Y-3.5
X2.525Y-3.6
X2.525Y-3.7
X2.525Y-3.8
X2.525Y-3.9
X2.525Y-4.4
X2.525Y-4.5
X2.525Y-4.6
X2.525Y-4.7
X2.6Y-1.5
X2.65Y-2.85
X2.65Y-2.975
X2.65Y-3.3
X2.65Y-3.4
X2.65Y-3.5
X2.65Y-3.6
X2.65Y-3.7
X2.65Y-3.8
X2.65Y-3.9
X2.65Y-4.4
X2.65Y-4.5
X2.65Y-4.6
X2.65Y-4.7
X2.7Y-1.5
X2.7Y-2.15
X2.775Y-2.75
X2.775Y-2.85
X2.775Y-2.975
X2.775Y-3.1
X2.775Y-3.2
X2.775Y-3.4
X2.775Y-3.5
X2.775Y-3.6
X2.775Y-3.7
X2.775Y-3.8
X2.775Y-3.9
X2.775Y-4.4
X2.775Y-4.5
X2.775Y-4.6
X2.775Y-4.7
X2.775Y-4.925
X2.8Y-1.225
X2.8Y-1.325
X2.9Y-1.225
X2.9Y-1.325
X2.9Y-2.65
X2.9Y-2.75
X2.9Y-2.85
X2.9Y-2.975
X2.9Y-3.1
X2.9Y-3.2
X2.9Y-3.5
X2.9Y-3.6
X2.9Y-3.7
X2.9Y-3.8
X2.9Y-3.9
X2.9Y-4.4
X2.9Y-4.6
X2.9Y-4.7
X2.9Y-4.925
X3.0Y-2.15
X3.0Y-2.65
X3.0Y-2.75
X3.0Y-2.85
X3.0Y-4.6
X3.0Y-4.7
X3.0Y-4.925
X3.075Y-3.925
X3.095Y-4.15
X3.1Y-1.5
X3.1Y-1.6
X3.1Y-1.7
X3.1Y-1.8
X3.1Y-2.025
X3.1Y-2.15
X3.1Y-2.65
X3.1044Y-1.8956
X3.15Y-5.05
X3.185Y-3.25
X3.19Y-3.065
X3.2Y-1.5
X3.2Y-1.6
X3.2Y-1.7
X3.2Y-1.8
X3.2Y-1.9
X3.2Y-2.15
X3.245Y-2.65
X3.245Y-2.75
X3.275Y-4.725
X3.275Y-4.825
X3.3Y-1.5
X3.3Y-1.6
X3.3Y-1.7
X3.3Y-1.8
X3.3Y-1.9
X3.3Y-2.15
X3.3Y-5.05
X3.335Y-1.96
X3.335Y-2.01
X3.355Y-1.225
X3.355Y-1.33
X3.36Y-1.87
X3.375Y-4.825
X3.4Y-1.5
X3.4Y-1.6
X3.4Y-1.91
X3.4Y-1.96
X3.4Y-3.9
X3.4Y-4.015
X3.4Y-4.125
X3.4Y-4.225
X3.4Y-4.3
X3.405Y-2.485
X3.435Y-1.715
X3.435Y-1.765
X3.435Y-1.815
X3.44Y-1.33
X3.45Y-5.05
X3.475Y-4.825
X3.5Y-2.15
X3.5Y-2.25
X3.5Y-2.35
X3.5Y-4.34
X3.5Y-4.58
X3.505Y-1.255
X3.505Y-1.33
X3.545Y-1.895
X3.545Y-2.39
X3.575Y-2.15
X3.575Y-2.25
X3.575Y-2.35
X3.575Y-4.825
X3.6Y-3.9
X3.6Y-4.48
X3.6Y-4.55
X3.6Y-4.625
X3.6Y-5.05
X3.605Y-4.015
X3.65Y-2.25
X3.65Y-2.35
X3.65Y-3.75
X3.67Y-4.48
X3.675Y-4.55
X3.675Y-4.625
X3.675Y-4.825
X3.68Y-4.71
X3.7Y-3.9
X3.7Y-4.125
X3.7039Y-3.5856
X3.725Y-2.25
X3.725Y-2.35
X3.74Y-3.57
X3.75Y-4.4
X3.75Y-4.475
X3.75Y-4.55
X3.75Y-4.625
X3.75Y-4.825
X3.75Y-5.05
X3.79Y-4.145
X3.8Y-2.25
X3.8Y-2.35
X3.835Y-3.37
X3.835Y-3.425
X3.835Y-3.48
X3.84Y-4.015
X3.875Y-2.25
X3.9Y-5.05
X3.95Y-2.25
X4.0Y-3.5
X4.0Y-3.75
X4.025Y-2.25
X4.05Y-5.05
X4.08Y-2.4199
X4.1Y-2.25
X4.1Y-3.5
X4.1Y-4.0
X4.15Y-4.475
X4.15Y-4.55
X4.175Y-2.25
X4.2Y-3.75
X4.2Y-5.05
X4.21Y-2.315
X4.3Y-2.65
X4.3Y-3.75
X4.3Y-4.195
X4.3Y-4.3
X4.3Y-4.425
X4.3Y-4.55
X4.3Y-4.675
X4.4Y-2.65
X4.47Y-4.3
X4.475Y-4.0
X4.475Y-4.195
X4.475Y-4.425
X4.475Y-4.55
X4.475Y-4.675
X4.5Y-2.65
X4.555Y-2.81
X4.565Y-3.275
X4.575Y-4.0
X4.575Y-4.075
X4.6Y-1.5
X4.6Y-1.6
X4.6Y-1.7
X4.6Y-2.65
X4.6Y-3.075
X4.655Y-3.28
X4.675Y-3.71
X4.8Y-1.5
X4.8Y-1.6
X4.8Y-2.1
X4.84Y-2.51
X4.84Y-3.21
X4.9Y-1.5
X4.9Y-1.6
X4.9Y-1.7
X4.9Y-1.9
X4.9Y-2.0
X4.9Y-2.1
X5.0Y-2.1
X5.0Y-2.2
X5.0Y-2.3
X5.0Y-2.4
X5.0Y-2.5
X5.0Y-2.6
X5.0Y-2.7
X5.0Y-2.8
X5.0Y-2.9
X5.0Y-3.0
X5.0Y-3.1
X5.0Y-3.2
X5.0Y-3.3
X5.0Y-3.4
X5.0Y-3.5
X5.0Y-3.6
X5.0Y-3.7
X5.0Y-3.9
X5.0Y-4.2
T2
X2.4042Y-2.9442
T3
X3.955Y-2.5
X3.955Y-2.8
X4.255Y-2.5
X4.255Y-2.8
X4.455Y-2.5
X4.455Y-2.8
X4.655Y-2.5
X4.655Y-2.8
X3.955Y-3.34
X3.955Y-3.64
X4.255Y-3.34
X4.255Y-3.64
X4.455Y-3.34
X4.455Y-3.64
X4.655Y-3.34
X4.655Y-3.64
X3.955Y-2.92
X3.955Y-3.22
X4.255Y-2.92
X4.255Y-3.22
X4.455Y-2.92
X4.455Y-3.22
X4.655Y-2.92
X4.655Y-3.22
T4
X2.0Y-1.375
X2.0Y-1.475
X2.0Y-1.575
X2.0Y-1.675
X4.3Y-1.375
X4.3Y-1.475
X4.3Y-1.575
X4.3Y-1.675
T5
X4.175Y-3.03
X4.175Y-3.53
X4.275Y-3.03
X4.275Y-3.53
X4.375Y-3.03
X4.375Y-3.53
X4.475Y-3.03
X4.475Y-3.53
T6
X2.87Y-1.535
X2.87Y-1.635
X2.87Y-1.735
X2.87Y-1.835
X2.87Y-1.935
X2.87Y-2.035
X3.7165Y-1.6256
X3.7165Y-1.7256
X3.7165Y-1.8256
X3.7165Y-1.9256
X3.7165Y-2.0256
X3.7165Y-2.1256
X4.71Y-1.72
X4.71Y-1.82
X4.535Y-3.865
X4.635Y-3.865
X4.155Y-3.865
X4.255Y-3.865
T7
X1.925Y-2.965
X1.925Y-3.0634
X1.925Y-3.1619
X1.925Y-3.2603
X1.4266Y-2.945
X1.525Y-2.945
X1.6234Y-2.945
X1.7219Y-2.945
X3.415Y-2.62
X3.5134Y-2.62
X3.6119Y-2.62
X3.7103Y-2.62
X3.8087Y-2.62
X1.925Y-3.495
X1.925Y-3.5934
X1.925Y-3.6919
X1.925Y-3.7903
X3.875Y-4.0729
X3.875Y-4.1713
X3.875Y-4.2697
X3.875Y-4.3681
X3.875Y-4.4666
X3.875Y-4.565
T8
X2.56Y-2.5
X2.56Y-2.6
X3.255Y-2.85
X3.255Y-2.95
X3.255Y-3.05
X3.255Y-3.15
X3.255Y-3.25
X3.255Y-3.35
X3.255Y-3.45
X1.965Y-4.275
X1.965Y-4.375
X1.965Y-4.475
X1.965Y-4.575
X2.11Y-2.5
X2.21Y-2.5
X2.31Y-2.5
X2.41Y-2.5
X3.235Y-3.9066
X3.235Y-4.005
X3.235Y-4.1034
X3.05Y-4.195
X3.05Y-4.295
X3.05Y-4.395
X3.05Y-4.495
X4.05Y-4.195
X4.05Y-4.295
X4.05Y-4.395
X4.05Y-4.495
X3.27Y-4.35
X3.27Y-4.45
X3.27Y-4.55
X3.27Y-4.65
X1.7913Y-1.8382
X1.7913Y-1.9382
X1.7913Y-2.0382
X1.7913Y-2.1382
X2.11Y-2.275
X2.21Y-2.275
X2.31Y-2.275
X2.41Y-2.275
X3.0496Y-2.345
X3.1496Y-2.345
X3.2496Y-2.345
X4.435Y-1.375
X4.435Y-1.475
X4.435Y-1.575
X4.435Y-1.675
X3.0496Y-2.43
X3.1496Y-2.43
X3.2496Y-2.43
X1.965Y-2.47
X1.965Y-2.57
X1.965Y-2.67
X3.405Y-3.66
X3.505Y-3.66
X3.605Y-3.66
X3.705Y-3.66
X3.805Y-3.66
X1.43Y-2.16
X1.43Y-2.26
X1.43Y-2.36
X1.53Y-2.16
X1.53Y-2.26
X1.53Y-2.36
X1.4581Y-3.74
X1.4581Y-4.3109
X1.5566Y-3.74
X1.655Y-3.74
X1.655Y-4.3109
X4.485Y-2.22
X4.585Y-2.22
X4.685Y-2.22
X4.785Y-2.22
X4.885Y-2.22
X2.6Y-4.24
X2.6Y-4.9487
X2.135Y-3.0
X2.135Y-3.1
X2.135Y-3.2
X2.135Y-3.3
X2.135Y-3.4
X2.135Y-3.5
X2.135Y-3.6
X2.135Y-3.7
X2.135Y-3.8
X2.135Y-3.9
X2.135Y-4.0
X2.135Y-4.1
X2.135Y-4.2
X2.135Y-4.3
X2.135Y-4.4
X2.135Y-4.5
X2.135Y-4.6
X2.135Y-4.7
X2.135Y-4.8
X3.135Y-3.0
X3.135Y-3.1
X3.135Y-3.2
X3.135Y-3.3
X3.135Y-3.4
X3.135Y-3.5
X3.135Y-3.6
X3.135Y-3.7
X3.135Y-3.8
X3.135Y-3.9
X3.135Y-4.0
X3.135Y-4.1
X3.135Y-4.2
X3.135Y-4.3
X3.135Y-4.4
X3.135Y-4.5
X3.135Y-4.6
X3.135Y-4.7
X3.135Y-4.8
X3.285Y-4.905
X3.385Y-4.905
X3.485Y-4.905
X3.585Y-4.905
X4.79Y-2.36
X4.79Y-2.46
X4.79Y-2.56
X4.79Y-2.66
X4.79Y-2.76
X4.79Y-2.86
X4.79Y-2.96
X4.79Y-3.06
X4.79Y-3.16
X4.79Y-3.26
X4.79Y-3.36
X4.79Y-3.46
X4.79Y-3.56
X4.79Y-3.66
X4.79Y-3.76
X4.79Y-3.86
X4.79Y-3.96
X4.79Y-4.06
X4.79Y-4.16
X4.79Y-4.26
X4.79Y-4.36
X4.79Y-4.46
X4.79Y-4.56
X4.79Y-4.66
X4.79Y-4.76
X4.89Y-2.36
X4.89Y-2.46
X4.89Y-2.56
X4.89Y-2.66
X4.89Y-2.76
X4.89Y-2.86
X4.89Y-2.96
X4.89Y-3.06
X4.89Y-3.16
X4.89Y-3.26
X4.89Y-3.36
X4.89Y-3.46
X4.89Y-3.56
X4.89Y-3.66
X4.89Y-3.76
X4.89Y-3.86
X4.89Y-3.96
X4.89Y-4.06
X4.89Y-4.16
X4.89Y-4.26
X4.89Y-4.36
X4.89Y-4.46
X4.89Y-4.56
X4.89Y-4.66
X4.89Y-4.76
X3.4Y-4.415
X3.4Y-4.715
X3.5Y-4.415
X3.5Y-4.715
X3.6Y-4.415
X3.6Y-4.715
T9
X1.485Y-2.52
X1.485Y-2.62
X1.485Y-2.72
X1.79Y-2.52
X1.79Y-2.62
X1.79Y-2.72
T10
X4.57Y-1.865
X4.57Y-1.965
X4.57Y-2.065
X2.23Y-4.4
X2.23Y-4.5
X2.23Y-4.6
T11
X1.4567Y-3.13
X1.4567Y-3.6221
X1.6535Y-3.13
X1.6535Y-3.6221
X4.1529Y-4.1481
X4.1529Y-4.345
X4.645Y-4.1481
X4.645Y-4.345
X4.1529Y-4.6431
X4.1529Y-4.84
X4.645Y-4.6431
X4.645Y-4.84
X1.4567Y-4.4291
X1.4567Y-4.9213
X1.6535Y-4.4291
X1.6535Y-4.9213
T13
X1.5866Y-1.9882
X4.7126Y-1.9882
T14
X3.352Y-2.5413
T15
X3.4005Y-2.9787
X3.4005Y-3.1362
X3.4005Y-3.2937
X3.4497Y-2.9
X3.4497Y-3.0575
X3.4497Y-3.215
X3.4497Y-3.3724
X3.4989Y-2.8213
X3.4989Y-2.9787
X3.4989Y-3.1362
X3.4989Y-3.2937
X3.4989Y-3.4512
X3.5481Y-2.9
X3.5481Y-3.0575
X3.5481Y-3.215
X3.5481Y-3.3724
X3.5974Y-2.8213
X3.5974Y-2.9787
X3.5974Y-3.1362
X3.5974Y-3.2937
X3.5974Y-3.4512
X3.6466Y-2.9
X3.6466Y-3.0575
X3.6466Y-3.215
X3.6466Y-3.3724
X3.6958Y-2.8213
X3.6958Y-2.9787
X3.6958Y-3.1362
X3.6958Y-3.2937
X3.6958Y-3.4512
X3.745Y-2.9
X3.745Y-3.0575
X3.745Y-3.215
X3.745Y-3.3724
X3.7942Y-2.9787
X3.7942Y-3.1362
X3.7942Y-3.2937
X3.5106Y-3.8318
X3.5106Y-4.1782
T16
X1.94Y-4.8221
X3.9085Y-4.8221
T17
X2.8859Y-4.5
X3.9141Y-1.965
T8
G00X1.485Y-1.4506
M15
G01X1.485Y-1.5294
M16
G05
G00X1.5637Y-1.675
M15
G01X1.6425Y-1.675
M16
G05
G00X1.7212Y-1.4506
M15
G01X1.7212Y-1.5294
M16
G05
T12
G00X1.3361Y-4.0097
M15
G01X1.3361Y-4.0609
M16
G05
G00X1.777Y-4.0097
M15
G01X1.777Y-4.0609
M16
G05
T17
G00X2.2441Y-1.5945
M15
G01X2.3228Y-1.5945
M16
G05
G00X3.9764Y-1.5945
M15
G01X4.0551Y-1.5945
M16
G05
T0
M30
