M48
; DRILL file {KiCad (5.1.5)-3} date 21.06.2020 14:07:24
; FORMAT={-:-/ absolute / inch / decimal}
; #@! TF.CreationDate,2020-06-21T14:07:24+02:00
; #@! TF.GenerationSoftware,Kicad,Pcbnew,(5.1.5)-3
FMAT,2
INCH
T1C0.0157
T2C0.0276
T3C0.0295
T4C0.0300
T5C0.0315
T6C0.0354
T7C0.0374
T8C0.0394
T9C0.0433
T10C0.0472
T11C0.0512
T12C0.1378
%
G90
G05
T1
X1.7275Y-3.495
X2.3487Y-4.1413
X2.4Y-4.1
X2.4Y-4.14
X2.535Y-2.535
X2.57Y-2.56
X2.6365Y-3.2335
X2.6687Y-3.2585
X3.1905Y-4.9605
X3.21Y-3.215
X3.4499Y-2.83
X3.45Y-2.925
X3.45Y-5.05
X3.6Y-5.05
X3.75Y-5.05
X3.9Y-5.05
X4.05Y-5.05
X4.2Y-5.05
T2
X4.0096Y-2.92
X4.0096Y-3.22
X4.3096Y-2.92
X4.3096Y-3.22
X4.5092Y-3.22
X4.51Y-2.9196
X4.7096Y-3.22
X4.71Y-2.9196
X4.01Y-2.5
X4.01Y-2.8
X4.31Y-2.5
X4.31Y-2.8
X4.5096Y-2.8
X4.5104Y-2.4996
X4.71Y-2.8
X4.7104Y-2.4996
X4.01Y-3.34
X4.01Y-3.64
X4.31Y-3.34
X4.31Y-3.64
X4.5096Y-3.64
X4.5104Y-3.3396
X4.71Y-3.64
X4.7104Y-3.3396
T3
X3.865Y-2.5
X3.865Y-2.55
X3.865Y-2.6
T4
X4.485Y-2.22
X4.585Y-2.22
X4.685Y-2.22
X4.785Y-2.22
X4.885Y-2.22
X3.3Y-4.63
X3.3Y-4.73
X3.3Y-4.83
X3.3Y-4.93
T5
X4.08Y-4.3691
X4.08Y-4.6691
X1.95Y-3.11
X1.95Y-3.21
X1.95Y-3.31
X4.425Y-2.36
X4.725Y-2.36
X1.8998Y-4.3673
X1.8998Y-4.6673
X4.21Y-4.3691
X4.21Y-4.6691
X2.32Y-3.18
X2.32Y-3.48
X2.0298Y-3.7173
X2.0298Y-4.0173
X3.63Y-2.83
X3.63Y-3.13
X3.88Y-2.83
X3.88Y-3.13
X3.275Y-3.6
X3.275Y-3.9
X1.8998Y-3.7173
X1.8998Y-4.0173
X3.505Y-2.83
X3.505Y-3.13
X4.0Y-2.39
X4.3Y-2.39
X3.755Y-2.83
X3.755Y-3.13
X2.0298Y-4.3673
X2.0298Y-4.6673
T6
X1.8996Y-3.5433
X1.9996Y-3.5433
X4.0929Y-4.1929
X4.1929Y-4.1929
X4.0929Y-4.8425
X4.1929Y-4.8425
X1.8996Y-4.8425
X1.9996Y-4.8425
X1.8996Y-4.1929
X1.9996Y-4.1929
T7
X3.3347Y-2.52
X3.4331Y-2.52
X3.5316Y-2.52
X3.63Y-2.52
T8
X3.27Y-2.8
X3.27Y-2.9
X3.27Y-3.0
X3.27Y-3.1
X3.27Y-3.2
X3.27Y-3.3
X3.27Y-3.4
X2.07Y-2.29
X2.17Y-2.29
X2.27Y-2.29
X2.37Y-2.29
X4.125Y-2.285
X4.225Y-2.285
X4.325Y-2.285
X3.94Y-4.21
X3.94Y-4.31
X3.94Y-4.41
X3.94Y-4.51
X3.94Y-4.61
X3.94Y-4.71
X3.94Y-4.81
X3.94Y-4.91
X2.65Y-4.24
X2.65Y-4.9487
X4.85Y-3.11
X4.85Y-3.21
X4.85Y-3.31
X4.85Y-3.41
X4.85Y-3.51
X4.85Y-3.61
X4.85Y-3.71
X2.15Y-3.0
X2.15Y-3.1
X2.15Y-3.2
X2.15Y-3.3
X2.15Y-3.4
X2.15Y-3.5
X2.15Y-3.6
X2.15Y-3.7
X2.15Y-3.8
X2.15Y-3.9
X2.15Y-4.0
X2.15Y-4.1
X2.15Y-4.2
X2.15Y-4.3
X2.15Y-4.4
X2.15Y-4.5
X2.15Y-4.6
X2.15Y-4.7
X2.15Y-4.8
X3.15Y-3.0
X3.15Y-3.1
X3.15Y-3.2
X3.15Y-3.3
X3.15Y-3.4
X3.15Y-3.5
X3.15Y-3.6
X3.15Y-3.7
X3.15Y-3.8
X3.15Y-3.9
X3.15Y-4.0
X3.15Y-4.1
X3.15Y-4.2
X3.15Y-4.3
X3.15Y-4.4
X3.15Y-4.5
X3.15Y-4.6
X3.15Y-4.7
X3.15Y-4.8
X3.365Y-2.95
X3.365Y-3.05
X3.365Y-3.15
X3.365Y-3.25
X3.365Y-3.35
X3.365Y-3.45
X1.545Y-2.14
X1.545Y-2.24
X1.545Y-2.34
X1.7913Y-1.8382
X1.7913Y-1.9382
X1.7913Y-2.0382
X1.7913Y-2.1382
X3.46Y-4.61
X3.46Y-4.71
X3.46Y-4.81
X3.76Y-4.61
X3.76Y-4.71
X3.76Y-4.81
X2.465Y-2.29
X2.465Y-2.39
X1.69Y-2.14
X1.69Y-2.24
X1.69Y-2.34
X1.79Y-2.595
X1.79Y-2.695
X1.79Y-2.795
X2.1Y-4.9
X2.2Y-4.9
X4.85Y-2.36
X4.85Y-2.46
X4.85Y-2.56
X4.85Y-2.66
X4.85Y-2.76
X4.85Y-2.86
X4.85Y-2.96
X1.4Y-2.14
X1.4Y-2.24
X1.4Y-2.34
X3.4926Y-3.7347
X3.591Y-3.7347
X3.6894Y-3.7347
X4.85Y-4.61
X4.85Y-4.71
X4.85Y-4.81
X4.85Y-4.91
X4.85Y-3.86
X4.85Y-3.96
X4.85Y-4.06
X4.85Y-4.16
X4.85Y-4.26
X4.85Y-4.36
X4.85Y-4.46
X3.53Y-3.43
X3.8292Y-3.43
X1.4764Y-1.8898
X4.8228Y-1.8898
X3.015Y-2.285
X3.115Y-2.285
X3.215Y-2.285
T9
X4.415Y-2.1
X4.515Y-2.1
X4.615Y-2.1
X2.2991Y-3.8
X2.2991Y-3.9
X2.2991Y-4.0
T11
X1.4567Y-4.4291
X1.4567Y-4.9213
X1.6535Y-4.4291
X1.6535Y-4.9213
X1.4567Y-3.7795
X1.4567Y-4.2717
X1.6535Y-3.7795
X1.6535Y-4.2717
X4.4291Y-3.7795
X4.4291Y-4.2717
X4.626Y-3.7795
X4.626Y-4.2717
X1.4567Y-3.1299
X1.4567Y-3.622
X1.6535Y-3.1299
X1.6535Y-3.622
X4.4291Y-4.4291
X4.4291Y-4.9213
X4.626Y-4.4291
X4.626Y-4.9213
T12
X4.515Y-1.4441
X2.955Y-3.9
T8
G00X1.4961Y-1.4606
M15
G01X1.4961Y-1.5394
M16
G05
G00X1.5748Y-1.685
M15
G01X1.6535Y-1.685
M16
G05
G00X1.7323Y-1.4606
M15
G01X1.7323Y-1.5394
M16
G05
T9
G00X3.402Y-4.0162
M15
G01X3.402Y-4.0438
M16
G05
G00X3.78Y-4.0162
M15
G01X3.78Y-4.0438
M16
G05
T10
G00X1.5787Y-2.6102
M15
G01X1.5315Y-2.6102
M16
G05
G00X1.5787Y-2.7953
M15
G01X1.5315Y-2.7953
M16
G05
G00X1.5787Y-2.9803
M15
G01X1.5315Y-2.9803
M16
G05
T12
G00X2.2146Y-1.4764
M15
G01X2.3524Y-1.4764
M16
G05
G00X3.9469Y-1.4764
M15
G01X4.0846Y-1.4764
M16
G05
T0
M30
