M48
; DRILL file {KiCad (5.1.6)-1} date 08/28/20 23:53:33
; FORMAT={-:-/ absolute / inch / decimal}
; #@! TF.CreationDate,2020-08-28T23:53:33+02:00
; #@! TF.GenerationSoftware,Kicad,Pcbnew,(5.1.6)-1
FMAT,2
INCH
T1C0.0157
T2C0.0236
T3C0.0276
T4C0.0300
T5C0.0354
T6C0.0374
T7C0.0394
T8C0.0402
T9C0.0433
T10C0.0512
T11C0.0591
T12C0.0630
T13C0.0472
T14C0.0787
T15C0.1339
T16C0.1378
%
G90
G05
T1
X1.25Y-3.9
X1.25Y-4.1
X1.25Y-4.25
X1.425Y-2.575
X1.425Y-2.65
X1.425Y-2.8
X1.5Y-2.8
X1.55Y-2.475
X1.55Y-3.1
X1.55Y-3.2
X1.55Y-3.3
X1.55Y-3.6
X1.55Y-3.85
X1.575Y-2.675
X1.575Y-2.8
X1.6Y-1.85
X1.6Y-2.475
X1.6Y-2.625
X1.625Y-2.675
X1.625Y-3.85
X1.65Y-2.825
X1.6535Y-3.4515
X1.7Y-1.85
X1.7Y-2.475
X1.7Y-3.85
X1.725Y-2.825
X1.75Y-4.425
X1.75Y-4.525
X1.75Y-4.625
X1.75Y-4.725
X1.775Y-3.57
X1.775Y-3.7
X1.775Y-3.775
X1.775Y-3.85
X1.8Y-2.825
X1.84Y-2.919
X1.85Y-3.7
X1.875Y-2.825
X1.9Y-1.85
X1.91Y-2.79
X2.0Y-1.85
X2.0Y-1.95
X2.0Y-2.05
X2.0Y-2.15
X2.0Y-2.25
X2.025Y-2.55
X2.025Y-2.6
X2.05Y-2.5
X2.075Y-2.6
X2.1Y-1.95
X2.1Y-2.05
X2.1Y-2.15
X2.125Y-2.6
X2.15Y-2.75
X2.15Y-2.85
X2.175Y-2.6
X2.225Y-2.6
X2.275Y-2.6
X2.275Y-2.75
X2.275Y-2.85
X2.275Y-3.2
X2.275Y-3.3
X2.275Y-3.4
X2.275Y-3.5
X2.275Y-3.6
X2.275Y-3.7
X2.275Y-3.8
X2.295Y-3.05
X2.3Y-4.1
X2.3Y-4.2
X2.3Y-4.3
X2.3Y-4.4
X2.3Y-4.5
X2.3Y-4.6
X2.3Y-4.7
X2.325Y-2.6
X2.375Y-2.6
X2.375Y-4.045
X2.375Y-4.13
X2.4Y-2.75
X2.4Y-2.85
X2.4Y-3.1
X2.4Y-3.2
X2.4Y-3.5
X2.4Y-3.8
X2.4Y-3.9
X2.4Y-4.0
X2.4Y-4.2
X2.4Y-4.3
X2.4Y-4.4
X2.4Y-4.5
X2.4Y-4.6
X2.4Y-4.7
X2.4Y-4.925
X2.425Y-2.6
X2.475Y-2.6
X2.525Y-2.75
X2.525Y-3.2
X2.525Y-3.3
X2.525Y-3.4
X2.525Y-3.5
X2.525Y-3.6
X2.525Y-3.7
X2.525Y-3.8
X2.525Y-3.9
X2.525Y-4.0
X2.525Y-4.1
X2.525Y-4.2
X2.525Y-4.3
X2.525Y-4.4
X2.525Y-4.5
X2.525Y-4.6
X2.525Y-4.7
X2.6Y-1.5
X2.6Y-1.8
X2.6Y-1.9
X2.65Y-2.85
X2.65Y-2.975
X2.65Y-3.3
X2.65Y-3.4
X2.65Y-3.5
X2.65Y-3.6
X2.65Y-3.7
X2.65Y-3.8
X2.65Y-3.9
X2.65Y-4.0
X2.65Y-4.1
X2.65Y-4.3
X2.65Y-4.4
X2.65Y-4.5
X2.65Y-4.6
X2.65Y-4.7
X2.7Y-1.5
X2.7Y-2.15
X2.775Y-2.75
X2.775Y-2.85
X2.775Y-2.975
X2.775Y-3.1
X2.775Y-3.2
X2.775Y-3.4
X2.775Y-3.5
X2.775Y-3.6
X2.775Y-3.7
X2.775Y-3.8
X2.775Y-3.9
X2.775Y-4.0
X2.775Y-4.1
X2.775Y-4.2
X2.775Y-4.3
X2.775Y-4.4
X2.775Y-4.5
X2.775Y-4.6
X2.775Y-4.7
X2.775Y-4.925
X2.8Y-1.225
X2.8Y-1.325
X2.8Y-1.425
X2.9Y-1.225
X2.9Y-1.325
X2.9Y-2.65
X2.9Y-2.75
X2.9Y-2.85
X2.9Y-2.975
X2.9Y-3.1
X2.9Y-3.2
X2.9Y-3.5
X2.9Y-3.6
X2.9Y-3.7
X2.9Y-3.8
X2.9Y-3.9
X2.9Y-4.0
X2.9Y-4.1
X2.9Y-4.2
X2.9Y-4.3
X2.9Y-4.4
X2.9Y-4.5
X2.9Y-4.6
X2.9Y-4.7
X2.9Y-4.925
X3.0Y-1.5
X3.0Y-1.6
X3.0Y-1.7
X3.0Y-1.8
X3.0Y-2.025
X3.0Y-2.15
X3.0Y-2.65
X3.0Y-2.75
X3.0Y-2.85
X3.0Y-2.975
X3.0Y-3.1
X3.0Y-3.2
X3.0Y-4.6
X3.0Y-4.7
X3.0Y-4.925
X3.1Y-1.425
X3.1Y-1.5
X3.1Y-1.6
X3.1Y-1.7
X3.1Y-1.8
X3.1Y-2.025
X3.1Y-2.15
X3.1Y-2.65
X3.15Y-5.05
X3.175Y-2.875
X3.175Y-2.92
X3.2Y-1.425
X3.2Y-1.5
X3.2Y-1.6
X3.2Y-1.7
X3.2Y-1.8
X3.2Y-1.9
X3.2Y-2.025
X3.2Y-2.15
X3.2Y-2.65
X3.205Y-3.25
X3.21Y-3.155
X3.25Y-4.125
X3.275Y-3.75
X3.275Y-3.8
X3.275Y-3.85
X3.275Y-4.725
X3.275Y-4.825
X3.3Y-1.425
X3.3Y-1.5
X3.3Y-1.6
X3.3Y-1.7
X3.3Y-1.8
X3.3Y-1.9
X3.3Y-2.15
X3.3Y-5.05
X3.325Y-4.125
X3.35Y-2.025
X3.35Y-3.75
X3.35Y-3.8
X3.35Y-3.85
X3.375Y-4.825
X3.39Y-3.28
X3.39Y-3.44
X3.4Y-1.225
X3.4Y-1.325
X3.4Y-1.425
X3.4Y-1.5
X3.4Y-1.6
X3.4Y-4.05
X3.4Y-4.125
X3.4Y-4.225
X3.4Y-4.3
X3.425Y-2.695
X3.425Y-3.85
X3.435Y-1.715
X3.435Y-1.765
X3.435Y-1.815
X3.435Y-1.865
X3.45Y-5.05
X3.4517Y-1.96
X3.47Y-2.695
X3.475Y-4.225
X3.475Y-4.3
X3.475Y-4.825
X3.5Y-1.225
X3.5Y-1.325
X3.5Y-2.15
X3.5Y-2.25
X3.5Y-2.35
X3.5Y-2.525
X3.5Y-3.75
X3.5Y-3.85
X3.52Y-2.44
X3.525Y-2.95
X3.55Y-4.225
X3.575Y-2.15
X3.575Y-2.25
X3.575Y-2.35
X3.575Y-2.525
X3.575Y-3.75
X3.575Y-3.85
X3.575Y-4.025
X3.575Y-4.125
X3.575Y-4.825
X3.6Y-4.55
X3.6Y-4.625
X3.6Y-5.05
X3.625Y-2.95
X3.635Y-4.025
X3.65Y-2.25
X3.65Y-2.35
X3.65Y-2.525
X3.65Y-3.75
X3.675Y-4.55
X3.675Y-4.625
X3.675Y-4.825
X3.7Y-4.125
X3.725Y-2.25
X3.725Y-2.35
X3.725Y-2.95
X3.725Y-3.75
X3.725Y-3.8
X3.75Y-4.4
X3.75Y-4.475
X3.75Y-4.55
X3.75Y-4.625
X3.75Y-4.825
X3.75Y-5.05
X3.775Y-4.125
X3.8Y-2.25
X3.8Y-2.35
X3.8Y-3.75
X3.825Y-2.95
X3.84Y-4.045
X3.875Y-2.25
X3.9Y-5.05
X3.925Y-4.725
X3.95Y-2.25
X3.975Y-2.42
X4.0Y-3.5
X4.0Y-3.75
X4.0Y-4.725
X4.025Y-2.25
X4.05Y-5.05
X4.1Y-2.25
X4.1Y-3.5
X4.1Y-3.75
X4.1Y-4.0
X4.15Y-4.475
X4.15Y-4.55
X4.175Y-2.25
X4.2Y-2.65
X4.2Y-3.075
X4.2Y-3.5
X4.2Y-3.75
X4.2Y-5.05
X4.21Y-2.315
X4.3Y-2.65
X4.3Y-3.075
X4.3Y-3.5
X4.3Y-3.75
X4.3Y-4.195
X4.3Y-4.3
X4.3Y-4.425
X4.3Y-4.55
X4.3Y-4.675
X4.4Y-2.65
X4.4Y-3.075
X4.4Y-3.5
X4.4Y-3.75
X4.475Y-4.0
X4.475Y-4.195
X4.475Y-4.425
X4.475Y-4.55
X4.475Y-4.675
X4.5Y-2.65
X4.5Y-3.075
X4.555Y-2.81
X4.565Y-3.275
X4.575Y-4.0
X4.575Y-4.075
X4.6Y-1.5
X4.6Y-1.6
X4.6Y-1.7
X4.6Y-2.65
X4.6Y-3.075
X4.655Y-3.28
X4.66Y-3.445
X4.675Y-3.71
X4.7Y-1.5
X4.7Y-1.6
X4.7Y-1.7
X4.7Y-1.8
X4.8Y-1.5
X4.8Y-1.6
X4.8Y-1.7
X4.8Y-1.8
X4.8Y-2.1
X4.84Y-2.51
X4.84Y-3.21
X4.9Y-1.5
X4.9Y-1.6
X4.9Y-1.7
X4.9Y-1.8
X4.9Y-1.9
X4.9Y-2.0
X4.9Y-2.1
X5.0Y-2.1
X5.0Y-2.2
X5.0Y-2.3
X5.0Y-2.4
X5.0Y-2.5
X5.0Y-2.6
X5.0Y-2.7
X5.0Y-2.8
X5.0Y-2.9
X5.0Y-3.0
X5.0Y-3.1
X5.0Y-3.2
X5.0Y-3.3
X5.0Y-3.4
X5.0Y-3.5
X5.0Y-3.6
X5.0Y-3.7
X5.0Y-3.9
X5.0Y-4.2
T2
X2.4042Y-2.9442
T3
X3.955Y-3.34
X3.955Y-3.64
X4.255Y-3.34
X4.255Y-3.64
X4.455Y-3.34
X4.455Y-3.64
X4.655Y-3.34
X4.655Y-3.64
X3.955Y-2.5
X3.955Y-2.8
X4.255Y-2.5
X4.255Y-2.8
X4.455Y-2.5
X4.455Y-2.8
X4.655Y-2.5
X4.655Y-2.8
X3.955Y-2.92
X3.955Y-3.22
X4.255Y-2.92
X4.255Y-3.22
X4.455Y-2.92
X4.455Y-3.22
X4.655Y-2.92
X4.655Y-3.22
T4
X2.8085Y-1.5344
X2.8085Y-1.6344
X2.8085Y-1.7344
X2.8085Y-1.8344
X2.8085Y-1.9344
X2.8085Y-2.0344
X3.655Y-1.625
X3.655Y-1.725
X3.655Y-1.825
X3.655Y-1.925
X3.655Y-2.025
X3.655Y-2.125
X2.0Y-1.375
X2.0Y-1.475
X2.0Y-1.575
X2.0Y-1.675
X4.3Y-1.375
X4.3Y-1.475
X4.3Y-1.575
X4.3Y-1.675
T5
X4.155Y-3.865
X4.255Y-3.865
X4.535Y-3.865
X4.635Y-3.865
T6
X1.925Y-2.9631
X1.925Y-3.0616
X1.925Y-3.16
X3.88Y-4.1813
X3.88Y-4.2797
X3.88Y-4.3781
X3.88Y-4.4766
X3.88Y-4.575
X3.425Y-2.775
X3.5234Y-2.775
X3.6219Y-2.775
X3.7203Y-2.775
X3.8187Y-2.775
X1.4266Y-2.945
X1.525Y-2.945
X1.6234Y-2.945
X1.7219Y-2.945
X1.925Y-3.3931
X1.925Y-3.4916
X1.925Y-3.59
T7
X3.4Y-4.415
X3.4Y-4.715
X3.5Y-4.415
X3.5Y-4.715
X3.6Y-4.415
X3.6Y-4.715
X3.295Y-3.935
X3.395Y-3.935
X3.495Y-3.935
X3.595Y-3.935
X3.695Y-3.935
X4.435Y-1.375
X4.435Y-1.475
X4.435Y-1.575
X4.435Y-1.675
X1.405Y-2.175
X1.405Y-2.275
X1.405Y-2.375
X3.27Y-4.35
X3.27Y-4.45
X3.27Y-4.55
X3.27Y-4.65
X2.16Y-4.93
X2.26Y-4.93
X3.0496Y-2.345
X3.1496Y-2.345
X3.2496Y-2.345
X3.285Y-4.905
X3.385Y-4.905
X3.485Y-4.905
X3.585Y-4.905
X4.79Y-2.36
X4.79Y-2.46
X4.79Y-2.56
X4.79Y-2.66
X4.79Y-2.76
X4.79Y-2.86
X4.79Y-2.96
X4.79Y-3.06
X4.79Y-3.16
X4.79Y-3.26
X4.79Y-3.36
X4.79Y-3.46
X4.79Y-3.56
X4.79Y-3.66
X4.79Y-3.76
X4.79Y-3.86
X4.79Y-3.96
X4.79Y-4.06
X4.79Y-4.16
X4.79Y-4.26
X4.79Y-4.36
X4.79Y-4.46
X4.79Y-4.56
X4.79Y-4.66
X4.79Y-4.76
X4.89Y-2.36
X4.89Y-2.46
X4.89Y-2.56
X4.89Y-2.66
X4.89Y-2.76
X4.89Y-2.86
X4.89Y-2.96
X4.89Y-3.06
X4.89Y-3.16
X4.89Y-3.26
X4.89Y-3.36
X4.89Y-3.46
X4.89Y-3.56
X4.89Y-3.66
X4.89Y-3.76
X4.89Y-3.86
X4.89Y-3.96
X4.89Y-4.06
X4.89Y-4.16
X4.89Y-4.26
X4.89Y-4.36
X4.89Y-4.46
X4.89Y-4.56
X4.89Y-4.66
X4.89Y-4.76
X4.795Y-4.93
X4.895Y-4.93
X3.06Y-4.195
X3.06Y-4.295
X3.06Y-4.395
X3.06Y-4.495
X4.06Y-4.195
X4.06Y-4.295
X4.06Y-4.395
X4.06Y-4.495
X1.565Y-2.175
X1.565Y-2.275
X1.565Y-2.375
X2.6Y-4.24
X2.6Y-4.9487
X1.4581Y-3.74
X1.4581Y-4.3109
X1.5566Y-3.74
X1.655Y-3.74
X1.655Y-4.3109
X1.965Y-2.47
X1.965Y-2.57
X1.965Y-2.67
X2.56Y-2.5
X2.56Y-2.6
X1.7913Y-1.8382
X1.7913Y-1.9382
X1.7913Y-2.0382
X1.7913Y-2.1382
X2.15Y-3.0
X2.15Y-3.1
X2.15Y-3.2
X2.15Y-3.3
X2.15Y-3.4
X2.15Y-3.5
X2.15Y-3.6
X2.15Y-3.7
X2.15Y-3.8
X2.15Y-3.9
X2.15Y-4.0
X2.15Y-4.1
X2.15Y-4.2
X2.15Y-4.3
X2.15Y-4.4
X2.15Y-4.5
X2.15Y-4.6
X2.15Y-4.7
X2.15Y-4.8
X3.15Y-3.0
X3.15Y-3.1
X3.15Y-3.2
X3.15Y-3.3
X3.15Y-3.4
X3.15Y-3.5
X3.15Y-3.6
X3.15Y-3.7
X3.15Y-3.8
X3.15Y-3.9
X3.15Y-4.0
X3.15Y-4.1
X3.15Y-4.2
X3.15Y-4.3
X3.15Y-4.4
X3.15Y-4.5
X3.15Y-4.6
X3.15Y-4.7
X3.15Y-4.8
X3.31Y-4.0431
X3.31Y-4.24
X3.5069Y-4.1416
X3.275Y-2.85
X3.275Y-2.95
X3.275Y-3.05
X3.275Y-3.15
X3.275Y-3.25
X3.275Y-3.35
X3.275Y-3.45
X4.485Y-2.22
X4.585Y-2.22
X4.685Y-2.22
X4.785Y-2.22
X4.885Y-2.22
X2.11Y-2.275
X2.21Y-2.275
X2.31Y-2.275
X2.41Y-2.275
X3.0496Y-2.43
X3.1496Y-2.43
X3.2496Y-2.43
X1.99Y-4.275
X1.99Y-4.375
X1.99Y-4.475
X1.99Y-4.575
X2.11Y-2.5
X2.21Y-2.5
X2.31Y-2.5
X2.41Y-2.5
T8
X1.79Y-2.52
X1.79Y-2.62
X1.79Y-2.72
X1.485Y-2.52
X1.485Y-2.62
X1.485Y-2.72
T9
X4.57Y-1.865
X4.57Y-1.965
X4.57Y-2.065
T10
X1.4567Y-4.4291
X1.4567Y-4.9213
X1.6535Y-4.4291
X1.6535Y-4.9213
X4.1529Y-4.1481
X4.1529Y-4.345
X4.645Y-4.1481
X4.645Y-4.345
X1.4567Y-3.13
X1.4567Y-3.6221
X1.6535Y-3.13
X1.6535Y-3.6221
X4.1529Y-4.6431
X4.1529Y-4.84
X4.645Y-4.6431
X4.645Y-4.84
T12
X1.5866Y-1.9882
X4.7126Y-1.9882
T13
X3.9587Y-4.638
X3.362Y-2.6963
T14
X3.4181Y-3.2025
X3.4181Y-3.36
X3.4181Y-3.5175
X3.4674Y-3.1238
X3.4674Y-3.2813
X3.4674Y-3.4387
X3.4674Y-3.5962
X3.5166Y-3.045
X3.5166Y-3.2025
X3.5166Y-3.36
X3.5166Y-3.5175
X3.5166Y-3.675
X3.5658Y-3.1238
X3.5658Y-3.2813
X3.5658Y-3.4387
X3.5658Y-3.5962
X3.615Y-3.045
X3.615Y-3.2025
X3.615Y-3.36
X3.615Y-3.5175
X3.615Y-3.675
X3.6642Y-3.1238
X3.6642Y-3.2813
X3.6642Y-3.4387
X3.6642Y-3.5962
X3.7134Y-3.045
X3.7134Y-3.2025
X3.7134Y-3.36
X3.7134Y-3.5175
X3.7134Y-3.675
X3.7626Y-3.1238
X3.7626Y-3.2813
X3.7626Y-3.4387
X3.7626Y-3.5962
X3.8119Y-3.2025
X3.8119Y-3.36
X3.8119Y-3.5175
T15
X1.95Y-3.8479
X1.95Y-4.8321
X3.9185Y-3.8479
X3.9185Y-4.8321
T16
X3.9141Y-1.965
T7
G00X1.485Y-1.4506
M15
G01X1.485Y-1.5294
M16
G05
G00X1.5637Y-1.675
M15
G01X1.6425Y-1.675
M16
G05
G00X1.7212Y-1.4506
M15
G01X1.7212Y-1.5294
M16
G05
T11
G00X1.3361Y-4.0097
M15
G01X1.3361Y-4.0609
M16
G05
G00X1.777Y-4.0097
M15
G01X1.777Y-4.0609
M16
G05
T16
G00X2.2441Y-1.5945
M15
G01X2.3228Y-1.5945
M16
G05
G00X3.9764Y-1.5945
M15
G01X4.0551Y-1.5945
M16
G05
T0
M30
