G04 #@! TF.GenerationSoftware,KiCad,Pcbnew,(5.1.5)-3*
G04 #@! TF.CreationDate,2020-04-16T21:33:31+02:00*
G04 #@! TF.ProjectId,labAThome,6c616241-5468-46f6-9d65-2e6b69636164,rev?*
G04 #@! TF.SameCoordinates,Original*
G04 #@! TF.FileFunction,Legend,Top*
G04 #@! TF.FilePolarity,Positive*
%FSLAX46Y46*%
G04 Gerber Fmt 4.6, Leading zero omitted, Abs format (unit mm)*
G04 Created by KiCad (PCBNEW (5.1.5)-3) date 2020-04-16 21:33:31*
%MOMM*%
%LPD*%
G04 APERTURE LIST*
%ADD10C,0.200000*%
%ADD11C,0.300000*%
%ADD12C,0.120000*%
%ADD13C,0.150000*%
G04 APERTURE END LIST*
D10*
X95262000Y-98804952D02*
X95190571Y-98900190D01*
X95190571Y-99043047D01*
X95262000Y-99185904D01*
X95404857Y-99281142D01*
X95547714Y-99328761D01*
X95833428Y-99376380D01*
X96047714Y-99376380D01*
X96333428Y-99328761D01*
X96476285Y-99281142D01*
X96619142Y-99185904D01*
X96690571Y-99043047D01*
X96690571Y-98947809D01*
X96619142Y-98804952D01*
X96547714Y-98757333D01*
X96047714Y-98757333D01*
X96047714Y-98947809D01*
X96690571Y-98328761D02*
X95190571Y-98328761D01*
X96690571Y-97757333D01*
X95190571Y-97757333D01*
X96690571Y-97281142D02*
X95190571Y-97281142D01*
X95190571Y-97043047D01*
X95262000Y-96900190D01*
X95404857Y-96804952D01*
X95547714Y-96757333D01*
X95833428Y-96709714D01*
X96047714Y-96709714D01*
X96333428Y-96757333D01*
X96476285Y-96804952D01*
X96619142Y-96900190D01*
X96690571Y-97043047D01*
X96690571Y-97281142D01*
X95262000Y-94995428D02*
X95190571Y-95090666D01*
X95190571Y-95233523D01*
X95262000Y-95376380D01*
X95404857Y-95471619D01*
X95547714Y-95519238D01*
X95833428Y-95566857D01*
X96047714Y-95566857D01*
X96333428Y-95519238D01*
X96476285Y-95471619D01*
X96619142Y-95376380D01*
X96690571Y-95233523D01*
X96690571Y-95138285D01*
X96619142Y-94995428D01*
X96547714Y-94947809D01*
X96047714Y-94947809D01*
X96047714Y-95138285D01*
X96690571Y-94519238D02*
X95190571Y-94519238D01*
X96690571Y-93947809D01*
X95190571Y-93947809D01*
X96690571Y-93471619D02*
X95190571Y-93471619D01*
X95190571Y-93233523D01*
X95262000Y-93090666D01*
X95404857Y-92995428D01*
X95547714Y-92947809D01*
X95833428Y-92900190D01*
X96047714Y-92900190D01*
X96333428Y-92947809D01*
X96476285Y-92995428D01*
X96619142Y-93090666D01*
X96690571Y-93233523D01*
X96690571Y-93471619D01*
X95262000Y-91185904D02*
X95190571Y-91281142D01*
X95190571Y-91423999D01*
X95262000Y-91566857D01*
X95404857Y-91662095D01*
X95547714Y-91709714D01*
X95833428Y-91757333D01*
X96047714Y-91757333D01*
X96333428Y-91709714D01*
X96476285Y-91662095D01*
X96619142Y-91566857D01*
X96690571Y-91423999D01*
X96690571Y-91328761D01*
X96619142Y-91185904D01*
X96547714Y-91138285D01*
X96047714Y-91138285D01*
X96047714Y-91328761D01*
X96690571Y-90709714D02*
X95190571Y-90709714D01*
X96690571Y-90138285D01*
X95190571Y-90138285D01*
X96690571Y-89662095D02*
X95190571Y-89662095D01*
X95190571Y-89424000D01*
X95262000Y-89281142D01*
X95404857Y-89185904D01*
X95547714Y-89138285D01*
X95833428Y-89090666D01*
X96047714Y-89090666D01*
X96333428Y-89138285D01*
X96476285Y-89185904D01*
X96619142Y-89281142D01*
X96690571Y-89424000D01*
X96690571Y-89662095D01*
X95262000Y-87376380D02*
X95190571Y-87471619D01*
X95190571Y-87614476D01*
X95262000Y-87757333D01*
X95404857Y-87852571D01*
X95547714Y-87900190D01*
X95833428Y-87947809D01*
X96047714Y-87947809D01*
X96333428Y-87900190D01*
X96476285Y-87852571D01*
X96619142Y-87757333D01*
X96690571Y-87614476D01*
X96690571Y-87519238D01*
X96619142Y-87376380D01*
X96547714Y-87328761D01*
X96047714Y-87328761D01*
X96047714Y-87519238D01*
X96690571Y-86900190D02*
X95190571Y-86900190D01*
X96690571Y-86328761D01*
X95190571Y-86328761D01*
X96690571Y-85852571D02*
X95190571Y-85852571D01*
X95190571Y-85614476D01*
X95262000Y-85471619D01*
X95404857Y-85376380D01*
X95547714Y-85328761D01*
X95833428Y-85281142D01*
X96047714Y-85281142D01*
X96333428Y-85328761D01*
X96476285Y-85376380D01*
X96619142Y-85471619D01*
X96690571Y-85614476D01*
X96690571Y-85852571D01*
X95262000Y-83566857D02*
X95190571Y-83662095D01*
X95190571Y-83804952D01*
X95262000Y-83947809D01*
X95404857Y-84043047D01*
X95547714Y-84090666D01*
X95833428Y-84138285D01*
X96047714Y-84138285D01*
X96333428Y-84090666D01*
X96476285Y-84043047D01*
X96619142Y-83947809D01*
X96690571Y-83804952D01*
X96690571Y-83709714D01*
X96619142Y-83566857D01*
X96547714Y-83519238D01*
X96047714Y-83519238D01*
X96047714Y-83709714D01*
X96690571Y-83090666D02*
X95190571Y-83090666D01*
X96690571Y-82519238D01*
X95190571Y-82519238D01*
X96690571Y-82043047D02*
X95190571Y-82043047D01*
X95190571Y-81804952D01*
X95262000Y-81662095D01*
X95404857Y-81566857D01*
X95547714Y-81519238D01*
X95833428Y-81471619D01*
X96047714Y-81471619D01*
X96333428Y-81519238D01*
X96476285Y-81566857D01*
X96619142Y-81662095D01*
X96690571Y-81804952D01*
X96690571Y-82043047D01*
X108379714Y-56384000D02*
X108855904Y-56384000D01*
X108284476Y-56812571D02*
X108617809Y-55312571D01*
X108951142Y-56812571D01*
X109808285Y-56812571D02*
X109236857Y-56812571D01*
X109522571Y-56812571D02*
X109522571Y-55312571D01*
X109427333Y-55526857D01*
X109332095Y-55669714D01*
X109236857Y-55741142D01*
X111522571Y-56812571D02*
X110951142Y-56812571D01*
X111236857Y-56812571D02*
X111236857Y-55312571D01*
X111141619Y-55526857D01*
X111046380Y-55669714D01*
X110951142Y-55741142D01*
X112474952Y-56812571D02*
X111903523Y-56812571D01*
X112189238Y-56812571D02*
X112189238Y-55312571D01*
X112094000Y-55526857D01*
X111998761Y-55669714D01*
X111903523Y-55741142D01*
X114189238Y-56812571D02*
X113617809Y-56812571D01*
X113903523Y-56812571D02*
X113903523Y-55312571D01*
X113808285Y-55526857D01*
X113713047Y-55669714D01*
X113617809Y-55741142D01*
X114570190Y-55455428D02*
X114617809Y-55384000D01*
X114713047Y-55312571D01*
X114951142Y-55312571D01*
X115046380Y-55384000D01*
X115094000Y-55455428D01*
X115141619Y-55598285D01*
X115141619Y-55741142D01*
X115094000Y-55955428D01*
X114522571Y-56812571D01*
X115141619Y-56812571D01*
X116855904Y-56812571D02*
X116284476Y-56812571D01*
X116570190Y-56812571D02*
X116570190Y-55312571D01*
X116474952Y-55526857D01*
X116379714Y-55669714D01*
X116284476Y-55741142D01*
X117713047Y-55812571D02*
X117713047Y-56812571D01*
X117474952Y-55241142D02*
X117236857Y-56312571D01*
X117855904Y-56312571D01*
X118951142Y-55455428D02*
X118998761Y-55384000D01*
X119094000Y-55312571D01*
X119332095Y-55312571D01*
X119427333Y-55384000D01*
X119474952Y-55455428D01*
X119522571Y-55598285D01*
X119522571Y-55741142D01*
X119474952Y-55955428D01*
X118903523Y-56812571D01*
X119522571Y-56812571D01*
X120474952Y-56812571D02*
X119903523Y-56812571D01*
X120189238Y-56812571D02*
X120189238Y-55312571D01*
X120093999Y-55526857D01*
X119998761Y-55669714D01*
X119903523Y-55741142D01*
X121617809Y-55455428D02*
X121665428Y-55384000D01*
X121760666Y-55312571D01*
X121998761Y-55312571D01*
X122093999Y-55384000D01*
X122141619Y-55455428D01*
X122189238Y-55598285D01*
X122189238Y-55741142D01*
X122141619Y-55955428D01*
X121570190Y-56812571D01*
X122189238Y-56812571D01*
X122570190Y-55455428D02*
X122617809Y-55384000D01*
X122713047Y-55312571D01*
X122951142Y-55312571D01*
X123046380Y-55384000D01*
X123093999Y-55455428D01*
X123141619Y-55598285D01*
X123141619Y-55741142D01*
X123093999Y-55955428D01*
X122522571Y-56812571D01*
X123141619Y-56812571D01*
X124284476Y-55455428D02*
X124332095Y-55384000D01*
X124427333Y-55312571D01*
X124665428Y-55312571D01*
X124760666Y-55384000D01*
X124808285Y-55455428D01*
X124855904Y-55598285D01*
X124855904Y-55741142D01*
X124808285Y-55955428D01*
X124236857Y-56812571D01*
X124855904Y-56812571D01*
X125713047Y-55812571D02*
X125713047Y-56812571D01*
X125474952Y-55241142D02*
X125236857Y-56312571D01*
X125855904Y-56312571D01*
D11*
X32044285Y-58781142D02*
X33187142Y-58781142D01*
X32615714Y-59352571D02*
X32615714Y-58209714D01*
X34758571Y-59209714D02*
X34687142Y-59281142D01*
X34472857Y-59352571D01*
X34330000Y-59352571D01*
X34115714Y-59281142D01*
X33972857Y-59138285D01*
X33901428Y-58995428D01*
X33830000Y-58709714D01*
X33830000Y-58495428D01*
X33901428Y-58209714D01*
X33972857Y-58066857D01*
X34115714Y-57924000D01*
X34330000Y-57852571D01*
X34472857Y-57852571D01*
X34687142Y-57924000D01*
X34758571Y-57995428D01*
X35401428Y-58566857D02*
X35901428Y-58566857D01*
X36115714Y-59352571D02*
X35401428Y-59352571D01*
X35401428Y-57852571D01*
X36115714Y-57852571D01*
X36758571Y-59352571D02*
X36758571Y-57852571D01*
X37615714Y-59352571D01*
X37615714Y-57852571D01*
X38115714Y-57852571D02*
X38972857Y-57852571D01*
X38544285Y-59352571D02*
X38544285Y-57852571D01*
X39472857Y-58566857D02*
X39972857Y-58566857D01*
X40187142Y-59352571D02*
X39472857Y-59352571D01*
X39472857Y-57852571D01*
X40187142Y-57852571D01*
X41687142Y-59352571D02*
X41187142Y-58638285D01*
X40830000Y-59352571D02*
X40830000Y-57852571D01*
X41401428Y-57852571D01*
X41544285Y-57924000D01*
X41615714Y-57995428D01*
X41687142Y-58138285D01*
X41687142Y-58352571D01*
X41615714Y-58495428D01*
X41544285Y-58566857D01*
X41401428Y-58638285D01*
X40830000Y-58638285D01*
D10*
X100270571Y-99614476D02*
X100270571Y-100090666D01*
X100984857Y-100138285D01*
X100913428Y-100090666D01*
X100842000Y-99995428D01*
X100842000Y-99757333D01*
X100913428Y-99662095D01*
X100984857Y-99614476D01*
X101127714Y-99566857D01*
X101484857Y-99566857D01*
X101627714Y-99614476D01*
X101699142Y-99662095D01*
X101770571Y-99757333D01*
X101770571Y-99995428D01*
X101699142Y-100090666D01*
X101627714Y-100138285D01*
X100270571Y-99281142D02*
X101770571Y-98947809D01*
X100270571Y-98614476D01*
X100270571Y-97043047D02*
X100270571Y-97519238D01*
X100984857Y-97566857D01*
X100913428Y-97519238D01*
X100842000Y-97424000D01*
X100842000Y-97185904D01*
X100913428Y-97090666D01*
X100984857Y-97043047D01*
X101127714Y-96995428D01*
X101484857Y-96995428D01*
X101627714Y-97043047D01*
X101699142Y-97090666D01*
X101770571Y-97185904D01*
X101770571Y-97424000D01*
X101699142Y-97519238D01*
X101627714Y-97566857D01*
X100270571Y-96709714D02*
X101770571Y-96376380D01*
X100270571Y-96043047D01*
X100270571Y-94471619D02*
X100270571Y-94947809D01*
X100984857Y-94995428D01*
X100913428Y-94947809D01*
X100842000Y-94852571D01*
X100842000Y-94614476D01*
X100913428Y-94519238D01*
X100984857Y-94471619D01*
X101127714Y-94424000D01*
X101484857Y-94424000D01*
X101627714Y-94471619D01*
X101699142Y-94519238D01*
X101770571Y-94614476D01*
X101770571Y-94852571D01*
X101699142Y-94947809D01*
X101627714Y-94995428D01*
X100270571Y-94138285D02*
X101770571Y-93804952D01*
X100270571Y-93471619D01*
X100270571Y-91900190D02*
X100270571Y-92376380D01*
X100984857Y-92424000D01*
X100913428Y-92376380D01*
X100842000Y-92281142D01*
X100842000Y-92043047D01*
X100913428Y-91947809D01*
X100984857Y-91900190D01*
X101127714Y-91852571D01*
X101484857Y-91852571D01*
X101627714Y-91900190D01*
X101699142Y-91947809D01*
X101770571Y-92043047D01*
X101770571Y-92281142D01*
X101699142Y-92376380D01*
X101627714Y-92424000D01*
X100270571Y-91566857D02*
X101770571Y-91233523D01*
X100270571Y-90900190D01*
X100270571Y-89328761D02*
X100270571Y-89804952D01*
X100984857Y-89852571D01*
X100913428Y-89804952D01*
X100842000Y-89709714D01*
X100842000Y-89471619D01*
X100913428Y-89376380D01*
X100984857Y-89328761D01*
X101127714Y-89281142D01*
X101484857Y-89281142D01*
X101627714Y-89328761D01*
X101699142Y-89376380D01*
X101770571Y-89471619D01*
X101770571Y-89709714D01*
X101699142Y-89804952D01*
X101627714Y-89852571D01*
X100270571Y-88995428D02*
X101770571Y-88662095D01*
X100270571Y-88328761D01*
X100270571Y-86757333D02*
X100270571Y-87233523D01*
X100984857Y-87281142D01*
X100913428Y-87233523D01*
X100842000Y-87138285D01*
X100842000Y-86900190D01*
X100913428Y-86804952D01*
X100984857Y-86757333D01*
X101127714Y-86709714D01*
X101484857Y-86709714D01*
X101627714Y-86757333D01*
X101699142Y-86804952D01*
X101770571Y-86900190D01*
X101770571Y-87138285D01*
X101699142Y-87233523D01*
X101627714Y-87281142D01*
X100270571Y-86424000D02*
X101770571Y-86090666D01*
X100270571Y-85757333D01*
X100270571Y-84185904D02*
X100270571Y-84662095D01*
X100984857Y-84709714D01*
X100913428Y-84662095D01*
X100842000Y-84566857D01*
X100842000Y-84328761D01*
X100913428Y-84233523D01*
X100984857Y-84185904D01*
X101127714Y-84138285D01*
X101484857Y-84138285D01*
X101627714Y-84185904D01*
X101699142Y-84233523D01*
X101770571Y-84328761D01*
X101770571Y-84566857D01*
X101699142Y-84662095D01*
X101627714Y-84709714D01*
X100270571Y-83852571D02*
X101770571Y-83519238D01*
X100270571Y-83185904D01*
X100270571Y-81614476D02*
X100270571Y-82090666D01*
X100984857Y-82138285D01*
X100913428Y-82090666D01*
X100842000Y-81995428D01*
X100842000Y-81757333D01*
X100913428Y-81662095D01*
X100984857Y-81614476D01*
X101127714Y-81566857D01*
X101484857Y-81566857D01*
X101627714Y-81614476D01*
X101699142Y-81662095D01*
X101770571Y-81757333D01*
X101770571Y-81995428D01*
X101699142Y-82090666D01*
X101627714Y-82138285D01*
X100270571Y-81281142D02*
X101770571Y-80947809D01*
X100270571Y-80614476D01*
X106850571Y-118125333D02*
X106850571Y-118601523D01*
X105350571Y-118601523D01*
X105350571Y-117887238D02*
X106850571Y-117649142D01*
X105779142Y-117458666D01*
X106850571Y-117268190D01*
X105350571Y-117030095D01*
X106779142Y-115934857D02*
X106850571Y-115792000D01*
X106850571Y-115553904D01*
X106779142Y-115458666D01*
X106707714Y-115411047D01*
X106564857Y-115363428D01*
X106422000Y-115363428D01*
X106279142Y-115411047D01*
X106207714Y-115458666D01*
X106136285Y-115553904D01*
X106064857Y-115744380D01*
X105993428Y-115839619D01*
X105922000Y-115887238D01*
X105779142Y-115934857D01*
X105636285Y-115934857D01*
X105493428Y-115887238D01*
X105422000Y-115839619D01*
X105350571Y-115744380D01*
X105350571Y-115506285D01*
X105422000Y-115363428D01*
X105350571Y-115030095D02*
X106850571Y-114792000D01*
X105779142Y-114601523D01*
X106850571Y-114411047D01*
X105350571Y-114172952D01*
X106850571Y-112553904D02*
X106850571Y-113030095D01*
X105350571Y-113030095D01*
X106064857Y-111887238D02*
X106136285Y-111744380D01*
X106207714Y-111696761D01*
X106350571Y-111649142D01*
X106564857Y-111649142D01*
X106707714Y-111696761D01*
X106779142Y-111744380D01*
X106850571Y-111839619D01*
X106850571Y-112220571D01*
X105350571Y-112220571D01*
X105350571Y-111887238D01*
X105422000Y-111792000D01*
X105493428Y-111744380D01*
X105636285Y-111696761D01*
X105779142Y-111696761D01*
X105922000Y-111744380D01*
X105993428Y-111792000D01*
X106064857Y-111887238D01*
X106064857Y-112220571D01*
X106779142Y-110506285D02*
X106850571Y-110363428D01*
X106850571Y-110125333D01*
X106779142Y-110030095D01*
X106707714Y-109982476D01*
X106564857Y-109934857D01*
X106422000Y-109934857D01*
X106279142Y-109982476D01*
X106207714Y-110030095D01*
X106136285Y-110125333D01*
X106064857Y-110315809D01*
X105993428Y-110411047D01*
X105922000Y-110458666D01*
X105779142Y-110506285D01*
X105636285Y-110506285D01*
X105493428Y-110458666D01*
X105422000Y-110411047D01*
X105350571Y-110315809D01*
X105350571Y-110077714D01*
X105422000Y-109934857D01*
X106064857Y-109172952D02*
X106136285Y-109030095D01*
X106207714Y-108982476D01*
X106350571Y-108934857D01*
X106564857Y-108934857D01*
X106707714Y-108982476D01*
X106779142Y-109030095D01*
X106850571Y-109125333D01*
X106850571Y-109506285D01*
X105350571Y-109506285D01*
X105350571Y-109172952D01*
X105422000Y-109077714D01*
X105493428Y-109030095D01*
X105636285Y-108982476D01*
X105779142Y-108982476D01*
X105922000Y-109030095D01*
X105993428Y-109077714D01*
X106064857Y-109172952D01*
X106064857Y-109506285D01*
D12*
X91381000Y-86908000D02*
X94976000Y-86908000D01*
X84935000Y-86908000D02*
X88531000Y-86908000D01*
X93881000Y-97148000D02*
X94976000Y-97148000D01*
X88882000Y-97148000D02*
X91031000Y-97148000D01*
X84935000Y-97148000D02*
X86030000Y-97148000D01*
X94976000Y-97148000D02*
X94976000Y-86908000D01*
X84935000Y-97148000D02*
X84935000Y-86908000D01*
X97222000Y-80204000D02*
X98552000Y-80204000D01*
X97222000Y-81534000D02*
X97222000Y-80204000D01*
X97222000Y-82804000D02*
X99882000Y-82804000D01*
X99882000Y-82804000D02*
X99882000Y-100644000D01*
X97222000Y-82804000D02*
X97222000Y-100644000D01*
X97222000Y-100644000D02*
X99882000Y-100644000D01*
X85912000Y-60900000D02*
X85912000Y-62230000D01*
X84582000Y-60900000D02*
X85912000Y-60900000D01*
X83312000Y-60900000D02*
X83312000Y-63560000D01*
X83312000Y-63560000D02*
X80712000Y-63560000D01*
X83312000Y-60900000D02*
X80712000Y-60900000D01*
X80712000Y-60900000D02*
X80712000Y-63560000D01*
X91938000Y-72449000D02*
X86868000Y-72449000D01*
X91938000Y-62679000D02*
X86868000Y-62679000D01*
X86868000Y-62679000D02*
X86868000Y-72449000D01*
X91938000Y-62679000D02*
X91938000Y-72449000D01*
X89308000Y-82264000D02*
X92048000Y-82264000D01*
X92048000Y-82264000D02*
X92048000Y-75724000D01*
X92048000Y-75724000D02*
X89308000Y-75724000D01*
X89308000Y-75724000D02*
X89308000Y-82264000D01*
X90678000Y-83034000D02*
X90678000Y-82264000D01*
X90678000Y-74954000D02*
X90678000Y-75724000D01*
X96968000Y-118304000D02*
X98298000Y-118304000D01*
X96968000Y-119634000D02*
X96968000Y-118304000D01*
X96968000Y-120904000D02*
X99628000Y-120904000D01*
X99628000Y-120904000D02*
X99628000Y-126044000D01*
X96968000Y-120904000D02*
X96968000Y-126044000D01*
X96968000Y-126044000D02*
X99628000Y-126044000D01*
X97934000Y-72958000D02*
X99584000Y-72958000D01*
X97934000Y-62678000D02*
X97934000Y-72958000D01*
X103234000Y-62678000D02*
X97934000Y-62678000D01*
X103234000Y-72958000D02*
X103234000Y-62678000D01*
X101584000Y-72958000D02*
X103234000Y-72958000D01*
X99584000Y-72958000D02*
G75*
G02X101584000Y-72958000I1000000J0D01*
G01*
X72310000Y-119060000D02*
X72310000Y-126560000D01*
X62310000Y-119060000D02*
X72310000Y-119060000D01*
X62310000Y-126560000D02*
X62310000Y-119060000D01*
X77310000Y-79060000D02*
X77310000Y-71560000D01*
X57310000Y-79060000D02*
X77310000Y-79060000D01*
X57310000Y-71560000D02*
X57310000Y-79060000D01*
X53310000Y-71560000D02*
X67310000Y-71560000D01*
X53310000Y-126560000D02*
X53310000Y-71560000D01*
X81310000Y-126560000D02*
X53310000Y-126560000D01*
X81310000Y-71560000D02*
X81310000Y-126560000D01*
X67310000Y-71560000D02*
X81310000Y-71560000D01*
X61274000Y-56836000D02*
X61274000Y-58166000D01*
X59944000Y-56836000D02*
X61274000Y-56836000D01*
X58674000Y-56836000D02*
X58674000Y-59496000D01*
X58674000Y-59496000D02*
X50994000Y-59496000D01*
X58674000Y-56836000D02*
X50994000Y-56836000D01*
X50994000Y-56836000D02*
X50994000Y-59496000D01*
D13*
X49784000Y-61976000D02*
X59944000Y-61976000D01*
X49784000Y-36576000D02*
X49784000Y-61976000D01*
X62484000Y-36576000D02*
X49784000Y-36576000D01*
X62484000Y-61976000D02*
X62484000Y-36576000D01*
X59944000Y-61976000D02*
X62484000Y-61976000D01*
D12*
X74228000Y-56836000D02*
X74228000Y-58166000D01*
X72898000Y-56836000D02*
X74228000Y-56836000D01*
X71628000Y-56836000D02*
X71628000Y-59496000D01*
X71628000Y-59496000D02*
X63948000Y-59496000D01*
X71628000Y-56836000D02*
X63948000Y-56836000D01*
X63948000Y-56836000D02*
X63948000Y-59496000D01*
D13*
X62738000Y-61976000D02*
X72898000Y-61976000D01*
X62738000Y-36576000D02*
X62738000Y-61976000D01*
X75438000Y-36576000D02*
X62738000Y-36576000D01*
X75438000Y-61976000D02*
X75438000Y-36576000D01*
X72898000Y-61976000D02*
X75438000Y-61976000D01*
D12*
X107694000Y-35166000D02*
X107694000Y-60166000D01*
X75694000Y-35166000D02*
X107694000Y-35166000D01*
X75694000Y-60166000D02*
X75694000Y-35166000D01*
X107694000Y-60166000D02*
X75694000Y-60166000D01*
X124668000Y-114206000D02*
X124668000Y-116926000D01*
X124668000Y-123786000D02*
X124668000Y-126506000D01*
X112368000Y-121926000D02*
X112368000Y-118786000D01*
X112368000Y-126506000D02*
X112368000Y-123786000D01*
X123197050Y-120396000D02*
G75*
G03X123197050Y-120396000I-4579050J0D01*
G01*
X112368000Y-116926000D02*
X112368000Y-114206000D01*
X124668000Y-126506000D02*
X112368000Y-126506000D01*
X124668000Y-118786000D02*
X124668000Y-121926000D01*
X112368000Y-114206000D02*
X124668000Y-114206000D01*
X124668000Y-101506000D02*
X124668000Y-104226000D01*
X124668000Y-111086000D02*
X124668000Y-113806000D01*
X112368000Y-109226000D02*
X112368000Y-106086000D01*
X112368000Y-113806000D02*
X112368000Y-111086000D01*
X123197050Y-107696000D02*
G75*
G03X123197050Y-107696000I-4579050J0D01*
G01*
X112368000Y-104226000D02*
X112368000Y-101506000D01*
X124668000Y-113806000D02*
X112368000Y-113806000D01*
X124668000Y-106086000D02*
X124668000Y-109226000D01*
X112368000Y-101506000D02*
X124668000Y-101506000D01*
X45814000Y-108358000D02*
X43094000Y-108358000D01*
X36234000Y-108358000D02*
X33514000Y-108358000D01*
X38094000Y-96058000D02*
X41234000Y-96058000D01*
X33514000Y-96058000D02*
X36234000Y-96058000D01*
X44203050Y-102308000D02*
G75*
G03X44203050Y-102308000I-4579050J0D01*
G01*
X43094000Y-96058000D02*
X45814000Y-96058000D01*
X33514000Y-108358000D02*
X33514000Y-96058000D01*
X41234000Y-108358000D02*
X38094000Y-108358000D01*
X45814000Y-96058000D02*
X45814000Y-108358000D01*
X45814000Y-124614000D02*
X43094000Y-124614000D01*
X36234000Y-124614000D02*
X33514000Y-124614000D01*
X38094000Y-112314000D02*
X41234000Y-112314000D01*
X33514000Y-112314000D02*
X36234000Y-112314000D01*
X44203050Y-118564000D02*
G75*
G03X44203050Y-118564000I-4579050J0D01*
G01*
X43094000Y-112314000D02*
X45814000Y-112314000D01*
X33514000Y-124614000D02*
X33514000Y-112314000D01*
X41234000Y-124614000D02*
X38094000Y-124614000D01*
X45814000Y-112314000D02*
X45814000Y-124614000D01*
X45814000Y-92156000D02*
X43094000Y-92156000D01*
X36234000Y-92156000D02*
X33514000Y-92156000D01*
X38094000Y-79856000D02*
X41234000Y-79856000D01*
X33514000Y-79856000D02*
X36234000Y-79856000D01*
X44203050Y-86106000D02*
G75*
G03X44203050Y-86106000I-4579050J0D01*
G01*
X43094000Y-79856000D02*
X45814000Y-79856000D01*
X33514000Y-92156000D02*
X33514000Y-79856000D01*
X41234000Y-92156000D02*
X38094000Y-92156000D01*
X45814000Y-79856000D02*
X45814000Y-92156000D01*
X89662000Y-121532000D02*
X89662000Y-124072000D01*
X87122000Y-121532000D02*
X87122000Y-124072000D01*
X84582000Y-121532000D02*
X84582000Y-124072000D01*
X92242000Y-105642000D02*
X92242000Y-121532000D01*
X82002000Y-105642000D02*
X82002000Y-121532000D01*
X82002000Y-105642000D02*
X92242000Y-105642000D01*
X82002000Y-121532000D02*
X92242000Y-121532000D01*
X117348000Y-49904000D02*
X117348000Y-52444000D01*
X114808000Y-49904000D02*
X114808000Y-52444000D01*
X112268000Y-49904000D02*
X112268000Y-52444000D01*
X119928000Y-34014000D02*
X119928000Y-49904000D01*
X109688000Y-34014000D02*
X109688000Y-49904000D01*
X109688000Y-34014000D02*
X119928000Y-34014000D01*
X109688000Y-49904000D02*
X119928000Y-49904000D01*
X106948000Y-65426000D02*
X106948000Y-66126000D01*
X108148000Y-65426000D02*
X106948000Y-65426000D01*
X108148000Y-66126000D02*
X108148000Y-65426000D01*
X106948000Y-66126000D02*
X108148000Y-66126000D01*
X107748000Y-66126000D02*
X107348000Y-65426000D01*
X107578000Y-65426000D02*
X107578000Y-64326000D01*
X107578000Y-66126000D02*
X107578000Y-67226000D01*
X106798000Y-64296000D02*
X105738000Y-64296000D01*
X106798000Y-67296000D02*
X106798000Y-64296000D01*
X105738000Y-67296000D02*
X106778000Y-67296000D01*
X105738000Y-60626000D02*
X105738000Y-70946000D01*
X126408000Y-60626000D02*
X105738000Y-60626000D01*
X126408000Y-70946000D02*
X126408000Y-60626000D01*
X105738000Y-70946000D02*
X126408000Y-70946000D01*
X106888000Y-71106000D02*
X105588000Y-71106000D01*
X105588000Y-71106000D02*
X105588000Y-69896000D01*
X106948000Y-80158000D02*
X106948000Y-80858000D01*
X108148000Y-80158000D02*
X106948000Y-80158000D01*
X108148000Y-80858000D02*
X108148000Y-80158000D01*
X106948000Y-80858000D02*
X108148000Y-80858000D01*
X107748000Y-80858000D02*
X107348000Y-80158000D01*
X107578000Y-80158000D02*
X107578000Y-79058000D01*
X107578000Y-80858000D02*
X107578000Y-81958000D01*
X106798000Y-79028000D02*
X105738000Y-79028000D01*
X106798000Y-82028000D02*
X106798000Y-79028000D01*
X105738000Y-82028000D02*
X106778000Y-82028000D01*
X105738000Y-75358000D02*
X105738000Y-85678000D01*
X126408000Y-75358000D02*
X105738000Y-75358000D01*
X126408000Y-85678000D02*
X126408000Y-75358000D01*
X105738000Y-85678000D02*
X126408000Y-85678000D01*
X106888000Y-85838000D02*
X105588000Y-85838000D01*
X105588000Y-85838000D02*
X105588000Y-84628000D01*
X106948000Y-94890000D02*
X106948000Y-95590000D01*
X108148000Y-94890000D02*
X106948000Y-94890000D01*
X108148000Y-95590000D02*
X108148000Y-94890000D01*
X106948000Y-95590000D02*
X108148000Y-95590000D01*
X107748000Y-95590000D02*
X107348000Y-94890000D01*
X107578000Y-94890000D02*
X107578000Y-93790000D01*
X107578000Y-95590000D02*
X107578000Y-96690000D01*
X106798000Y-93760000D02*
X105738000Y-93760000D01*
X106798000Y-96760000D02*
X106798000Y-93760000D01*
X105738000Y-96760000D02*
X106778000Y-96760000D01*
X105738000Y-90090000D02*
X105738000Y-100410000D01*
X126408000Y-90090000D02*
X105738000Y-90090000D01*
X126408000Y-100410000D02*
X126408000Y-90090000D01*
X105738000Y-100410000D02*
X126408000Y-100410000D01*
X106888000Y-100570000D02*
X105588000Y-100570000D01*
X105588000Y-100570000D02*
X105588000Y-99360000D01*
X93158000Y-118304000D02*
X94488000Y-118304000D01*
X93158000Y-119634000D02*
X93158000Y-118304000D01*
X93158000Y-120904000D02*
X95818000Y-120904000D01*
X95818000Y-120904000D02*
X95818000Y-126044000D01*
X93158000Y-120904000D02*
X93158000Y-126044000D01*
X93158000Y-126044000D02*
X95818000Y-126044000D01*
X108144000Y-59750000D02*
X108144000Y-58420000D01*
X109474000Y-59750000D02*
X108144000Y-59750000D01*
X110744000Y-59750000D02*
X110744000Y-57090000D01*
X110744000Y-57090000D02*
X126044000Y-57090000D01*
X110744000Y-59750000D02*
X126044000Y-59750000D01*
X126044000Y-59750000D02*
X126044000Y-57090000D01*
X108144000Y-74482000D02*
X108144000Y-73152000D01*
X109474000Y-74482000D02*
X108144000Y-74482000D01*
X110744000Y-74482000D02*
X110744000Y-71822000D01*
X110744000Y-71822000D02*
X126044000Y-71822000D01*
X110744000Y-74482000D02*
X126044000Y-74482000D01*
X126044000Y-74482000D02*
X126044000Y-71822000D01*
X108144000Y-89214000D02*
X108144000Y-87884000D01*
X109474000Y-89214000D02*
X108144000Y-89214000D01*
X110744000Y-89214000D02*
X110744000Y-86554000D01*
X110744000Y-86554000D02*
X126044000Y-86554000D01*
X110744000Y-89214000D02*
X126044000Y-89214000D01*
X126044000Y-89214000D02*
X126044000Y-86554000D01*
X107128000Y-108652000D02*
X108458000Y-108652000D01*
X107128000Y-109982000D02*
X107128000Y-108652000D01*
X107128000Y-111252000D02*
X109788000Y-111252000D01*
X109788000Y-111252000D02*
X109788000Y-118932000D01*
X107128000Y-111252000D02*
X107128000Y-118932000D01*
X107128000Y-118932000D02*
X109788000Y-118932000D01*
X48144000Y-47978000D02*
X48144000Y-50578000D01*
X33444000Y-47978000D02*
X48144000Y-47978000D01*
X48144000Y-57178000D02*
X46244000Y-57178000D01*
X48144000Y-54478000D02*
X48144000Y-57178000D01*
X33444000Y-57178000D02*
X33444000Y-47978000D01*
X42244000Y-57178000D02*
X33444000Y-57178000D01*
X47294000Y-47778000D02*
X48344000Y-47778000D01*
X48344000Y-48828000D02*
X48344000Y-47778000D01*
X102302000Y-80204000D02*
X103632000Y-80204000D01*
X102302000Y-81534000D02*
X102302000Y-80204000D01*
X102302000Y-82804000D02*
X104962000Y-82804000D01*
X104962000Y-82804000D02*
X104962000Y-100644000D01*
X102302000Y-82804000D02*
X102302000Y-100644000D01*
X102302000Y-100644000D02*
X104962000Y-100644000D01*
X100778000Y-118304000D02*
X102108000Y-118304000D01*
X100778000Y-119634000D02*
X100778000Y-118304000D01*
X100778000Y-120904000D02*
X103438000Y-120904000D01*
X103438000Y-120904000D02*
X103438000Y-126044000D01*
X100778000Y-120904000D02*
X100778000Y-126044000D01*
X100778000Y-126044000D02*
X103438000Y-126044000D01*
X104628000Y-121645000D02*
X104628000Y-124735000D01*
X109688000Y-123190000D02*
G75*
G03X109688000Y-123190000I-2500000J0D01*
G01*
X110178000Y-123189538D02*
G75*
G02X104628000Y-124734830I-2990000J-462D01*
G01*
X110178000Y-123190462D02*
G75*
G03X104628000Y-121645170I-2990000J462D01*
G01*
X104374000Y-103103000D02*
X104374000Y-106193000D01*
X109434000Y-104648000D02*
G75*
G03X109434000Y-104648000I-2500000J0D01*
G01*
X109924000Y-104647538D02*
G75*
G02X104374000Y-106192830I-2990000J-462D01*
G01*
X109924000Y-104648462D02*
G75*
G03X104374000Y-103103170I-2990000J462D01*
G01*
X45120000Y-62938000D02*
X45120000Y-59998000D01*
X44880000Y-62938000D02*
X44880000Y-59998000D01*
X45000000Y-62938000D02*
X45000000Y-59998000D01*
X39440000Y-61468000D02*
X40460000Y-61468000D01*
X46920000Y-61468000D02*
X45900000Y-61468000D01*
X40460000Y-62938000D02*
X45900000Y-62938000D01*
X40460000Y-59998000D02*
X40460000Y-62938000D01*
X45900000Y-59998000D02*
X40460000Y-59998000D01*
X45900000Y-62938000D02*
X45900000Y-59998000D01*
X52090000Y-103907000D02*
X52090000Y-100817000D01*
X52030000Y-102362000D02*
G75*
G03X52030000Y-102362000I-2500000J0D01*
G01*
X46540000Y-102362462D02*
G75*
G02X52090000Y-100817170I2990000J462D01*
G01*
X46540000Y-102361538D02*
G75*
G03X52090000Y-103906830I2990000J-462D01*
G01*
X47224000Y-120121000D02*
X47224000Y-123211000D01*
X52284000Y-121666000D02*
G75*
G03X52284000Y-121666000I-2500000J0D01*
G01*
X52774000Y-121665538D02*
G75*
G02X47224000Y-123210830I-2990000J-462D01*
G01*
X52774000Y-121666462D02*
G75*
G03X47224000Y-120121170I-2990000J462D01*
G01*
X52090000Y-84603000D02*
X52090000Y-81513000D01*
X52030000Y-83058000D02*
G75*
G03X52030000Y-83058000I-2500000J0D01*
G01*
X46540000Y-83058462D02*
G75*
G02X52090000Y-81513170I2990000J462D01*
G01*
X46540000Y-83057538D02*
G75*
G03X52090000Y-84602830I2990000J-462D01*
G01*
X95350000Y-67878000D02*
X92610000Y-67878000D01*
X95350000Y-62638000D02*
X92610000Y-62638000D01*
X92610000Y-62638000D02*
X92610000Y-67878000D01*
X95350000Y-62638000D02*
X95350000Y-67878000D01*
X96017225Y-74475000D02*
X96017225Y-74975000D01*
X95767225Y-74725000D02*
X96267225Y-74725000D01*
X101173000Y-75916000D02*
X101173000Y-76484000D01*
X101133000Y-75682000D02*
X101133000Y-76718000D01*
X101093000Y-75523000D02*
X101093000Y-76877000D01*
X101053000Y-75395000D02*
X101053000Y-77005000D01*
X101013000Y-75285000D02*
X101013000Y-77115000D01*
X100973000Y-75189000D02*
X100973000Y-77211000D01*
X100933000Y-75102000D02*
X100933000Y-77298000D01*
X100893000Y-75022000D02*
X100893000Y-77378000D01*
X100853000Y-77240000D02*
X100853000Y-77451000D01*
X100853000Y-74949000D02*
X100853000Y-75160000D01*
X100813000Y-77240000D02*
X100813000Y-77519000D01*
X100813000Y-74881000D02*
X100813000Y-75160000D01*
X100773000Y-77240000D02*
X100773000Y-77583000D01*
X100773000Y-74817000D02*
X100773000Y-75160000D01*
X100733000Y-77240000D02*
X100733000Y-77643000D01*
X100733000Y-74757000D02*
X100733000Y-75160000D01*
X100693000Y-77240000D02*
X100693000Y-77700000D01*
X100693000Y-74700000D02*
X100693000Y-75160000D01*
X100653000Y-77240000D02*
X100653000Y-77754000D01*
X100653000Y-74646000D02*
X100653000Y-75160000D01*
X100613000Y-77240000D02*
X100613000Y-77805000D01*
X100613000Y-74595000D02*
X100613000Y-75160000D01*
X100573000Y-77240000D02*
X100573000Y-77853000D01*
X100573000Y-74547000D02*
X100573000Y-75160000D01*
X100533000Y-77240000D02*
X100533000Y-77899000D01*
X100533000Y-74501000D02*
X100533000Y-75160000D01*
X100493000Y-77240000D02*
X100493000Y-77943000D01*
X100493000Y-74457000D02*
X100493000Y-75160000D01*
X100453000Y-77240000D02*
X100453000Y-77985000D01*
X100453000Y-74415000D02*
X100453000Y-75160000D01*
X100413000Y-77240000D02*
X100413000Y-78026000D01*
X100413000Y-74374000D02*
X100413000Y-75160000D01*
X100373000Y-77240000D02*
X100373000Y-78064000D01*
X100373000Y-74336000D02*
X100373000Y-75160000D01*
X100333000Y-77240000D02*
X100333000Y-78101000D01*
X100333000Y-74299000D02*
X100333000Y-75160000D01*
X100293000Y-77240000D02*
X100293000Y-78137000D01*
X100293000Y-74263000D02*
X100293000Y-75160000D01*
X100253000Y-77240000D02*
X100253000Y-78171000D01*
X100253000Y-74229000D02*
X100253000Y-75160000D01*
X100213000Y-77240000D02*
X100213000Y-78204000D01*
X100213000Y-74196000D02*
X100213000Y-75160000D01*
X100173000Y-77240000D02*
X100173000Y-78235000D01*
X100173000Y-74165000D02*
X100173000Y-75160000D01*
X100133000Y-77240000D02*
X100133000Y-78265000D01*
X100133000Y-74135000D02*
X100133000Y-75160000D01*
X100093000Y-77240000D02*
X100093000Y-78295000D01*
X100093000Y-74105000D02*
X100093000Y-75160000D01*
X100053000Y-77240000D02*
X100053000Y-78322000D01*
X100053000Y-74078000D02*
X100053000Y-75160000D01*
X100013000Y-77240000D02*
X100013000Y-78349000D01*
X100013000Y-74051000D02*
X100013000Y-75160000D01*
X99973000Y-77240000D02*
X99973000Y-78375000D01*
X99973000Y-74025000D02*
X99973000Y-75160000D01*
X99933000Y-77240000D02*
X99933000Y-78400000D01*
X99933000Y-74000000D02*
X99933000Y-75160000D01*
X99893000Y-77240000D02*
X99893000Y-78424000D01*
X99893000Y-73976000D02*
X99893000Y-75160000D01*
X99853000Y-77240000D02*
X99853000Y-78447000D01*
X99853000Y-73953000D02*
X99853000Y-75160000D01*
X99813000Y-77240000D02*
X99813000Y-78468000D01*
X99813000Y-73932000D02*
X99813000Y-75160000D01*
X99773000Y-77240000D02*
X99773000Y-78490000D01*
X99773000Y-73910000D02*
X99773000Y-75160000D01*
X99733000Y-77240000D02*
X99733000Y-78510000D01*
X99733000Y-73890000D02*
X99733000Y-75160000D01*
X99693000Y-77240000D02*
X99693000Y-78529000D01*
X99693000Y-73871000D02*
X99693000Y-75160000D01*
X99653000Y-77240000D02*
X99653000Y-78548000D01*
X99653000Y-73852000D02*
X99653000Y-75160000D01*
X99613000Y-77240000D02*
X99613000Y-78565000D01*
X99613000Y-73835000D02*
X99613000Y-75160000D01*
X99573000Y-77240000D02*
X99573000Y-78582000D01*
X99573000Y-73818000D02*
X99573000Y-75160000D01*
X99533000Y-77240000D02*
X99533000Y-78598000D01*
X99533000Y-73802000D02*
X99533000Y-75160000D01*
X99493000Y-77240000D02*
X99493000Y-78614000D01*
X99493000Y-73786000D02*
X99493000Y-75160000D01*
X99453000Y-77240000D02*
X99453000Y-78628000D01*
X99453000Y-73772000D02*
X99453000Y-75160000D01*
X99413000Y-77240000D02*
X99413000Y-78642000D01*
X99413000Y-73758000D02*
X99413000Y-75160000D01*
X99373000Y-77240000D02*
X99373000Y-78655000D01*
X99373000Y-73745000D02*
X99373000Y-75160000D01*
X99333000Y-77240000D02*
X99333000Y-78668000D01*
X99333000Y-73732000D02*
X99333000Y-75160000D01*
X99293000Y-77240000D02*
X99293000Y-78680000D01*
X99293000Y-73720000D02*
X99293000Y-75160000D01*
X99252000Y-77240000D02*
X99252000Y-78691000D01*
X99252000Y-73709000D02*
X99252000Y-75160000D01*
X99212000Y-77240000D02*
X99212000Y-78701000D01*
X99212000Y-73699000D02*
X99212000Y-75160000D01*
X99172000Y-77240000D02*
X99172000Y-78711000D01*
X99172000Y-73689000D02*
X99172000Y-75160000D01*
X99132000Y-77240000D02*
X99132000Y-78720000D01*
X99132000Y-73680000D02*
X99132000Y-75160000D01*
X99092000Y-77240000D02*
X99092000Y-78728000D01*
X99092000Y-73672000D02*
X99092000Y-75160000D01*
X99052000Y-77240000D02*
X99052000Y-78736000D01*
X99052000Y-73664000D02*
X99052000Y-75160000D01*
X99012000Y-77240000D02*
X99012000Y-78743000D01*
X99012000Y-73657000D02*
X99012000Y-75160000D01*
X98972000Y-77240000D02*
X98972000Y-78750000D01*
X98972000Y-73650000D02*
X98972000Y-75160000D01*
X98932000Y-77240000D02*
X98932000Y-78756000D01*
X98932000Y-73644000D02*
X98932000Y-75160000D01*
X98892000Y-77240000D02*
X98892000Y-78761000D01*
X98892000Y-73639000D02*
X98892000Y-75160000D01*
X98852000Y-77240000D02*
X98852000Y-78765000D01*
X98852000Y-73635000D02*
X98852000Y-75160000D01*
X98812000Y-77240000D02*
X98812000Y-78769000D01*
X98812000Y-73631000D02*
X98812000Y-75160000D01*
X98772000Y-73627000D02*
X98772000Y-78773000D01*
X98732000Y-73624000D02*
X98732000Y-78776000D01*
X98692000Y-73622000D02*
X98692000Y-78778000D01*
X98652000Y-73621000D02*
X98652000Y-78779000D01*
X98612000Y-73620000D02*
X98612000Y-78780000D01*
X98572000Y-73620000D02*
X98572000Y-78780000D01*
X101192000Y-76200000D02*
G75*
G03X101192000Y-76200000I-2620000J0D01*
G01*
X44196000Y-67334000D02*
X44196000Y-68104000D01*
X44196000Y-75414000D02*
X44196000Y-74644000D01*
X42826000Y-68104000D02*
X42826000Y-74644000D01*
X45566000Y-68104000D02*
X42826000Y-68104000D01*
X45566000Y-74644000D02*
X45566000Y-68104000D01*
X42826000Y-74644000D02*
X45566000Y-74644000D01*
X42264000Y-68104000D02*
X39524000Y-68104000D01*
X39524000Y-68104000D02*
X39524000Y-74644000D01*
X39524000Y-74644000D02*
X42264000Y-74644000D01*
X42264000Y-74644000D02*
X42264000Y-68104000D01*
X40894000Y-67334000D02*
X40894000Y-68104000D01*
X40894000Y-75414000D02*
X40894000Y-74644000D01*
X51308000Y-116054000D02*
X51308000Y-115284000D01*
X51308000Y-107974000D02*
X51308000Y-108744000D01*
X52678000Y-115284000D02*
X52678000Y-108744000D01*
X49938000Y-115284000D02*
X52678000Y-115284000D01*
X49938000Y-108744000D02*
X49938000Y-115284000D01*
X52678000Y-108744000D02*
X49938000Y-108744000D01*
X52678000Y-89440000D02*
X49938000Y-89440000D01*
X49938000Y-89440000D02*
X49938000Y-95980000D01*
X49938000Y-95980000D02*
X52678000Y-95980000D01*
X52678000Y-95980000D02*
X52678000Y-89440000D01*
X51308000Y-88670000D02*
X51308000Y-89440000D01*
X51308000Y-96750000D02*
X51308000Y-95980000D01*
X87376000Y-74954000D02*
X87376000Y-75724000D01*
X87376000Y-83034000D02*
X87376000Y-82264000D01*
X86006000Y-75724000D02*
X86006000Y-82264000D01*
X88746000Y-75724000D02*
X86006000Y-75724000D01*
X88746000Y-82264000D02*
X88746000Y-75724000D01*
X86006000Y-82264000D02*
X88746000Y-82264000D01*
X95350000Y-71152000D02*
X92610000Y-71152000D01*
X92610000Y-71152000D02*
X92610000Y-77692000D01*
X92610000Y-77692000D02*
X95350000Y-77692000D01*
X95350000Y-77692000D02*
X95350000Y-71152000D01*
X93980000Y-70382000D02*
X93980000Y-71152000D01*
X93980000Y-78462000D02*
X93980000Y-77692000D01*
X98806000Y-115546000D02*
X98806000Y-114776000D01*
X98806000Y-107466000D02*
X98806000Y-108236000D01*
X100176000Y-114776000D02*
X100176000Y-108236000D01*
X97436000Y-114776000D02*
X100176000Y-114776000D01*
X97436000Y-108236000D02*
X97436000Y-114776000D01*
X100176000Y-108236000D02*
X97436000Y-108236000D01*
X103478000Y-108236000D02*
X100738000Y-108236000D01*
X100738000Y-108236000D02*
X100738000Y-114776000D01*
X100738000Y-114776000D02*
X103478000Y-114776000D01*
X103478000Y-114776000D02*
X103478000Y-108236000D01*
X102108000Y-107466000D02*
X102108000Y-108236000D01*
X102108000Y-115546000D02*
X102108000Y-114776000D01*
X84614000Y-102262000D02*
X84614000Y-105002000D01*
X84614000Y-105002000D02*
X91154000Y-105002000D01*
X91154000Y-105002000D02*
X91154000Y-102262000D01*
X91154000Y-102262000D02*
X84614000Y-102262000D01*
X83844000Y-103632000D02*
X84614000Y-103632000D01*
X91924000Y-103632000D02*
X91154000Y-103632000D01*
X91924000Y-100330000D02*
X91154000Y-100330000D01*
X83844000Y-100330000D02*
X84614000Y-100330000D01*
X91154000Y-98960000D02*
X84614000Y-98960000D01*
X91154000Y-101700000D02*
X91154000Y-98960000D01*
X84614000Y-101700000D02*
X91154000Y-101700000D01*
X84614000Y-98960000D02*
X84614000Y-101700000D01*
D13*
X84258380Y-92623238D02*
X83782190Y-92956571D01*
X84258380Y-93194666D02*
X83258380Y-93194666D01*
X83258380Y-92813714D01*
X83306000Y-92718476D01*
X83353619Y-92670857D01*
X83448857Y-92623238D01*
X83591714Y-92623238D01*
X83686952Y-92670857D01*
X83734571Y-92718476D01*
X83782190Y-92813714D01*
X83782190Y-93194666D01*
X83258380Y-92337523D02*
X84258380Y-92004190D01*
X83258380Y-91670857D01*
X83353619Y-91385142D02*
X83306000Y-91337523D01*
X83258380Y-91242285D01*
X83258380Y-91004190D01*
X83306000Y-90908952D01*
X83353619Y-90861333D01*
X83448857Y-90813714D01*
X83544095Y-90813714D01*
X83686952Y-90861333D01*
X84258380Y-91432761D01*
X84258380Y-90813714D01*
X80224666Y-64222380D02*
X79748476Y-64222380D01*
X79700857Y-64698571D01*
X79748476Y-64650952D01*
X79843714Y-64603333D01*
X80081809Y-64603333D01*
X80177047Y-64650952D01*
X80224666Y-64698571D01*
X80272285Y-64793809D01*
X80272285Y-65031904D01*
X80224666Y-65127142D01*
X80177047Y-65174761D01*
X80081809Y-65222380D01*
X79843714Y-65222380D01*
X79748476Y-65174761D01*
X79700857Y-65127142D01*
X80558000Y-64222380D02*
X80891333Y-65222380D01*
X81224666Y-64222380D01*
X81319904Y-65317619D02*
X82081809Y-65317619D01*
X82796095Y-65222380D02*
X82319904Y-65222380D01*
X82319904Y-64222380D01*
X83319904Y-64222380D02*
X83510380Y-64222380D01*
X83605619Y-64270000D01*
X83700857Y-64365238D01*
X83748476Y-64555714D01*
X83748476Y-64889047D01*
X83700857Y-65079523D01*
X83605619Y-65174761D01*
X83510380Y-65222380D01*
X83319904Y-65222380D01*
X83224666Y-65174761D01*
X83129428Y-65079523D01*
X83081809Y-64889047D01*
X83081809Y-64555714D01*
X83129428Y-64365238D01*
X83224666Y-64270000D01*
X83319904Y-64222380D01*
X84748476Y-65127142D02*
X84700857Y-65174761D01*
X84558000Y-65222380D01*
X84462761Y-65222380D01*
X84319904Y-65174761D01*
X84224666Y-65079523D01*
X84177047Y-64984285D01*
X84129428Y-64793809D01*
X84129428Y-64650952D01*
X84177047Y-64460476D01*
X84224666Y-64365238D01*
X84319904Y-64270000D01*
X84462761Y-64222380D01*
X84558000Y-64222380D01*
X84700857Y-64270000D01*
X84748476Y-64317619D01*
X85129428Y-64936666D02*
X85605619Y-64936666D01*
X85034190Y-65222380D02*
X85367523Y-64222380D01*
X85700857Y-65222380D01*
X86510380Y-65222380D02*
X86034190Y-65222380D01*
X86034190Y-64222380D01*
X86190380Y-68635428D02*
X86190380Y-69206857D01*
X86190380Y-68921142D02*
X85190380Y-68921142D01*
X85333238Y-69016380D01*
X85428476Y-69111619D01*
X85476095Y-69206857D01*
X85190380Y-68016380D02*
X85190380Y-67921142D01*
X85238000Y-67825904D01*
X85285619Y-67778285D01*
X85380857Y-67730666D01*
X85571333Y-67683047D01*
X85809428Y-67683047D01*
X85999904Y-67730666D01*
X86095142Y-67778285D01*
X86142761Y-67825904D01*
X86190380Y-67921142D01*
X86190380Y-68016380D01*
X86142761Y-68111619D01*
X86095142Y-68159238D01*
X85999904Y-68206857D01*
X85809428Y-68254476D01*
X85571333Y-68254476D01*
X85380857Y-68206857D01*
X85285619Y-68159238D01*
X85238000Y-68111619D01*
X85190380Y-68016380D01*
X85190380Y-67064000D02*
X85190380Y-66968761D01*
X85238000Y-66873523D01*
X85285619Y-66825904D01*
X85380857Y-66778285D01*
X85571333Y-66730666D01*
X85809428Y-66730666D01*
X85999904Y-66778285D01*
X86095142Y-66825904D01*
X86142761Y-66873523D01*
X86190380Y-66968761D01*
X86190380Y-67064000D01*
X86142761Y-67159238D01*
X86095142Y-67206857D01*
X85999904Y-67254476D01*
X85809428Y-67302095D01*
X85571333Y-67302095D01*
X85380857Y-67254476D01*
X85285619Y-67206857D01*
X85238000Y-67159238D01*
X85190380Y-67064000D01*
X86190380Y-66302095D02*
X85190380Y-66302095D01*
X85809428Y-66206857D02*
X86190380Y-65921142D01*
X85523714Y-65921142D02*
X85904666Y-66302095D01*
X91130380Y-78954285D02*
X91130380Y-79525714D01*
X91130380Y-79240000D02*
X90130380Y-79240000D01*
X90273238Y-79335238D01*
X90368476Y-79430476D01*
X90416095Y-79525714D01*
X91130380Y-78525714D02*
X90130380Y-78525714D01*
X91130380Y-77954285D02*
X90558952Y-78382857D01*
X90130380Y-77954285D02*
X90701809Y-78525714D01*
X96607523Y-127448761D02*
X96750380Y-127496380D01*
X96988476Y-127496380D01*
X97083714Y-127448761D01*
X97131333Y-127401142D01*
X97178952Y-127305904D01*
X97178952Y-127210666D01*
X97131333Y-127115428D01*
X97083714Y-127067809D01*
X96988476Y-127020190D01*
X96798000Y-126972571D01*
X96702761Y-126924952D01*
X96655142Y-126877333D01*
X96607523Y-126782095D01*
X96607523Y-126686857D01*
X96655142Y-126591619D01*
X96702761Y-126544000D01*
X96798000Y-126496380D01*
X97036095Y-126496380D01*
X97178952Y-126544000D01*
X98178952Y-127496380D02*
X97845619Y-127020190D01*
X97607523Y-127496380D02*
X97607523Y-126496380D01*
X97988476Y-126496380D01*
X98083714Y-126544000D01*
X98131333Y-126591619D01*
X98178952Y-126686857D01*
X98178952Y-126829714D01*
X98131333Y-126924952D01*
X98083714Y-126972571D01*
X97988476Y-127020190D01*
X97607523Y-127020190D01*
X98464666Y-126496380D02*
X98798000Y-127496380D01*
X99131333Y-126496380D01*
X99417047Y-126591619D02*
X99464666Y-126544000D01*
X99559904Y-126496380D01*
X99798000Y-126496380D01*
X99893238Y-126544000D01*
X99940857Y-126591619D01*
X99988476Y-126686857D01*
X99988476Y-126782095D01*
X99940857Y-126924952D01*
X99369428Y-127496380D01*
X99988476Y-127496380D01*
X98417333Y-62130380D02*
X98417333Y-61130380D01*
X98988761Y-62130380D01*
X98988761Y-61130380D01*
X99464952Y-61606571D02*
X99798285Y-61606571D01*
X99941142Y-62130380D02*
X99464952Y-62130380D01*
X99464952Y-61130380D01*
X99941142Y-61130380D01*
X100845904Y-61130380D02*
X100369714Y-61130380D01*
X100322095Y-61606571D01*
X100369714Y-61558952D01*
X100464952Y-61511333D01*
X100703047Y-61511333D01*
X100798285Y-61558952D01*
X100845904Y-61606571D01*
X100893523Y-61701809D01*
X100893523Y-61939904D01*
X100845904Y-62035142D01*
X100798285Y-62082761D01*
X100703047Y-62130380D01*
X100464952Y-62130380D01*
X100369714Y-62082761D01*
X100322095Y-62035142D01*
X101798285Y-61130380D02*
X101322095Y-61130380D01*
X101274476Y-61606571D01*
X101322095Y-61558952D01*
X101417333Y-61511333D01*
X101655428Y-61511333D01*
X101750666Y-61558952D01*
X101798285Y-61606571D01*
X101845904Y-61701809D01*
X101845904Y-61939904D01*
X101798285Y-62035142D01*
X101750666Y-62082761D01*
X101655428Y-62130380D01*
X101417333Y-62130380D01*
X101322095Y-62082761D01*
X101274476Y-62035142D01*
X102750666Y-61130380D02*
X102274476Y-61130380D01*
X102226857Y-61606571D01*
X102274476Y-61558952D01*
X102369714Y-61511333D01*
X102607809Y-61511333D01*
X102703047Y-61558952D01*
X102750666Y-61606571D01*
X102798285Y-61701809D01*
X102798285Y-61939904D01*
X102750666Y-62035142D01*
X102703047Y-62082761D01*
X102607809Y-62130380D01*
X102369714Y-62130380D01*
X102274476Y-62082761D01*
X102226857Y-62035142D01*
X59845714Y-73964761D02*
X60202857Y-75964761D01*
X60488571Y-74536190D01*
X60774285Y-75964761D01*
X61131428Y-73964761D01*
X61702857Y-75964761D02*
X61702857Y-73964761D01*
X62917142Y-74917142D02*
X62417142Y-74917142D01*
X62417142Y-75964761D02*
X62417142Y-73964761D01*
X63131428Y-73964761D01*
X63702857Y-75964761D02*
X63702857Y-73964761D01*
X65488571Y-75393333D02*
X66202857Y-75393333D01*
X65345714Y-75964761D02*
X65845714Y-73964761D01*
X66345714Y-75964761D01*
X66845714Y-75964761D02*
X66845714Y-73964761D01*
X67702857Y-75964761D01*
X67702857Y-73964761D01*
X68202857Y-73964761D02*
X69060000Y-73964761D01*
X68631428Y-75964761D02*
X68631428Y-73964761D01*
X69560000Y-74917142D02*
X70060000Y-74917142D01*
X70274285Y-75964761D02*
X69560000Y-75964761D01*
X69560000Y-73964761D01*
X70274285Y-73964761D01*
X70917142Y-75964761D02*
X70917142Y-73964761D01*
X71774285Y-75964761D01*
X71774285Y-73964761D01*
X72488571Y-75964761D02*
X72488571Y-73964761D01*
X73345714Y-75964761D01*
X73345714Y-73964761D01*
X73988571Y-75393333D02*
X74702857Y-75393333D01*
X73845714Y-75964761D02*
X74345714Y-73964761D01*
X74845714Y-75964761D01*
X65417142Y-121964761D02*
X65417142Y-123583809D01*
X65488571Y-123774285D01*
X65560000Y-123869523D01*
X65702857Y-123964761D01*
X65988571Y-123964761D01*
X66131428Y-123869523D01*
X66202857Y-123774285D01*
X66274285Y-123583809D01*
X66274285Y-121964761D01*
X66917142Y-123869523D02*
X67131428Y-123964761D01*
X67488571Y-123964761D01*
X67631428Y-123869523D01*
X67702857Y-123774285D01*
X67774285Y-123583809D01*
X67774285Y-123393333D01*
X67702857Y-123202857D01*
X67631428Y-123107619D01*
X67488571Y-123012380D01*
X67202857Y-122917142D01*
X67060000Y-122821904D01*
X66988571Y-122726666D01*
X66917142Y-122536190D01*
X66917142Y-122345714D01*
X66988571Y-122155238D01*
X67060000Y-122060000D01*
X67202857Y-121964761D01*
X67560000Y-121964761D01*
X67774285Y-122060000D01*
X68917142Y-122917142D02*
X69131428Y-123012380D01*
X69202857Y-123107619D01*
X69274285Y-123298095D01*
X69274285Y-123583809D01*
X69202857Y-123774285D01*
X69131428Y-123869523D01*
X68988571Y-123964761D01*
X68417142Y-123964761D01*
X68417142Y-121964761D01*
X68917142Y-121964761D01*
X69060000Y-122060000D01*
X69131428Y-122155238D01*
X69202857Y-122345714D01*
X69202857Y-122536190D01*
X69131428Y-122726666D01*
X69060000Y-122821904D01*
X68917142Y-122917142D01*
X68417142Y-122917142D01*
X52324476Y-60507619D02*
X52372095Y-60460000D01*
X52467333Y-60412380D01*
X52705428Y-60412380D01*
X52800666Y-60460000D01*
X52848285Y-60507619D01*
X52895904Y-60602857D01*
X52895904Y-60698095D01*
X52848285Y-60840952D01*
X52276857Y-61412380D01*
X52895904Y-61412380D01*
X53753047Y-60745714D02*
X53753047Y-61412380D01*
X53514952Y-60364761D02*
X53276857Y-61079047D01*
X53895904Y-61079047D01*
X54134000Y-60412380D02*
X54467333Y-61412380D01*
X54800666Y-60412380D01*
X55134000Y-61031428D02*
X55895904Y-61031428D01*
X56372095Y-60745714D02*
X57134000Y-61031428D01*
X56372095Y-61317142D01*
X57514952Y-60412380D02*
X58134000Y-60412380D01*
X57800666Y-60793333D01*
X57943523Y-60793333D01*
X58038761Y-60840952D01*
X58086380Y-60888571D01*
X58134000Y-60983809D01*
X58134000Y-61221904D01*
X58086380Y-61317142D01*
X58038761Y-61364761D01*
X57943523Y-61412380D01*
X57657809Y-61412380D01*
X57562571Y-61364761D01*
X57514952Y-61317142D01*
X58419714Y-60412380D02*
X58753047Y-61412380D01*
X59086380Y-60412380D01*
X59324476Y-60412380D02*
X59943523Y-60412380D01*
X59610190Y-60793333D01*
X59753047Y-60793333D01*
X59848285Y-60840952D01*
X59895904Y-60888571D01*
X59943523Y-60983809D01*
X59943523Y-61221904D01*
X59895904Y-61317142D01*
X59848285Y-61364761D01*
X59753047Y-61412380D01*
X59467333Y-61412380D01*
X59372095Y-61364761D01*
X59324476Y-61317142D01*
X87884476Y-56078380D02*
X87884476Y-55078380D01*
X87884476Y-55554571D02*
X88455904Y-55554571D01*
X88455904Y-56078380D02*
X88455904Y-55078380D01*
X89503523Y-55983142D02*
X89455904Y-56030761D01*
X89313047Y-56078380D01*
X89217809Y-56078380D01*
X89074952Y-56030761D01*
X88979714Y-55935523D01*
X88932095Y-55840285D01*
X88884476Y-55649809D01*
X88884476Y-55506952D01*
X88932095Y-55316476D01*
X88979714Y-55221238D01*
X89074952Y-55126000D01*
X89217809Y-55078380D01*
X89313047Y-55078380D01*
X89455904Y-55126000D01*
X89503523Y-55173619D01*
X89932095Y-55697428D02*
X90694000Y-55697428D01*
X91122571Y-56030761D02*
X91265428Y-56078380D01*
X91503523Y-56078380D01*
X91598761Y-56030761D01*
X91646380Y-55983142D01*
X91694000Y-55887904D01*
X91694000Y-55792666D01*
X91646380Y-55697428D01*
X91598761Y-55649809D01*
X91503523Y-55602190D01*
X91313047Y-55554571D01*
X91217809Y-55506952D01*
X91170190Y-55459333D01*
X91122571Y-55364095D01*
X91122571Y-55268857D01*
X91170190Y-55173619D01*
X91217809Y-55126000D01*
X91313047Y-55078380D01*
X91551142Y-55078380D01*
X91694000Y-55126000D01*
X92694000Y-56078380D02*
X92360666Y-55602190D01*
X92122571Y-56078380D02*
X92122571Y-55078380D01*
X92503523Y-55078380D01*
X92598761Y-55126000D01*
X92646380Y-55173619D01*
X92694000Y-55268857D01*
X92694000Y-55411714D01*
X92646380Y-55506952D01*
X92598761Y-55554571D01*
X92503523Y-55602190D01*
X92122571Y-55602190D01*
X93598761Y-55078380D02*
X93122571Y-55078380D01*
X93074952Y-55554571D01*
X93122571Y-55506952D01*
X93217809Y-55459333D01*
X93455904Y-55459333D01*
X93551142Y-55506952D01*
X93598761Y-55554571D01*
X93646380Y-55649809D01*
X93646380Y-55887904D01*
X93598761Y-55983142D01*
X93551142Y-56030761D01*
X93455904Y-56078380D01*
X93217809Y-56078380D01*
X93122571Y-56030761D01*
X93074952Y-55983142D01*
X94265428Y-55078380D02*
X94360666Y-55078380D01*
X94455904Y-55126000D01*
X94503523Y-55173619D01*
X94551142Y-55268857D01*
X94598761Y-55459333D01*
X94598761Y-55697428D01*
X94551142Y-55887904D01*
X94503523Y-55983142D01*
X94455904Y-56030761D01*
X94360666Y-56078380D01*
X94265428Y-56078380D01*
X94170190Y-56030761D01*
X94122571Y-55983142D01*
X94074952Y-55887904D01*
X94027333Y-55697428D01*
X94027333Y-55459333D01*
X94074952Y-55268857D01*
X94122571Y-55173619D01*
X94170190Y-55126000D01*
X94265428Y-55078380D01*
X95551142Y-56078380D02*
X94979714Y-56078380D01*
X95265428Y-56078380D02*
X95265428Y-55078380D01*
X95170190Y-55221238D01*
X95074952Y-55316476D01*
X94979714Y-55364095D01*
X116594190Y-119848380D02*
X116832285Y-120848380D01*
X117022761Y-120134095D01*
X117213238Y-120848380D01*
X117451333Y-119848380D01*
X117832285Y-120848380D02*
X117832285Y-119848380D01*
X117832285Y-120324571D02*
X118403714Y-120324571D01*
X118403714Y-120848380D02*
X118403714Y-119848380D01*
X118879904Y-120848380D02*
X118879904Y-119848380D01*
X119213238Y-119848380D02*
X119784666Y-119848380D01*
X119498952Y-120848380D02*
X119498952Y-119848380D01*
X120118000Y-120324571D02*
X120451333Y-120324571D01*
X120594190Y-120848380D02*
X120118000Y-120848380D01*
X120118000Y-119848380D01*
X120594190Y-119848380D01*
X117308476Y-107624571D02*
X117451333Y-107672190D01*
X117498952Y-107719809D01*
X117546571Y-107815047D01*
X117546571Y-107957904D01*
X117498952Y-108053142D01*
X117451333Y-108100761D01*
X117356095Y-108148380D01*
X116975142Y-108148380D01*
X116975142Y-107148380D01*
X117308476Y-107148380D01*
X117403714Y-107196000D01*
X117451333Y-107243619D01*
X117498952Y-107338857D01*
X117498952Y-107434095D01*
X117451333Y-107529333D01*
X117403714Y-107576952D01*
X117308476Y-107624571D01*
X116975142Y-107624571D01*
X118451333Y-108148380D02*
X117975142Y-108148380D01*
X117975142Y-107148380D01*
X118784666Y-107148380D02*
X118784666Y-107957904D01*
X118832285Y-108053142D01*
X118879904Y-108100761D01*
X118975142Y-108148380D01*
X119165619Y-108148380D01*
X119260857Y-108100761D01*
X119308476Y-108053142D01*
X119356095Y-107957904D01*
X119356095Y-107148380D01*
X119832285Y-107624571D02*
X120165619Y-107624571D01*
X120308476Y-108148380D02*
X119832285Y-108148380D01*
X119832285Y-107148380D01*
X120308476Y-107148380D01*
X37862095Y-102236571D02*
X38004952Y-102284190D01*
X38052571Y-102331809D01*
X38100190Y-102427047D01*
X38100190Y-102569904D01*
X38052571Y-102665142D01*
X38004952Y-102712761D01*
X37909714Y-102760380D01*
X37528761Y-102760380D01*
X37528761Y-101760380D01*
X37862095Y-101760380D01*
X37957333Y-101808000D01*
X38004952Y-101855619D01*
X38052571Y-101950857D01*
X38052571Y-102046095D01*
X38004952Y-102141333D01*
X37957333Y-102188952D01*
X37862095Y-102236571D01*
X37528761Y-102236571D01*
X39004952Y-102760380D02*
X38528761Y-102760380D01*
X38528761Y-101760380D01*
X39290666Y-102474666D02*
X39766857Y-102474666D01*
X39195428Y-102760380D02*
X39528761Y-101760380D01*
X39862095Y-102760380D01*
X40766857Y-102665142D02*
X40719238Y-102712761D01*
X40576380Y-102760380D01*
X40481142Y-102760380D01*
X40338285Y-102712761D01*
X40243047Y-102617523D01*
X40195428Y-102522285D01*
X40147809Y-102331809D01*
X40147809Y-102188952D01*
X40195428Y-101998476D01*
X40243047Y-101903238D01*
X40338285Y-101808000D01*
X40481142Y-101760380D01*
X40576380Y-101760380D01*
X40719238Y-101808000D01*
X40766857Y-101855619D01*
X41195428Y-102760380D02*
X41195428Y-101760380D01*
X41766857Y-102760380D02*
X41338285Y-102188952D01*
X41766857Y-101760380D02*
X41195428Y-102331809D01*
X37957333Y-118064000D02*
X37862095Y-118016380D01*
X37719238Y-118016380D01*
X37576380Y-118064000D01*
X37481142Y-118159238D01*
X37433523Y-118254476D01*
X37385904Y-118444952D01*
X37385904Y-118587809D01*
X37433523Y-118778285D01*
X37481142Y-118873523D01*
X37576380Y-118968761D01*
X37719238Y-119016380D01*
X37814476Y-119016380D01*
X37957333Y-118968761D01*
X38004952Y-118921142D01*
X38004952Y-118587809D01*
X37814476Y-118587809D01*
X39004952Y-119016380D02*
X38671619Y-118540190D01*
X38433523Y-119016380D02*
X38433523Y-118016380D01*
X38814476Y-118016380D01*
X38909714Y-118064000D01*
X38957333Y-118111619D01*
X39004952Y-118206857D01*
X39004952Y-118349714D01*
X38957333Y-118444952D01*
X38909714Y-118492571D01*
X38814476Y-118540190D01*
X38433523Y-118540190D01*
X39433523Y-118492571D02*
X39766857Y-118492571D01*
X39909714Y-119016380D02*
X39433523Y-119016380D01*
X39433523Y-118016380D01*
X39909714Y-118016380D01*
X40338285Y-118492571D02*
X40671619Y-118492571D01*
X40814476Y-119016380D02*
X40338285Y-119016380D01*
X40338285Y-118016380D01*
X40814476Y-118016380D01*
X41243047Y-119016380D02*
X41243047Y-118016380D01*
X41814476Y-119016380D01*
X41814476Y-118016380D01*
X38981142Y-86558380D02*
X38647809Y-86082190D01*
X38409714Y-86558380D02*
X38409714Y-85558380D01*
X38790666Y-85558380D01*
X38885904Y-85606000D01*
X38933523Y-85653619D01*
X38981142Y-85748857D01*
X38981142Y-85891714D01*
X38933523Y-85986952D01*
X38885904Y-86034571D01*
X38790666Y-86082190D01*
X38409714Y-86082190D01*
X39409714Y-86034571D02*
X39743047Y-86034571D01*
X39885904Y-86558380D02*
X39409714Y-86558380D01*
X39409714Y-85558380D01*
X39885904Y-85558380D01*
X40314476Y-86558380D02*
X40314476Y-85558380D01*
X40552571Y-85558380D01*
X40695428Y-85606000D01*
X40790666Y-85701238D01*
X40838285Y-85796476D01*
X40885904Y-85986952D01*
X40885904Y-86129809D01*
X40838285Y-86320285D01*
X40790666Y-86415523D01*
X40695428Y-86510761D01*
X40552571Y-86558380D01*
X40314476Y-86558380D01*
X114712761Y-33561619D02*
X114617523Y-33514000D01*
X114522285Y-33418761D01*
X114379428Y-33275904D01*
X114284190Y-33228285D01*
X114188952Y-33228285D01*
X114236571Y-33466380D02*
X114141333Y-33418761D01*
X114046095Y-33323523D01*
X113998476Y-33133047D01*
X113998476Y-32799714D01*
X114046095Y-32609238D01*
X114141333Y-32514000D01*
X114236571Y-32466380D01*
X114427047Y-32466380D01*
X114522285Y-32514000D01*
X114617523Y-32609238D01*
X114665142Y-32799714D01*
X114665142Y-33133047D01*
X114617523Y-33323523D01*
X114522285Y-33418761D01*
X114427047Y-33466380D01*
X114236571Y-33466380D01*
X115046095Y-32561619D02*
X115093714Y-32514000D01*
X115188952Y-32466380D01*
X115427047Y-32466380D01*
X115522285Y-32514000D01*
X115569904Y-32561619D01*
X115617523Y-32656857D01*
X115617523Y-32752095D01*
X115569904Y-32894952D01*
X114998476Y-33466380D01*
X115617523Y-33466380D01*
X93678476Y-126972571D02*
X93345142Y-126972571D01*
X93345142Y-127496380D02*
X93345142Y-126496380D01*
X93821333Y-126496380D01*
X94154666Y-127210666D02*
X94630857Y-127210666D01*
X94059428Y-127496380D02*
X94392761Y-126496380D01*
X94726095Y-127496380D01*
X95059428Y-127496380D02*
X95059428Y-126496380D01*
X95630857Y-127496380D01*
X95630857Y-126496380D01*
X38710666Y-46625619D02*
X38758285Y-46578000D01*
X38853523Y-46530380D01*
X39091619Y-46530380D01*
X39186857Y-46578000D01*
X39234476Y-46625619D01*
X39282095Y-46720857D01*
X39282095Y-46816095D01*
X39234476Y-46958952D01*
X38663047Y-47530380D01*
X39282095Y-47530380D01*
X40139238Y-46863714D02*
X40139238Y-47530380D01*
X39901142Y-46482761D02*
X39663047Y-47197047D01*
X40282095Y-47197047D01*
X40520190Y-46530380D02*
X40853523Y-47530380D01*
X41186857Y-46530380D01*
X42282095Y-47530380D02*
X42282095Y-46530380D01*
X42758285Y-47530380D02*
X42758285Y-46530380D01*
X43329714Y-47530380D01*
X43329714Y-46530380D01*
X100417523Y-127448761D02*
X100560380Y-127496380D01*
X100798476Y-127496380D01*
X100893714Y-127448761D01*
X100941333Y-127401142D01*
X100988952Y-127305904D01*
X100988952Y-127210666D01*
X100941333Y-127115428D01*
X100893714Y-127067809D01*
X100798476Y-127020190D01*
X100608000Y-126972571D01*
X100512761Y-126924952D01*
X100465142Y-126877333D01*
X100417523Y-126782095D01*
X100417523Y-126686857D01*
X100465142Y-126591619D01*
X100512761Y-126544000D01*
X100608000Y-126496380D01*
X100846095Y-126496380D01*
X100988952Y-126544000D01*
X101988952Y-127496380D02*
X101655619Y-127020190D01*
X101417523Y-127496380D02*
X101417523Y-126496380D01*
X101798476Y-126496380D01*
X101893714Y-126544000D01*
X101941333Y-126591619D01*
X101988952Y-126686857D01*
X101988952Y-126829714D01*
X101941333Y-126924952D01*
X101893714Y-126972571D01*
X101798476Y-127020190D01*
X101417523Y-127020190D01*
X102274666Y-126496380D02*
X102608000Y-127496380D01*
X102941333Y-126496380D01*
X103798476Y-127496380D02*
X103227047Y-127496380D01*
X103512761Y-127496380D02*
X103512761Y-126496380D01*
X103417523Y-126639238D01*
X103322285Y-126734476D01*
X103227047Y-126782095D01*
X105164190Y-126602380D02*
X105402285Y-127602380D01*
X105592761Y-126888095D01*
X105783238Y-127602380D01*
X106021333Y-126602380D01*
X106402285Y-127602380D02*
X106402285Y-126602380D01*
X106402285Y-127078571D02*
X106973714Y-127078571D01*
X106973714Y-127602380D02*
X106973714Y-126602380D01*
X107449904Y-127602380D02*
X107449904Y-126602380D01*
X107783238Y-126602380D02*
X108354666Y-126602380D01*
X108068952Y-127602380D02*
X108068952Y-126602380D01*
X108688000Y-127078571D02*
X109021333Y-127078571D01*
X109164190Y-127602380D02*
X108688000Y-127602380D01*
X108688000Y-126602380D01*
X109164190Y-126602380D01*
X101814476Y-101782571D02*
X101957333Y-101830190D01*
X102004952Y-101877809D01*
X102052571Y-101973047D01*
X102052571Y-102115904D01*
X102004952Y-102211142D01*
X101957333Y-102258761D01*
X101862095Y-102306380D01*
X101481142Y-102306380D01*
X101481142Y-101306380D01*
X101814476Y-101306380D01*
X101909714Y-101354000D01*
X101957333Y-101401619D01*
X102004952Y-101496857D01*
X102004952Y-101592095D01*
X101957333Y-101687333D01*
X101909714Y-101734952D01*
X101814476Y-101782571D01*
X101481142Y-101782571D01*
X102957333Y-102306380D02*
X102481142Y-102306380D01*
X102481142Y-101306380D01*
X103290666Y-101306380D02*
X103290666Y-102115904D01*
X103338285Y-102211142D01*
X103385904Y-102258761D01*
X103481142Y-102306380D01*
X103671619Y-102306380D01*
X103766857Y-102258761D01*
X103814476Y-102211142D01*
X103862095Y-102115904D01*
X103862095Y-101306380D01*
X104338285Y-101782571D02*
X104671619Y-101782571D01*
X104814476Y-102306380D02*
X104338285Y-102306380D01*
X104338285Y-101306380D01*
X104814476Y-101306380D01*
X41037142Y-64460380D02*
X40465714Y-64460380D01*
X40751428Y-64460380D02*
X40751428Y-63460380D01*
X40656190Y-63603238D01*
X40560952Y-63698476D01*
X40465714Y-63746095D01*
X41465714Y-64460380D02*
X41465714Y-63460380D01*
X42037142Y-64460380D01*
X42037142Y-63460380D01*
X42941904Y-63793714D02*
X42941904Y-64460380D01*
X42703809Y-63412761D02*
X42465714Y-64127047D01*
X43084761Y-64127047D01*
X43656190Y-63460380D02*
X43751428Y-63460380D01*
X43846666Y-63508000D01*
X43894285Y-63555619D01*
X43941904Y-63650857D01*
X43989523Y-63841333D01*
X43989523Y-64079428D01*
X43941904Y-64269904D01*
X43894285Y-64365142D01*
X43846666Y-64412761D01*
X43751428Y-64460380D01*
X43656190Y-64460380D01*
X43560952Y-64412761D01*
X43513333Y-64365142D01*
X43465714Y-64269904D01*
X43418095Y-64079428D01*
X43418095Y-63841333D01*
X43465714Y-63650857D01*
X43513333Y-63555619D01*
X43560952Y-63508000D01*
X43656190Y-63460380D01*
X44608571Y-63460380D02*
X44703809Y-63460380D01*
X44799047Y-63508000D01*
X44846666Y-63555619D01*
X44894285Y-63650857D01*
X44941904Y-63841333D01*
X44941904Y-64079428D01*
X44894285Y-64269904D01*
X44846666Y-64365142D01*
X44799047Y-64412761D01*
X44703809Y-64460380D01*
X44608571Y-64460380D01*
X44513333Y-64412761D01*
X44465714Y-64365142D01*
X44418095Y-64269904D01*
X44370476Y-64079428D01*
X44370476Y-63841333D01*
X44418095Y-63650857D01*
X44465714Y-63555619D01*
X44513333Y-63508000D01*
X44608571Y-63460380D01*
X45894285Y-64460380D02*
X45322857Y-64460380D01*
X45608571Y-64460380D02*
X45608571Y-63460380D01*
X45513333Y-63603238D01*
X45418095Y-63698476D01*
X45322857Y-63746095D01*
X44632857Y-98274190D02*
X44632857Y-98750380D01*
X44299523Y-97750380D02*
X44632857Y-98274190D01*
X44966190Y-97750380D01*
X45299523Y-98226571D02*
X45632857Y-98226571D01*
X45775714Y-98750380D02*
X45299523Y-98750380D01*
X45299523Y-97750380D01*
X45775714Y-97750380D01*
X46680476Y-98750380D02*
X46204285Y-98750380D01*
X46204285Y-97750380D01*
X47490000Y-98750380D02*
X47013809Y-98750380D01*
X47013809Y-97750380D01*
X48013809Y-97750380D02*
X48204285Y-97750380D01*
X48299523Y-97798000D01*
X48394761Y-97893238D01*
X48442380Y-98083714D01*
X48442380Y-98417047D01*
X48394761Y-98607523D01*
X48299523Y-98702761D01*
X48204285Y-98750380D01*
X48013809Y-98750380D01*
X47918571Y-98702761D01*
X47823333Y-98607523D01*
X47775714Y-98417047D01*
X47775714Y-98083714D01*
X47823333Y-97893238D01*
X47918571Y-97798000D01*
X48013809Y-97750380D01*
X48775714Y-97750380D02*
X49013809Y-98750380D01*
X49204285Y-98036095D01*
X49394761Y-98750380D01*
X49632857Y-97750380D01*
X48117333Y-125126000D02*
X48022095Y-125078380D01*
X47879238Y-125078380D01*
X47736380Y-125126000D01*
X47641142Y-125221238D01*
X47593523Y-125316476D01*
X47545904Y-125506952D01*
X47545904Y-125649809D01*
X47593523Y-125840285D01*
X47641142Y-125935523D01*
X47736380Y-126030761D01*
X47879238Y-126078380D01*
X47974476Y-126078380D01*
X48117333Y-126030761D01*
X48164952Y-125983142D01*
X48164952Y-125649809D01*
X47974476Y-125649809D01*
X49164952Y-126078380D02*
X48831619Y-125602190D01*
X48593523Y-126078380D02*
X48593523Y-125078380D01*
X48974476Y-125078380D01*
X49069714Y-125126000D01*
X49117333Y-125173619D01*
X49164952Y-125268857D01*
X49164952Y-125411714D01*
X49117333Y-125506952D01*
X49069714Y-125554571D01*
X48974476Y-125602190D01*
X48593523Y-125602190D01*
X49593523Y-125554571D02*
X49926857Y-125554571D01*
X50069714Y-126078380D02*
X49593523Y-126078380D01*
X49593523Y-125078380D01*
X50069714Y-125078380D01*
X50498285Y-125554571D02*
X50831619Y-125554571D01*
X50974476Y-126078380D02*
X50498285Y-126078380D01*
X50498285Y-125078380D01*
X50974476Y-125078380D01*
X51403047Y-126078380D02*
X51403047Y-125078380D01*
X51974476Y-126078380D01*
X51974476Y-125078380D01*
X48887142Y-79550380D02*
X48553809Y-79074190D01*
X48315714Y-79550380D02*
X48315714Y-78550380D01*
X48696666Y-78550380D01*
X48791904Y-78598000D01*
X48839523Y-78645619D01*
X48887142Y-78740857D01*
X48887142Y-78883714D01*
X48839523Y-78978952D01*
X48791904Y-79026571D01*
X48696666Y-79074190D01*
X48315714Y-79074190D01*
X49315714Y-79026571D02*
X49649047Y-79026571D01*
X49791904Y-79550380D02*
X49315714Y-79550380D01*
X49315714Y-78550380D01*
X49791904Y-78550380D01*
X50220476Y-79550380D02*
X50220476Y-78550380D01*
X50458571Y-78550380D01*
X50601428Y-78598000D01*
X50696666Y-78693238D01*
X50744285Y-78788476D01*
X50791904Y-78978952D01*
X50791904Y-79121809D01*
X50744285Y-79312285D01*
X50696666Y-79407523D01*
X50601428Y-79502761D01*
X50458571Y-79550380D01*
X50220476Y-79550380D01*
X96837142Y-65424666D02*
X96884761Y-65472285D01*
X96932380Y-65615142D01*
X96932380Y-65710380D01*
X96884761Y-65853238D01*
X96789523Y-65948476D01*
X96694285Y-65996095D01*
X96503809Y-66043714D01*
X96360952Y-66043714D01*
X96170476Y-65996095D01*
X96075238Y-65948476D01*
X95980000Y-65853238D01*
X95932380Y-65710380D01*
X95932380Y-65615142D01*
X95980000Y-65472285D01*
X96027619Y-65424666D01*
X96027619Y-65043714D02*
X95980000Y-64996095D01*
X95932380Y-64900857D01*
X95932380Y-64662761D01*
X95980000Y-64567523D01*
X96027619Y-64519904D01*
X96122857Y-64472285D01*
X96218095Y-64472285D01*
X96360952Y-64519904D01*
X96932380Y-65091333D01*
X96932380Y-64472285D01*
X93337142Y-61920380D02*
X92765714Y-61920380D01*
X93051428Y-61920380D02*
X93051428Y-60920380D01*
X92956190Y-61063238D01*
X92860952Y-61158476D01*
X92765714Y-61206095D01*
X93956190Y-60920380D02*
X94051428Y-60920380D01*
X94146666Y-60968000D01*
X94194285Y-61015619D01*
X94241904Y-61110857D01*
X94289523Y-61301333D01*
X94289523Y-61539428D01*
X94241904Y-61729904D01*
X94194285Y-61825142D01*
X94146666Y-61872761D01*
X94051428Y-61920380D01*
X93956190Y-61920380D01*
X93860952Y-61872761D01*
X93813333Y-61825142D01*
X93765714Y-61729904D01*
X93718095Y-61539428D01*
X93718095Y-61301333D01*
X93765714Y-61110857D01*
X93813333Y-61015619D01*
X93860952Y-60968000D01*
X93956190Y-60920380D01*
X94718095Y-61253714D02*
X94718095Y-61920380D01*
X94718095Y-61348952D02*
X94765714Y-61301333D01*
X94860952Y-61253714D01*
X95003809Y-61253714D01*
X95099047Y-61301333D01*
X95146666Y-61396571D01*
X95146666Y-61920380D01*
X101242952Y-79192380D02*
X100671523Y-79192380D01*
X100957238Y-79192380D02*
X100957238Y-78192380D01*
X100862000Y-78335238D01*
X100766761Y-78430476D01*
X100671523Y-78478095D01*
X101862000Y-78192380D02*
X101957238Y-78192380D01*
X102052476Y-78240000D01*
X102100095Y-78287619D01*
X102147714Y-78382857D01*
X102195333Y-78573333D01*
X102195333Y-78811428D01*
X102147714Y-79001904D01*
X102100095Y-79097142D01*
X102052476Y-79144761D01*
X101957238Y-79192380D01*
X101862000Y-79192380D01*
X101766761Y-79144761D01*
X101719142Y-79097142D01*
X101671523Y-79001904D01*
X101623904Y-78811428D01*
X101623904Y-78573333D01*
X101671523Y-78382857D01*
X101719142Y-78287619D01*
X101766761Y-78240000D01*
X101862000Y-78192380D01*
X102814380Y-78192380D02*
X102909619Y-78192380D01*
X103004857Y-78240000D01*
X103052476Y-78287619D01*
X103100095Y-78382857D01*
X103147714Y-78573333D01*
X103147714Y-78811428D01*
X103100095Y-79001904D01*
X103052476Y-79097142D01*
X103004857Y-79144761D01*
X102909619Y-79192380D01*
X102814380Y-79192380D01*
X102719142Y-79144761D01*
X102671523Y-79097142D01*
X102623904Y-79001904D01*
X102576285Y-78811428D01*
X102576285Y-78573333D01*
X102623904Y-78382857D01*
X102671523Y-78287619D01*
X102719142Y-78240000D01*
X102814380Y-78192380D01*
X104004857Y-78525714D02*
X104004857Y-79192380D01*
X103576285Y-78525714D02*
X103576285Y-79049523D01*
X103623904Y-79144761D01*
X103719142Y-79192380D01*
X103862000Y-79192380D01*
X103957238Y-79144761D01*
X104004857Y-79097142D01*
X44648380Y-72064476D02*
X44648380Y-72635904D01*
X44648380Y-72350190D02*
X43648380Y-72350190D01*
X43791238Y-72445428D01*
X43886476Y-72540666D01*
X43934095Y-72635904D01*
X43648380Y-71445428D02*
X43648380Y-71350190D01*
X43696000Y-71254952D01*
X43743619Y-71207333D01*
X43838857Y-71159714D01*
X44029333Y-71112095D01*
X44267428Y-71112095D01*
X44457904Y-71159714D01*
X44553142Y-71207333D01*
X44600761Y-71254952D01*
X44648380Y-71350190D01*
X44648380Y-71445428D01*
X44600761Y-71540666D01*
X44553142Y-71588285D01*
X44457904Y-71635904D01*
X44267428Y-71683523D01*
X44029333Y-71683523D01*
X43838857Y-71635904D01*
X43743619Y-71588285D01*
X43696000Y-71540666D01*
X43648380Y-71445428D01*
X44648380Y-70683523D02*
X43648380Y-70683523D01*
X44648380Y-70112095D02*
X44076952Y-70540666D01*
X43648380Y-70112095D02*
X44219809Y-70683523D01*
X40346380Y-72159714D02*
X40346380Y-72350190D01*
X40394000Y-72445428D01*
X40441619Y-72493047D01*
X40584476Y-72588285D01*
X40774952Y-72635904D01*
X41155904Y-72635904D01*
X41251142Y-72588285D01*
X41298761Y-72540666D01*
X41346380Y-72445428D01*
X41346380Y-72254952D01*
X41298761Y-72159714D01*
X41251142Y-72112095D01*
X41155904Y-72064476D01*
X40917809Y-72064476D01*
X40822571Y-72112095D01*
X40774952Y-72159714D01*
X40727333Y-72254952D01*
X40727333Y-72445428D01*
X40774952Y-72540666D01*
X40822571Y-72588285D01*
X40917809Y-72635904D01*
X40774952Y-71493047D02*
X40727333Y-71588285D01*
X40679714Y-71635904D01*
X40584476Y-71683523D01*
X40536857Y-71683523D01*
X40441619Y-71635904D01*
X40394000Y-71588285D01*
X40346380Y-71493047D01*
X40346380Y-71302571D01*
X40394000Y-71207333D01*
X40441619Y-71159714D01*
X40536857Y-71112095D01*
X40584476Y-71112095D01*
X40679714Y-71159714D01*
X40727333Y-71207333D01*
X40774952Y-71302571D01*
X40774952Y-71493047D01*
X40822571Y-71588285D01*
X40870190Y-71635904D01*
X40965428Y-71683523D01*
X41155904Y-71683523D01*
X41251142Y-71635904D01*
X41298761Y-71588285D01*
X41346380Y-71493047D01*
X41346380Y-71302571D01*
X41298761Y-71207333D01*
X41251142Y-71159714D01*
X41155904Y-71112095D01*
X40965428Y-71112095D01*
X40870190Y-71159714D01*
X40822571Y-71207333D01*
X40774952Y-71302571D01*
X41346380Y-70112095D02*
X40870190Y-70445428D01*
X41346380Y-70683523D02*
X40346380Y-70683523D01*
X40346380Y-70302571D01*
X40394000Y-70207333D01*
X40441619Y-70159714D01*
X40536857Y-70112095D01*
X40679714Y-70112095D01*
X40774952Y-70159714D01*
X40822571Y-70207333D01*
X40870190Y-70302571D01*
X40870190Y-70683523D01*
X50760380Y-112799714D02*
X50760380Y-112990190D01*
X50808000Y-113085428D01*
X50855619Y-113133047D01*
X50998476Y-113228285D01*
X51188952Y-113275904D01*
X51569904Y-113275904D01*
X51665142Y-113228285D01*
X51712761Y-113180666D01*
X51760380Y-113085428D01*
X51760380Y-112894952D01*
X51712761Y-112799714D01*
X51665142Y-112752095D01*
X51569904Y-112704476D01*
X51331809Y-112704476D01*
X51236571Y-112752095D01*
X51188952Y-112799714D01*
X51141333Y-112894952D01*
X51141333Y-113085428D01*
X51188952Y-113180666D01*
X51236571Y-113228285D01*
X51331809Y-113275904D01*
X51188952Y-112133047D02*
X51141333Y-112228285D01*
X51093714Y-112275904D01*
X50998476Y-112323523D01*
X50950857Y-112323523D01*
X50855619Y-112275904D01*
X50808000Y-112228285D01*
X50760380Y-112133047D01*
X50760380Y-111942571D01*
X50808000Y-111847333D01*
X50855619Y-111799714D01*
X50950857Y-111752095D01*
X50998476Y-111752095D01*
X51093714Y-111799714D01*
X51141333Y-111847333D01*
X51188952Y-111942571D01*
X51188952Y-112133047D01*
X51236571Y-112228285D01*
X51284190Y-112275904D01*
X51379428Y-112323523D01*
X51569904Y-112323523D01*
X51665142Y-112275904D01*
X51712761Y-112228285D01*
X51760380Y-112133047D01*
X51760380Y-111942571D01*
X51712761Y-111847333D01*
X51665142Y-111799714D01*
X51569904Y-111752095D01*
X51379428Y-111752095D01*
X51284190Y-111799714D01*
X51236571Y-111847333D01*
X51188952Y-111942571D01*
X51760380Y-110752095D02*
X51284190Y-111085428D01*
X51760380Y-111323523D02*
X50760380Y-111323523D01*
X50760380Y-110942571D01*
X50808000Y-110847333D01*
X50855619Y-110799714D01*
X50950857Y-110752095D01*
X51093714Y-110752095D01*
X51188952Y-110799714D01*
X51236571Y-110847333D01*
X51284190Y-110942571D01*
X51284190Y-111323523D01*
X50760380Y-93495714D02*
X50760380Y-93686190D01*
X50808000Y-93781428D01*
X50855619Y-93829047D01*
X50998476Y-93924285D01*
X51188952Y-93971904D01*
X51569904Y-93971904D01*
X51665142Y-93924285D01*
X51712761Y-93876666D01*
X51760380Y-93781428D01*
X51760380Y-93590952D01*
X51712761Y-93495714D01*
X51665142Y-93448095D01*
X51569904Y-93400476D01*
X51331809Y-93400476D01*
X51236571Y-93448095D01*
X51188952Y-93495714D01*
X51141333Y-93590952D01*
X51141333Y-93781428D01*
X51188952Y-93876666D01*
X51236571Y-93924285D01*
X51331809Y-93971904D01*
X51188952Y-92829047D02*
X51141333Y-92924285D01*
X51093714Y-92971904D01*
X50998476Y-93019523D01*
X50950857Y-93019523D01*
X50855619Y-92971904D01*
X50808000Y-92924285D01*
X50760380Y-92829047D01*
X50760380Y-92638571D01*
X50808000Y-92543333D01*
X50855619Y-92495714D01*
X50950857Y-92448095D01*
X50998476Y-92448095D01*
X51093714Y-92495714D01*
X51141333Y-92543333D01*
X51188952Y-92638571D01*
X51188952Y-92829047D01*
X51236571Y-92924285D01*
X51284190Y-92971904D01*
X51379428Y-93019523D01*
X51569904Y-93019523D01*
X51665142Y-92971904D01*
X51712761Y-92924285D01*
X51760380Y-92829047D01*
X51760380Y-92638571D01*
X51712761Y-92543333D01*
X51665142Y-92495714D01*
X51569904Y-92448095D01*
X51379428Y-92448095D01*
X51284190Y-92495714D01*
X51236571Y-92543333D01*
X51188952Y-92638571D01*
X51760380Y-91448095D02*
X51284190Y-91781428D01*
X51760380Y-92019523D02*
X50760380Y-92019523D01*
X50760380Y-91638571D01*
X50808000Y-91543333D01*
X50855619Y-91495714D01*
X50950857Y-91448095D01*
X51093714Y-91448095D01*
X51188952Y-91495714D01*
X51236571Y-91543333D01*
X51284190Y-91638571D01*
X51284190Y-92019523D01*
X87828380Y-79684476D02*
X87828380Y-80255904D01*
X87828380Y-79970190D02*
X86828380Y-79970190D01*
X86971238Y-80065428D01*
X87066476Y-80160666D01*
X87114095Y-80255904D01*
X86828380Y-79065428D02*
X86828380Y-78970190D01*
X86876000Y-78874952D01*
X86923619Y-78827333D01*
X87018857Y-78779714D01*
X87209333Y-78732095D01*
X87447428Y-78732095D01*
X87637904Y-78779714D01*
X87733142Y-78827333D01*
X87780761Y-78874952D01*
X87828380Y-78970190D01*
X87828380Y-79065428D01*
X87780761Y-79160666D01*
X87733142Y-79208285D01*
X87637904Y-79255904D01*
X87447428Y-79303523D01*
X87209333Y-79303523D01*
X87018857Y-79255904D01*
X86923619Y-79208285D01*
X86876000Y-79160666D01*
X86828380Y-79065428D01*
X87828380Y-78303523D02*
X86828380Y-78303523D01*
X87828380Y-77732095D02*
X87256952Y-78160666D01*
X86828380Y-77732095D02*
X87399809Y-78303523D01*
X94432380Y-75017238D02*
X94432380Y-75588666D01*
X94432380Y-75302952D02*
X93432380Y-75302952D01*
X93575238Y-75398190D01*
X93670476Y-75493428D01*
X93718095Y-75588666D01*
X93432380Y-74398190D02*
X93432380Y-74302952D01*
X93480000Y-74207714D01*
X93527619Y-74160095D01*
X93622857Y-74112476D01*
X93813333Y-74064857D01*
X94051428Y-74064857D01*
X94241904Y-74112476D01*
X94337142Y-74160095D01*
X94384761Y-74207714D01*
X94432380Y-74302952D01*
X94432380Y-74398190D01*
X94384761Y-74493428D01*
X94337142Y-74541047D01*
X94241904Y-74588666D01*
X94051428Y-74636285D01*
X93813333Y-74636285D01*
X93622857Y-74588666D01*
X93527619Y-74541047D01*
X93480000Y-74493428D01*
X93432380Y-74398190D01*
X94432380Y-73636285D02*
X93432380Y-73636285D01*
X94051428Y-73541047D02*
X94432380Y-73255333D01*
X93765714Y-73255333D02*
X94146666Y-73636285D01*
X99258380Y-111990095D02*
X98258380Y-111990095D01*
X99258380Y-111418666D02*
X98686952Y-111847238D01*
X98258380Y-111418666D02*
X98829809Y-111990095D01*
X99258380Y-110466285D02*
X99258380Y-111037714D01*
X99258380Y-110752000D02*
X98258380Y-110752000D01*
X98401238Y-110847238D01*
X98496476Y-110942476D01*
X98544095Y-111037714D01*
X102560380Y-111990095D02*
X101560380Y-111990095D01*
X102560380Y-111418666D02*
X101988952Y-111847238D01*
X101560380Y-111418666D02*
X102131809Y-111990095D01*
X102560380Y-110466285D02*
X102560380Y-111037714D01*
X102560380Y-110752000D02*
X101560380Y-110752000D01*
X101703238Y-110847238D01*
X101798476Y-110942476D01*
X101846095Y-111037714D01*
X87669714Y-104084380D02*
X87098285Y-104084380D01*
X87384000Y-104084380D02*
X87384000Y-103084380D01*
X87288761Y-103227238D01*
X87193523Y-103322476D01*
X87098285Y-103370095D01*
X88098285Y-104084380D02*
X88098285Y-103084380D01*
X88669714Y-104084380D02*
X88241142Y-103512952D01*
X88669714Y-103084380D02*
X88098285Y-103655809D01*
X87193523Y-100782380D02*
X86622095Y-100782380D01*
X86907809Y-100782380D02*
X86907809Y-99782380D01*
X86812571Y-99925238D01*
X86717333Y-100020476D01*
X86622095Y-100068095D01*
X87812571Y-99782380D02*
X87907809Y-99782380D01*
X88003047Y-99830000D01*
X88050666Y-99877619D01*
X88098285Y-99972857D01*
X88145904Y-100163333D01*
X88145904Y-100401428D01*
X88098285Y-100591904D01*
X88050666Y-100687142D01*
X88003047Y-100734761D01*
X87907809Y-100782380D01*
X87812571Y-100782380D01*
X87717333Y-100734761D01*
X87669714Y-100687142D01*
X87622095Y-100591904D01*
X87574476Y-100401428D01*
X87574476Y-100163333D01*
X87622095Y-99972857D01*
X87669714Y-99877619D01*
X87717333Y-99830000D01*
X87812571Y-99782380D01*
X88574476Y-100782380D02*
X88574476Y-99782380D01*
X89145904Y-100782380D02*
X88717333Y-100210952D01*
X89145904Y-99782380D02*
X88574476Y-100353809D01*
M02*
