M48
; DRILL file {KiCad (5.1.12)-1} date 12/22/21 15:49:46
; FORMAT={-:-/ absolute / metric / decimal}
; #@! TF.CreationDate,2021-12-22T15:49:46+01:00
; #@! TF.GenerationSoftware,Kicad,Pcbnew,(5.1.12)-1
FMAT,2
METRIC
T1C0.300
T2C0.400
T3C0.600
T4C0.750
T5C0.800
T6C0.900
T7C0.950
T8C1.000
T9C1.020
T10C1.200
T11C1.500
T12C1.600
T13C0.650
T14C0.700
T15C1.200
T16C2.000
T17C3.200
T18C3.400
T19C3.500
%
G90
G05
T1
X64.097Y-122.825
X64.097Y-123.825
X64.097Y-124.825
X65.597Y-122.825
X65.597Y-123.825
X65.597Y-124.825
T2
X51.689Y-71.12
X51.689Y-72.898
X51.689Y-86.995
X51.689Y-88.9
X56.825Y-126.294
X58.737Y-78.232
X59.817Y-125.283
X59.817Y-123.825
X60.579Y-124.587
X60.96Y-140.525
X61.522Y-74.552
X61.912Y-71.056
X62.865Y-126.746
X63.373Y-70.993
X64.072Y-80.581
X64.706Y-133.096
X64.834Y-65.977
X65.087Y-70.993
X65.278Y-97.028
X65.342Y-130.429
X66.548Y-97.028
X67.564Y-142.113
X67.818Y-79.438
X68.58Y-116.459
X68.58Y-122.047
X68.58Y-123.063
X68.873Y-96.608
X69.088Y-115.57
X69.088Y-131.179
X69.151Y-141.668
X69.342Y-137.668
X69.596Y-97.917
X69.787Y-135.763
X70.231Y-115.57
X70.739Y-141.668
X70.866Y-84.709
X70.993Y-97.917
X71.374Y-58.674
X71.374Y-60.325
X71.374Y-115.57
X71.755Y-101.219
X71.755Y-102.362
X71.882Y-66.103
X71.945Y-56.896
X72.39Y-132.588
X72.453Y-133.731
X72.517Y-115.57
X72.707Y-140.144
X72.771Y-79.819
X72.771Y-81.09
X73.025Y-69.977
X73.025Y-99.441
X73.025Y-102.362
X73.341Y-134.428
X73.914Y-124.079
X74.041Y-69.977
X74.041Y-79.819
X74.041Y-81.09
X74.168Y-99.441
X74.231Y-140.144
X74.422Y-102.362
X74.803Y-87.566
X75.184Y-69.977
X75.692Y-102.362
X75.946Y-97.983
X76.073Y-87.566
X76.454Y-69.977
X76.581Y-104.648
X76.772Y-133.985
X76.772Y-135.001
X76.772Y-136.017
X77.153Y-100.965
X77.533Y-82.931
X77.724Y-69.977
X77.724Y-87.566
X78.359Y-81.534
X78.803Y-66.04
X79.438Y-87.566
X79.629Y-113.919
X79.756Y-80.709
X79.756Y-81.788
X79.756Y-82.931
X80.518Y-129.413
X80.518Y-131.191
X81.153Y-87.566
X81.407Y-135.191
X81.661Y-103.124
X82.296Y-55.435
X82.359Y-57.467
X82.486Y-60.008
X82.55Y-88.519
X82.677Y-135.191
X82.995Y-81.407
X83.121Y-125.476
X83.312Y-102.362
X83.376Y-83.566
X83.693Y-131.381
X83.82Y-101.092
X83.883Y-77.978
X83.883Y-79.311
X83.947Y-99.568
X83.947Y-108.331
X83.947Y-111.265
X84.201Y-89.154
X84.391Y-112.459
X84.582Y-83.566
X84.899Y-82.423
X85.09Y-101.727
X85.25Y-117.685
X85.25Y-129.115
X85.28Y-116.078
X85.344Y-72.009
X85.344Y-134.175
X85.471Y-89.662
X85.534Y-114.236
X86.042Y-64.453
X86.042Y-65.977
X86.042Y-67.31
X86.105Y-69.596
X86.106Y-73.977
X86.169Y-78.676
X86.614Y-89.662
X86.741Y-72.009
X86.8Y-133.096
X87.376Y-105.093
X87.592Y-88.354
X87.63Y-89.408
X87.667Y-64.44
X88.011Y-72.009
X88.011Y-73.343
X88.011Y-91.948
X88.075Y-74.612
X88.075Y-77.914
X88.075Y-79.311
X88.075Y-80.772
X88.138Y-135.255
X88.549Y-100.584
X89.09Y-105.156
X89.662Y-135.255
X89.725Y-63.309
X89.725Y-64.96
X89.725Y-66.548
X90.229Y-90.424
X90.424Y-115.135
X91.567Y-135.255
X91.752Y-91.001
X91.917Y-88.959
X92.202Y-53.594
X92.268Y-74.488
X92.964Y-108.966
X93.248Y-100.584
X93.408Y-135.255
X93.472Y-70.739
X93.493Y-71.743
X93.853Y-64.579
X94.328Y-90.711
X95.567Y-135.191
X95.822Y-76.136
X97.282Y-135.191
X97.917Y-76.073
X98.806Y-67.882
X98.933Y-135.191
X99.631Y-76.073
X100.52Y-135.191
X100.711Y-62.928
X100.711Y-65.977
X100.838Y-67.501
X101.219Y-131.655
X101.919Y-107.823
X101.981Y-106.553
X102.235Y-76.01
X102.235Y-118.999
X102.235Y-134.175
X103.187Y-103.632
X103.251Y-57.721
X103.251Y-60.706
X103.251Y-111.633
X103.251Y-130.302
X104.394Y-127.254
X104.394Y-134.874
X105.918Y-128.841
X105.918Y-130.239
X105.918Y-134.874
X106.172Y-57.721
X106.172Y-60.642
X106.299Y-64.135
X106.68Y-99.187
X107.315Y-98.372
X107.696Y-125.857
X107.696Y-128.397
X107.777Y-124.542
X109.537Y-97.79
X109.537Y-125.857
X109.537Y-128.397
X109.918Y-106.617
X110.109Y-100.965
X111.442Y-118.364
X111.506Y-116.268
X111.506Y-120.587
X111.76Y-125.984
X112.0Y-96.35
X112.0Y-110.65
X112.0Y-131.35
X113.284Y-127.254
X113.347Y-100.965
X113.347Y-106.68
X114.681Y-96.266
X115.633Y-74.676
X117.284Y-100.965
X117.284Y-106.68
X117.284Y-116.205
X117.284Y-118.3
X117.284Y-120.587
X118.427Y-74.676
X119.761Y-92.202
X120.904Y-106.68
X120.968Y-100.965
X121.285Y-64.198
X123.952Y-64.198
X124.902Y-54.483
X126.797Y-99.949
X128.016Y-64.135
X128.079Y-101.854
X128.842Y-111.76
X129.921Y-105.155
X131.762Y-116.205
X132.08Y-107.823
X132.334Y-109.982
X135.636Y-118.364
X136.081Y-107.188
X136.334Y-98.044
X136.75Y-113.85
X136.75Y-128.15
X138.176Y-118.364
X139.065Y-109.982
X139.319Y-103.505
X141.732Y-140.97
X145.669Y-141.859
X145.669Y-145.225
X148.336Y-118.491
X148.399Y-100.774
X148.399Y-110.744
T3
X123.063Y-95.714
X123.063Y-99.314
T4
X118.745Y-68.326
X118.745Y-70.866
X120.015Y-69.596
X123.19Y-69.596
X124.46Y-68.326
X124.46Y-70.866
X124.46Y-123.253
X125.73Y-121.983
X125.73Y-124.523
T5
X61.976Y-81.066
X61.976Y-83.566
X61.976Y-86.066
X67.35Y-86.487
X69.85Y-86.487
X72.35Y-86.487
X77.978Y-106.339
X77.978Y-108.839
X77.978Y-111.339
X85.019Y-58.039
X88.519Y-58.039
X88.773Y-119.507
X88.773Y-121.666
X88.773Y-123.825
X88.773Y-126.873
X88.773Y-129.159
X91.186Y-119.507
X91.186Y-121.666
X91.186Y-123.825
X91.186Y-126.873
X91.186Y-129.159
X91.226Y-113.157
X93.726Y-113.157
X93.726Y-119.507
X93.726Y-121.666
X96.226Y-113.157
X96.266Y-119.507
X96.266Y-121.666
X98.679Y-119.507
X98.679Y-121.666
X98.679Y-123.825
X98.679Y-126.873
X98.679Y-129.159
X99.862Y-113.157
X102.362Y-113.157
X104.862Y-113.157
X106.045Y-119.674
X106.045Y-122.174
X106.045Y-124.674
X132.8Y-54.229
X132.8Y-56.769
X132.8Y-59.309
X132.8Y-61.849
X145.5Y-54.229
X145.5Y-56.769
X145.5Y-59.309
X145.5Y-61.849
T6
X72.517Y-107.188
X72.517Y-109.728
X72.517Y-112.268
X75.057Y-105.918
X75.057Y-108.458
X75.057Y-110.998
X92.583Y-55.7
X92.583Y-58.24
X92.583Y-60.78
X92.583Y-63.32
X92.583Y-65.86
X92.583Y-68.4
X114.083Y-58.0
X114.083Y-60.54
X114.083Y-63.08
X114.083Y-65.62
X114.083Y-68.16
X114.083Y-70.7
T7
X57.0Y-108.5
X57.0Y-111.0
X57.0Y-113.5
X57.0Y-116.0
X57.404Y-133.0
X57.404Y-135.5
X57.404Y-138.0
X57.404Y-140.5
X57.404Y-143.0
X124.841Y-103.705
X124.841Y-106.205
X124.841Y-108.705
X124.841Y-111.205
X124.841Y-113.705
X124.841Y-116.205
X124.841Y-129.0
X124.841Y-131.5
X124.841Y-134.0
X124.841Y-136.5
T8
X54.737Y-81.193
X54.737Y-83.693
X55.0Y-89.96
X55.0Y-92.5
X55.372Y-60.706
X55.372Y-63.246
X55.372Y-65.786
X55.372Y-68.326
X57.54Y-89.96
X57.54Y-92.5
X60.08Y-89.96
X60.08Y-92.5
X62.484Y-131.953
X62.484Y-134.493
X62.484Y-137.033
X62.484Y-139.573
X62.484Y-142.113
X62.484Y-144.653
X81.026Y-51.816
X83.566Y-51.816
X84.582Y-97.663
X86.106Y-51.816
X87.122Y-97.663
X88.646Y-51.816
X89.662Y-97.663
X92.202Y-97.663
X94.742Y-97.663
X96.5Y-89.5
X97.282Y-97.663
X97.46Y-73.1
X99.0Y-89.5
X99.822Y-97.663
X100.0Y-73.1
X101.5Y-89.5
X102.54Y-73.1
X107.315Y-92.456
X109.855Y-92.456
X112.0Y-114.0
X112.0Y-128.5
X112.395Y-92.456
X114.5Y-128.5
X114.935Y-92.456
X117.0Y-114.0
X117.0Y-128.5
X117.475Y-92.456
X120.904Y-74.295
X123.444Y-74.295
X125.984Y-74.295
X128.524Y-74.295
X131.064Y-74.295
X133.604Y-74.295
X136.144Y-74.295
X138.684Y-74.295
X142.43Y-65.278
X142.43Y-67.818
X142.43Y-70.358
X142.43Y-72.898
X142.46Y-77.29
X142.46Y-79.83
X142.46Y-82.37
X142.46Y-84.91
X142.46Y-87.45
X142.46Y-89.99
X142.46Y-92.53
X142.46Y-95.07
X142.46Y-97.61
X142.46Y-100.15
X142.46Y-102.69
X142.46Y-105.23
X142.46Y-107.77
X142.46Y-110.31
X142.46Y-112.85
X142.46Y-115.39
X142.46Y-117.93
X142.46Y-120.47
X142.46Y-123.01
X142.46Y-125.55
X142.46Y-128.09
X142.46Y-130.63
X142.46Y-133.17
X142.46Y-135.71
X142.46Y-138.25
X144.97Y-65.278
X144.97Y-67.818
X144.97Y-70.358
X144.97Y-72.898
X145.0Y-77.29
X145.0Y-79.83
X145.0Y-82.37
X145.0Y-84.91
X145.0Y-87.45
X145.0Y-89.99
X145.0Y-92.53
X145.0Y-95.07
X145.0Y-97.61
X145.0Y-100.15
X145.0Y-102.69
X145.0Y-105.23
X145.0Y-107.77
X145.0Y-110.31
X145.0Y-112.85
X145.0Y-115.39
X145.0Y-117.93
X145.0Y-120.47
X145.0Y-123.01
X145.0Y-125.55
X145.0Y-128.09
X145.0Y-130.63
X145.0Y-133.17
X145.0Y-135.71
X145.0Y-138.25
T9
X57.023Y-72.009
X57.023Y-74.549
X57.023Y-77.089
X57.023Y-81.153
X57.023Y-83.693
X57.023Y-86.233
T10
X66.167Y-107.188
X66.167Y-110.998
T12
X59.182Y-68.453
X138.582Y-68.453
T13
X56.829Y-97.003
X56.829Y-102.783
X56.829Y-121.443
X56.829Y-127.223
T14
X86.36Y-109.178
T15
X55.0Y-106.9
X55.404Y-131.4
X122.841Y-102.105
X122.841Y-127.4
T16
X94.6Y-82.5
X103.4Y-82.5
X110.0Y-103.5
X110.0Y-138.5
X111.063Y-81.193
X111.063Y-83.693
X111.063Y-86.193
X113.063Y-79.943
X113.063Y-82.443
X113.063Y-84.943
X113.063Y-87.443
X115.063Y-78.693
X115.063Y-81.193
X115.063Y-83.693
X115.063Y-86.193
X115.063Y-88.693
X117.063Y-79.943
X117.063Y-82.443
X117.063Y-84.943
X117.063Y-87.443
X119.0Y-103.5
X119.0Y-138.5
X119.063Y-78.693
X119.063Y-81.193
X119.063Y-83.693
X119.063Y-86.193
X119.063Y-88.693
X121.063Y-79.943
X121.063Y-82.443
X121.063Y-84.943
X121.063Y-87.443
X123.063Y-78.693
X123.063Y-81.193
X123.063Y-83.693
X123.063Y-86.193
X123.063Y-88.693
X125.063Y-79.943
X125.063Y-82.443
X125.063Y-84.943
X125.063Y-87.443
X127.063Y-81.193
X127.063Y-83.693
X127.063Y-86.193
X129.75Y-121.0
X129.866Y-138.532
X138.75Y-121.0
X138.866Y-138.532
T17
X66.167Y-104.013
X66.167Y-114.173
T18
X74.5Y-143.25
X124.5Y-143.25
T3
X53.479Y-95.573G85X52.879Y-95.573
G05
X53.479Y-104.213G85X52.879Y-104.213
G05
X53.479Y-120.013G85X52.879Y-120.013
G05
X53.479Y-128.653G85X52.879Y-128.653
G05
X57.909Y-95.573G85X56.809Y-95.573
G05
X57.909Y-104.213G85X56.809Y-104.213
G05
X57.909Y-120.013G85X56.809Y-120.013
G05
X57.909Y-128.653G85X56.809Y-128.653
G05
T8
X62.483Y-56.706G85X62.483Y-58.706
G05
X68.183Y-54.706G85X66.183Y-54.706
G05
X68.183Y-60.706G85X66.183Y-60.706
G05
T11
X108.9Y-121.65G85X108.9Y-120.35
G05
X120.1Y-121.65G85X120.1Y-120.35
G05
T19
X76.632Y-58.453G85X76.632Y-58.453
G05
X121.132Y-58.453G85X121.132Y-58.453
G05
T0
M30
