%TF.GenerationSoftware,KiCad,Pcbnew,(5.1.12)-1*%
%TF.CreationDate,2021-12-22T15:49:41+01:00*%
%TF.ProjectId,pcbV10,70636256-3130-42e6-9b69-6361645f7063,rev?*%
%TF.SameCoordinates,Original*%
%TF.FileFunction,Soldermask,Bot*%
%TF.FilePolarity,Negative*%
%FSLAX46Y46*%
G04 Gerber Fmt 4.6, Leading zero omitted, Abs format (unit mm)*
G04 Created by KiCad (PCBNEW (5.1.12)-1) date 2021-12-22 15:49:41*
%MOMM*%
%LPD*%
G01*
G04 APERTURE LIST*
%ADD10C,3.600000*%
%ADD11O,7.500000X7.500000*%
%ADD12R,2.450000X1.000000*%
%ADD13R,1.000000X2.450000*%
%ADD14O,1.800000X2.200000*%
%ADD15C,1.800000*%
%ADD16C,0.700000*%
%ADD17O,1.700000X2.200000*%
%ADD18R,1.800000X1.100000*%
%ADD19O,2.400000X1.600000*%
%ADD20R,2.400000X1.600000*%
%ADD21O,1.700000X1.700000*%
%ADD22R,1.700000X1.700000*%
%ADD23O,2.000000X1.700000*%
%ADD24C,1.600000*%
%ADD25R,3.500000X3.500000*%
%ADD26C,2.000000*%
%ADD27O,1.600000X2.000000*%
%ADD28O,2.000000X1.600000*%
%ADD29O,3.600000X1.800000*%
%ADD30O,2.500000X2.000000*%
%ADD31C,0.650000*%
%ADD32O,3.500000X2.000000*%
%ADD33C,1.200000*%
%ADD34O,1.950000X1.700000*%
%ADD35C,3.200000*%
%ADD36C,3.400000*%
%ADD37R,2.000000X3.200000*%
%ADD38C,4.000000*%
%ADD39R,1.350000X4.200000*%
%ADD40O,2.030000X1.730000*%
%ADD41R,2.030000X1.730000*%
%ADD42O,2.200000X1.700000*%
%ADD43R,1.600000X1.600000*%
G04 APERTURE END LIST*
%TO.C,C41*%
G36*
G01*
X117607500Y-64102000D02*
X117607500Y-63152000D01*
G75*
G02*
X117857500Y-62902000I250000J0D01*
G01*
X118532500Y-62902000D01*
G75*
G02*
X118782500Y-63152000I0J-250000D01*
G01*
X118782500Y-64102000D01*
G75*
G02*
X118532500Y-64352000I-250000J0D01*
G01*
X117857500Y-64352000D01*
G75*
G02*
X117607500Y-64102000I0J250000D01*
G01*
G37*
G36*
G01*
X115532500Y-64102000D02*
X115532500Y-63152000D01*
G75*
G02*
X115782500Y-62902000I250000J0D01*
G01*
X116457500Y-62902000D01*
G75*
G02*
X116707500Y-63152000I0J-250000D01*
G01*
X116707500Y-64102000D01*
G75*
G02*
X116457500Y-64352000I-250000J0D01*
G01*
X115782500Y-64352000D01*
G75*
G02*
X115532500Y-64102000I0J250000D01*
G01*
G37*
%TD*%
%TO.C,C40*%
G36*
G01*
X117607500Y-66134000D02*
X117607500Y-65184000D01*
G75*
G02*
X117857500Y-64934000I250000J0D01*
G01*
X118532500Y-64934000D01*
G75*
G02*
X118782500Y-65184000I0J-250000D01*
G01*
X118782500Y-66134000D01*
G75*
G02*
X118532500Y-66384000I-250000J0D01*
G01*
X117857500Y-66384000D01*
G75*
G02*
X117607500Y-66134000I0J250000D01*
G01*
G37*
G36*
G01*
X115532500Y-66134000D02*
X115532500Y-65184000D01*
G75*
G02*
X115782500Y-64934000I250000J0D01*
G01*
X116457500Y-64934000D01*
G75*
G02*
X116707500Y-65184000I0J-250000D01*
G01*
X116707500Y-66134000D01*
G75*
G02*
X116457500Y-66384000I-250000J0D01*
G01*
X115782500Y-66384000D01*
G75*
G02*
X115532500Y-66134000I0J250000D01*
G01*
G37*
%TD*%
D10*
%TO.C,R18*%
X138582000Y-68453000D03*
X59182000Y-68453000D03*
D11*
X76632000Y-58453000D03*
X121132000Y-58453000D03*
%TD*%
D12*
%TO.C,DWM1*%
X98856000Y-57240200D03*
X98856000Y-58640200D03*
X98856000Y-60040200D03*
X98856000Y-61440200D03*
X98856000Y-62840200D03*
X98856000Y-64240200D03*
X98856000Y-65639000D03*
X98856000Y-67039000D03*
D13*
X100256000Y-69335200D03*
X101656000Y-69335200D03*
X103056000Y-69335200D03*
X104456000Y-69335200D03*
X105856000Y-69335200D03*
X107256000Y-69335200D03*
X108656000Y-69335200D03*
X110056000Y-69335200D03*
D12*
X111456000Y-67040200D03*
X111456000Y-65640200D03*
X111456000Y-64240200D03*
X111456000Y-62840200D03*
X111456000Y-61440200D03*
X111456000Y-60040200D03*
X111456000Y-58640200D03*
X111456000Y-57240200D03*
%TD*%
D14*
%TO.C,U16*%
X88646000Y-51816000D03*
X86106000Y-51816000D03*
X83566000Y-51816000D03*
G36*
G01*
X81476000Y-52916000D02*
X80576000Y-52916000D01*
G75*
G02*
X80126000Y-52466000I0J450000D01*
G01*
X80126000Y-51166000D01*
G75*
G02*
X80576000Y-50716000I450000J0D01*
G01*
X81476000Y-50716000D01*
G75*
G02*
X81926000Y-51166000I0J-450000D01*
G01*
X81926000Y-52466000D01*
G75*
G02*
X81476000Y-52916000I-450000J0D01*
G01*
G37*
%TD*%
D15*
%TO.C,U22*%
X102540000Y-73100000D03*
G36*
G01*
X96560000Y-73550000D02*
X96560000Y-72650000D01*
G75*
G02*
X97010000Y-72200000I450000J0D01*
G01*
X97910000Y-72200000D01*
G75*
G02*
X98360000Y-72650000I0J-450000D01*
G01*
X98360000Y-73550000D01*
G75*
G02*
X97910000Y-74000000I-450000J0D01*
G01*
X97010000Y-74000000D01*
G75*
G02*
X96560000Y-73550000I0J450000D01*
G01*
G37*
X100000000Y-73100000D03*
%TD*%
D16*
%TO.C,MK1*%
X86360000Y-109178000D03*
%TD*%
D17*
%TO.C,U20*%
X107315000Y-92456000D03*
X109855000Y-92456000D03*
X112395000Y-92456000D03*
X114935000Y-92456000D03*
G36*
G01*
X117050000Y-91356000D02*
X117900000Y-91356000D01*
G75*
G02*
X118325000Y-91781000I0J-425000D01*
G01*
X118325000Y-93131000D01*
G75*
G02*
X117900000Y-93556000I-425000J0D01*
G01*
X117050000Y-93556000D01*
G75*
G02*
X116625000Y-93131000I0J425000D01*
G01*
X116625000Y-91781000D01*
G75*
G02*
X117050000Y-91356000I425000J0D01*
G01*
G37*
%TD*%
D18*
%TO.C,U19*%
X124860000Y-68326000D03*
G36*
G01*
X124235000Y-70316000D02*
X125485000Y-70316000D01*
G75*
G02*
X125760000Y-70591000I0J-275000D01*
G01*
X125760000Y-71141000D01*
G75*
G02*
X125485000Y-71416000I-275000J0D01*
G01*
X124235000Y-71416000D01*
G75*
G02*
X123960000Y-71141000I0J275000D01*
G01*
X123960000Y-70591000D01*
G75*
G02*
X124235000Y-70316000I275000J0D01*
G01*
G37*
G36*
G01*
X122165000Y-69046000D02*
X123415000Y-69046000D01*
G75*
G02*
X123690000Y-69321000I0J-275000D01*
G01*
X123690000Y-69871000D01*
G75*
G02*
X123415000Y-70146000I-275000J0D01*
G01*
X122165000Y-70146000D01*
G75*
G02*
X121890000Y-69871000I0J275000D01*
G01*
X121890000Y-69321000D01*
G75*
G02*
X122165000Y-69046000I275000J0D01*
G01*
G37*
%TD*%
D19*
%TO.C,U10*%
X145500000Y-54229000D03*
X132800000Y-61849000D03*
X145500000Y-56769000D03*
X132800000Y-59309000D03*
X145500000Y-59309000D03*
X132800000Y-56769000D03*
X145500000Y-61849000D03*
D20*
X132800000Y-54229000D03*
%TD*%
D18*
%TO.C,U9*%
X118345000Y-68326000D03*
G36*
G01*
X117720000Y-70316000D02*
X118970000Y-70316000D01*
G75*
G02*
X119245000Y-70591000I0J-275000D01*
G01*
X119245000Y-71141000D01*
G75*
G02*
X118970000Y-71416000I-275000J0D01*
G01*
X117720000Y-71416000D01*
G75*
G02*
X117445000Y-71141000I0J275000D01*
G01*
X117445000Y-70591000D01*
G75*
G02*
X117720000Y-70316000I275000J0D01*
G01*
G37*
G36*
G01*
X119790000Y-69046000D02*
X121040000Y-69046000D01*
G75*
G02*
X121315000Y-69321000I0J-275000D01*
G01*
X121315000Y-69871000D01*
G75*
G02*
X121040000Y-70146000I-275000J0D01*
G01*
X119790000Y-70146000D01*
G75*
G02*
X119515000Y-69871000I0J275000D01*
G01*
X119515000Y-69321000D01*
G75*
G02*
X119790000Y-69046000I275000J0D01*
G01*
G37*
%TD*%
%TO.C,U7*%
X126130000Y-124523500D03*
G36*
G01*
X126755000Y-122533500D02*
X125505000Y-122533500D01*
G75*
G02*
X125230000Y-122258500I0J275000D01*
G01*
X125230000Y-121708500D01*
G75*
G02*
X125505000Y-121433500I275000J0D01*
G01*
X126755000Y-121433500D01*
G75*
G02*
X127030000Y-121708500I0J-275000D01*
G01*
X127030000Y-122258500D01*
G75*
G02*
X126755000Y-122533500I-275000J0D01*
G01*
G37*
G36*
G01*
X124685000Y-123803500D02*
X123435000Y-123803500D01*
G75*
G02*
X123160000Y-123528500I0J275000D01*
G01*
X123160000Y-122978500D01*
G75*
G02*
X123435000Y-122703500I275000J0D01*
G01*
X124685000Y-122703500D01*
G75*
G02*
X124960000Y-122978500I0J-275000D01*
G01*
X124960000Y-123528500D01*
G75*
G02*
X124685000Y-123803500I-275000J0D01*
G01*
G37*
%TD*%
%TO.C,U4*%
G36*
G01*
X66398000Y-129897000D02*
X66698000Y-129897000D01*
G75*
G02*
X66848000Y-130047000I0J-150000D01*
G01*
X66848000Y-131697000D01*
G75*
G02*
X66698000Y-131847000I-150000J0D01*
G01*
X66398000Y-131847000D01*
G75*
G02*
X66248000Y-131697000I0J150000D01*
G01*
X66248000Y-130047000D01*
G75*
G02*
X66398000Y-129897000I150000J0D01*
G01*
G37*
G36*
G01*
X67668000Y-129897000D02*
X67968000Y-129897000D01*
G75*
G02*
X68118000Y-130047000I0J-150000D01*
G01*
X68118000Y-131697000D01*
G75*
G02*
X67968000Y-131847000I-150000J0D01*
G01*
X67668000Y-131847000D01*
G75*
G02*
X67518000Y-131697000I0J150000D01*
G01*
X67518000Y-130047000D01*
G75*
G02*
X67668000Y-129897000I150000J0D01*
G01*
G37*
G36*
G01*
X68938000Y-129897000D02*
X69238000Y-129897000D01*
G75*
G02*
X69388000Y-130047000I0J-150000D01*
G01*
X69388000Y-131697000D01*
G75*
G02*
X69238000Y-131847000I-150000J0D01*
G01*
X68938000Y-131847000D01*
G75*
G02*
X68788000Y-131697000I0J150000D01*
G01*
X68788000Y-130047000D01*
G75*
G02*
X68938000Y-129897000I150000J0D01*
G01*
G37*
G36*
G01*
X70208000Y-129897000D02*
X70508000Y-129897000D01*
G75*
G02*
X70658000Y-130047000I0J-150000D01*
G01*
X70658000Y-131697000D01*
G75*
G02*
X70508000Y-131847000I-150000J0D01*
G01*
X70208000Y-131847000D01*
G75*
G02*
X70058000Y-131697000I0J150000D01*
G01*
X70058000Y-130047000D01*
G75*
G02*
X70208000Y-129897000I150000J0D01*
G01*
G37*
G36*
G01*
X71478000Y-129897000D02*
X71778000Y-129897000D01*
G75*
G02*
X71928000Y-130047000I0J-150000D01*
G01*
X71928000Y-131697000D01*
G75*
G02*
X71778000Y-131847000I-150000J0D01*
G01*
X71478000Y-131847000D01*
G75*
G02*
X71328000Y-131697000I0J150000D01*
G01*
X71328000Y-130047000D01*
G75*
G02*
X71478000Y-129897000I150000J0D01*
G01*
G37*
G36*
G01*
X72748000Y-129897000D02*
X73048000Y-129897000D01*
G75*
G02*
X73198000Y-130047000I0J-150000D01*
G01*
X73198000Y-131697000D01*
G75*
G02*
X73048000Y-131847000I-150000J0D01*
G01*
X72748000Y-131847000D01*
G75*
G02*
X72598000Y-131697000I0J150000D01*
G01*
X72598000Y-130047000D01*
G75*
G02*
X72748000Y-129897000I150000J0D01*
G01*
G37*
G36*
G01*
X74018000Y-129897000D02*
X74318000Y-129897000D01*
G75*
G02*
X74468000Y-130047000I0J-150000D01*
G01*
X74468000Y-131697000D01*
G75*
G02*
X74318000Y-131847000I-150000J0D01*
G01*
X74018000Y-131847000D01*
G75*
G02*
X73868000Y-131697000I0J150000D01*
G01*
X73868000Y-130047000D01*
G75*
G02*
X74018000Y-129897000I150000J0D01*
G01*
G37*
G36*
G01*
X75288000Y-129897000D02*
X75588000Y-129897000D01*
G75*
G02*
X75738000Y-130047000I0J-150000D01*
G01*
X75738000Y-131697000D01*
G75*
G02*
X75588000Y-131847000I-150000J0D01*
G01*
X75288000Y-131847000D01*
G75*
G02*
X75138000Y-131697000I0J150000D01*
G01*
X75138000Y-130047000D01*
G75*
G02*
X75288000Y-129897000I150000J0D01*
G01*
G37*
G36*
G01*
X75288000Y-124947000D02*
X75588000Y-124947000D01*
G75*
G02*
X75738000Y-125097000I0J-150000D01*
G01*
X75738000Y-126747000D01*
G75*
G02*
X75588000Y-126897000I-150000J0D01*
G01*
X75288000Y-126897000D01*
G75*
G02*
X75138000Y-126747000I0J150000D01*
G01*
X75138000Y-125097000D01*
G75*
G02*
X75288000Y-124947000I150000J0D01*
G01*
G37*
G36*
G01*
X74018000Y-124947000D02*
X74318000Y-124947000D01*
G75*
G02*
X74468000Y-125097000I0J-150000D01*
G01*
X74468000Y-126747000D01*
G75*
G02*
X74318000Y-126897000I-150000J0D01*
G01*
X74018000Y-126897000D01*
G75*
G02*
X73868000Y-126747000I0J150000D01*
G01*
X73868000Y-125097000D01*
G75*
G02*
X74018000Y-124947000I150000J0D01*
G01*
G37*
G36*
G01*
X72748000Y-124947000D02*
X73048000Y-124947000D01*
G75*
G02*
X73198000Y-125097000I0J-150000D01*
G01*
X73198000Y-126747000D01*
G75*
G02*
X73048000Y-126897000I-150000J0D01*
G01*
X72748000Y-126897000D01*
G75*
G02*
X72598000Y-126747000I0J150000D01*
G01*
X72598000Y-125097000D01*
G75*
G02*
X72748000Y-124947000I150000J0D01*
G01*
G37*
G36*
G01*
X71478000Y-124947000D02*
X71778000Y-124947000D01*
G75*
G02*
X71928000Y-125097000I0J-150000D01*
G01*
X71928000Y-126747000D01*
G75*
G02*
X71778000Y-126897000I-150000J0D01*
G01*
X71478000Y-126897000D01*
G75*
G02*
X71328000Y-126747000I0J150000D01*
G01*
X71328000Y-125097000D01*
G75*
G02*
X71478000Y-124947000I150000J0D01*
G01*
G37*
G36*
G01*
X70208000Y-124947000D02*
X70508000Y-124947000D01*
G75*
G02*
X70658000Y-125097000I0J-150000D01*
G01*
X70658000Y-126747000D01*
G75*
G02*
X70508000Y-126897000I-150000J0D01*
G01*
X70208000Y-126897000D01*
G75*
G02*
X70058000Y-126747000I0J150000D01*
G01*
X70058000Y-125097000D01*
G75*
G02*
X70208000Y-124947000I150000J0D01*
G01*
G37*
G36*
G01*
X68938000Y-124947000D02*
X69238000Y-124947000D01*
G75*
G02*
X69388000Y-125097000I0J-150000D01*
G01*
X69388000Y-126747000D01*
G75*
G02*
X69238000Y-126897000I-150000J0D01*
G01*
X68938000Y-126897000D01*
G75*
G02*
X68788000Y-126747000I0J150000D01*
G01*
X68788000Y-125097000D01*
G75*
G02*
X68938000Y-124947000I150000J0D01*
G01*
G37*
G36*
G01*
X67668000Y-124947000D02*
X67968000Y-124947000D01*
G75*
G02*
X68118000Y-125097000I0J-150000D01*
G01*
X68118000Y-126747000D01*
G75*
G02*
X67968000Y-126897000I-150000J0D01*
G01*
X67668000Y-126897000D01*
G75*
G02*
X67518000Y-126747000I0J150000D01*
G01*
X67518000Y-125097000D01*
G75*
G02*
X67668000Y-124947000I150000J0D01*
G01*
G37*
G36*
G01*
X66398000Y-124947000D02*
X66698000Y-124947000D01*
G75*
G02*
X66848000Y-125097000I0J-150000D01*
G01*
X66848000Y-126747000D01*
G75*
G02*
X66698000Y-126897000I-150000J0D01*
G01*
X66398000Y-126897000D01*
G75*
G02*
X66248000Y-126747000I0J150000D01*
G01*
X66248000Y-125097000D01*
G75*
G02*
X66398000Y-124947000I150000J0D01*
G01*
G37*
%TD*%
D21*
%TO.C,J17*%
X120904000Y-74295000D03*
X123444000Y-74295000D03*
X125984000Y-74295000D03*
X128524000Y-74295000D03*
X131064000Y-74295000D03*
X133604000Y-74295000D03*
X136144000Y-74295000D03*
D22*
X138684000Y-74295000D03*
%TD*%
D21*
%TO.C,J16*%
X62484000Y-144653000D03*
X62484000Y-142113000D03*
X62484000Y-139573000D03*
X62484000Y-137033000D03*
X62484000Y-134493000D03*
D22*
X62484000Y-131953000D03*
%TD*%
%TO.C,C13*%
G36*
G01*
X61018000Y-129319000D02*
X61018000Y-130269000D01*
G75*
G02*
X60768000Y-130519000I-250000J0D01*
G01*
X60093000Y-130519000D01*
G75*
G02*
X59843000Y-130269000I0J250000D01*
G01*
X59843000Y-129319000D01*
G75*
G02*
X60093000Y-129069000I250000J0D01*
G01*
X60768000Y-129069000D01*
G75*
G02*
X61018000Y-129319000I0J-250000D01*
G01*
G37*
G36*
G01*
X63093000Y-129319000D02*
X63093000Y-130269000D01*
G75*
G02*
X62843000Y-130519000I-250000J0D01*
G01*
X62168000Y-130519000D01*
G75*
G02*
X61918000Y-130269000I0J250000D01*
G01*
X61918000Y-129319000D01*
G75*
G02*
X62168000Y-129069000I250000J0D01*
G01*
X62843000Y-129069000D01*
G75*
G02*
X63093000Y-129319000I0J-250000D01*
G01*
G37*
%TD*%
%TO.C,C11*%
G36*
G01*
X70902500Y-123159500D02*
X70902500Y-124109500D01*
G75*
G02*
X70652500Y-124359500I-250000J0D01*
G01*
X69977500Y-124359500D01*
G75*
G02*
X69727500Y-124109500I0J250000D01*
G01*
X69727500Y-123159500D01*
G75*
G02*
X69977500Y-122909500I250000J0D01*
G01*
X70652500Y-122909500D01*
G75*
G02*
X70902500Y-123159500I0J-250000D01*
G01*
G37*
G36*
G01*
X72977500Y-123159500D02*
X72977500Y-124109500D01*
G75*
G02*
X72727500Y-124359500I-250000J0D01*
G01*
X72052500Y-124359500D01*
G75*
G02*
X71802500Y-124109500I0J250000D01*
G01*
X71802500Y-123159500D01*
G75*
G02*
X72052500Y-122909500I250000J0D01*
G01*
X72727500Y-122909500D01*
G75*
G02*
X72977500Y-123159500I0J-250000D01*
G01*
G37*
%TD*%
D23*
%TO.C,J20*%
X54737000Y-81193000D03*
G36*
G01*
X55487000Y-84543000D02*
X53987000Y-84543000D01*
G75*
G02*
X53737000Y-84293000I0J250000D01*
G01*
X53737000Y-83093000D01*
G75*
G02*
X53987000Y-82843000I250000J0D01*
G01*
X55487000Y-82843000D01*
G75*
G02*
X55737000Y-83093000I0J-250000D01*
G01*
X55737000Y-84293000D01*
G75*
G02*
X55487000Y-84543000I-250000J0D01*
G01*
G37*
%TD*%
D24*
%TO.C,J13*%
X123063000Y-95714000D03*
G36*
G01*
X123613000Y-100114000D02*
X122513000Y-100114000D01*
G75*
G02*
X122263000Y-99864000I0J250000D01*
G01*
X122263000Y-98764000D01*
G75*
G02*
X122513000Y-98514000I250000J0D01*
G01*
X123613000Y-98514000D01*
G75*
G02*
X123863000Y-98764000I0J-250000D01*
G01*
X123863000Y-99864000D01*
G75*
G02*
X123613000Y-100114000I-250000J0D01*
G01*
G37*
%TD*%
D21*
%TO.C,J12*%
X145000000Y-138250000D03*
X142460000Y-138250000D03*
X145000000Y-135710000D03*
X142460000Y-135710000D03*
X145000000Y-133170000D03*
X142460000Y-133170000D03*
X145000000Y-130630000D03*
X142460000Y-130630000D03*
X145000000Y-128090000D03*
X142460000Y-128090000D03*
X145000000Y-125550000D03*
X142460000Y-125550000D03*
X145000000Y-123010000D03*
X142460000Y-123010000D03*
X145000000Y-120470000D03*
X142460000Y-120470000D03*
X145000000Y-117930000D03*
X142460000Y-117930000D03*
X145000000Y-115390000D03*
X142460000Y-115390000D03*
X145000000Y-112850000D03*
X142460000Y-112850000D03*
X145000000Y-110310000D03*
X142460000Y-110310000D03*
X145000000Y-107770000D03*
X142460000Y-107770000D03*
X145000000Y-105230000D03*
X142460000Y-105230000D03*
X145000000Y-102690000D03*
X142460000Y-102690000D03*
X145000000Y-100150000D03*
X142460000Y-100150000D03*
X145000000Y-97610000D03*
X142460000Y-97610000D03*
X145000000Y-95070000D03*
X142460000Y-95070000D03*
X145000000Y-92530000D03*
X142460000Y-92530000D03*
X145000000Y-89990000D03*
X142460000Y-89990000D03*
X145000000Y-87450000D03*
X142460000Y-87450000D03*
X145000000Y-84910000D03*
X142460000Y-84910000D03*
X145000000Y-82370000D03*
X142460000Y-82370000D03*
X145000000Y-79830000D03*
X142460000Y-79830000D03*
X145000000Y-77290000D03*
D22*
X142460000Y-77290000D03*
%TD*%
D21*
%TO.C,J19*%
X144970500Y-72898000D03*
X142430500Y-72898000D03*
X144970500Y-70358000D03*
X142430500Y-70358000D03*
X144970500Y-67818000D03*
X142430500Y-67818000D03*
X144970500Y-65278000D03*
D22*
X142430500Y-65278000D03*
%TD*%
%TO.C,J18*%
G36*
G01*
X61608000Y-55956000D02*
X63358000Y-55956000D01*
G75*
G02*
X64233000Y-56831000I0J-875000D01*
G01*
X64233000Y-58581000D01*
G75*
G02*
X63358000Y-59456000I-875000J0D01*
G01*
X61608000Y-59456000D01*
G75*
G02*
X60733000Y-58581000I0J875000D01*
G01*
X60733000Y-56831000D01*
G75*
G02*
X61608000Y-55956000I875000J0D01*
G01*
G37*
G36*
G01*
X66183000Y-53206000D02*
X68183000Y-53206000D01*
G75*
G02*
X68933000Y-53956000I0J-750000D01*
G01*
X68933000Y-55456000D01*
G75*
G02*
X68183000Y-56206000I-750000J0D01*
G01*
X66183000Y-56206000D01*
G75*
G02*
X65433000Y-55456000I0J750000D01*
G01*
X65433000Y-53956000D01*
G75*
G02*
X66183000Y-53206000I750000J0D01*
G01*
G37*
D25*
X67183000Y-60706000D03*
%TD*%
D26*
%TO.C,SP1*%
X127063000Y-86193000D03*
X127063000Y-83693000D03*
X127063000Y-81193000D03*
X125063000Y-79943000D03*
X125063000Y-82443000D03*
X125063000Y-84943000D03*
X125063000Y-87443000D03*
X123063000Y-88693000D03*
X123063000Y-86193000D03*
X123063000Y-83693000D03*
X123063000Y-81193000D03*
X123063000Y-78693000D03*
X121063000Y-79943000D03*
X121063000Y-82443000D03*
X121063000Y-84943000D03*
X121063000Y-87443000D03*
X111063000Y-81193000D03*
X111063000Y-83693000D03*
X111063000Y-86193000D03*
X113063000Y-79943000D03*
X113063000Y-82443000D03*
X113063000Y-84943000D03*
X113063000Y-87443000D03*
X115063000Y-78693000D03*
X115063000Y-81193000D03*
X115063000Y-83693000D03*
X115063000Y-86193000D03*
X115063000Y-88693000D03*
X117063000Y-79943000D03*
X117063000Y-82443000D03*
X117063000Y-84943000D03*
X117063000Y-87443000D03*
X119063000Y-78693000D03*
X119063000Y-81193000D03*
X119063000Y-83693000D03*
X119063000Y-86193000D03*
X119063000Y-88693000D03*
%TD*%
D27*
%TO.C,SW11*%
X67350000Y-86487000D03*
X72350000Y-86487000D03*
X69850000Y-86487000D03*
%TD*%
D28*
%TO.C,SW10*%
X61976000Y-86066000D03*
X61976000Y-81066000D03*
X61976000Y-83566000D03*
%TD*%
D29*
%TO.C,J15*%
X66167000Y-107188000D03*
G36*
G01*
X67717000Y-111898000D02*
X64617000Y-111898000D01*
G75*
G02*
X64367000Y-111648000I0J250000D01*
G01*
X64367000Y-110348000D01*
G75*
G02*
X64617000Y-110098000I250000J0D01*
G01*
X67717000Y-110098000D01*
G75*
G02*
X67967000Y-110348000I0J-250000D01*
G01*
X67967000Y-111648000D01*
G75*
G02*
X67717000Y-111898000I-250000J0D01*
G01*
G37*
%TD*%
D27*
%TO.C,U14*%
X99822000Y-97663000D03*
X97282000Y-97663000D03*
X94742000Y-97663000D03*
X92202000Y-97663000D03*
X89662000Y-97663000D03*
X87122000Y-97663000D03*
G36*
G01*
X83782000Y-98263000D02*
X83782000Y-97063000D01*
G75*
G02*
X84182000Y-96663000I400000J0D01*
G01*
X84982000Y-96663000D01*
G75*
G02*
X85382000Y-97063000I0J-400000D01*
G01*
X85382000Y-98263000D01*
G75*
G02*
X84982000Y-98663000I-400000J0D01*
G01*
X84182000Y-98663000D01*
G75*
G02*
X83782000Y-98263000I0J400000D01*
G01*
G37*
%TD*%
D26*
%TO.C,SW5*%
X129866000Y-138531600D03*
X138866000Y-138531600D03*
%TD*%
%TO.C,SW4*%
X119000000Y-103500000D03*
X110000000Y-103500000D03*
%TD*%
%TO.C,SW3*%
X110000000Y-138500000D03*
X119000000Y-138500000D03*
%TD*%
%TO.C,SW1*%
X129750000Y-121000000D03*
X138750000Y-121000000D03*
%TD*%
D27*
%TO.C,SW9*%
X96226000Y-113157000D03*
X91226000Y-113157000D03*
X93726000Y-113157000D03*
%TD*%
D28*
%TO.C,SW8*%
X106045000Y-124674000D03*
X106045000Y-119674000D03*
X106045000Y-122174000D03*
%TD*%
D27*
%TO.C,SW7*%
X104862000Y-113157000D03*
X99862000Y-113157000D03*
X102362000Y-113157000D03*
%TD*%
D28*
%TO.C,SW6*%
X77978000Y-111339000D03*
X77978000Y-106339000D03*
X77978000Y-108839000D03*
%TD*%
D30*
%TO.C,J1*%
X53179000Y-129153000D03*
D31*
X56829000Y-127223000D03*
D30*
X53179000Y-119513000D03*
D31*
X56829000Y-121443000D03*
D32*
X57359000Y-119513000D03*
X57359000Y-129153000D03*
%TD*%
D30*
%TO.C,J8*%
X53179000Y-104713000D03*
D31*
X56829000Y-102783000D03*
D30*
X53179000Y-95073000D03*
D31*
X56829000Y-97003000D03*
D32*
X57359000Y-95073000D03*
X57359000Y-104713000D03*
%TD*%
D33*
%TO.C,J5*%
X122841000Y-102105000D03*
D34*
X124841000Y-116205000D03*
X124841000Y-113705000D03*
X124841000Y-111205000D03*
X124841000Y-108705000D03*
X124841000Y-106205000D03*
G36*
G01*
X124116000Y-102855000D02*
X125566000Y-102855000D01*
G75*
G02*
X125816000Y-103105000I0J-250000D01*
G01*
X125816000Y-104305000D01*
G75*
G02*
X125566000Y-104555000I-250000J0D01*
G01*
X124116000Y-104555000D01*
G75*
G02*
X123866000Y-104305000I0J250000D01*
G01*
X123866000Y-103105000D01*
G75*
G02*
X124116000Y-102855000I250000J0D01*
G01*
G37*
%TD*%
D33*
%TO.C,J4*%
X122841000Y-127400000D03*
D34*
X124841000Y-136500000D03*
X124841000Y-134000000D03*
X124841000Y-131500000D03*
G36*
G01*
X124116000Y-128150000D02*
X125566000Y-128150000D01*
G75*
G02*
X125816000Y-128400000I0J-250000D01*
G01*
X125816000Y-129600000D01*
G75*
G02*
X125566000Y-129850000I-250000J0D01*
G01*
X124116000Y-129850000D01*
G75*
G02*
X123866000Y-129600000I0J250000D01*
G01*
X123866000Y-128400000D01*
G75*
G02*
X124116000Y-128150000I250000J0D01*
G01*
G37*
%TD*%
D35*
%TO.C,J7*%
X66167000Y-104013000D03*
X66167000Y-114173000D03*
G36*
G01*
X75657000Y-106718000D02*
X74457000Y-106718000D01*
G75*
G02*
X74057000Y-106318000I0J400000D01*
G01*
X74057000Y-105518000D01*
G75*
G02*
X74457000Y-105118000I400000J0D01*
G01*
X75657000Y-105118000D01*
G75*
G02*
X76057000Y-105518000I0J-400000D01*
G01*
X76057000Y-106318000D01*
G75*
G02*
X75657000Y-106718000I-400000J0D01*
G01*
G37*
D28*
X72517000Y-107188000D03*
X75057000Y-108458000D03*
X72517000Y-109728000D03*
X75057000Y-110998000D03*
X72517000Y-112268000D03*
%TD*%
D36*
%TO.C,X1*%
X124500000Y-143250000D03*
X74500000Y-143250000D03*
%TD*%
%TO.C,SW2*%
G36*
G01*
X112400000Y-129500000D02*
X111600000Y-129500000D01*
G75*
G02*
X111200000Y-129100000I0J400000D01*
G01*
X111200000Y-127900000D01*
G75*
G02*
X111600000Y-127500000I400000J0D01*
G01*
X112400000Y-127500000D01*
G75*
G02*
X112800000Y-127900000I0J-400000D01*
G01*
X112800000Y-129100000D01*
G75*
G02*
X112400000Y-129500000I-400000J0D01*
G01*
G37*
D27*
X114500000Y-128500000D03*
X117000000Y-128500000D03*
D37*
X108900000Y-121000000D03*
X120100000Y-121000000D03*
D27*
X112000000Y-114000000D03*
X117000000Y-114000000D03*
%TD*%
D38*
%TO.C,RV1*%
X103400000Y-82500000D03*
X94600000Y-82500000D03*
D15*
X101500000Y-89500000D03*
X99000000Y-89500000D03*
X96500000Y-89500000D03*
%TD*%
D39*
%TO.C,J14*%
X100175000Y-52000000D03*
X105825000Y-52000000D03*
%TD*%
D40*
%TO.C,J11*%
X57023000Y-86233000D03*
X57023000Y-83693000D03*
D41*
X57023000Y-81153000D03*
%TD*%
D40*
%TO.C,J10*%
X57023000Y-77089000D03*
X57023000Y-74549000D03*
D41*
X57023000Y-72009000D03*
%TD*%
D21*
%TO.C,J9*%
X55372000Y-60706000D03*
X55372000Y-63246000D03*
X55372000Y-65786000D03*
D22*
X55372000Y-68326000D03*
%TD*%
D33*
%TO.C,J6*%
X55000000Y-106900000D03*
D34*
X57000000Y-116000000D03*
X57000000Y-113500000D03*
X57000000Y-111000000D03*
G36*
G01*
X56275000Y-107650000D02*
X57725000Y-107650000D01*
G75*
G02*
X57975000Y-107900000I0J-250000D01*
G01*
X57975000Y-109100000D01*
G75*
G02*
X57725000Y-109350000I-250000J0D01*
G01*
X56275000Y-109350000D01*
G75*
G02*
X56025000Y-109100000I0J250000D01*
G01*
X56025000Y-107900000D01*
G75*
G02*
X56275000Y-107650000I250000J0D01*
G01*
G37*
%TD*%
D33*
%TO.C,J3*%
X55404000Y-131400000D03*
D34*
X57404000Y-143000000D03*
D21*
X57404000Y-140500000D03*
X57404000Y-138000000D03*
D34*
X57404000Y-135500000D03*
G36*
G01*
X56679000Y-132150000D02*
X58129000Y-132150000D01*
G75*
G02*
X58379000Y-132400000I0J-250000D01*
G01*
X58379000Y-133600000D01*
G75*
G02*
X58129000Y-133850000I-250000J0D01*
G01*
X56679000Y-133850000D01*
G75*
G02*
X56429000Y-133600000I0J250000D01*
G01*
X56429000Y-132400000D01*
G75*
G02*
X56679000Y-132150000I250000J0D01*
G01*
G37*
%TD*%
D21*
%TO.C,J2*%
X55000000Y-92500000D03*
X55000000Y-89960000D03*
X57540000Y-92500000D03*
X57540000Y-89960000D03*
X60080000Y-92500000D03*
D22*
X60080000Y-89960000D03*
%TD*%
D42*
%TO.C,GSM_Module1*%
X92583000Y-55700000D03*
X114083000Y-58000000D03*
X92583000Y-58240000D03*
X92583000Y-60780000D03*
X92583000Y-63320000D03*
X92583000Y-65860000D03*
X92583000Y-68400000D03*
X114083000Y-60540000D03*
X114083000Y-63080000D03*
X114083000Y-65620000D03*
X114083000Y-68160000D03*
X114083000Y-70700000D03*
%TD*%
D24*
%TO.C,C27*%
X88519000Y-58039000D03*
D43*
X85019000Y-58039000D03*
%TD*%
M02*
