M48
; DRILL file {KiCad (5.1.8)-1} date 09/05/21 00:40:39
; FORMAT={-:-/ absolute / metric / decimal}
; #@! TF.CreationDate,2021-09-05T00:40:39+02:00
; #@! TF.GenerationSoftware,Kicad,Pcbnew,(5.1.8)-1
FMAT,2
METRIC
T1C0.300
T2C0.400
T3C0.600
T4C0.750
T5C0.800
T6C0.900
T7C0.950
T8C1.000
T9C1.020
T10C1.100
T11C1.500
T12C1.600
T13C3.500
T14C0.650
T15C1.200
T16C2.000
T17C3.200
T18C3.400
T19C3.500
%
G90
G05
T1
X62.954Y-122.825
X62.954Y-123.825
X62.954Y-124.825
X64.454Y-122.825
X64.454Y-123.825
X64.454Y-124.825
T2
X55.245Y-84.963
X56.769Y-125.095
X59.116Y-60.833
X59.944Y-99.695
X60.96Y-99.695
X61.204Y-121.825
X61.976Y-99.695
X62.865Y-129.397
X65.421Y-129.921
X65.979Y-101.854
X66.23Y-77.216
X67.39Y-122.221
X67.897Y-135.618
X67.94Y-123.08
X68.707Y-136.271
X69.342Y-96.075
X69.406Y-97.091
X72.007Y-134.895
X72.593Y-133.945
X73.152Y-135.89
X74.422Y-135.89
X76.357Y-134.904
X78.581Y-104.997
X78.724Y-111.821
X78.74Y-133.945
X79.248Y-135.89
X79.439Y-108.331
X80.264Y-116.332
X82.804Y-130.302
X82.847Y-125.814
X84.201Y-85.725
X84.201Y-99.822
X84.201Y-102.108
X84.455Y-116.332
X84.455Y-116.332
X85.026Y-107.315
X85.026Y-113.093
X85.09Y-86.487
X85.217Y-122.809
X85.25Y-117.685
X85.25Y-129.115
X86.8Y-133.096
X87.667Y-64.44
X88.549Y-100.203
X88.9Y-95.25
X90.17Y-107.378
X90.583Y-77.216
X91.567Y-53.34
X91.567Y-113.093
X91.63Y-107.315
X92.71Y-86.741
X92.71Y-95.25
X93.248Y-100.203
X93.472Y-70.739
X93.493Y-71.743
X95.377Y-64.0
X96.012Y-95.25
X98.425Y-108.712
X98.482Y-107.475
X99.187Y-64.135
X101.346Y-66.04
X102.235Y-118.999
X102.25Y-126.575
X102.279Y-131.655
X102.44Y-101.043
X103.866Y-100.253
X104.394Y-126.555
X104.822Y-91.45
X105.918Y-126.555
X105.918Y-128.156
X105.918Y-129.731
X106.299Y-64.135
X106.299Y-66.04
X106.299Y-68.072
X108.585Y-126.619
X109.474Y-124.714
X110.045Y-113.792
X112.0Y-96.35
X112.0Y-110.65
X112.0Y-131.35
X113.284Y-127.254
X119.761Y-92.202
X126.873Y-99.949
X128.842Y-111.76
X129.921Y-105.155
X131.75Y-113.85
X132.08Y-107.823
X132.334Y-109.982
X132.39Y-103.515
X135.636Y-118.364
X136.75Y-113.85
X136.75Y-128.15
X138.684Y-102.108
X138.811Y-118.364
X139.065Y-109.982
X139.319Y-103.505
X141.732Y-140.97
X145.669Y-141.859
X145.669Y-145.225
T4
X123.19Y-69.596
X124.46Y-68.326
X124.46Y-70.866
X124.48Y-123.27
X125.75Y-122.0
X125.75Y-124.54
X118.745Y-68.326
X118.745Y-70.866
X120.015Y-69.596
T5
X64.135Y-99.06
X88.773Y-119.507
X88.773Y-121.666
X88.773Y-123.825
X88.773Y-126.873
X88.773Y-129.159
X91.186Y-119.507
X91.186Y-121.666
X91.186Y-123.825
X91.186Y-126.873
X91.186Y-129.159
X93.726Y-119.507
X93.726Y-121.666
X96.266Y-119.507
X96.266Y-121.666
X98.679Y-119.507
X98.679Y-121.666
X98.679Y-123.825
X98.679Y-126.873
X98.679Y-129.159
X132.8Y-54.76
X132.8Y-57.3
X132.8Y-59.84
X132.8Y-62.38
X145.5Y-54.76
X145.5Y-57.3
X145.5Y-59.84
X145.5Y-62.38
X85.019Y-58.039
X88.519Y-58.039
T6
X92.583Y-55.7
X92.583Y-58.24
X92.583Y-60.78
X92.583Y-63.32
X92.583Y-65.86
X92.583Y-68.4
X114.083Y-58.0
X114.083Y-60.54
X114.083Y-63.08
X114.083Y-65.62
X114.083Y-68.16
X114.083Y-70.7
X60.96Y-110.236
X60.96Y-112.776
X60.96Y-115.316
X63.5Y-108.966
X63.5Y-111.506
X63.5Y-114.046
T7
X124.841Y-103.705
X124.841Y-106.205
X124.841Y-108.705
X124.841Y-111.205
X124.841Y-113.705
X124.841Y-116.205
X57.404Y-133.0
X57.404Y-135.5
X57.404Y-138.0
X57.404Y-140.5
X57.404Y-143.0
X57.0Y-108.5
X57.0Y-111.0
X57.0Y-113.5
X57.0Y-116.0
X124.841Y-129.0
X124.841Y-131.5
X124.841Y-134.0
X124.841Y-136.5
T8
X61.976Y-81.026
X61.976Y-83.566
X61.976Y-86.106
X135.128Y-72.136
X137.668Y-72.136
X140.208Y-72.136
X142.748Y-72.136
X145.288Y-72.136
X81.026Y-51.816
X83.566Y-51.816
X86.106Y-51.816
X88.646Y-51.816
X70.485Y-102.743
X73.025Y-102.743
X112.0Y-114.0
X112.0Y-128.5
X114.5Y-128.5
X117.0Y-114.0
X117.0Y-128.5
X84.582Y-97.663
X87.122Y-97.663
X89.662Y-97.663
X92.202Y-97.663
X94.742Y-97.663
X97.282Y-97.663
X99.822Y-97.663
X96.5Y-89.5
X99.0Y-89.5
X101.5Y-89.5
X98.552Y-104.267
X98.552Y-111.887
X101.092Y-104.267
X101.092Y-111.887
X103.632Y-104.267
X103.632Y-111.887
X142.46Y-77.29
X142.46Y-79.83
X142.46Y-82.37
X142.46Y-84.91
X142.46Y-87.45
X142.46Y-89.99
X142.46Y-92.53
X142.46Y-95.07
X142.46Y-97.61
X142.46Y-100.15
X142.46Y-102.69
X142.46Y-105.23
X142.46Y-107.77
X142.46Y-110.31
X142.46Y-112.85
X142.46Y-115.39
X142.46Y-117.93
X142.46Y-120.47
X142.46Y-123.01
X142.46Y-125.55
X142.46Y-128.09
X142.46Y-130.63
X142.46Y-133.17
X142.46Y-135.71
X142.46Y-138.25
X145.0Y-77.29
X145.0Y-79.83
X145.0Y-82.37
X145.0Y-84.91
X145.0Y-87.45
X145.0Y-89.99
X145.0Y-92.53
X145.0Y-95.07
X145.0Y-97.61
X145.0Y-100.15
X145.0Y-102.69
X145.0Y-105.23
X145.0Y-107.77
X145.0Y-110.31
X145.0Y-112.85
X145.0Y-115.39
X145.0Y-117.93
X145.0Y-120.47
X145.0Y-123.01
X145.0Y-125.55
X145.0Y-128.09
X145.0Y-130.63
X145.0Y-133.17
X145.0Y-135.71
X145.0Y-138.25
X97.46Y-73.096
X100.0Y-73.096
X102.54Y-73.096
X122.682Y-96.266
X122.682Y-98.806
X55.0Y-89.96
X55.0Y-92.5
X57.54Y-89.96
X57.54Y-92.5
X60.08Y-89.96
X60.08Y-92.5
X55.372Y-60.706
X55.372Y-63.246
X55.372Y-65.786
X55.372Y-68.326
T9
X57.023Y-81.153
X57.023Y-83.693
X57.023Y-86.233
X57.023Y-72.39
X57.023Y-74.93
X57.023Y-77.47
T10
X84.201Y-89.789
X84.201Y-92.329
X84.201Y-94.869
T12
X59.182Y-68.453
X138.582Y-68.453
T14
X56.829Y-97.003
X56.829Y-102.783
X56.829Y-121.443
X56.829Y-127.223
T15
X122.841Y-102.105
X55.404Y-131.4
X55.0Y-106.9
X122.841Y-127.4
T16
X129.75Y-121.0
X138.75Y-121.0
X110.0Y-138.5
X119.0Y-138.5
X111.063Y-81.193
X111.063Y-83.693
X111.063Y-86.193
X113.063Y-79.943
X113.063Y-82.443
X113.063Y-84.943
X113.063Y-87.443
X115.063Y-78.693
X115.063Y-81.193
X115.063Y-83.693
X115.063Y-86.193
X115.063Y-88.693
X117.063Y-79.943
X117.063Y-82.443
X117.063Y-84.943
X117.063Y-87.443
X119.063Y-78.693
X119.063Y-81.193
X119.063Y-83.693
X119.063Y-86.193
X119.063Y-88.693
X121.063Y-79.943
X121.063Y-82.443
X121.063Y-84.943
X121.063Y-87.443
X123.063Y-78.693
X123.063Y-81.193
X123.063Y-83.693
X123.063Y-86.193
X123.063Y-88.693
X125.063Y-79.943
X125.063Y-82.443
X125.063Y-84.943
X125.063Y-87.443
X127.063Y-81.193
X127.063Y-83.693
X127.063Y-86.193
X94.6Y-82.5
X103.4Y-82.5
X129.866Y-138.532
X138.866Y-138.532
X110.0Y-103.5
X119.0Y-103.5
T17
X69.85Y-107.061
X69.85Y-117.221
T18
X74.5Y-143.25
X124.5Y-143.25
T19
X67.541Y-92.329
T3
X53.479Y-95.573G85X52.879Y-95.573
G05
X53.479Y-104.213G85X52.879Y-104.213
G05
X57.909Y-95.573G85X56.809Y-95.573
G05
X57.909Y-104.213G85X56.809Y-104.213
G05
X53.479Y-120.013G85X52.879Y-120.013
G05
X53.479Y-128.653G85X52.879Y-128.653
G05
X57.909Y-120.013G85X56.809Y-120.013
G05
X57.909Y-128.653G85X56.809Y-128.653
G05
T11
X108.9Y-121.65G85X108.9Y-120.35
G05
X120.1Y-121.65G85X120.1Y-120.35
G05
T13
X75.882Y-58.453G85X77.882Y-58.453
G05
X119.882Y-58.453G85X121.882Y-58.453
G05
T0
M30
