%TF.GenerationSoftware,KiCad,Pcbnew,(5.1.8)-1*%
%TF.CreationDate,2021-09-05T00:40:36+02:00*%
%TF.ProjectId,pcbV10,70636256-3130-42e6-9b69-6361645f7063,rev?*%
%TF.SameCoordinates,Original*%
%TF.FileFunction,Soldermask,Top*%
%TF.FilePolarity,Negative*%
%FSLAX46Y46*%
G04 Gerber Fmt 4.6, Leading zero omitted, Abs format (unit mm)*
G04 Created by KiCad (PCBNEW (5.1.8)-1) date 2021-09-05 00:40:36*
%MOMM*%
%LPD*%
G01*
G04 APERTURE LIST*
%ADD10R,0.600000X0.400000*%
%ADD11R,1.100000X2.200000*%
%ADD12R,0.350000X0.500000*%
%ADD13O,1.600000X2.000000*%
%ADD14R,1.000000X1.500000*%
%ADD15C,0.100000*%
%ADD16C,1.200000*%
%ADD17O,1.950000X1.700000*%
%ADD18C,2.000000*%
%ADD19R,1.500000X2.000000*%
%ADD20C,3.200000*%
%ADD21O,2.000000X1.600000*%
%ADD22C,3.600000*%
%ADD23O,9.500000X7.500000*%
%ADD24R,1.500000X1.000000*%
%ADD25R,0.800000X0.900000*%
%ADD26R,3.000000X3.000000*%
%ADD27R,1.100000X0.510000*%
%ADD28R,1.800000X0.800000*%
%ADD29C,3.400000*%
%ADD30R,2.000000X1.000000*%
%ADD31O,1.800000X2.200000*%
%ADD32R,1.800000X1.100000*%
%ADD33C,1.800000*%
%ADD34O,1.700000X2.200000*%
%ADD35O,2.400000X1.600000*%
%ADD36R,2.400000X1.600000*%
%ADD37R,2.000000X0.900000*%
%ADD38R,0.900000X2.000000*%
%ADD39R,5.000000X5.000000*%
%ADD40R,2.000000X1.500000*%
%ADD41R,2.000000X3.800000*%
%ADD42R,2.000000X3.200000*%
%ADD43C,4.000000*%
%ADD44R,0.900000X0.800000*%
%ADD45O,2.000000X1.905000*%
%ADD46R,2.000000X1.905000*%
%ADD47O,3.500000X3.500000*%
%ADD48O,1.700000X1.700000*%
%ADD49R,1.700000X1.700000*%
%ADD50R,1.270000X3.600000*%
%ADD51R,1.350000X4.200000*%
%ADD52O,2.030000X1.730000*%
%ADD53R,2.030000X1.730000*%
%ADD54R,1.450000X0.600000*%
%ADD55R,1.450000X0.300000*%
%ADD56O,2.100000X1.000000*%
%ADD57C,0.650000*%
%ADD58O,1.600000X1.000000*%
%ADD59O,2.200000X1.700000*%
%ADD60R,1.300000X1.700000*%
%ADD61R,1.250000X2.200000*%
%ADD62R,2.200000X2.200000*%
%ADD63R,1.200000X0.900000*%
%ADD64C,1.600000*%
%ADD65R,1.600000X1.600000*%
G04 APERTURE END LIST*
D10*
%TO.C,U20*%
X66475000Y-136913000D03*
X64375000Y-137513000D03*
X64375000Y-136913000D03*
X64375000Y-136313000D03*
X64375000Y-135713000D03*
X64375000Y-138113000D03*
X66475000Y-136313000D03*
X66475000Y-135713000D03*
X66475000Y-137513000D03*
X66475000Y-138113000D03*
D11*
X65425000Y-137063000D03*
%TD*%
%TO.C,C30*%
G36*
G01*
X68068000Y-137851000D02*
X67568000Y-137851000D01*
G75*
G02*
X67343000Y-137626000I0J225000D01*
G01*
X67343000Y-137176000D01*
G75*
G02*
X67568000Y-136951000I225000J0D01*
G01*
X68068000Y-136951000D01*
G75*
G02*
X68293000Y-137176000I0J-225000D01*
G01*
X68293000Y-137626000D01*
G75*
G02*
X68068000Y-137851000I-225000J0D01*
G01*
G37*
G36*
G01*
X68068000Y-139401000D02*
X67568000Y-139401000D01*
G75*
G02*
X67343000Y-139176000I0J225000D01*
G01*
X67343000Y-138726000D01*
G75*
G02*
X67568000Y-138501000I225000J0D01*
G01*
X68068000Y-138501000D01*
G75*
G02*
X68293000Y-138726000I0J-225000D01*
G01*
X68293000Y-139176000D01*
G75*
G02*
X68068000Y-139401000I-225000J0D01*
G01*
G37*
%TD*%
%TO.C,C20*%
G36*
G01*
X105668000Y-127706000D02*
X106168000Y-127706000D01*
G75*
G02*
X106393000Y-127931000I0J-225000D01*
G01*
X106393000Y-128381000D01*
G75*
G02*
X106168000Y-128606000I-225000J0D01*
G01*
X105668000Y-128606000D01*
G75*
G02*
X105443000Y-128381000I0J225000D01*
G01*
X105443000Y-127931000D01*
G75*
G02*
X105668000Y-127706000I225000J0D01*
G01*
G37*
G36*
G01*
X105668000Y-126156000D02*
X106168000Y-126156000D01*
G75*
G02*
X106393000Y-126381000I0J-225000D01*
G01*
X106393000Y-126831000D01*
G75*
G02*
X106168000Y-127056000I-225000J0D01*
G01*
X105668000Y-127056000D01*
G75*
G02*
X105443000Y-126831000I0J225000D01*
G01*
X105443000Y-126381000D01*
G75*
G02*
X105668000Y-126156000I225000J0D01*
G01*
G37*
%TD*%
%TO.C,R21*%
G36*
G01*
X107779000Y-127868000D02*
X107779000Y-128418000D01*
G75*
G02*
X107579000Y-128618000I-200000J0D01*
G01*
X107179000Y-128618000D01*
G75*
G02*
X106979000Y-128418000I0J200000D01*
G01*
X106979000Y-127868000D01*
G75*
G02*
X107179000Y-127668000I200000J0D01*
G01*
X107579000Y-127668000D01*
G75*
G02*
X107779000Y-127868000I0J-200000D01*
G01*
G37*
G36*
G01*
X109429000Y-127868000D02*
X109429000Y-128418000D01*
G75*
G02*
X109229000Y-128618000I-200000J0D01*
G01*
X108829000Y-128618000D01*
G75*
G02*
X108629000Y-128418000I0J200000D01*
G01*
X108629000Y-127868000D01*
G75*
G02*
X108829000Y-127668000I200000J0D01*
G01*
X109229000Y-127668000D01*
G75*
G02*
X109429000Y-127868000I0J-200000D01*
G01*
G37*
%TD*%
D12*
%TO.C,U19*%
X72222000Y-135899000D03*
X71572000Y-135899000D03*
X70922000Y-135899000D03*
X70272000Y-135899000D03*
X70272000Y-133849000D03*
X70922000Y-133849000D03*
X71572000Y-133849000D03*
X72222000Y-133849000D03*
%TD*%
D13*
%TO.C,U5*%
X98552000Y-104067000D03*
X101092000Y-104067000D03*
X103632000Y-104067000D03*
X103632000Y-112087000D03*
X101092000Y-112087000D03*
G36*
G01*
X98952000Y-113087000D02*
X98152000Y-113087000D01*
G75*
G02*
X97752000Y-112687000I0J400000D01*
G01*
X97752000Y-111487000D01*
G75*
G02*
X98152000Y-111087000I400000J0D01*
G01*
X98952000Y-111087000D01*
G75*
G02*
X99352000Y-111487000I0J-400000D01*
G01*
X99352000Y-112687000D01*
G75*
G02*
X98952000Y-113087000I-400000J0D01*
G01*
G37*
%TD*%
D14*
%TO.C,JP3*%
X87249000Y-100203000D03*
D15*
G36*
X85949000Y-100952398D02*
G01*
X85924466Y-100952398D01*
X85875635Y-100947588D01*
X85827510Y-100938016D01*
X85780555Y-100923772D01*
X85735222Y-100904995D01*
X85691949Y-100881864D01*
X85651150Y-100854604D01*
X85613221Y-100823476D01*
X85578524Y-100788779D01*
X85547396Y-100750850D01*
X85520136Y-100710051D01*
X85497005Y-100666778D01*
X85478228Y-100621445D01*
X85463984Y-100574490D01*
X85454412Y-100526365D01*
X85449602Y-100477534D01*
X85449602Y-100453000D01*
X85449000Y-100453000D01*
X85449000Y-99953000D01*
X85449602Y-99953000D01*
X85449602Y-99928466D01*
X85454412Y-99879635D01*
X85463984Y-99831510D01*
X85478228Y-99784555D01*
X85497005Y-99739222D01*
X85520136Y-99695949D01*
X85547396Y-99655150D01*
X85578524Y-99617221D01*
X85613221Y-99582524D01*
X85651150Y-99551396D01*
X85691949Y-99524136D01*
X85735222Y-99501005D01*
X85780555Y-99482228D01*
X85827510Y-99467984D01*
X85875635Y-99458412D01*
X85924466Y-99453602D01*
X85949000Y-99453602D01*
X85949000Y-99453000D01*
X86499000Y-99453000D01*
X86499000Y-100953000D01*
X85949000Y-100953000D01*
X85949000Y-100952398D01*
G37*
G36*
X87999000Y-99453000D02*
G01*
X88549000Y-99453000D01*
X88549000Y-99453602D01*
X88573534Y-99453602D01*
X88622365Y-99458412D01*
X88670490Y-99467984D01*
X88717445Y-99482228D01*
X88762778Y-99501005D01*
X88806051Y-99524136D01*
X88846850Y-99551396D01*
X88884779Y-99582524D01*
X88919476Y-99617221D01*
X88950604Y-99655150D01*
X88977864Y-99695949D01*
X89000995Y-99739222D01*
X89019772Y-99784555D01*
X89034016Y-99831510D01*
X89043588Y-99879635D01*
X89048398Y-99928466D01*
X89048398Y-99953000D01*
X89049000Y-99953000D01*
X89049000Y-100453000D01*
X89048398Y-100453000D01*
X89048398Y-100477534D01*
X89043588Y-100526365D01*
X89034016Y-100574490D01*
X89019772Y-100621445D01*
X89000995Y-100666778D01*
X88977864Y-100710051D01*
X88950604Y-100750850D01*
X88919476Y-100788779D01*
X88884779Y-100823476D01*
X88846850Y-100854604D01*
X88806051Y-100881864D01*
X88762778Y-100904995D01*
X88717445Y-100923772D01*
X88670490Y-100938016D01*
X88622365Y-100947588D01*
X88573534Y-100952398D01*
X88549000Y-100952398D01*
X88549000Y-100953000D01*
X87999000Y-100953000D01*
X87999000Y-99453000D01*
G37*
%TD*%
D14*
%TO.C,JP4*%
X91948000Y-100203000D03*
D15*
G36*
X90648000Y-100952398D02*
G01*
X90623466Y-100952398D01*
X90574635Y-100947588D01*
X90526510Y-100938016D01*
X90479555Y-100923772D01*
X90434222Y-100904995D01*
X90390949Y-100881864D01*
X90350150Y-100854604D01*
X90312221Y-100823476D01*
X90277524Y-100788779D01*
X90246396Y-100750850D01*
X90219136Y-100710051D01*
X90196005Y-100666778D01*
X90177228Y-100621445D01*
X90162984Y-100574490D01*
X90153412Y-100526365D01*
X90148602Y-100477534D01*
X90148602Y-100453000D01*
X90148000Y-100453000D01*
X90148000Y-99953000D01*
X90148602Y-99953000D01*
X90148602Y-99928466D01*
X90153412Y-99879635D01*
X90162984Y-99831510D01*
X90177228Y-99784555D01*
X90196005Y-99739222D01*
X90219136Y-99695949D01*
X90246396Y-99655150D01*
X90277524Y-99617221D01*
X90312221Y-99582524D01*
X90350150Y-99551396D01*
X90390949Y-99524136D01*
X90434222Y-99501005D01*
X90479555Y-99482228D01*
X90526510Y-99467984D01*
X90574635Y-99458412D01*
X90623466Y-99453602D01*
X90648000Y-99453602D01*
X90648000Y-99453000D01*
X91198000Y-99453000D01*
X91198000Y-100953000D01*
X90648000Y-100953000D01*
X90648000Y-100952398D01*
G37*
G36*
X92698000Y-99453000D02*
G01*
X93248000Y-99453000D01*
X93248000Y-99453602D01*
X93272534Y-99453602D01*
X93321365Y-99458412D01*
X93369490Y-99467984D01*
X93416445Y-99482228D01*
X93461778Y-99501005D01*
X93505051Y-99524136D01*
X93545850Y-99551396D01*
X93583779Y-99582524D01*
X93618476Y-99617221D01*
X93649604Y-99655150D01*
X93676864Y-99695949D01*
X93699995Y-99739222D01*
X93718772Y-99784555D01*
X93733016Y-99831510D01*
X93742588Y-99879635D01*
X93747398Y-99928466D01*
X93747398Y-99953000D01*
X93748000Y-99953000D01*
X93748000Y-100453000D01*
X93747398Y-100453000D01*
X93747398Y-100477534D01*
X93742588Y-100526365D01*
X93733016Y-100574490D01*
X93718772Y-100621445D01*
X93699995Y-100666778D01*
X93676864Y-100710051D01*
X93649604Y-100750850D01*
X93618476Y-100788779D01*
X93583779Y-100823476D01*
X93545850Y-100854604D01*
X93505051Y-100881864D01*
X93461778Y-100904995D01*
X93416445Y-100923772D01*
X93369490Y-100938016D01*
X93321365Y-100947588D01*
X93272534Y-100952398D01*
X93248000Y-100952398D01*
X93248000Y-100953000D01*
X92698000Y-100953000D01*
X92698000Y-99453000D01*
G37*
%TD*%
%TO.C,R1*%
G36*
G01*
X104119000Y-131489000D02*
X104669000Y-131489000D01*
G75*
G02*
X104869000Y-131689000I0J-200000D01*
G01*
X104869000Y-132089000D01*
G75*
G02*
X104669000Y-132289000I-200000J0D01*
G01*
X104119000Y-132289000D01*
G75*
G02*
X103919000Y-132089000I0J200000D01*
G01*
X103919000Y-131689000D01*
G75*
G02*
X104119000Y-131489000I200000J0D01*
G01*
G37*
G36*
G01*
X104119000Y-129839000D02*
X104669000Y-129839000D01*
G75*
G02*
X104869000Y-130039000I0J-200000D01*
G01*
X104869000Y-130439000D01*
G75*
G02*
X104669000Y-130639000I-200000J0D01*
G01*
X104119000Y-130639000D01*
G75*
G02*
X103919000Y-130439000I0J200000D01*
G01*
X103919000Y-130039000D01*
G75*
G02*
X104119000Y-129839000I200000J0D01*
G01*
G37*
%TD*%
D16*
%TO.C,J5*%
X122841000Y-102105000D03*
D17*
X124841000Y-116205000D03*
X124841000Y-113705000D03*
X124841000Y-111205000D03*
X124841000Y-108705000D03*
X124841000Y-106205000D03*
G36*
G01*
X124116000Y-102855000D02*
X125566000Y-102855000D01*
G75*
G02*
X125816000Y-103105000I0J-250000D01*
G01*
X125816000Y-104305000D01*
G75*
G02*
X125566000Y-104555000I-250000J0D01*
G01*
X124116000Y-104555000D01*
G75*
G02*
X123866000Y-104305000I0J250000D01*
G01*
X123866000Y-103105000D01*
G75*
G02*
X124116000Y-102855000I250000J0D01*
G01*
G37*
%TD*%
%TO.C,R11*%
G36*
G01*
X77299000Y-113263000D02*
X77299000Y-113813000D01*
G75*
G02*
X77099000Y-114013000I-200000J0D01*
G01*
X76699000Y-114013000D01*
G75*
G02*
X76499000Y-113813000I0J200000D01*
G01*
X76499000Y-113263000D01*
G75*
G02*
X76699000Y-113063000I200000J0D01*
G01*
X77099000Y-113063000D01*
G75*
G02*
X77299000Y-113263000I0J-200000D01*
G01*
G37*
G36*
G01*
X78949000Y-113263000D02*
X78949000Y-113813000D01*
G75*
G02*
X78749000Y-114013000I-200000J0D01*
G01*
X78349000Y-114013000D01*
G75*
G02*
X78149000Y-113813000I0J200000D01*
G01*
X78149000Y-113263000D01*
G75*
G02*
X78349000Y-113063000I200000J0D01*
G01*
X78749000Y-113063000D01*
G75*
G02*
X78949000Y-113263000I0J-200000D01*
G01*
G37*
%TD*%
%TO.C,C12*%
G36*
G01*
X96770000Y-110432000D02*
X96270000Y-110432000D01*
G75*
G02*
X96045000Y-110207000I0J225000D01*
G01*
X96045000Y-109757000D01*
G75*
G02*
X96270000Y-109532000I225000J0D01*
G01*
X96770000Y-109532000D01*
G75*
G02*
X96995000Y-109757000I0J-225000D01*
G01*
X96995000Y-110207000D01*
G75*
G02*
X96770000Y-110432000I-225000J0D01*
G01*
G37*
G36*
G01*
X96770000Y-111982000D02*
X96270000Y-111982000D01*
G75*
G02*
X96045000Y-111757000I0J225000D01*
G01*
X96045000Y-111307000D01*
G75*
G02*
X96270000Y-111082000I225000J0D01*
G01*
X96770000Y-111082000D01*
G75*
G02*
X96995000Y-111307000I0J-225000D01*
G01*
X96995000Y-111757000D01*
G75*
G02*
X96770000Y-111982000I-225000J0D01*
G01*
G37*
%TD*%
D16*
%TO.C,J4*%
X122841000Y-127400000D03*
D17*
X124841000Y-136500000D03*
X124841000Y-134000000D03*
X124841000Y-131500000D03*
G36*
G01*
X124116000Y-128150000D02*
X125566000Y-128150000D01*
G75*
G02*
X125816000Y-128400000I0J-250000D01*
G01*
X125816000Y-129600000D01*
G75*
G02*
X125566000Y-129850000I-250000J0D01*
G01*
X124116000Y-129850000D01*
G75*
G02*
X123866000Y-129600000I0J250000D01*
G01*
X123866000Y-128400000D01*
G75*
G02*
X124116000Y-128150000I250000J0D01*
G01*
G37*
%TD*%
D18*
%TO.C,SW5*%
X129866000Y-138531600D03*
X138866000Y-138531600D03*
D19*
X131866000Y-131381600D03*
X131866000Y-145681600D03*
X136866000Y-145681600D03*
X136866000Y-131381600D03*
%TD*%
D20*
%TO.C,J7*%
X69850000Y-117221000D03*
X69850000Y-107061000D03*
G36*
G01*
X60360000Y-114516000D02*
X61560000Y-114516000D01*
G75*
G02*
X61960000Y-114916000I0J-400000D01*
G01*
X61960000Y-115716000D01*
G75*
G02*
X61560000Y-116116000I-400000J0D01*
G01*
X60360000Y-116116000D01*
G75*
G02*
X59960000Y-115716000I0J400000D01*
G01*
X59960000Y-114916000D01*
G75*
G02*
X60360000Y-114516000I400000J0D01*
G01*
G37*
D21*
X63500000Y-114046000D03*
X60960000Y-112776000D03*
X63500000Y-111506000D03*
X60960000Y-110236000D03*
X63500000Y-108966000D03*
%TD*%
%TO.C,R40*%
G36*
G01*
X62844000Y-138601000D02*
X63394000Y-138601000D01*
G75*
G02*
X63594000Y-138801000I0J-200000D01*
G01*
X63594000Y-139201000D01*
G75*
G02*
X63394000Y-139401000I-200000J0D01*
G01*
X62844000Y-139401000D01*
G75*
G02*
X62644000Y-139201000I0J200000D01*
G01*
X62644000Y-138801000D01*
G75*
G02*
X62844000Y-138601000I200000J0D01*
G01*
G37*
G36*
G01*
X62844000Y-136951000D02*
X63394000Y-136951000D01*
G75*
G02*
X63594000Y-137151000I0J-200000D01*
G01*
X63594000Y-137551000D01*
G75*
G02*
X63394000Y-137751000I-200000J0D01*
G01*
X62844000Y-137751000D01*
G75*
G02*
X62644000Y-137551000I0J200000D01*
G01*
X62644000Y-137151000D01*
G75*
G02*
X62844000Y-136951000I200000J0D01*
G01*
G37*
%TD*%
%TO.C,C29*%
G36*
G01*
X70735000Y-137724000D02*
X70235000Y-137724000D01*
G75*
G02*
X70010000Y-137499000I0J225000D01*
G01*
X70010000Y-137049000D01*
G75*
G02*
X70235000Y-136824000I225000J0D01*
G01*
X70735000Y-136824000D01*
G75*
G02*
X70960000Y-137049000I0J-225000D01*
G01*
X70960000Y-137499000D01*
G75*
G02*
X70735000Y-137724000I-225000J0D01*
G01*
G37*
G36*
G01*
X70735000Y-139274000D02*
X70235000Y-139274000D01*
G75*
G02*
X70010000Y-139049000I0J225000D01*
G01*
X70010000Y-138599000D01*
G75*
G02*
X70235000Y-138374000I225000J0D01*
G01*
X70735000Y-138374000D01*
G75*
G02*
X70960000Y-138599000I0J-225000D01*
G01*
X70960000Y-139049000D01*
G75*
G02*
X70735000Y-139274000I-225000J0D01*
G01*
G37*
%TD*%
%TO.C,C28*%
G36*
G01*
X72259000Y-137724000D02*
X71759000Y-137724000D01*
G75*
G02*
X71534000Y-137499000I0J225000D01*
G01*
X71534000Y-137049000D01*
G75*
G02*
X71759000Y-136824000I225000J0D01*
G01*
X72259000Y-136824000D01*
G75*
G02*
X72484000Y-137049000I0J-225000D01*
G01*
X72484000Y-137499000D01*
G75*
G02*
X72259000Y-137724000I-225000J0D01*
G01*
G37*
G36*
G01*
X72259000Y-139274000D02*
X71759000Y-139274000D01*
G75*
G02*
X71534000Y-139049000I0J225000D01*
G01*
X71534000Y-138599000D01*
G75*
G02*
X71759000Y-138374000I225000J0D01*
G01*
X72259000Y-138374000D01*
G75*
G02*
X72484000Y-138599000I0J-225000D01*
G01*
X72484000Y-139049000D01*
G75*
G02*
X72259000Y-139274000I-225000J0D01*
G01*
G37*
%TD*%
D22*
%TO.C,R18*%
X138582000Y-68453000D03*
X59182000Y-68453000D03*
D23*
X76882000Y-58453000D03*
X120882000Y-58453000D03*
%TD*%
%TO.C,C9*%
G36*
G01*
X75823000Y-128468000D02*
X76323000Y-128468000D01*
G75*
G02*
X76548000Y-128693000I0J-225000D01*
G01*
X76548000Y-129143000D01*
G75*
G02*
X76323000Y-129368000I-225000J0D01*
G01*
X75823000Y-129368000D01*
G75*
G02*
X75598000Y-129143000I0J225000D01*
G01*
X75598000Y-128693000D01*
G75*
G02*
X75823000Y-128468000I225000J0D01*
G01*
G37*
G36*
G01*
X75823000Y-126918000D02*
X76323000Y-126918000D01*
G75*
G02*
X76548000Y-127143000I0J-225000D01*
G01*
X76548000Y-127593000D01*
G75*
G02*
X76323000Y-127818000I-225000J0D01*
G01*
X75823000Y-127818000D01*
G75*
G02*
X75598000Y-127593000I0J225000D01*
G01*
X75598000Y-127143000D01*
G75*
G02*
X75823000Y-126918000I225000J0D01*
G01*
G37*
%TD*%
%TO.C,C3*%
G36*
G01*
X73350000Y-127631000D02*
X73350000Y-127131000D01*
G75*
G02*
X73575000Y-126906000I225000J0D01*
G01*
X74025000Y-126906000D01*
G75*
G02*
X74250000Y-127131000I0J-225000D01*
G01*
X74250000Y-127631000D01*
G75*
G02*
X74025000Y-127856000I-225000J0D01*
G01*
X73575000Y-127856000D01*
G75*
G02*
X73350000Y-127631000I0J225000D01*
G01*
G37*
G36*
G01*
X71800000Y-127631000D02*
X71800000Y-127131000D01*
G75*
G02*
X72025000Y-126906000I225000J0D01*
G01*
X72475000Y-126906000D01*
G75*
G02*
X72700000Y-127131000I0J-225000D01*
G01*
X72700000Y-127631000D01*
G75*
G02*
X72475000Y-127856000I-225000J0D01*
G01*
X72025000Y-127856000D01*
G75*
G02*
X71800000Y-127631000I0J225000D01*
G01*
G37*
%TD*%
%TO.C,R33*%
G36*
G01*
X81670999Y-98944000D02*
X82921001Y-98944000D01*
G75*
G02*
X83171000Y-99193999I0J-249999D01*
G01*
X83171000Y-99819001D01*
G75*
G02*
X82921001Y-100069000I-249999J0D01*
G01*
X81670999Y-100069000D01*
G75*
G02*
X81421000Y-99819001I0J249999D01*
G01*
X81421000Y-99193999D01*
G75*
G02*
X81670999Y-98944000I249999J0D01*
G01*
G37*
G36*
G01*
X81670999Y-96019000D02*
X82921001Y-96019000D01*
G75*
G02*
X83171000Y-96268999I0J-249999D01*
G01*
X83171000Y-96894001D01*
G75*
G02*
X82921001Y-97144000I-249999J0D01*
G01*
X81670999Y-97144000D01*
G75*
G02*
X81421000Y-96894001I0J249999D01*
G01*
X81421000Y-96268999D01*
G75*
G02*
X81670999Y-96019000I249999J0D01*
G01*
G37*
%TD*%
%TO.C,R10*%
G36*
G01*
X61525000Y-104288000D02*
X61525000Y-103738000D01*
G75*
G02*
X61725000Y-103538000I200000J0D01*
G01*
X62125000Y-103538000D01*
G75*
G02*
X62325000Y-103738000I0J-200000D01*
G01*
X62325000Y-104288000D01*
G75*
G02*
X62125000Y-104488000I-200000J0D01*
G01*
X61725000Y-104488000D01*
G75*
G02*
X61525000Y-104288000I0J200000D01*
G01*
G37*
G36*
G01*
X59875000Y-104288000D02*
X59875000Y-103738000D01*
G75*
G02*
X60075000Y-103538000I200000J0D01*
G01*
X60475000Y-103538000D01*
G75*
G02*
X60675000Y-103738000I0J-200000D01*
G01*
X60675000Y-104288000D01*
G75*
G02*
X60475000Y-104488000I-200000J0D01*
G01*
X60075000Y-104488000D01*
G75*
G02*
X59875000Y-104288000I0J200000D01*
G01*
G37*
%TD*%
D24*
%TO.C,D15*%
X62320000Y-64440000D03*
X62320000Y-67640000D03*
X67220000Y-64440000D03*
X67220000Y-67640000D03*
%TD*%
%TO.C,C7*%
G36*
G01*
X82494000Y-62734000D02*
X82494000Y-62234000D01*
G75*
G02*
X82719000Y-62009000I225000J0D01*
G01*
X83169000Y-62009000D01*
G75*
G02*
X83394000Y-62234000I0J-225000D01*
G01*
X83394000Y-62734000D01*
G75*
G02*
X83169000Y-62959000I-225000J0D01*
G01*
X82719000Y-62959000D01*
G75*
G02*
X82494000Y-62734000I0J225000D01*
G01*
G37*
G36*
G01*
X80944000Y-62734000D02*
X80944000Y-62234000D01*
G75*
G02*
X81169000Y-62009000I225000J0D01*
G01*
X81619000Y-62009000D01*
G75*
G02*
X81844000Y-62234000I0J-225000D01*
G01*
X81844000Y-62734000D01*
G75*
G02*
X81619000Y-62959000I-225000J0D01*
G01*
X81169000Y-62959000D01*
G75*
G02*
X80944000Y-62734000I0J225000D01*
G01*
G37*
%TD*%
D25*
%TO.C,Q6*%
X65405000Y-73676000D03*
X66355000Y-75676000D03*
X64455000Y-75676000D03*
%TD*%
%TO.C,R22*%
G36*
G01*
X109645000Y-114067000D02*
X109645000Y-113517000D01*
G75*
G02*
X109845000Y-113317000I200000J0D01*
G01*
X110245000Y-113317000D01*
G75*
G02*
X110445000Y-113517000I0J-200000D01*
G01*
X110445000Y-114067000D01*
G75*
G02*
X110245000Y-114267000I-200000J0D01*
G01*
X109845000Y-114267000D01*
G75*
G02*
X109645000Y-114067000I0J200000D01*
G01*
G37*
G36*
G01*
X107995000Y-114067000D02*
X107995000Y-113517000D01*
G75*
G02*
X108195000Y-113317000I200000J0D01*
G01*
X108595000Y-113317000D01*
G75*
G02*
X108795000Y-113517000I0J-200000D01*
G01*
X108795000Y-114067000D01*
G75*
G02*
X108595000Y-114267000I-200000J0D01*
G01*
X108195000Y-114267000D01*
G75*
G02*
X107995000Y-114067000I0J200000D01*
G01*
G37*
%TD*%
%TO.C,R2*%
G36*
G01*
X60662000Y-119994000D02*
X60662000Y-120544000D01*
G75*
G02*
X60462000Y-120744000I-200000J0D01*
G01*
X60062000Y-120744000D01*
G75*
G02*
X59862000Y-120544000I0J200000D01*
G01*
X59862000Y-119994000D01*
G75*
G02*
X60062000Y-119794000I200000J0D01*
G01*
X60462000Y-119794000D01*
G75*
G02*
X60662000Y-119994000I0J-200000D01*
G01*
G37*
G36*
G01*
X62312000Y-119994000D02*
X62312000Y-120544000D01*
G75*
G02*
X62112000Y-120744000I-200000J0D01*
G01*
X61712000Y-120744000D01*
G75*
G02*
X61512000Y-120544000I0J200000D01*
G01*
X61512000Y-119994000D01*
G75*
G02*
X61712000Y-119794000I200000J0D01*
G01*
X62112000Y-119794000D01*
G75*
G02*
X62312000Y-119994000I0J-200000D01*
G01*
G37*
%TD*%
%TO.C,R7*%
G36*
G01*
X66592000Y-127656000D02*
X66592000Y-127106000D01*
G75*
G02*
X66792000Y-126906000I200000J0D01*
G01*
X67192000Y-126906000D01*
G75*
G02*
X67392000Y-127106000I0J-200000D01*
G01*
X67392000Y-127656000D01*
G75*
G02*
X67192000Y-127856000I-200000J0D01*
G01*
X66792000Y-127856000D01*
G75*
G02*
X66592000Y-127656000I0J200000D01*
G01*
G37*
G36*
G01*
X64942000Y-127656000D02*
X64942000Y-127106000D01*
G75*
G02*
X65142000Y-126906000I200000J0D01*
G01*
X65542000Y-126906000D01*
G75*
G02*
X65742000Y-127106000I0J-200000D01*
G01*
X65742000Y-127656000D01*
G75*
G02*
X65542000Y-127856000I-200000J0D01*
G01*
X65142000Y-127856000D01*
G75*
G02*
X64942000Y-127656000I0J200000D01*
G01*
G37*
%TD*%
D26*
%TO.C,U3*%
X63754000Y-123825000D03*
D27*
X66304000Y-121825000D03*
X66304000Y-122825000D03*
X61204000Y-125825000D03*
X66304000Y-123825000D03*
X66304000Y-124825000D03*
X66304000Y-125825000D03*
X61204000Y-124825000D03*
X61204000Y-123825000D03*
X61204000Y-122825000D03*
X61204000Y-121825000D03*
%TD*%
D28*
%TO.C,K2*%
X132390000Y-92847000D03*
X132390000Y-96047000D03*
X132390000Y-98247000D03*
X132390000Y-100447000D03*
X139390000Y-100447000D03*
X139390000Y-98247000D03*
X139390000Y-96047000D03*
X139390000Y-92847000D03*
%TD*%
D13*
%TO.C,U14*%
X99822000Y-97663000D03*
X97282000Y-97663000D03*
X94742000Y-97663000D03*
X92202000Y-97663000D03*
X89662000Y-97663000D03*
X87122000Y-97663000D03*
G36*
G01*
X83782000Y-98263000D02*
X83782000Y-97063000D01*
G75*
G02*
X84182000Y-96663000I400000J0D01*
G01*
X84982000Y-96663000D01*
G75*
G02*
X85382000Y-97063000I0J-400000D01*
G01*
X85382000Y-98263000D01*
G75*
G02*
X84982000Y-98663000I-400000J0D01*
G01*
X84182000Y-98663000D01*
G75*
G02*
X83782000Y-98263000I0J400000D01*
G01*
G37*
%TD*%
D29*
%TO.C,X1*%
X124500000Y-143250000D03*
X74500000Y-143250000D03*
%TD*%
%TO.C,R39*%
G36*
G01*
X123948000Y-92512000D02*
X123448000Y-92512000D01*
G75*
G02*
X123223000Y-92287000I0J225000D01*
G01*
X123223000Y-91837000D01*
G75*
G02*
X123448000Y-91612000I225000J0D01*
G01*
X123948000Y-91612000D01*
G75*
G02*
X124173000Y-91837000I0J-225000D01*
G01*
X124173000Y-92287000D01*
G75*
G02*
X123948000Y-92512000I-225000J0D01*
G01*
G37*
G36*
G01*
X123948000Y-94062000D02*
X123448000Y-94062000D01*
G75*
G02*
X123223000Y-93837000I0J225000D01*
G01*
X123223000Y-93387000D01*
G75*
G02*
X123448000Y-93162000I225000J0D01*
G01*
X123948000Y-93162000D01*
G75*
G02*
X124173000Y-93387000I0J-225000D01*
G01*
X124173000Y-93837000D01*
G75*
G02*
X123948000Y-94062000I-225000J0D01*
G01*
G37*
%TD*%
%TO.C,R38*%
G36*
G01*
X121416000Y-93162000D02*
X121916000Y-93162000D01*
G75*
G02*
X122141000Y-93387000I0J-225000D01*
G01*
X122141000Y-93837000D01*
G75*
G02*
X121916000Y-94062000I-225000J0D01*
G01*
X121416000Y-94062000D01*
G75*
G02*
X121191000Y-93837000I0J225000D01*
G01*
X121191000Y-93387000D01*
G75*
G02*
X121416000Y-93162000I225000J0D01*
G01*
G37*
G36*
G01*
X121416000Y-91612000D02*
X121916000Y-91612000D01*
G75*
G02*
X122141000Y-91837000I0J-225000D01*
G01*
X122141000Y-92287000D01*
G75*
G02*
X121916000Y-92512000I-225000J0D01*
G01*
X121416000Y-92512000D01*
G75*
G02*
X121191000Y-92287000I0J225000D01*
G01*
X121191000Y-91837000D01*
G75*
G02*
X121416000Y-91612000I225000J0D01*
G01*
G37*
%TD*%
%TO.C,C26*%
G36*
G01*
X129357000Y-100199000D02*
X129357000Y-99699000D01*
G75*
G02*
X129582000Y-99474000I225000J0D01*
G01*
X130032000Y-99474000D01*
G75*
G02*
X130257000Y-99699000I0J-225000D01*
G01*
X130257000Y-100199000D01*
G75*
G02*
X130032000Y-100424000I-225000J0D01*
G01*
X129582000Y-100424000D01*
G75*
G02*
X129357000Y-100199000I0J225000D01*
G01*
G37*
G36*
G01*
X127807000Y-100199000D02*
X127807000Y-99699000D01*
G75*
G02*
X128032000Y-99474000I225000J0D01*
G01*
X128482000Y-99474000D01*
G75*
G02*
X128707000Y-99699000I0J-225000D01*
G01*
X128707000Y-100199000D01*
G75*
G02*
X128482000Y-100424000I-225000J0D01*
G01*
X128032000Y-100424000D01*
G75*
G02*
X127807000Y-100199000I0J225000D01*
G01*
G37*
%TD*%
%TO.C,C25*%
G36*
G01*
X125697000Y-99699000D02*
X125697000Y-100199000D01*
G75*
G02*
X125472000Y-100424000I-225000J0D01*
G01*
X125022000Y-100424000D01*
G75*
G02*
X124797000Y-100199000I0J225000D01*
G01*
X124797000Y-99699000D01*
G75*
G02*
X125022000Y-99474000I225000J0D01*
G01*
X125472000Y-99474000D01*
G75*
G02*
X125697000Y-99699000I0J-225000D01*
G01*
G37*
G36*
G01*
X127247000Y-99699000D02*
X127247000Y-100199000D01*
G75*
G02*
X127022000Y-100424000I-225000J0D01*
G01*
X126572000Y-100424000D01*
G75*
G02*
X126347000Y-100199000I0J225000D01*
G01*
X126347000Y-99699000D01*
G75*
G02*
X126572000Y-99474000I225000J0D01*
G01*
X127022000Y-99474000D01*
G75*
G02*
X127247000Y-99699000I0J-225000D01*
G01*
G37*
%TD*%
%TO.C,C24*%
G36*
G01*
X120011000Y-92512000D02*
X119511000Y-92512000D01*
G75*
G02*
X119286000Y-92287000I0J225000D01*
G01*
X119286000Y-91837000D01*
G75*
G02*
X119511000Y-91612000I225000J0D01*
G01*
X120011000Y-91612000D01*
G75*
G02*
X120236000Y-91837000I0J-225000D01*
G01*
X120236000Y-92287000D01*
G75*
G02*
X120011000Y-92512000I-225000J0D01*
G01*
G37*
G36*
G01*
X120011000Y-94062000D02*
X119511000Y-94062000D01*
G75*
G02*
X119286000Y-93837000I0J225000D01*
G01*
X119286000Y-93387000D01*
G75*
G02*
X119511000Y-93162000I225000J0D01*
G01*
X120011000Y-93162000D01*
G75*
G02*
X120236000Y-93387000I0J-225000D01*
G01*
X120236000Y-93837000D01*
G75*
G02*
X120011000Y-94062000I-225000J0D01*
G01*
G37*
%TD*%
%TO.C,C23*%
G36*
G01*
X129865000Y-91055000D02*
X129865000Y-90555000D01*
G75*
G02*
X130090000Y-90330000I225000J0D01*
G01*
X130540000Y-90330000D01*
G75*
G02*
X130765000Y-90555000I0J-225000D01*
G01*
X130765000Y-91055000D01*
G75*
G02*
X130540000Y-91280000I-225000J0D01*
G01*
X130090000Y-91280000D01*
G75*
G02*
X129865000Y-91055000I0J225000D01*
G01*
G37*
G36*
G01*
X128315000Y-91055000D02*
X128315000Y-90555000D01*
G75*
G02*
X128540000Y-90330000I225000J0D01*
G01*
X128990000Y-90330000D01*
G75*
G02*
X129215000Y-90555000I0J-225000D01*
G01*
X129215000Y-91055000D01*
G75*
G02*
X128990000Y-91280000I-225000J0D01*
G01*
X128540000Y-91280000D01*
G75*
G02*
X128315000Y-91055000I0J225000D01*
G01*
G37*
%TD*%
%TO.C,C6*%
G36*
G01*
X68195000Y-124770000D02*
X67695000Y-124770000D01*
G75*
G02*
X67470000Y-124545000I0J225000D01*
G01*
X67470000Y-124095000D01*
G75*
G02*
X67695000Y-123870000I225000J0D01*
G01*
X68195000Y-123870000D01*
G75*
G02*
X68420000Y-124095000I0J-225000D01*
G01*
X68420000Y-124545000D01*
G75*
G02*
X68195000Y-124770000I-225000J0D01*
G01*
G37*
G36*
G01*
X68195000Y-126320000D02*
X67695000Y-126320000D01*
G75*
G02*
X67470000Y-126095000I0J225000D01*
G01*
X67470000Y-125645000D01*
G75*
G02*
X67695000Y-125420000I225000J0D01*
G01*
X68195000Y-125420000D01*
G75*
G02*
X68420000Y-125645000I0J-225000D01*
G01*
X68420000Y-126095000D01*
G75*
G02*
X68195000Y-126320000I-225000J0D01*
G01*
G37*
%TD*%
D25*
%TO.C,Q2*%
X62865000Y-129397000D03*
X61915000Y-127397000D03*
X63815000Y-127397000D03*
%TD*%
%TO.C,C10*%
G36*
G01*
X63810000Y-120019000D02*
X63810000Y-120519000D01*
G75*
G02*
X63585000Y-120744000I-225000J0D01*
G01*
X63135000Y-120744000D01*
G75*
G02*
X62910000Y-120519000I0J225000D01*
G01*
X62910000Y-120019000D01*
G75*
G02*
X63135000Y-119794000I225000J0D01*
G01*
X63585000Y-119794000D01*
G75*
G02*
X63810000Y-120019000I0J-225000D01*
G01*
G37*
G36*
G01*
X65360000Y-120019000D02*
X65360000Y-120519000D01*
G75*
G02*
X65135000Y-120744000I-225000J0D01*
G01*
X64685000Y-120744000D01*
G75*
G02*
X64460000Y-120519000I0J225000D01*
G01*
X64460000Y-120019000D01*
G75*
G02*
X64685000Y-119794000I225000J0D01*
G01*
X65135000Y-119794000D01*
G75*
G02*
X65360000Y-120019000I0J-225000D01*
G01*
G37*
%TD*%
%TO.C,R3*%
G36*
G01*
X60600000Y-127718000D02*
X60050000Y-127718000D01*
G75*
G02*
X59850000Y-127518000I0J200000D01*
G01*
X59850000Y-127118000D01*
G75*
G02*
X60050000Y-126918000I200000J0D01*
G01*
X60600000Y-126918000D01*
G75*
G02*
X60800000Y-127118000I0J-200000D01*
G01*
X60800000Y-127518000D01*
G75*
G02*
X60600000Y-127718000I-200000J0D01*
G01*
G37*
G36*
G01*
X60600000Y-129368000D02*
X60050000Y-129368000D01*
G75*
G02*
X59850000Y-129168000I0J200000D01*
G01*
X59850000Y-128768000D01*
G75*
G02*
X60050000Y-128568000I200000J0D01*
G01*
X60600000Y-128568000D01*
G75*
G02*
X60800000Y-128768000I0J-200000D01*
G01*
X60800000Y-129168000D01*
G75*
G02*
X60600000Y-129368000I-200000J0D01*
G01*
G37*
%TD*%
D18*
%TO.C,SP1*%
X127063000Y-86193000D03*
X127063000Y-83693000D03*
X127063000Y-81193000D03*
X125063000Y-79943000D03*
X125063000Y-82443000D03*
X125063000Y-84943000D03*
X125063000Y-87443000D03*
X123063000Y-88693000D03*
X123063000Y-86193000D03*
X123063000Y-83693000D03*
X123063000Y-81193000D03*
X123063000Y-78693000D03*
X121063000Y-79943000D03*
X121063000Y-82443000D03*
X121063000Y-84943000D03*
X121063000Y-87443000D03*
X111063000Y-81193000D03*
X111063000Y-83693000D03*
X111063000Y-86193000D03*
X113063000Y-79943000D03*
X113063000Y-82443000D03*
X113063000Y-84943000D03*
X113063000Y-87443000D03*
X115063000Y-78693000D03*
X115063000Y-81193000D03*
X115063000Y-83693000D03*
X115063000Y-86193000D03*
X115063000Y-88693000D03*
X117063000Y-79943000D03*
X117063000Y-82443000D03*
X117063000Y-84943000D03*
X117063000Y-87443000D03*
X119063000Y-78693000D03*
X119063000Y-81193000D03*
X119063000Y-83693000D03*
X119063000Y-86193000D03*
X119063000Y-88693000D03*
%TD*%
%TO.C,U18*%
G36*
G01*
X129009000Y-97077000D02*
X129309000Y-97077000D01*
G75*
G02*
X129459000Y-97227000I0J-150000D01*
G01*
X129459000Y-98677000D01*
G75*
G02*
X129309000Y-98827000I-150000J0D01*
G01*
X129009000Y-98827000D01*
G75*
G02*
X128859000Y-98677000I0J150000D01*
G01*
X128859000Y-97227000D01*
G75*
G02*
X129009000Y-97077000I150000J0D01*
G01*
G37*
G36*
G01*
X127739000Y-97077000D02*
X128039000Y-97077000D01*
G75*
G02*
X128189000Y-97227000I0J-150000D01*
G01*
X128189000Y-98677000D01*
G75*
G02*
X128039000Y-98827000I-150000J0D01*
G01*
X127739000Y-98827000D01*
G75*
G02*
X127589000Y-98677000I0J150000D01*
G01*
X127589000Y-97227000D01*
G75*
G02*
X127739000Y-97077000I150000J0D01*
G01*
G37*
G36*
G01*
X126469000Y-97077000D02*
X126769000Y-97077000D01*
G75*
G02*
X126919000Y-97227000I0J-150000D01*
G01*
X126919000Y-98677000D01*
G75*
G02*
X126769000Y-98827000I-150000J0D01*
G01*
X126469000Y-98827000D01*
G75*
G02*
X126319000Y-98677000I0J150000D01*
G01*
X126319000Y-97227000D01*
G75*
G02*
X126469000Y-97077000I150000J0D01*
G01*
G37*
G36*
G01*
X125199000Y-97077000D02*
X125499000Y-97077000D01*
G75*
G02*
X125649000Y-97227000I0J-150000D01*
G01*
X125649000Y-98677000D01*
G75*
G02*
X125499000Y-98827000I-150000J0D01*
G01*
X125199000Y-98827000D01*
G75*
G02*
X125049000Y-98677000I0J150000D01*
G01*
X125049000Y-97227000D01*
G75*
G02*
X125199000Y-97077000I150000J0D01*
G01*
G37*
G36*
G01*
X125199000Y-91927000D02*
X125499000Y-91927000D01*
G75*
G02*
X125649000Y-92077000I0J-150000D01*
G01*
X125649000Y-93527000D01*
G75*
G02*
X125499000Y-93677000I-150000J0D01*
G01*
X125199000Y-93677000D01*
G75*
G02*
X125049000Y-93527000I0J150000D01*
G01*
X125049000Y-92077000D01*
G75*
G02*
X125199000Y-91927000I150000J0D01*
G01*
G37*
G36*
G01*
X126469000Y-91927000D02*
X126769000Y-91927000D01*
G75*
G02*
X126919000Y-92077000I0J-150000D01*
G01*
X126919000Y-93527000D01*
G75*
G02*
X126769000Y-93677000I-150000J0D01*
G01*
X126469000Y-93677000D01*
G75*
G02*
X126319000Y-93527000I0J150000D01*
G01*
X126319000Y-92077000D01*
G75*
G02*
X126469000Y-91927000I150000J0D01*
G01*
G37*
G36*
G01*
X127739000Y-91927000D02*
X128039000Y-91927000D01*
G75*
G02*
X128189000Y-92077000I0J-150000D01*
G01*
X128189000Y-93527000D01*
G75*
G02*
X128039000Y-93677000I-150000J0D01*
G01*
X127739000Y-93677000D01*
G75*
G02*
X127589000Y-93527000I0J150000D01*
G01*
X127589000Y-92077000D01*
G75*
G02*
X127739000Y-91927000I150000J0D01*
G01*
G37*
G36*
G01*
X129009000Y-91927000D02*
X129309000Y-91927000D01*
G75*
G02*
X129459000Y-92077000I0J-150000D01*
G01*
X129459000Y-93527000D01*
G75*
G02*
X129309000Y-93677000I-150000J0D01*
G01*
X129009000Y-93677000D01*
G75*
G02*
X128859000Y-93527000I0J150000D01*
G01*
X128859000Y-92077000D01*
G75*
G02*
X129009000Y-91927000I150000J0D01*
G01*
G37*
%TD*%
D30*
%TO.C,U17*%
X95377000Y-70000000D03*
X95377000Y-68000000D03*
X95377000Y-66000000D03*
X95377000Y-64000000D03*
X95377000Y-62000000D03*
X95377000Y-60000000D03*
X95377000Y-58000000D03*
X95377000Y-56000000D03*
X111377000Y-56000000D03*
X111377000Y-58000000D03*
X111377000Y-60000000D03*
X111377000Y-62000000D03*
X111377000Y-64000000D03*
X111377000Y-66000000D03*
X111377000Y-68000000D03*
X111377000Y-70000000D03*
%TD*%
D31*
%TO.C,U16*%
X88646000Y-51816000D03*
X86106000Y-51816000D03*
X83566000Y-51816000D03*
G36*
G01*
X81476000Y-52916000D02*
X80576000Y-52916000D01*
G75*
G02*
X80126000Y-52466000I0J450000D01*
G01*
X80126000Y-51166000D01*
G75*
G02*
X80576000Y-50716000I450000J0D01*
G01*
X81476000Y-50716000D01*
G75*
G02*
X81926000Y-51166000I0J-450000D01*
G01*
X81926000Y-52466000D01*
G75*
G02*
X81476000Y-52916000I-450000J0D01*
G01*
G37*
%TD*%
D32*
%TO.C,U15*%
X118345000Y-68326000D03*
G36*
G01*
X117720000Y-70316000D02*
X118970000Y-70316000D01*
G75*
G02*
X119245000Y-70591000I0J-275000D01*
G01*
X119245000Y-71141000D01*
G75*
G02*
X118970000Y-71416000I-275000J0D01*
G01*
X117720000Y-71416000D01*
G75*
G02*
X117445000Y-71141000I0J275000D01*
G01*
X117445000Y-70591000D01*
G75*
G02*
X117720000Y-70316000I275000J0D01*
G01*
G37*
G36*
G01*
X119790000Y-69046000D02*
X121040000Y-69046000D01*
G75*
G02*
X121315000Y-69321000I0J-275000D01*
G01*
X121315000Y-69871000D01*
G75*
G02*
X121040000Y-70146000I-275000J0D01*
G01*
X119790000Y-70146000D01*
G75*
G02*
X119515000Y-69871000I0J275000D01*
G01*
X119515000Y-69321000D01*
G75*
G02*
X119790000Y-69046000I275000J0D01*
G01*
G37*
%TD*%
%TO.C,U13*%
X126150000Y-124540000D03*
G36*
G01*
X126775000Y-122550000D02*
X125525000Y-122550000D01*
G75*
G02*
X125250000Y-122275000I0J275000D01*
G01*
X125250000Y-121725000D01*
G75*
G02*
X125525000Y-121450000I275000J0D01*
G01*
X126775000Y-121450000D01*
G75*
G02*
X127050000Y-121725000I0J-275000D01*
G01*
X127050000Y-122275000D01*
G75*
G02*
X126775000Y-122550000I-275000J0D01*
G01*
G37*
G36*
G01*
X124705000Y-123820000D02*
X123455000Y-123820000D01*
G75*
G02*
X123180000Y-123545000I0J275000D01*
G01*
X123180000Y-122995000D01*
G75*
G02*
X123455000Y-122720000I275000J0D01*
G01*
X124705000Y-122720000D01*
G75*
G02*
X124980000Y-122995000I0J-275000D01*
G01*
X124980000Y-123545000D01*
G75*
G02*
X124705000Y-123820000I-275000J0D01*
G01*
G37*
%TD*%
%TO.C,U12*%
X124860000Y-68326000D03*
G36*
G01*
X124235000Y-70316000D02*
X125485000Y-70316000D01*
G75*
G02*
X125760000Y-70591000I0J-275000D01*
G01*
X125760000Y-71141000D01*
G75*
G02*
X125485000Y-71416000I-275000J0D01*
G01*
X124235000Y-71416000D01*
G75*
G02*
X123960000Y-71141000I0J275000D01*
G01*
X123960000Y-70591000D01*
G75*
G02*
X124235000Y-70316000I275000J0D01*
G01*
G37*
G36*
G01*
X122165000Y-69046000D02*
X123415000Y-69046000D01*
G75*
G02*
X123690000Y-69321000I0J-275000D01*
G01*
X123690000Y-69871000D01*
G75*
G02*
X123415000Y-70146000I-275000J0D01*
G01*
X122165000Y-70146000D01*
G75*
G02*
X121890000Y-69871000I0J275000D01*
G01*
X121890000Y-69321000D01*
G75*
G02*
X122165000Y-69046000I275000J0D01*
G01*
G37*
%TD*%
%TO.C,U11*%
G36*
G01*
X72341000Y-99799000D02*
X72341000Y-100099000D01*
G75*
G02*
X72191000Y-100249000I-150000J0D01*
G01*
X70741000Y-100249000D01*
G75*
G02*
X70591000Y-100099000I0J150000D01*
G01*
X70591000Y-99799000D01*
G75*
G02*
X70741000Y-99649000I150000J0D01*
G01*
X72191000Y-99649000D01*
G75*
G02*
X72341000Y-99799000I0J-150000D01*
G01*
G37*
G36*
G01*
X72341000Y-98529000D02*
X72341000Y-98829000D01*
G75*
G02*
X72191000Y-98979000I-150000J0D01*
G01*
X70741000Y-98979000D01*
G75*
G02*
X70591000Y-98829000I0J150000D01*
G01*
X70591000Y-98529000D01*
G75*
G02*
X70741000Y-98379000I150000J0D01*
G01*
X72191000Y-98379000D01*
G75*
G02*
X72341000Y-98529000I0J-150000D01*
G01*
G37*
G36*
G01*
X72341000Y-97259000D02*
X72341000Y-97559000D01*
G75*
G02*
X72191000Y-97709000I-150000J0D01*
G01*
X70741000Y-97709000D01*
G75*
G02*
X70591000Y-97559000I0J150000D01*
G01*
X70591000Y-97259000D01*
G75*
G02*
X70741000Y-97109000I150000J0D01*
G01*
X72191000Y-97109000D01*
G75*
G02*
X72341000Y-97259000I0J-150000D01*
G01*
G37*
G36*
G01*
X72341000Y-95989000D02*
X72341000Y-96289000D01*
G75*
G02*
X72191000Y-96439000I-150000J0D01*
G01*
X70741000Y-96439000D01*
G75*
G02*
X70591000Y-96289000I0J150000D01*
G01*
X70591000Y-95989000D01*
G75*
G02*
X70741000Y-95839000I150000J0D01*
G01*
X72191000Y-95839000D01*
G75*
G02*
X72341000Y-95989000I0J-150000D01*
G01*
G37*
G36*
G01*
X77491000Y-95989000D02*
X77491000Y-96289000D01*
G75*
G02*
X77341000Y-96439000I-150000J0D01*
G01*
X75891000Y-96439000D01*
G75*
G02*
X75741000Y-96289000I0J150000D01*
G01*
X75741000Y-95989000D01*
G75*
G02*
X75891000Y-95839000I150000J0D01*
G01*
X77341000Y-95839000D01*
G75*
G02*
X77491000Y-95989000I0J-150000D01*
G01*
G37*
G36*
G01*
X77491000Y-97259000D02*
X77491000Y-97559000D01*
G75*
G02*
X77341000Y-97709000I-150000J0D01*
G01*
X75891000Y-97709000D01*
G75*
G02*
X75741000Y-97559000I0J150000D01*
G01*
X75741000Y-97259000D01*
G75*
G02*
X75891000Y-97109000I150000J0D01*
G01*
X77341000Y-97109000D01*
G75*
G02*
X77491000Y-97259000I0J-150000D01*
G01*
G37*
G36*
G01*
X77491000Y-98529000D02*
X77491000Y-98829000D01*
G75*
G02*
X77341000Y-98979000I-150000J0D01*
G01*
X75891000Y-98979000D01*
G75*
G02*
X75741000Y-98829000I0J150000D01*
G01*
X75741000Y-98529000D01*
G75*
G02*
X75891000Y-98379000I150000J0D01*
G01*
X77341000Y-98379000D01*
G75*
G02*
X77491000Y-98529000I0J-150000D01*
G01*
G37*
G36*
G01*
X77491000Y-99799000D02*
X77491000Y-100099000D01*
G75*
G02*
X77341000Y-100249000I-150000J0D01*
G01*
X75891000Y-100249000D01*
G75*
G02*
X75741000Y-100099000I0J150000D01*
G01*
X75741000Y-99799000D01*
G75*
G02*
X75891000Y-99649000I150000J0D01*
G01*
X77341000Y-99649000D01*
G75*
G02*
X77491000Y-99799000I0J-150000D01*
G01*
G37*
%TD*%
D33*
%TO.C,U10*%
X102540000Y-73096000D03*
G36*
G01*
X96560000Y-73546000D02*
X96560000Y-72646000D01*
G75*
G02*
X97010000Y-72196000I450000J0D01*
G01*
X97910000Y-72196000D01*
G75*
G02*
X98360000Y-72646000I0J-450000D01*
G01*
X98360000Y-73546000D01*
G75*
G02*
X97910000Y-73996000I-450000J0D01*
G01*
X97010000Y-73996000D01*
G75*
G02*
X96560000Y-73546000I0J450000D01*
G01*
G37*
X100000000Y-73096000D03*
%TD*%
D34*
%TO.C,U9*%
X135128000Y-72136000D03*
X137668000Y-72136000D03*
X140208000Y-72136000D03*
X142748000Y-72136000D03*
G36*
G01*
X145713000Y-73236000D02*
X144863000Y-73236000D01*
G75*
G02*
X144438000Y-72811000I0J425000D01*
G01*
X144438000Y-71461000D01*
G75*
G02*
X144863000Y-71036000I425000J0D01*
G01*
X145713000Y-71036000D01*
G75*
G02*
X146138000Y-71461000I0J-425000D01*
G01*
X146138000Y-72811000D01*
G75*
G02*
X145713000Y-73236000I-425000J0D01*
G01*
G37*
%TD*%
%TO.C,U8*%
G36*
G01*
X64575000Y-101160000D02*
X64775000Y-101160000D01*
G75*
G02*
X64875000Y-101260000I0J-100000D01*
G01*
X64875000Y-102535000D01*
G75*
G02*
X64775000Y-102635000I-100000J0D01*
G01*
X64575000Y-102635000D01*
G75*
G02*
X64475000Y-102535000I0J100000D01*
G01*
X64475000Y-101260000D01*
G75*
G02*
X64575000Y-101160000I100000J0D01*
G01*
G37*
G36*
G01*
X63925000Y-101160000D02*
X64125000Y-101160000D01*
G75*
G02*
X64225000Y-101260000I0J-100000D01*
G01*
X64225000Y-102535000D01*
G75*
G02*
X64125000Y-102635000I-100000J0D01*
G01*
X63925000Y-102635000D01*
G75*
G02*
X63825000Y-102535000I0J100000D01*
G01*
X63825000Y-101260000D01*
G75*
G02*
X63925000Y-101160000I100000J0D01*
G01*
G37*
G36*
G01*
X63275000Y-101160000D02*
X63475000Y-101160000D01*
G75*
G02*
X63575000Y-101260000I0J-100000D01*
G01*
X63575000Y-102535000D01*
G75*
G02*
X63475000Y-102635000I-100000J0D01*
G01*
X63275000Y-102635000D01*
G75*
G02*
X63175000Y-102535000I0J100000D01*
G01*
X63175000Y-101260000D01*
G75*
G02*
X63275000Y-101160000I100000J0D01*
G01*
G37*
G36*
G01*
X62625000Y-101160000D02*
X62825000Y-101160000D01*
G75*
G02*
X62925000Y-101260000I0J-100000D01*
G01*
X62925000Y-102535000D01*
G75*
G02*
X62825000Y-102635000I-100000J0D01*
G01*
X62625000Y-102635000D01*
G75*
G02*
X62525000Y-102535000I0J100000D01*
G01*
X62525000Y-101260000D01*
G75*
G02*
X62625000Y-101160000I100000J0D01*
G01*
G37*
G36*
G01*
X61975000Y-101160000D02*
X62175000Y-101160000D01*
G75*
G02*
X62275000Y-101260000I0J-100000D01*
G01*
X62275000Y-102535000D01*
G75*
G02*
X62175000Y-102635000I-100000J0D01*
G01*
X61975000Y-102635000D01*
G75*
G02*
X61875000Y-102535000I0J100000D01*
G01*
X61875000Y-101260000D01*
G75*
G02*
X61975000Y-101160000I100000J0D01*
G01*
G37*
G36*
G01*
X61325000Y-101160000D02*
X61525000Y-101160000D01*
G75*
G02*
X61625000Y-101260000I0J-100000D01*
G01*
X61625000Y-102535000D01*
G75*
G02*
X61525000Y-102635000I-100000J0D01*
G01*
X61325000Y-102635000D01*
G75*
G02*
X61225000Y-102535000I0J100000D01*
G01*
X61225000Y-101260000D01*
G75*
G02*
X61325000Y-101160000I100000J0D01*
G01*
G37*
G36*
G01*
X60675000Y-101160000D02*
X60875000Y-101160000D01*
G75*
G02*
X60975000Y-101260000I0J-100000D01*
G01*
X60975000Y-102535000D01*
G75*
G02*
X60875000Y-102635000I-100000J0D01*
G01*
X60675000Y-102635000D01*
G75*
G02*
X60575000Y-102535000I0J100000D01*
G01*
X60575000Y-101260000D01*
G75*
G02*
X60675000Y-101160000I100000J0D01*
G01*
G37*
G36*
G01*
X60025000Y-101160000D02*
X60225000Y-101160000D01*
G75*
G02*
X60325000Y-101260000I0J-100000D01*
G01*
X60325000Y-102535000D01*
G75*
G02*
X60225000Y-102635000I-100000J0D01*
G01*
X60025000Y-102635000D01*
G75*
G02*
X59925000Y-102535000I0J100000D01*
G01*
X59925000Y-101260000D01*
G75*
G02*
X60025000Y-101160000I100000J0D01*
G01*
G37*
G36*
G01*
X60025000Y-95435000D02*
X60225000Y-95435000D01*
G75*
G02*
X60325000Y-95535000I0J-100000D01*
G01*
X60325000Y-96810000D01*
G75*
G02*
X60225000Y-96910000I-100000J0D01*
G01*
X60025000Y-96910000D01*
G75*
G02*
X59925000Y-96810000I0J100000D01*
G01*
X59925000Y-95535000D01*
G75*
G02*
X60025000Y-95435000I100000J0D01*
G01*
G37*
G36*
G01*
X60675000Y-95435000D02*
X60875000Y-95435000D01*
G75*
G02*
X60975000Y-95535000I0J-100000D01*
G01*
X60975000Y-96810000D01*
G75*
G02*
X60875000Y-96910000I-100000J0D01*
G01*
X60675000Y-96910000D01*
G75*
G02*
X60575000Y-96810000I0J100000D01*
G01*
X60575000Y-95535000D01*
G75*
G02*
X60675000Y-95435000I100000J0D01*
G01*
G37*
G36*
G01*
X61325000Y-95435000D02*
X61525000Y-95435000D01*
G75*
G02*
X61625000Y-95535000I0J-100000D01*
G01*
X61625000Y-96810000D01*
G75*
G02*
X61525000Y-96910000I-100000J0D01*
G01*
X61325000Y-96910000D01*
G75*
G02*
X61225000Y-96810000I0J100000D01*
G01*
X61225000Y-95535000D01*
G75*
G02*
X61325000Y-95435000I100000J0D01*
G01*
G37*
G36*
G01*
X61975000Y-95435000D02*
X62175000Y-95435000D01*
G75*
G02*
X62275000Y-95535000I0J-100000D01*
G01*
X62275000Y-96810000D01*
G75*
G02*
X62175000Y-96910000I-100000J0D01*
G01*
X61975000Y-96910000D01*
G75*
G02*
X61875000Y-96810000I0J100000D01*
G01*
X61875000Y-95535000D01*
G75*
G02*
X61975000Y-95435000I100000J0D01*
G01*
G37*
G36*
G01*
X62625000Y-95435000D02*
X62825000Y-95435000D01*
G75*
G02*
X62925000Y-95535000I0J-100000D01*
G01*
X62925000Y-96810000D01*
G75*
G02*
X62825000Y-96910000I-100000J0D01*
G01*
X62625000Y-96910000D01*
G75*
G02*
X62525000Y-96810000I0J100000D01*
G01*
X62525000Y-95535000D01*
G75*
G02*
X62625000Y-95435000I100000J0D01*
G01*
G37*
G36*
G01*
X63275000Y-95435000D02*
X63475000Y-95435000D01*
G75*
G02*
X63575000Y-95535000I0J-100000D01*
G01*
X63575000Y-96810000D01*
G75*
G02*
X63475000Y-96910000I-100000J0D01*
G01*
X63275000Y-96910000D01*
G75*
G02*
X63175000Y-96810000I0J100000D01*
G01*
X63175000Y-95535000D01*
G75*
G02*
X63275000Y-95435000I100000J0D01*
G01*
G37*
G36*
G01*
X63925000Y-95435000D02*
X64125000Y-95435000D01*
G75*
G02*
X64225000Y-95535000I0J-100000D01*
G01*
X64225000Y-96810000D01*
G75*
G02*
X64125000Y-96910000I-100000J0D01*
G01*
X63925000Y-96910000D01*
G75*
G02*
X63825000Y-96810000I0J100000D01*
G01*
X63825000Y-95535000D01*
G75*
G02*
X63925000Y-95435000I100000J0D01*
G01*
G37*
G36*
G01*
X64575000Y-95435000D02*
X64775000Y-95435000D01*
G75*
G02*
X64875000Y-95535000I0J-100000D01*
G01*
X64875000Y-96810000D01*
G75*
G02*
X64775000Y-96910000I-100000J0D01*
G01*
X64575000Y-96910000D01*
G75*
G02*
X64475000Y-96810000I0J100000D01*
G01*
X64475000Y-95535000D01*
G75*
G02*
X64575000Y-95435000I100000J0D01*
G01*
G37*
%TD*%
%TO.C,U7*%
G36*
G01*
X75258000Y-136199000D02*
X75258000Y-135924000D01*
G75*
G02*
X75383000Y-135799000I125000J0D01*
G01*
X75633000Y-135799000D01*
G75*
G02*
X75758000Y-135924000I0J-125000D01*
G01*
X75758000Y-136199000D01*
G75*
G02*
X75633000Y-136324000I-125000J0D01*
G01*
X75383000Y-136324000D01*
G75*
G02*
X75258000Y-136199000I0J125000D01*
G01*
G37*
G36*
G01*
X76058000Y-136199000D02*
X76058000Y-135924000D01*
G75*
G02*
X76183000Y-135799000I125000J0D01*
G01*
X76433000Y-135799000D01*
G75*
G02*
X76558000Y-135924000I0J-125000D01*
G01*
X76558000Y-136199000D01*
G75*
G02*
X76433000Y-136324000I-125000J0D01*
G01*
X76183000Y-136324000D01*
G75*
G02*
X76058000Y-136199000I0J125000D01*
G01*
G37*
G36*
G01*
X76858000Y-136199000D02*
X76858000Y-135924000D01*
G75*
G02*
X76983000Y-135799000I125000J0D01*
G01*
X77233000Y-135799000D01*
G75*
G02*
X77358000Y-135924000I0J-125000D01*
G01*
X77358000Y-136199000D01*
G75*
G02*
X77233000Y-136324000I-125000J0D01*
G01*
X76983000Y-136324000D01*
G75*
G02*
X76858000Y-136199000I0J125000D01*
G01*
G37*
G36*
G01*
X77658000Y-136199000D02*
X77658000Y-135924000D01*
G75*
G02*
X77783000Y-135799000I125000J0D01*
G01*
X78033000Y-135799000D01*
G75*
G02*
X78158000Y-135924000I0J-125000D01*
G01*
X78158000Y-136199000D01*
G75*
G02*
X78033000Y-136324000I-125000J0D01*
G01*
X77783000Y-136324000D01*
G75*
G02*
X77658000Y-136199000I0J125000D01*
G01*
G37*
G36*
G01*
X77658000Y-133824000D02*
X77658000Y-133549000D01*
G75*
G02*
X77783000Y-133424000I125000J0D01*
G01*
X78033000Y-133424000D01*
G75*
G02*
X78158000Y-133549000I0J-125000D01*
G01*
X78158000Y-133824000D01*
G75*
G02*
X78033000Y-133949000I-125000J0D01*
G01*
X77783000Y-133949000D01*
G75*
G02*
X77658000Y-133824000I0J125000D01*
G01*
G37*
G36*
G01*
X76858000Y-133824000D02*
X76858000Y-133549000D01*
G75*
G02*
X76983000Y-133424000I125000J0D01*
G01*
X77233000Y-133424000D01*
G75*
G02*
X77358000Y-133549000I0J-125000D01*
G01*
X77358000Y-133824000D01*
G75*
G02*
X77233000Y-133949000I-125000J0D01*
G01*
X76983000Y-133949000D01*
G75*
G02*
X76858000Y-133824000I0J125000D01*
G01*
G37*
G36*
G01*
X76058000Y-133824000D02*
X76058000Y-133549000D01*
G75*
G02*
X76183000Y-133424000I125000J0D01*
G01*
X76433000Y-133424000D01*
G75*
G02*
X76558000Y-133549000I0J-125000D01*
G01*
X76558000Y-133824000D01*
G75*
G02*
X76433000Y-133949000I-125000J0D01*
G01*
X76183000Y-133949000D01*
G75*
G02*
X76058000Y-133824000I0J125000D01*
G01*
G37*
G36*
G01*
X75258000Y-133824000D02*
X75258000Y-133549000D01*
G75*
G02*
X75383000Y-133424000I125000J0D01*
G01*
X75633000Y-133424000D01*
G75*
G02*
X75758000Y-133549000I0J-125000D01*
G01*
X75758000Y-133824000D01*
G75*
G02*
X75633000Y-133949000I-125000J0D01*
G01*
X75383000Y-133949000D01*
G75*
G02*
X75258000Y-133824000I0J125000D01*
G01*
G37*
%TD*%
%TO.C,U6*%
G36*
G01*
X99357000Y-109832000D02*
X99357000Y-110132000D01*
G75*
G02*
X99207000Y-110282000I-150000J0D01*
G01*
X97757000Y-110282000D01*
G75*
G02*
X97607000Y-110132000I0J150000D01*
G01*
X97607000Y-109832000D01*
G75*
G02*
X97757000Y-109682000I150000J0D01*
G01*
X99207000Y-109682000D01*
G75*
G02*
X99357000Y-109832000I0J-150000D01*
G01*
G37*
G36*
G01*
X99357000Y-108562000D02*
X99357000Y-108862000D01*
G75*
G02*
X99207000Y-109012000I-150000J0D01*
G01*
X97757000Y-109012000D01*
G75*
G02*
X97607000Y-108862000I0J150000D01*
G01*
X97607000Y-108562000D01*
G75*
G02*
X97757000Y-108412000I150000J0D01*
G01*
X99207000Y-108412000D01*
G75*
G02*
X99357000Y-108562000I0J-150000D01*
G01*
G37*
G36*
G01*
X99357000Y-107292000D02*
X99357000Y-107592000D01*
G75*
G02*
X99207000Y-107742000I-150000J0D01*
G01*
X97757000Y-107742000D01*
G75*
G02*
X97607000Y-107592000I0J150000D01*
G01*
X97607000Y-107292000D01*
G75*
G02*
X97757000Y-107142000I150000J0D01*
G01*
X99207000Y-107142000D01*
G75*
G02*
X99357000Y-107292000I0J-150000D01*
G01*
G37*
G36*
G01*
X99357000Y-106022000D02*
X99357000Y-106322000D01*
G75*
G02*
X99207000Y-106472000I-150000J0D01*
G01*
X97757000Y-106472000D01*
G75*
G02*
X97607000Y-106322000I0J150000D01*
G01*
X97607000Y-106022000D01*
G75*
G02*
X97757000Y-105872000I150000J0D01*
G01*
X99207000Y-105872000D01*
G75*
G02*
X99357000Y-106022000I0J-150000D01*
G01*
G37*
G36*
G01*
X104507000Y-106022000D02*
X104507000Y-106322000D01*
G75*
G02*
X104357000Y-106472000I-150000J0D01*
G01*
X102907000Y-106472000D01*
G75*
G02*
X102757000Y-106322000I0J150000D01*
G01*
X102757000Y-106022000D01*
G75*
G02*
X102907000Y-105872000I150000J0D01*
G01*
X104357000Y-105872000D01*
G75*
G02*
X104507000Y-106022000I0J-150000D01*
G01*
G37*
G36*
G01*
X104507000Y-107292000D02*
X104507000Y-107592000D01*
G75*
G02*
X104357000Y-107742000I-150000J0D01*
G01*
X102907000Y-107742000D01*
G75*
G02*
X102757000Y-107592000I0J150000D01*
G01*
X102757000Y-107292000D01*
G75*
G02*
X102907000Y-107142000I150000J0D01*
G01*
X104357000Y-107142000D01*
G75*
G02*
X104507000Y-107292000I0J-150000D01*
G01*
G37*
G36*
G01*
X104507000Y-108562000D02*
X104507000Y-108862000D01*
G75*
G02*
X104357000Y-109012000I-150000J0D01*
G01*
X102907000Y-109012000D01*
G75*
G02*
X102757000Y-108862000I0J150000D01*
G01*
X102757000Y-108562000D01*
G75*
G02*
X102907000Y-108412000I150000J0D01*
G01*
X104357000Y-108412000D01*
G75*
G02*
X104507000Y-108562000I0J-150000D01*
G01*
G37*
G36*
G01*
X104507000Y-109832000D02*
X104507000Y-110132000D01*
G75*
G02*
X104357000Y-110282000I-150000J0D01*
G01*
X102907000Y-110282000D01*
G75*
G02*
X102757000Y-110132000I0J150000D01*
G01*
X102757000Y-109832000D01*
G75*
G02*
X102907000Y-109682000I150000J0D01*
G01*
X104357000Y-109682000D01*
G75*
G02*
X104507000Y-109832000I0J-150000D01*
G01*
G37*
%TD*%
D35*
%TO.C,U4*%
X145500000Y-54760000D03*
X132800000Y-62380000D03*
X145500000Y-57300000D03*
X132800000Y-59840000D03*
X145500000Y-59840000D03*
X132800000Y-57300000D03*
X145500000Y-62380000D03*
D36*
X132800000Y-54760000D03*
%TD*%
D37*
%TO.C,U2*%
X85250000Y-134195200D03*
X85250000Y-132925200D03*
X85250000Y-131655200D03*
X85250000Y-130385200D03*
X85250000Y-129115200D03*
X85250000Y-127845200D03*
X85250000Y-126575200D03*
X85250000Y-125305200D03*
X85250000Y-124035200D03*
X85250000Y-122765200D03*
X85250000Y-121495200D03*
X85250000Y-120225200D03*
X85250000Y-118955200D03*
X85250000Y-117685200D03*
D38*
X88035000Y-116685200D03*
X89305000Y-116685200D03*
X90575000Y-116685200D03*
X91845000Y-116685200D03*
X93115000Y-116685200D03*
X94385000Y-116685200D03*
X95655000Y-116685200D03*
X96925000Y-116685200D03*
X98195000Y-116685200D03*
X99465000Y-116685200D03*
D37*
X102250000Y-117685200D03*
X102250000Y-118955200D03*
X102250000Y-120225200D03*
X102250000Y-121495200D03*
X102250000Y-122765200D03*
X102250000Y-124035200D03*
X102250000Y-125305200D03*
X102250000Y-126575200D03*
X102250000Y-127845200D03*
X102250000Y-129115200D03*
X102250000Y-130385200D03*
X102250000Y-131655200D03*
X102250000Y-132925200D03*
X102250000Y-134195200D03*
D39*
X94750000Y-126695200D03*
%TD*%
D40*
%TO.C,U1*%
X72288000Y-120636000D03*
X72288000Y-125236000D03*
X72288000Y-122936000D03*
D41*
X78588000Y-122936000D03*
%TD*%
D18*
%TO.C,SW4*%
X119000000Y-103500000D03*
X110000000Y-103500000D03*
D19*
X117000000Y-110650000D03*
X117000000Y-96350000D03*
X112000000Y-96350000D03*
X112000000Y-110650000D03*
%TD*%
D18*
%TO.C,SW3*%
X110000000Y-138500000D03*
X119000000Y-138500000D03*
D19*
X112000000Y-131350000D03*
X112000000Y-145650000D03*
X117000000Y-145650000D03*
X117000000Y-131350000D03*
%TD*%
%TO.C,SW2*%
G36*
G01*
X112400000Y-129500000D02*
X111600000Y-129500000D01*
G75*
G02*
X111200000Y-129100000I0J400000D01*
G01*
X111200000Y-127900000D01*
G75*
G02*
X111600000Y-127500000I400000J0D01*
G01*
X112400000Y-127500000D01*
G75*
G02*
X112800000Y-127900000I0J-400000D01*
G01*
X112800000Y-129100000D01*
G75*
G02*
X112400000Y-129500000I-400000J0D01*
G01*
G37*
D13*
X114500000Y-128500000D03*
X117000000Y-128500000D03*
D42*
X108900000Y-121000000D03*
X120100000Y-121000000D03*
D13*
X112000000Y-114000000D03*
X117000000Y-114000000D03*
%TD*%
D18*
%TO.C,SW1*%
X129750000Y-121000000D03*
X138750000Y-121000000D03*
D19*
X131750000Y-113850000D03*
X131750000Y-128150000D03*
X136750000Y-128150000D03*
X136750000Y-113850000D03*
%TD*%
D43*
%TO.C,RV1*%
X103400000Y-82500000D03*
X94600000Y-82500000D03*
D33*
X101500000Y-89500000D03*
X99000000Y-89500000D03*
X96500000Y-89500000D03*
%TD*%
%TO.C,R37*%
G36*
G01*
X129242000Y-111485000D02*
X129242000Y-112035000D01*
G75*
G02*
X129042000Y-112235000I-200000J0D01*
G01*
X128642000Y-112235000D01*
G75*
G02*
X128442000Y-112035000I0J200000D01*
G01*
X128442000Y-111485000D01*
G75*
G02*
X128642000Y-111285000I200000J0D01*
G01*
X129042000Y-111285000D01*
G75*
G02*
X129242000Y-111485000I0J-200000D01*
G01*
G37*
G36*
G01*
X130892000Y-111485000D02*
X130892000Y-112035000D01*
G75*
G02*
X130692000Y-112235000I-200000J0D01*
G01*
X130292000Y-112235000D01*
G75*
G02*
X130092000Y-112035000I0J200000D01*
G01*
X130092000Y-111485000D01*
G75*
G02*
X130292000Y-111285000I200000J0D01*
G01*
X130692000Y-111285000D01*
G75*
G02*
X130892000Y-111485000I0J-200000D01*
G01*
G37*
%TD*%
%TO.C,R36*%
G36*
G01*
X104119000Y-127806000D02*
X104669000Y-127806000D01*
G75*
G02*
X104869000Y-128006000I0J-200000D01*
G01*
X104869000Y-128406000D01*
G75*
G02*
X104669000Y-128606000I-200000J0D01*
G01*
X104119000Y-128606000D01*
G75*
G02*
X103919000Y-128406000I0J200000D01*
G01*
X103919000Y-128006000D01*
G75*
G02*
X104119000Y-127806000I200000J0D01*
G01*
G37*
G36*
G01*
X104119000Y-126156000D02*
X104669000Y-126156000D01*
G75*
G02*
X104869000Y-126356000I0J-200000D01*
G01*
X104869000Y-126756000D01*
G75*
G02*
X104669000Y-126956000I-200000J0D01*
G01*
X104119000Y-126956000D01*
G75*
G02*
X103919000Y-126756000I0J200000D01*
G01*
X103919000Y-126356000D01*
G75*
G02*
X104119000Y-126156000I200000J0D01*
G01*
G37*
%TD*%
%TO.C,R35*%
G36*
G01*
X65107000Y-83245000D02*
X65107000Y-83795000D01*
G75*
G02*
X64907000Y-83995000I-200000J0D01*
G01*
X64507000Y-83995000D01*
G75*
G02*
X64307000Y-83795000I0J200000D01*
G01*
X64307000Y-83245000D01*
G75*
G02*
X64507000Y-83045000I200000J0D01*
G01*
X64907000Y-83045000D01*
G75*
G02*
X65107000Y-83245000I0J-200000D01*
G01*
G37*
G36*
G01*
X66757000Y-83245000D02*
X66757000Y-83795000D01*
G75*
G02*
X66557000Y-83995000I-200000J0D01*
G01*
X66157000Y-83995000D01*
G75*
G02*
X65957000Y-83795000I0J200000D01*
G01*
X65957000Y-83245000D01*
G75*
G02*
X66157000Y-83045000I200000J0D01*
G01*
X66557000Y-83045000D01*
G75*
G02*
X66757000Y-83245000I0J-200000D01*
G01*
G37*
%TD*%
%TO.C,R34*%
G36*
G01*
X65957000Y-85395000D02*
X65957000Y-84845000D01*
G75*
G02*
X66157000Y-84645000I200000J0D01*
G01*
X66557000Y-84645000D01*
G75*
G02*
X66757000Y-84845000I0J-200000D01*
G01*
X66757000Y-85395000D01*
G75*
G02*
X66557000Y-85595000I-200000J0D01*
G01*
X66157000Y-85595000D01*
G75*
G02*
X65957000Y-85395000I0J200000D01*
G01*
G37*
G36*
G01*
X64307000Y-85395000D02*
X64307000Y-84845000D01*
G75*
G02*
X64507000Y-84645000I200000J0D01*
G01*
X64907000Y-84645000D01*
G75*
G02*
X65107000Y-84845000I0J-200000D01*
G01*
X65107000Y-85395000D01*
G75*
G02*
X64907000Y-85595000I-200000J0D01*
G01*
X64507000Y-85595000D01*
G75*
G02*
X64307000Y-85395000I0J200000D01*
G01*
G37*
%TD*%
%TO.C,R32*%
G36*
G01*
X79800000Y-96795000D02*
X79800000Y-96245000D01*
G75*
G02*
X80000000Y-96045000I200000J0D01*
G01*
X80400000Y-96045000D01*
G75*
G02*
X80600000Y-96245000I0J-200000D01*
G01*
X80600000Y-96795000D01*
G75*
G02*
X80400000Y-96995000I-200000J0D01*
G01*
X80000000Y-96995000D01*
G75*
G02*
X79800000Y-96795000I0J200000D01*
G01*
G37*
G36*
G01*
X78150000Y-96795000D02*
X78150000Y-96245000D01*
G75*
G02*
X78350000Y-96045000I200000J0D01*
G01*
X78750000Y-96045000D01*
G75*
G02*
X78950000Y-96245000I0J-200000D01*
G01*
X78950000Y-96795000D01*
G75*
G02*
X78750000Y-96995000I-200000J0D01*
G01*
X78350000Y-96995000D01*
G75*
G02*
X78150000Y-96795000I0J200000D01*
G01*
G37*
%TD*%
%TO.C,R31*%
G36*
G01*
X80412000Y-98889000D02*
X79862000Y-98889000D01*
G75*
G02*
X79662000Y-98689000I0J200000D01*
G01*
X79662000Y-98289000D01*
G75*
G02*
X79862000Y-98089000I200000J0D01*
G01*
X80412000Y-98089000D01*
G75*
G02*
X80612000Y-98289000I0J-200000D01*
G01*
X80612000Y-98689000D01*
G75*
G02*
X80412000Y-98889000I-200000J0D01*
G01*
G37*
G36*
G01*
X80412000Y-100539000D02*
X79862000Y-100539000D01*
G75*
G02*
X79662000Y-100339000I0J200000D01*
G01*
X79662000Y-99939000D01*
G75*
G02*
X79862000Y-99739000I200000J0D01*
G01*
X80412000Y-99739000D01*
G75*
G02*
X80612000Y-99939000I0J-200000D01*
G01*
X80612000Y-100339000D01*
G75*
G02*
X80412000Y-100539000I-200000J0D01*
G01*
G37*
%TD*%
%TO.C,R30*%
G36*
G01*
X67045000Y-71129999D02*
X67045000Y-72380001D01*
G75*
G02*
X66795001Y-72630000I-249999J0D01*
G01*
X66169999Y-72630000D01*
G75*
G02*
X65920000Y-72380001I0J249999D01*
G01*
X65920000Y-71129999D01*
G75*
G02*
X66169999Y-70880000I249999J0D01*
G01*
X66795001Y-70880000D01*
G75*
G02*
X67045000Y-71129999I0J-249999D01*
G01*
G37*
G36*
G01*
X69970000Y-71129999D02*
X69970000Y-72380001D01*
G75*
G02*
X69720001Y-72630000I-249999J0D01*
G01*
X69094999Y-72630000D01*
G75*
G02*
X68845000Y-72380001I0J249999D01*
G01*
X68845000Y-71129999D01*
G75*
G02*
X69094999Y-70880000I249999J0D01*
G01*
X69720001Y-70880000D01*
G75*
G02*
X69970000Y-71129999I0J-249999D01*
G01*
G37*
%TD*%
%TO.C,R29*%
G36*
G01*
X61297000Y-76941000D02*
X61297000Y-77491000D01*
G75*
G02*
X61097000Y-77691000I-200000J0D01*
G01*
X60697000Y-77691000D01*
G75*
G02*
X60497000Y-77491000I0J200000D01*
G01*
X60497000Y-76941000D01*
G75*
G02*
X60697000Y-76741000I200000J0D01*
G01*
X61097000Y-76741000D01*
G75*
G02*
X61297000Y-76941000I0J-200000D01*
G01*
G37*
G36*
G01*
X62947000Y-76941000D02*
X62947000Y-77491000D01*
G75*
G02*
X62747000Y-77691000I-200000J0D01*
G01*
X62347000Y-77691000D01*
G75*
G02*
X62147000Y-77491000I0J200000D01*
G01*
X62147000Y-76941000D01*
G75*
G02*
X62347000Y-76741000I200000J0D01*
G01*
X62747000Y-76741000D01*
G75*
G02*
X62947000Y-76941000I0J-200000D01*
G01*
G37*
%TD*%
%TO.C,R28*%
G36*
G01*
X65830000Y-77491000D02*
X65830000Y-76941000D01*
G75*
G02*
X66030000Y-76741000I200000J0D01*
G01*
X66430000Y-76741000D01*
G75*
G02*
X66630000Y-76941000I0J-200000D01*
G01*
X66630000Y-77491000D01*
G75*
G02*
X66430000Y-77691000I-200000J0D01*
G01*
X66030000Y-77691000D01*
G75*
G02*
X65830000Y-77491000I0J200000D01*
G01*
G37*
G36*
G01*
X64180000Y-77491000D02*
X64180000Y-76941000D01*
G75*
G02*
X64380000Y-76741000I200000J0D01*
G01*
X64780000Y-76741000D01*
G75*
G02*
X64980000Y-76941000I0J-200000D01*
G01*
X64980000Y-77491000D01*
G75*
G02*
X64780000Y-77691000I-200000J0D01*
G01*
X64380000Y-77691000D01*
G75*
G02*
X64180000Y-77491000I0J200000D01*
G01*
G37*
%TD*%
%TO.C,R27*%
G36*
G01*
X76029000Y-101325000D02*
X76029000Y-101875000D01*
G75*
G02*
X75829000Y-102075000I-200000J0D01*
G01*
X75429000Y-102075000D01*
G75*
G02*
X75229000Y-101875000I0J200000D01*
G01*
X75229000Y-101325000D01*
G75*
G02*
X75429000Y-101125000I200000J0D01*
G01*
X75829000Y-101125000D01*
G75*
G02*
X76029000Y-101325000I0J-200000D01*
G01*
G37*
G36*
G01*
X77679000Y-101325000D02*
X77679000Y-101875000D01*
G75*
G02*
X77479000Y-102075000I-200000J0D01*
G01*
X77079000Y-102075000D01*
G75*
G02*
X76879000Y-101875000I0J200000D01*
G01*
X76879000Y-101325000D01*
G75*
G02*
X77079000Y-101125000I200000J0D01*
G01*
X77479000Y-101125000D01*
G75*
G02*
X77679000Y-101325000I0J-200000D01*
G01*
G37*
%TD*%
%TO.C,R26*%
G36*
G01*
X76879000Y-103399000D02*
X76879000Y-102849000D01*
G75*
G02*
X77079000Y-102649000I200000J0D01*
G01*
X77479000Y-102649000D01*
G75*
G02*
X77679000Y-102849000I0J-200000D01*
G01*
X77679000Y-103399000D01*
G75*
G02*
X77479000Y-103599000I-200000J0D01*
G01*
X77079000Y-103599000D01*
G75*
G02*
X76879000Y-103399000I0J200000D01*
G01*
G37*
G36*
G01*
X75229000Y-103399000D02*
X75229000Y-102849000D01*
G75*
G02*
X75429000Y-102649000I200000J0D01*
G01*
X75829000Y-102649000D01*
G75*
G02*
X76029000Y-102849000I0J-200000D01*
G01*
X76029000Y-103399000D01*
G75*
G02*
X75829000Y-103599000I-200000J0D01*
G01*
X75429000Y-103599000D01*
G75*
G02*
X75229000Y-103399000I0J200000D01*
G01*
G37*
%TD*%
%TO.C,R25*%
G36*
G01*
X142025000Y-141325000D02*
X141475000Y-141325000D01*
G75*
G02*
X141275000Y-141125000I0J200000D01*
G01*
X141275000Y-140725000D01*
G75*
G02*
X141475000Y-140525000I200000J0D01*
G01*
X142025000Y-140525000D01*
G75*
G02*
X142225000Y-140725000I0J-200000D01*
G01*
X142225000Y-141125000D01*
G75*
G02*
X142025000Y-141325000I-200000J0D01*
G01*
G37*
G36*
G01*
X142025000Y-142975000D02*
X141475000Y-142975000D01*
G75*
G02*
X141275000Y-142775000I0J200000D01*
G01*
X141275000Y-142375000D01*
G75*
G02*
X141475000Y-142175000I200000J0D01*
G01*
X142025000Y-142175000D01*
G75*
G02*
X142225000Y-142375000I0J-200000D01*
G01*
X142225000Y-142775000D01*
G75*
G02*
X142025000Y-142975000I-200000J0D01*
G01*
G37*
%TD*%
%TO.C,R24*%
G36*
G01*
X142025000Y-144825000D02*
X141475000Y-144825000D01*
G75*
G02*
X141275000Y-144625000I0J200000D01*
G01*
X141275000Y-144225000D01*
G75*
G02*
X141475000Y-144025000I200000J0D01*
G01*
X142025000Y-144025000D01*
G75*
G02*
X142225000Y-144225000I0J-200000D01*
G01*
X142225000Y-144625000D01*
G75*
G02*
X142025000Y-144825000I-200000J0D01*
G01*
G37*
G36*
G01*
X142025000Y-146475000D02*
X141475000Y-146475000D01*
G75*
G02*
X141275000Y-146275000I0J200000D01*
G01*
X141275000Y-145875000D01*
G75*
G02*
X141475000Y-145675000I200000J0D01*
G01*
X142025000Y-145675000D01*
G75*
G02*
X142225000Y-145875000I0J-200000D01*
G01*
X142225000Y-146275000D01*
G75*
G02*
X142025000Y-146475000I-200000J0D01*
G01*
G37*
%TD*%
%TO.C,R23*%
G36*
G01*
X106597000Y-114067000D02*
X106597000Y-113517000D01*
G75*
G02*
X106797000Y-113317000I200000J0D01*
G01*
X107197000Y-113317000D01*
G75*
G02*
X107397000Y-113517000I0J-200000D01*
G01*
X107397000Y-114067000D01*
G75*
G02*
X107197000Y-114267000I-200000J0D01*
G01*
X106797000Y-114267000D01*
G75*
G02*
X106597000Y-114067000I0J200000D01*
G01*
G37*
G36*
G01*
X104947000Y-114067000D02*
X104947000Y-113517000D01*
G75*
G02*
X105147000Y-113317000I200000J0D01*
G01*
X105547000Y-113317000D01*
G75*
G02*
X105747000Y-113517000I0J-200000D01*
G01*
X105747000Y-114067000D01*
G75*
G02*
X105547000Y-114267000I-200000J0D01*
G01*
X105147000Y-114267000D01*
G75*
G02*
X104947000Y-114067000I0J200000D01*
G01*
G37*
%TD*%
%TO.C,R20*%
G36*
G01*
X106193000Y-130131000D02*
X105643000Y-130131000D01*
G75*
G02*
X105443000Y-129931000I0J200000D01*
G01*
X105443000Y-129531000D01*
G75*
G02*
X105643000Y-129331000I200000J0D01*
G01*
X106193000Y-129331000D01*
G75*
G02*
X106393000Y-129531000I0J-200000D01*
G01*
X106393000Y-129931000D01*
G75*
G02*
X106193000Y-130131000I-200000J0D01*
G01*
G37*
G36*
G01*
X106193000Y-131781000D02*
X105643000Y-131781000D01*
G75*
G02*
X105443000Y-131581000I0J200000D01*
G01*
X105443000Y-131181000D01*
G75*
G02*
X105643000Y-130981000I200000J0D01*
G01*
X106193000Y-130981000D01*
G75*
G02*
X106393000Y-131181000I0J-200000D01*
G01*
X106393000Y-131581000D01*
G75*
G02*
X106193000Y-131781000I-200000J0D01*
G01*
G37*
%TD*%
%TO.C,R19*%
G36*
G01*
X61479000Y-61458001D02*
X61479000Y-60207999D01*
G75*
G02*
X61728999Y-59958000I249999J0D01*
G01*
X62354001Y-59958000D01*
G75*
G02*
X62604000Y-60207999I0J-249999D01*
G01*
X62604000Y-61458001D01*
G75*
G02*
X62354001Y-61708000I-249999J0D01*
G01*
X61728999Y-61708000D01*
G75*
G02*
X61479000Y-61458001I0J249999D01*
G01*
G37*
G36*
G01*
X58554000Y-61458001D02*
X58554000Y-60207999D01*
G75*
G02*
X58803999Y-59958000I249999J0D01*
G01*
X59429001Y-59958000D01*
G75*
G02*
X59679000Y-60207999I0J-249999D01*
G01*
X59679000Y-61458001D01*
G75*
G02*
X59429001Y-61708000I-249999J0D01*
G01*
X58803999Y-61708000D01*
G75*
G02*
X58554000Y-61458001I0J249999D01*
G01*
G37*
%TD*%
%TO.C,R17*%
G36*
G01*
X107167000Y-130981000D02*
X107717000Y-130981000D01*
G75*
G02*
X107917000Y-131181000I0J-200000D01*
G01*
X107917000Y-131581000D01*
G75*
G02*
X107717000Y-131781000I-200000J0D01*
G01*
X107167000Y-131781000D01*
G75*
G02*
X106967000Y-131581000I0J200000D01*
G01*
X106967000Y-131181000D01*
G75*
G02*
X107167000Y-130981000I200000J0D01*
G01*
G37*
G36*
G01*
X107167000Y-129331000D02*
X107717000Y-129331000D01*
G75*
G02*
X107917000Y-129531000I0J-200000D01*
G01*
X107917000Y-129931000D01*
G75*
G02*
X107717000Y-130131000I-200000J0D01*
G01*
X107167000Y-130131000D01*
G75*
G02*
X106967000Y-129931000I0J200000D01*
G01*
X106967000Y-129531000D01*
G75*
G02*
X107167000Y-129331000I200000J0D01*
G01*
G37*
%TD*%
%TO.C,R16*%
G36*
G01*
X132482000Y-68028000D02*
X131932000Y-68028000D01*
G75*
G02*
X131732000Y-67828000I0J200000D01*
G01*
X131732000Y-67428000D01*
G75*
G02*
X131932000Y-67228000I200000J0D01*
G01*
X132482000Y-67228000D01*
G75*
G02*
X132682000Y-67428000I0J-200000D01*
G01*
X132682000Y-67828000D01*
G75*
G02*
X132482000Y-68028000I-200000J0D01*
G01*
G37*
G36*
G01*
X132482000Y-69678000D02*
X131932000Y-69678000D01*
G75*
G02*
X131732000Y-69478000I0J200000D01*
G01*
X131732000Y-69078000D01*
G75*
G02*
X131932000Y-68878000I200000J0D01*
G01*
X132482000Y-68878000D01*
G75*
G02*
X132682000Y-69078000I0J-200000D01*
G01*
X132682000Y-69478000D01*
G75*
G02*
X132482000Y-69678000I-200000J0D01*
G01*
G37*
%TD*%
%TO.C,R15*%
G36*
G01*
X129559000Y-67416000D02*
X129559000Y-67966000D01*
G75*
G02*
X129359000Y-68166000I-200000J0D01*
G01*
X128959000Y-68166000D01*
G75*
G02*
X128759000Y-67966000I0J200000D01*
G01*
X128759000Y-67416000D01*
G75*
G02*
X128959000Y-67216000I200000J0D01*
G01*
X129359000Y-67216000D01*
G75*
G02*
X129559000Y-67416000I0J-200000D01*
G01*
G37*
G36*
G01*
X131209000Y-67416000D02*
X131209000Y-67966000D01*
G75*
G02*
X131009000Y-68166000I-200000J0D01*
G01*
X130609000Y-68166000D01*
G75*
G02*
X130409000Y-67966000I0J200000D01*
G01*
X130409000Y-67416000D01*
G75*
G02*
X130609000Y-67216000I200000J0D01*
G01*
X131009000Y-67216000D01*
G75*
G02*
X131209000Y-67416000I0J-200000D01*
G01*
G37*
%TD*%
%TO.C,R14*%
G36*
G01*
X129242000Y-109961000D02*
X129242000Y-110511000D01*
G75*
G02*
X129042000Y-110711000I-200000J0D01*
G01*
X128642000Y-110711000D01*
G75*
G02*
X128442000Y-110511000I0J200000D01*
G01*
X128442000Y-109961000D01*
G75*
G02*
X128642000Y-109761000I200000J0D01*
G01*
X129042000Y-109761000D01*
G75*
G02*
X129242000Y-109961000I0J-200000D01*
G01*
G37*
G36*
G01*
X130892000Y-109961000D02*
X130892000Y-110511000D01*
G75*
G02*
X130692000Y-110711000I-200000J0D01*
G01*
X130292000Y-110711000D01*
G75*
G02*
X130092000Y-110511000I0J200000D01*
G01*
X130092000Y-109961000D01*
G75*
G02*
X130292000Y-109761000I200000J0D01*
G01*
X130692000Y-109761000D01*
G75*
G02*
X130892000Y-109961000I0J-200000D01*
G01*
G37*
%TD*%
%TO.C,R13*%
G36*
G01*
X77110000Y-107144000D02*
X76560000Y-107144000D01*
G75*
G02*
X76360000Y-106944000I0J200000D01*
G01*
X76360000Y-106544000D01*
G75*
G02*
X76560000Y-106344000I200000J0D01*
G01*
X77110000Y-106344000D01*
G75*
G02*
X77310000Y-106544000I0J-200000D01*
G01*
X77310000Y-106944000D01*
G75*
G02*
X77110000Y-107144000I-200000J0D01*
G01*
G37*
G36*
G01*
X77110000Y-108794000D02*
X76560000Y-108794000D01*
G75*
G02*
X76360000Y-108594000I0J200000D01*
G01*
X76360000Y-108194000D01*
G75*
G02*
X76560000Y-107994000I200000J0D01*
G01*
X77110000Y-107994000D01*
G75*
G02*
X77310000Y-108194000I0J-200000D01*
G01*
X77310000Y-108594000D01*
G75*
G02*
X77110000Y-108794000I-200000J0D01*
G01*
G37*
%TD*%
%TO.C,R12*%
G36*
G01*
X79839000Y-108056000D02*
X79839000Y-108606000D01*
G75*
G02*
X79639000Y-108806000I-200000J0D01*
G01*
X79239000Y-108806000D01*
G75*
G02*
X79039000Y-108606000I0J200000D01*
G01*
X79039000Y-108056000D01*
G75*
G02*
X79239000Y-107856000I200000J0D01*
G01*
X79639000Y-107856000D01*
G75*
G02*
X79839000Y-108056000I0J-200000D01*
G01*
G37*
G36*
G01*
X81489000Y-108056000D02*
X81489000Y-108606000D01*
G75*
G02*
X81289000Y-108806000I-200000J0D01*
G01*
X80889000Y-108806000D01*
G75*
G02*
X80689000Y-108606000I0J200000D01*
G01*
X80689000Y-108056000D01*
G75*
G02*
X80889000Y-107856000I200000J0D01*
G01*
X81289000Y-107856000D01*
G75*
G02*
X81489000Y-108056000I0J-200000D01*
G01*
G37*
%TD*%
%TO.C,R9*%
G36*
G01*
X63710000Y-103738000D02*
X63710000Y-104288000D01*
G75*
G02*
X63510000Y-104488000I-200000J0D01*
G01*
X63110000Y-104488000D01*
G75*
G02*
X62910000Y-104288000I0J200000D01*
G01*
X62910000Y-103738000D01*
G75*
G02*
X63110000Y-103538000I200000J0D01*
G01*
X63510000Y-103538000D01*
G75*
G02*
X63710000Y-103738000I0J-200000D01*
G01*
G37*
G36*
G01*
X65360000Y-103738000D02*
X65360000Y-104288000D01*
G75*
G02*
X65160000Y-104488000I-200000J0D01*
G01*
X64760000Y-104488000D01*
G75*
G02*
X64560000Y-104288000I0J200000D01*
G01*
X64560000Y-103738000D01*
G75*
G02*
X64760000Y-103538000I200000J0D01*
G01*
X65160000Y-103538000D01*
G75*
G02*
X65360000Y-103738000I0J-200000D01*
G01*
G37*
%TD*%
%TO.C,R8*%
G36*
G01*
X81617000Y-130027000D02*
X81617000Y-130577000D01*
G75*
G02*
X81417000Y-130777000I-200000J0D01*
G01*
X81017000Y-130777000D01*
G75*
G02*
X80817000Y-130577000I0J200000D01*
G01*
X80817000Y-130027000D01*
G75*
G02*
X81017000Y-129827000I200000J0D01*
G01*
X81417000Y-129827000D01*
G75*
G02*
X81617000Y-130027000I0J-200000D01*
G01*
G37*
G36*
G01*
X83267000Y-130027000D02*
X83267000Y-130577000D01*
G75*
G02*
X83067000Y-130777000I-200000J0D01*
G01*
X82667000Y-130777000D01*
G75*
G02*
X82467000Y-130577000I0J200000D01*
G01*
X82467000Y-130027000D01*
G75*
G02*
X82667000Y-129827000I200000J0D01*
G01*
X83067000Y-129827000D01*
G75*
G02*
X83267000Y-130027000I0J-200000D01*
G01*
G37*
%TD*%
%TO.C,R6*%
G36*
G01*
X62694000Y-132186000D02*
X62694000Y-132736000D01*
G75*
G02*
X62494000Y-132936000I-200000J0D01*
G01*
X62094000Y-132936000D01*
G75*
G02*
X61894000Y-132736000I0J200000D01*
G01*
X61894000Y-132186000D01*
G75*
G02*
X62094000Y-131986000I200000J0D01*
G01*
X62494000Y-131986000D01*
G75*
G02*
X62694000Y-132186000I0J-200000D01*
G01*
G37*
G36*
G01*
X64344000Y-132186000D02*
X64344000Y-132736000D01*
G75*
G02*
X64144000Y-132936000I-200000J0D01*
G01*
X63744000Y-132936000D01*
G75*
G02*
X63544000Y-132736000I0J200000D01*
G01*
X63544000Y-132186000D01*
G75*
G02*
X63744000Y-131986000I200000J0D01*
G01*
X64144000Y-131986000D01*
G75*
G02*
X64344000Y-132186000I0J-200000D01*
G01*
G37*
%TD*%
%TO.C,R5*%
G36*
G01*
X76283000Y-132059000D02*
X76283000Y-132609000D01*
G75*
G02*
X76083000Y-132809000I-200000J0D01*
G01*
X75683000Y-132809000D01*
G75*
G02*
X75483000Y-132609000I0J200000D01*
G01*
X75483000Y-132059000D01*
G75*
G02*
X75683000Y-131859000I200000J0D01*
G01*
X76083000Y-131859000D01*
G75*
G02*
X76283000Y-132059000I0J-200000D01*
G01*
G37*
G36*
G01*
X77933000Y-132059000D02*
X77933000Y-132609000D01*
G75*
G02*
X77733000Y-132809000I-200000J0D01*
G01*
X77333000Y-132809000D01*
G75*
G02*
X77133000Y-132609000I0J200000D01*
G01*
X77133000Y-132059000D01*
G75*
G02*
X77333000Y-131859000I200000J0D01*
G01*
X77733000Y-131859000D01*
G75*
G02*
X77933000Y-132059000I0J-200000D01*
G01*
G37*
%TD*%
%TO.C,R4*%
G36*
G01*
X127106000Y-70529000D02*
X127656000Y-70529000D01*
G75*
G02*
X127856000Y-70729000I0J-200000D01*
G01*
X127856000Y-71129000D01*
G75*
G02*
X127656000Y-71329000I-200000J0D01*
G01*
X127106000Y-71329000D01*
G75*
G02*
X126906000Y-71129000I0J200000D01*
G01*
X126906000Y-70729000D01*
G75*
G02*
X127106000Y-70529000I200000J0D01*
G01*
G37*
G36*
G01*
X127106000Y-68879000D02*
X127656000Y-68879000D01*
G75*
G02*
X127856000Y-69079000I0J-200000D01*
G01*
X127856000Y-69479000D01*
G75*
G02*
X127656000Y-69679000I-200000J0D01*
G01*
X127106000Y-69679000D01*
G75*
G02*
X126906000Y-69479000I0J200000D01*
G01*
X126906000Y-69079000D01*
G75*
G02*
X127106000Y-68879000I200000J0D01*
G01*
G37*
%TD*%
D44*
%TO.C,Q9*%
X64532000Y-80899000D03*
X66532000Y-79949000D03*
X66532000Y-81849000D03*
%TD*%
D45*
%TO.C,Q8*%
X84201000Y-94869000D03*
X84201000Y-92329000D03*
D46*
X84201000Y-89789000D03*
D47*
X67541000Y-92329000D03*
%TD*%
D25*
%TO.C,Q7*%
X61849000Y-75676000D03*
X60899000Y-73676000D03*
X62799000Y-73676000D03*
%TD*%
D44*
%TO.C,Q5*%
X135747000Y-68453000D03*
X133747000Y-69403000D03*
X133747000Y-67503000D03*
%TD*%
%TO.C,Q4*%
X130540000Y-107696000D03*
X128540000Y-108646000D03*
X128540000Y-106746000D03*
%TD*%
%TO.C,Q3*%
X67929000Y-99060000D03*
X65929000Y-100010000D03*
X65929000Y-98110000D03*
%TD*%
%TO.C,Q1*%
X65421000Y-129921000D03*
X67421000Y-128971000D03*
X67421000Y-130871000D03*
%TD*%
D28*
%TO.C,K3*%
X132390000Y-103515000D03*
X132390000Y-106715000D03*
X132390000Y-108915000D03*
X132390000Y-111115000D03*
X139390000Y-111115000D03*
X139390000Y-108915000D03*
X139390000Y-106715000D03*
X139390000Y-103515000D03*
%TD*%
%TO.C,K1*%
X132390000Y-82179000D03*
X132390000Y-85379000D03*
X132390000Y-87579000D03*
X132390000Y-89779000D03*
X139390000Y-89779000D03*
X139390000Y-87579000D03*
X139390000Y-85379000D03*
X139390000Y-82179000D03*
%TD*%
D15*
%TO.C,JP7*%
G36*
X86118602Y-94092000D02*
G01*
X86118602Y-94067466D01*
X86123412Y-94018635D01*
X86132984Y-93970510D01*
X86147228Y-93923555D01*
X86166005Y-93878222D01*
X86189136Y-93834949D01*
X86216396Y-93794150D01*
X86247524Y-93756221D01*
X86282221Y-93721524D01*
X86320150Y-93690396D01*
X86360949Y-93663136D01*
X86404222Y-93640005D01*
X86449555Y-93621228D01*
X86496510Y-93606984D01*
X86544635Y-93597412D01*
X86593466Y-93592602D01*
X86618000Y-93592602D01*
X86618000Y-93592000D01*
X87118000Y-93592000D01*
X87118000Y-93592602D01*
X87142534Y-93592602D01*
X87191365Y-93597412D01*
X87239490Y-93606984D01*
X87286445Y-93621228D01*
X87331778Y-93640005D01*
X87375051Y-93663136D01*
X87415850Y-93690396D01*
X87453779Y-93721524D01*
X87488476Y-93756221D01*
X87519604Y-93794150D01*
X87546864Y-93834949D01*
X87569995Y-93878222D01*
X87588772Y-93923555D01*
X87603016Y-93970510D01*
X87612588Y-94018635D01*
X87617398Y-94067466D01*
X87617398Y-94092000D01*
X87618000Y-94092000D01*
X87618000Y-94592000D01*
X86118000Y-94592000D01*
X86118000Y-94092000D01*
X86118602Y-94092000D01*
G37*
G36*
X87618000Y-94892000D02*
G01*
X87618000Y-95392000D01*
X87617398Y-95392000D01*
X87617398Y-95416534D01*
X87612588Y-95465365D01*
X87603016Y-95513490D01*
X87588772Y-95560445D01*
X87569995Y-95605778D01*
X87546864Y-95649051D01*
X87519604Y-95689850D01*
X87488476Y-95727779D01*
X87453779Y-95762476D01*
X87415850Y-95793604D01*
X87375051Y-95820864D01*
X87331778Y-95843995D01*
X87286445Y-95862772D01*
X87239490Y-95877016D01*
X87191365Y-95886588D01*
X87142534Y-95891398D01*
X87118000Y-95891398D01*
X87118000Y-95892000D01*
X86618000Y-95892000D01*
X86618000Y-95891398D01*
X86593466Y-95891398D01*
X86544635Y-95886588D01*
X86496510Y-95877016D01*
X86449555Y-95862772D01*
X86404222Y-95843995D01*
X86360949Y-95820864D01*
X86320150Y-95793604D01*
X86282221Y-95762476D01*
X86247524Y-95727779D01*
X86216396Y-95689850D01*
X86189136Y-95649051D01*
X86166005Y-95605778D01*
X86147228Y-95560445D01*
X86132984Y-95513490D01*
X86123412Y-95465365D01*
X86118602Y-95416534D01*
X86118602Y-95392000D01*
X86118000Y-95392000D01*
X86118000Y-94892000D01*
X87618000Y-94892000D01*
G37*
%TD*%
%TO.C,JP6*%
G36*
X90182602Y-94600000D02*
G01*
X90182602Y-94575466D01*
X90187412Y-94526635D01*
X90196984Y-94478510D01*
X90211228Y-94431555D01*
X90230005Y-94386222D01*
X90253136Y-94342949D01*
X90280396Y-94302150D01*
X90311524Y-94264221D01*
X90346221Y-94229524D01*
X90384150Y-94198396D01*
X90424949Y-94171136D01*
X90468222Y-94148005D01*
X90513555Y-94129228D01*
X90560510Y-94114984D01*
X90608635Y-94105412D01*
X90657466Y-94100602D01*
X90682000Y-94100602D01*
X90682000Y-94100000D01*
X91182000Y-94100000D01*
X91182000Y-94100602D01*
X91206534Y-94100602D01*
X91255365Y-94105412D01*
X91303490Y-94114984D01*
X91350445Y-94129228D01*
X91395778Y-94148005D01*
X91439051Y-94171136D01*
X91479850Y-94198396D01*
X91517779Y-94229524D01*
X91552476Y-94264221D01*
X91583604Y-94302150D01*
X91610864Y-94342949D01*
X91633995Y-94386222D01*
X91652772Y-94431555D01*
X91667016Y-94478510D01*
X91676588Y-94526635D01*
X91681398Y-94575466D01*
X91681398Y-94600000D01*
X91682000Y-94600000D01*
X91682000Y-95100000D01*
X90182000Y-95100000D01*
X90182000Y-94600000D01*
X90182602Y-94600000D01*
G37*
G36*
X91682000Y-95400000D02*
G01*
X91682000Y-95900000D01*
X91681398Y-95900000D01*
X91681398Y-95924534D01*
X91676588Y-95973365D01*
X91667016Y-96021490D01*
X91652772Y-96068445D01*
X91633995Y-96113778D01*
X91610864Y-96157051D01*
X91583604Y-96197850D01*
X91552476Y-96235779D01*
X91517779Y-96270476D01*
X91479850Y-96301604D01*
X91439051Y-96328864D01*
X91395778Y-96351995D01*
X91350445Y-96370772D01*
X91303490Y-96385016D01*
X91255365Y-96394588D01*
X91206534Y-96399398D01*
X91182000Y-96399398D01*
X91182000Y-96400000D01*
X90682000Y-96400000D01*
X90682000Y-96399398D01*
X90657466Y-96399398D01*
X90608635Y-96394588D01*
X90560510Y-96385016D01*
X90513555Y-96370772D01*
X90468222Y-96351995D01*
X90424949Y-96328864D01*
X90384150Y-96301604D01*
X90346221Y-96270476D01*
X90311524Y-96235779D01*
X90280396Y-96197850D01*
X90253136Y-96157051D01*
X90230005Y-96113778D01*
X90211228Y-96068445D01*
X90196984Y-96021490D01*
X90187412Y-95973365D01*
X90182602Y-95924534D01*
X90182602Y-95900000D01*
X90182000Y-95900000D01*
X90182000Y-95400000D01*
X91682000Y-95400000D01*
G37*
%TD*%
D48*
%TO.C,JP2*%
X61976000Y-86106000D03*
X61976000Y-83566000D03*
D49*
X61976000Y-81026000D03*
%TD*%
D48*
%TO.C,JP1*%
X70485000Y-102743000D03*
D49*
X73025000Y-102743000D03*
%TD*%
D50*
%TO.C,J14*%
X103000000Y-51800000D03*
D51*
X100175000Y-52000000D03*
X105825000Y-52000000D03*
%TD*%
D48*
%TO.C,J13*%
X122682000Y-96266000D03*
D49*
X122682000Y-98806000D03*
%TD*%
D48*
%TO.C,J12*%
X142460000Y-138250000D03*
X145000000Y-138250000D03*
X142460000Y-135710000D03*
X145000000Y-135710000D03*
X142460000Y-133170000D03*
X145000000Y-133170000D03*
X142460000Y-130630000D03*
X145000000Y-130630000D03*
X142460000Y-128090000D03*
X145000000Y-128090000D03*
X142460000Y-125550000D03*
X145000000Y-125550000D03*
X142460000Y-123010000D03*
X145000000Y-123010000D03*
X142460000Y-120470000D03*
X145000000Y-120470000D03*
X142460000Y-117930000D03*
X145000000Y-117930000D03*
X142460000Y-115390000D03*
X145000000Y-115390000D03*
X142460000Y-112850000D03*
X145000000Y-112850000D03*
X142460000Y-110310000D03*
X145000000Y-110310000D03*
X142460000Y-107770000D03*
X145000000Y-107770000D03*
X142460000Y-105230000D03*
X145000000Y-105230000D03*
X142460000Y-102690000D03*
X145000000Y-102690000D03*
X142460000Y-100150000D03*
X145000000Y-100150000D03*
X142460000Y-97610000D03*
X145000000Y-97610000D03*
X142460000Y-95070000D03*
X145000000Y-95070000D03*
X142460000Y-92530000D03*
X145000000Y-92530000D03*
X142460000Y-89990000D03*
X145000000Y-89990000D03*
X142460000Y-87450000D03*
X145000000Y-87450000D03*
X142460000Y-84910000D03*
X145000000Y-84910000D03*
X142460000Y-82370000D03*
X145000000Y-82370000D03*
X142460000Y-79830000D03*
X145000000Y-79830000D03*
X142460000Y-77290000D03*
D49*
X145000000Y-77290000D03*
%TD*%
D52*
%TO.C,J11*%
X57023000Y-86233000D03*
X57023000Y-83693000D03*
D53*
X57023000Y-81153000D03*
%TD*%
D52*
%TO.C,J10*%
X57023000Y-77470000D03*
X57023000Y-74930000D03*
D53*
X57023000Y-72390000D03*
%TD*%
D48*
%TO.C,J9*%
X55372000Y-60706000D03*
X55372000Y-63246000D03*
X55372000Y-65786000D03*
D49*
X55372000Y-68326000D03*
%TD*%
D54*
%TO.C,J8*%
X58274000Y-103143000D03*
X58274000Y-102343000D03*
X58274000Y-97443000D03*
X58274000Y-96643000D03*
X58274000Y-96643000D03*
X58274000Y-97443000D03*
X58274000Y-102343000D03*
X58274000Y-103143000D03*
D55*
X58274000Y-98143000D03*
X58274000Y-98643000D03*
X58274000Y-99143000D03*
X58274000Y-100143000D03*
X58274000Y-100643000D03*
X58274000Y-101143000D03*
X58274000Y-101643000D03*
X58274000Y-99643000D03*
D56*
X57359000Y-104213000D03*
X57359000Y-95573000D03*
D57*
X56829000Y-97003000D03*
D58*
X53179000Y-95573000D03*
D57*
X56829000Y-102783000D03*
D58*
X53179000Y-104213000D03*
%TD*%
D16*
%TO.C,J6*%
X55000000Y-106900000D03*
D17*
X57000000Y-116000000D03*
X57000000Y-113500000D03*
X57000000Y-111000000D03*
G36*
G01*
X56275000Y-107650000D02*
X57725000Y-107650000D01*
G75*
G02*
X57975000Y-107900000I0J-250000D01*
G01*
X57975000Y-109100000D01*
G75*
G02*
X57725000Y-109350000I-250000J0D01*
G01*
X56275000Y-109350000D01*
G75*
G02*
X56025000Y-109100000I0J250000D01*
G01*
X56025000Y-107900000D01*
G75*
G02*
X56275000Y-107650000I250000J0D01*
G01*
G37*
%TD*%
D16*
%TO.C,J3*%
X55404000Y-131400000D03*
D17*
X57404000Y-143000000D03*
X57404000Y-140500000D03*
X57404000Y-138000000D03*
X57404000Y-135500000D03*
G36*
G01*
X56679000Y-132150000D02*
X58129000Y-132150000D01*
G75*
G02*
X58379000Y-132400000I0J-250000D01*
G01*
X58379000Y-133600000D01*
G75*
G02*
X58129000Y-133850000I-250000J0D01*
G01*
X56679000Y-133850000D01*
G75*
G02*
X56429000Y-133600000I0J250000D01*
G01*
X56429000Y-132400000D01*
G75*
G02*
X56679000Y-132150000I250000J0D01*
G01*
G37*
%TD*%
D48*
%TO.C,J2*%
X55000000Y-92500000D03*
X55000000Y-89960000D03*
X57540000Y-92500000D03*
X57540000Y-89960000D03*
X60080000Y-92500000D03*
D49*
X60080000Y-89960000D03*
%TD*%
D54*
%TO.C,J1*%
X58274000Y-127583000D03*
X58274000Y-126783000D03*
X58274000Y-121883000D03*
X58274000Y-121083000D03*
X58274000Y-121083000D03*
X58274000Y-121883000D03*
X58274000Y-126783000D03*
X58274000Y-127583000D03*
D55*
X58274000Y-122583000D03*
X58274000Y-123083000D03*
X58274000Y-123583000D03*
X58274000Y-124583000D03*
X58274000Y-125083000D03*
X58274000Y-125583000D03*
X58274000Y-126083000D03*
X58274000Y-124083000D03*
D56*
X57359000Y-128653000D03*
X57359000Y-120013000D03*
D57*
X56829000Y-121443000D03*
D58*
X53179000Y-120013000D03*
D57*
X56829000Y-127223000D03*
D58*
X53179000Y-128653000D03*
%TD*%
D59*
%TO.C,GSM_Module1*%
X114083000Y-70700000D03*
X114083000Y-68160000D03*
X114083000Y-65620000D03*
X114083000Y-63080000D03*
X114083000Y-60540000D03*
X92583000Y-68400000D03*
X92583000Y-65860000D03*
X92583000Y-63320000D03*
X92583000Y-60780000D03*
X92583000Y-58240000D03*
X114083000Y-58000000D03*
X92583000Y-55700000D03*
%TD*%
D60*
%TO.C,D9*%
X64615000Y-71755000D03*
X61115000Y-71755000D03*
%TD*%
D61*
%TO.C,D8*%
X143375000Y-141750000D03*
D62*
X145650000Y-141750000D03*
%TD*%
D61*
%TO.C,D7*%
X143375000Y-145250000D03*
D62*
X145650000Y-145250000D03*
%TD*%
D61*
%TO.C,D6*%
X64030000Y-58293000D03*
D62*
X66305000Y-58293000D03*
%TD*%
D63*
%TO.C,D5*%
X129921000Y-105155000D03*
X129921000Y-101855000D03*
%TD*%
D44*
%TO.C,D4*%
X76724000Y-110871000D03*
X78724000Y-109921000D03*
X78724000Y-111821000D03*
%TD*%
D24*
%TO.C,D3*%
X69305000Y-64440000D03*
X69305000Y-67640000D03*
X74205000Y-64440000D03*
X74205000Y-67640000D03*
%TD*%
%TO.C,D2*%
X76290000Y-64440000D03*
X76290000Y-67640000D03*
X81190000Y-64440000D03*
X81190000Y-67640000D03*
%TD*%
%TO.C,D1*%
X83275000Y-64440000D03*
X83275000Y-67640000D03*
X88175000Y-64440000D03*
X88175000Y-67640000D03*
%TD*%
D64*
%TO.C,C27*%
X88519000Y-58039000D03*
D65*
X85019000Y-58039000D03*
%TD*%
%TO.C,C22*%
G36*
G01*
X78363000Y-99639000D02*
X78863000Y-99639000D01*
G75*
G02*
X79088000Y-99864000I0J-225000D01*
G01*
X79088000Y-100314000D01*
G75*
G02*
X78863000Y-100539000I-225000J0D01*
G01*
X78363000Y-100539000D01*
G75*
G02*
X78138000Y-100314000I0J225000D01*
G01*
X78138000Y-99864000D01*
G75*
G02*
X78363000Y-99639000I225000J0D01*
G01*
G37*
G36*
G01*
X78363000Y-98089000D02*
X78863000Y-98089000D01*
G75*
G02*
X79088000Y-98314000I0J-225000D01*
G01*
X79088000Y-98764000D01*
G75*
G02*
X78863000Y-98989000I-225000J0D01*
G01*
X78363000Y-98989000D01*
G75*
G02*
X78138000Y-98764000I0J225000D01*
G01*
X78138000Y-98314000D01*
G75*
G02*
X78363000Y-98089000I225000J0D01*
G01*
G37*
%TD*%
%TO.C,C21*%
G36*
G01*
X69719000Y-98862000D02*
X69219000Y-98862000D01*
G75*
G02*
X68994000Y-98637000I0J225000D01*
G01*
X68994000Y-98187000D01*
G75*
G02*
X69219000Y-97962000I225000J0D01*
G01*
X69719000Y-97962000D01*
G75*
G02*
X69944000Y-98187000I0J-225000D01*
G01*
X69944000Y-98637000D01*
G75*
G02*
X69719000Y-98862000I-225000J0D01*
G01*
G37*
G36*
G01*
X69719000Y-100412000D02*
X69219000Y-100412000D01*
G75*
G02*
X68994000Y-100187000I0J225000D01*
G01*
X68994000Y-99737000D01*
G75*
G02*
X69219000Y-99512000I225000J0D01*
G01*
X69719000Y-99512000D01*
G75*
G02*
X69944000Y-99737000I0J-225000D01*
G01*
X69944000Y-100187000D01*
G75*
G02*
X69719000Y-100412000I-225000J0D01*
G01*
G37*
%TD*%
%TO.C,C19*%
G36*
G01*
X67379000Y-102329000D02*
X67379000Y-101379000D01*
G75*
G02*
X67629000Y-101129000I250000J0D01*
G01*
X68129000Y-101129000D01*
G75*
G02*
X68379000Y-101379000I0J-250000D01*
G01*
X68379000Y-102329000D01*
G75*
G02*
X68129000Y-102579000I-250000J0D01*
G01*
X67629000Y-102579000D01*
G75*
G02*
X67379000Y-102329000I0J250000D01*
G01*
G37*
G36*
G01*
X65479000Y-102329000D02*
X65479000Y-101379000D01*
G75*
G02*
X65729000Y-101129000I250000J0D01*
G01*
X66229000Y-101129000D01*
G75*
G02*
X66479000Y-101379000I0J-250000D01*
G01*
X66479000Y-102329000D01*
G75*
G02*
X66229000Y-102579000I-250000J0D01*
G01*
X65729000Y-102579000D01*
G75*
G02*
X65479000Y-102329000I0J250000D01*
G01*
G37*
%TD*%
%TO.C,C18*%
G36*
G01*
X59634000Y-64766000D02*
X59634000Y-64266000D01*
G75*
G02*
X59859000Y-64041000I225000J0D01*
G01*
X60309000Y-64041000D01*
G75*
G02*
X60534000Y-64266000I0J-225000D01*
G01*
X60534000Y-64766000D01*
G75*
G02*
X60309000Y-64991000I-225000J0D01*
G01*
X59859000Y-64991000D01*
G75*
G02*
X59634000Y-64766000I0J225000D01*
G01*
G37*
G36*
G01*
X58084000Y-64766000D02*
X58084000Y-64266000D01*
G75*
G02*
X58309000Y-64041000I225000J0D01*
G01*
X58759000Y-64041000D01*
G75*
G02*
X58984000Y-64266000I0J-225000D01*
G01*
X58984000Y-64766000D01*
G75*
G02*
X58759000Y-64991000I-225000J0D01*
G01*
X58309000Y-64991000D01*
G75*
G02*
X58084000Y-64766000I0J225000D01*
G01*
G37*
%TD*%
%TO.C,C17*%
G36*
G01*
X66479000Y-95664000D02*
X66479000Y-96614000D01*
G75*
G02*
X66229000Y-96864000I-250000J0D01*
G01*
X65729000Y-96864000D01*
G75*
G02*
X65479000Y-96614000I0J250000D01*
G01*
X65479000Y-95664000D01*
G75*
G02*
X65729000Y-95414000I250000J0D01*
G01*
X66229000Y-95414000D01*
G75*
G02*
X66479000Y-95664000I0J-250000D01*
G01*
G37*
G36*
G01*
X68379000Y-95664000D02*
X68379000Y-96614000D01*
G75*
G02*
X68129000Y-96864000I-250000J0D01*
G01*
X67629000Y-96864000D01*
G75*
G02*
X67379000Y-96614000I0J250000D01*
G01*
X67379000Y-95664000D01*
G75*
G02*
X67629000Y-95414000I250000J0D01*
G01*
X68129000Y-95414000D01*
G75*
G02*
X68379000Y-95664000I0J-250000D01*
G01*
G37*
%TD*%
%TO.C,C16*%
G36*
G01*
X68509000Y-62234000D02*
X68509000Y-62734000D01*
G75*
G02*
X68284000Y-62959000I-225000J0D01*
G01*
X67834000Y-62959000D01*
G75*
G02*
X67609000Y-62734000I0J225000D01*
G01*
X67609000Y-62234000D01*
G75*
G02*
X67834000Y-62009000I225000J0D01*
G01*
X68284000Y-62009000D01*
G75*
G02*
X68509000Y-62234000I0J-225000D01*
G01*
G37*
G36*
G01*
X70059000Y-62234000D02*
X70059000Y-62734000D01*
G75*
G02*
X69834000Y-62959000I-225000J0D01*
G01*
X69384000Y-62959000D01*
G75*
G02*
X69159000Y-62734000I0J225000D01*
G01*
X69159000Y-62234000D01*
G75*
G02*
X69384000Y-62009000I225000J0D01*
G01*
X69834000Y-62009000D01*
G75*
G02*
X70059000Y-62234000I0J-225000D01*
G01*
G37*
%TD*%
%TO.C,C15*%
G36*
G01*
X130433000Y-56586000D02*
X130933000Y-56586000D01*
G75*
G02*
X131158000Y-56811000I0J-225000D01*
G01*
X131158000Y-57261000D01*
G75*
G02*
X130933000Y-57486000I-225000J0D01*
G01*
X130433000Y-57486000D01*
G75*
G02*
X130208000Y-57261000I0J225000D01*
G01*
X130208000Y-56811000D01*
G75*
G02*
X130433000Y-56586000I225000J0D01*
G01*
G37*
G36*
G01*
X130433000Y-55036000D02*
X130933000Y-55036000D01*
G75*
G02*
X131158000Y-55261000I0J-225000D01*
G01*
X131158000Y-55711000D01*
G75*
G02*
X130933000Y-55936000I-225000J0D01*
G01*
X130433000Y-55936000D01*
G75*
G02*
X130208000Y-55711000I0J225000D01*
G01*
X130208000Y-55261000D01*
G75*
G02*
X130433000Y-55036000I225000J0D01*
G01*
G37*
%TD*%
%TO.C,C14*%
G36*
G01*
X72207000Y-62734000D02*
X72207000Y-62234000D01*
G75*
G02*
X72432000Y-62009000I225000J0D01*
G01*
X72882000Y-62009000D01*
G75*
G02*
X73107000Y-62234000I0J-225000D01*
G01*
X73107000Y-62734000D01*
G75*
G02*
X72882000Y-62959000I-225000J0D01*
G01*
X72432000Y-62959000D01*
G75*
G02*
X72207000Y-62734000I0J225000D01*
G01*
G37*
G36*
G01*
X70657000Y-62734000D02*
X70657000Y-62234000D01*
G75*
G02*
X70882000Y-62009000I225000J0D01*
G01*
X71332000Y-62009000D01*
G75*
G02*
X71557000Y-62234000I0J-225000D01*
G01*
X71557000Y-62734000D01*
G75*
G02*
X71332000Y-62959000I-225000J0D01*
G01*
X70882000Y-62959000D01*
G75*
G02*
X70657000Y-62734000I0J225000D01*
G01*
G37*
%TD*%
%TO.C,C13*%
G36*
G01*
X76196000Y-137851000D02*
X75696000Y-137851000D01*
G75*
G02*
X75471000Y-137626000I0J225000D01*
G01*
X75471000Y-137176000D01*
G75*
G02*
X75696000Y-136951000I225000J0D01*
G01*
X76196000Y-136951000D01*
G75*
G02*
X76421000Y-137176000I0J-225000D01*
G01*
X76421000Y-137626000D01*
G75*
G02*
X76196000Y-137851000I-225000J0D01*
G01*
G37*
G36*
G01*
X76196000Y-139401000D02*
X75696000Y-139401000D01*
G75*
G02*
X75471000Y-139176000I0J225000D01*
G01*
X75471000Y-138726000D01*
G75*
G02*
X75696000Y-138501000I225000J0D01*
G01*
X76196000Y-138501000D01*
G75*
G02*
X76421000Y-138726000I0J-225000D01*
G01*
X76421000Y-139176000D01*
G75*
G02*
X76196000Y-139401000I-225000J0D01*
G01*
G37*
%TD*%
%TO.C,C11*%
G36*
G01*
X77720000Y-137851000D02*
X77220000Y-137851000D01*
G75*
G02*
X76995000Y-137626000I0J225000D01*
G01*
X76995000Y-137176000D01*
G75*
G02*
X77220000Y-136951000I225000J0D01*
G01*
X77720000Y-136951000D01*
G75*
G02*
X77945000Y-137176000I0J-225000D01*
G01*
X77945000Y-137626000D01*
G75*
G02*
X77720000Y-137851000I-225000J0D01*
G01*
G37*
G36*
G01*
X77720000Y-139401000D02*
X77220000Y-139401000D01*
G75*
G02*
X76995000Y-139176000I0J225000D01*
G01*
X76995000Y-138726000D01*
G75*
G02*
X77220000Y-138501000I225000J0D01*
G01*
X77720000Y-138501000D01*
G75*
G02*
X77945000Y-138726000I0J-225000D01*
G01*
X77945000Y-139176000D01*
G75*
G02*
X77720000Y-139401000I-225000J0D01*
G01*
G37*
%TD*%
%TO.C,C8*%
G36*
G01*
X77847000Y-127818000D02*
X77347000Y-127818000D01*
G75*
G02*
X77122000Y-127593000I0J225000D01*
G01*
X77122000Y-127143000D01*
G75*
G02*
X77347000Y-126918000I225000J0D01*
G01*
X77847000Y-126918000D01*
G75*
G02*
X78072000Y-127143000I0J-225000D01*
G01*
X78072000Y-127593000D01*
G75*
G02*
X77847000Y-127818000I-225000J0D01*
G01*
G37*
G36*
G01*
X77847000Y-129368000D02*
X77347000Y-129368000D01*
G75*
G02*
X77122000Y-129143000I0J225000D01*
G01*
X77122000Y-128693000D01*
G75*
G02*
X77347000Y-128468000I225000J0D01*
G01*
X77847000Y-128468000D01*
G75*
G02*
X78072000Y-128693000I0J-225000D01*
G01*
X78072000Y-129143000D01*
G75*
G02*
X77847000Y-129368000I-225000J0D01*
G01*
G37*
%TD*%
%TO.C,C5*%
G36*
G01*
X63444000Y-131187000D02*
X63444000Y-130687000D01*
G75*
G02*
X63669000Y-130462000I225000J0D01*
G01*
X64119000Y-130462000D01*
G75*
G02*
X64344000Y-130687000I0J-225000D01*
G01*
X64344000Y-131187000D01*
G75*
G02*
X64119000Y-131412000I-225000J0D01*
G01*
X63669000Y-131412000D01*
G75*
G02*
X63444000Y-131187000I0J225000D01*
G01*
G37*
G36*
G01*
X61894000Y-131187000D02*
X61894000Y-130687000D01*
G75*
G02*
X62119000Y-130462000I225000J0D01*
G01*
X62569000Y-130462000D01*
G75*
G02*
X62794000Y-130687000I0J-225000D01*
G01*
X62794000Y-131187000D01*
G75*
G02*
X62569000Y-131412000I-225000J0D01*
G01*
X62119000Y-131412000D01*
G75*
G02*
X61894000Y-131187000I0J225000D01*
G01*
G37*
%TD*%
%TO.C,C4*%
G36*
G01*
X104644000Y-133787000D02*
X104144000Y-133787000D01*
G75*
G02*
X103919000Y-133562000I0J225000D01*
G01*
X103919000Y-133112000D01*
G75*
G02*
X104144000Y-132887000I225000J0D01*
G01*
X104644000Y-132887000D01*
G75*
G02*
X104869000Y-133112000I0J-225000D01*
G01*
X104869000Y-133562000D01*
G75*
G02*
X104644000Y-133787000I-225000J0D01*
G01*
G37*
G36*
G01*
X104644000Y-135337000D02*
X104144000Y-135337000D01*
G75*
G02*
X103919000Y-135112000I0J225000D01*
G01*
X103919000Y-134662000D01*
G75*
G02*
X104144000Y-134437000I225000J0D01*
G01*
X104644000Y-134437000D01*
G75*
G02*
X104869000Y-134662000I0J-225000D01*
G01*
X104869000Y-135112000D01*
G75*
G02*
X104644000Y-135337000I-225000J0D01*
G01*
G37*
%TD*%
%TO.C,C2*%
G36*
G01*
X105697000Y-134308000D02*
X106647000Y-134308000D01*
G75*
G02*
X106897000Y-134558000I0J-250000D01*
G01*
X106897000Y-135058000D01*
G75*
G02*
X106647000Y-135308000I-250000J0D01*
G01*
X105697000Y-135308000D01*
G75*
G02*
X105447000Y-135058000I0J250000D01*
G01*
X105447000Y-134558000D01*
G75*
G02*
X105697000Y-134308000I250000J0D01*
G01*
G37*
G36*
G01*
X105697000Y-132408000D02*
X106647000Y-132408000D01*
G75*
G02*
X106897000Y-132658000I0J-250000D01*
G01*
X106897000Y-133158000D01*
G75*
G02*
X106647000Y-133408000I-250000J0D01*
G01*
X105697000Y-133408000D01*
G75*
G02*
X105447000Y-133158000I0J250000D01*
G01*
X105447000Y-132658000D01*
G75*
G02*
X105697000Y-132408000I250000J0D01*
G01*
G37*
%TD*%
%TO.C,C1*%
G36*
G01*
X72700000Y-128655000D02*
X72700000Y-129155000D01*
G75*
G02*
X72475000Y-129380000I-225000J0D01*
G01*
X72025000Y-129380000D01*
G75*
G02*
X71800000Y-129155000I0J225000D01*
G01*
X71800000Y-128655000D01*
G75*
G02*
X72025000Y-128430000I225000J0D01*
G01*
X72475000Y-128430000D01*
G75*
G02*
X72700000Y-128655000I0J-225000D01*
G01*
G37*
G36*
G01*
X74250000Y-128655000D02*
X74250000Y-129155000D01*
G75*
G02*
X74025000Y-129380000I-225000J0D01*
G01*
X73575000Y-129380000D01*
G75*
G02*
X73350000Y-129155000I0J225000D01*
G01*
X73350000Y-128655000D01*
G75*
G02*
X73575000Y-128430000I225000J0D01*
G01*
X74025000Y-128430000D01*
G75*
G02*
X74250000Y-128655000I0J-225000D01*
G01*
G37*
%TD*%
M02*
