%TF.GenerationSoftware,KiCad,Pcbnew,(5.1.8)-1*%
%TF.CreationDate,2021-09-05T00:40:36+02:00*%
%TF.ProjectId,pcbV10,70636256-3130-42e6-9b69-6361645f7063,rev?*%
%TF.SameCoordinates,Original*%
%TF.FileFunction,Soldermask,Bot*%
%TF.FilePolarity,Negative*%
%FSLAX46Y46*%
G04 Gerber Fmt 4.6, Leading zero omitted, Abs format (unit mm)*
G04 Created by KiCad (PCBNEW (5.1.8)-1) date 2021-09-05 00:40:36*
%MOMM*%
%LPD*%
G01*
G04 APERTURE LIST*
%ADD10R,2.000000X2.200000*%
%ADD11R,3.000000X2.200000*%
%ADD12O,1.600000X2.000000*%
%ADD13C,1.200000*%
%ADD14O,1.950000X1.700000*%
%ADD15C,2.000000*%
%ADD16C,3.200000*%
%ADD17O,2.000000X1.600000*%
%ADD18C,3.600000*%
%ADD19O,9.500000X7.500000*%
%ADD20C,3.400000*%
%ADD21O,1.800000X2.200000*%
%ADD22R,1.800000X1.100000*%
%ADD23C,1.800000*%
%ADD24O,1.700000X2.200000*%
%ADD25O,2.400000X1.600000*%
%ADD26R,2.400000X1.600000*%
%ADD27R,2.000000X3.200000*%
%ADD28C,4.000000*%
%ADD29O,2.000000X1.905000*%
%ADD30R,2.000000X1.905000*%
%ADD31O,3.500000X3.500000*%
%ADD32O,1.700000X1.700000*%
%ADD33R,1.700000X1.700000*%
%ADD34R,1.350000X4.200000*%
%ADD35O,2.030000X1.730000*%
%ADD36R,2.030000X1.730000*%
%ADD37O,2.100000X1.000000*%
%ADD38C,0.650000*%
%ADD39O,1.600000X1.000000*%
%ADD40O,2.200000X1.700000*%
%ADD41C,1.600000*%
%ADD42R,1.600000X1.600000*%
G04 APERTURE END LIST*
D10*
%TO.C,D14*%
X69179500Y-78676500D03*
D11*
X72229500Y-78676500D03*
%TD*%
D10*
%TO.C,D13*%
X78196500Y-85407500D03*
D11*
X81246500Y-85407500D03*
%TD*%
D10*
%TO.C,D12*%
X78196500Y-78676500D03*
D11*
X81246500Y-78676500D03*
%TD*%
D10*
%TO.C,D11*%
X69179500Y-85407500D03*
D11*
X72229500Y-85407500D03*
%TD*%
D10*
%TO.C,D10*%
X77188000Y-82042000D03*
D11*
X74138000Y-82042000D03*
%TD*%
D12*
%TO.C,U5*%
X98552000Y-104067000D03*
X101092000Y-104067000D03*
X103632000Y-104067000D03*
X103632000Y-112087000D03*
X101092000Y-112087000D03*
G36*
G01*
X98952000Y-113087000D02*
X98152000Y-113087000D01*
G75*
G02*
X97752000Y-112687000I0J400000D01*
G01*
X97752000Y-111487000D01*
G75*
G02*
X98152000Y-111087000I400000J0D01*
G01*
X98952000Y-111087000D01*
G75*
G02*
X99352000Y-111487000I0J-400000D01*
G01*
X99352000Y-112687000D01*
G75*
G02*
X98952000Y-113087000I-400000J0D01*
G01*
G37*
%TD*%
D13*
%TO.C,J5*%
X122841000Y-102105000D03*
D14*
X124841000Y-116205000D03*
X124841000Y-113705000D03*
X124841000Y-111205000D03*
X124841000Y-108705000D03*
X124841000Y-106205000D03*
G36*
G01*
X124116000Y-102855000D02*
X125566000Y-102855000D01*
G75*
G02*
X125816000Y-103105000I0J-250000D01*
G01*
X125816000Y-104305000D01*
G75*
G02*
X125566000Y-104555000I-250000J0D01*
G01*
X124116000Y-104555000D01*
G75*
G02*
X123866000Y-104305000I0J250000D01*
G01*
X123866000Y-103105000D01*
G75*
G02*
X124116000Y-102855000I250000J0D01*
G01*
G37*
%TD*%
D13*
%TO.C,J4*%
X122841000Y-127400000D03*
D14*
X124841000Y-136500000D03*
X124841000Y-134000000D03*
X124841000Y-131500000D03*
G36*
G01*
X124116000Y-128150000D02*
X125566000Y-128150000D01*
G75*
G02*
X125816000Y-128400000I0J-250000D01*
G01*
X125816000Y-129600000D01*
G75*
G02*
X125566000Y-129850000I-250000J0D01*
G01*
X124116000Y-129850000D01*
G75*
G02*
X123866000Y-129600000I0J250000D01*
G01*
X123866000Y-128400000D01*
G75*
G02*
X124116000Y-128150000I250000J0D01*
G01*
G37*
%TD*%
D15*
%TO.C,SW5*%
X129866000Y-138531600D03*
X138866000Y-138531600D03*
%TD*%
D16*
%TO.C,J7*%
X69850000Y-117221000D03*
X69850000Y-107061000D03*
G36*
G01*
X60360000Y-114516000D02*
X61560000Y-114516000D01*
G75*
G02*
X61960000Y-114916000I0J-400000D01*
G01*
X61960000Y-115716000D01*
G75*
G02*
X61560000Y-116116000I-400000J0D01*
G01*
X60360000Y-116116000D01*
G75*
G02*
X59960000Y-115716000I0J400000D01*
G01*
X59960000Y-114916000D01*
G75*
G02*
X60360000Y-114516000I400000J0D01*
G01*
G37*
D17*
X63500000Y-114046000D03*
X60960000Y-112776000D03*
X63500000Y-111506000D03*
X60960000Y-110236000D03*
X63500000Y-108966000D03*
%TD*%
D18*
%TO.C,R18*%
X138582000Y-68453000D03*
X59182000Y-68453000D03*
D19*
X76882000Y-58453000D03*
X120882000Y-58453000D03*
%TD*%
D12*
%TO.C,U14*%
X99822000Y-97663000D03*
X97282000Y-97663000D03*
X94742000Y-97663000D03*
X92202000Y-97663000D03*
X89662000Y-97663000D03*
X87122000Y-97663000D03*
G36*
G01*
X83782000Y-98263000D02*
X83782000Y-97063000D01*
G75*
G02*
X84182000Y-96663000I400000J0D01*
G01*
X84982000Y-96663000D01*
G75*
G02*
X85382000Y-97063000I0J-400000D01*
G01*
X85382000Y-98263000D01*
G75*
G02*
X84982000Y-98663000I-400000J0D01*
G01*
X84182000Y-98663000D01*
G75*
G02*
X83782000Y-98263000I0J400000D01*
G01*
G37*
%TD*%
D20*
%TO.C,X1*%
X124500000Y-143250000D03*
X74500000Y-143250000D03*
%TD*%
D15*
%TO.C,SP1*%
X127063000Y-86193000D03*
X127063000Y-83693000D03*
X127063000Y-81193000D03*
X125063000Y-79943000D03*
X125063000Y-82443000D03*
X125063000Y-84943000D03*
X125063000Y-87443000D03*
X123063000Y-88693000D03*
X123063000Y-86193000D03*
X123063000Y-83693000D03*
X123063000Y-81193000D03*
X123063000Y-78693000D03*
X121063000Y-79943000D03*
X121063000Y-82443000D03*
X121063000Y-84943000D03*
X121063000Y-87443000D03*
X111063000Y-81193000D03*
X111063000Y-83693000D03*
X111063000Y-86193000D03*
X113063000Y-79943000D03*
X113063000Y-82443000D03*
X113063000Y-84943000D03*
X113063000Y-87443000D03*
X115063000Y-78693000D03*
X115063000Y-81193000D03*
X115063000Y-83693000D03*
X115063000Y-86193000D03*
X115063000Y-88693000D03*
X117063000Y-79943000D03*
X117063000Y-82443000D03*
X117063000Y-84943000D03*
X117063000Y-87443000D03*
X119063000Y-78693000D03*
X119063000Y-81193000D03*
X119063000Y-83693000D03*
X119063000Y-86193000D03*
X119063000Y-88693000D03*
%TD*%
D21*
%TO.C,U16*%
X88646000Y-51816000D03*
X86106000Y-51816000D03*
X83566000Y-51816000D03*
G36*
G01*
X81476000Y-52916000D02*
X80576000Y-52916000D01*
G75*
G02*
X80126000Y-52466000I0J450000D01*
G01*
X80126000Y-51166000D01*
G75*
G02*
X80576000Y-50716000I450000J0D01*
G01*
X81476000Y-50716000D01*
G75*
G02*
X81926000Y-51166000I0J-450000D01*
G01*
X81926000Y-52466000D01*
G75*
G02*
X81476000Y-52916000I-450000J0D01*
G01*
G37*
%TD*%
D22*
%TO.C,U15*%
X118345000Y-68326000D03*
G36*
G01*
X117720000Y-70316000D02*
X118970000Y-70316000D01*
G75*
G02*
X119245000Y-70591000I0J-275000D01*
G01*
X119245000Y-71141000D01*
G75*
G02*
X118970000Y-71416000I-275000J0D01*
G01*
X117720000Y-71416000D01*
G75*
G02*
X117445000Y-71141000I0J275000D01*
G01*
X117445000Y-70591000D01*
G75*
G02*
X117720000Y-70316000I275000J0D01*
G01*
G37*
G36*
G01*
X119790000Y-69046000D02*
X121040000Y-69046000D01*
G75*
G02*
X121315000Y-69321000I0J-275000D01*
G01*
X121315000Y-69871000D01*
G75*
G02*
X121040000Y-70146000I-275000J0D01*
G01*
X119790000Y-70146000D01*
G75*
G02*
X119515000Y-69871000I0J275000D01*
G01*
X119515000Y-69321000D01*
G75*
G02*
X119790000Y-69046000I275000J0D01*
G01*
G37*
%TD*%
%TO.C,U13*%
X126150000Y-124540000D03*
G36*
G01*
X126775000Y-122550000D02*
X125525000Y-122550000D01*
G75*
G02*
X125250000Y-122275000I0J275000D01*
G01*
X125250000Y-121725000D01*
G75*
G02*
X125525000Y-121450000I275000J0D01*
G01*
X126775000Y-121450000D01*
G75*
G02*
X127050000Y-121725000I0J-275000D01*
G01*
X127050000Y-122275000D01*
G75*
G02*
X126775000Y-122550000I-275000J0D01*
G01*
G37*
G36*
G01*
X124705000Y-123820000D02*
X123455000Y-123820000D01*
G75*
G02*
X123180000Y-123545000I0J275000D01*
G01*
X123180000Y-122995000D01*
G75*
G02*
X123455000Y-122720000I275000J0D01*
G01*
X124705000Y-122720000D01*
G75*
G02*
X124980000Y-122995000I0J-275000D01*
G01*
X124980000Y-123545000D01*
G75*
G02*
X124705000Y-123820000I-275000J0D01*
G01*
G37*
%TD*%
%TO.C,U12*%
X124860000Y-68326000D03*
G36*
G01*
X124235000Y-70316000D02*
X125485000Y-70316000D01*
G75*
G02*
X125760000Y-70591000I0J-275000D01*
G01*
X125760000Y-71141000D01*
G75*
G02*
X125485000Y-71416000I-275000J0D01*
G01*
X124235000Y-71416000D01*
G75*
G02*
X123960000Y-71141000I0J275000D01*
G01*
X123960000Y-70591000D01*
G75*
G02*
X124235000Y-70316000I275000J0D01*
G01*
G37*
G36*
G01*
X122165000Y-69046000D02*
X123415000Y-69046000D01*
G75*
G02*
X123690000Y-69321000I0J-275000D01*
G01*
X123690000Y-69871000D01*
G75*
G02*
X123415000Y-70146000I-275000J0D01*
G01*
X122165000Y-70146000D01*
G75*
G02*
X121890000Y-69871000I0J275000D01*
G01*
X121890000Y-69321000D01*
G75*
G02*
X122165000Y-69046000I275000J0D01*
G01*
G37*
%TD*%
D23*
%TO.C,U10*%
X102540000Y-73096000D03*
G36*
G01*
X96560000Y-73546000D02*
X96560000Y-72646000D01*
G75*
G02*
X97010000Y-72196000I450000J0D01*
G01*
X97910000Y-72196000D01*
G75*
G02*
X98360000Y-72646000I0J-450000D01*
G01*
X98360000Y-73546000D01*
G75*
G02*
X97910000Y-73996000I-450000J0D01*
G01*
X97010000Y-73996000D01*
G75*
G02*
X96560000Y-73546000I0J450000D01*
G01*
G37*
X100000000Y-73096000D03*
%TD*%
D24*
%TO.C,U9*%
X135128000Y-72136000D03*
X137668000Y-72136000D03*
X140208000Y-72136000D03*
X142748000Y-72136000D03*
G36*
G01*
X145713000Y-73236000D02*
X144863000Y-73236000D01*
G75*
G02*
X144438000Y-72811000I0J425000D01*
G01*
X144438000Y-71461000D01*
G75*
G02*
X144863000Y-71036000I425000J0D01*
G01*
X145713000Y-71036000D01*
G75*
G02*
X146138000Y-71461000I0J-425000D01*
G01*
X146138000Y-72811000D01*
G75*
G02*
X145713000Y-73236000I-425000J0D01*
G01*
G37*
%TD*%
D25*
%TO.C,U4*%
X145500000Y-54760000D03*
X132800000Y-62380000D03*
X145500000Y-57300000D03*
X132800000Y-59840000D03*
X145500000Y-59840000D03*
X132800000Y-57300000D03*
X145500000Y-62380000D03*
D26*
X132800000Y-54760000D03*
%TD*%
D15*
%TO.C,SW4*%
X119000000Y-103500000D03*
X110000000Y-103500000D03*
%TD*%
%TO.C,SW3*%
X110000000Y-138500000D03*
X119000000Y-138500000D03*
%TD*%
%TO.C,SW2*%
G36*
G01*
X112400000Y-129500000D02*
X111600000Y-129500000D01*
G75*
G02*
X111200000Y-129100000I0J400000D01*
G01*
X111200000Y-127900000D01*
G75*
G02*
X111600000Y-127500000I400000J0D01*
G01*
X112400000Y-127500000D01*
G75*
G02*
X112800000Y-127900000I0J-400000D01*
G01*
X112800000Y-129100000D01*
G75*
G02*
X112400000Y-129500000I-400000J0D01*
G01*
G37*
D12*
X114500000Y-128500000D03*
X117000000Y-128500000D03*
D27*
X108900000Y-121000000D03*
X120100000Y-121000000D03*
D12*
X112000000Y-114000000D03*
X117000000Y-114000000D03*
%TD*%
D15*
%TO.C,SW1*%
X129750000Y-121000000D03*
X138750000Y-121000000D03*
%TD*%
D28*
%TO.C,RV1*%
X103400000Y-82500000D03*
X94600000Y-82500000D03*
D23*
X101500000Y-89500000D03*
X99000000Y-89500000D03*
X96500000Y-89500000D03*
%TD*%
D29*
%TO.C,Q8*%
X84201000Y-94869000D03*
X84201000Y-92329000D03*
D30*
X84201000Y-89789000D03*
D31*
X67541000Y-92329000D03*
%TD*%
D32*
%TO.C,JP2*%
X61976000Y-86106000D03*
X61976000Y-83566000D03*
D33*
X61976000Y-81026000D03*
%TD*%
D32*
%TO.C,JP1*%
X70485000Y-102743000D03*
D33*
X73025000Y-102743000D03*
%TD*%
D34*
%TO.C,J14*%
X100175000Y-52000000D03*
X105825000Y-52000000D03*
%TD*%
D32*
%TO.C,J13*%
X122682000Y-96266000D03*
D33*
X122682000Y-98806000D03*
%TD*%
D32*
%TO.C,J12*%
X142460000Y-138250000D03*
X145000000Y-138250000D03*
X142460000Y-135710000D03*
X145000000Y-135710000D03*
X142460000Y-133170000D03*
X145000000Y-133170000D03*
X142460000Y-130630000D03*
X145000000Y-130630000D03*
X142460000Y-128090000D03*
X145000000Y-128090000D03*
X142460000Y-125550000D03*
X145000000Y-125550000D03*
X142460000Y-123010000D03*
X145000000Y-123010000D03*
X142460000Y-120470000D03*
X145000000Y-120470000D03*
X142460000Y-117930000D03*
X145000000Y-117930000D03*
X142460000Y-115390000D03*
X145000000Y-115390000D03*
X142460000Y-112850000D03*
X145000000Y-112850000D03*
X142460000Y-110310000D03*
X145000000Y-110310000D03*
X142460000Y-107770000D03*
X145000000Y-107770000D03*
X142460000Y-105230000D03*
X145000000Y-105230000D03*
X142460000Y-102690000D03*
X145000000Y-102690000D03*
X142460000Y-100150000D03*
X145000000Y-100150000D03*
X142460000Y-97610000D03*
X145000000Y-97610000D03*
X142460000Y-95070000D03*
X145000000Y-95070000D03*
X142460000Y-92530000D03*
X145000000Y-92530000D03*
X142460000Y-89990000D03*
X145000000Y-89990000D03*
X142460000Y-87450000D03*
X145000000Y-87450000D03*
X142460000Y-84910000D03*
X145000000Y-84910000D03*
X142460000Y-82370000D03*
X145000000Y-82370000D03*
X142460000Y-79830000D03*
X145000000Y-79830000D03*
X142460000Y-77290000D03*
D33*
X145000000Y-77290000D03*
%TD*%
D35*
%TO.C,J11*%
X57023000Y-86233000D03*
X57023000Y-83693000D03*
D36*
X57023000Y-81153000D03*
%TD*%
D35*
%TO.C,J10*%
X57023000Y-77470000D03*
X57023000Y-74930000D03*
D36*
X57023000Y-72390000D03*
%TD*%
D32*
%TO.C,J9*%
X55372000Y-60706000D03*
X55372000Y-63246000D03*
X55372000Y-65786000D03*
D33*
X55372000Y-68326000D03*
%TD*%
D37*
%TO.C,J8*%
X57359000Y-104213000D03*
X57359000Y-95573000D03*
D38*
X56829000Y-97003000D03*
D39*
X53179000Y-95573000D03*
D38*
X56829000Y-102783000D03*
D39*
X53179000Y-104213000D03*
%TD*%
D13*
%TO.C,J6*%
X55000000Y-106900000D03*
D14*
X57000000Y-116000000D03*
X57000000Y-113500000D03*
X57000000Y-111000000D03*
G36*
G01*
X56275000Y-107650000D02*
X57725000Y-107650000D01*
G75*
G02*
X57975000Y-107900000I0J-250000D01*
G01*
X57975000Y-109100000D01*
G75*
G02*
X57725000Y-109350000I-250000J0D01*
G01*
X56275000Y-109350000D01*
G75*
G02*
X56025000Y-109100000I0J250000D01*
G01*
X56025000Y-107900000D01*
G75*
G02*
X56275000Y-107650000I250000J0D01*
G01*
G37*
%TD*%
D13*
%TO.C,J3*%
X55404000Y-131400000D03*
D14*
X57404000Y-143000000D03*
X57404000Y-140500000D03*
X57404000Y-138000000D03*
X57404000Y-135500000D03*
G36*
G01*
X56679000Y-132150000D02*
X58129000Y-132150000D01*
G75*
G02*
X58379000Y-132400000I0J-250000D01*
G01*
X58379000Y-133600000D01*
G75*
G02*
X58129000Y-133850000I-250000J0D01*
G01*
X56679000Y-133850000D01*
G75*
G02*
X56429000Y-133600000I0J250000D01*
G01*
X56429000Y-132400000D01*
G75*
G02*
X56679000Y-132150000I250000J0D01*
G01*
G37*
%TD*%
D32*
%TO.C,J2*%
X55000000Y-92500000D03*
X55000000Y-89960000D03*
X57540000Y-92500000D03*
X57540000Y-89960000D03*
X60080000Y-92500000D03*
D33*
X60080000Y-89960000D03*
%TD*%
D37*
%TO.C,J1*%
X57359000Y-128653000D03*
X57359000Y-120013000D03*
D38*
X56829000Y-121443000D03*
D39*
X53179000Y-120013000D03*
D38*
X56829000Y-127223000D03*
D39*
X53179000Y-128653000D03*
%TD*%
D40*
%TO.C,GSM_Module1*%
X114083000Y-70700000D03*
X114083000Y-68160000D03*
X114083000Y-65620000D03*
X114083000Y-63080000D03*
X114083000Y-60540000D03*
X92583000Y-68400000D03*
X92583000Y-65860000D03*
X92583000Y-63320000D03*
X92583000Y-60780000D03*
X92583000Y-58240000D03*
X114083000Y-58000000D03*
X92583000Y-55700000D03*
%TD*%
D41*
%TO.C,C27*%
X88519000Y-58039000D03*
D42*
X85019000Y-58039000D03*
%TD*%
M02*
