%TF.GenerationSoftware,KiCad,Pcbnew,(5.1.12)-1*%
%TF.CreationDate,2021-12-22T15:49:41+01:00*%
%TF.ProjectId,pcbV10,70636256-3130-42e6-9b69-6361645f7063,rev?*%
%TF.SameCoordinates,Original*%
%TF.FileFunction,Paste,Bot*%
%TF.FilePolarity,Positive*%
%FSLAX46Y46*%
G04 Gerber Fmt 4.6, Leading zero omitted, Abs format (unit mm)*
G04 Created by KiCad (PCBNEW (5.1.12)-1) date 2021-12-22 15:49:41*
%MOMM*%
%LPD*%
G01*
G04 APERTURE LIST*
%ADD10R,2.450000X1.000000*%
%ADD11R,1.000000X2.450000*%
%ADD12R,1.350000X4.200000*%
G04 APERTURE END LIST*
%TO.C,C41*%
G36*
G01*
X117607500Y-64102000D02*
X117607500Y-63152000D01*
G75*
G02*
X117857500Y-62902000I250000J0D01*
G01*
X118532500Y-62902000D01*
G75*
G02*
X118782500Y-63152000I0J-250000D01*
G01*
X118782500Y-64102000D01*
G75*
G02*
X118532500Y-64352000I-250000J0D01*
G01*
X117857500Y-64352000D01*
G75*
G02*
X117607500Y-64102000I0J250000D01*
G01*
G37*
G36*
G01*
X115532500Y-64102000D02*
X115532500Y-63152000D01*
G75*
G02*
X115782500Y-62902000I250000J0D01*
G01*
X116457500Y-62902000D01*
G75*
G02*
X116707500Y-63152000I0J-250000D01*
G01*
X116707500Y-64102000D01*
G75*
G02*
X116457500Y-64352000I-250000J0D01*
G01*
X115782500Y-64352000D01*
G75*
G02*
X115532500Y-64102000I0J250000D01*
G01*
G37*
%TD*%
%TO.C,C40*%
G36*
G01*
X117607500Y-66134000D02*
X117607500Y-65184000D01*
G75*
G02*
X117857500Y-64934000I250000J0D01*
G01*
X118532500Y-64934000D01*
G75*
G02*
X118782500Y-65184000I0J-250000D01*
G01*
X118782500Y-66134000D01*
G75*
G02*
X118532500Y-66384000I-250000J0D01*
G01*
X117857500Y-66384000D01*
G75*
G02*
X117607500Y-66134000I0J250000D01*
G01*
G37*
G36*
G01*
X115532500Y-66134000D02*
X115532500Y-65184000D01*
G75*
G02*
X115782500Y-64934000I250000J0D01*
G01*
X116457500Y-64934000D01*
G75*
G02*
X116707500Y-65184000I0J-250000D01*
G01*
X116707500Y-66134000D01*
G75*
G02*
X116457500Y-66384000I-250000J0D01*
G01*
X115782500Y-66384000D01*
G75*
G02*
X115532500Y-66134000I0J250000D01*
G01*
G37*
%TD*%
D10*
%TO.C,DWM1*%
X98856000Y-57240200D03*
X98856000Y-58640200D03*
X98856000Y-60040200D03*
X98856000Y-61440200D03*
X98856000Y-62840200D03*
X98856000Y-64240200D03*
X98856000Y-65639000D03*
X98856000Y-67039000D03*
D11*
X100256000Y-69335200D03*
X101656000Y-69335200D03*
X103056000Y-69335200D03*
X104456000Y-69335200D03*
X105856000Y-69335200D03*
X107256000Y-69335200D03*
X108656000Y-69335200D03*
X110056000Y-69335200D03*
D10*
X111456000Y-67040200D03*
X111456000Y-65640200D03*
X111456000Y-64240200D03*
X111456000Y-62840200D03*
X111456000Y-61440200D03*
X111456000Y-60040200D03*
X111456000Y-58640200D03*
X111456000Y-57240200D03*
%TD*%
%TO.C,U4*%
G36*
G01*
X66398000Y-129897000D02*
X66698000Y-129897000D01*
G75*
G02*
X66848000Y-130047000I0J-150000D01*
G01*
X66848000Y-131697000D01*
G75*
G02*
X66698000Y-131847000I-150000J0D01*
G01*
X66398000Y-131847000D01*
G75*
G02*
X66248000Y-131697000I0J150000D01*
G01*
X66248000Y-130047000D01*
G75*
G02*
X66398000Y-129897000I150000J0D01*
G01*
G37*
G36*
G01*
X67668000Y-129897000D02*
X67968000Y-129897000D01*
G75*
G02*
X68118000Y-130047000I0J-150000D01*
G01*
X68118000Y-131697000D01*
G75*
G02*
X67968000Y-131847000I-150000J0D01*
G01*
X67668000Y-131847000D01*
G75*
G02*
X67518000Y-131697000I0J150000D01*
G01*
X67518000Y-130047000D01*
G75*
G02*
X67668000Y-129897000I150000J0D01*
G01*
G37*
G36*
G01*
X68938000Y-129897000D02*
X69238000Y-129897000D01*
G75*
G02*
X69388000Y-130047000I0J-150000D01*
G01*
X69388000Y-131697000D01*
G75*
G02*
X69238000Y-131847000I-150000J0D01*
G01*
X68938000Y-131847000D01*
G75*
G02*
X68788000Y-131697000I0J150000D01*
G01*
X68788000Y-130047000D01*
G75*
G02*
X68938000Y-129897000I150000J0D01*
G01*
G37*
G36*
G01*
X70208000Y-129897000D02*
X70508000Y-129897000D01*
G75*
G02*
X70658000Y-130047000I0J-150000D01*
G01*
X70658000Y-131697000D01*
G75*
G02*
X70508000Y-131847000I-150000J0D01*
G01*
X70208000Y-131847000D01*
G75*
G02*
X70058000Y-131697000I0J150000D01*
G01*
X70058000Y-130047000D01*
G75*
G02*
X70208000Y-129897000I150000J0D01*
G01*
G37*
G36*
G01*
X71478000Y-129897000D02*
X71778000Y-129897000D01*
G75*
G02*
X71928000Y-130047000I0J-150000D01*
G01*
X71928000Y-131697000D01*
G75*
G02*
X71778000Y-131847000I-150000J0D01*
G01*
X71478000Y-131847000D01*
G75*
G02*
X71328000Y-131697000I0J150000D01*
G01*
X71328000Y-130047000D01*
G75*
G02*
X71478000Y-129897000I150000J0D01*
G01*
G37*
G36*
G01*
X72748000Y-129897000D02*
X73048000Y-129897000D01*
G75*
G02*
X73198000Y-130047000I0J-150000D01*
G01*
X73198000Y-131697000D01*
G75*
G02*
X73048000Y-131847000I-150000J0D01*
G01*
X72748000Y-131847000D01*
G75*
G02*
X72598000Y-131697000I0J150000D01*
G01*
X72598000Y-130047000D01*
G75*
G02*
X72748000Y-129897000I150000J0D01*
G01*
G37*
G36*
G01*
X74018000Y-129897000D02*
X74318000Y-129897000D01*
G75*
G02*
X74468000Y-130047000I0J-150000D01*
G01*
X74468000Y-131697000D01*
G75*
G02*
X74318000Y-131847000I-150000J0D01*
G01*
X74018000Y-131847000D01*
G75*
G02*
X73868000Y-131697000I0J150000D01*
G01*
X73868000Y-130047000D01*
G75*
G02*
X74018000Y-129897000I150000J0D01*
G01*
G37*
G36*
G01*
X75288000Y-129897000D02*
X75588000Y-129897000D01*
G75*
G02*
X75738000Y-130047000I0J-150000D01*
G01*
X75738000Y-131697000D01*
G75*
G02*
X75588000Y-131847000I-150000J0D01*
G01*
X75288000Y-131847000D01*
G75*
G02*
X75138000Y-131697000I0J150000D01*
G01*
X75138000Y-130047000D01*
G75*
G02*
X75288000Y-129897000I150000J0D01*
G01*
G37*
G36*
G01*
X75288000Y-124947000D02*
X75588000Y-124947000D01*
G75*
G02*
X75738000Y-125097000I0J-150000D01*
G01*
X75738000Y-126747000D01*
G75*
G02*
X75588000Y-126897000I-150000J0D01*
G01*
X75288000Y-126897000D01*
G75*
G02*
X75138000Y-126747000I0J150000D01*
G01*
X75138000Y-125097000D01*
G75*
G02*
X75288000Y-124947000I150000J0D01*
G01*
G37*
G36*
G01*
X74018000Y-124947000D02*
X74318000Y-124947000D01*
G75*
G02*
X74468000Y-125097000I0J-150000D01*
G01*
X74468000Y-126747000D01*
G75*
G02*
X74318000Y-126897000I-150000J0D01*
G01*
X74018000Y-126897000D01*
G75*
G02*
X73868000Y-126747000I0J150000D01*
G01*
X73868000Y-125097000D01*
G75*
G02*
X74018000Y-124947000I150000J0D01*
G01*
G37*
G36*
G01*
X72748000Y-124947000D02*
X73048000Y-124947000D01*
G75*
G02*
X73198000Y-125097000I0J-150000D01*
G01*
X73198000Y-126747000D01*
G75*
G02*
X73048000Y-126897000I-150000J0D01*
G01*
X72748000Y-126897000D01*
G75*
G02*
X72598000Y-126747000I0J150000D01*
G01*
X72598000Y-125097000D01*
G75*
G02*
X72748000Y-124947000I150000J0D01*
G01*
G37*
G36*
G01*
X71478000Y-124947000D02*
X71778000Y-124947000D01*
G75*
G02*
X71928000Y-125097000I0J-150000D01*
G01*
X71928000Y-126747000D01*
G75*
G02*
X71778000Y-126897000I-150000J0D01*
G01*
X71478000Y-126897000D01*
G75*
G02*
X71328000Y-126747000I0J150000D01*
G01*
X71328000Y-125097000D01*
G75*
G02*
X71478000Y-124947000I150000J0D01*
G01*
G37*
G36*
G01*
X70208000Y-124947000D02*
X70508000Y-124947000D01*
G75*
G02*
X70658000Y-125097000I0J-150000D01*
G01*
X70658000Y-126747000D01*
G75*
G02*
X70508000Y-126897000I-150000J0D01*
G01*
X70208000Y-126897000D01*
G75*
G02*
X70058000Y-126747000I0J150000D01*
G01*
X70058000Y-125097000D01*
G75*
G02*
X70208000Y-124947000I150000J0D01*
G01*
G37*
G36*
G01*
X68938000Y-124947000D02*
X69238000Y-124947000D01*
G75*
G02*
X69388000Y-125097000I0J-150000D01*
G01*
X69388000Y-126747000D01*
G75*
G02*
X69238000Y-126897000I-150000J0D01*
G01*
X68938000Y-126897000D01*
G75*
G02*
X68788000Y-126747000I0J150000D01*
G01*
X68788000Y-125097000D01*
G75*
G02*
X68938000Y-124947000I150000J0D01*
G01*
G37*
G36*
G01*
X67668000Y-124947000D02*
X67968000Y-124947000D01*
G75*
G02*
X68118000Y-125097000I0J-150000D01*
G01*
X68118000Y-126747000D01*
G75*
G02*
X67968000Y-126897000I-150000J0D01*
G01*
X67668000Y-126897000D01*
G75*
G02*
X67518000Y-126747000I0J150000D01*
G01*
X67518000Y-125097000D01*
G75*
G02*
X67668000Y-124947000I150000J0D01*
G01*
G37*
G36*
G01*
X66398000Y-124947000D02*
X66698000Y-124947000D01*
G75*
G02*
X66848000Y-125097000I0J-150000D01*
G01*
X66848000Y-126747000D01*
G75*
G02*
X66698000Y-126897000I-150000J0D01*
G01*
X66398000Y-126897000D01*
G75*
G02*
X66248000Y-126747000I0J150000D01*
G01*
X66248000Y-125097000D01*
G75*
G02*
X66398000Y-124947000I150000J0D01*
G01*
G37*
%TD*%
%TO.C,C13*%
G36*
G01*
X61018000Y-129319000D02*
X61018000Y-130269000D01*
G75*
G02*
X60768000Y-130519000I-250000J0D01*
G01*
X60093000Y-130519000D01*
G75*
G02*
X59843000Y-130269000I0J250000D01*
G01*
X59843000Y-129319000D01*
G75*
G02*
X60093000Y-129069000I250000J0D01*
G01*
X60768000Y-129069000D01*
G75*
G02*
X61018000Y-129319000I0J-250000D01*
G01*
G37*
G36*
G01*
X63093000Y-129319000D02*
X63093000Y-130269000D01*
G75*
G02*
X62843000Y-130519000I-250000J0D01*
G01*
X62168000Y-130519000D01*
G75*
G02*
X61918000Y-130269000I0J250000D01*
G01*
X61918000Y-129319000D01*
G75*
G02*
X62168000Y-129069000I250000J0D01*
G01*
X62843000Y-129069000D01*
G75*
G02*
X63093000Y-129319000I0J-250000D01*
G01*
G37*
%TD*%
%TO.C,C11*%
G36*
G01*
X70902500Y-123159500D02*
X70902500Y-124109500D01*
G75*
G02*
X70652500Y-124359500I-250000J0D01*
G01*
X69977500Y-124359500D01*
G75*
G02*
X69727500Y-124109500I0J250000D01*
G01*
X69727500Y-123159500D01*
G75*
G02*
X69977500Y-122909500I250000J0D01*
G01*
X70652500Y-122909500D01*
G75*
G02*
X70902500Y-123159500I0J-250000D01*
G01*
G37*
G36*
G01*
X72977500Y-123159500D02*
X72977500Y-124109500D01*
G75*
G02*
X72727500Y-124359500I-250000J0D01*
G01*
X72052500Y-124359500D01*
G75*
G02*
X71802500Y-124109500I0J250000D01*
G01*
X71802500Y-123159500D01*
G75*
G02*
X72052500Y-122909500I250000J0D01*
G01*
X72727500Y-122909500D01*
G75*
G02*
X72977500Y-123159500I0J-250000D01*
G01*
G37*
%TD*%
D12*
%TO.C,J14*%
X100175000Y-52000000D03*
X105825000Y-52000000D03*
%TD*%
M02*
