M48
; DRILL file {KiCad 8.0.3} date 2024-07-06T11:10:12+0200
; FORMAT={-:-/ absolute / inch / decimal}
; #@! TF.CreationDate,2024-07-06T11:10:12+02:00
; #@! TF.GenerationSoftware,Kicad,Pcbnew,8.0.3
; #@! TF.FileFunction,Plated,1,2,PTH
FMAT,2
INCH
; #@! TA.AperFunction,Plated,PTH,ViaDrill
T1C0.0118
; #@! TA.AperFunction,Plated,PTH,ComponentDrill
T2C0.0118
; #@! TA.AperFunction,Plated,PTH,ViaDrill
T3C0.0157
; #@! TA.AperFunction,Plated,PTH,ViaDrill
T4C0.0197
; #@! TA.AperFunction,Plated,PTH,ComponentDrill
T5C0.0197
; #@! TA.AperFunction,Plated,PTH,ComponentDrill
T6C0.0236
; #@! TA.AperFunction,Plated,PTH,ComponentDrill
T7C0.0256
; #@! TA.AperFunction,Plated,PTH,ComponentDrill
T8C0.0276
; #@! TA.AperFunction,Plated,PTH,ComponentDrill
T9C0.0295
; #@! TA.AperFunction,Plated,PTH,ComponentDrill
T10C0.0315
; #@! TA.AperFunction,Plated,PTH,ComponentDrill
T11C0.0354
; #@! TA.AperFunction,Plated,PTH,ComponentDrill
T12C0.0394
; #@! TA.AperFunction,Plated,PTH,ComponentDrill
T13C0.0433
; #@! TA.AperFunction,Plated,PTH,ComponentDrill
T14C0.0472
; #@! TA.AperFunction,Plated,PTH,ComponentDrill
T15C0.0512
; #@! TA.AperFunction,Plated,PTH,ComponentDrill
T16C0.0591
; #@! TA.AperFunction,Plated,PTH,ComponentDrill
T17C0.0630
; #@! TA.AperFunction,Plated,PTH,ComponentDrill
T18C0.0787
%
G90
G05
T1
X3.9911Y-4.0748
X3.9911Y-4.11
X3.9961Y-4.7096
X3.9961Y-4.7402
X3.9968Y-4.6784
X4.0Y-5.4291
X4.0Y-5.6299
X4.0197Y-2.315
X4.0197Y-5.8425
X4.0236Y-5.5472
X4.0276Y-5.0197
X4.0315Y-5.1654
X4.0335Y-4.1122
X4.0354Y-2.1575
X4.0394Y-2.5079
X4.0453Y-4.3209
X4.0591Y-4.5157
X4.0787Y-5.5669
X4.0827Y-5.626
X4.0866Y-2.0748
X4.1024Y-5.3799
X4.1083Y-4.7894
X4.1181Y-2.7382
X4.1181Y-2.9173
X4.1181Y-5.3071
X4.126Y-5.1457
X4.1299Y-4.9291
X4.1299Y-5.8307
X4.1476Y-4.624
X4.1476Y-4.687
X4.1476Y-4.8051
X4.1535Y-5.063
X4.1575Y-5.4134
X4.1683Y-4.1003
X4.1693Y-5.7087
X4.1732Y-4.7116
X4.185Y-4.0748
X4.1909Y-4.1211
X4.1916Y-2.878
X4.1959Y-4.7352
X4.1988Y-3.9665
X4.2205Y-2.4094
X4.248Y-5.3268
X4.2638Y-3.8228
X4.2657Y-3.9685
X4.2835Y-4.5768
X4.2913Y-5.8701
X4.294Y-2.6759
X4.2992Y-3.0866
X4.2992Y-4.2874
X4.3051Y-4.8878
X4.313Y-4.8386
X4.315Y-4.5925
X4.317Y-3.0591
X4.3248Y-3.1949
X4.3307Y-4.7047
X4.3346Y-2.2559
X4.3346Y-2.7087
X4.3386Y-2.3268
X4.3425Y-2.6417
X4.3425Y-4.9528
X4.3465Y-2.4016
X4.3602Y-2.7844
X4.3701Y-2.7205
X4.374Y-2.6614
X4.3799Y-4.2106
X4.3838Y-2.9508
X4.3839Y-3.813
X4.3976Y-3.4449
X4.3976Y-3.9449
X4.4154Y-2.8799
X4.4173Y-2.6063
X4.4311Y-4.8209
X4.437Y-5.2874
X4.4409Y-4.8602
X4.4488Y-2.5472
X4.4528Y-2.7461
X4.4528Y-4.1063
X4.4567Y-1.9961
X4.4606Y-5.1378
X4.4724Y-3.815
X4.4843Y-3.0079
X4.4891Y-2.8593
X4.4961Y-4.2303
X4.5512Y-3.0935
X4.5719Y-2.2667
X4.575Y-2.9881
X4.5827Y-3.9567
X4.5866Y-3.7992
X4.5886Y-4.2854
X4.5945Y-4.7047
X4.6024Y-2.0236
X4.6063Y-2.9291
X4.6083Y-4.7579
X4.6102Y-5.7953
X4.6142Y-5.7559
X4.6161Y-3.872
X4.6299Y-5.8858
X4.6339Y-5.0472
X4.6496Y-4.8386
X4.6535Y-2.0748
X4.6614Y-5.2402
X4.6654Y-4.2106
X4.6693Y-4.065
X4.6861Y-5.4635
X4.6988Y-5.5433
X4.7008Y-5.4921
X4.7362Y-4.8031
X4.7441Y-4.8543
X4.7677Y-4.0709
X4.7756Y-4.1969
X4.7773Y-3.2136
X4.7835Y-2.4213
X4.7835Y-5.622
X4.7875Y-3.2717
X4.7893Y-3.3681
X4.7896Y-3.4193
X4.7896Y-3.4695
X4.7913Y-5.7559
X4.7953Y-2.6181
X4.7953Y-2.6496
X4.7953Y-3.5453
X4.7953Y-5.5551
X4.7953Y-5.8268
X4.7953Y-5.8819
X4.7992Y-3.8071
X4.7992Y-4.8031
X4.8031Y-2.4016
X4.8189Y-2.0236
X4.8189Y-4.8425
X4.8228Y-2.4213
X4.8307Y-2.6181
X4.8307Y-2.6496
X4.8346Y-3.9173
X4.8377Y-3.1781
X4.8425Y-5.2913
X4.8465Y-4.7402
X4.8514Y-3.626
X4.8819Y-2.0866
X4.8858Y-3.9882
X4.8937Y-2.2913
X4.8976Y-5.1654
X4.9028Y-3.4729
X4.9157Y-3.2561
X4.9188Y-3.4469
X4.9291Y-3.1575
X4.9331Y-4.6772
X4.9331Y-5.7756
X4.937Y-3.1929
X4.9488Y-4.8346
X4.9547Y-3.2263
X4.9559Y-3.5978
X4.9567Y-5.0315
X4.9724Y-3.8071
X4.9744Y-3.1915
X4.9754Y-3.5128
X4.9803Y-3.1102
X4.9961Y-2.7756
X5.0Y-3.3031
X5.0Y-3.4075
X5.001Y-3.56
X5.002Y-3.3504
X5.0039Y-5.8425
X5.0148Y-3.0913
X5.0236Y-4.6339
X5.0236Y-5.3858
X5.0257Y-3.5602
X5.0276Y-2.8386
X5.0303Y-3.7121
X5.0492Y-3.2854
X5.0492Y-3.3957
X5.0492Y-3.439
X5.0551Y-3.3425
X5.0591Y-3.629
X5.0591Y-3.6595
X5.0591Y-5.622
X5.0656Y-3.7421
X5.0709Y-3.874
X5.0709Y-4.2874
X5.0738Y-3.6862
X5.0906Y-2.8386
X5.0965Y-3.1811
X5.1063Y-4.8858
X5.1063Y-5.1063
X5.1102Y-3.815
X5.1102Y-4.8071
X5.1152Y-3.7628
X5.1181Y-2.5945
X5.1181Y-2.6693
X5.1181Y-3.9567
X5.1181Y-4.1299
X5.122Y-2.0394
X5.126Y-3.3898
X5.1299Y-3.435
X5.1303Y-3.5363
X5.1319Y-3.3366
X5.1378Y-3.2697
X5.1457Y-2.2638
X5.1496Y-2.8425
X5.1496Y-3.3622
X5.1535Y-3.4134
X5.1545Y-3.5606
X5.1575Y-3.6634
X5.1575Y-4.2421
X5.1575Y-4.937
X5.1654Y-3.8031
X5.1673Y-3.5955
X5.1763Y-3.1436
X5.1811Y-5.6417
X5.2008Y-4.5984
X5.2063Y-3.1096
X5.2087Y-3.4961
X5.2106Y-4.2421
X5.2108Y-3.2302
X5.2126Y-2.8307
X5.2126Y-3.0276
X5.2205Y-5.2559
X5.2283Y-4.8189
X5.2302Y-3.4745
X5.2323Y-4.4055
X5.2402Y-2.5709
X5.252Y-2.8307
X5.252Y-3.0276
X5.2579Y-3.063
X5.2579Y-3.0945
X5.2598Y-2.063
X5.2598Y-5.8543
X5.2697Y-4.2421
X5.2717Y-2.8858
X5.2964Y-3.1577
X5.3031Y-2.4409
X5.3071Y-3.6181
X5.315Y-4.937
X5.3228Y-2.3386
X5.3228Y-5.0669
X5.3248Y-4.2421
X5.3268Y-3.7717
X5.3465Y-2.7756
X5.3504Y-4.4961
X5.3514Y-4.5394
X5.3514Y-4.5866
X5.3622Y-5.7008
X5.3661Y-4.0236
X5.378Y-4.252
X5.3819Y-4.8268
X5.3937Y-4.9331
X5.4055Y-2.6378
X5.4085Y-3.5689
X5.4173Y-2.0394
X5.4252Y-4.6732
X5.4291Y-2.7126
X5.4331Y-5.1535
X5.4331Y-5.1929
X5.4488Y-2.437
X5.4567Y-2.7835
X5.4606Y-3.8622
X5.4606Y-4.437
X5.4843Y-3.6378
X5.4843Y-3.685
X5.4843Y-4.0748
X5.4843Y-5.8465
X5.4882Y-3.9646
X5.4921Y-3.5945
X5.4921Y-4.374
X5.5Y-5.2152
X5.5039Y-2.685
X5.5039Y-4.2953
X5.5118Y-5.5354
X5.5157Y-2.7362
X5.5157Y-3.7874
X5.5236Y-2.6102
X5.5276Y-2.2402
X5.5354Y-3.311
X5.5472Y-3.5945
X5.5512Y-3.6772
X5.5591Y-5.252
X5.5669Y-5.4173
X5.5748Y-3.6299
X5.5866Y-3.8268
X5.5866Y-5.8622
X5.5906Y-3.4291
X5.6102Y-3.2579
X5.626Y-4.6555
X5.626Y-5.0276
X5.6378Y-3.2992
X5.6378Y-3.378
X5.6378Y-3.4291
X5.6398Y-4.8386
X5.6417Y-5.3819
X5.6417Y-5.4685
X5.6713Y-3.5866
X5.6772Y-3.7638
X5.689Y-4.2874
X5.7008Y-5.2795
X5.7283Y-2.0079
X5.7441Y-5.6102
X5.7539Y-5.7343
X5.7638Y-5.372
X5.7638Y-5.8031
X5.7756Y-5.878
X5.8071Y-2.2126
X5.8071Y-5.8819
X5.811Y-3.2598
X5.811Y-3.4173
X5.8268Y-3.6772
X5.8504Y-3.7598
X5.8543Y-4.3268
X5.8661Y-5.8858
X5.878Y-5.3465
X5.8819Y-5.4016
X5.8858Y-5.2953
X5.9055Y-4.5787
X5.9055Y-5.8031
X5.9055Y-5.8465
X5.9173Y-4.8228
X5.9252Y-5.3228
X5.9331Y-5.2303
X5.937Y-5.0039
X5.937Y-5.3976
X5.9449Y-3.7402
X5.9508Y-3.5886
X5.9528Y-3.2559
X5.9567Y-3.1772
X5.9724Y-4.7283
X5.9882Y-3.374
X6.0Y-4.5236
X6.002Y-5.2323
X6.0039Y-2.0886
X6.0039Y-5.8169
X6.0098Y-5.3031
X6.0118Y-4.3268
X6.0118Y-5.5492
X6.0295Y-5.6555
X6.0394Y-5.0906
X6.063Y-2.0197
X6.0787Y-4.8386
X6.0906Y-2.2008
X6.0906Y-3.1732
X6.0906Y-5.0827
X6.1024Y-3.6732
X6.1043Y-5.2106
X6.1102Y-5.3976
X6.1181Y-5.8307
X6.122Y-5.6969
X6.1378Y-5.0709
X6.1417Y-2.1063
X6.1417Y-4.6299
X6.1457Y-3.811
X6.1457Y-4.311
X6.1535Y-3.4291
X6.185Y-4.7323
X6.185Y-5.3957
X6.1969Y-2.0079
X6.1969Y-3.7559
X6.2067Y-4.6083
X6.2146Y-5.1933
X6.2165Y-2.2756
X6.2244Y-5.0591
X6.2244Y-5.0949
X6.2402Y-3.5866
X6.246Y-5.195
X6.248Y-5.4016
X6.25Y-5.8209
X6.252Y-2.1378
X6.2559Y-5.5394
X6.2681Y-4.2616
X6.2795Y-3.4213
X6.2844Y-4.2874
X6.2913Y-2.3583
X6.2913Y-5.0669
X6.3002Y-4.5827
X6.3051Y-5.311
X6.3071Y-2.8071
X6.311Y-2.8819
X6.3159Y-4.675
X6.3307Y-5.5492
X6.3386Y-5.0394
X6.3543Y-3.4094
X6.3583Y-2.9567
X6.374Y-3.1654
X6.378Y-5.7382
X6.3799Y-5.8307
X6.3858Y-5.4665
X6.3898Y-5.0591
X6.3996Y-5.2953
X6.4173Y-2.8386
X6.4252Y-2.8976
X6.4252Y-3.2441
X6.4331Y-2.6417
X6.4446Y-3.421
X6.4534Y-3.3864
X6.4557Y-4.0588
X6.4577Y-3.1969
X6.4646Y-2.3189
X6.4764Y-2.8701
X6.4764Y-4.0039
X6.4843Y-5.7717
X6.4852Y-5.3071
X6.4877Y-3.1107
X6.4882Y-3.7028
X6.4961Y-5.8425
X6.5039Y-3.0627
X6.5118Y-3.6693
X6.5175Y-4.9274
X6.5197Y-5.1378
X6.5272Y-3.6059
X6.5354Y-5.874
X6.5383Y-4.9051
X6.5394Y-4.9764
X6.5472Y-3.8386
X6.5512Y-3.8898
X6.5512Y-3.9685
X6.5709Y-3.7756
X6.5709Y-3.813
X6.5709Y-5.8425
X6.5748Y-4.1417
X6.5768Y-3.5709
X6.5787Y-4.3268
X6.5866Y-4.2362
X6.5906Y-2.3465
X6.5906Y-2.7579
X6.5906Y-4.8858
X6.5965Y-3.8898
X6.5965Y-3.935
X6.5984Y-3.6654
X6.6072Y-3.8406
X6.6142Y-2.5709
X6.6142Y-4.5984
X6.6181Y-4.1614
X6.626Y-4.2205
X6.628Y-3.6988
X6.6299Y-4.7402
X6.6378Y-5.0276
X6.6417Y-5.4094
X6.6457Y-3.0935
X6.6457Y-5.8622
X6.6476Y-2.75
X6.6535Y-4.1063
X6.6575Y-4.1575
X6.6575Y-5.3071
X6.6575Y-5.5669
X6.6592Y-3.4901
X6.6614Y-3.1972
X6.6614Y-2.9764
X6.6614Y-4.6496
X6.6654Y-5.2283
X6.6732Y-2.5315
X6.6811Y-5.0866
X6.685Y-2.0394
X6.689Y-3.4252
X6.6929Y-2.8858
X6.6929Y-3.1614
X6.7047Y-4.3976
X6.7087Y-3.2677
X6.7283Y-4.3307
X6.7323Y-2.5157
X6.7323Y-3.4528
X6.7323Y-4.5197
X6.739Y-3.9606
X6.7402Y-5.5787
X6.7441Y-4.2598
X6.748Y-4.0079
X6.7559Y-3.5236
X6.7638Y-2.6063
X6.7707Y-3.3238
X6.7815Y-5.7717
X6.7835Y-4.2598
X6.7874Y-5.0591
X6.7913Y-2.7874
X6.7913Y-3.2638
X6.7943Y-3.9616
X6.7992Y-3.4528
X6.8071Y-4.4291
X6.8071Y-5.8701
X6.811Y-4.0551
X6.811Y-4.9528
X6.815Y-5.4213
X6.8228Y-4.6693
X6.8257Y-3.96
X6.8268Y-5.2874
X6.8346Y-4.811
X6.8386Y-3.0787
X6.8425Y-3.2874
X6.8425Y-3.3661
X6.8504Y-3.5079
X6.8504Y-4.0551
X6.8504Y-4.3189
X6.8543Y-2.5906
X6.8583Y-2.8701
X6.8583Y-4.563
X6.874Y-5.752
X6.8944Y-3.7736
X6.9075Y-3.9016
X6.9134Y-2.1772
X6.9134Y-5.0984
X6.9173Y-2.9055
X6.937Y-5.1929
X6.9449Y-2.5551
X6.9449Y-4.4409
X6.9488Y-4.5984
X6.9528Y-3.3543
X6.9567Y-2.0709
X6.9567Y-3.748
X6.9724Y-4.3386
X6.9724Y-5.2677
X6.9803Y-3.252
X6.9803Y-3.5551
X6.9843Y-3.7854
X6.9843Y-5.5591
X6.9882Y-2.9921
X6.9882Y-3.9429
X6.9941Y-2.4134
X6.9961Y-4.0709
X6.9961Y-4.1535
X7.0039Y-5.7638
X7.0079Y-5.6063
X7.0079Y-5.8622
X7.0157Y-2.7874
X7.0157Y-4.7008
X7.0157Y-4.8346
X7.0236Y-3.8012
X7.0256Y-3.6043
X7.0276Y-4.0231
X7.0472Y-3.752
X7.0492Y-3.6319
X7.0531Y-4.0965
X7.0591Y-3.1339
X7.0748Y-3.5925
X7.0787Y-5.1457
X7.0945Y-5.4921
X7.0984Y-3.0394
X7.1004Y-5.7073
X7.1024Y-3.8031
X7.1181Y-5.0591
X7.1201Y-3.9528
X7.122Y-4.0827
X7.126Y-2.8819
X7.126Y-4.4882
X7.1299Y-4.5984
X7.1339Y-4.6969
X7.1378Y-2.7677
X7.1437Y-3.5945
X7.1437Y-4.2539
X7.1457Y-4.7835
X7.1496Y-3.2244
X7.1516Y-3.7815
X7.1535Y-4.3228
X7.1693Y-3.5591
X7.1811Y-5.3898
X7.1929Y-4.6457
X7.2047Y-3.0236
X7.2165Y-3.815
X7.2195Y-3.8701
X7.2205Y-3.4094
X7.2274Y-3.9173
X7.2283Y-3.7638
X7.2283Y-4.6929
X7.2441Y-3.2992
X7.2579Y-4.3839
X7.2677Y-4.435
X7.2795Y-2.9331
X7.2795Y-4.7126
X7.2835Y-4.0945
X7.2835Y-5.4449
X7.2835Y-5.8583
X7.2953Y-4.2894
X7.2992Y-3.5846
X7.2992Y-4.2402
X7.2992Y-5.1299
X7.3031Y-2.1969
X7.3071Y-5.7638
X7.3228Y-2.0354
X7.3228Y-3.7185
X7.3248Y-4.5965
X7.3268Y-2.3661
X7.3386Y-3.1929
X7.3386Y-4.0354
X7.3398Y-5.1941
X7.3425Y-3.8071
X7.3425Y-4.1063
X7.3543Y-4.2972
X7.3622Y-3.5276
X7.3661Y-4.4685
X7.3819Y-3.752
X7.4016Y-2.7126
X7.4016Y-5.8819
X7.4036Y-4.6475
X7.4055Y-2.8031
X7.4094Y-5.5098
X7.4134Y-2.8858
X7.4252Y-2.3583
X7.4272Y-3.8346
X7.4409Y-5.4724
X7.4449Y-3.752
X7.4488Y-2.2087
X7.4528Y-2.6614
X7.4528Y-2.8071
X7.4567Y-4.0591
X7.4587Y-5.5157
X7.4646Y-4.4685
X7.4646Y-5.622
X7.4685Y-5.0157
X7.4764Y-2.0472
X7.5Y-3.563
X7.5098Y-3.9213
X7.5472Y-2.2795
X7.5591Y-5.7402
X7.563Y-3.5709
X7.563Y-5.311
X7.5669Y-2.1339
X7.5925Y-4.4882
X7.6142Y-4.0492
X7.622Y-4.6102
X7.6417Y-4.2933
X7.6476Y-4.2224
X7.6535Y-3.063
X7.6535Y-5.8819
X7.6614Y-4.7913
X7.6732Y-2.0669
X7.6732Y-2.3661
X7.6772Y-2.5
X7.6772Y-4.6909
X7.6791Y-4.5472
X7.6811Y-2.6024
X7.685Y-4.1457
X7.7008Y-4.9961
X7.7087Y-2.2008
X7.7244Y-2.815
X7.7283Y-3.2874
X7.7638Y-2.0276
X7.7657Y-4.0433
X7.7677Y-3.122
X7.7835Y-2.9409
X7.7874Y-5.6654
X7.8031Y-2.6811
X7.8071Y-3.3661
X7.815Y-2.3307
X7.815Y-4.0925
X7.8209Y-4.502
X7.8307Y-2.4528
X7.8386Y-5.1693
X7.8386Y-5.2992
X7.8425Y-5.4685
X7.8465Y-4.7087
X7.8465Y-4.8819
X7.8465Y-5.7362
X7.8504Y-4.2126
T2
X4.5856Y-3.2598
X4.5856Y-3.3228
X4.5856Y-3.3858
X4.5856Y-3.4488
X4.6742Y-3.2598
X4.6742Y-3.3228
X4.6742Y-3.3858
X4.6742Y-3.4488
X5.1732Y-4.4724
X5.1732Y-4.5433
X5.2441Y-4.4724
X5.2441Y-4.5433
X6.7254Y-3.7894
X6.7254Y-3.8287
X6.7254Y-3.8681
X6.7648Y-3.7894
X6.7648Y-3.8287
X6.7648Y-3.8681
X6.8041Y-3.7894
X6.8041Y-3.8287
X6.8041Y-3.8681
T3
X4.2795Y-5.1565
X4.2876Y-4.9575
X6.2047Y-5.748
X6.5809Y-5.6614
T4
X5.1811Y-2.9577
X5.3817Y-3.127
X5.3937Y-2.874
X5.3937Y-2.9528
X5.4528Y-2.874
X5.4528Y-2.9528
X5.4528Y-3.0315
X5.5118Y-2.874
X5.5118Y-2.9528
X5.5118Y-3.0315
X5.5118Y-3.1102
X5.5709Y-2.874
X5.5709Y-3.1102
X5.6299Y-2.874
X5.6299Y-2.9528
X5.6299Y-3.0315
X5.6299Y-3.1102
X5.689Y-2.874
X5.689Y-2.9528
X5.689Y-3.0315
T5
X7.1831Y-4.5394
X7.2579Y-4.5394
T6
X4.3937Y-2.0394
X4.3937Y-2.1378
X4.3937Y-2.2362
X5.0827Y-4.3661
X5.1811Y-4.3661
X5.2795Y-4.3661
T7
X4.7398Y-3.0118
X4.7398Y-3.0618
X4.7898Y-3.0118
X4.7898Y-3.0618
X4.8398Y-3.0118
X4.8398Y-3.0618
X4.8898Y-3.0118
X4.8898Y-3.0618
X4.9398Y-3.0118
X4.9398Y-3.0618
X4.9898Y-3.0118
X4.9898Y-3.0618
X5.0398Y-3.0118
X5.0398Y-3.0618
X6.6232Y-5.6626
X6.6232Y-5.7126
X6.6232Y-5.7626
X6.6732Y-5.6626
X6.6732Y-5.7126
X6.6732Y-5.7626
T8
X6.7087Y-3.015
X6.7087Y-3.1031
X6.7709Y-3.1654
X6.8591Y-2.9528
X6.9213Y-3.015
X6.9213Y-3.1031
T9
X6.1752Y-2.5236
X6.2252Y-2.4736
X6.2252Y-2.5736
X7.1594Y-4.8819
X7.2094Y-4.8319
X7.2594Y-4.8819
T10
X4.4409Y-3.1725
X4.4409Y-3.271
X6.5273Y-2.0273
X6.5273Y-2.106
X6.5273Y-2.1847
X6.5273Y-2.2635
X6.5273Y-2.3422
X6.5273Y-2.421
X6.5273Y-2.4997
X6.5273Y-2.5784
X6.748Y-3.4016
X6.8819Y-3.4016
X7.0627Y-2.0273
X7.0627Y-2.106
X7.0627Y-2.1847
X7.0627Y-2.2635
X7.0627Y-2.3422
X7.0627Y-2.421
X7.0627Y-2.4997
X7.0627Y-2.5784
X7.128Y-3.6929
X7.2067Y-3.6929
T11
X6.3992Y-2.0276
X6.3992Y-2.1276
X6.3992Y-2.2276
X6.3992Y-2.3276
X6.3992Y-2.4276
X6.3992Y-2.5276
X6.4913Y-2.689
X6.5913Y-2.689
X6.6913Y-2.689
X6.7913Y-2.689
X6.8913Y-2.689
X6.9913Y-2.689
X7.0913Y-2.689
X7.1992Y-2.0276
X7.1992Y-2.1276
X7.1992Y-2.2276
X7.1992Y-2.3276
X7.1992Y-2.4276
X7.1992Y-2.5276
T12
X4.378Y-4.3543
X4.378Y-4.4543
X4.378Y-4.5543
X4.378Y-4.6543
X4.378Y-4.7543
X4.378Y-4.8543
X4.3937Y-5.1417
X4.3937Y-5.2417
X4.3937Y-5.3417
X4.3937Y-5.4417
X4.3937Y-5.5417
X4.3937Y-5.6417
X4.3937Y-5.7417
X4.3937Y-5.8417
X4.5197Y-4.3543
X4.5197Y-4.4543
X4.5197Y-4.5543
X4.5197Y-4.6543
X4.5197Y-4.7543
X4.5197Y-4.8543
X4.5276Y-3.8181
X4.5276Y-3.9181
X4.5276Y-4.0181
X4.5276Y-4.1181
X4.5354Y-5.1449
X4.5354Y-5.2449
X4.5354Y-5.3449
X4.5354Y-5.4449
X4.5354Y-5.5449
X4.5354Y-5.6449
X4.5354Y-5.7449
X4.5354Y-5.8449
X4.8701Y-4.1693
X4.9701Y-4.1693
X5.0701Y-4.1693
X5.1701Y-4.1693
X5.2244Y-3.7244
X5.2244Y-3.8244
X5.2244Y-3.9244
X5.2244Y-4.0244
X5.2701Y-4.1693
X5.3701Y-4.1693
X5.6055Y-4.4094
X5.7055Y-4.4094
X5.7461Y-3.2244
X5.7461Y-3.3244
X5.7461Y-3.4244
X5.8055Y-4.4094
X5.8878Y-3.2244
X5.8878Y-3.3244
X5.8878Y-3.4244
X5.9055Y-4.4094
X6.0055Y-4.4094
X6.0295Y-3.2244
X6.0295Y-3.3244
X6.0295Y-3.4244
X6.1055Y-4.4094
X6.2055Y-4.4094
X6.2077Y-3.2785
X6.2077Y-3.377
X6.6486Y-2.3602
X6.6486Y-2.4602
X6.7165Y-4.2047
X6.7165Y-4.7756
X6.7486Y-2.3602
X6.7486Y-2.4602
X6.815Y-4.2047
X6.8486Y-2.3602
X6.8486Y-2.4602
X6.9134Y-4.2047
X6.9134Y-4.7756
X6.9486Y-2.3602
X6.9486Y-2.4602
T13
X5.6862Y-2.4
X5.6862Y-2.5
X5.6862Y-2.6
T14
X4.2522Y-2.065
X4.2522Y-2.2028
X4.2522Y-2.3406
X4.2522Y-2.4783
X4.2522Y-3.1555
X4.2522Y-3.2933
X4.2522Y-3.4311
X4.2522Y-3.5689
X4.2522Y-3.7618
X4.2522Y-3.8996
X4.2522Y-4.0374
X4.2522Y-4.1752
X4.2522Y-4.3681
X4.2522Y-4.5059
X4.2522Y-4.6437
X4.2522Y-4.7815
X4.2522Y-5.3957
X4.2522Y-5.5335
X4.2522Y-5.6713
X4.2522Y-5.8091
X7.5589Y-2.4902
X7.5589Y-2.628
X7.5589Y-2.7657
X7.5589Y-2.9035
X7.5589Y-3.0965
X7.5589Y-3.2343
X7.5589Y-3.372
X7.5589Y-3.5098
X7.5591Y-4.7894
X7.5591Y-4.9272
X7.5591Y-5.065
X7.5591Y-5.2028
X7.5591Y-5.3957
X7.5591Y-5.5335
X7.5591Y-5.6713
X7.5591Y-5.8091
T15
X6.7146Y-3.5906
X6.7146Y-4.0827
X6.7165Y-4.8957
X6.7165Y-5.3878
X6.9114Y-3.5906
X6.9114Y-4.0827
X6.9134Y-4.8957
X6.9134Y-5.3878
T17
X4.3425Y-2.5118
X7.4685Y-2.5118
T18
X4.4764Y-5.0236
X7.311Y-5.0236
T6
G00X4.0295Y-2.6587
M15
G01X4.0531Y-2.6587
M16
G05
G00X4.0295Y-2.9988
M15
G01X4.0531Y-2.9988
M16
G05
G00X4.0315Y-4.8929
M15
G01X4.0551Y-4.8929
M16
G05
G00X4.0315Y-5.2331
M15
G01X4.0551Y-5.2331
M16
G05
G00X4.1843Y-2.6587
M15
G01X4.2276Y-2.6587
M16
G05
G00X4.1843Y-2.9988
M15
G01X4.2276Y-2.9988
M16
G05
G00X4.1862Y-4.8929
M15
G01X4.2295Y-4.8929
M16
G05
G00X4.1862Y-5.2331
M15
G01X4.2295Y-5.2331
M16
G05
T12
G00X4.4786Y-2.3504
M15
G01X4.4786Y-2.4291
M16
G05
G00X4.7031Y-2.2717
M15
G01X4.6243Y-2.2717
M16
G05
G00X4.7031Y-2.5079
M15
G01X4.6243Y-2.5079
M16
G05
T16
G00X6.5945Y-4.4744
M15
G01X6.5945Y-4.5256
M16
G05
G00X7.0354Y-4.4744
M15
G01X7.0354Y-4.5256
M16
G05
M30
