M48
; DRILL file {KiCad 8.0.3} date 2024-09-04T21:42:18+0200
; FORMAT={-:-/ absolute / inch / decimal}
; #@! TF.CreationDate,2024-09-04T21:42:18+02:00
; #@! TF.GenerationSoftware,Kicad,Pcbnew,8.0.3
; #@! TF.FileFunction,Plated,1,4,PTH
FMAT,2
INCH
; #@! TA.AperFunction,Plated,PTH,ComponentDrill
T1C0.0079
; #@! TA.AperFunction,Plated,PTH,ViaDrill
T2C0.0118
; #@! TA.AperFunction,Plated,PTH,ComponentDrill
T3C0.0118
; #@! TA.AperFunction,Plated,PTH,ViaDrill
T4C0.0157
; #@! TA.AperFunction,Plated,PTH,ViaDrill
T5C0.0197
; #@! TA.AperFunction,Plated,PTH,ComponentDrill
T6C0.0197
; #@! TA.AperFunction,Plated,PTH,ComponentDrill
T7C0.0236
; #@! TA.AperFunction,Plated,PTH,ComponentDrill
T8C0.0276
; #@! TA.AperFunction,Plated,PTH,ComponentDrill
T9C0.0295
; #@! TA.AperFunction,Plated,PTH,ComponentDrill
T10C0.0315
; #@! TA.AperFunction,Plated,PTH,ComponentDrill
T11C0.0354
; #@! TA.AperFunction,Plated,PTH,ComponentDrill
T12C0.0394
; #@! TA.AperFunction,Plated,PTH,ComponentDrill
T13C0.0433
; #@! TA.AperFunction,Plated,PTH,ComponentDrill
T14C0.0472
; #@! TA.AperFunction,Plated,PTH,ComponentDrill
T15C0.0591
; #@! TA.AperFunction,Plated,PTH,ComponentDrill
T16C0.0630
; #@! TA.AperFunction,Plated,PTH,ComponentDrill
T17C0.0787
%
G90
G05
T1
X5.1752Y-4.4843
X5.1752Y-4.5551
X5.2461Y-4.4843
X5.2461Y-4.5551
T2
X3.9606Y-5.378
X3.9685Y-5.5748
X3.9764Y-5.7795
X3.9921Y-2.0354
X4.0Y-5.4291
X4.0Y-5.6299
X4.0079Y-2.7205
X4.0098Y-4.7357
X4.0118Y-2.9291
X4.0197Y-2.315
X4.0197Y-5.8425
X4.0236Y-5.5472
X4.0246Y-4.685
X4.0276Y-5.0197
X4.0276Y-5.0984
X4.0315Y-5.1654
X4.0354Y-2.1575
X4.0354Y-5.7087
X4.0394Y-2.5079
X4.0394Y-3.8504
X4.0402Y-4.4843
X4.0453Y-4.3209
X4.0472Y-4.0354
X4.0492Y-3.2657
X4.0512Y-2.2677
X4.0551Y-3.4134
X4.0571Y-3.313
X4.061Y-4.6693
X4.0709Y-3.5079
X4.0709Y-4.3622
X4.0748Y-2.7362
X4.0748Y-4.9409
X4.0787Y-2.9331
X4.0866Y-2.0748
X4.0866Y-5.7165
X4.0906Y-5.5846
X4.0984Y-2.5472
X4.1024Y-4.5709
X4.1024Y-5.0315
X4.1063Y-5.6575
X4.1063Y-5.7756
X4.1083Y-4.7894
X4.1102Y-3.626
X4.1181Y-2.7382
X4.1181Y-2.9173
X4.1181Y-4.2992
X4.1181Y-5.3071
X4.126Y-5.1457
X4.128Y-3.9409
X4.1299Y-3.4528
X4.1299Y-4.3661
X4.1299Y-4.9291
X4.1299Y-5.8307
X4.1319Y-5.3484
X4.1339Y-3.7835
X4.1378Y-2.2579
X4.1378Y-4.5108
X4.1437Y-3.3465
X4.1457Y-3.5079
X4.1476Y-4.8051
X4.1496Y-3.8976
X4.1535Y-3.2835
X4.1535Y-4.6024
X4.1535Y-5.063
X4.1535Y-5.5
X4.1575Y-2.7795
X4.1614Y-2.1358
X4.1614Y-5.4626
X4.1654Y-2.8819
X4.1654Y-5.8858
X4.1673Y-4.7028
X4.1693Y-3.1339
X4.1732Y-4.6683
X4.185Y-4.3228
X4.185Y-5.6575
X4.1852Y-3.5433
X4.189Y-4.1909
X4.1925Y-4.7357
X4.2047Y-4.1102
X4.2087Y-4.2382
X4.2205Y-2.4094
X4.2244Y-5.4646
X4.2283Y-3.9803
X4.2402Y-3.3661
X4.2402Y-3.6614
X4.248Y-5.3268
X4.252Y-5.6024
X4.2677Y-4.2402
X4.2717Y-4.437
X4.2736Y-2.7028
X4.2736Y-2.9547
X4.2756Y-5.1969
X4.2756Y-5.4724
X4.2763Y-4.924
X4.2835Y-4.5768
X4.2913Y-5.8701
X4.3012Y-2.8465
X4.311Y-3.3661
X4.313Y-4.8386
X4.315Y-3.5051
X4.315Y-4.5925
X4.3169Y-4.9724
X4.3189Y-3.5709
X4.3248Y-3.1949
X4.3268Y-3.8937
X4.3277Y-2.7598
X4.3307Y-4.7047
X4.3307Y-5.7008
X4.3346Y-2.2559
X4.3346Y-4.2126
X4.3386Y-2.3268
X4.3386Y-3.122
X4.3386Y-3.7402
X4.3386Y-5.1122
X4.34Y-2.8747
X4.3406Y-3.0177
X4.3425Y-2.6417
X4.3465Y-2.4016
X4.3563Y-4.0492
X4.3661Y-4.1811
X4.367Y-3.6428
X4.3701Y-2.7205
X4.372Y-3.1634
X4.374Y-2.6614
X4.378Y-3.7087
X4.3819Y-3.2028
X4.3937Y-3.8543
X4.3937Y-3.937
X4.3976Y-4.0492
X4.4134Y-4.7008
X4.4154Y-2.7677
X4.4173Y-2.5669
X4.4173Y-4.5039
X4.4232Y-3.3307
X4.4272Y-2.6319
X4.4272Y-2.6929
X4.4291Y-3.0748
X4.4311Y-4.8209
X4.4331Y-4.2638
X4.4409Y-4.8602
X4.4449Y-2.8189
X4.4587Y-4.3071
X4.4606Y-5.1378
X4.4656Y-3.3396
X4.4705Y-2.0453
X4.4705Y-3.0984
X4.4724Y-2.2913
X4.4724Y-5.5315
X4.4724Y-5.622
X4.4724Y-5.8071
X4.4724Y-5.8819
X4.4764Y-5.7244
X4.4921Y-3.9705
X4.4941Y-3.872
X4.4961Y-4.2303
X4.5177Y-3.1673
X4.5413Y-2.1909
X4.5492Y-2.5492
X4.5512Y-3.2362
X4.5512Y-3.2638
X4.5512Y-3.2913
X4.561Y-2.5846
X4.563Y-3.1949
X4.563Y-4.1831
X4.5709Y-3.5945
X4.5748Y-3.5433
X4.5768Y-2.6181
X4.5787Y-5.689
X4.5886Y-4.2854
X4.5945Y-4.7047
X4.5984Y-3.2362
X4.5984Y-4.8583
X4.5987Y-5.2948
X4.6024Y-2.0236
X4.6043Y-5.1713
X4.6063Y-2.6004
X4.6063Y-2.6378
X4.6063Y-4.0394
X4.6083Y-4.7579
X4.6102Y-5.7953
X4.6116Y-3.034
X4.6142Y-5.7559
X4.6299Y-3.5276
X4.6299Y-5.8819
X4.6329Y-5.5846
X4.6339Y-5.0472
X4.6358Y-3.2638
X4.6457Y-3.9843
X4.6496Y-4.8386
X4.6535Y-2.0748
X4.6535Y-3.5827
X4.6535Y-4.6929
X4.6555Y-5.2224
X4.659Y-2.9798
X4.6644Y-5.5236
X4.6654Y-4.2106
X4.6693Y-4.5984
X4.6732Y-3.2402
X4.6772Y-3.6969
X4.689Y-5.5
X4.6904Y-5.2224
X4.6909Y-5.4528
X4.6969Y-3.5669
X4.7047Y-4.1024
X4.7205Y-5.4783
X4.7303Y-5.5669
X4.7303Y-5.5984
X4.7323Y-3.9528
X4.7559Y-2.4803
X4.7559Y-2.5256
X4.7677Y-4.1063
X4.7756Y-3.3661
X4.7756Y-4.1969
X4.7835Y-5.622
X4.7894Y-5.7657
X4.7933Y-2.4803
X4.7933Y-2.5256
X4.7953Y-5.5551
X4.7953Y-5.8268
X4.7953Y-5.8819
X4.7972Y-2.563
X4.8012Y-2.2815
X4.8031Y-3.5551
X4.81Y-5.2047
X4.813Y-3.3425
X4.815Y-3.2659
X4.8189Y-2.0236
X4.8256Y-3.2181
X4.8268Y-3.9685
X4.8287Y-2.563
X4.8406Y-3.5394
X4.8425Y-5.2913
X4.8602Y-3.3524
X4.8622Y-2.563
X4.8701Y-4.7795
X4.874Y-2.9154
X4.874Y-4.7205
X4.8819Y-2.0866
X4.8839Y-2.3583
X4.8858Y-3.0354
X4.8858Y-3.9882
X4.8937Y-2.563
X4.8976Y-5.1654
X4.9055Y-2.4724
X4.9055Y-2.6535
X4.9193Y-3.1339
X4.9223Y-3.001
X4.9272Y-2.563
X4.9311Y-2.4409
X4.9311Y-2.8051
X4.9331Y-5.7756
X4.9409Y-4.7205
X4.9449Y-3.1575
X4.9449Y-3.9449
X4.9488Y-2.6004
X4.9488Y-2.6378
X4.9488Y-4.7953
X4.9567Y-3.1063
X4.9626Y-2.6772
X4.9669Y-2.4977
X4.9843Y-3.5906
X4.9843Y-4.8425
X4.9882Y-3.1811
X4.9921Y-3.0039
X4.9961Y-3.6969
X5.0039Y-5.8425
X5.0079Y-2.9114
X5.0157Y-3.2195
X5.0256Y-2.7343
X5.0315Y-3.5827
X5.0315Y-5.2559
X5.0354Y-2.7677
X5.0455Y-3.3718
X5.0463Y-3.2982
X5.0551Y-5.3268
X5.0591Y-3.6161
X5.0591Y-4.1102
X5.0591Y-5.5472
X5.0591Y-5.622
X5.062Y-3.4262
X5.063Y-3.2707
X5.0669Y-3.4774
X5.0709Y-4.2874
X5.0807Y-3.5531
X5.0945Y-3.2608
X5.0945Y-4.0748
X5.1102Y-3.4469
X5.1122Y-4.9587
X5.1161Y-2.1811
X5.1161Y-3.4026
X5.122Y-2.0394
X5.122Y-4.2992
X5.1222Y-3.2399
X5.127Y-3.4843
X5.1299Y-4.126
X5.1457Y-2.2638
X5.1516Y-4.7756
X5.1535Y-3.2244
X5.1575Y-5.4961
X5.1693Y-3.3858
X5.1713Y-3.5669
X5.1772Y-2.8051
X5.1772Y-2.8602
X5.1772Y-2.9055
X5.1811Y-3.435
X5.1969Y-5.0787
X5.2008Y-2.2283
X5.2008Y-3.0276
X5.2008Y-4.5984
X5.2008Y-5.1417
X5.2028Y-4.9587
X5.2047Y-2.0374
X5.2087Y-2.1102
X5.2087Y-4.0059
X5.2087Y-4.248
X5.2185Y-3.3248
X5.2205Y-5.2559
X5.2244Y-4.7165
X5.2264Y-2.8307
X5.2274Y-3.5108
X5.2283Y-4.0472
X5.2362Y-4.6122
X5.2451Y-3.5571
X5.2559Y-2.8878
X5.2559Y-4.0945
X5.2717Y-4.248
X5.2776Y-3.3425
X5.2894Y-3.5472
X5.291Y-3.2438
X5.3031Y-4.8386
X5.3051Y-2.0177
X5.3051Y-2.0512
X5.3071Y-3.2992
X5.3187Y-4.6252
X5.3209Y-2.2205
X5.3209Y-3.0039
X5.3248Y-2.9508
X5.3268Y-3.4252
X5.3268Y-4.248
X5.3307Y-3.2618
X5.3425Y-3.1161
X5.3465Y-2.8386
X5.3504Y-4.5315
X5.351Y-4.4764
X5.3563Y-4.1024
X5.3583Y-2.0571
X5.3622Y-4.9602
X5.378Y-3.8583
X5.3819Y-2.9803
X5.3819Y-3.1654
X5.3819Y-3.4026
X5.3819Y-3.6772
X5.3829Y-3.3671
X5.3858Y-3.437
X5.3858Y-3.7559
X5.3858Y-4.0039
X5.3982Y-3.5157
X5.4016Y-2.2559
X5.4016Y-5.4587
X5.4034Y-3.2445
X5.4055Y-3.5512
X5.4055Y-4.9504
X5.4131Y-4.4232
X5.4134Y-3.5945
X5.4173Y-3.1142
X5.4193Y-3.0315
X5.4213Y-4.8346
X5.4232Y-2.8346
X5.4252Y-5.1417
X5.4331Y-3.0787
X5.435Y-4.313
X5.437Y-2.8937
X5.4469Y-2.0571
X5.4488Y-4.9602
X5.4606Y-4.4606
X5.4724Y-3.6732
X5.4724Y-4.7244
X5.4843Y-4.0748
X5.4843Y-4.6575
X5.4882Y-3.9646
X5.4921Y-5.0354
X5.4921Y-5.1181
X5.4952Y-3.495
X5.5Y-3.189
X5.5039Y-2.0256
X5.5039Y-4.1929
X5.5079Y-3.6417
X5.5079Y-3.8661
X5.5118Y-3.1299
X5.5118Y-5.563
X5.5157Y-3.7874
X5.5217Y-2.8248
X5.5217Y-2.9744
X5.5276Y-3.2087
X5.5354Y-4.9484
X5.5394Y-2.0256
X5.5394Y-4.8346
X5.5512Y-3.6614
X5.5551Y-4.7323
X5.5591Y-4.2461
X5.5669Y-5.2677
X5.5709Y-2.0256
X5.5827Y-3.3543
X5.5866Y-3.2874
X5.5866Y-3.8268
X5.5965Y-3.0591
X5.6004Y-3.1063
X5.6063Y-5.0079
X5.6142Y-4.5197
X5.6142Y-5.1417
X5.626Y-4.6555
X5.6299Y-3.252
X5.6299Y-4.6024
X5.6398Y-5.4961
X5.6417Y-3.3681
X5.6535Y-3.2835
X5.6713Y-5.4429
X5.6713Y-5.5472
X5.6732Y-5.0079
X5.6752Y-4.7736
X5.6811Y-3.4931
X5.7047Y-5.6181
X5.7185Y-5.4331
X5.7185Y-5.502
X5.7185Y-5.5315
X5.7205Y-2.0256
X5.7248Y-3.5243
X5.7264Y-3.7756
X5.7323Y-5.6437
X5.7598Y-5.6161
X5.7657Y-4.6437
X5.7677Y-4.5315
X5.7677Y-4.7795
X5.7677Y-4.8445
X5.7697Y-5.5866
X5.8051Y-5.624
X5.8327Y-4.2972
X5.8425Y-5.0965
X5.8425Y-5.1476
X5.8439Y-5.0472
X5.8445Y-5.5965
X5.8622Y-4.5413
X5.8642Y-5.5315
X5.8701Y-3.4961
X5.874Y-4.8031
X5.878Y-5.0079
X5.8799Y-5.6339
X5.8858Y-5.5669
X5.9009Y-3.5243
X5.9055Y-5.1102
X5.9055Y-5.3622
X5.9193Y-2.0118
X5.9291Y-5.6142
X5.9331Y-5.437
X5.937Y-5.0039
X5.937Y-5.252
X5.937Y-5.4961
X5.9449Y-3.7402
X5.9783Y-4.7992
X5.9794Y-4.7668
X5.9803Y-4.2972
X5.9803Y-5.2992
X6.0Y-3.7953
X6.002Y-2.1634
X6.0039Y-4.4921
X6.0059Y-2.1004
X6.0137Y-4.7997
X6.0315Y-5.0
X6.0315Y-5.5354
X6.0354Y-5.1693
X6.0512Y-3.4931
X6.063Y-2.0197
X6.0805Y-3.5254
X6.0906Y-2.2008
X6.0945Y-4.4882
X6.1024Y-3.4213
X6.1063Y-4.9606
X6.1102Y-5.622
X6.1181Y-5.0787
X6.124Y-3.3091
X6.1299Y-2.0846
X6.1299Y-5.5039
X6.1417Y-5.4094
X6.1442Y-4.9458
X6.1575Y-4.7598
X6.1693Y-3.1496
X6.1789Y-4.9463
X6.1831Y-4.8494
X6.1929Y-5.1575
X6.1969Y-2.0079
X6.2047Y-3.8071
X6.2077Y-4.7736
X6.2087Y-5.0472
X6.2126Y-4.811
X6.2165Y-2.2874
X6.2165Y-3.7559
X6.2205Y-5.4646
X6.2224Y-3.8622
X6.2362Y-4.7087
X6.2441Y-4.9646
X6.248Y-4.8031
X6.248Y-5.189
X6.248Y-5.4016
X6.2549Y-5.5817
X6.2559Y-3.1654
X6.2559Y-5.5394
X6.2579Y-4.7362
X6.2591Y-3.5248
X6.2598Y-2.6181
X6.2598Y-5.6299
X6.2638Y-2.8622
X6.2638Y-2.9646
X6.2638Y-5.1063
X6.2717Y-2.1004
X6.2756Y-2.7559
X6.2763Y-4.8491
X6.2795Y-3.9961
X6.2835Y-4.1004
X6.2835Y-4.6772
X6.2854Y-4.7638
X6.2874Y-2.6457
X6.2904Y-3.8189
X6.2904Y-3.8543
X6.2913Y-2.3583
X6.2913Y-4.2992
X6.2953Y-4.9646
X6.3051Y-5.311
X6.3071Y-3.2677
X6.311Y-4.8494
X6.313Y-4.5984
X6.3209Y-2.2264
X6.3307Y-4.7815
X6.3327Y-3.2933
X6.3327Y-5.5276
X6.3346Y-5.3937
X6.3386Y-5.1457
X6.3425Y-5.6299
X6.3465Y-2.8976
X6.3524Y-3.2539
X6.3543Y-3.1614
X6.3543Y-5.0197
X6.3622Y-3.4685
X6.3622Y-5.2362
X6.3661Y-2.8307
X6.374Y-3.2933
X6.3858Y-5.0551
X6.3858Y-5.4665
X6.3907Y-2.9636
X6.3996Y-5.2953
X6.4055Y-3.4173
X6.4055Y-4.9606
X6.4168Y-4.5536
X6.4213Y-2.8819
X6.4252Y-5.378
X6.4252Y-5.5315
X6.4252Y-5.626
X6.4291Y-2.9331
X6.4301Y-5.1142
X6.4331Y-2.6417
X6.4409Y-3.7638
X6.4528Y-2.0787
X6.4537Y-5.1988
X6.4557Y-4.0591
X6.4567Y-5.5984
X6.4606Y-2.2126
X6.4606Y-3.6555
X6.4646Y-2.3189
X6.4646Y-3.3543
X6.4646Y-5.1476
X6.4682Y-4.8532
X6.4724Y-4.9094
X6.4751Y-4.5564
X6.4756Y-4.5189
X6.4764Y-2.4409
X6.4803Y-3.252
X6.4843Y-3.1181
X6.4843Y-4.1378
X6.4862Y-3.0827
X6.4873Y-3.0504
X6.4882Y-3.1929
X6.492Y-4.8308
X6.4921Y-2.5354
X6.4921Y-3.3268
X6.4941Y-5.622
X6.5039Y-4.878
X6.5157Y-3.8661
X6.5276Y-4.8504
X6.5315Y-4.0512
X6.5315Y-4.4528
X6.5315Y-5.5945
X6.5354Y-4.8898
X6.5433Y-5.3661
X6.5433Y-5.4961
X6.5472Y-4.9331
X6.5512Y-5.1417
X6.5512Y-5.252
X6.5591Y-5.6339
X6.5683Y-4.7679
X6.5709Y-5.0354
X6.5748Y-2.252
X6.5787Y-2.4291
X6.5787Y-4.9016
X6.5827Y-2.8031
X6.5827Y-3.6142
X6.5866Y-4.2402
X6.5906Y-2.3465
X6.5906Y-2.7579
X6.5945Y-3.748
X6.5945Y-5.1142
X6.5984Y-2.311
X6.5984Y-3.5197
X6.5984Y-5.7205
X6.6024Y-4.7682
X6.6063Y-4.7022
X6.6063Y-5.311
X6.6142Y-2.5709
X6.6142Y-5.7835
X6.622Y-4.9055
X6.626Y-5.6339
X6.6299Y-5.5945
X6.6299Y-5.6811
X6.6339Y-3.9173
X6.6457Y-3.0512
X6.6457Y-4.6614
X6.6457Y-4.7717
X6.6476Y-2.75
X6.6535Y-4.1811
X6.6535Y-4.2244
X6.6535Y-5.8465
X6.6575Y-4.5157
X6.6634Y-2.9193
X6.6654Y-3.7283
X6.6654Y-4.4291
X6.6654Y-5.2598
X6.6693Y-4.8543
X6.6732Y-2.5315
X6.6732Y-3.7835
X6.6732Y-5.5085
X6.6732Y-5.7402
X6.6772Y-2.0945
X6.6772Y-5.626
X6.6801Y-4.0601
X6.685Y-2.0394
X6.685Y-4.4685
X6.6929Y-2.8858
X6.6929Y-5.4291
X6.7008Y-2.3819
X6.7008Y-3.5079
X6.7008Y-5.4685
X6.7165Y-4.2913
X6.7202Y-4.5548
X6.7205Y-5.3988
X6.7323Y-2.5157
X6.7323Y-4.4291
X6.7362Y-5.748
X6.7402Y-2.8346
X6.7441Y-4.6634
X6.748Y-2.9567
X6.748Y-3.2913
X6.752Y-3.063
X6.7559Y-5.5433
X6.7559Y-5.7874
X6.7638Y-2.6063
X6.7638Y-4.3898
X6.7874Y-3.2559
X6.7874Y-5.8228
X6.7913Y-2.7874
X6.7913Y-4.748
X6.8071Y-3.5591
X6.811Y-3.7638
X6.811Y-4.9528
X6.815Y-3.372
X6.815Y-5.5551
X6.8189Y-4.7953
X6.8228Y-5.2323
X6.8248Y-4.0669
X6.8268Y-2.5236
X6.8268Y-3.1565
X6.8346Y-4.3071
X6.8346Y-4.689
X6.8496Y-5.4988
X6.8504Y-5.437
X6.8543Y-2.5906
X6.8543Y-4.4331
X6.8583Y-2.8701
X6.8622Y-2.1929
X6.8701Y-3.5827
X6.874Y-4.4764
X6.874Y-5.248
X6.8937Y-5.4528
X6.8976Y-2.5354
X6.9016Y-4.3071
X6.9055Y-3.8071
X6.9094Y-2.315
X6.9094Y-5.3937
X6.9134Y-2.1772
X6.9134Y-4.4488
X6.9134Y-5.0984
X6.9173Y-2.0157
X6.9173Y-2.9055
X6.9291Y-4.063
X6.9331Y-4.4823
X6.9331Y-4.9094
X6.937Y-3.185
X6.9409Y-3.7205
X6.9429Y-4.6299
X6.9449Y-2.5551
X6.9449Y-2.8406
X6.9528Y-3.3543
X6.9567Y-2.0709
X6.959Y-5.4786
X6.9606Y-5.2323
X6.9646Y-5.5433
X6.9724Y-5.6831
X6.9724Y-5.878
X6.9764Y-2.5276
X6.9803Y-2.1142
X6.9803Y-5.4055
X6.9902Y-3.063
X6.9921Y-3.7874
X6.9961Y-4.1535
X6.9961Y-5.6417
X7.0Y-3.4094
X7.0Y-3.4646
X7.0Y-5.2953
X7.0079Y-2.1969
X7.0079Y-4.6929
X7.0157Y-2.7874
X7.0217Y-5.5177
X7.0276Y-5.4252
X7.0315Y-5.1732
X7.0354Y-4.811
X7.0394Y-3.5591
X7.0394Y-3.8425
X7.0472Y-4.2323
X7.0531Y-4.0965
X7.0551Y-4.1654
X7.0591Y-3.7402
X7.061Y-3.311
X7.063Y-3.9724
X7.0709Y-4.689
X7.0709Y-4.878
X7.0787Y-5.1142
X7.0827Y-3.6535
X7.0866Y-4.375
X7.0945Y-4.1299
X7.0984Y-4.9567
X7.1024Y-4.437
X7.1063Y-3.9252
X7.1102Y-4.2008
X7.1142Y-4.2618
X7.122Y-4.5
X7.126Y-2.8819
X7.1299Y-2.1732
X7.1319Y-5.7224
X7.1339Y-2.0236
X7.1378Y-2.7677
X7.1457Y-4.7835
X7.1496Y-3.2244
X7.1535Y-3.6299
X7.1654Y-3.563
X7.1654Y-4.689
X7.1732Y-3.7244
X7.1732Y-5.8268
X7.1772Y-4.4409
X7.1811Y-5.0039
X7.1811Y-5.1063
X7.1811Y-5.3898
X7.189Y-4.0709
X7.189Y-4.6575
X7.1969Y-5.4311
X7.1969Y-5.6181
X7.2008Y-3.9173
X7.2047Y-3.4843
X7.2205Y-3.4094
X7.2283Y-3.7638
X7.2343Y-3.1673
X7.2441Y-2.2717
X7.2441Y-3.2992
X7.248Y-5.378
X7.252Y-5.5472
X7.2618Y-2.7776
X7.2657Y-4.2008
X7.2677Y-4.1496
X7.2717Y-3.685
X7.2717Y-4.622
X7.2736Y-4.2539
X7.2756Y-3.9173
X7.2756Y-4.3937
X7.2835Y-5.4449
X7.2854Y-2.9685
X7.2953Y-4.6654
X7.2953Y-5.2756
X7.2992Y-5.1299
X7.3031Y-2.1969
X7.315Y-2.5098
X7.3228Y-2.0354
X7.3248Y-4.5965
X7.3268Y-2.3661
X7.3268Y-3.626
X7.3268Y-4.4094
X7.3307Y-3.8307
X7.3346Y-4.6969
X7.3386Y-3.1929
X7.3398Y-5.1941
X7.3425Y-3.9488
X7.3425Y-4.1063
X7.3445Y-5.7185
X7.3504Y-4.8465
X7.3583Y-2.6358
X7.3583Y-2.6772
X7.3602Y-2.7165
X7.374Y-4.622
X7.374Y-5.8661
X7.376Y-3.7697
X7.378Y-4.5079
X7.3937Y-5.2598
X7.3976Y-2.6378
X7.3976Y-2.7165
X7.4055Y-2.7559
X7.4094Y-4.0906
X7.4134Y-3.622
X7.4134Y-4.2795
X7.4173Y-3.8031
X7.4213Y-5.4646
X7.4232Y-3.6654
X7.4252Y-2.3583
X7.4252Y-4.1969
X7.4252Y-4.4606
X7.4272Y-3.8346
X7.4291Y-5.8031
X7.4409Y-5.2441
X7.4488Y-2.2087
X7.4488Y-4.8583
X7.4567Y-4.0591
X7.4567Y-5.5984
X7.4646Y-4.5354
X7.4685Y-5.0157
X7.4724Y-5.1142
X7.4764Y-2.0472
X7.4882Y-3.4685
X7.4882Y-3.622
X7.4961Y-5.626
X7.5Y-3.563
X7.5098Y-3.9213
X7.5354Y-4.4213
X7.5472Y-2.2795
X7.5591Y-4.0157
X7.563Y-3.8071
X7.563Y-5.311
X7.5669Y-2.1339
X7.5669Y-3.5669
X7.5669Y-4.2402
X7.5748Y-4.0669
X7.5787Y-4.6024
X7.5787Y-5.4606
X7.5866Y-3.6319
X7.5866Y-4.3976
X7.5886Y-5.7402
X7.5984Y-4.1457
X7.5984Y-4.5236
X7.6102Y-3.7126
X7.622Y-4.6102
X7.6378Y-5.0
X7.6378Y-5.3858
X7.6417Y-4.2933
X7.6417Y-5.815
X7.6476Y-4.2224
X7.6535Y-3.063
X7.6535Y-5.8819
X7.6614Y-4.7913
X7.6614Y-5.5236
X7.6654Y-5.6339
X7.6732Y-2.0669
X7.6732Y-2.3661
X7.6732Y-3.8386
X7.6772Y-2.5
X7.6772Y-4.6909
X7.6791Y-4.5472
X7.6811Y-2.6024
X7.6811Y-3.7283
X7.685Y-4.1457
X7.6929Y-3.7756
X7.6988Y-3.3917
X7.7008Y-4.9961
X7.7087Y-2.2008
X7.7087Y-5.0276
X7.7087Y-5.4606
X7.7126Y-4.0335
X7.7224Y-3.5925
X7.7244Y-2.815
X7.7283Y-3.2874
X7.7283Y-3.4724
X7.7323Y-4.4173
X7.7402Y-4.8937
X7.752Y-5.4606
X7.7559Y-3.9528
X7.7638Y-2.0276
X7.7638Y-4.1614
X7.7657Y-4.0433
X7.7677Y-3.122
X7.7677Y-3.7323
X7.7677Y-3.8661
X7.7677Y-4.2992
X7.7677Y-4.5984
X7.7835Y-2.9409
X7.7874Y-5.6654
X7.7953Y-5.0276
X7.7953Y-5.4606
X7.7953Y-5.7874
X7.8031Y-2.6811
X7.8071Y-3.3661
X7.8071Y-3.4567
X7.8071Y-3.5906
X7.8071Y-3.8898
X7.8071Y-4.0236
X7.811Y-4.3189
X7.815Y-2.3307
X7.8268Y-4.1437
X7.8307Y-2.4528
X7.8307Y-4.5217
X7.8346Y-3.8504
X7.8346Y-5.248
X7.8445Y-3.7205
X7.8465Y-4.7087
X7.8465Y-4.8819
X7.8465Y-5.7362
X7.8504Y-4.2126
X7.8504Y-4.5984
X7.8504Y-5.1142
X7.8504Y-5.3504
X7.8504Y-5.5984
T3
X4.5833Y-3.311
X4.5833Y-3.374
X4.5833Y-3.437
X4.5833Y-3.5
X4.6719Y-3.311
X4.6719Y-3.374
X4.6719Y-3.437
X4.6719Y-3.5
X6.4126Y-4.6819
X6.4405Y-4.654
X6.4405Y-4.7097
X6.4683Y-4.6262
X6.4683Y-4.6819
X6.4683Y-4.7376
X6.4961Y-4.654
X6.4961Y-4.7097
X6.524Y-4.6819
T4
X4.2795Y-5.1565
X4.2808Y-4.9665
T5
X5.0238Y-2.676
X5.0787Y-2.3031
X5.0787Y-2.3622
X5.0787Y-2.4213
X5.0787Y-2.4803
X5.126Y-2.5236
X5.1378Y-2.5787
X5.1378Y-2.6378
X5.1378Y-2.6969
X5.1378Y-2.7559
X5.1969Y-2.3031
X5.1969Y-2.3622
X5.1969Y-2.4213
X5.1969Y-2.4803
X5.1969Y-2.5787
X5.1969Y-2.6378
X5.1969Y-2.6969
X5.1969Y-2.7559
X5.2559Y-2.3031
X5.2559Y-2.3622
X5.2559Y-2.4213
X5.2953Y-2.7559
X5.3346Y-2.3622
X5.374Y-2.4803
X5.374Y-2.5787
X5.374Y-2.6378
X5.374Y-2.6969
X5.374Y-2.7559
X5.4331Y-2.4213
X5.4331Y-2.4803
X5.4331Y-2.5787
X5.4331Y-2.6378
X5.4331Y-2.6969
X5.4331Y-2.7559
X5.4921Y-2.3622
X5.4921Y-2.4213
X5.4921Y-2.4803
X5.4921Y-2.5787
X5.4921Y-2.6378
X5.4921Y-2.6969
T6
X6.5669Y-4.8268
X7.1831Y-4.5276
X7.2579Y-4.5276
T7
X4.3937Y-2.0394
X4.3937Y-2.1378
X4.3937Y-2.2362
X5.0827Y-4.3661
X5.1811Y-4.3661
X5.2795Y-4.3661
T8
X5.2362Y-3.0787
X6.7087Y-3.015
X6.7087Y-3.1031
X6.7709Y-3.1654
X6.8591Y-2.9528
X6.9213Y-3.015
X6.9213Y-3.1031
T9
X6.1752Y-2.5236
X6.2252Y-2.4736
X6.2252Y-2.5736
X7.1594Y-4.8819
X7.2094Y-4.8319
X7.2594Y-4.8819
T10
X4.3795Y-3.4303
X4.4409Y-3.1725
X4.4409Y-3.271
X4.8795Y-3.4303
X5.937Y-4.5807
X5.937Y-4.6594
X6.5273Y-2.0273
X6.5273Y-2.106
X6.5273Y-2.1847
X6.5273Y-2.2635
X6.5273Y-2.3422
X6.5273Y-2.421
X6.5273Y-2.4997
X6.5273Y-2.5784
X6.748Y-3.4016
X6.8819Y-3.4016
X7.0627Y-2.0273
X7.0627Y-2.106
X7.0627Y-2.1847
X7.0627Y-2.2635
X7.0627Y-2.3422
X7.0627Y-2.421
X7.0627Y-2.4997
X7.0627Y-2.5784
T11
X6.3992Y-2.0276
X6.3992Y-2.1276
X6.3992Y-2.2276
X6.3992Y-2.3276
X6.3992Y-2.4276
X6.3992Y-2.5276
X6.4913Y-2.689
X6.5913Y-2.689
X6.6913Y-2.689
X6.7913Y-2.689
X6.8913Y-2.689
X6.9913Y-2.689
X7.0913Y-2.689
X7.1992Y-2.0276
X7.1992Y-2.1276
X7.1992Y-2.2276
X7.1992Y-2.3276
X7.1992Y-2.4276
X7.1992Y-2.5276
T12
X4.378Y-4.3543
X4.378Y-4.4543
X4.378Y-4.5543
X4.378Y-4.6543
X4.378Y-4.7543
X4.378Y-4.8543
X4.3937Y-5.1417
X4.3937Y-5.2417
X4.3937Y-5.3417
X4.3937Y-5.4417
X4.3937Y-5.5417
X4.3937Y-5.6417
X4.3937Y-5.7417
X4.3937Y-5.8417
X4.5197Y-4.3543
X4.5197Y-4.4543
X4.5197Y-4.5543
X4.5197Y-4.6543
X4.5197Y-4.7543
X4.5197Y-4.8543
X4.5276Y-3.822
X4.5276Y-3.922
X4.5276Y-4.022
X4.5276Y-4.122
X4.5354Y-5.1449
X4.5354Y-5.2449
X4.5354Y-5.3449
X4.5354Y-5.4449
X4.5354Y-5.5449
X4.5354Y-5.6449
X4.5354Y-5.7449
X4.5354Y-5.8449
X4.753Y-3.6539
X4.753Y-3.7539
X4.853Y-3.6539
X4.853Y-3.7539
X4.8701Y-4.1693
X4.953Y-3.6539
X4.953Y-3.7539
X4.9701Y-4.1693
X5.0701Y-4.1693
X5.0807Y-3.9331
X5.1701Y-4.1693
X5.1807Y-3.9331
X5.2701Y-4.1693
X5.2807Y-3.9331
X5.3701Y-4.1693
X5.3807Y-3.9331
X5.6055Y-4.4094
X5.7055Y-4.4094
X5.7551Y-3.1622
X5.7551Y-3.2622
X5.7551Y-3.3622
X5.8055Y-4.4094
X5.8551Y-3.1622
X5.8551Y-3.2622
X5.8551Y-3.3622
X5.9055Y-4.4094
X5.9567Y-3.1622
X5.9567Y-3.2622
X5.9567Y-3.3622
X6.0055Y-4.4094
X6.0571Y-3.1622
X6.0571Y-3.2622
X6.0571Y-3.3622
X6.1055Y-4.4094
X6.2055Y-4.4094
X6.2162Y-3.2578
X6.2162Y-3.3562
X6.6486Y-2.3602
X6.6486Y-2.4602
X6.7165Y-4.2032
X6.7165Y-4.7741
X6.7486Y-2.3602
X6.7486Y-2.4602
X6.815Y-4.2032
X6.8486Y-2.3602
X6.8486Y-2.4602
X6.9134Y-4.2032
X6.9134Y-4.7741
X6.9486Y-2.3602
X6.9486Y-2.4602
T13
X5.5421Y-2.085
X5.5421Y-2.185
X5.5421Y-2.285
T14
X4.2522Y-2.065
X4.2522Y-2.2028
X4.2522Y-2.3406
X4.2522Y-2.4783
X4.2522Y-3.1555
X4.2522Y-3.2933
X4.2522Y-3.4311
X4.2522Y-3.5689
X4.2522Y-3.7618
X4.2522Y-3.8996
X4.2522Y-4.0374
X4.2522Y-4.1752
X4.2522Y-4.3681
X4.2522Y-4.5059
X4.2522Y-4.6437
X4.2522Y-4.7815
X4.2522Y-5.3957
X4.2522Y-5.5335
X4.2522Y-5.6713
X4.2522Y-5.8091
X7.5589Y-2.4902
X7.5589Y-2.628
X7.5589Y-2.7657
X7.5589Y-2.9035
X7.5589Y-3.0965
X7.5589Y-3.2343
X7.5589Y-3.372
X7.5589Y-3.5098
X7.5591Y-4.7894
X7.5591Y-4.9272
X7.5591Y-5.065
X7.5591Y-5.2028
X7.5591Y-5.3957
X7.5591Y-5.5335
X7.5591Y-5.6713
X7.5591Y-5.8091
T16
X4.3425Y-2.5118
X7.4685Y-2.5118
T17
X4.4764Y-5.0236
X7.311Y-5.0236
T7
G00X4.0295Y-2.6587
M15
G01X4.0531Y-2.6587
M16
G05
G00X4.0295Y-2.9988
M15
G01X4.0531Y-2.9988
M16
G05
G00X4.0315Y-4.8929
M15
G01X4.0551Y-4.8929
M16
G05
G00X4.0315Y-5.2331
M15
G01X4.0551Y-5.2331
M16
G05
G00X4.1843Y-2.6587
M15
G01X4.2276Y-2.6587
M16
G05
G00X4.1843Y-2.9988
M15
G01X4.2276Y-2.9988
M16
G05
G00X4.1862Y-4.8929
M15
G01X4.2295Y-4.8929
M16
G05
G00X4.1862Y-5.2331
M15
G01X4.2295Y-5.2331
M16
G05
T12
G00X4.4786Y-2.3504
M15
G01X4.4786Y-2.4291
M16
G05
G00X4.7031Y-2.2717
M15
G01X4.6243Y-2.2717
M16
G05
G00X4.7031Y-2.5079
M15
G01X4.6243Y-2.5079
M16
G05
T15
G00X6.5945Y-4.4729
M15
G01X6.5945Y-4.5241
M16
G05
G00X7.0354Y-4.4729
M15
G01X7.0354Y-4.5241
M16
G05
M30
