%TF.GenerationSoftware,KiCad,Pcbnew,8.0.3*%
%TF.CreationDate,2024-09-04T21:42:18+02:00*%
%TF.ProjectId,labathome_pcb15,6c616261-7468-46f6-9d65-5f7063623135,rev?*%
%TF.SameCoordinates,Original*%
%TF.FileFunction,Soldermask,Bot*%
%TF.FilePolarity,Negative*%
%FSLAX46Y46*%
G04 Gerber Fmt 4.6, Leading zero omitted, Abs format (unit mm)*
G04 Created by KiCad (PCBNEW 8.0.3) date 2024-09-04 21:42:18*
%MOMM*%
%LPD*%
G01*
G04 APERTURE LIST*
G04 Aperture macros list*
%AMRoundRect*
0 Rectangle with rounded corners*
0 $1 Rounding radius*
0 $2 $3 $4 $5 $6 $7 $8 $9 X,Y pos of 4 corners*
0 Add a 4 corners polygon primitive as box body*
4,1,4,$2,$3,$4,$5,$6,$7,$8,$9,$2,$3,0*
0 Add four circle primitives for the rounded corners*
1,1,$1+$1,$2,$3*
1,1,$1+$1,$4,$5*
1,1,$1+$1,$6,$7*
1,1,$1+$1,$8,$9*
0 Add four rect primitives between the rounded corners*
20,1,$1+$1,$2,$3,$4,$5,0*
20,1,$1+$1,$4,$5,$6,$7,0*
20,1,$1+$1,$6,$7,$8,$9,0*
20,1,$1+$1,$8,$9,$2,$3,0*%
%AMRotRect*
0 Rectangle, with rotation*
0 The origin of the aperture is its center*
0 $1 length*
0 $2 width*
0 $3 Rotation angle, in degrees counterclockwise*
0 Add horizontal line*
21,1,$1,$2,0,0,$3*%
%AMFreePoly0*
4,1,19,0.500000,-0.750000,0.000000,-0.750000,0.000000,-0.744911,-0.071157,-0.744911,-0.207708,-0.704816,-0.327430,-0.627875,-0.420627,-0.520320,-0.479746,-0.390866,-0.500000,-0.250000,-0.500000,0.250000,-0.479746,0.390866,-0.420627,0.520320,-0.327430,0.627875,-0.207708,0.704816,-0.071157,0.744911,0.000000,0.744911,0.000000,0.750000,0.500000,0.750000,0.500000,-0.750000,0.500000,-0.750000,
$1*%
%AMFreePoly1*
4,1,19,0.000000,0.744911,0.071157,0.744911,0.207708,0.704816,0.327430,0.627875,0.420627,0.520320,0.479746,0.390866,0.500000,0.250000,0.500000,-0.250000,0.479746,-0.390866,0.420627,-0.520320,0.327430,-0.627875,0.207708,-0.704816,0.071157,-0.744911,0.000000,-0.744911,0.000000,-0.750000,-0.500000,-0.750000,-0.500000,0.750000,0.000000,0.750000,0.000000,0.744911,0.000000,0.744911,
$1*%
G04 Aperture macros list end*
%ADD10R,1.700000X1.700000*%
%ADD11O,1.700000X1.700000*%
%ADD12O,1.800000X1.400000*%
%ADD13RoundRect,0.500000X0.350000X0.350000X-0.350000X0.350000X-0.350000X-0.350000X0.350000X-0.350000X0*%
%ADD14RoundRect,0.750000X-1.000000X0.750000X-1.000000X-0.750000X1.000000X-0.750000X1.000000X0.750000X0*%
%ADD15RoundRect,0.750000X-1.000000X1.000000X-1.000000X-1.000000X1.000000X-1.000000X1.000000X1.000000X0*%
%ADD16RoundRect,0.875000X-0.875000X0.875000X-0.875000X-0.875000X0.875000X-0.875000X0.875000X0.875000X0*%
%ADD17RoundRect,0.450000X-0.750000X0.450000X-0.750000X-0.450000X0.750000X-0.450000X0.750000X0.450000X0*%
%ADD18RoundRect,0.250000X0.600000X-0.600000X0.600000X0.600000X-0.600000X0.600000X-0.600000X-0.600000X0*%
%ADD19C,1.500000*%
%ADD20R,1.100000X1.800000*%
%ADD21RoundRect,0.275000X-0.275000X-0.625000X0.275000X-0.625000X0.275000X0.625000X-0.275000X0.625000X0*%
%ADD22RoundRect,0.450000X0.750000X-0.450000X0.750000X0.450000X-0.750000X0.450000X-0.750000X-0.450000X0*%
%ADD23RoundRect,0.400000X-0.400000X-0.400000X0.400000X-0.400000X0.400000X0.400000X-0.400000X0.400000X0*%
%ADD24O,1.800000X1.600000*%
%ADD25O,1.400000X1.800000*%
%ADD26O,1.600000X2.200000*%
%ADD27C,1.700000*%
%ADD28RoundRect,0.400000X-0.400000X-0.600000X0.400000X-0.600000X0.400000X0.600000X-0.400000X0.600000X0*%
%ADD29O,1.600000X2.000000*%
%ADD30R,1.350000X1.350000*%
%ADD31C,1.350000*%
%ADD32C,1.200000*%
%ADD33RoundRect,0.400000X-0.400000X0.600000X-0.400000X-0.600000X0.400000X-0.600000X0.400000X0.600000X0*%
%ADD34R,2.000000X3.200000*%
%ADD35C,3.400000*%
%ADD36C,1.600000*%
%ADD37O,1.600000X1.600000*%
%ADD38RoundRect,0.250000X0.550000X-0.550000X0.550000X0.550000X-0.550000X0.550000X-0.550000X-0.550000X0*%
%ADD39RoundRect,0.500000X0.350000X-0.350000X0.350000X0.350000X-0.350000X0.350000X-0.350000X-0.350000X0*%
%ADD40RoundRect,0.100000X0.021213X0.162635X-0.162635X-0.021213X-0.021213X-0.162635X0.162635X0.021213X0*%
%ADD41RoundRect,0.150000X-0.587500X-0.150000X0.587500X-0.150000X0.587500X0.150000X-0.587500X0.150000X0*%
%ADD42RoundRect,0.100000X0.130000X0.100000X-0.130000X0.100000X-0.130000X-0.100000X0.130000X-0.100000X0*%
%ADD43RoundRect,0.140000X-0.140000X-0.170000X0.140000X-0.170000X0.140000X0.170000X-0.140000X0.170000X0*%
%ADD44RoundRect,0.250000X-1.500000X-0.550000X1.500000X-0.550000X1.500000X0.550000X-1.500000X0.550000X0*%
%ADD45RoundRect,0.200000X-0.200000X-0.275000X0.200000X-0.275000X0.200000X0.275000X-0.200000X0.275000X0*%
%ADD46O,3.500000X3.500000*%
%ADD47C,3.600000*%
%ADD48RoundRect,0.250000X-0.450000X0.350000X-0.450000X-0.350000X0.450000X-0.350000X0.450000X0.350000X0*%
%ADD49C,0.900000*%
%ADD50R,2.000000X0.700000*%
%ADD51R,0.800000X2.000000*%
%ADD52RoundRect,0.225000X0.225000X0.250000X-0.225000X0.250000X-0.225000X-0.250000X0.225000X-0.250000X0*%
%ADD53RoundRect,0.140000X-0.219203X-0.021213X-0.021213X-0.219203X0.219203X0.021213X0.021213X0.219203X0*%
%ADD54RoundRect,0.140000X-0.170000X0.140000X-0.170000X-0.140000X0.170000X-0.140000X0.170000X0.140000X0*%
%ADD55RoundRect,0.135000X0.135000X0.185000X-0.135000X0.185000X-0.135000X-0.185000X0.135000X-0.185000X0*%
%ADD56RoundRect,0.100000X-0.100000X0.130000X-0.100000X-0.130000X0.100000X-0.130000X0.100000X0.130000X0*%
%ADD57C,1.000000*%
%ADD58R,0.700000X1.600000*%
%ADD59R,1.200000X2.200000*%
%ADD60R,1.200000X1.500000*%
%ADD61R,1.600000X1.500000*%
%ADD62RoundRect,0.250000X-0.450000X-0.425000X0.450000X-0.425000X0.450000X0.425000X-0.450000X0.425000X0*%
%ADD63RoundRect,0.140000X-0.021213X0.219203X-0.219203X0.021213X0.021213X-0.219203X0.219203X-0.021213X0*%
%ADD64RoundRect,0.100000X-0.130000X-0.100000X0.130000X-0.100000X0.130000X0.100000X-0.130000X0.100000X0*%
%ADD65RoundRect,0.335000X-1.340000X-1.365000X1.340000X-1.365000X1.340000X1.365000X-1.340000X1.365000X0*%
%ADD66RoundRect,0.220000X-0.780000X-0.330000X0.780000X-0.330000X0.780000X0.330000X-0.780000X0.330000X0*%
%ADD67RoundRect,0.082000X-0.328000X-0.618000X0.328000X-0.618000X0.328000X0.618000X-0.328000X0.618000X0*%
%ADD68RoundRect,0.225000X-0.250000X0.225000X-0.250000X-0.225000X0.250000X-0.225000X0.250000X0.225000X0*%
%ADD69RoundRect,0.225000X0.250000X-0.225000X0.250000X0.225000X-0.250000X0.225000X-0.250000X-0.225000X0*%
%ADD70FreePoly0,180.000000*%
%ADD71FreePoly1,180.000000*%
%ADD72RoundRect,0.250000X-0.250000X-0.475000X0.250000X-0.475000X0.250000X0.475000X-0.250000X0.475000X0*%
%ADD73C,2.000000*%
%ADD74RoundRect,0.112500X-0.187500X-0.112500X0.187500X-0.112500X0.187500X0.112500X-0.187500X0.112500X0*%
%ADD75RoundRect,0.100000X0.100000X-0.130000X0.100000X0.130000X-0.100000X0.130000X-0.100000X-0.130000X0*%
%ADD76RoundRect,0.130000X0.520000X0.670000X-0.520000X0.670000X-0.520000X-0.670000X0.520000X-0.670000X0*%
%ADD77RoundRect,0.220000X0.330000X-0.780000X0.330000X0.780000X-0.330000X0.780000X-0.330000X-0.780000X0*%
%ADD78RoundRect,0.250000X0.750000X-1.250000X0.750000X1.250000X-0.750000X1.250000X-0.750000X-1.250000X0*%
%ADD79RoundRect,0.150000X0.825000X0.150000X-0.825000X0.150000X-0.825000X-0.150000X0.825000X-0.150000X0*%
%ADD80R,2.300000X2.300000*%
%ADD81RoundRect,0.150000X0.512500X0.150000X-0.512500X0.150000X-0.512500X-0.150000X0.512500X-0.150000X0*%
%ADD82RoundRect,0.112500X-0.112500X0.187500X-0.112500X-0.187500X0.112500X-0.187500X0.112500X0.187500X0*%
%ADD83O,1.350000X1.350000*%
%ADD84C,0.650000*%
%ADD85R,1.450000X0.600000*%
%ADD86R,1.450000X0.300000*%
%ADD87O,2.500000X2.000000*%
%ADD88O,3.500000X2.000000*%
%ADD89RoundRect,0.062500X0.282843X-0.194454X-0.194454X0.282843X-0.282843X0.194454X0.194454X-0.282843X0*%
%ADD90RoundRect,0.062500X0.282843X0.194454X0.194454X0.282843X-0.282843X-0.194454X-0.194454X-0.282843X0*%
%ADD91RotRect,3.600000X3.600000X135.000000*%
%ADD92RoundRect,0.218750X0.026517X-0.335876X0.335876X-0.026517X-0.026517X0.335876X-0.335876X0.026517X0*%
%ADD93RoundRect,0.250000X0.450000X0.425000X-0.450000X0.425000X-0.450000X-0.425000X0.450000X-0.425000X0*%
%ADD94RoundRect,0.140000X0.140000X0.170000X-0.140000X0.170000X-0.140000X-0.170000X0.140000X-0.170000X0*%
%ADD95RoundRect,0.140000X0.170000X-0.140000X0.170000X0.140000X-0.170000X0.140000X-0.170000X-0.140000X0*%
%ADD96RoundRect,0.200000X-0.200000X0.750000X-0.200000X-0.750000X0.200000X-0.750000X0.200000X0.750000X0*%
%ADD97RoundRect,0.250000X-0.425000X0.450000X-0.425000X-0.450000X0.425000X-0.450000X0.425000X0.450000X0*%
%ADD98RoundRect,0.250000X0.625000X-0.312500X0.625000X0.312500X-0.625000X0.312500X-0.625000X-0.312500X0*%
%ADD99RoundRect,0.162500X0.162500X-0.617500X0.162500X0.617500X-0.162500X0.617500X-0.162500X-0.617500X0*%
%ADD100RoundRect,0.135000X-0.135000X-0.185000X0.135000X-0.185000X0.135000X0.185000X-0.135000X0.185000X0*%
%ADD101R,0.800000X0.500000*%
%ADD102R,2.200000X0.600000*%
%ADD103RoundRect,0.150000X0.625000X-0.150000X0.625000X0.150000X-0.625000X0.150000X-0.625000X-0.150000X0*%
%ADD104RoundRect,0.250000X0.650000X-0.350000X0.650000X0.350000X-0.650000X0.350000X-0.650000X-0.350000X0*%
%ADD105RoundRect,0.087500X-0.225000X-0.087500X0.225000X-0.087500X0.225000X0.087500X-0.225000X0.087500X0*%
%ADD106RoundRect,0.087500X-0.087500X-0.225000X0.087500X-0.225000X0.087500X0.225000X-0.087500X0.225000X0*%
%ADD107RoundRect,0.185000X-1.315000X-0.185000X1.315000X-0.185000X1.315000X0.185000X-1.315000X0.185000X0*%
%ADD108C,0.700000*%
%ADD109R,0.900000X1.400000*%
%ADD110R,1.400000X1.200000*%
%ADD111R,1.500000X0.900000*%
%ADD112R,0.900000X1.500000*%
%ADD113R,0.900000X0.900000*%
%ADD114RoundRect,0.135000X-0.185000X0.135000X-0.185000X-0.135000X0.185000X-0.135000X0.185000X0.135000X0*%
%ADD115RoundRect,0.335000X1.340000X1.365000X-1.340000X1.365000X-1.340000X-1.365000X1.340000X-1.365000X0*%
%ADD116R,2.000000X1.905000*%
%ADD117O,2.000000X1.905000*%
%ADD118RoundRect,0.250000X0.750000X-0.600000X0.750000X0.600000X-0.750000X0.600000X-0.750000X-0.600000X0*%
%ADD119O,2.000000X1.700000*%
%ADD120RoundRect,0.250000X-0.350000X-0.450000X0.350000X-0.450000X0.350000X0.450000X-0.350000X0.450000X0*%
%ADD121RoundRect,0.075000X0.700000X0.075000X-0.700000X0.075000X-0.700000X-0.075000X0.700000X-0.075000X0*%
%ADD122RoundRect,0.075000X0.075000X0.700000X-0.075000X0.700000X-0.075000X-0.700000X0.075000X-0.700000X0*%
%ADD123RoundRect,0.150000X-0.150000X0.825000X-0.150000X-0.825000X0.150000X-0.825000X0.150000X0.825000X0*%
%ADD124C,3.200000*%
%ADD125RoundRect,0.500000X-1.250000X-1.250000X1.250000X-1.250000X1.250000X1.250000X-1.250000X1.250000X0*%
%ADD126C,3.500000*%
%ADD127RoundRect,0.150000X0.150000X-0.587500X0.150000X0.587500X-0.150000X0.587500X-0.150000X-0.587500X0*%
%ADD128RoundRect,0.375000X-0.625000X-0.375000X0.625000X-0.375000X0.625000X0.375000X-0.625000X0.375000X0*%
%ADD129RoundRect,0.500000X-0.500000X-1.400000X0.500000X-1.400000X0.500000X1.400000X-0.500000X1.400000X0*%
%ADD130RoundRect,0.200000X0.200000X-0.750000X0.200000X0.750000X-0.200000X0.750000X-0.200000X-0.750000X0*%
%ADD131RoundRect,0.100000X0.162635X-0.021213X-0.021213X0.162635X-0.162635X0.021213X0.021213X-0.162635X0*%
%ADD132R,0.350000X0.500000*%
%ADD133R,0.800000X1.800000*%
%ADD134RoundRect,0.100000X-0.637500X-0.100000X0.637500X-0.100000X0.637500X0.100000X-0.637500X0.100000X0*%
%ADD135R,2.850000X5.400000*%
%ADD136R,1.800000X1.100000*%
%ADD137RoundRect,0.275000X-0.625000X0.275000X-0.625000X-0.275000X0.625000X-0.275000X0.625000X0.275000X0*%
%ADD138RoundRect,0.250000X0.625000X-0.400000X0.625000X0.400000X-0.625000X0.400000X-0.625000X-0.400000X0*%
%ADD139RoundRect,0.250000X0.450000X-0.325000X0.450000X0.325000X-0.450000X0.325000X-0.450000X-0.325000X0*%
%ADD140R,1.500000X1.000000*%
%ADD141RoundRect,0.185000X-0.185000X1.315000X-0.185000X-1.315000X0.185000X-1.315000X0.185000X1.315000X0*%
%ADD142RoundRect,0.135000X0.185000X-0.135000X0.185000X0.135000X-0.185000X0.135000X-0.185000X-0.135000X0*%
%ADD143RoundRect,0.250000X-0.625000X0.400000X-0.625000X-0.400000X0.625000X-0.400000X0.625000X0.400000X0*%
%ADD144RoundRect,0.218750X0.218750X0.256250X-0.218750X0.256250X-0.218750X-0.256250X0.218750X-0.256250X0*%
G04 APERTURE END LIST*
D10*
%TO.C,J12*%
X111600000Y-148380000D03*
D11*
X111600000Y-145840000D03*
X111600000Y-143300000D03*
X111600000Y-140760000D03*
X111600000Y-138220000D03*
X111600000Y-135680000D03*
X111600000Y-133140000D03*
X111600000Y-130600000D03*
%TD*%
D12*
%TO.C,SW9*%
X111600000Y-56800000D03*
X111600000Y-54300000D03*
X111600000Y-51800000D03*
%TD*%
D13*
%TO.C,J32*%
X148720000Y-85400000D03*
D11*
X148720000Y-82860000D03*
X148720000Y-80320000D03*
%TD*%
D10*
%TO.C,J10*%
X114800000Y-110600000D03*
D11*
X114800000Y-113140000D03*
X114800000Y-115680000D03*
X114800000Y-118220000D03*
X114800000Y-120760000D03*
X114800000Y-123300000D03*
%TD*%
D14*
%TO.C,J9*%
X118457500Y-57700000D03*
D15*
X118457500Y-63700000D03*
D16*
X113757500Y-60700000D03*
%TD*%
D17*
%TO.C,J27*%
X108005000Y-110950000D03*
X108005000Y-114450000D03*
X108005000Y-117950000D03*
X108005000Y-121450000D03*
%TD*%
D18*
%TO.C,J34*%
X120725000Y-95350000D03*
D11*
X120725000Y-92810000D03*
X123265000Y-95350000D03*
X123265000Y-92810000D03*
X125805000Y-95350000D03*
X125805000Y-92810000D03*
%TD*%
D19*
%TO.C,R32*%
X174800000Y-86400000D03*
X171400000Y-86400000D03*
%TD*%
D20*
%TO.C,U13*%
X181850000Y-124400000D03*
D21*
X183120000Y-122330000D03*
X184390000Y-124400000D03*
%TD*%
D17*
%TO.C,J1*%
X108005000Y-95550000D03*
X108005000Y-99050000D03*
X108005000Y-102550000D03*
X108005000Y-106050000D03*
%TD*%
D22*
%TO.C,J18*%
X191995000Y-89150000D03*
X191995000Y-85650000D03*
X191995000Y-82150000D03*
X191995000Y-78650000D03*
%TD*%
%TO.C,J15*%
X192000000Y-147550000D03*
X192000000Y-144050000D03*
X192000000Y-140550000D03*
X192000000Y-137050000D03*
%TD*%
D17*
%TO.C,J2*%
X108005000Y-137050000D03*
X108005000Y-140550000D03*
X108005000Y-144050000D03*
X108005000Y-147550000D03*
%TD*%
D23*
%TO.C,M1*%
X162540000Y-51500000D03*
D24*
X162540000Y-54040000D03*
X162540000Y-56580000D03*
X162540000Y-59120000D03*
X162540000Y-61660000D03*
X162540000Y-64200000D03*
X182860000Y-64200000D03*
X182860000Y-61660000D03*
X182860000Y-59120000D03*
X182860000Y-56580000D03*
X182860000Y-54040000D03*
X182860000Y-51500000D03*
%TD*%
D10*
%TO.C,J19*%
X111200000Y-123300000D03*
D11*
X111200000Y-120760000D03*
X111200000Y-118220000D03*
X111200000Y-115680000D03*
X111200000Y-113140000D03*
X111200000Y-110600000D03*
%TD*%
D25*
%TO.C,SW4*%
X134100000Y-110900000D03*
X131600000Y-110900000D03*
X129100000Y-110900000D03*
%TD*%
D10*
%TO.C,J20*%
X115200000Y-130680000D03*
D11*
X115200000Y-133220000D03*
X115200000Y-135760000D03*
X115200000Y-138300000D03*
X115200000Y-140840000D03*
X115200000Y-143380000D03*
X115200000Y-145920000D03*
X115200000Y-148460000D03*
%TD*%
D10*
%TO.C,J4*%
X115000000Y-104700000D03*
D11*
X115000000Y-102160000D03*
X115000000Y-99620000D03*
X115000000Y-97080000D03*
%TD*%
D26*
%TO.C,X3*%
X164880000Y-68300000D03*
X167420000Y-68300000D03*
X169960000Y-68300000D03*
X172500000Y-68300000D03*
X175040000Y-68300000D03*
X177580000Y-68300000D03*
X180120000Y-68300000D03*
%TD*%
D13*
%TO.C,J30*%
X153850000Y-85400000D03*
D11*
X153850000Y-82860000D03*
X153850000Y-80320000D03*
%TD*%
D17*
%TO.C,J22*%
X108005000Y-52450000D03*
X108005000Y-55950000D03*
X108005000Y-59450000D03*
X108005000Y-62950000D03*
%TD*%
D10*
%TO.C,U15*%
X168875000Y-62489500D03*
D27*
X168875000Y-59949500D03*
X171415000Y-62489500D03*
X171415000Y-59949500D03*
X173955000Y-62489500D03*
X173955000Y-59949500D03*
X176495000Y-62489500D03*
X176495000Y-59949500D03*
%TD*%
D28*
%TO.C,U21*%
X142380000Y-112000000D03*
D29*
X144920000Y-112000000D03*
X147460000Y-112000000D03*
X150000000Y-112000000D03*
X152540000Y-112000000D03*
X155080000Y-112000000D03*
X157620000Y-112000000D03*
%TD*%
D13*
%TO.C,J33*%
X151300000Y-85400000D03*
D11*
X151300000Y-82860000D03*
X151300000Y-80320000D03*
%TD*%
D30*
%TO.C,U6*%
X165792500Y-51492500D03*
D31*
X165792500Y-53492500D03*
X165792500Y-55492500D03*
X165792500Y-57492500D03*
X165792500Y-59492500D03*
X165792500Y-61492500D03*
X165792500Y-63492500D03*
X165792500Y-65492500D03*
X179392500Y-65492500D03*
X179392500Y-63492500D03*
X179392500Y-61492500D03*
X179392500Y-59492500D03*
X179392500Y-57492500D03*
X179392500Y-55492500D03*
X179392500Y-53492500D03*
X179392500Y-51492500D03*
%TD*%
D32*
%TO.C,MK1*%
X184350000Y-115000000D03*
X182450000Y-115000000D03*
%TD*%
D33*
%TO.C,SW6*%
X175600000Y-106761000D03*
D29*
X170600000Y-106761000D03*
X173100000Y-106761000D03*
D34*
X178700000Y-114261000D03*
X167500000Y-114261000D03*
D29*
X170600000Y-121261000D03*
X175600000Y-121261000D03*
%TD*%
D22*
%TO.C,J24*%
X191995000Y-73750000D03*
X191995000Y-70250000D03*
X191995000Y-66750000D03*
X191995000Y-63250000D03*
%TD*%
D10*
%TO.C,J23*%
X123700000Y-105900000D03*
D11*
X126240000Y-105900000D03*
X128780000Y-105900000D03*
X131320000Y-105900000D03*
X133860000Y-105900000D03*
X136400000Y-105900000D03*
%TD*%
D35*
%TO.C,X1*%
X125000000Y-142755000D03*
X175000000Y-142755000D03*
%TD*%
D36*
%TO.C,R38*%
X111240000Y-87130000D03*
D37*
X123940000Y-87130000D03*
%TD*%
D38*
%TO.C,C39*%
X112800000Y-83082380D03*
D36*
X112800000Y-80582380D03*
%TD*%
D13*
%TO.C,J31*%
X146180000Y-85400000D03*
D11*
X146180000Y-82860000D03*
X146180000Y-80320000D03*
%TD*%
D39*
%TO.C,J8*%
X129050000Y-99900000D03*
D11*
X131590000Y-99900000D03*
X134130000Y-99900000D03*
X136670000Y-99900000D03*
%TD*%
D17*
%TO.C,J28*%
X108005000Y-80150000D03*
X108005000Y-83650000D03*
X108005000Y-87150000D03*
X108005000Y-90650000D03*
%TD*%
D22*
%TO.C,J21*%
X192000000Y-132150000D03*
X192000000Y-128650000D03*
X192000000Y-125150000D03*
X192000000Y-121650000D03*
%TD*%
D12*
%TO.C,U22*%
X175800000Y-78820000D03*
D36*
X175800000Y-76580000D03*
X174220000Y-75000000D03*
X170400000Y-76580000D03*
X170400000Y-78820000D03*
X171980000Y-80400000D03*
%TD*%
D40*
%TO.C,R63*%
X122626274Y-85823726D03*
X122173726Y-86276274D03*
%TD*%
D41*
%TO.C,Q4*%
X175262500Y-82850000D03*
X175262500Y-80950000D03*
X177137500Y-81900000D03*
%TD*%
D42*
%TO.C,C32*%
X127820000Y-92000000D03*
X127180000Y-92000000D03*
%TD*%
D43*
%TO.C,C43*%
X126170000Y-66050000D03*
X127130000Y-66050000D03*
%TD*%
D44*
%TO.C,C19*%
X180000000Y-109850000D03*
X185600000Y-109850000D03*
%TD*%
D45*
%TO.C,R7*%
X119975000Y-119900000D03*
X121625000Y-119900000D03*
%TD*%
D46*
%TO.C,R33*%
X127750000Y-53800000D03*
X172250000Y-53800000D03*
D47*
X110300000Y-63800000D03*
X189700000Y-63800000D03*
%TD*%
D48*
%TO.C,R49*%
X104850000Y-100900000D03*
X104850000Y-102900000D03*
%TD*%
D42*
%TO.C,R45*%
X163720000Y-85150000D03*
X163080000Y-85150000D03*
%TD*%
D49*
%TO.C,SW3*%
X196930000Y-142700000D03*
X196930000Y-145700000D03*
D50*
X194920000Y-141950000D03*
X194920000Y-144950000D03*
X194920000Y-146450000D03*
D51*
X198030000Y-140050000D03*
X195820000Y-140050000D03*
X198030000Y-148350000D03*
X195820000Y-148350000D03*
%TD*%
D52*
%TO.C,C84*%
X114575000Y-66850000D03*
X113025000Y-66850000D03*
%TD*%
D53*
%TO.C,C14*%
X167710589Y-117460589D03*
X168389411Y-118139411D03*
%TD*%
D42*
%TO.C,R60*%
X122870000Y-62000000D03*
X122230000Y-62000000D03*
%TD*%
D54*
%TO.C,C10*%
X110900000Y-104720000D03*
X110900000Y-105680000D03*
%TD*%
D55*
%TO.C,R69*%
X106060000Y-92100000D03*
X105040000Y-92100000D03*
%TD*%
D56*
%TO.C,R68*%
X106150000Y-90580000D03*
X106150000Y-91220000D03*
%TD*%
D57*
%TO.C,TP6*%
X166800000Y-122600000D03*
%TD*%
%TO.C,J17*%
X141200000Y-139975000D03*
X133200000Y-139975000D03*
D58*
X134000000Y-128975000D03*
X135100000Y-128975000D03*
X136200000Y-128975000D03*
X137300000Y-128975000D03*
X138400000Y-128975000D03*
X139500000Y-128975000D03*
X140600000Y-128975000D03*
X141700000Y-128975000D03*
X142800000Y-128975000D03*
D59*
X144000000Y-139575000D03*
D60*
X144000000Y-129975000D03*
D61*
X129400000Y-129975000D03*
D59*
X128500000Y-139575000D03*
%TD*%
D62*
%TO.C,C17*%
X169300000Y-109050000D03*
X172000000Y-109050000D03*
%TD*%
D63*
%TO.C,C12*%
X159939411Y-119210589D03*
X159260589Y-119889411D03*
%TD*%
D64*
%TO.C,R59*%
X121430000Y-60250000D03*
X122070000Y-60250000D03*
%TD*%
D65*
%TO.C,L4*%
X115675000Y-71100000D03*
X122725000Y-71100000D03*
%TD*%
D49*
%TO.C,SW2*%
X196900000Y-131700000D03*
X196900000Y-134700000D03*
D50*
X194890000Y-130950000D03*
X194890000Y-133950000D03*
X194890000Y-135450000D03*
D51*
X198000000Y-129050000D03*
X195790000Y-129050000D03*
X198000000Y-137350000D03*
X195790000Y-137350000D03*
%TD*%
D66*
%TO.C,SW5*%
X124050000Y-123200000D03*
X132550000Y-123200000D03*
X124050000Y-118700000D03*
X132550000Y-118700000D03*
%TD*%
D67*
%TO.C,D21*%
X157650000Y-89150000D03*
X156150000Y-89150000D03*
X156150000Y-94550000D03*
X157650000Y-94550000D03*
%TD*%
D68*
%TO.C,C28*%
X134600000Y-107875000D03*
X134600000Y-109425000D03*
%TD*%
D69*
%TO.C,C52*%
X110500000Y-90725000D03*
X110500000Y-89175000D03*
%TD*%
D56*
%TO.C,C50*%
X139700000Y-90080000D03*
X139700000Y-90720000D03*
%TD*%
D70*
%TO.C,JP2*%
X135650000Y-120000000D03*
D71*
X134350000Y-120000000D03*
%TD*%
D43*
%TO.C,C36*%
X136520000Y-78200000D03*
X137480000Y-78200000D03*
%TD*%
D72*
%TO.C,C1*%
X140050000Y-114400000D03*
X141950000Y-114400000D03*
%TD*%
D42*
%TO.C,C54*%
X118420000Y-133350000D03*
X117780000Y-133350000D03*
%TD*%
D64*
%TO.C,C25*%
X140680000Y-85200000D03*
X141320000Y-85200000D03*
%TD*%
D45*
%TO.C,R3*%
X138625000Y-116550000D03*
X140275000Y-116550000D03*
%TD*%
D64*
%TO.C,R18*%
X109080000Y-129850000D03*
X109720000Y-129850000D03*
%TD*%
D73*
%TO.C,LS2*%
X154000000Y-97800000D03*
X150000000Y-97800000D03*
X146000000Y-97800000D03*
X156000000Y-99050000D03*
X152000000Y-99050000D03*
X148000000Y-99050000D03*
X144000000Y-99050000D03*
X158000000Y-100300000D03*
X154000000Y-100300000D03*
X150000000Y-100300000D03*
X146000000Y-100300000D03*
X142000000Y-100300000D03*
X156000000Y-101550000D03*
X152000000Y-101550000D03*
X148000000Y-101550000D03*
X144000000Y-101550000D03*
X158000000Y-102800000D03*
X154000000Y-102800000D03*
X150000000Y-102800000D03*
X146000000Y-102800000D03*
X142000000Y-102800000D03*
X156000000Y-104050000D03*
X152000000Y-104050000D03*
X148000000Y-104050000D03*
X144000000Y-104050000D03*
X158000000Y-105300000D03*
X154000000Y-105300000D03*
X150000000Y-105300000D03*
X146000000Y-105300000D03*
X142000000Y-105300000D03*
X156000000Y-106550000D03*
X152000000Y-106550000D03*
X148000000Y-106550000D03*
X144000000Y-106550000D03*
X154000000Y-107800000D03*
X150000000Y-107800000D03*
X146000000Y-107800000D03*
%TD*%
D74*
%TO.C,D20*%
X159450000Y-88900000D03*
X161550000Y-88900000D03*
%TD*%
D75*
%TO.C,C45*%
X158500000Y-89520000D03*
X158500000Y-88880000D03*
%TD*%
D64*
%TO.C,R54*%
X185980000Y-118500000D03*
X186620000Y-118500000D03*
%TD*%
D76*
%TO.C,D19*%
X122200000Y-76650000D03*
X118400000Y-76650000D03*
%TD*%
D77*
%TO.C,SW7*%
X175350000Y-103250000D03*
X175350000Y-94750000D03*
X170850000Y-103250000D03*
X170850000Y-94750000D03*
%TD*%
D56*
%TO.C,R55*%
X192000000Y-109880000D03*
X192000000Y-110520000D03*
%TD*%
D32*
%TO.C,J14*%
X190975000Y-104000000D03*
X196975000Y-104000000D03*
D78*
X194575000Y-100500000D03*
X197275000Y-107500000D03*
X198275000Y-100500000D03*
X190275000Y-107500000D03*
X188575000Y-100500000D03*
%TD*%
D79*
%TO.C,U2*%
X134825000Y-112895000D03*
X134825000Y-114165000D03*
X134825000Y-115435000D03*
X134825000Y-116705000D03*
X129875000Y-116705000D03*
X129875000Y-115435000D03*
X129875000Y-114165000D03*
X129875000Y-112895000D03*
D80*
X132350000Y-114800000D03*
%TD*%
D68*
%TO.C,C29*%
X120050000Y-121375000D03*
X120050000Y-122925000D03*
%TD*%
D81*
%TO.C,U8*%
X132987500Y-125000000D03*
X132987500Y-125950000D03*
X132987500Y-126900000D03*
X130712500Y-126900000D03*
X130712500Y-125950000D03*
X130712500Y-125000000D03*
%TD*%
D82*
%TO.C,D13*%
X179100000Y-79250000D03*
X179100000Y-81350000D03*
%TD*%
D30*
%TO.C,LS1*%
X150800000Y-116350000D03*
D83*
X150800000Y-118350000D03*
%TD*%
D75*
%TO.C,C35*%
X139700000Y-82120000D03*
X139700000Y-81480000D03*
%TD*%
D42*
%TO.C,C47*%
X150420000Y-88750000D03*
X149780000Y-88750000D03*
%TD*%
D72*
%TO.C,C80*%
X117700001Y-66500000D03*
X119599999Y-66500000D03*
%TD*%
D42*
%TO.C,C60*%
X171070000Y-74750000D03*
X170430000Y-74750000D03*
%TD*%
D84*
%TO.C,J13*%
X106350000Y-74740000D03*
X106350000Y-68960000D03*
D85*
X107600000Y-75050000D03*
X107550000Y-74250000D03*
D86*
X107550000Y-73100000D03*
X107550000Y-72100000D03*
X107550000Y-71600000D03*
X107550000Y-70600000D03*
D85*
X107550000Y-69450000D03*
X107600000Y-68650000D03*
X107600000Y-68650000D03*
X107550000Y-69450000D03*
D86*
X107550000Y-70100000D03*
X107550000Y-71100000D03*
X107550000Y-72600000D03*
X107550000Y-73600000D03*
D85*
X107550000Y-74250000D03*
X107600000Y-75050000D03*
D87*
X102650000Y-76670000D03*
D88*
X106830000Y-76670000D03*
D87*
X102650000Y-67030000D03*
D88*
X106830000Y-67030000D03*
%TD*%
D45*
%TO.C,R28*%
X119975000Y-118400000D03*
X121625000Y-118400000D03*
%TD*%
D56*
%TO.C,C26*%
X137300000Y-126580000D03*
X137300000Y-127220000D03*
%TD*%
D68*
%TO.C,C31*%
X131600000Y-107875000D03*
X131600000Y-109425000D03*
%TD*%
D89*
%TO.C,U10*%
X167264823Y-119414823D03*
X166911270Y-119768376D03*
X166557717Y-120121930D03*
X166204163Y-120475483D03*
X165850610Y-120829036D03*
X165497057Y-121182590D03*
X165143503Y-121536143D03*
X164789950Y-121889696D03*
D90*
X163800000Y-121889696D03*
X163446447Y-121536143D03*
X163092893Y-121182590D03*
X162739340Y-120829036D03*
X162385787Y-120475483D03*
X162032233Y-120121930D03*
X161678680Y-119768376D03*
X161325127Y-119414823D03*
D89*
X161325127Y-118424873D03*
X161678680Y-118071320D03*
X162032233Y-117717766D03*
X162385787Y-117364213D03*
X162739340Y-117010660D03*
X163092893Y-116657106D03*
X163446447Y-116303553D03*
X163800000Y-115950000D03*
D90*
X164789950Y-115950000D03*
X165143503Y-116303553D03*
X165497057Y-116657106D03*
X165850610Y-117010660D03*
X166204163Y-117364213D03*
X166557717Y-117717766D03*
X166911270Y-118071320D03*
X167264823Y-118424873D03*
D91*
X164294975Y-118919848D03*
%TD*%
D42*
%TO.C,C53*%
X168520000Y-130400000D03*
X167880000Y-130400000D03*
%TD*%
D92*
%TO.C,FB1*%
X169243153Y-117306847D03*
X170356847Y-116193153D03*
%TD*%
D56*
%TO.C,C27*%
X145050000Y-114205000D03*
X145050000Y-114845000D03*
%TD*%
D93*
%TO.C,C20*%
X174950000Y-118450000D03*
X172250000Y-118450000D03*
%TD*%
D94*
%TO.C,C59*%
X169080000Y-58400000D03*
X168120000Y-58400000D03*
%TD*%
D93*
%TO.C,C23*%
X176450000Y-116350000D03*
X173750000Y-116350000D03*
%TD*%
D56*
%TO.C,R58*%
X140600000Y-126770000D03*
X140600000Y-127410000D03*
%TD*%
D52*
%TO.C,C56*%
X118575000Y-144200000D03*
X117025000Y-144200000D03*
%TD*%
D42*
%TO.C,C48*%
X145820000Y-88750000D03*
X145180000Y-88750000D03*
%TD*%
D95*
%TO.C,C22*%
X172300000Y-116080000D03*
X172300000Y-115120000D03*
%TD*%
D55*
%TO.C,R35*%
X162035000Y-85150000D03*
X161015000Y-85150000D03*
%TD*%
D96*
%TO.C,D3*%
X187750000Y-145600000D03*
X189650000Y-145600000D03*
X188700000Y-148600000D03*
%TD*%
D62*
%TO.C,C16*%
X167200000Y-111150000D03*
X169900000Y-111150000D03*
%TD*%
D56*
%TO.C,R39*%
X169300000Y-93480000D03*
X169300000Y-94120000D03*
%TD*%
D52*
%TO.C,C83*%
X114575000Y-68350000D03*
X113025000Y-68350000D03*
%TD*%
D95*
%TO.C,C15*%
X164950000Y-114780000D03*
X164950000Y-113820000D03*
%TD*%
D97*
%TO.C,C24*%
X165200000Y-106950000D03*
X165200000Y-109650000D03*
%TD*%
D98*
%TO.C,R15*%
X136100000Y-54412500D03*
X136100000Y-51487500D03*
%TD*%
D99*
%TO.C,U27*%
X124600000Y-66450000D03*
X123650000Y-66450000D03*
X122700000Y-66450000D03*
X122700000Y-63750000D03*
X123650000Y-63750000D03*
X124600000Y-63750000D03*
%TD*%
D100*
%TO.C,R10*%
X108990000Y-103800000D03*
X110010000Y-103800000D03*
%TD*%
D68*
%TO.C,C30*%
X133100000Y-107875000D03*
X133100000Y-109425000D03*
%TD*%
D101*
%TO.C,U12*%
X118700000Y-149000000D03*
X118700000Y-148000000D03*
X118700000Y-147000000D03*
X120700000Y-147000000D03*
X120700000Y-148000000D03*
X120700000Y-149000000D03*
%TD*%
D75*
%TO.C,R62*%
X152100000Y-114075000D03*
X152100000Y-113435000D03*
%TD*%
D102*
%TO.C,U1*%
X180600000Y-137830000D03*
X180600000Y-136560000D03*
X180600000Y-135290000D03*
X180600000Y-134020000D03*
X186600000Y-134020000D03*
X186600000Y-135290000D03*
X186600000Y-136560000D03*
X186600000Y-137830000D03*
%TD*%
D67*
%TO.C,D15*%
X153044201Y-89150000D03*
X151544201Y-89150000D03*
X151544201Y-94550000D03*
X153044201Y-94550000D03*
%TD*%
D64*
%TO.C,C49*%
X130705000Y-93350000D03*
X131345000Y-93350000D03*
%TD*%
D77*
%TO.C,SW8*%
X175350000Y-133250000D03*
X175350000Y-124750000D03*
X170850000Y-133250000D03*
X170850000Y-124750000D03*
%TD*%
D32*
%TO.C,J16*%
X190975000Y-115000000D03*
X196975000Y-115000000D03*
D78*
X194575000Y-111500000D03*
X197275000Y-118500000D03*
X198275000Y-111500000D03*
X190275000Y-118500000D03*
X188575000Y-111500000D03*
%TD*%
D103*
%TO.C,J11*%
X105300000Y-143700000D03*
X105300000Y-142700000D03*
X105300000Y-141700000D03*
X105300000Y-140700000D03*
D104*
X101425000Y-145000000D03*
X101425000Y-139400000D03*
%TD*%
D105*
%TO.C,U9*%
X117237500Y-136100000D03*
X117237500Y-135600000D03*
X117237500Y-135100000D03*
X117237500Y-134600000D03*
D106*
X117900000Y-134437500D03*
X118400000Y-134437500D03*
X118900000Y-134437500D03*
D105*
X119562500Y-134600000D03*
X119562500Y-135100000D03*
X119562500Y-135600000D03*
X119562500Y-136100000D03*
D106*
X118900000Y-136262500D03*
X118400000Y-136262500D03*
X117900000Y-136262500D03*
%TD*%
D107*
%TO.C,J6*%
X167850000Y-139670000D03*
X172350000Y-139670000D03*
X167850000Y-138400000D03*
X172350000Y-138400000D03*
X167850000Y-137130000D03*
X172350000Y-137130000D03*
%TD*%
D40*
%TO.C,C65*%
X161776274Y-120973726D03*
X161323726Y-121426274D03*
%TD*%
D108*
%TO.C,SW1*%
X181400000Y-147050000D03*
X183100000Y-147050000D03*
D109*
X180550000Y-145350000D03*
X183950000Y-145350000D03*
D110*
X179550000Y-147650000D03*
X184950000Y-147650000D03*
%TD*%
D111*
%TO.C,U4*%
X147450000Y-142160000D03*
X147450000Y-140890000D03*
X147450000Y-139620000D03*
X147450000Y-138350000D03*
X147450000Y-137080000D03*
X147450000Y-135810000D03*
X147450000Y-134540000D03*
X147450000Y-133270000D03*
X147450000Y-132000000D03*
X147450000Y-130730000D03*
X147450000Y-129460000D03*
X147450000Y-128190000D03*
X147450000Y-126920000D03*
X147450000Y-125650000D03*
D112*
X149215000Y-124400000D03*
X150485000Y-124400000D03*
X151755000Y-124400000D03*
X153025000Y-124400000D03*
X154295000Y-124400000D03*
X155565000Y-124400000D03*
X156835000Y-124400000D03*
X158105000Y-124400000D03*
X159375000Y-124400000D03*
X160645000Y-124400000D03*
X161915000Y-124400000D03*
X163185000Y-124400000D03*
D111*
X164950000Y-125650000D03*
X164950000Y-126920000D03*
X164950000Y-128190000D03*
X164950000Y-129460000D03*
X164950000Y-130730000D03*
X164950000Y-132000000D03*
X164950000Y-133270000D03*
X164950000Y-134540000D03*
X164950000Y-135810000D03*
X164950000Y-137080000D03*
X164950000Y-138350000D03*
X164950000Y-139620000D03*
X164950000Y-140890000D03*
X164950000Y-142160000D03*
D113*
X153300000Y-133040000D03*
X153300000Y-133040000D03*
X153300000Y-134440000D03*
X153300000Y-135840000D03*
X154700000Y-133040000D03*
X154700000Y-134440000D03*
X154700000Y-135840000D03*
X154700000Y-135840000D03*
X156100000Y-133040000D03*
X156100000Y-134440000D03*
X156100000Y-135840000D03*
%TD*%
D114*
%TO.C,R43*%
X109900000Y-141690000D03*
X109900000Y-142710000D03*
%TD*%
D52*
%TO.C,C64*%
X104275000Y-114550000D03*
X102725000Y-114550000D03*
%TD*%
D114*
%TO.C,R30*%
X188500000Y-71190000D03*
X188500000Y-72210000D03*
%TD*%
D44*
%TO.C,C18*%
X179800000Y-102700000D03*
X185400000Y-102700000D03*
%TD*%
D115*
%TO.C,L1*%
X126525000Y-113450000D03*
X119475000Y-113450000D03*
%TD*%
D46*
%TO.C,Q3*%
X157430000Y-55500000D03*
D116*
X140770000Y-52960000D03*
D117*
X140770000Y-55500000D03*
X140770000Y-58040000D03*
%TD*%
D118*
%TO.C,J7*%
X157891000Y-85248000D03*
D119*
X157891000Y-82748000D03*
%TD*%
D42*
%TO.C,R22*%
X177820000Y-57500000D03*
X177180000Y-57500000D03*
%TD*%
D120*
%TO.C,R52*%
X102900000Y-104700000D03*
X104900000Y-104700000D03*
%TD*%
D64*
%TO.C,C34*%
X136480000Y-79100000D03*
X137120000Y-79100000D03*
%TD*%
D42*
%TO.C,R37*%
X177720000Y-106900000D03*
X177080000Y-106900000D03*
%TD*%
D121*
%TO.C,U5*%
X138275000Y-82425000D03*
X138275000Y-82925000D03*
X138275000Y-83425000D03*
X138275000Y-83925000D03*
X138275000Y-84425000D03*
X138275000Y-84925000D03*
X138275000Y-85425000D03*
X138275000Y-85925000D03*
X138275000Y-86425000D03*
X138275000Y-86925000D03*
X138275000Y-87425000D03*
X138275000Y-87925000D03*
X138275000Y-88425000D03*
X138275000Y-88925000D03*
X138275000Y-89425000D03*
X138275000Y-89925000D03*
D122*
X136350000Y-91850000D03*
X135850000Y-91850000D03*
X135350000Y-91850000D03*
X134850000Y-91850000D03*
X134350000Y-91850000D03*
X133850000Y-91850000D03*
X133350000Y-91850000D03*
X132850000Y-91850000D03*
X132350000Y-91850000D03*
X131850000Y-91850000D03*
X131350000Y-91850000D03*
X130850000Y-91850000D03*
X130350000Y-91850000D03*
X129850000Y-91850000D03*
X129350000Y-91850000D03*
X128850000Y-91850000D03*
D121*
X126925000Y-89925000D03*
X126925000Y-89425000D03*
X126925000Y-88925000D03*
X126925000Y-88425000D03*
X126925000Y-87925000D03*
X126925000Y-87425000D03*
X126925000Y-86925000D03*
X126925000Y-86425000D03*
X126925000Y-85925000D03*
X126925000Y-85425000D03*
X126925000Y-84925000D03*
X126925000Y-84425000D03*
X126925000Y-83925000D03*
X126925000Y-83425000D03*
X126925000Y-82925000D03*
X126925000Y-82425000D03*
D122*
X128850000Y-80500000D03*
X129350000Y-80500000D03*
X129850000Y-80500000D03*
X130350000Y-80500000D03*
X130850000Y-80500000D03*
X131350000Y-80500000D03*
X131850000Y-80500000D03*
X132350000Y-80500000D03*
X132850000Y-80500000D03*
X133350000Y-80500000D03*
X133850000Y-80500000D03*
X134350000Y-80500000D03*
X134850000Y-80500000D03*
X135350000Y-80500000D03*
X135850000Y-80500000D03*
X136350000Y-80500000D03*
%TD*%
D32*
%TO.C,J3*%
X190975000Y-93000000D03*
X196975000Y-93000000D03*
D78*
X194575000Y-89500000D03*
X197275000Y-96500000D03*
X198275000Y-89500000D03*
X190275000Y-96500000D03*
X188575000Y-89500000D03*
%TD*%
D100*
%TO.C,R40*%
X167790000Y-131300000D03*
X168810000Y-131300000D03*
%TD*%
D123*
%TO.C,U16*%
X102595000Y-107625000D03*
X103865000Y-107625000D03*
X105135000Y-107625000D03*
X106405000Y-107625000D03*
X106405000Y-112575000D03*
X105135000Y-112575000D03*
X103865000Y-112575000D03*
X102595000Y-112575000D03*
%TD*%
D43*
%TO.C,C37*%
X130545000Y-94275000D03*
X131505000Y-94275000D03*
%TD*%
D124*
%TO.C,BT1*%
X122345000Y-127600000D03*
X177955000Y-127600000D03*
D125*
X113700000Y-127600000D03*
D126*
X185700000Y-127600000D03*
%TD*%
D55*
%TO.C,R8*%
X186010000Y-131900000D03*
X184990000Y-131900000D03*
%TD*%
D43*
%TO.C,C61*%
X121840000Y-82200000D03*
X122800000Y-82200000D03*
%TD*%
D55*
%TO.C,R12*%
X133210000Y-56050000D03*
X132190000Y-56050000D03*
%TD*%
D97*
%TO.C,C62*%
X167300000Y-106450000D03*
X167300000Y-109150000D03*
%TD*%
D64*
%TO.C,C58*%
X126980000Y-101200000D03*
X127620000Y-101200000D03*
%TD*%
%TO.C,R53*%
X172980000Y-76950000D03*
X173620000Y-76950000D03*
%TD*%
D56*
%TO.C,R61*%
X135100000Y-126820000D03*
X135100000Y-127460000D03*
%TD*%
D42*
%TO.C,C5*%
X172720000Y-147000000D03*
X172080000Y-147000000D03*
%TD*%
D54*
%TO.C,C9*%
X110600000Y-101420000D03*
X110600000Y-102380000D03*
%TD*%
D64*
%TO.C,R25*%
X187880000Y-118500000D03*
X188520000Y-118500000D03*
%TD*%
D95*
%TO.C,C21*%
X165900000Y-114780000D03*
X165900000Y-113820000D03*
%TD*%
D56*
%TO.C,R4*%
X128250000Y-116480000D03*
X128250000Y-117120000D03*
%TD*%
D127*
%TO.C,Q5*%
X163250000Y-83637500D03*
X161350000Y-83637500D03*
X162300000Y-81762500D03*
%TD*%
D64*
%TO.C,R19*%
X109080000Y-126950000D03*
X109720000Y-126950000D03*
%TD*%
D43*
%TO.C,C41*%
X126140000Y-64100000D03*
X127100000Y-64100000D03*
%TD*%
D68*
%TO.C,C7*%
X121550000Y-121375000D03*
X121550000Y-122925000D03*
%TD*%
D64*
%TO.C,R21*%
X185880000Y-144800000D03*
X186520000Y-144800000D03*
%TD*%
%TO.C,R67*%
X152980000Y-114100000D03*
X153620000Y-114100000D03*
%TD*%
D128*
%TO.C,U11*%
X128850000Y-69200000D03*
X128850000Y-66900000D03*
D129*
X135150000Y-66900000D03*
D128*
X128850000Y-64600000D03*
%TD*%
D75*
%TO.C,R11*%
X171400000Y-84720000D03*
X171400000Y-84080000D03*
%TD*%
D40*
%TO.C,C66*%
X161276274Y-120473726D03*
X160823726Y-120926274D03*
%TD*%
D69*
%TO.C,C63*%
X111300000Y-83825000D03*
X111300000Y-82275000D03*
%TD*%
D130*
%TO.C,D2*%
X183350000Y-131400000D03*
X181450000Y-131400000D03*
X182400000Y-128400000D03*
%TD*%
D131*
%TO.C,R26*%
X161176274Y-117576274D03*
X160723726Y-117123726D03*
%TD*%
D42*
%TO.C,R51*%
X111420000Y-100500000D03*
X110780000Y-100500000D03*
%TD*%
D132*
%TO.C,U14*%
X128825000Y-102850000D03*
X129475000Y-102850000D03*
X130125000Y-102850000D03*
X130775000Y-102850000D03*
X130775000Y-101250000D03*
X130125000Y-101250000D03*
X129475000Y-101250000D03*
X128825000Y-101250000D03*
%TD*%
D56*
%TO.C,C33*%
X125500000Y-81480000D03*
X125500000Y-82120000D03*
%TD*%
D133*
%TO.C,K1*%
X181700000Y-78500000D03*
X184900000Y-78500000D03*
X187100000Y-78500000D03*
X189300000Y-78500000D03*
X189300000Y-85500000D03*
X187100000Y-85500000D03*
X184900000Y-85500000D03*
X181700000Y-85500000D03*
%TD*%
D55*
%TO.C,R48*%
X124760000Y-62000000D03*
X123740000Y-62000000D03*
%TD*%
D75*
%TO.C,C2*%
X146000000Y-140020000D03*
X146000000Y-139380000D03*
%TD*%
D134*
%TO.C,U3*%
X114677500Y-90725000D03*
X114677500Y-90075000D03*
X114677500Y-89425000D03*
X114677500Y-88775000D03*
X114677500Y-88125000D03*
X114677500Y-87475000D03*
X114677500Y-86825000D03*
X114677500Y-86175000D03*
X114677500Y-85525000D03*
X114677500Y-84875000D03*
X114677500Y-84225000D03*
X114677500Y-83575000D03*
X114677500Y-82925000D03*
X114677500Y-82275000D03*
X120402500Y-82275000D03*
X120402500Y-82925000D03*
X120402500Y-83575000D03*
X120402500Y-84225000D03*
X120402500Y-84875000D03*
X120402500Y-85525000D03*
X120402500Y-86175000D03*
X120402500Y-86825000D03*
X120402500Y-87475000D03*
X120402500Y-88125000D03*
X120402500Y-88775000D03*
X120402500Y-89425000D03*
X120402500Y-90075000D03*
X120402500Y-90725000D03*
D135*
X117540000Y-86500000D03*
%TD*%
D55*
%TO.C,R1*%
X177110000Y-147000000D03*
X176090000Y-147000000D03*
%TD*%
D52*
%TO.C,C81*%
X125425000Y-68300000D03*
X123875000Y-68300000D03*
%TD*%
D55*
%TO.C,R24*%
X175610000Y-114800000D03*
X174590000Y-114800000D03*
%TD*%
D136*
%TO.C,U17*%
X158520000Y-62830000D03*
D137*
X156450000Y-64100000D03*
X158520000Y-65370000D03*
%TD*%
D138*
%TO.C,R20*%
X189000000Y-134750000D03*
X189000000Y-131650000D03*
%TD*%
D42*
%TO.C,C3*%
X188820000Y-137800000D03*
X188180000Y-137800000D03*
%TD*%
D55*
%TO.C,R34*%
X124410000Y-76200000D03*
X123390000Y-76200000D03*
%TD*%
D67*
%TO.C,D17*%
X143950000Y-89200000D03*
X142450000Y-89200000D03*
X142450000Y-94600000D03*
X143950000Y-94600000D03*
%TD*%
D84*
%TO.C,J5*%
X106400000Y-131490000D03*
X106400000Y-125710000D03*
D85*
X107650000Y-131800000D03*
X107600000Y-131000000D03*
D86*
X107600000Y-129850000D03*
X107600000Y-128850000D03*
X107600000Y-128350000D03*
X107600000Y-127350000D03*
D85*
X107600000Y-126200000D03*
X107650000Y-125400000D03*
X107650000Y-125400000D03*
X107600000Y-126200000D03*
D86*
X107600000Y-126850000D03*
X107600000Y-127850000D03*
X107600000Y-129350000D03*
X107600000Y-130350000D03*
D85*
X107600000Y-131000000D03*
X107650000Y-131800000D03*
D87*
X102700000Y-133420000D03*
D88*
X106880000Y-133420000D03*
D87*
X102700000Y-123780000D03*
D88*
X106880000Y-123780000D03*
%TD*%
D64*
%TO.C,C55*%
X119230000Y-133350000D03*
X119870000Y-133350000D03*
%TD*%
D42*
%TO.C,R64*%
X111720000Y-103800000D03*
X111080000Y-103800000D03*
%TD*%
D67*
%TO.C,D16*%
X148450000Y-89150000D03*
X146950000Y-89150000D03*
X146950000Y-94550000D03*
X148450000Y-94550000D03*
%TD*%
D42*
%TO.C,R41*%
X174920000Y-137000000D03*
X174280000Y-137000000D03*
%TD*%
D127*
%TO.C,Q2*%
X189850000Y-68037500D03*
X187950000Y-68037500D03*
X188900000Y-66162500D03*
%TD*%
D139*
%TO.C,R23*%
X183100000Y-119025000D03*
X183100000Y-116975000D03*
%TD*%
D64*
%TO.C,R36*%
X177080000Y-106100000D03*
X177720000Y-106100000D03*
%TD*%
D95*
%TO.C,C38*%
X113200000Y-91330000D03*
X113200000Y-90370000D03*
%TD*%
D56*
%TO.C,R57*%
X138400000Y-126770000D03*
X138400000Y-127410000D03*
%TD*%
D94*
%TO.C,C44*%
X127130000Y-67000000D03*
X126170000Y-67000000D03*
%TD*%
D114*
%TO.C,R42*%
X184500000Y-121840000D03*
X184500000Y-122860000D03*
%TD*%
D75*
%TO.C,R2*%
X145900000Y-138620000D03*
X145900000Y-137980000D03*
%TD*%
D100*
%TO.C,R14*%
X108690000Y-100500000D03*
X109710000Y-100500000D03*
%TD*%
D76*
%TO.C,D14*%
X182300000Y-75400000D03*
X178500000Y-75400000D03*
%TD*%
D140*
%TO.C,JP1*%
X180900000Y-118850000D03*
X180900000Y-117550000D03*
%TD*%
D68*
%TO.C,C79*%
X121100000Y-65225000D03*
X121100000Y-66775000D03*
%TD*%
D56*
%TO.C,R56*%
X136200000Y-126770000D03*
X136200000Y-127410000D03*
%TD*%
D127*
%TO.C,Q1*%
X134212500Y-54587500D03*
X132312500Y-54587500D03*
X133262500Y-52712500D03*
%TD*%
D94*
%TO.C,C42*%
X127100000Y-65100000D03*
X126140000Y-65100000D03*
%TD*%
D42*
%TO.C,C40*%
X168920000Y-123300000D03*
X168280000Y-123300000D03*
%TD*%
D94*
%TO.C,C8*%
X109180000Y-93050000D03*
X108220000Y-93050000D03*
%TD*%
%TO.C,C82*%
X122230000Y-61100000D03*
X121270000Y-61100000D03*
%TD*%
D55*
%TO.C,R29*%
X173810000Y-82700000D03*
X172790000Y-82700000D03*
%TD*%
D98*
%TO.C,R13*%
X138350000Y-54412500D03*
X138350000Y-51487500D03*
%TD*%
D63*
%TO.C,C13*%
X160639411Y-119910589D03*
X159960589Y-120589411D03*
%TD*%
D100*
%TO.C,R16*%
X108190000Y-94000000D03*
X109210000Y-94000000D03*
%TD*%
D114*
%TO.C,R70*%
X163600000Y-96090001D03*
X163600000Y-97109999D03*
%TD*%
D45*
%TO.C,R47*%
X136925000Y-114400000D03*
X138575000Y-114400000D03*
%TD*%
D55*
%TO.C,R6*%
X184560000Y-75400000D03*
X183540000Y-75400000D03*
%TD*%
D56*
%TO.C,C11*%
X178900000Y-140530000D03*
X178900000Y-141170000D03*
%TD*%
D75*
%TO.C,R17*%
X110200000Y-94320000D03*
X110200000Y-93680000D03*
%TD*%
D55*
%TO.C,R66*%
X169310000Y-122400000D03*
X168290000Y-122400000D03*
%TD*%
D141*
%TO.C,J26*%
X128430000Y-72650000D03*
X128430000Y-77150000D03*
X129700000Y-72650000D03*
X129700000Y-77150000D03*
X130970000Y-72650000D03*
X130970000Y-77150000D03*
%TD*%
D142*
%TO.C,R44*%
X120100000Y-138310000D03*
X120100000Y-137290000D03*
%TD*%
D100*
%TO.C,R9*%
X117690000Y-142400000D03*
X118710000Y-142400000D03*
%TD*%
D42*
%TO.C,C46*%
X155020000Y-88750000D03*
X154380000Y-88750000D03*
%TD*%
D56*
%TO.C,R50*%
X108400000Y-108180000D03*
X108400000Y-108820000D03*
%TD*%
D64*
%TO.C,R31*%
X188580000Y-70000000D03*
X189220000Y-70000000D03*
%TD*%
D68*
%TO.C,C6*%
X145600000Y-141125000D03*
X145600000Y-142675000D03*
%TD*%
D143*
%TO.C,R46*%
X189000000Y-140350000D03*
X189000000Y-143450000D03*
%TD*%
D144*
%TO.C,FB2*%
X129412500Y-93650000D03*
X127837500Y-93650000D03*
%TD*%
D102*
%TO.C,U7*%
X180600000Y-143455000D03*
X180600000Y-142185000D03*
X180600000Y-140915000D03*
X180600000Y-139645000D03*
X186600000Y-139645000D03*
X186600000Y-140915000D03*
X186600000Y-142185000D03*
X186600000Y-143455000D03*
%TD*%
D19*
%TO.C,TP1*%
X133000000Y-78200000D03*
%TD*%
D72*
%TO.C,C4*%
X136800000Y-112400000D03*
X138700000Y-112400000D03*
%TD*%
D64*
%TO.C,R27*%
X192280000Y-119300000D03*
X192920000Y-119300000D03*
%TD*%
D69*
%TO.C,C51*%
X112000000Y-90725000D03*
X112000000Y-89175000D03*
%TD*%
D55*
%TO.C,R5*%
X180110000Y-131400000D03*
X179090000Y-131400000D03*
%TD*%
D75*
%TO.C,C57*%
X117600000Y-148820000D03*
X117600000Y-148180000D03*
%TD*%
M02*
