%TF.GenerationSoftware,KiCad,Pcbnew,8.0.3*%
%TF.CreationDate,2024-07-08T22:33:59+02:00*%
%TF.ProjectId,labathome_pcb15,6c616261-7468-46f6-9d65-5f7063623135,rev?*%
%TF.SameCoordinates,Original*%
%TF.FileFunction,Paste,Bot*%
%TF.FilePolarity,Positive*%
%FSLAX46Y46*%
G04 Gerber Fmt 4.6, Leading zero omitted, Abs format (unit mm)*
G04 Created by KiCad (PCBNEW 8.0.3) date 2024-07-08 22:33:59*
%MOMM*%
%LPD*%
G01*
G04 APERTURE LIST*
G04 Aperture macros list*
%AMRoundRect*
0 Rectangle with rounded corners*
0 $1 Rounding radius*
0 $2 $3 $4 $5 $6 $7 $8 $9 X,Y pos of 4 corners*
0 Add a 4 corners polygon primitive as box body*
4,1,4,$2,$3,$4,$5,$6,$7,$8,$9,$2,$3,0*
0 Add four circle primitives for the rounded corners*
1,1,$1+$1,$2,$3*
1,1,$1+$1,$4,$5*
1,1,$1+$1,$6,$7*
1,1,$1+$1,$8,$9*
0 Add four rect primitives between the rounded corners*
20,1,$1+$1,$2,$3,$4,$5,0*
20,1,$1+$1,$4,$5,$6,$7,0*
20,1,$1+$1,$6,$7,$8,$9,0*
20,1,$1+$1,$8,$9,$2,$3,0*%
%AMFreePoly0*
4,1,19,0.290204,0.301344,0.321117,0.247801,0.322490,0.232106,0.322490,-0.157228,0.301344,-0.215326,0.296017,-0.221139,0.221139,-0.296017,0.165105,-0.322146,0.157228,-0.322490,-0.232106,-0.322490,-0.290204,-0.301344,-0.321117,-0.247801,-0.322490,-0.232106,-0.322490,0.232106,-0.301344,0.290204,-0.247801,0.321117,-0.232106,0.322490,0.232106,0.322490,0.290204,0.301344,0.290204,0.301344,
$1*%
%AMFreePoly1*
4,1,21,0.231572,0.385173,0.236504,0.380653,0.300030,0.317127,0.322198,0.269587,0.322490,0.262904,0.322490,-0.262904,0.304550,-0.312195,0.300030,-0.317127,0.236504,-0.380653,0.188964,-0.402821,0.182281,-0.403113,-0.245807,-0.403113,-0.295098,-0.385173,-0.321325,-0.339746,-0.322490,-0.326430,-0.322490,0.326430,-0.304550,0.375721,-0.259123,0.401948,-0.245807,0.403113,0.182281,0.403113,
0.231572,0.385173,0.231572,0.385173,$1*%
%AMFreePoly2*
4,1,19,0.215326,0.301344,0.221139,0.296017,0.296017,0.221139,0.322146,0.165105,0.322490,0.157228,0.322490,-0.232106,0.301344,-0.290204,0.247801,-0.321117,0.232106,-0.322490,-0.232106,-0.322490,-0.290204,-0.301344,-0.321117,-0.247801,-0.322490,-0.232106,-0.322490,0.232106,-0.301344,0.290204,-0.247801,0.321117,-0.232106,0.322490,0.157228,0.322490,0.215326,0.301344,0.215326,0.301344,
$1*%
%AMFreePoly3*
4,1,21,0.375721,0.304550,0.401948,0.259123,0.403113,0.245807,0.403113,-0.182281,0.385173,-0.231572,0.380653,-0.236504,0.317127,-0.300030,0.269587,-0.322198,0.262904,-0.322490,-0.262904,-0.322490,-0.312195,-0.304550,-0.317127,-0.300030,-0.380653,-0.236504,-0.402821,-0.188964,-0.403113,-0.182281,-0.403113,0.245807,-0.385173,0.295098,-0.339746,0.321325,-0.326430,0.322490,0.326430,0.322490,
0.375721,0.304550,0.375721,0.304550,$1*%
%AMFreePoly4*
4,1,21,0.312195,0.304550,0.317127,0.300030,0.380653,0.236504,0.402821,0.188964,0.403113,0.182281,0.403113,-0.245807,0.385173,-0.295098,0.339746,-0.321325,0.326430,-0.322490,-0.326430,-0.322490,-0.375721,-0.304550,-0.401948,-0.259123,-0.403113,-0.245807,-0.403113,0.182281,-0.385173,0.231572,-0.380653,0.236504,-0.317127,0.300030,-0.269587,0.322198,-0.262904,0.322490,0.262904,0.322490,
0.312195,0.304550,0.312195,0.304550,$1*%
%AMFreePoly5*
4,1,19,0.290204,0.301344,0.321117,0.247801,0.322490,0.232106,0.322490,-0.232106,0.301344,-0.290204,0.247801,-0.321117,0.232106,-0.322490,-0.157228,-0.322490,-0.215326,-0.301344,-0.221139,-0.296017,-0.296017,-0.221139,-0.322146,-0.165105,-0.322490,-0.157228,-0.322490,0.232106,-0.301344,0.290204,-0.247801,0.321117,-0.232106,0.322490,0.232106,0.322490,0.290204,0.301344,0.290204,0.301344,
$1*%
%AMFreePoly6*
4,1,21,0.295098,0.385173,0.321325,0.339746,0.322490,0.326430,0.322490,-0.326430,0.304550,-0.375721,0.259123,-0.401948,0.245807,-0.403113,-0.182281,-0.403113,-0.231572,-0.385173,-0.236504,-0.380653,-0.300030,-0.317127,-0.322198,-0.269587,-0.322490,-0.262904,-0.322490,0.262904,-0.304550,0.312195,-0.300030,0.317127,-0.236504,0.380653,-0.188964,0.402821,-0.182281,0.403113,0.245807,0.403113,
0.295098,0.385173,0.295098,0.385173,$1*%
%AMFreePoly7*
4,1,19,0.290204,0.301344,0.321117,0.247801,0.322490,0.232106,0.322490,-0.232106,0.301344,-0.290204,0.247801,-0.321117,0.232106,-0.322490,-0.232106,-0.322490,-0.290204,-0.301344,-0.321117,-0.247801,-0.322490,-0.232106,-0.322490,0.157228,-0.301344,0.215326,-0.296017,0.221139,-0.221139,0.296017,-0.165105,0.322146,-0.157228,0.322490,0.232106,0.322490,0.290204,0.301344,0.290204,0.301344,
$1*%
G04 Aperture macros list end*
%ADD10RoundRect,0.250000X0.450000X-0.325000X0.450000X0.325000X-0.450000X0.325000X-0.450000X-0.325000X0*%
%ADD11RoundRect,0.135000X0.135000X0.185000X-0.135000X0.185000X-0.135000X-0.185000X0.135000X-0.185000X0*%
%ADD12RoundRect,0.150000X-0.587500X-0.150000X0.587500X-0.150000X0.587500X0.150000X-0.587500X0.150000X0*%
%ADD13RoundRect,0.140000X0.140000X0.170000X-0.140000X0.170000X-0.140000X-0.170000X0.140000X-0.170000X0*%
%ADD14RoundRect,0.140000X-0.140000X-0.170000X0.140000X-0.170000X0.140000X0.170000X-0.140000X0.170000X0*%
%ADD15RoundRect,0.250000X-1.500000X-0.550000X1.500000X-0.550000X1.500000X0.550000X-1.500000X0.550000X0*%
%ADD16RoundRect,0.200000X-0.200000X-0.275000X0.200000X-0.275000X0.200000X0.275000X-0.200000X0.275000X0*%
%ADD17RoundRect,0.135000X-0.135000X-0.185000X0.135000X-0.185000X0.135000X0.185000X-0.135000X0.185000X0*%
%ADD18R,2.000000X0.700000*%
%ADD19R,0.800000X2.000000*%
%ADD20RoundRect,0.225000X0.225000X0.250000X-0.225000X0.250000X-0.225000X-0.250000X0.225000X-0.250000X0*%
%ADD21RoundRect,0.140000X-0.170000X0.140000X-0.170000X-0.140000X0.170000X-0.140000X0.170000X0.140000X0*%
%ADD22RoundRect,0.140000X0.170000X-0.140000X0.170000X0.140000X-0.170000X0.140000X-0.170000X-0.140000X0*%
%ADD23RoundRect,0.135000X-0.185000X0.135000X-0.185000X-0.135000X0.185000X-0.135000X0.185000X0.135000X0*%
%ADD24R,0.700000X1.600000*%
%ADD25R,1.200000X2.200000*%
%ADD26R,1.200000X1.500000*%
%ADD27R,1.600000X1.500000*%
%ADD28RoundRect,0.250000X-0.425000X0.450000X-0.425000X-0.450000X0.425000X-0.450000X0.425000X0.450000X0*%
%ADD29RoundRect,0.335000X-1.340000X-1.365000X1.340000X-1.365000X1.340000X1.365000X-1.340000X1.365000X0*%
%ADD30RoundRect,0.225000X-0.250000X0.225000X-0.250000X-0.225000X0.250000X-0.225000X0.250000X0.225000X0*%
%ADD31RoundRect,0.225000X-0.225000X-0.250000X0.225000X-0.250000X0.225000X0.250000X-0.225000X0.250000X0*%
%ADD32RoundRect,0.112500X-0.187500X-0.112500X0.187500X-0.112500X0.187500X0.112500X-0.187500X0.112500X0*%
%ADD33RoundRect,0.250000X0.750000X-1.250000X0.750000X1.250000X-0.750000X1.250000X-0.750000X-1.250000X0*%
%ADD34RoundRect,0.150000X0.512500X0.150000X-0.512500X0.150000X-0.512500X-0.150000X0.512500X-0.150000X0*%
%ADD35RoundRect,0.112500X-0.112500X0.187500X-0.112500X-0.187500X0.112500X-0.187500X0.112500X0.187500X0*%
%ADD36RoundRect,0.250000X0.325000X0.650000X-0.325000X0.650000X-0.325000X-0.650000X0.325000X-0.650000X0*%
%ADD37R,1.450000X0.600000*%
%ADD38R,1.450000X0.300000*%
%ADD39FreePoly0,90.000000*%
%ADD40FreePoly1,90.000000*%
%ADD41FreePoly2,90.000000*%
%ADD42FreePoly3,90.000000*%
%ADD43RoundRect,0.201557X0.201556X-0.201556X0.201556X0.201556X-0.201556X0.201556X-0.201556X-0.201556X0*%
%ADD44FreePoly4,90.000000*%
%ADD45FreePoly5,90.000000*%
%ADD46FreePoly6,90.000000*%
%ADD47FreePoly7,90.000000*%
%ADD48RoundRect,0.062500X0.062500X-0.337500X0.062500X0.337500X-0.062500X0.337500X-0.062500X-0.337500X0*%
%ADD49RoundRect,0.062500X0.337500X-0.062500X0.337500X0.062500X-0.337500X0.062500X-0.337500X-0.062500X0*%
%ADD50RoundRect,0.218750X-0.256250X0.218750X-0.256250X-0.218750X0.256250X-0.218750X0.256250X0.218750X0*%
%ADD51RoundRect,0.250000X0.425000X-0.450000X0.425000X0.450000X-0.425000X0.450000X-0.425000X-0.450000X0*%
%ADD52RoundRect,0.200000X0.750000X0.200000X-0.750000X0.200000X-0.750000X-0.200000X0.750000X-0.200000X0*%
%ADD53RoundRect,0.250000X0.450000X0.425000X-0.450000X0.425000X-0.450000X-0.425000X0.450000X-0.425000X0*%
%ADD54RoundRect,0.250000X0.625000X-0.312500X0.625000X0.312500X-0.625000X0.312500X-0.625000X-0.312500X0*%
%ADD55RoundRect,0.162500X0.162500X-0.617500X0.162500X0.617500X-0.162500X0.617500X-0.162500X-0.617500X0*%
%ADD56R,0.800000X0.500000*%
%ADD57R,2.200000X0.600000*%
%ADD58RoundRect,0.250000X0.315000X0.315000X-0.315000X0.315000X-0.315000X-0.315000X0.315000X-0.315000X0*%
%ADD59RoundRect,0.062500X0.375000X0.062500X-0.375000X0.062500X-0.375000X-0.062500X0.375000X-0.062500X0*%
%ADD60RoundRect,0.062500X0.062500X0.375000X-0.062500X0.375000X-0.062500X-0.375000X0.062500X-0.375000X0*%
%ADD61RoundRect,0.150000X0.625000X-0.150000X0.625000X0.150000X-0.625000X0.150000X-0.625000X-0.150000X0*%
%ADD62RoundRect,0.250000X0.650000X-0.350000X0.650000X0.350000X-0.650000X0.350000X-0.650000X-0.350000X0*%
%ADD63RoundRect,0.087500X-0.087500X0.225000X-0.087500X-0.225000X0.087500X-0.225000X0.087500X0.225000X0*%
%ADD64RoundRect,0.087500X-0.225000X0.087500X-0.225000X-0.087500X0.225000X-0.087500X0.225000X0.087500X0*%
%ADD65R,1.500000X0.900000*%
%ADD66R,0.900000X1.500000*%
%ADD67R,0.900000X0.900000*%
%ADD68R,1.400000X1.200000*%
%ADD69RoundRect,0.335000X1.340000X1.365000X-1.340000X1.365000X-1.340000X-1.365000X1.340000X-1.365000X0*%
%ADD70RoundRect,0.150000X0.150000X-0.587500X0.150000X0.587500X-0.150000X0.587500X-0.150000X-0.587500X0*%
%ADD71RoundRect,0.375000X-0.625000X-0.375000X0.625000X-0.375000X0.625000X0.375000X-0.625000X0.375000X0*%
%ADD72RoundRect,0.500000X-0.500000X-1.400000X0.500000X-1.400000X0.500000X1.400000X-0.500000X1.400000X0*%
%ADD73RoundRect,0.135000X0.185000X-0.135000X0.185000X0.135000X-0.185000X0.135000X-0.185000X-0.135000X0*%
%ADD74RoundRect,0.200000X0.200000X-0.750000X0.200000X0.750000X-0.200000X0.750000X-0.200000X-0.750000X0*%
%ADD75R,0.350000X0.500000*%
%ADD76R,0.800000X1.800000*%
%ADD77RoundRect,0.250000X-0.900000X-0.475000X0.900000X-0.475000X0.900000X0.475000X-0.900000X0.475000X0*%
%ADD78RoundRect,0.100000X-0.637500X-0.100000X0.637500X-0.100000X0.637500X0.100000X-0.637500X0.100000X0*%
%ADD79RoundRect,0.250000X0.625000X-0.400000X0.625000X0.400000X-0.625000X0.400000X-0.625000X-0.400000X0*%
%ADD80RoundRect,0.150000X0.587500X0.150000X-0.587500X0.150000X-0.587500X-0.150000X0.587500X-0.150000X0*%
%ADD81RoundRect,0.150000X0.150000X-0.512500X0.150000X0.512500X-0.150000X0.512500X-0.150000X-0.512500X0*%
%ADD82RoundRect,0.135000X-0.035355X0.226274X-0.226274X0.035355X0.035355X-0.226274X0.226274X-0.035355X0*%
%ADD83RoundRect,0.232500X0.232500X0.232500X-0.232500X0.232500X-0.232500X-0.232500X0.232500X-0.232500X0*%
%ADD84RoundRect,0.150000X0.825000X0.150000X-0.825000X0.150000X-0.825000X-0.150000X0.825000X-0.150000X0*%
%ADD85RoundRect,0.250000X0.400000X0.625000X-0.400000X0.625000X-0.400000X-0.625000X0.400000X-0.625000X0*%
%ADD86RoundRect,0.218750X0.218750X0.256250X-0.218750X0.256250X-0.218750X-0.256250X0.218750X-0.256250X0*%
G04 APERTURE END LIST*
D10*
%TO.C,R23*%
X184100000Y-118825000D03*
X184100000Y-116775000D03*
%TD*%
D11*
%TO.C,R63*%
X122910000Y-89425000D03*
X121890000Y-89425000D03*
%TD*%
D12*
%TO.C,Q4*%
X175012500Y-84800000D03*
X175012500Y-82900000D03*
X176887500Y-83850000D03*
%TD*%
D13*
%TO.C,C32*%
X125930000Y-89950000D03*
X124970000Y-89950000D03*
%TD*%
D14*
%TO.C,C43*%
X126120000Y-66400000D03*
X127080000Y-66400000D03*
%TD*%
D15*
%TO.C,C19*%
X180000000Y-105950000D03*
X185600000Y-105950000D03*
%TD*%
D16*
%TO.C,R7*%
X120275000Y-118100000D03*
X121925000Y-118100000D03*
%TD*%
D17*
%TO.C,R50*%
X121890000Y-83500000D03*
X122910000Y-83500000D03*
%TD*%
%TO.C,R45*%
X160990000Y-85100000D03*
X162010000Y-85100000D03*
%TD*%
D18*
%TO.C,SW3*%
X194920000Y-141950000D03*
X194920000Y-144950000D03*
X194920000Y-146450000D03*
D19*
X198030000Y-140050000D03*
X195820000Y-140050000D03*
X198030000Y-148350000D03*
X195820000Y-148350000D03*
%TD*%
D20*
%TO.C,C84*%
X113250000Y-69100000D03*
X111700000Y-69100000D03*
%TD*%
D21*
%TO.C,C14*%
X177000000Y-98770000D03*
X177000000Y-99730000D03*
%TD*%
D11*
%TO.C,R60*%
X121810000Y-55600000D03*
X120790000Y-55600000D03*
%TD*%
D22*
%TO.C,C10*%
X110500000Y-102180000D03*
X110500000Y-101220000D03*
%TD*%
D23*
%TO.C,R69*%
X110200000Y-88440000D03*
X110200000Y-89460000D03*
%TD*%
%TO.C,R68*%
X111200000Y-87590000D03*
X111200000Y-88610000D03*
%TD*%
D24*
%TO.C,J17*%
X134700000Y-134975000D03*
X135800000Y-134975000D03*
X136900000Y-134975000D03*
X138000000Y-134975000D03*
X139100000Y-134975000D03*
X140200000Y-134975000D03*
X141300000Y-134975000D03*
X142400000Y-134975000D03*
X143500000Y-134975000D03*
D25*
X144700000Y-145575000D03*
D26*
X144700000Y-135975000D03*
D27*
X130100000Y-135975000D03*
D25*
X129200000Y-145575000D03*
%TD*%
D28*
%TO.C,C17*%
X185850000Y-90750000D03*
X185850000Y-93450000D03*
%TD*%
D13*
%TO.C,C12*%
X168330000Y-96850000D03*
X167370000Y-96850000D03*
%TD*%
D17*
%TO.C,R59*%
X114590000Y-55860000D03*
X115610000Y-55860000D03*
%TD*%
D29*
%TO.C,L4*%
X115675000Y-69300000D03*
X122725000Y-69300000D03*
%TD*%
D18*
%TO.C,SW2*%
X194890000Y-130950000D03*
X194890000Y-133950000D03*
X194890000Y-135450000D03*
D19*
X198000000Y-129050000D03*
X195790000Y-129050000D03*
X198000000Y-137350000D03*
X195790000Y-137350000D03*
%TD*%
D30*
%TO.C,C28*%
X134600000Y-107825000D03*
X134600000Y-109375000D03*
%TD*%
D13*
%TO.C,C36*%
X125930000Y-90900000D03*
X124970000Y-90900000D03*
%TD*%
D31*
%TO.C,C1*%
X139925000Y-115700000D03*
X141475000Y-115700000D03*
%TD*%
D13*
%TO.C,C54*%
X121430000Y-98750000D03*
X120470000Y-98750000D03*
%TD*%
D21*
%TO.C,C25*%
X138500000Y-73520000D03*
X138500000Y-74480000D03*
%TD*%
D16*
%TO.C,R3*%
X139875000Y-117200000D03*
X141525000Y-117200000D03*
%TD*%
D17*
%TO.C,R18*%
X109090000Y-129600000D03*
X110110000Y-129600000D03*
%TD*%
D32*
%TO.C,D20*%
X156750000Y-92550000D03*
X158850000Y-92550000D03*
%TD*%
D14*
%TO.C,C45*%
X156820000Y-91100000D03*
X157780000Y-91100000D03*
%TD*%
D17*
%TO.C,R65*%
X121890000Y-81300000D03*
X122910000Y-81300000D03*
%TD*%
%TO.C,R54*%
X185790000Y-118800000D03*
X186810000Y-118800000D03*
%TD*%
D23*
%TO.C,R55*%
X191150000Y-109640000D03*
X191150000Y-110660000D03*
%TD*%
D33*
%TO.C,J14*%
X194575000Y-100500000D03*
X197275000Y-107500000D03*
X198275000Y-100500000D03*
X190275000Y-107500000D03*
X188575000Y-100500000D03*
%TD*%
D30*
%TO.C,C29*%
X120300000Y-119625000D03*
X120300000Y-121175000D03*
%TD*%
D34*
%TO.C,U8*%
X134137500Y-124450000D03*
X134137500Y-125400000D03*
X134137500Y-126350000D03*
X131862500Y-126350000D03*
X131862500Y-125400000D03*
X131862500Y-124450000D03*
%TD*%
D35*
%TO.C,D13*%
X179100000Y-82350000D03*
X179100000Y-84450000D03*
%TD*%
D22*
%TO.C,C35*%
X124600000Y-82380000D03*
X124600000Y-81420000D03*
%TD*%
D13*
%TO.C,C47*%
X138330000Y-91200000D03*
X137370000Y-91200000D03*
%TD*%
D36*
%TO.C,C80*%
X123775000Y-64500000D03*
X120825000Y-64500000D03*
%TD*%
D11*
%TO.C,R24*%
X175610000Y-101000000D03*
X174590000Y-101000000D03*
%TD*%
D13*
%TO.C,C60*%
X171680000Y-75300000D03*
X170720000Y-75300000D03*
%TD*%
D37*
%TO.C,J13*%
X107600000Y-75050000D03*
X107550000Y-74250000D03*
D38*
X107550000Y-73100000D03*
X107550000Y-72100000D03*
X107550000Y-71600000D03*
X107550000Y-70600000D03*
D37*
X107550000Y-69450000D03*
X107600000Y-68650000D03*
X107600000Y-68650000D03*
X107550000Y-69450000D03*
D38*
X107550000Y-70100000D03*
X107550000Y-71100000D03*
X107550000Y-72600000D03*
X107550000Y-73600000D03*
D37*
X107550000Y-74250000D03*
X107600000Y-75050000D03*
%TD*%
D16*
%TO.C,R28*%
X120275000Y-116600000D03*
X121925000Y-116600000D03*
%TD*%
D21*
%TO.C,C26*%
X138000000Y-132520000D03*
X138000000Y-133480000D03*
%TD*%
D30*
%TO.C,C31*%
X131600000Y-107825000D03*
X131600000Y-109375000D03*
%TD*%
D39*
%TO.C,U10*%
X170425000Y-98650000D03*
D40*
X171325000Y-98650000D03*
X172325000Y-98650000D03*
D41*
X173225000Y-98650000D03*
D42*
X170425000Y-97750000D03*
D43*
X171325000Y-97750000D03*
X172325000Y-97750000D03*
D44*
X173225000Y-97750000D03*
D42*
X170425000Y-96750000D03*
D43*
X171325000Y-96750000D03*
X172325000Y-96750000D03*
D44*
X173225000Y-96750000D03*
D45*
X170425000Y-95850000D03*
D46*
X171325000Y-95850000D03*
X172325000Y-95850000D03*
D47*
X173225000Y-95850000D03*
D48*
X173575000Y-99700000D03*
X173075000Y-99700000D03*
X172575000Y-99700000D03*
X172075000Y-99700000D03*
X171575000Y-99700000D03*
X171075000Y-99700000D03*
X170575000Y-99700000D03*
X170075000Y-99700000D03*
D49*
X169375000Y-99000000D03*
X169375000Y-98500000D03*
X169375000Y-98000000D03*
X169375000Y-97500000D03*
X169375000Y-97000000D03*
X169375000Y-96500000D03*
X169375000Y-96000000D03*
X169375000Y-95500000D03*
D48*
X170075000Y-94800000D03*
X170575000Y-94800000D03*
X171075000Y-94800000D03*
X171575000Y-94800000D03*
X172075000Y-94800000D03*
X172575000Y-94800000D03*
X173075000Y-94800000D03*
X173575000Y-94800000D03*
D49*
X174275000Y-95500000D03*
X174275000Y-96000000D03*
X174275000Y-96500000D03*
X174275000Y-97000000D03*
X174275000Y-97500000D03*
X174275000Y-98000000D03*
X174275000Y-98500000D03*
X174275000Y-99000000D03*
%TD*%
D21*
%TO.C,C53*%
X170700000Y-144740000D03*
X170700000Y-145700000D03*
%TD*%
D50*
%TO.C,FB1*%
X178500000Y-100912500D03*
X178500000Y-102487500D03*
%TD*%
D21*
%TO.C,C27*%
X144950000Y-113470000D03*
X144950000Y-114430000D03*
%TD*%
D51*
%TO.C,C20*%
X183350000Y-113300000D03*
X183350000Y-110600000D03*
%TD*%
D13*
%TO.C,C59*%
X169080000Y-58400000D03*
X168120000Y-58400000D03*
%TD*%
D51*
%TO.C,C23*%
X173050000Y-104500000D03*
X173050000Y-101800000D03*
%TD*%
D23*
%TO.C,R58*%
X146400000Y-137040000D03*
X146400000Y-138060000D03*
%TD*%
D20*
%TO.C,C56*%
X118575000Y-144200000D03*
X117025000Y-144200000D03*
%TD*%
D13*
%TO.C,C48*%
X152580000Y-91200000D03*
X151620000Y-91200000D03*
%TD*%
D22*
%TO.C,C22*%
X176000000Y-100080000D03*
X176000000Y-99120000D03*
%TD*%
D23*
%TO.C,R35*%
X161800000Y-85990000D03*
X161800000Y-87010000D03*
%TD*%
D18*
%TO.C,SW10*%
X105080000Y-91600000D03*
X105080000Y-88600000D03*
X105080000Y-87100000D03*
D19*
X101970000Y-93500000D03*
X104180000Y-93500000D03*
X101970000Y-85200000D03*
X104180000Y-85200000D03*
%TD*%
D52*
%TO.C,D3*%
X182725000Y-140025000D03*
X182725000Y-141925000D03*
X179725000Y-140975000D03*
%TD*%
D28*
%TO.C,C16*%
X183700000Y-90750000D03*
X183700000Y-93450000D03*
%TD*%
D23*
%TO.C,R39*%
X168900000Y-91390000D03*
X168900000Y-92410000D03*
%TD*%
D20*
%TO.C,C83*%
X113275000Y-67600000D03*
X111725000Y-67600000D03*
%TD*%
D14*
%TO.C,C15*%
X175220000Y-95200000D03*
X176180000Y-95200000D03*
%TD*%
D53*
%TO.C,C24*%
X180350000Y-89250000D03*
X177650000Y-89250000D03*
%TD*%
D54*
%TO.C,R15*%
X136000000Y-54262500D03*
X136000000Y-51337500D03*
%TD*%
D55*
%TO.C,U27*%
X122950000Y-60050000D03*
X122000000Y-60050000D03*
X121050000Y-60050000D03*
X121050000Y-57350000D03*
X122000000Y-57350000D03*
X122950000Y-57350000D03*
%TD*%
D17*
%TO.C,R10*%
X109490000Y-103100000D03*
X110510000Y-103100000D03*
%TD*%
D30*
%TO.C,C30*%
X133100000Y-107825000D03*
X133100000Y-109375000D03*
%TD*%
D56*
%TO.C,U12*%
X118700000Y-149000000D03*
X118700000Y-148000000D03*
X118700000Y-147000000D03*
X120700000Y-147000000D03*
X120700000Y-148000000D03*
X120700000Y-149000000D03*
%TD*%
D17*
%TO.C,R62*%
X150790000Y-113600000D03*
X151810000Y-113600000D03*
%TD*%
D57*
%TO.C,U1*%
X180100000Y-137830000D03*
X180100000Y-136560000D03*
X180100000Y-135290000D03*
X180100000Y-134020000D03*
X186100000Y-134020000D03*
X186100000Y-135290000D03*
X186100000Y-136560000D03*
X186100000Y-137830000D03*
%TD*%
D13*
%TO.C,C49*%
X128330000Y-89950000D03*
X127370000Y-89950000D03*
%TD*%
D58*
%TO.C,U5*%
X131300000Y-87300000D03*
X131300000Y-85900000D03*
X131300000Y-84500000D03*
X131300000Y-83100000D03*
X129900000Y-87300000D03*
X129900000Y-85900000D03*
X129900000Y-84500000D03*
X129900000Y-83100000D03*
X128500000Y-87300000D03*
X128500000Y-85900000D03*
X128500000Y-84500000D03*
X128500000Y-83100000D03*
X127100000Y-87300000D03*
X127100000Y-85900000D03*
X127100000Y-84500000D03*
X127100000Y-83100000D03*
D59*
X132637500Y-82450000D03*
X132637500Y-82950000D03*
X132637500Y-83450000D03*
X132637500Y-83950000D03*
X132637500Y-84450000D03*
X132637500Y-84950000D03*
X132637500Y-85450000D03*
X132637500Y-85950000D03*
X132637500Y-86450000D03*
X132637500Y-86950000D03*
X132637500Y-87450000D03*
X132637500Y-87950000D03*
D60*
X131950000Y-88637500D03*
X131450000Y-88637500D03*
X130950000Y-88637500D03*
X130450000Y-88637500D03*
X129950000Y-88637500D03*
X129450000Y-88637500D03*
X128950000Y-88637500D03*
X128450000Y-88637500D03*
X127950000Y-88637500D03*
X127450000Y-88637500D03*
X126950000Y-88637500D03*
X126450000Y-88637500D03*
D59*
X125762500Y-87950000D03*
X125762500Y-87450000D03*
X125762500Y-86950000D03*
X125762500Y-86450000D03*
X125762500Y-85950000D03*
X125762500Y-85450000D03*
X125762500Y-84950000D03*
X125762500Y-84450000D03*
X125762500Y-83950000D03*
X125762500Y-83450000D03*
X125762500Y-82950000D03*
X125762500Y-82450000D03*
D60*
X126450000Y-81762500D03*
X126950000Y-81762500D03*
X127450000Y-81762500D03*
X127950000Y-81762500D03*
X128450000Y-81762500D03*
X128950000Y-81762500D03*
X129450000Y-81762500D03*
X129950000Y-81762500D03*
X130450000Y-81762500D03*
X130950000Y-81762500D03*
X131450000Y-81762500D03*
X131950000Y-81762500D03*
%TD*%
D33*
%TO.C,J16*%
X194575000Y-111500000D03*
X197275000Y-118500000D03*
X198275000Y-111500000D03*
X190275000Y-118500000D03*
X188575000Y-111500000D03*
%TD*%
D61*
%TO.C,J11*%
X105300000Y-143700000D03*
X105300000Y-142700000D03*
X105300000Y-141700000D03*
X105300000Y-140700000D03*
D62*
X101425000Y-145000000D03*
X101425000Y-139400000D03*
%TD*%
D63*
%TO.C,U9*%
X117750000Y-98337500D03*
X118250000Y-98337500D03*
X118750000Y-98337500D03*
X119250000Y-98337500D03*
D64*
X119412500Y-99000000D03*
X119412500Y-99500000D03*
X119412500Y-100000000D03*
D63*
X119250000Y-100662500D03*
X118750000Y-100662500D03*
X118250000Y-100662500D03*
X117750000Y-100662500D03*
D64*
X117587500Y-100000000D03*
X117587500Y-99500000D03*
X117587500Y-99000000D03*
%TD*%
D65*
%TO.C,U4*%
X148450000Y-148420000D03*
X148450000Y-147150000D03*
X148450000Y-145880000D03*
X148450000Y-144610000D03*
X148450000Y-143340000D03*
X148450000Y-142070000D03*
X148450000Y-140800000D03*
X148450000Y-139530000D03*
X148450000Y-138260000D03*
X148450000Y-136990000D03*
X148450000Y-135720000D03*
X148450000Y-134450000D03*
X148450000Y-133180000D03*
X148450000Y-131910000D03*
D66*
X150215000Y-130660000D03*
X151485000Y-130660000D03*
X152755000Y-130660000D03*
X154025000Y-130660000D03*
X155295000Y-130660000D03*
X156565000Y-130660000D03*
X157835000Y-130660000D03*
X159105000Y-130660000D03*
X160375000Y-130660000D03*
X161645000Y-130660000D03*
X162915000Y-130660000D03*
X164185000Y-130660000D03*
D65*
X165950000Y-131910000D03*
X165950000Y-133180000D03*
X165950000Y-134450000D03*
X165950000Y-135720000D03*
X165950000Y-136990000D03*
X165950000Y-138260000D03*
X165950000Y-139530000D03*
X165950000Y-140800000D03*
X165950000Y-142070000D03*
X165950000Y-143340000D03*
X165950000Y-144610000D03*
X165950000Y-145880000D03*
X165950000Y-147150000D03*
X165950000Y-148420000D03*
D67*
X154300000Y-139300000D03*
X154300000Y-139300000D03*
X154300000Y-140700000D03*
X154300000Y-142100000D03*
X155700000Y-139300000D03*
X155700000Y-140700000D03*
X155700000Y-142100000D03*
X155700000Y-142100000D03*
X157100000Y-139300000D03*
X157100000Y-140700000D03*
X157100000Y-142100000D03*
%TD*%
D23*
%TO.C,R43*%
X146700000Y-144390000D03*
X146700000Y-145410000D03*
%TD*%
%TO.C,R30*%
X188500000Y-71190000D03*
X188500000Y-72210000D03*
%TD*%
D15*
%TO.C,C18*%
X180000000Y-98850000D03*
X185600000Y-98850000D03*
%TD*%
D68*
%TO.C,Y1*%
X139200000Y-85400000D03*
X137000000Y-85400000D03*
X137000000Y-83700000D03*
X139200000Y-83700000D03*
%TD*%
D69*
%TO.C,L1*%
X126475000Y-112200000D03*
X119425000Y-112200000D03*
%TD*%
D11*
%TO.C,R22*%
X178110000Y-57500000D03*
X177090000Y-57500000D03*
%TD*%
D22*
%TO.C,C34*%
X133800000Y-82380000D03*
X133800000Y-81420000D03*
%TD*%
D11*
%TO.C,R37*%
X172660000Y-108500000D03*
X171640000Y-108500000D03*
%TD*%
D33*
%TO.C,J3*%
X194575000Y-89500000D03*
X197275000Y-96500000D03*
X198275000Y-89500000D03*
X190275000Y-96500000D03*
X188575000Y-89500000D03*
%TD*%
D17*
%TO.C,R40*%
X169590000Y-134800000D03*
X170610000Y-134800000D03*
%TD*%
D13*
%TO.C,C37*%
X128330000Y-90900000D03*
X127370000Y-90900000D03*
%TD*%
D11*
%TO.C,R8*%
X186010000Y-131900000D03*
X184990000Y-131900000D03*
%TD*%
%TO.C,R12*%
X133510000Y-56600000D03*
X132490000Y-56600000D03*
%TD*%
D28*
%TO.C,C62*%
X172850000Y-88950000D03*
X172850000Y-91650000D03*
%TD*%
D13*
%TO.C,C58*%
X128880000Y-100700000D03*
X127920000Y-100700000D03*
%TD*%
D17*
%TO.C,R53*%
X172590000Y-76500000D03*
X173610000Y-76500000D03*
%TD*%
D23*
%TO.C,R61*%
X135800000Y-132490000D03*
X135800000Y-133510000D03*
%TD*%
D22*
%TO.C,C5*%
X168200000Y-142980000D03*
X168200000Y-142020000D03*
%TD*%
%TO.C,C9*%
X110500000Y-98480000D03*
X110500000Y-97520000D03*
%TD*%
D17*
%TO.C,R25*%
X187690000Y-118800000D03*
X188710000Y-118800000D03*
%TD*%
D14*
%TO.C,C21*%
X175970000Y-96150000D03*
X176930000Y-96150000D03*
%TD*%
D11*
%TO.C,R4*%
X129110000Y-117700000D03*
X128090000Y-117700000D03*
%TD*%
D17*
%TO.C,R49*%
X134490000Y-85400000D03*
X135510000Y-85400000D03*
%TD*%
D70*
%TO.C,Q5*%
X163250000Y-83637500D03*
X161350000Y-83637500D03*
X162300000Y-81762500D03*
%TD*%
D17*
%TO.C,R19*%
X109190000Y-126800000D03*
X110210000Y-126800000D03*
%TD*%
D14*
%TO.C,C41*%
X126140000Y-64100000D03*
X127100000Y-64100000D03*
%TD*%
D30*
%TO.C,C7*%
X121900000Y-119625000D03*
X121900000Y-121175000D03*
%TD*%
D23*
%TO.C,R21*%
X189400000Y-147580000D03*
X189400000Y-148600000D03*
%TD*%
D17*
%TO.C,R67*%
X134690000Y-81000000D03*
X135710000Y-81000000D03*
%TD*%
D71*
%TO.C,U11*%
X128850000Y-69200000D03*
X128850000Y-66900000D03*
D72*
X135150000Y-66900000D03*
D71*
X128850000Y-64600000D03*
%TD*%
D73*
%TO.C,R11*%
X172475000Y-86410000D03*
X172475000Y-85390000D03*
%TD*%
D21*
%TO.C,C50*%
X140700000Y-84070000D03*
X140700000Y-85030000D03*
%TD*%
D74*
%TO.C,D2*%
X183750000Y-131900000D03*
X181850000Y-131900000D03*
X182800000Y-128900000D03*
%TD*%
D11*
%TO.C,R26*%
X170235000Y-93650000D03*
X169215000Y-93650000D03*
%TD*%
%TO.C,R51*%
X131260000Y-96000000D03*
X130240000Y-96000000D03*
%TD*%
D75*
%TO.C,U14*%
X126925000Y-103300000D03*
X127575000Y-103300000D03*
X128225000Y-103300000D03*
X128875000Y-103300000D03*
X128875000Y-101700000D03*
X128225000Y-101700000D03*
X127575000Y-101700000D03*
X126925000Y-101700000D03*
%TD*%
D14*
%TO.C,C33*%
X131920000Y-80600000D03*
X132880000Y-80600000D03*
%TD*%
D76*
%TO.C,K1*%
X181700000Y-78500000D03*
X184900000Y-78500000D03*
X187100000Y-78500000D03*
X189300000Y-78500000D03*
X189300000Y-85500000D03*
X187100000Y-85500000D03*
X184900000Y-85500000D03*
X181700000Y-85500000D03*
%TD*%
D11*
%TO.C,R48*%
X123710000Y-55600000D03*
X122690000Y-55600000D03*
%TD*%
D21*
%TO.C,C2*%
X146900000Y-147420000D03*
X146900000Y-148380000D03*
%TD*%
D77*
%TO.C,U3*%
X117600000Y-83400000D03*
X117600000Y-85200000D03*
X117600000Y-87000000D03*
D78*
X114737500Y-89425000D03*
X114737500Y-88775000D03*
X114737500Y-88125000D03*
X114737500Y-87475000D03*
X114737500Y-86825000D03*
X114737500Y-86175000D03*
X114737500Y-85525000D03*
X114737500Y-84875000D03*
X114737500Y-84225000D03*
X114737500Y-83575000D03*
X114737500Y-82925000D03*
X114737500Y-82275000D03*
X114737500Y-81625000D03*
X114737500Y-80975000D03*
X120462500Y-80975000D03*
X120462500Y-81625000D03*
X120462500Y-82275000D03*
X120462500Y-82925000D03*
X120462500Y-83575000D03*
X120462500Y-84225000D03*
X120462500Y-84875000D03*
X120462500Y-85525000D03*
X120462500Y-86175000D03*
X120462500Y-86825000D03*
X120462500Y-87475000D03*
X120462500Y-88125000D03*
X120462500Y-88775000D03*
X120462500Y-89425000D03*
%TD*%
D11*
%TO.C,R1*%
X184610000Y-148900000D03*
X183590000Y-148900000D03*
%TD*%
D21*
%TO.C,C81*%
X124300000Y-56820000D03*
X124300000Y-57780000D03*
%TD*%
D17*
%TO.C,R52*%
X121890000Y-82300000D03*
X122910000Y-82300000D03*
%TD*%
D79*
%TO.C,R20*%
X188500000Y-134750000D03*
X188500000Y-131650000D03*
%TD*%
D22*
%TO.C,C3*%
X187800000Y-138980000D03*
X187800000Y-138020000D03*
%TD*%
D11*
%TO.C,R34*%
X119660000Y-76050000D03*
X118640000Y-76050000D03*
%TD*%
D37*
%TO.C,J5*%
X107650000Y-131800000D03*
X107600000Y-131000000D03*
D38*
X107600000Y-129850000D03*
X107600000Y-128850000D03*
X107600000Y-128350000D03*
X107600000Y-127350000D03*
D37*
X107600000Y-126200000D03*
X107650000Y-125400000D03*
X107650000Y-125400000D03*
X107600000Y-126200000D03*
D38*
X107600000Y-126850000D03*
X107600000Y-127850000D03*
X107600000Y-129350000D03*
X107600000Y-130350000D03*
D37*
X107600000Y-131000000D03*
X107650000Y-131800000D03*
%TD*%
D13*
%TO.C,C55*%
X121430000Y-100700000D03*
X120470000Y-100700000D03*
%TD*%
D11*
%TO.C,R64*%
X131260000Y-94700000D03*
X130240000Y-94700000D03*
%TD*%
%TO.C,R41*%
X171710000Y-146600000D03*
X170690000Y-146600000D03*
%TD*%
D70*
%TO.C,Q2*%
X189850000Y-68037500D03*
X187950000Y-68037500D03*
X188900000Y-66162500D03*
%TD*%
D11*
%TO.C,R36*%
X174660000Y-108500000D03*
X173640000Y-108500000D03*
%TD*%
D22*
%TO.C,C38*%
X113200000Y-89780000D03*
X113200000Y-88820000D03*
%TD*%
D23*
%TO.C,R57*%
X139200000Y-132465000D03*
X139200000Y-133485000D03*
%TD*%
D13*
%TO.C,C44*%
X127080000Y-67400000D03*
X126120000Y-67400000D03*
%TD*%
D23*
%TO.C,R42*%
X184500000Y-121840000D03*
X184500000Y-122860000D03*
%TD*%
D11*
%TO.C,R2*%
X146910000Y-146300000D03*
X145890000Y-146300000D03*
%TD*%
D17*
%TO.C,R14*%
X109490000Y-99400000D03*
X110510000Y-99400000D03*
%TD*%
D20*
%TO.C,C79*%
X122275000Y-62600000D03*
X120725000Y-62600000D03*
%TD*%
D23*
%TO.C,R56*%
X136800000Y-132480000D03*
X136800000Y-133500000D03*
%TD*%
D80*
%TO.C,Q1*%
X136837500Y-55850000D03*
X136837500Y-57750000D03*
X134962500Y-56800000D03*
%TD*%
D13*
%TO.C,C42*%
X127100000Y-65100000D03*
X126140000Y-65100000D03*
%TD*%
%TO.C,C40*%
X170480000Y-118600000D03*
X169520000Y-118600000D03*
%TD*%
D21*
%TO.C,C8*%
X110500000Y-96180000D03*
X110500000Y-95220000D03*
%TD*%
D13*
%TO.C,C82*%
X115580000Y-56825000D03*
X114620000Y-56825000D03*
%TD*%
D81*
%TO.C,U24*%
X111700000Y-73837500D03*
X110750000Y-73837500D03*
X109800000Y-73837500D03*
X109800000Y-71562500D03*
X110750000Y-71562500D03*
X111700000Y-71562500D03*
%TD*%
D11*
%TO.C,R29*%
X173535000Y-84450000D03*
X172515000Y-84450000D03*
%TD*%
D54*
%TO.C,R13*%
X138300000Y-54262500D03*
X138300000Y-51337500D03*
%TD*%
D13*
%TO.C,C13*%
X168330000Y-95900000D03*
X167370000Y-95900000D03*
%TD*%
D17*
%TO.C,R16*%
X109490000Y-94300000D03*
X110510000Y-94300000D03*
%TD*%
D82*
%TO.C,R70*%
X166660624Y-90739376D03*
X165939376Y-91460624D03*
%TD*%
D16*
%TO.C,R47*%
X136875000Y-117200000D03*
X138525000Y-117200000D03*
%TD*%
D11*
%TO.C,R6*%
X184010000Y-76200000D03*
X182990000Y-76200000D03*
%TD*%
D21*
%TO.C,C11*%
X179800000Y-145140000D03*
X179800000Y-146100000D03*
%TD*%
D83*
%TO.C,U2*%
X132875000Y-115075000D03*
X132875000Y-113925000D03*
X131725000Y-115075000D03*
X131725000Y-113925000D03*
D84*
X134775000Y-112595000D03*
X134775000Y-113865000D03*
X134775000Y-115135000D03*
X134775000Y-116405000D03*
X129825000Y-116405000D03*
X129825000Y-115135000D03*
X129825000Y-113865000D03*
X129825000Y-112595000D03*
%TD*%
D11*
%TO.C,R17*%
X131260000Y-96950000D03*
X130240000Y-96950000D03*
%TD*%
%TO.C,R66*%
X170510000Y-119600000D03*
X169490000Y-119600000D03*
%TD*%
D73*
%TO.C,R44*%
X146700000Y-143520000D03*
X146700000Y-142500000D03*
%TD*%
D17*
%TO.C,R9*%
X117690000Y-142400000D03*
X118710000Y-142400000D03*
%TD*%
D13*
%TO.C,C46*%
X145580000Y-91200000D03*
X144620000Y-91200000D03*
%TD*%
%TO.C,C61*%
X138580000Y-82200000D03*
X137620000Y-82200000D03*
%TD*%
D17*
%TO.C,R31*%
X188390000Y-70000000D03*
X189410000Y-70000000D03*
%TD*%
D30*
%TO.C,C6*%
X145600000Y-147525000D03*
X145600000Y-149075000D03*
%TD*%
D85*
%TO.C,R46*%
X187950000Y-141575000D03*
X184850000Y-141575000D03*
%TD*%
D86*
%TO.C,FB2*%
X127287500Y-92100000D03*
X125712500Y-92100000D03*
%TD*%
D57*
%TO.C,U7*%
X181600000Y-147505000D03*
X181600000Y-146235000D03*
X181600000Y-144965000D03*
X181600000Y-143695000D03*
X187600000Y-143695000D03*
X187600000Y-144965000D03*
X187600000Y-146235000D03*
X187600000Y-147505000D03*
%TD*%
D31*
%TO.C,C4*%
X136925000Y-115700000D03*
X138475000Y-115700000D03*
%TD*%
D17*
%TO.C,R27*%
X191790000Y-119300000D03*
X192810000Y-119300000D03*
%TD*%
D22*
%TO.C,C51*%
X112200000Y-88580000D03*
X112200000Y-87620000D03*
%TD*%
D23*
%TO.C,R5*%
X187800000Y-136090000D03*
X187800000Y-137110000D03*
%TD*%
D22*
%TO.C,C57*%
X117600000Y-148980000D03*
X117600000Y-148020000D03*
%TD*%
M02*
