%TF.GenerationSoftware,KiCad,Pcbnew,8.0.3*%
%TF.CreationDate,2024-09-04T21:42:18+02:00*%
%TF.ProjectId,labathome_pcb15,6c616261-7468-46f6-9d65-5f7063623135,rev?*%
%TF.SameCoordinates,Original*%
%TF.FileFunction,Legend,Bot*%
%TF.FilePolarity,Positive*%
%FSLAX46Y46*%
G04 Gerber Fmt 4.6, Leading zero omitted, Abs format (unit mm)*
G04 Created by KiCad (PCBNEW 8.0.3) date 2024-09-04 21:42:18*
%MOMM*%
%LPD*%
G01*
G04 APERTURE LIST*
G04 Aperture macros list*
%AMRoundRect*
0 Rectangle with rounded corners*
0 $1 Rounding radius*
0 $2 $3 $4 $5 $6 $7 $8 $9 X,Y pos of 4 corners*
0 Add a 4 corners polygon primitive as box body*
4,1,4,$2,$3,$4,$5,$6,$7,$8,$9,$2,$3,0*
0 Add four circle primitives for the rounded corners*
1,1,$1+$1,$2,$3*
1,1,$1+$1,$4,$5*
1,1,$1+$1,$6,$7*
1,1,$1+$1,$8,$9*
0 Add four rect primitives between the rounded corners*
20,1,$1+$1,$2,$3,$4,$5,0*
20,1,$1+$1,$4,$5,$6,$7,0*
20,1,$1+$1,$6,$7,$8,$9,0*
20,1,$1+$1,$8,$9,$2,$3,0*%
%AMRotRect*
0 Rectangle, with rotation*
0 The origin of the aperture is its center*
0 $1 length*
0 $2 width*
0 $3 Rotation angle, in degrees counterclockwise*
0 Add horizontal line*
21,1,$1,$2,0,0,$3*%
%AMFreePoly0*
4,1,19,0.500000,-0.750000,0.000000,-0.750000,0.000000,-0.744911,-0.071157,-0.744911,-0.207708,-0.704816,-0.327430,-0.627875,-0.420627,-0.520320,-0.479746,-0.390866,-0.500000,-0.250000,-0.500000,0.250000,-0.479746,0.390866,-0.420627,0.520320,-0.327430,0.627875,-0.207708,0.704816,-0.071157,0.744911,0.000000,0.744911,0.000000,0.750000,0.500000,0.750000,0.500000,-0.750000,0.500000,-0.750000,
$1*%
%AMFreePoly1*
4,1,19,0.000000,0.744911,0.071157,0.744911,0.207708,0.704816,0.327430,0.627875,0.420627,0.520320,0.479746,0.390866,0.500000,0.250000,0.500000,-0.250000,0.479746,-0.390866,0.420627,-0.520320,0.327430,-0.627875,0.207708,-0.704816,0.071157,-0.744911,0.000000,-0.744911,0.000000,-0.750000,-0.500000,-0.750000,-0.500000,0.750000,0.000000,0.750000,0.000000,0.744911,0.000000,0.744911,
$1*%
G04 Aperture macros list end*
%ADD10C,0.250000*%
%ADD11C,0.150000*%
%ADD12C,0.120000*%
%ADD13C,0.100000*%
%ADD14C,1.200000*%
%ADD15R,1.700000X1.700000*%
%ADD16O,1.700000X1.700000*%
%ADD17O,1.800000X1.400000*%
%ADD18RoundRect,0.500000X0.350000X0.350000X-0.350000X0.350000X-0.350000X-0.350000X0.350000X-0.350000X0*%
%ADD19RoundRect,0.750000X-1.000000X0.750000X-1.000000X-0.750000X1.000000X-0.750000X1.000000X0.750000X0*%
%ADD20RoundRect,0.750000X-1.000000X1.000000X-1.000000X-1.000000X1.000000X-1.000000X1.000000X1.000000X0*%
%ADD21RoundRect,0.875000X-0.875000X0.875000X-0.875000X-0.875000X0.875000X-0.875000X0.875000X0.875000X0*%
%ADD22RoundRect,0.450000X-0.750000X0.450000X-0.750000X-0.450000X0.750000X-0.450000X0.750000X0.450000X0*%
%ADD23RoundRect,0.250000X0.600000X-0.600000X0.600000X0.600000X-0.600000X0.600000X-0.600000X-0.600000X0*%
%ADD24C,1.500000*%
%ADD25R,1.100000X1.800000*%
%ADD26RoundRect,0.275000X-0.275000X-0.625000X0.275000X-0.625000X0.275000X0.625000X-0.275000X0.625000X0*%
%ADD27RoundRect,0.450000X0.750000X-0.450000X0.750000X0.450000X-0.750000X0.450000X-0.750000X-0.450000X0*%
%ADD28RoundRect,0.400000X-0.400000X-0.400000X0.400000X-0.400000X0.400000X0.400000X-0.400000X0.400000X0*%
%ADD29O,1.800000X1.600000*%
%ADD30O,1.400000X1.800000*%
%ADD31O,1.600000X2.200000*%
%ADD32C,1.700000*%
%ADD33RoundRect,0.400000X-0.400000X-0.600000X0.400000X-0.600000X0.400000X0.600000X-0.400000X0.600000X0*%
%ADD34O,1.600000X2.000000*%
%ADD35R,1.350000X1.350000*%
%ADD36C,1.350000*%
%ADD37RoundRect,0.400000X-0.400000X0.600000X-0.400000X-0.600000X0.400000X-0.600000X0.400000X0.600000X0*%
%ADD38R,2.000000X3.200000*%
%ADD39C,3.400000*%
%ADD40C,1.600000*%
%ADD41O,1.600000X1.600000*%
%ADD42RoundRect,0.250000X0.550000X-0.550000X0.550000X0.550000X-0.550000X0.550000X-0.550000X-0.550000X0*%
%ADD43RoundRect,0.500000X0.350000X-0.350000X0.350000X0.350000X-0.350000X0.350000X-0.350000X-0.350000X0*%
%ADD44RoundRect,0.100000X0.021213X0.162635X-0.162635X-0.021213X-0.021213X-0.162635X0.162635X0.021213X0*%
%ADD45RoundRect,0.150000X-0.587500X-0.150000X0.587500X-0.150000X0.587500X0.150000X-0.587500X0.150000X0*%
%ADD46RoundRect,0.100000X0.130000X0.100000X-0.130000X0.100000X-0.130000X-0.100000X0.130000X-0.100000X0*%
%ADD47RoundRect,0.140000X-0.140000X-0.170000X0.140000X-0.170000X0.140000X0.170000X-0.140000X0.170000X0*%
%ADD48RoundRect,0.250000X-1.500000X-0.550000X1.500000X-0.550000X1.500000X0.550000X-1.500000X0.550000X0*%
%ADD49RoundRect,0.200000X-0.200000X-0.275000X0.200000X-0.275000X0.200000X0.275000X-0.200000X0.275000X0*%
%ADD50O,3.500000X3.500000*%
%ADD51C,3.600000*%
%ADD52RoundRect,0.250000X-0.450000X0.350000X-0.450000X-0.350000X0.450000X-0.350000X0.450000X0.350000X0*%
%ADD53C,0.900000*%
%ADD54R,2.000000X0.700000*%
%ADD55R,0.800000X2.000000*%
%ADD56RoundRect,0.225000X0.225000X0.250000X-0.225000X0.250000X-0.225000X-0.250000X0.225000X-0.250000X0*%
%ADD57RoundRect,0.140000X-0.219203X-0.021213X-0.021213X-0.219203X0.219203X0.021213X0.021213X0.219203X0*%
%ADD58RoundRect,0.140000X-0.170000X0.140000X-0.170000X-0.140000X0.170000X-0.140000X0.170000X0.140000X0*%
%ADD59RoundRect,0.135000X0.135000X0.185000X-0.135000X0.185000X-0.135000X-0.185000X0.135000X-0.185000X0*%
%ADD60RoundRect,0.100000X-0.100000X0.130000X-0.100000X-0.130000X0.100000X-0.130000X0.100000X0.130000X0*%
%ADD61C,1.000000*%
%ADD62R,0.700000X1.600000*%
%ADD63R,1.200000X2.200000*%
%ADD64R,1.200000X1.500000*%
%ADD65R,1.600000X1.500000*%
%ADD66RoundRect,0.250000X-0.450000X-0.425000X0.450000X-0.425000X0.450000X0.425000X-0.450000X0.425000X0*%
%ADD67RoundRect,0.140000X-0.021213X0.219203X-0.219203X0.021213X0.021213X-0.219203X0.219203X-0.021213X0*%
%ADD68RoundRect,0.100000X-0.130000X-0.100000X0.130000X-0.100000X0.130000X0.100000X-0.130000X0.100000X0*%
%ADD69RoundRect,0.335000X-1.340000X-1.365000X1.340000X-1.365000X1.340000X1.365000X-1.340000X1.365000X0*%
%ADD70RoundRect,0.220000X-0.780000X-0.330000X0.780000X-0.330000X0.780000X0.330000X-0.780000X0.330000X0*%
%ADD71RoundRect,0.082000X-0.328000X-0.618000X0.328000X-0.618000X0.328000X0.618000X-0.328000X0.618000X0*%
%ADD72RoundRect,0.225000X-0.250000X0.225000X-0.250000X-0.225000X0.250000X-0.225000X0.250000X0.225000X0*%
%ADD73RoundRect,0.225000X0.250000X-0.225000X0.250000X0.225000X-0.250000X0.225000X-0.250000X-0.225000X0*%
%ADD74FreePoly0,180.000000*%
%ADD75FreePoly1,180.000000*%
%ADD76RoundRect,0.250000X-0.250000X-0.475000X0.250000X-0.475000X0.250000X0.475000X-0.250000X0.475000X0*%
%ADD77C,2.000000*%
%ADD78RoundRect,0.112500X-0.187500X-0.112500X0.187500X-0.112500X0.187500X0.112500X-0.187500X0.112500X0*%
%ADD79RoundRect,0.100000X0.100000X-0.130000X0.100000X0.130000X-0.100000X0.130000X-0.100000X-0.130000X0*%
%ADD80RoundRect,0.130000X0.520000X0.670000X-0.520000X0.670000X-0.520000X-0.670000X0.520000X-0.670000X0*%
%ADD81RoundRect,0.220000X0.330000X-0.780000X0.330000X0.780000X-0.330000X0.780000X-0.330000X-0.780000X0*%
%ADD82RoundRect,0.250000X0.750000X-1.250000X0.750000X1.250000X-0.750000X1.250000X-0.750000X-1.250000X0*%
%ADD83RoundRect,0.150000X0.825000X0.150000X-0.825000X0.150000X-0.825000X-0.150000X0.825000X-0.150000X0*%
%ADD84R,2.300000X2.300000*%
%ADD85RoundRect,0.150000X0.512500X0.150000X-0.512500X0.150000X-0.512500X-0.150000X0.512500X-0.150000X0*%
%ADD86RoundRect,0.112500X-0.112500X0.187500X-0.112500X-0.187500X0.112500X-0.187500X0.112500X0.187500X0*%
%ADD87O,1.350000X1.350000*%
%ADD88C,0.650000*%
%ADD89R,1.450000X0.600000*%
%ADD90R,1.450000X0.300000*%
%ADD91O,2.500000X2.000000*%
%ADD92O,3.500000X2.000000*%
%ADD93RoundRect,0.062500X0.282843X-0.194454X-0.194454X0.282843X-0.282843X0.194454X0.194454X-0.282843X0*%
%ADD94RoundRect,0.062500X0.282843X0.194454X0.194454X0.282843X-0.282843X-0.194454X-0.194454X-0.282843X0*%
%ADD95RotRect,3.600000X3.600000X135.000000*%
%ADD96RoundRect,0.218750X0.026517X-0.335876X0.335876X-0.026517X-0.026517X0.335876X-0.335876X0.026517X0*%
%ADD97RoundRect,0.250000X0.450000X0.425000X-0.450000X0.425000X-0.450000X-0.425000X0.450000X-0.425000X0*%
%ADD98RoundRect,0.140000X0.140000X0.170000X-0.140000X0.170000X-0.140000X-0.170000X0.140000X-0.170000X0*%
%ADD99RoundRect,0.140000X0.170000X-0.140000X0.170000X0.140000X-0.170000X0.140000X-0.170000X-0.140000X0*%
%ADD100RoundRect,0.200000X-0.200000X0.750000X-0.200000X-0.750000X0.200000X-0.750000X0.200000X0.750000X0*%
%ADD101RoundRect,0.250000X-0.425000X0.450000X-0.425000X-0.450000X0.425000X-0.450000X0.425000X0.450000X0*%
%ADD102RoundRect,0.250000X0.625000X-0.312500X0.625000X0.312500X-0.625000X0.312500X-0.625000X-0.312500X0*%
%ADD103RoundRect,0.162500X0.162500X-0.617500X0.162500X0.617500X-0.162500X0.617500X-0.162500X-0.617500X0*%
%ADD104RoundRect,0.135000X-0.135000X-0.185000X0.135000X-0.185000X0.135000X0.185000X-0.135000X0.185000X0*%
%ADD105R,0.800000X0.500000*%
%ADD106R,2.200000X0.600000*%
%ADD107RoundRect,0.150000X0.625000X-0.150000X0.625000X0.150000X-0.625000X0.150000X-0.625000X-0.150000X0*%
%ADD108RoundRect,0.250000X0.650000X-0.350000X0.650000X0.350000X-0.650000X0.350000X-0.650000X-0.350000X0*%
%ADD109RoundRect,0.087500X-0.225000X-0.087500X0.225000X-0.087500X0.225000X0.087500X-0.225000X0.087500X0*%
%ADD110RoundRect,0.087500X-0.087500X-0.225000X0.087500X-0.225000X0.087500X0.225000X-0.087500X0.225000X0*%
%ADD111RoundRect,0.185000X-1.315000X-0.185000X1.315000X-0.185000X1.315000X0.185000X-1.315000X0.185000X0*%
%ADD112C,0.700000*%
%ADD113R,0.900000X1.400000*%
%ADD114R,1.400000X1.200000*%
%ADD115R,1.500000X0.900000*%
%ADD116R,0.900000X1.500000*%
%ADD117R,0.900000X0.900000*%
%ADD118RoundRect,0.135000X-0.185000X0.135000X-0.185000X-0.135000X0.185000X-0.135000X0.185000X0.135000X0*%
%ADD119RoundRect,0.335000X1.340000X1.365000X-1.340000X1.365000X-1.340000X-1.365000X1.340000X-1.365000X0*%
%ADD120R,2.000000X1.905000*%
%ADD121O,2.000000X1.905000*%
%ADD122RoundRect,0.250000X0.750000X-0.600000X0.750000X0.600000X-0.750000X0.600000X-0.750000X-0.600000X0*%
%ADD123O,2.000000X1.700000*%
%ADD124RoundRect,0.250000X-0.350000X-0.450000X0.350000X-0.450000X0.350000X0.450000X-0.350000X0.450000X0*%
%ADD125RoundRect,0.075000X0.700000X0.075000X-0.700000X0.075000X-0.700000X-0.075000X0.700000X-0.075000X0*%
%ADD126RoundRect,0.075000X0.075000X0.700000X-0.075000X0.700000X-0.075000X-0.700000X0.075000X-0.700000X0*%
%ADD127RoundRect,0.150000X-0.150000X0.825000X-0.150000X-0.825000X0.150000X-0.825000X0.150000X0.825000X0*%
%ADD128C,3.200000*%
%ADD129RoundRect,0.500000X-1.250000X-1.250000X1.250000X-1.250000X1.250000X1.250000X-1.250000X1.250000X0*%
%ADD130C,3.500000*%
%ADD131RoundRect,0.150000X0.150000X-0.587500X0.150000X0.587500X-0.150000X0.587500X-0.150000X-0.587500X0*%
%ADD132RoundRect,0.375000X-0.625000X-0.375000X0.625000X-0.375000X0.625000X0.375000X-0.625000X0.375000X0*%
%ADD133RoundRect,0.500000X-0.500000X-1.400000X0.500000X-1.400000X0.500000X1.400000X-0.500000X1.400000X0*%
%ADD134RoundRect,0.200000X0.200000X-0.750000X0.200000X0.750000X-0.200000X0.750000X-0.200000X-0.750000X0*%
%ADD135RoundRect,0.100000X0.162635X-0.021213X-0.021213X0.162635X-0.162635X0.021213X0.021213X-0.162635X0*%
%ADD136R,0.350000X0.500000*%
%ADD137R,0.800000X1.800000*%
%ADD138RoundRect,0.100000X-0.637500X-0.100000X0.637500X-0.100000X0.637500X0.100000X-0.637500X0.100000X0*%
%ADD139R,2.850000X5.400000*%
%ADD140R,1.800000X1.100000*%
%ADD141RoundRect,0.275000X-0.625000X0.275000X-0.625000X-0.275000X0.625000X-0.275000X0.625000X0.275000X0*%
%ADD142RoundRect,0.250000X0.625000X-0.400000X0.625000X0.400000X-0.625000X0.400000X-0.625000X-0.400000X0*%
%ADD143RoundRect,0.250000X0.450000X-0.325000X0.450000X0.325000X-0.450000X0.325000X-0.450000X-0.325000X0*%
%ADD144R,1.500000X1.000000*%
%ADD145RoundRect,0.185000X-0.185000X1.315000X-0.185000X-1.315000X0.185000X-1.315000X0.185000X1.315000X0*%
%ADD146RoundRect,0.135000X0.185000X-0.135000X0.185000X0.135000X-0.185000X0.135000X-0.185000X-0.135000X0*%
%ADD147RoundRect,0.250000X-0.625000X0.400000X-0.625000X-0.400000X0.625000X-0.400000X0.625000X0.400000X0*%
%ADD148RoundRect,0.218750X0.218750X0.256250X-0.218750X0.256250X-0.218750X-0.256250X0.218750X-0.256250X0*%
G04 APERTURE END LIST*
D10*
X158756955Y-117009500D02*
X158585527Y-117080928D01*
X158585527Y-117080928D02*
X158299812Y-117080928D01*
X158299812Y-117080928D02*
X158185527Y-117009500D01*
X158185527Y-117009500D02*
X158128384Y-116938071D01*
X158128384Y-116938071D02*
X158071241Y-116795214D01*
X158071241Y-116795214D02*
X158071241Y-116652357D01*
X158071241Y-116652357D02*
X158128384Y-116509500D01*
X158128384Y-116509500D02*
X158185527Y-116438071D01*
X158185527Y-116438071D02*
X158299812Y-116366642D01*
X158299812Y-116366642D02*
X158528384Y-116295214D01*
X158528384Y-116295214D02*
X158642669Y-116223785D01*
X158642669Y-116223785D02*
X158699812Y-116152357D01*
X158699812Y-116152357D02*
X158756955Y-116009500D01*
X158756955Y-116009500D02*
X158756955Y-115866642D01*
X158756955Y-115866642D02*
X158699812Y-115723785D01*
X158699812Y-115723785D02*
X158642669Y-115652357D01*
X158642669Y-115652357D02*
X158528384Y-115580928D01*
X158528384Y-115580928D02*
X158242669Y-115580928D01*
X158242669Y-115580928D02*
X158071241Y-115652357D01*
X157556955Y-116080928D02*
X157556955Y-117580928D01*
X157556955Y-116152357D02*
X157442670Y-116080928D01*
X157442670Y-116080928D02*
X157214098Y-116080928D01*
X157214098Y-116080928D02*
X157099812Y-116152357D01*
X157099812Y-116152357D02*
X157042670Y-116223785D01*
X157042670Y-116223785D02*
X156985527Y-116366642D01*
X156985527Y-116366642D02*
X156985527Y-116795214D01*
X156985527Y-116795214D02*
X157042670Y-116938071D01*
X157042670Y-116938071D02*
X157099812Y-117009500D01*
X157099812Y-117009500D02*
X157214098Y-117080928D01*
X157214098Y-117080928D02*
X157442670Y-117080928D01*
X157442670Y-117080928D02*
X157556955Y-117009500D01*
X156014098Y-117009500D02*
X156128384Y-117080928D01*
X156128384Y-117080928D02*
X156356956Y-117080928D01*
X156356956Y-117080928D02*
X156471241Y-117009500D01*
X156471241Y-117009500D02*
X156528384Y-116866642D01*
X156528384Y-116866642D02*
X156528384Y-116295214D01*
X156528384Y-116295214D02*
X156471241Y-116152357D01*
X156471241Y-116152357D02*
X156356956Y-116080928D01*
X156356956Y-116080928D02*
X156128384Y-116080928D01*
X156128384Y-116080928D02*
X156014098Y-116152357D01*
X156014098Y-116152357D02*
X155956956Y-116295214D01*
X155956956Y-116295214D02*
X155956956Y-116438071D01*
X155956956Y-116438071D02*
X156528384Y-116580928D01*
X154928385Y-117080928D02*
X154928385Y-116295214D01*
X154928385Y-116295214D02*
X154985527Y-116152357D01*
X154985527Y-116152357D02*
X155099813Y-116080928D01*
X155099813Y-116080928D02*
X155328385Y-116080928D01*
X155328385Y-116080928D02*
X155442670Y-116152357D01*
X154928385Y-117009500D02*
X155042670Y-117080928D01*
X155042670Y-117080928D02*
X155328385Y-117080928D01*
X155328385Y-117080928D02*
X155442670Y-117009500D01*
X155442670Y-117009500D02*
X155499813Y-116866642D01*
X155499813Y-116866642D02*
X155499813Y-116723785D01*
X155499813Y-116723785D02*
X155442670Y-116580928D01*
X155442670Y-116580928D02*
X155328385Y-116509500D01*
X155328385Y-116509500D02*
X155042670Y-116509500D01*
X155042670Y-116509500D02*
X154928385Y-116438071D01*
X154356956Y-117080928D02*
X154356956Y-115580928D01*
X154242671Y-116509500D02*
X153899813Y-117080928D01*
X153899813Y-116080928D02*
X154356956Y-116652357D01*
X152928384Y-117009500D02*
X153042670Y-117080928D01*
X153042670Y-117080928D02*
X153271242Y-117080928D01*
X153271242Y-117080928D02*
X153385527Y-117009500D01*
X153385527Y-117009500D02*
X153442670Y-116866642D01*
X153442670Y-116866642D02*
X153442670Y-116295214D01*
X153442670Y-116295214D02*
X153385527Y-116152357D01*
X153385527Y-116152357D02*
X153271242Y-116080928D01*
X153271242Y-116080928D02*
X153042670Y-116080928D01*
X153042670Y-116080928D02*
X152928384Y-116152357D01*
X152928384Y-116152357D02*
X152871242Y-116295214D01*
X152871242Y-116295214D02*
X152871242Y-116438071D01*
X152871242Y-116438071D02*
X153442670Y-116580928D01*
X152356956Y-117080928D02*
X152356956Y-116080928D01*
X152356956Y-116366642D02*
X152299813Y-116223785D01*
X152299813Y-116223785D02*
X152242671Y-116152357D01*
X152242671Y-116152357D02*
X152128385Y-116080928D01*
X152128385Y-116080928D02*
X152014099Y-116080928D01*
D11*
X198854819Y-138961904D02*
X198854819Y-139152380D01*
X198854819Y-139152380D02*
X198902438Y-139247618D01*
X198902438Y-139247618D02*
X198997676Y-139342856D01*
X198997676Y-139342856D02*
X199188152Y-139390475D01*
X199188152Y-139390475D02*
X199521485Y-139390475D01*
X199521485Y-139390475D02*
X199711961Y-139342856D01*
X199711961Y-139342856D02*
X199807200Y-139247618D01*
X199807200Y-139247618D02*
X199854819Y-139152380D01*
X199854819Y-139152380D02*
X199854819Y-138961904D01*
X199854819Y-138961904D02*
X199807200Y-138866666D01*
X199807200Y-138866666D02*
X199711961Y-138771428D01*
X199711961Y-138771428D02*
X199521485Y-138723809D01*
X199521485Y-138723809D02*
X199188152Y-138723809D01*
X199188152Y-138723809D02*
X198997676Y-138771428D01*
X198997676Y-138771428D02*
X198902438Y-138866666D01*
X198902438Y-138866666D02*
X198854819Y-138961904D01*
X199854819Y-139819047D02*
X198854819Y-139819047D01*
X198854819Y-139819047D02*
X199854819Y-140390475D01*
X199854819Y-140390475D02*
X198854819Y-140390475D01*
X199759580Y-142199999D02*
X199807200Y-142152380D01*
X199807200Y-142152380D02*
X199854819Y-142009523D01*
X199854819Y-142009523D02*
X199854819Y-141914285D01*
X199854819Y-141914285D02*
X199807200Y-141771428D01*
X199807200Y-141771428D02*
X199711961Y-141676190D01*
X199711961Y-141676190D02*
X199616723Y-141628571D01*
X199616723Y-141628571D02*
X199426247Y-141580952D01*
X199426247Y-141580952D02*
X199283390Y-141580952D01*
X199283390Y-141580952D02*
X199092914Y-141628571D01*
X199092914Y-141628571D02*
X198997676Y-141676190D01*
X198997676Y-141676190D02*
X198902438Y-141771428D01*
X198902438Y-141771428D02*
X198854819Y-141914285D01*
X198854819Y-141914285D02*
X198854819Y-142009523D01*
X198854819Y-142009523D02*
X198902438Y-142152380D01*
X198902438Y-142152380D02*
X198950057Y-142199999D01*
X199569104Y-142580952D02*
X199569104Y-143057142D01*
X199854819Y-142485714D02*
X198854819Y-142819047D01*
X198854819Y-142819047D02*
X199854819Y-143152380D01*
X199854819Y-143485714D02*
X198854819Y-143485714D01*
X198854819Y-143485714D02*
X199854819Y-144057142D01*
X199854819Y-144057142D02*
X198854819Y-144057142D01*
X198854819Y-145152381D02*
X198854819Y-145723809D01*
X199854819Y-145438095D02*
X198854819Y-145438095D01*
X199331009Y-146057143D02*
X199331009Y-146390476D01*
X199854819Y-146533333D02*
X199854819Y-146057143D01*
X199854819Y-146057143D02*
X198854819Y-146057143D01*
X198854819Y-146057143D02*
X198854819Y-146533333D01*
X199854819Y-147533333D02*
X199378628Y-147200000D01*
X199854819Y-146961905D02*
X198854819Y-146961905D01*
X198854819Y-146961905D02*
X198854819Y-147342857D01*
X198854819Y-147342857D02*
X198902438Y-147438095D01*
X198902438Y-147438095D02*
X198950057Y-147485714D01*
X198950057Y-147485714D02*
X199045295Y-147533333D01*
X199045295Y-147533333D02*
X199188152Y-147533333D01*
X199188152Y-147533333D02*
X199283390Y-147485714D01*
X199283390Y-147485714D02*
X199331009Y-147438095D01*
X199331009Y-147438095D02*
X199378628Y-147342857D01*
X199378628Y-147342857D02*
X199378628Y-146961905D01*
X199854819Y-147961905D02*
X198854819Y-147961905D01*
X198854819Y-147961905D02*
X199569104Y-148295238D01*
X199569104Y-148295238D02*
X198854819Y-148628571D01*
X198854819Y-148628571D02*
X199854819Y-148628571D01*
X167014285Y-123602438D02*
X167109523Y-123554819D01*
X167109523Y-123554819D02*
X167252380Y-123554819D01*
X167252380Y-123554819D02*
X167395237Y-123602438D01*
X167395237Y-123602438D02*
X167490475Y-123697676D01*
X167490475Y-123697676D02*
X167538094Y-123792914D01*
X167538094Y-123792914D02*
X167585713Y-123983390D01*
X167585713Y-123983390D02*
X167585713Y-124126247D01*
X167585713Y-124126247D02*
X167538094Y-124316723D01*
X167538094Y-124316723D02*
X167490475Y-124411961D01*
X167490475Y-124411961D02*
X167395237Y-124507200D01*
X167395237Y-124507200D02*
X167252380Y-124554819D01*
X167252380Y-124554819D02*
X167157142Y-124554819D01*
X167157142Y-124554819D02*
X167014285Y-124507200D01*
X167014285Y-124507200D02*
X166966666Y-124459580D01*
X166966666Y-124459580D02*
X166966666Y-124126247D01*
X166966666Y-124126247D02*
X167157142Y-124126247D01*
X166633332Y-123554819D02*
X166014285Y-123554819D01*
X166014285Y-123554819D02*
X166347618Y-123935771D01*
X166347618Y-123935771D02*
X166204761Y-123935771D01*
X166204761Y-123935771D02*
X166109523Y-123983390D01*
X166109523Y-123983390D02*
X166061904Y-124031009D01*
X166061904Y-124031009D02*
X166014285Y-124126247D01*
X166014285Y-124126247D02*
X166014285Y-124364342D01*
X166014285Y-124364342D02*
X166061904Y-124459580D01*
X166061904Y-124459580D02*
X166109523Y-124507200D01*
X166109523Y-124507200D02*
X166204761Y-124554819D01*
X166204761Y-124554819D02*
X166490475Y-124554819D01*
X166490475Y-124554819D02*
X166585713Y-124507200D01*
X166585713Y-124507200D02*
X166633332Y-124459580D01*
X198754819Y-129138095D02*
X198754819Y-129328571D01*
X198754819Y-129328571D02*
X198802438Y-129423809D01*
X198802438Y-129423809D02*
X198897676Y-129519047D01*
X198897676Y-129519047D02*
X199088152Y-129566666D01*
X199088152Y-129566666D02*
X199421485Y-129566666D01*
X199421485Y-129566666D02*
X199611961Y-129519047D01*
X199611961Y-129519047D02*
X199707200Y-129423809D01*
X199707200Y-129423809D02*
X199754819Y-129328571D01*
X199754819Y-129328571D02*
X199754819Y-129138095D01*
X199754819Y-129138095D02*
X199707200Y-129042857D01*
X199707200Y-129042857D02*
X199611961Y-128947619D01*
X199611961Y-128947619D02*
X199421485Y-128900000D01*
X199421485Y-128900000D02*
X199088152Y-128900000D01*
X199088152Y-128900000D02*
X198897676Y-128947619D01*
X198897676Y-128947619D02*
X198802438Y-129042857D01*
X198802438Y-129042857D02*
X198754819Y-129138095D01*
X199754819Y-129995238D02*
X198754819Y-129995238D01*
X198754819Y-129995238D02*
X199754819Y-130566666D01*
X199754819Y-130566666D02*
X198754819Y-130566666D01*
X199754819Y-132376190D02*
X199278628Y-132042857D01*
X199754819Y-131804762D02*
X198754819Y-131804762D01*
X198754819Y-131804762D02*
X198754819Y-132185714D01*
X198754819Y-132185714D02*
X198802438Y-132280952D01*
X198802438Y-132280952D02*
X198850057Y-132328571D01*
X198850057Y-132328571D02*
X198945295Y-132376190D01*
X198945295Y-132376190D02*
X199088152Y-132376190D01*
X199088152Y-132376190D02*
X199183390Y-132328571D01*
X199183390Y-132328571D02*
X199231009Y-132280952D01*
X199231009Y-132280952D02*
X199278628Y-132185714D01*
X199278628Y-132185714D02*
X199278628Y-131804762D01*
X199707200Y-132757143D02*
X199754819Y-132900000D01*
X199754819Y-132900000D02*
X199754819Y-133138095D01*
X199754819Y-133138095D02*
X199707200Y-133233333D01*
X199707200Y-133233333D02*
X199659580Y-133280952D01*
X199659580Y-133280952D02*
X199564342Y-133328571D01*
X199564342Y-133328571D02*
X199469104Y-133328571D01*
X199469104Y-133328571D02*
X199373866Y-133280952D01*
X199373866Y-133280952D02*
X199326247Y-133233333D01*
X199326247Y-133233333D02*
X199278628Y-133138095D01*
X199278628Y-133138095D02*
X199231009Y-132947619D01*
X199231009Y-132947619D02*
X199183390Y-132852381D01*
X199183390Y-132852381D02*
X199135771Y-132804762D01*
X199135771Y-132804762D02*
X199040533Y-132757143D01*
X199040533Y-132757143D02*
X198945295Y-132757143D01*
X198945295Y-132757143D02*
X198850057Y-132804762D01*
X198850057Y-132804762D02*
X198802438Y-132852381D01*
X198802438Y-132852381D02*
X198754819Y-132947619D01*
X198754819Y-132947619D02*
X198754819Y-133185714D01*
X198754819Y-133185714D02*
X198802438Y-133328571D01*
X198754819Y-134376191D02*
X198754819Y-134947619D01*
X199754819Y-134661905D02*
X198754819Y-134661905D01*
X199231009Y-135280953D02*
X199231009Y-135614286D01*
X199754819Y-135757143D02*
X199754819Y-135280953D01*
X199754819Y-135280953D02*
X198754819Y-135280953D01*
X198754819Y-135280953D02*
X198754819Y-135757143D01*
X199754819Y-136757143D02*
X199278628Y-136423810D01*
X199754819Y-136185715D02*
X198754819Y-136185715D01*
X198754819Y-136185715D02*
X198754819Y-136566667D01*
X198754819Y-136566667D02*
X198802438Y-136661905D01*
X198802438Y-136661905D02*
X198850057Y-136709524D01*
X198850057Y-136709524D02*
X198945295Y-136757143D01*
X198945295Y-136757143D02*
X199088152Y-136757143D01*
X199088152Y-136757143D02*
X199183390Y-136709524D01*
X199183390Y-136709524D02*
X199231009Y-136661905D01*
X199231009Y-136661905D02*
X199278628Y-136566667D01*
X199278628Y-136566667D02*
X199278628Y-136185715D01*
X199754819Y-137185715D02*
X198754819Y-137185715D01*
X198754819Y-137185715D02*
X199469104Y-137519048D01*
X199469104Y-137519048D02*
X198754819Y-137852381D01*
X198754819Y-137852381D02*
X199754819Y-137852381D01*
X158066666Y-89204819D02*
X158399999Y-88728628D01*
X158638094Y-89204819D02*
X158638094Y-88204819D01*
X158638094Y-88204819D02*
X158257142Y-88204819D01*
X158257142Y-88204819D02*
X158161904Y-88252438D01*
X158161904Y-88252438D02*
X158114285Y-88300057D01*
X158114285Y-88300057D02*
X158066666Y-88395295D01*
X158066666Y-88395295D02*
X158066666Y-88538152D01*
X158066666Y-88538152D02*
X158114285Y-88633390D01*
X158114285Y-88633390D02*
X158161904Y-88681009D01*
X158161904Y-88681009D02*
X158257142Y-88728628D01*
X158257142Y-88728628D02*
X158638094Y-88728628D01*
X157114285Y-88252438D02*
X157209523Y-88204819D01*
X157209523Y-88204819D02*
X157352380Y-88204819D01*
X157352380Y-88204819D02*
X157495237Y-88252438D01*
X157495237Y-88252438D02*
X157590475Y-88347676D01*
X157590475Y-88347676D02*
X157638094Y-88442914D01*
X157638094Y-88442914D02*
X157685713Y-88633390D01*
X157685713Y-88633390D02*
X157685713Y-88776247D01*
X157685713Y-88776247D02*
X157638094Y-88966723D01*
X157638094Y-88966723D02*
X157590475Y-89061961D01*
X157590475Y-89061961D02*
X157495237Y-89157200D01*
X157495237Y-89157200D02*
X157352380Y-89204819D01*
X157352380Y-89204819D02*
X157257142Y-89204819D01*
X157257142Y-89204819D02*
X157114285Y-89157200D01*
X157114285Y-89157200D02*
X157066666Y-89109580D01*
X157066666Y-89109580D02*
X157066666Y-88776247D01*
X157066666Y-88776247D02*
X157257142Y-88776247D01*
X156304761Y-88681009D02*
X156161904Y-88728628D01*
X156161904Y-88728628D02*
X156114285Y-88776247D01*
X156114285Y-88776247D02*
X156066666Y-88871485D01*
X156066666Y-88871485D02*
X156066666Y-89014342D01*
X156066666Y-89014342D02*
X156114285Y-89109580D01*
X156114285Y-89109580D02*
X156161904Y-89157200D01*
X156161904Y-89157200D02*
X156257142Y-89204819D01*
X156257142Y-89204819D02*
X156638094Y-89204819D01*
X156638094Y-89204819D02*
X156638094Y-88204819D01*
X156638094Y-88204819D02*
X156304761Y-88204819D01*
X156304761Y-88204819D02*
X156209523Y-88252438D01*
X156209523Y-88252438D02*
X156161904Y-88300057D01*
X156161904Y-88300057D02*
X156114285Y-88395295D01*
X156114285Y-88395295D02*
X156114285Y-88490533D01*
X156114285Y-88490533D02*
X156161904Y-88585771D01*
X156161904Y-88585771D02*
X156209523Y-88633390D01*
X156209523Y-88633390D02*
X156304761Y-88681009D01*
X156304761Y-88681009D02*
X156638094Y-88681009D01*
X155733332Y-88204819D02*
X155114285Y-88204819D01*
X155114285Y-88204819D02*
X155447618Y-88585771D01*
X155447618Y-88585771D02*
X155304761Y-88585771D01*
X155304761Y-88585771D02*
X155209523Y-88633390D01*
X155209523Y-88633390D02*
X155161904Y-88681009D01*
X155161904Y-88681009D02*
X155114285Y-88776247D01*
X155114285Y-88776247D02*
X155114285Y-89014342D01*
X155114285Y-89014342D02*
X155161904Y-89109580D01*
X155161904Y-89109580D02*
X155209523Y-89157200D01*
X155209523Y-89157200D02*
X155304761Y-89204819D01*
X155304761Y-89204819D02*
X155590475Y-89204819D01*
X155590475Y-89204819D02*
X155685713Y-89157200D01*
X155685713Y-89157200D02*
X155733332Y-89109580D01*
X137238094Y-122354819D02*
X137238094Y-121354819D01*
X136761904Y-122354819D02*
X136761904Y-121354819D01*
X136761904Y-121354819D02*
X136380952Y-121354819D01*
X136380952Y-121354819D02*
X136285714Y-121402438D01*
X136285714Y-121402438D02*
X136238095Y-121450057D01*
X136238095Y-121450057D02*
X136190476Y-121545295D01*
X136190476Y-121545295D02*
X136190476Y-121688152D01*
X136190476Y-121688152D02*
X136238095Y-121783390D01*
X136238095Y-121783390D02*
X136285714Y-121831009D01*
X136285714Y-121831009D02*
X136380952Y-121878628D01*
X136380952Y-121878628D02*
X136761904Y-121878628D01*
X135809523Y-121450057D02*
X135761904Y-121402438D01*
X135761904Y-121402438D02*
X135666666Y-121354819D01*
X135666666Y-121354819D02*
X135428571Y-121354819D01*
X135428571Y-121354819D02*
X135333333Y-121402438D01*
X135333333Y-121402438D02*
X135285714Y-121450057D01*
X135285714Y-121450057D02*
X135238095Y-121545295D01*
X135238095Y-121545295D02*
X135238095Y-121640533D01*
X135238095Y-121640533D02*
X135285714Y-121783390D01*
X135285714Y-121783390D02*
X135857142Y-122354819D01*
X135857142Y-122354819D02*
X135238095Y-122354819D01*
X134809523Y-122354819D02*
X134809523Y-121354819D01*
X133761905Y-122354819D02*
X134095238Y-121878628D01*
X134333333Y-122354819D02*
X134333333Y-121354819D01*
X134333333Y-121354819D02*
X133952381Y-121354819D01*
X133952381Y-121354819D02*
X133857143Y-121402438D01*
X133857143Y-121402438D02*
X133809524Y-121450057D01*
X133809524Y-121450057D02*
X133761905Y-121545295D01*
X133761905Y-121545295D02*
X133761905Y-121688152D01*
X133761905Y-121688152D02*
X133809524Y-121783390D01*
X133809524Y-121783390D02*
X133857143Y-121831009D01*
X133857143Y-121831009D02*
X133952381Y-121878628D01*
X133952381Y-121878628D02*
X134333333Y-121878628D01*
X132666667Y-122450057D02*
X132761905Y-122402438D01*
X132761905Y-122402438D02*
X132857143Y-122307200D01*
X132857143Y-122307200D02*
X133000000Y-122164342D01*
X133000000Y-122164342D02*
X133095238Y-122116723D01*
X133095238Y-122116723D02*
X133190476Y-122116723D01*
X133142857Y-122354819D02*
X133238095Y-122307200D01*
X133238095Y-122307200D02*
X133333333Y-122211961D01*
X133333333Y-122211961D02*
X133380952Y-122021485D01*
X133380952Y-122021485D02*
X133380952Y-121688152D01*
X133380952Y-121688152D02*
X133333333Y-121497676D01*
X133333333Y-121497676D02*
X133238095Y-121402438D01*
X133238095Y-121402438D02*
X133142857Y-121354819D01*
X133142857Y-121354819D02*
X132952381Y-121354819D01*
X132952381Y-121354819D02*
X132857143Y-121402438D01*
X132857143Y-121402438D02*
X132761905Y-121497676D01*
X132761905Y-121497676D02*
X132714286Y-121688152D01*
X132714286Y-121688152D02*
X132714286Y-122021485D01*
X132714286Y-122021485D02*
X132761905Y-122211961D01*
X132761905Y-122211961D02*
X132857143Y-122307200D01*
X132857143Y-122307200D02*
X132952381Y-122354819D01*
X132952381Y-122354819D02*
X133142857Y-122354819D01*
X153460867Y-89204819D02*
X153794200Y-88728628D01*
X154032295Y-89204819D02*
X154032295Y-88204819D01*
X154032295Y-88204819D02*
X153651343Y-88204819D01*
X153651343Y-88204819D02*
X153556105Y-88252438D01*
X153556105Y-88252438D02*
X153508486Y-88300057D01*
X153508486Y-88300057D02*
X153460867Y-88395295D01*
X153460867Y-88395295D02*
X153460867Y-88538152D01*
X153460867Y-88538152D02*
X153508486Y-88633390D01*
X153508486Y-88633390D02*
X153556105Y-88681009D01*
X153556105Y-88681009D02*
X153651343Y-88728628D01*
X153651343Y-88728628D02*
X154032295Y-88728628D01*
X152508486Y-88252438D02*
X152603724Y-88204819D01*
X152603724Y-88204819D02*
X152746581Y-88204819D01*
X152746581Y-88204819D02*
X152889438Y-88252438D01*
X152889438Y-88252438D02*
X152984676Y-88347676D01*
X152984676Y-88347676D02*
X153032295Y-88442914D01*
X153032295Y-88442914D02*
X153079914Y-88633390D01*
X153079914Y-88633390D02*
X153079914Y-88776247D01*
X153079914Y-88776247D02*
X153032295Y-88966723D01*
X153032295Y-88966723D02*
X152984676Y-89061961D01*
X152984676Y-89061961D02*
X152889438Y-89157200D01*
X152889438Y-89157200D02*
X152746581Y-89204819D01*
X152746581Y-89204819D02*
X152651343Y-89204819D01*
X152651343Y-89204819D02*
X152508486Y-89157200D01*
X152508486Y-89157200D02*
X152460867Y-89109580D01*
X152460867Y-89109580D02*
X152460867Y-88776247D01*
X152460867Y-88776247D02*
X152651343Y-88776247D01*
X151698962Y-88681009D02*
X151556105Y-88728628D01*
X151556105Y-88728628D02*
X151508486Y-88776247D01*
X151508486Y-88776247D02*
X151460867Y-88871485D01*
X151460867Y-88871485D02*
X151460867Y-89014342D01*
X151460867Y-89014342D02*
X151508486Y-89109580D01*
X151508486Y-89109580D02*
X151556105Y-89157200D01*
X151556105Y-89157200D02*
X151651343Y-89204819D01*
X151651343Y-89204819D02*
X152032295Y-89204819D01*
X152032295Y-89204819D02*
X152032295Y-88204819D01*
X152032295Y-88204819D02*
X151698962Y-88204819D01*
X151698962Y-88204819D02*
X151603724Y-88252438D01*
X151603724Y-88252438D02*
X151556105Y-88300057D01*
X151556105Y-88300057D02*
X151508486Y-88395295D01*
X151508486Y-88395295D02*
X151508486Y-88490533D01*
X151508486Y-88490533D02*
X151556105Y-88585771D01*
X151556105Y-88585771D02*
X151603724Y-88633390D01*
X151603724Y-88633390D02*
X151698962Y-88681009D01*
X151698962Y-88681009D02*
X152032295Y-88681009D01*
X151079914Y-88300057D02*
X151032295Y-88252438D01*
X151032295Y-88252438D02*
X150937057Y-88204819D01*
X150937057Y-88204819D02*
X150698962Y-88204819D01*
X150698962Y-88204819D02*
X150603724Y-88252438D01*
X150603724Y-88252438D02*
X150556105Y-88300057D01*
X150556105Y-88300057D02*
X150508486Y-88395295D01*
X150508486Y-88395295D02*
X150508486Y-88490533D01*
X150508486Y-88490533D02*
X150556105Y-88633390D01*
X150556105Y-88633390D02*
X151127533Y-89204819D01*
X151127533Y-89204819D02*
X150508486Y-89204819D01*
X160961905Y-146819104D02*
X160485715Y-146819104D01*
X161057143Y-147104819D02*
X160723810Y-146104819D01*
X160723810Y-146104819D02*
X160390477Y-147104819D01*
X160057143Y-146438152D02*
X160057143Y-147104819D01*
X160057143Y-146533390D02*
X160009524Y-146485771D01*
X160009524Y-146485771D02*
X159914286Y-146438152D01*
X159914286Y-146438152D02*
X159771429Y-146438152D01*
X159771429Y-146438152D02*
X159676191Y-146485771D01*
X159676191Y-146485771D02*
X159628572Y-146581009D01*
X159628572Y-146581009D02*
X159628572Y-147104819D01*
X159295238Y-146438152D02*
X158914286Y-146438152D01*
X159152381Y-146104819D02*
X159152381Y-146961961D01*
X159152381Y-146961961D02*
X159104762Y-147057200D01*
X159104762Y-147057200D02*
X159009524Y-147104819D01*
X159009524Y-147104819D02*
X158914286Y-147104819D01*
X158200000Y-147057200D02*
X158295238Y-147104819D01*
X158295238Y-147104819D02*
X158485714Y-147104819D01*
X158485714Y-147104819D02*
X158580952Y-147057200D01*
X158580952Y-147057200D02*
X158628571Y-146961961D01*
X158628571Y-146961961D02*
X158628571Y-146581009D01*
X158628571Y-146581009D02*
X158580952Y-146485771D01*
X158580952Y-146485771D02*
X158485714Y-146438152D01*
X158485714Y-146438152D02*
X158295238Y-146438152D01*
X158295238Y-146438152D02*
X158200000Y-146485771D01*
X158200000Y-146485771D02*
X158152381Y-146581009D01*
X158152381Y-146581009D02*
X158152381Y-146676247D01*
X158152381Y-146676247D02*
X158628571Y-146771485D01*
X157723809Y-146438152D02*
X157723809Y-147104819D01*
X157723809Y-146533390D02*
X157676190Y-146485771D01*
X157676190Y-146485771D02*
X157580952Y-146438152D01*
X157580952Y-146438152D02*
X157438095Y-146438152D01*
X157438095Y-146438152D02*
X157342857Y-146485771D01*
X157342857Y-146485771D02*
X157295238Y-146581009D01*
X157295238Y-146581009D02*
X157295238Y-147104819D01*
X156819047Y-146438152D02*
X156819047Y-147104819D01*
X156819047Y-146533390D02*
X156771428Y-146485771D01*
X156771428Y-146485771D02*
X156676190Y-146438152D01*
X156676190Y-146438152D02*
X156533333Y-146438152D01*
X156533333Y-146438152D02*
X156438095Y-146485771D01*
X156438095Y-146485771D02*
X156390476Y-146581009D01*
X156390476Y-146581009D02*
X156390476Y-147104819D01*
X155485714Y-147104819D02*
X155485714Y-146581009D01*
X155485714Y-146581009D02*
X155533333Y-146485771D01*
X155533333Y-146485771D02*
X155628571Y-146438152D01*
X155628571Y-146438152D02*
X155819047Y-146438152D01*
X155819047Y-146438152D02*
X155914285Y-146485771D01*
X155485714Y-147057200D02*
X155580952Y-147104819D01*
X155580952Y-147104819D02*
X155819047Y-147104819D01*
X155819047Y-147104819D02*
X155914285Y-147057200D01*
X155914285Y-147057200D02*
X155961904Y-146961961D01*
X155961904Y-146961961D02*
X155961904Y-146866723D01*
X155961904Y-146866723D02*
X155914285Y-146771485D01*
X155914285Y-146771485D02*
X155819047Y-146723866D01*
X155819047Y-146723866D02*
X155580952Y-146723866D01*
X155580952Y-146723866D02*
X155485714Y-146676247D01*
X154295237Y-146819104D02*
X153819047Y-146819104D01*
X154390475Y-147104819D02*
X154057142Y-146104819D01*
X154057142Y-146104819D02*
X153723809Y-147104819D01*
X153390475Y-147104819D02*
X153390475Y-146438152D01*
X153390475Y-146628628D02*
X153342856Y-146533390D01*
X153342856Y-146533390D02*
X153295237Y-146485771D01*
X153295237Y-146485771D02*
X153199999Y-146438152D01*
X153199999Y-146438152D02*
X153104761Y-146438152D01*
X152390475Y-147057200D02*
X152485713Y-147104819D01*
X152485713Y-147104819D02*
X152676189Y-147104819D01*
X152676189Y-147104819D02*
X152771427Y-147057200D01*
X152771427Y-147057200D02*
X152819046Y-146961961D01*
X152819046Y-146961961D02*
X152819046Y-146581009D01*
X152819046Y-146581009D02*
X152771427Y-146485771D01*
X152771427Y-146485771D02*
X152676189Y-146438152D01*
X152676189Y-146438152D02*
X152485713Y-146438152D01*
X152485713Y-146438152D02*
X152390475Y-146485771D01*
X152390475Y-146485771D02*
X152342856Y-146581009D01*
X152342856Y-146581009D02*
X152342856Y-146676247D01*
X152342856Y-146676247D02*
X152819046Y-146771485D01*
X151485713Y-147104819D02*
X151485713Y-146581009D01*
X151485713Y-146581009D02*
X151533332Y-146485771D01*
X151533332Y-146485771D02*
X151628570Y-146438152D01*
X151628570Y-146438152D02*
X151819046Y-146438152D01*
X151819046Y-146438152D02*
X151914284Y-146485771D01*
X151485713Y-147057200D02*
X151580951Y-147104819D01*
X151580951Y-147104819D02*
X151819046Y-147104819D01*
X151819046Y-147104819D02*
X151914284Y-147057200D01*
X151914284Y-147057200D02*
X151961903Y-146961961D01*
X151961903Y-146961961D02*
X151961903Y-146866723D01*
X151961903Y-146866723D02*
X151914284Y-146771485D01*
X151914284Y-146771485D02*
X151819046Y-146723866D01*
X151819046Y-146723866D02*
X151580951Y-146723866D01*
X151580951Y-146723866D02*
X151485713Y-146676247D01*
X159630285Y-79204009D02*
X159963618Y-79204009D01*
X159963618Y-79727819D02*
X159963618Y-78727819D01*
X159963618Y-78727819D02*
X159487428Y-78727819D01*
X159154094Y-79442104D02*
X158677904Y-79442104D01*
X159249332Y-79727819D02*
X158915999Y-78727819D01*
X158915999Y-78727819D02*
X158582666Y-79727819D01*
X158249332Y-79727819D02*
X158249332Y-78727819D01*
X158249332Y-78727819D02*
X157677904Y-79727819D01*
X157677904Y-79727819D02*
X157677904Y-78727819D01*
X156725523Y-78727819D02*
X157201713Y-78727819D01*
X157201713Y-78727819D02*
X157249332Y-79204009D01*
X157249332Y-79204009D02*
X157201713Y-79156390D01*
X157201713Y-79156390D02*
X157106475Y-79108771D01*
X157106475Y-79108771D02*
X156868380Y-79108771D01*
X156868380Y-79108771D02*
X156773142Y-79156390D01*
X156773142Y-79156390D02*
X156725523Y-79204009D01*
X156725523Y-79204009D02*
X156677904Y-79299247D01*
X156677904Y-79299247D02*
X156677904Y-79537342D01*
X156677904Y-79537342D02*
X156725523Y-79632580D01*
X156725523Y-79632580D02*
X156773142Y-79680200D01*
X156773142Y-79680200D02*
X156868380Y-79727819D01*
X156868380Y-79727819D02*
X157106475Y-79727819D01*
X157106475Y-79727819D02*
X157201713Y-79680200D01*
X157201713Y-79680200D02*
X157249332Y-79632580D01*
X156392189Y-78727819D02*
X156058856Y-79727819D01*
X156058856Y-79727819D02*
X155725523Y-78727819D01*
X144366666Y-89254819D02*
X144699999Y-88778628D01*
X144938094Y-89254819D02*
X144938094Y-88254819D01*
X144938094Y-88254819D02*
X144557142Y-88254819D01*
X144557142Y-88254819D02*
X144461904Y-88302438D01*
X144461904Y-88302438D02*
X144414285Y-88350057D01*
X144414285Y-88350057D02*
X144366666Y-88445295D01*
X144366666Y-88445295D02*
X144366666Y-88588152D01*
X144366666Y-88588152D02*
X144414285Y-88683390D01*
X144414285Y-88683390D02*
X144461904Y-88731009D01*
X144461904Y-88731009D02*
X144557142Y-88778628D01*
X144557142Y-88778628D02*
X144938094Y-88778628D01*
X143414285Y-88302438D02*
X143509523Y-88254819D01*
X143509523Y-88254819D02*
X143652380Y-88254819D01*
X143652380Y-88254819D02*
X143795237Y-88302438D01*
X143795237Y-88302438D02*
X143890475Y-88397676D01*
X143890475Y-88397676D02*
X143938094Y-88492914D01*
X143938094Y-88492914D02*
X143985713Y-88683390D01*
X143985713Y-88683390D02*
X143985713Y-88826247D01*
X143985713Y-88826247D02*
X143938094Y-89016723D01*
X143938094Y-89016723D02*
X143890475Y-89111961D01*
X143890475Y-89111961D02*
X143795237Y-89207200D01*
X143795237Y-89207200D02*
X143652380Y-89254819D01*
X143652380Y-89254819D02*
X143557142Y-89254819D01*
X143557142Y-89254819D02*
X143414285Y-89207200D01*
X143414285Y-89207200D02*
X143366666Y-89159580D01*
X143366666Y-89159580D02*
X143366666Y-88826247D01*
X143366666Y-88826247D02*
X143557142Y-88826247D01*
X142604761Y-88731009D02*
X142461904Y-88778628D01*
X142461904Y-88778628D02*
X142414285Y-88826247D01*
X142414285Y-88826247D02*
X142366666Y-88921485D01*
X142366666Y-88921485D02*
X142366666Y-89064342D01*
X142366666Y-89064342D02*
X142414285Y-89159580D01*
X142414285Y-89159580D02*
X142461904Y-89207200D01*
X142461904Y-89207200D02*
X142557142Y-89254819D01*
X142557142Y-89254819D02*
X142938094Y-89254819D01*
X142938094Y-89254819D02*
X142938094Y-88254819D01*
X142938094Y-88254819D02*
X142604761Y-88254819D01*
X142604761Y-88254819D02*
X142509523Y-88302438D01*
X142509523Y-88302438D02*
X142461904Y-88350057D01*
X142461904Y-88350057D02*
X142414285Y-88445295D01*
X142414285Y-88445295D02*
X142414285Y-88540533D01*
X142414285Y-88540533D02*
X142461904Y-88635771D01*
X142461904Y-88635771D02*
X142509523Y-88683390D01*
X142509523Y-88683390D02*
X142604761Y-88731009D01*
X142604761Y-88731009D02*
X142938094Y-88731009D01*
X141747618Y-88254819D02*
X141652380Y-88254819D01*
X141652380Y-88254819D02*
X141557142Y-88302438D01*
X141557142Y-88302438D02*
X141509523Y-88350057D01*
X141509523Y-88350057D02*
X141461904Y-88445295D01*
X141461904Y-88445295D02*
X141414285Y-88635771D01*
X141414285Y-88635771D02*
X141414285Y-88873866D01*
X141414285Y-88873866D02*
X141461904Y-89064342D01*
X141461904Y-89064342D02*
X141509523Y-89159580D01*
X141509523Y-89159580D02*
X141557142Y-89207200D01*
X141557142Y-89207200D02*
X141652380Y-89254819D01*
X141652380Y-89254819D02*
X141747618Y-89254819D01*
X141747618Y-89254819D02*
X141842856Y-89207200D01*
X141842856Y-89207200D02*
X141890475Y-89159580D01*
X141890475Y-89159580D02*
X141938094Y-89064342D01*
X141938094Y-89064342D02*
X141985713Y-88873866D01*
X141985713Y-88873866D02*
X141985713Y-88635771D01*
X141985713Y-88635771D02*
X141938094Y-88445295D01*
X141938094Y-88445295D02*
X141890475Y-88350057D01*
X141890475Y-88350057D02*
X141842856Y-88302438D01*
X141842856Y-88302438D02*
X141747618Y-88254819D01*
X148866666Y-89204819D02*
X149199999Y-88728628D01*
X149438094Y-89204819D02*
X149438094Y-88204819D01*
X149438094Y-88204819D02*
X149057142Y-88204819D01*
X149057142Y-88204819D02*
X148961904Y-88252438D01*
X148961904Y-88252438D02*
X148914285Y-88300057D01*
X148914285Y-88300057D02*
X148866666Y-88395295D01*
X148866666Y-88395295D02*
X148866666Y-88538152D01*
X148866666Y-88538152D02*
X148914285Y-88633390D01*
X148914285Y-88633390D02*
X148961904Y-88681009D01*
X148961904Y-88681009D02*
X149057142Y-88728628D01*
X149057142Y-88728628D02*
X149438094Y-88728628D01*
X147914285Y-88252438D02*
X148009523Y-88204819D01*
X148009523Y-88204819D02*
X148152380Y-88204819D01*
X148152380Y-88204819D02*
X148295237Y-88252438D01*
X148295237Y-88252438D02*
X148390475Y-88347676D01*
X148390475Y-88347676D02*
X148438094Y-88442914D01*
X148438094Y-88442914D02*
X148485713Y-88633390D01*
X148485713Y-88633390D02*
X148485713Y-88776247D01*
X148485713Y-88776247D02*
X148438094Y-88966723D01*
X148438094Y-88966723D02*
X148390475Y-89061961D01*
X148390475Y-89061961D02*
X148295237Y-89157200D01*
X148295237Y-89157200D02*
X148152380Y-89204819D01*
X148152380Y-89204819D02*
X148057142Y-89204819D01*
X148057142Y-89204819D02*
X147914285Y-89157200D01*
X147914285Y-89157200D02*
X147866666Y-89109580D01*
X147866666Y-89109580D02*
X147866666Y-88776247D01*
X147866666Y-88776247D02*
X148057142Y-88776247D01*
X147104761Y-88681009D02*
X146961904Y-88728628D01*
X146961904Y-88728628D02*
X146914285Y-88776247D01*
X146914285Y-88776247D02*
X146866666Y-88871485D01*
X146866666Y-88871485D02*
X146866666Y-89014342D01*
X146866666Y-89014342D02*
X146914285Y-89109580D01*
X146914285Y-89109580D02*
X146961904Y-89157200D01*
X146961904Y-89157200D02*
X147057142Y-89204819D01*
X147057142Y-89204819D02*
X147438094Y-89204819D01*
X147438094Y-89204819D02*
X147438094Y-88204819D01*
X147438094Y-88204819D02*
X147104761Y-88204819D01*
X147104761Y-88204819D02*
X147009523Y-88252438D01*
X147009523Y-88252438D02*
X146961904Y-88300057D01*
X146961904Y-88300057D02*
X146914285Y-88395295D01*
X146914285Y-88395295D02*
X146914285Y-88490533D01*
X146914285Y-88490533D02*
X146961904Y-88585771D01*
X146961904Y-88585771D02*
X147009523Y-88633390D01*
X147009523Y-88633390D02*
X147104761Y-88681009D01*
X147104761Y-88681009D02*
X147438094Y-88681009D01*
X145914285Y-89204819D02*
X146485713Y-89204819D01*
X146199999Y-89204819D02*
X146199999Y-88204819D01*
X146199999Y-88204819D02*
X146295237Y-88347676D01*
X146295237Y-88347676D02*
X146390475Y-88442914D01*
X146390475Y-88442914D02*
X146485713Y-88490533D01*
X135166666Y-78654819D02*
X135499999Y-78178628D01*
X135738094Y-78654819D02*
X135738094Y-77654819D01*
X135738094Y-77654819D02*
X135357142Y-77654819D01*
X135357142Y-77654819D02*
X135261904Y-77702438D01*
X135261904Y-77702438D02*
X135214285Y-77750057D01*
X135214285Y-77750057D02*
X135166666Y-77845295D01*
X135166666Y-77845295D02*
X135166666Y-77988152D01*
X135166666Y-77988152D02*
X135214285Y-78083390D01*
X135214285Y-78083390D02*
X135261904Y-78131009D01*
X135261904Y-78131009D02*
X135357142Y-78178628D01*
X135357142Y-78178628D02*
X135738094Y-78178628D01*
X134833332Y-77654819D02*
X134166666Y-78654819D01*
X134166666Y-77654819D02*
X134833332Y-78654819D01*
D12*
%TO.C,Q4*%
X175550000Y-80340000D02*
X176200000Y-80340000D01*
X175550000Y-83460000D02*
X176200000Y-83460000D01*
X176850000Y-80340000D02*
X176200000Y-80340000D01*
X176850000Y-83460000D02*
X176200000Y-83460000D01*
X175277500Y-83740000D02*
X174797500Y-83740000D01*
X175037500Y-83410000D01*
X175277500Y-83740000D01*
G36*
X175277500Y-83740000D02*
G01*
X174797500Y-83740000D01*
X175037500Y-83410000D01*
X175277500Y-83740000D01*
G37*
%TO.C,C43*%
X126757836Y-65690000D02*
X126542164Y-65690000D01*
X126757836Y-66410000D02*
X126542164Y-66410000D01*
%TO.C,C19*%
X178756250Y-111303750D02*
X178756250Y-112091250D01*
X179150000Y-111697500D02*
X178362500Y-111697500D01*
X179390000Y-108790000D02*
X179390000Y-107504437D01*
X179390000Y-110910000D02*
X179390000Y-112195563D01*
X180454437Y-106440000D02*
X179390000Y-107504437D01*
X180454437Y-113260000D02*
X179390000Y-112195563D01*
X186210000Y-106440000D02*
X180454437Y-106440000D01*
X186210000Y-108790000D02*
X186210000Y-106440000D01*
X186210000Y-110910000D02*
X186210000Y-113260000D01*
X186210000Y-113260000D02*
X180454437Y-113260000D01*
%TO.C,R7*%
X121037258Y-119377500D02*
X120562742Y-119377500D01*
X121037258Y-120422500D02*
X120562742Y-120422500D01*
%TO.C,R49*%
X104115000Y-102127064D02*
X104115000Y-101672936D01*
X105585000Y-102127064D02*
X105585000Y-101672936D01*
%TO.C,SW3*%
X195480000Y-144300000D02*
X195480000Y-142600000D01*
X195480000Y-145800000D02*
X195480000Y-145600000D01*
X196530000Y-147650000D02*
X197320000Y-147650000D01*
X197320000Y-140750000D02*
X196530000Y-140750000D01*
X198330000Y-144100000D02*
X199620000Y-144100000D01*
X198330000Y-147050000D02*
X198330000Y-141350000D01*
X199620000Y-142800000D02*
X198330000Y-142800000D01*
X199830000Y-143000000D02*
X199620000Y-142800000D01*
X199830000Y-143900000D02*
X199620000Y-144100000D01*
X199830000Y-143900000D02*
X199830000Y-143000000D01*
%TO.C,C84*%
X113659420Y-66340000D02*
X113940580Y-66340000D01*
X113659420Y-67360000D02*
X113940580Y-67360000D01*
%TO.C,C14*%
X167871693Y-118130810D02*
X167719190Y-117978307D01*
X168380810Y-117621693D02*
X168228307Y-117469190D01*
%TO.C,C10*%
X110540000Y-105307836D02*
X110540000Y-105092164D01*
X111260000Y-105307836D02*
X111260000Y-105092164D01*
%TO.C,R69*%
X105396359Y-91720000D02*
X105703641Y-91720000D01*
X105396359Y-92480000D02*
X105703641Y-92480000D01*
%TO.C,TP6*%
X167500000Y-122600000D02*
G75*
G02*
X166100000Y-122600000I-700000J0D01*
G01*
X166100000Y-122600000D02*
G75*
G02*
X167500000Y-122600000I700000J0D01*
G01*
%TO.C,J17*%
D13*
X128750000Y-143975000D02*
X143750000Y-143975000D01*
X143750000Y-129475000D01*
X128750000Y-129475000D01*
X128750000Y-143975000D01*
D12*
%TO.C,C17*%
X168340000Y-108115000D02*
X168340000Y-109985000D01*
X168340000Y-109985000D02*
X172250000Y-109985000D01*
X172250000Y-108115000D02*
X168340000Y-108115000D01*
%TO.C,C12*%
X159269190Y-119371693D02*
X159421693Y-119219190D01*
X159778307Y-119880810D02*
X159930810Y-119728307D01*
%TO.C,L4*%
X115500000Y-69200000D02*
X115500000Y-67700000D01*
X115500000Y-73000000D02*
X115500000Y-74500000D01*
X115500000Y-74500000D02*
X122900000Y-74500000D01*
X122900000Y-67700000D02*
X115500000Y-67700000D01*
X122900000Y-69200000D02*
X122900000Y-67700000D01*
X122900000Y-73000000D02*
X122900000Y-74500000D01*
%TO.C,SW2*%
X195450000Y-133300000D02*
X195450000Y-131600000D01*
X195450000Y-134800000D02*
X195450000Y-134600000D01*
X196500000Y-136650000D02*
X197290000Y-136650000D01*
X197290000Y-129750000D02*
X196500000Y-129750000D01*
X198300000Y-133100000D02*
X199590000Y-133100000D01*
X198300000Y-136050000D02*
X198300000Y-130350000D01*
X199590000Y-131800000D02*
X198300000Y-131800000D01*
X199800000Y-132000000D02*
X199590000Y-131800000D01*
X199800000Y-132900000D02*
X199590000Y-133100000D01*
X199800000Y-132900000D02*
X199800000Y-132000000D01*
%TO.C,SW5*%
X125070000Y-117750000D02*
X125070000Y-117720000D01*
X125070000Y-119650000D02*
X125070000Y-122250000D01*
X125070000Y-124180000D02*
X125070000Y-124150000D01*
X131530000Y-117720000D02*
X125070000Y-117720000D01*
X131530000Y-117750000D02*
X131530000Y-117720000D01*
X131530000Y-119650000D02*
X131530000Y-122250000D01*
X131530000Y-124150000D02*
X131530000Y-124180000D01*
X131530000Y-124180000D02*
X125070000Y-124180000D01*
D13*
%TO.C,D21*%
X156150000Y-95800000D02*
X155250000Y-95800000D01*
X155250000Y-94900000D01*
X156150000Y-95800000D01*
G36*
X156150000Y-95800000D02*
G01*
X155250000Y-95800000D01*
X155250000Y-94900000D01*
X156150000Y-95800000D01*
G37*
D12*
%TO.C,C28*%
X134090000Y-108790580D02*
X134090000Y-108509420D01*
X135110000Y-108790580D02*
X135110000Y-108509420D01*
%TO.C,C52*%
X109990000Y-89809420D02*
X109990000Y-90090580D01*
X111010000Y-89809420D02*
X111010000Y-90090580D01*
%TO.C,JP2*%
X133600000Y-120300000D02*
X133600000Y-119700000D01*
X134300000Y-119000000D02*
X135700000Y-119000000D01*
X135700000Y-121000000D02*
X134300000Y-121000000D01*
X136400000Y-119700000D02*
X136400000Y-120300000D01*
X133600000Y-119700000D02*
G75*
G02*
X134300000Y-119000000I700000J0D01*
G01*
X134300000Y-121000000D02*
G75*
G02*
X133600000Y-120300000I0J700000D01*
G01*
X135700000Y-119000000D02*
G75*
G02*
X136400000Y-119700000I1J-699999D01*
G01*
X136400000Y-120300000D02*
G75*
G02*
X135700000Y-121000000I-699999J-1D01*
G01*
%TO.C,C36*%
X137107836Y-77840000D02*
X136892164Y-77840000D01*
X137107836Y-78560000D02*
X136892164Y-78560000D01*
%TO.C,C1*%
X141261252Y-113665000D02*
X140738748Y-113665000D01*
X141261252Y-115135000D02*
X140738748Y-115135000D01*
%TO.C,R3*%
X139687258Y-116027500D02*
X139212742Y-116027500D01*
X139687258Y-117072500D02*
X139212742Y-117072500D01*
%TO.C,LS2*%
X145500000Y-95300000D02*
X154500000Y-95300000D01*
X145500000Y-97300000D02*
X154500000Y-97300000D01*
X145500000Y-108300000D02*
X154500000Y-108300000D01*
X145500000Y-110300000D02*
X154500000Y-110300000D01*
X145500000Y-108300000D02*
G75*
G02*
X145500000Y-97300000I0J5500000D01*
G01*
X145500000Y-110300000D02*
G75*
G02*
X145500000Y-95300000I0J7500000D01*
G01*
X154500000Y-95300000D02*
G75*
G02*
X154500000Y-110300000I0J-7500000D01*
G01*
X154500000Y-97300000D02*
G75*
G02*
X154500000Y-108300000I0J-5500000D01*
G01*
%TO.C,D20*%
X158890000Y-88050000D02*
X158890000Y-89750000D01*
X161550000Y-88050000D02*
X158890000Y-88050000D01*
X161550000Y-89750000D02*
X158890000Y-89750000D01*
D13*
%TO.C,D19*%
X121550000Y-77550000D02*
X122950000Y-77550000D01*
X122950000Y-75750000D02*
X121550000Y-75750000D01*
X122950000Y-77550000D02*
X122950000Y-75750000D01*
D12*
%TO.C,SW7*%
X169870000Y-95770000D02*
X169870000Y-102230000D01*
X169900000Y-95770000D02*
X169870000Y-95770000D01*
X169900000Y-102230000D02*
X169870000Y-102230000D01*
X171800000Y-95770000D02*
X174400000Y-95770000D01*
X171800000Y-102230000D02*
X174400000Y-102230000D01*
X176300000Y-95770000D02*
X176330000Y-95770000D01*
X176330000Y-95770000D02*
X176330000Y-102230000D01*
X176330000Y-102230000D02*
X176300000Y-102230000D01*
D11*
%TO.C,J14*%
X187925000Y-102100000D02*
X187925000Y-107000000D01*
X187925000Y-107000000D02*
X189175000Y-107000000D01*
X189675000Y-101000000D02*
X193475000Y-101000000D01*
X191375000Y-107000000D02*
X196175000Y-107000000D01*
X195675000Y-101000000D02*
X197175000Y-101000000D01*
X198375000Y-107000000D02*
X199975000Y-107000000D01*
X199975000Y-101000000D02*
X199375000Y-101000000D01*
D12*
%TO.C,U2*%
X130400000Y-112240000D02*
X132350000Y-112240000D01*
X130400000Y-117360000D02*
X132350000Y-117360000D01*
X134300000Y-112240000D02*
X132350000Y-112240000D01*
X134300000Y-117360000D02*
X132350000Y-117360000D01*
X135050000Y-112335000D02*
X134810000Y-112005000D01*
X135290000Y-112005000D01*
X135050000Y-112335000D01*
G36*
X135050000Y-112335000D02*
G01*
X134810000Y-112005000D01*
X135290000Y-112005000D01*
X135050000Y-112335000D01*
G37*
%TO.C,C29*%
X119540000Y-122290580D02*
X119540000Y-122009420D01*
X120560000Y-122290580D02*
X120560000Y-122009420D01*
%TO.C,U8*%
X131050000Y-124390000D02*
X131850000Y-124390000D01*
X131050000Y-127510000D02*
X131850000Y-127510000D01*
X132650000Y-127510000D02*
X131850000Y-127510000D01*
X133650000Y-124390000D02*
X131850000Y-124390000D01*
%TO.C,D13*%
X178250000Y-81350000D02*
X178250000Y-78690000D01*
X179950000Y-78690000D02*
X178250000Y-78690000D01*
X179950000Y-81350000D02*
X179950000Y-78690000D01*
%TO.C,LS1*%
X149740000Y-117350000D02*
X151860000Y-117350000D01*
X149740000Y-119410000D02*
X149740000Y-117350000D01*
X149740000Y-119410000D02*
X151860000Y-119410000D01*
X150800000Y-115290000D02*
X151860000Y-115290000D01*
X151860000Y-115290000D02*
X151860000Y-116350000D01*
X151860000Y-119410000D02*
X151860000Y-117350000D01*
%TO.C,C80*%
X118911253Y-65765000D02*
X118388747Y-65765000D01*
X118911253Y-67235000D02*
X118388747Y-67235000D01*
%TO.C,J13*%
X100000000Y-67350000D02*
X100000000Y-76350000D01*
X100000000Y-67350000D02*
X101350000Y-67350000D01*
X100000000Y-76350000D02*
X101350000Y-76350000D01*
X104050000Y-67350000D02*
X105050000Y-67350000D01*
X104050000Y-76350000D02*
X105050000Y-76350000D01*
%TO.C,R28*%
X121037258Y-117877500D02*
X120562742Y-117877500D01*
X121037258Y-118922500D02*
X120562742Y-118922500D01*
%TO.C,C31*%
X131090000Y-108790580D02*
X131090000Y-108509420D01*
X132110000Y-108790580D02*
X132110000Y-108509420D01*
%TO.C,U10*%
X160603878Y-118919848D02*
X160939753Y-119255724D01*
X160939753Y-118583972D02*
X160603878Y-118919848D01*
X163959099Y-115564626D02*
X164294975Y-115228751D01*
X164294975Y-115228751D02*
X164630851Y-115564626D01*
X164294975Y-122610945D02*
X163959099Y-122275070D01*
X164630851Y-122275070D02*
X164294975Y-122610945D01*
X167773940Y-118707716D02*
X167650197Y-118583972D01*
X167816367Y-119089554D02*
X167650197Y-119255724D01*
X168389123Y-118856208D02*
X167986072Y-118919848D01*
X168049712Y-118516797D01*
X168389123Y-118856208D01*
G36*
X168389123Y-118856208D02*
G01*
X167986072Y-118919848D01*
X168049712Y-118516797D01*
X168389123Y-118856208D01*
G37*
%TO.C,FB1*%
X169554478Y-116274273D02*
X169324273Y-116504478D01*
X170275727Y-116995522D02*
X170045522Y-117225727D01*
%TO.C,C20*%
X172000000Y-119385000D02*
X175910000Y-119385000D01*
X175910000Y-117515000D02*
X172000000Y-117515000D01*
X175910000Y-119385000D02*
X175910000Y-117515000D01*
%TO.C,C59*%
X168492164Y-58040000D02*
X168707836Y-58040000D01*
X168492164Y-58760000D02*
X168707836Y-58760000D01*
%TO.C,C23*%
X173500000Y-117285000D02*
X177410000Y-117285000D01*
X177410000Y-115415000D02*
X173500000Y-115415000D01*
X177410000Y-117285000D02*
X177410000Y-115415000D01*
%TO.C,C56*%
X117659420Y-143690000D02*
X117940580Y-143690000D01*
X117659420Y-144710000D02*
X117940580Y-144710000D01*
%TO.C,C22*%
X171940000Y-115492164D02*
X171940000Y-115707836D01*
X172660000Y-115492164D02*
X172660000Y-115707836D01*
%TO.C,R35*%
X161371359Y-84770000D02*
X161678641Y-84770000D01*
X161371359Y-85530000D02*
X161678641Y-85530000D01*
%TO.C,D3*%
X187120000Y-146260000D02*
X187120000Y-147060000D01*
X187120000Y-147860000D02*
X187120000Y-147060000D01*
X188050000Y-147860000D02*
X187120000Y-147860000D01*
X189350000Y-147860000D02*
X190280000Y-147860000D01*
X190280000Y-146400000D02*
X190280000Y-147860000D01*
X187090000Y-145760000D02*
X186760000Y-146000000D01*
X186760000Y-145520000D01*
X187090000Y-145760000D01*
G36*
X187090000Y-145760000D02*
G01*
X186760000Y-146000000D01*
X186760000Y-145520000D01*
X187090000Y-145760000D01*
G37*
%TO.C,C16*%
X166240000Y-110215000D02*
X166240000Y-112085000D01*
X166240000Y-112085000D02*
X170150000Y-112085000D01*
X170150000Y-110215000D02*
X166240000Y-110215000D01*
%TO.C,C83*%
X113659420Y-67840000D02*
X113940580Y-67840000D01*
X113659420Y-68860000D02*
X113940580Y-68860000D01*
%TO.C,C15*%
X164590000Y-114192164D02*
X164590000Y-114407836D01*
X165310000Y-114192164D02*
X165310000Y-114407836D01*
%TO.C,C24*%
X164265000Y-105990000D02*
X164265000Y-109900000D01*
X166135000Y-105990000D02*
X164265000Y-105990000D01*
X166135000Y-109900000D02*
X166135000Y-105990000D01*
%TO.C,R15*%
X135190000Y-52222936D02*
X135190000Y-53677064D01*
X137010000Y-52222936D02*
X137010000Y-53677064D01*
%TO.C,U27*%
X122040000Y-64200000D02*
X122040000Y-66000000D01*
X125260000Y-64200000D02*
X125260000Y-65000000D01*
X125260000Y-65800000D02*
X125260000Y-65000000D01*
X125540000Y-66540000D02*
X125210000Y-66300000D01*
X125540000Y-66060000D01*
X125540000Y-66540000D01*
G36*
X125540000Y-66540000D02*
G01*
X125210000Y-66300000D01*
X125540000Y-66060000D01*
X125540000Y-66540000D01*
G37*
%TO.C,R10*%
X109653641Y-103420000D02*
X109346359Y-103420000D01*
X109653641Y-104180000D02*
X109346359Y-104180000D01*
%TO.C,C30*%
X132590000Y-108790580D02*
X132590000Y-108509420D01*
X133610000Y-108790580D02*
X133610000Y-108509420D01*
%TO.C,U12*%
X119200000Y-148500000D02*
X118200000Y-148500000D01*
X119200000Y-149500000D02*
X119200000Y-148500000D01*
X121200000Y-146500000D02*
X118200000Y-146500000D01*
X118200000Y-149500000D01*
X121200000Y-149500000D01*
X121200000Y-146500000D01*
X120200000Y-148500000D02*
G75*
G02*
X119200000Y-148500000I-500000J0D01*
G01*
X119200000Y-148500000D02*
G75*
G02*
X120200000Y-148500000I500000J0D01*
G01*
D11*
%TO.C,U1*%
X180125000Y-138355000D02*
X181525000Y-138355000D01*
X181525000Y-133495000D02*
X181525000Y-133350000D01*
X181525000Y-138355000D02*
X181525000Y-138500000D01*
X185675000Y-133350000D02*
X181525000Y-133350000D01*
X185675000Y-133495000D02*
X185675000Y-133350000D01*
X185675000Y-138355000D02*
X185675000Y-138500000D01*
X185675000Y-138500000D02*
X181525000Y-138500000D01*
D13*
%TO.C,D15*%
X151544201Y-95800000D02*
X150644201Y-95800000D01*
X150644201Y-94900000D01*
X151544201Y-95800000D01*
G36*
X151544201Y-95800000D02*
G01*
X150644201Y-95800000D01*
X150644201Y-94900000D01*
X151544201Y-95800000D01*
G37*
D12*
%TO.C,SW8*%
X169870000Y-125770000D02*
X169870000Y-132230000D01*
X169900000Y-125770000D02*
X169870000Y-125770000D01*
X169900000Y-132230000D02*
X169870000Y-132230000D01*
X171800000Y-125770000D02*
X174400000Y-125770000D01*
X171800000Y-132230000D02*
X174400000Y-132230000D01*
X176300000Y-125770000D02*
X176330000Y-125770000D01*
X176330000Y-125770000D02*
X176330000Y-132230000D01*
X176330000Y-132230000D02*
X176300000Y-132230000D01*
D11*
%TO.C,J16*%
X187925000Y-113100000D02*
X187925000Y-118000000D01*
X187925000Y-118000000D02*
X189175000Y-118000000D01*
X189675000Y-112000000D02*
X193475000Y-112000000D01*
X191375000Y-118000000D02*
X196175000Y-118000000D01*
X195675000Y-112000000D02*
X197175000Y-112000000D01*
X198375000Y-118000000D02*
X199975000Y-118000000D01*
X199975000Y-112000000D02*
X199375000Y-112000000D01*
D12*
%TO.C,J11*%
X100615000Y-140260000D02*
X100615000Y-144140000D01*
X105085000Y-139090000D02*
X102585000Y-139090000D01*
X105085000Y-140140000D02*
X105085000Y-139090000D01*
X105085000Y-144260000D02*
X105085000Y-145310000D01*
X105085000Y-145310000D02*
X102585000Y-145310000D01*
X106075000Y-144260000D02*
X105085000Y-144260000D01*
%TO.C,U9*%
X116790000Y-133990000D02*
X117465000Y-133990000D01*
X116790000Y-134165000D02*
X116790000Y-133990000D01*
X117090000Y-136710000D02*
X117465000Y-136710000D01*
X120010000Y-133990000D02*
X119335000Y-133990000D01*
X120010000Y-134165000D02*
X120010000Y-133990000D01*
X120010000Y-136535000D02*
X120010000Y-136710000D01*
X120010000Y-136710000D02*
X119335000Y-136710000D01*
X116930000Y-136900000D02*
X116650000Y-136900000D01*
X116790000Y-136710000D01*
X116930000Y-136900000D01*
G36*
X116930000Y-136900000D02*
G01*
X116650000Y-136900000D01*
X116790000Y-136710000D01*
X116930000Y-136900000D01*
G37*
D13*
%TO.C,J6*%
X169465000Y-137130000D02*
X170100000Y-137130000D01*
X170100000Y-137130000D02*
X170100000Y-139670000D01*
X170100000Y-139670000D02*
X169465000Y-139670000D01*
X168500000Y-141000000D02*
X167300000Y-141000000D01*
X167900000Y-140400000D01*
X168500000Y-141000000D01*
G36*
X168500000Y-141000000D02*
G01*
X167300000Y-141000000D01*
X167900000Y-140400000D01*
X168500000Y-141000000D01*
G37*
D12*
%TO.C,SW1*%
X181350000Y-149150000D02*
X181350000Y-148050000D01*
X183150000Y-148050000D02*
X183150000Y-149150000D01*
X183150000Y-149150000D02*
X181350000Y-149150000D01*
X183250000Y-145700000D02*
X181250000Y-145700000D01*
X184150000Y-148050000D02*
X180350000Y-148050000D01*
%TO.C,U4*%
X147200000Y-124150000D02*
X147200000Y-124900000D01*
X147200000Y-142900000D02*
X147200000Y-149650000D01*
X147200000Y-143710000D02*
X165200000Y-143710000D01*
X148200000Y-124150000D02*
X147200000Y-124150000D01*
X164200000Y-124150000D02*
X165200000Y-124150000D01*
X165200000Y-124150000D02*
X165200000Y-124900000D01*
X165200000Y-142900000D02*
X165200000Y-149650000D01*
X165200000Y-149650000D02*
X147200000Y-149650000D01*
%TO.C,R43*%
X109520000Y-142353641D02*
X109520000Y-142046359D01*
X110280000Y-142353641D02*
X110280000Y-142046359D01*
%TO.C,C64*%
X103359420Y-114040000D02*
X103640580Y-114040000D01*
X103359420Y-115060000D02*
X103640580Y-115060000D01*
%TO.C,R30*%
X188120000Y-71853641D02*
X188120000Y-71546359D01*
X188880000Y-71853641D02*
X188880000Y-71546359D01*
%TO.C,C18*%
X178556250Y-104153750D02*
X178556250Y-104941250D01*
X178950000Y-104547500D02*
X178162500Y-104547500D01*
X179190000Y-101640000D02*
X179190000Y-100354437D01*
X179190000Y-103760000D02*
X179190000Y-105045563D01*
X180254437Y-99290000D02*
X179190000Y-100354437D01*
X180254437Y-106110000D02*
X179190000Y-105045563D01*
X186010000Y-99290000D02*
X180254437Y-99290000D01*
X186010000Y-101640000D02*
X186010000Y-99290000D01*
X186010000Y-103760000D02*
X186010000Y-106110000D01*
X186010000Y-106110000D02*
X180254437Y-106110000D01*
%TO.C,L1*%
X119300000Y-111550000D02*
X119300000Y-110050000D01*
X119300000Y-115350000D02*
X119300000Y-116850000D01*
X119300000Y-116850000D02*
X126700000Y-116850000D01*
X126700000Y-110050000D02*
X119300000Y-110050000D01*
X126700000Y-111550000D02*
X126700000Y-110050000D01*
X126700000Y-115350000D02*
X126700000Y-116850000D01*
%TO.C,Q3*%
X144460000Y-52960000D02*
X141920000Y-52960000D01*
X144460000Y-55500000D02*
X141920000Y-55500000D01*
X144460000Y-58040000D02*
X141920000Y-58040000D01*
X144460000Y-60620000D02*
X144460000Y-50380000D01*
X153950000Y-50380000D02*
X144460000Y-50380000D01*
X153950000Y-60620000D02*
X144460000Y-60620000D01*
X153950000Y-60620000D02*
X153950000Y-50380000D01*
X155390000Y-50380000D02*
X154190000Y-50380000D01*
X155390000Y-60620000D02*
X154190000Y-60620000D01*
X157790000Y-50380000D02*
X156590000Y-50380000D01*
X157790000Y-60620000D02*
X156590000Y-60620000D01*
X160190000Y-50380000D02*
X158990000Y-50380000D01*
X160190000Y-60620000D02*
X158990000Y-60620000D01*
X160350000Y-51580000D02*
X160350000Y-50380000D01*
X160350000Y-53980000D02*
X160350000Y-52779000D01*
X160350000Y-56380000D02*
X160350000Y-55180000D01*
X160350000Y-58780000D02*
X160350000Y-57580000D01*
X160350000Y-60620000D02*
X160350000Y-59980000D01*
%TO.C,J7*%
X154381000Y-80188000D02*
X154381000Y-87808000D01*
X154381000Y-87808000D02*
X160351000Y-87808000D01*
X155141000Y-80948000D02*
X158091000Y-80948000D01*
X155141000Y-83998000D02*
X155141000Y-80948000D01*
X155141000Y-83998000D02*
X155141000Y-87048000D01*
X155141000Y-87048000D02*
X158091000Y-87048000D01*
X158091000Y-80948000D02*
X158091000Y-80198000D01*
X158091000Y-87048000D02*
X158091000Y-87798000D01*
X159591000Y-80198000D02*
X159591000Y-81998000D01*
X159591000Y-81998000D02*
X160341000Y-81998000D01*
X159591000Y-83498000D02*
X159591000Y-84498000D01*
X159591000Y-84498000D02*
X160341000Y-84498000D01*
X159591000Y-85998000D02*
X159591000Y-87798000D01*
X159591000Y-87798000D02*
X160341000Y-87798000D01*
X160341000Y-80198000D02*
X159591000Y-80198000D01*
X160341000Y-81998000D02*
X160341000Y-80198000D01*
X160341000Y-83498000D02*
X159591000Y-83498000D01*
X160341000Y-84498000D02*
X160341000Y-83498000D01*
X160341000Y-85998000D02*
X159591000Y-85998000D01*
X160341000Y-87798000D02*
X160341000Y-85998000D01*
X160351000Y-80188000D02*
X154381000Y-80188000D01*
X160351000Y-87808000D02*
X160351000Y-80188000D01*
%TO.C,R52*%
X104127064Y-103965000D02*
X103672936Y-103965000D01*
X104127064Y-105435000D02*
X103672936Y-105435000D01*
%TO.C,U5*%
X127490000Y-81065000D02*
X128440000Y-81065000D01*
X127490000Y-82015000D02*
X127490000Y-81065000D01*
X127490000Y-90335000D02*
X127490000Y-91285000D01*
X127490000Y-91285000D02*
X128440000Y-91285000D01*
X137710000Y-81065000D02*
X136760000Y-81065000D01*
X137710000Y-82015000D02*
X137710000Y-81065000D01*
X137710000Y-90335000D02*
X137710000Y-91285000D01*
X137710000Y-91285000D02*
X136760000Y-91285000D01*
X138325000Y-82015000D02*
X137985000Y-81545000D01*
X138665000Y-81545000D01*
X138325000Y-82015000D01*
G36*
X138325000Y-82015000D02*
G01*
X137985000Y-81545000D01*
X138665000Y-81545000D01*
X138325000Y-82015000D01*
G37*
D11*
%TO.C,J3*%
X187925000Y-91100000D02*
X187925000Y-96000000D01*
X187925000Y-96000000D02*
X189175000Y-96000000D01*
X189675000Y-90000000D02*
X193475000Y-90000000D01*
X191375000Y-96000000D02*
X196175000Y-96000000D01*
X195675000Y-90000000D02*
X197175000Y-90000000D01*
X198375000Y-96000000D02*
X199975000Y-96000000D01*
X199975000Y-90000000D02*
X199375000Y-90000000D01*
D12*
%TO.C,R40*%
X168453641Y-130920000D02*
X168146359Y-130920000D01*
X168453641Y-131680000D02*
X168146359Y-131680000D01*
%TO.C,U16*%
X101940000Y-108150000D02*
X101940000Y-110100000D01*
X101940000Y-112050000D02*
X101940000Y-110100000D01*
X107060000Y-108150000D02*
X107060000Y-110100000D01*
X107060000Y-112050000D02*
X107060000Y-110100000D01*
X102035000Y-107400000D02*
X101705000Y-107640000D01*
X101705000Y-107160000D01*
X102035000Y-107400000D01*
G36*
X102035000Y-107400000D02*
G01*
X101705000Y-107640000D01*
X101705000Y-107160000D01*
X102035000Y-107400000D01*
G37*
%TO.C,C37*%
X131132836Y-93915000D02*
X130917164Y-93915000D01*
X131132836Y-94635000D02*
X130917164Y-94635000D01*
%TO.C,BT1*%
X110700000Y-117550000D02*
X188700000Y-117550000D01*
X110700000Y-137650000D02*
X110700000Y-117550000D01*
X188700000Y-117550000D02*
X188700000Y-137650000D01*
X188700000Y-137650000D02*
X110700000Y-137650000D01*
%TO.C,R8*%
X185346359Y-131520000D02*
X185653641Y-131520000D01*
X185346359Y-132280000D02*
X185653641Y-132280000D01*
%TO.C,C61*%
X122427836Y-81840000D02*
X122212164Y-81840000D01*
X122427836Y-82560000D02*
X122212164Y-82560000D01*
%TO.C,R12*%
X132546359Y-55670000D02*
X132853641Y-55670000D01*
X132546359Y-56430000D02*
X132853641Y-56430000D01*
%TO.C,C62*%
X166365000Y-105490000D02*
X166365000Y-109400000D01*
X168235000Y-105490000D02*
X166365000Y-105490000D01*
X168235000Y-109400000D02*
X168235000Y-105490000D01*
%TO.C,C9*%
X110240000Y-102007836D02*
X110240000Y-101792164D01*
X110960000Y-102007836D02*
X110960000Y-101792164D01*
%TO.C,C21*%
X165540000Y-114192164D02*
X165540000Y-114407836D01*
X166260000Y-114192164D02*
X166260000Y-114407836D01*
%TO.C,Q5*%
X160740000Y-82050000D02*
X160740000Y-82700000D01*
X160740000Y-83350000D02*
X160740000Y-82700000D01*
X163860000Y-82050000D02*
X163860000Y-82700000D01*
X163860000Y-83350000D02*
X163860000Y-82700000D01*
X164140000Y-84102500D02*
X163810000Y-83862500D01*
X164140000Y-83622500D01*
X164140000Y-84102500D01*
G36*
X164140000Y-84102500D02*
G01*
X163810000Y-83862500D01*
X164140000Y-83622500D01*
X164140000Y-84102500D01*
G37*
%TO.C,C41*%
X126727836Y-63740000D02*
X126512164Y-63740000D01*
X126727836Y-64460000D02*
X126512164Y-64460000D01*
%TO.C,C7*%
X121040000Y-122290580D02*
X121040000Y-122009420D01*
X122060000Y-122290580D02*
X122060000Y-122009420D01*
%TO.C,U11*%
X133910000Y-63490000D02*
X130150000Y-63490000D01*
X133910000Y-64750000D02*
X133910000Y-63490000D01*
X133910000Y-69050000D02*
X133910000Y-70310000D01*
X133910000Y-70310000D02*
X130150000Y-70310000D01*
X129110000Y-70540000D02*
X128630000Y-70540000D01*
X128870000Y-70210000D01*
X129110000Y-70540000D01*
G36*
X129110000Y-70540000D02*
G01*
X128630000Y-70540000D01*
X128870000Y-70210000D01*
X129110000Y-70540000D01*
G37*
%TO.C,C63*%
X110790000Y-82909420D02*
X110790000Y-83190580D01*
X111810000Y-82909420D02*
X111810000Y-83190580D01*
%TO.C,D2*%
X180820000Y-130600000D02*
X180820000Y-129140000D01*
X181750000Y-129140000D02*
X180820000Y-129140000D01*
X183050000Y-129140000D02*
X183980000Y-129140000D01*
X183980000Y-129140000D02*
X183980000Y-129940000D01*
X183980000Y-130740000D02*
X183980000Y-129940000D01*
X184340000Y-131480000D02*
X184010000Y-131240000D01*
X184340000Y-131000000D01*
X184340000Y-131480000D01*
G36*
X184340000Y-131480000D02*
G01*
X184010000Y-131240000D01*
X184340000Y-131000000D01*
X184340000Y-131480000D01*
G37*
D13*
%TO.C,U14*%
X128450000Y-101590000D02*
X128450000Y-100950000D01*
X128450000Y-102950000D02*
X128450000Y-102510000D01*
X128600000Y-100950000D02*
X128450000Y-100950000D01*
X131025000Y-100975000D02*
X130875000Y-100975000D01*
X131150000Y-101590000D02*
X131150000Y-100950000D01*
X131150000Y-103150000D02*
X131000000Y-103150000D01*
X131150000Y-103150000D02*
X131150000Y-102510000D01*
X128450000Y-103510000D02*
X128090000Y-103150000D01*
X128450000Y-103150000D01*
X128450000Y-103510000D01*
G36*
X128450000Y-103510000D02*
G01*
X128090000Y-103150000D01*
X128450000Y-103150000D01*
X128450000Y-103510000D01*
G37*
D12*
%TO.C,K1*%
X180400000Y-85360000D02*
X180410000Y-78700000D01*
X180900000Y-85360000D02*
X180400000Y-85360000D01*
X180910000Y-78100000D02*
X180910000Y-78700000D01*
X180910000Y-78700000D02*
X180410000Y-78700000D01*
X182410000Y-78100000D02*
X182410000Y-78700000D01*
X182410000Y-78700000D02*
X183810000Y-78700000D01*
X183900000Y-85360000D02*
X182500000Y-85360000D01*
X185500000Y-78660000D02*
X186300000Y-78660000D01*
X186300000Y-85360000D02*
X185500000Y-85360000D01*
X187900000Y-78660000D02*
X188500000Y-78660000D01*
X188500000Y-85360000D02*
X187900000Y-85360000D01*
X190100000Y-78660000D02*
X190600000Y-78660000D01*
X190600000Y-78660000D02*
X190600000Y-85360000D01*
X190600000Y-85360000D02*
X190100000Y-85360000D01*
%TO.C,R48*%
X124096359Y-61620000D02*
X124403641Y-61620000D01*
X124096359Y-62380000D02*
X124403641Y-62380000D01*
%TO.C,U3*%
X115230000Y-81540000D02*
X117540000Y-81540000D01*
X115230000Y-81815000D02*
X115230000Y-81540000D01*
X115230000Y-91185000D02*
X115230000Y-91460000D01*
X115230000Y-91460000D02*
X117540000Y-91460000D01*
X119850000Y-81540000D02*
X117540000Y-81540000D01*
X119850000Y-81815000D02*
X119850000Y-81540000D01*
X119850000Y-91185000D02*
X119850000Y-91460000D01*
X119850000Y-91460000D02*
X117540000Y-91460000D01*
X114880000Y-91515000D02*
X114400000Y-91515000D01*
X114640000Y-91185000D01*
X114880000Y-91515000D01*
G36*
X114880000Y-91515000D02*
G01*
X114400000Y-91515000D01*
X114640000Y-91185000D01*
X114880000Y-91515000D01*
G37*
%TO.C,R1*%
X176446359Y-146620000D02*
X176753641Y-146620000D01*
X176446359Y-147380000D02*
X176753641Y-147380000D01*
%TO.C,C81*%
X124509420Y-67790000D02*
X124790580Y-67790000D01*
X124509420Y-68810000D02*
X124790580Y-68810000D01*
%TO.C,R24*%
X174946359Y-114420000D02*
X175253641Y-114420000D01*
X174946359Y-115180000D02*
X175253641Y-115180000D01*
%TO.C,U17*%
X159970000Y-65900000D02*
X159970000Y-62300000D01*
X155670000Y-63280000D02*
G75*
G02*
X159961741Y-62288125I2450000J-820000D01*
G01*
X159947684Y-65908445D02*
G75*
G02*
X155670000Y-64880000I-1827684J1808445D01*
G01*
%TO.C,R20*%
X188090000Y-132472936D02*
X188090000Y-133927064D01*
X189910000Y-132472936D02*
X189910000Y-133927064D01*
%TO.C,R34*%
X123746359Y-75820000D02*
X124053641Y-75820000D01*
X123746359Y-76580000D02*
X124053641Y-76580000D01*
D13*
%TO.C,D17*%
X142450000Y-95850000D02*
X141550000Y-95850000D01*
X141550000Y-94950000D01*
X142450000Y-95850000D01*
G36*
X142450000Y-95850000D02*
G01*
X141550000Y-95850000D01*
X141550000Y-94950000D01*
X142450000Y-95850000D01*
G37*
D12*
%TO.C,J5*%
X100050000Y-124100000D02*
X100050000Y-133100000D01*
X100050000Y-124100000D02*
X101400000Y-124100000D01*
X100050000Y-133100000D02*
X101400000Y-133100000D01*
X104100000Y-124100000D02*
X105100000Y-124100000D01*
X104100000Y-133100000D02*
X105100000Y-133100000D01*
D13*
%TO.C,D16*%
X146950000Y-95800000D02*
X146050000Y-95800000D01*
X146050000Y-94900000D01*
X146950000Y-95800000D01*
G36*
X146950000Y-95800000D02*
G01*
X146050000Y-95800000D01*
X146050000Y-94900000D01*
X146950000Y-95800000D01*
G37*
D12*
%TO.C,Q2*%
X187340000Y-66450000D02*
X187340000Y-67100000D01*
X187340000Y-67750000D02*
X187340000Y-67100000D01*
X190460000Y-66450000D02*
X190460000Y-67100000D01*
X190460000Y-67750000D02*
X190460000Y-67100000D01*
X190740000Y-68502500D02*
X190410000Y-68262500D01*
X190740000Y-68022500D01*
X190740000Y-68502500D01*
G36*
X190740000Y-68502500D02*
G01*
X190410000Y-68262500D01*
X190740000Y-68022500D01*
X190740000Y-68502500D01*
G37*
%TO.C,R23*%
X182140000Y-117000000D02*
X182140000Y-119860000D01*
X182140000Y-119860000D02*
X184060000Y-119860000D01*
X184060000Y-119860000D02*
X184060000Y-117000000D01*
%TO.C,C38*%
X112840000Y-90742164D02*
X112840000Y-90957836D01*
X113560000Y-90742164D02*
X113560000Y-90957836D01*
%TO.C,C44*%
X126542164Y-66640000D02*
X126757836Y-66640000D01*
X126542164Y-67360000D02*
X126757836Y-67360000D01*
%TO.C,R42*%
X184120000Y-122503641D02*
X184120000Y-122196359D01*
X184880000Y-122503641D02*
X184880000Y-122196359D01*
%TO.C,R14*%
X109353641Y-100120000D02*
X109046359Y-100120000D01*
X109353641Y-100880000D02*
X109046359Y-100880000D01*
D13*
%TO.C,D14*%
X181650000Y-76300000D02*
X183050000Y-76300000D01*
X183050000Y-74500000D02*
X181650000Y-74500000D01*
X183050000Y-76300000D02*
X183050000Y-74500000D01*
D12*
%TO.C,JP1*%
X179900000Y-116800000D02*
X181900000Y-116800000D01*
X179900000Y-119600000D02*
X179900000Y-116800000D01*
X181900000Y-116800000D02*
X181900000Y-119600000D01*
X181900000Y-119600000D02*
X179900000Y-119600000D01*
%TO.C,C79*%
X120590000Y-66140580D02*
X120590000Y-65859420D01*
X121610000Y-66140580D02*
X121610000Y-65859420D01*
%TO.C,Q1*%
X131702500Y-53000000D02*
X131702500Y-53650000D01*
X131702500Y-54300000D02*
X131702500Y-53650000D01*
X134822500Y-53000000D02*
X134822500Y-53650000D01*
X134822500Y-54300000D02*
X134822500Y-53650000D01*
X135102500Y-55052500D02*
X134772500Y-54812500D01*
X135102500Y-54572500D01*
X135102500Y-55052500D01*
G36*
X135102500Y-55052500D02*
G01*
X134772500Y-54812500D01*
X135102500Y-54572500D01*
X135102500Y-55052500D01*
G37*
%TO.C,C42*%
X126512164Y-64740000D02*
X126727836Y-64740000D01*
X126512164Y-65460000D02*
X126727836Y-65460000D01*
%TO.C,C8*%
X108592164Y-92690000D02*
X108807836Y-92690000D01*
X108592164Y-93410000D02*
X108807836Y-93410000D01*
%TO.C,C82*%
X121642164Y-60740000D02*
X121857836Y-60740000D01*
X121642164Y-61460000D02*
X121857836Y-61460000D01*
%TO.C,R29*%
X173146359Y-82320000D02*
X173453641Y-82320000D01*
X173146359Y-83080000D02*
X173453641Y-83080000D01*
%TO.C,R13*%
X137440000Y-52222936D02*
X137440000Y-53677064D01*
X139260000Y-52222936D02*
X139260000Y-53677064D01*
%TO.C,C13*%
X159969190Y-120071693D02*
X160121693Y-119919190D01*
X160478307Y-120580810D02*
X160630810Y-120428307D01*
%TO.C,R16*%
X108853641Y-93620000D02*
X108546359Y-93620000D01*
X108853641Y-94380000D02*
X108546359Y-94380000D01*
%TO.C,R70*%
X163220000Y-96753641D02*
X163220000Y-96446359D01*
X163980000Y-96753641D02*
X163980000Y-96446359D01*
%TO.C,R47*%
X137987258Y-113877500D02*
X137512742Y-113877500D01*
X137987258Y-114922500D02*
X137512742Y-114922500D01*
%TO.C,R6*%
X183896359Y-75020000D02*
X184203641Y-75020000D01*
X183896359Y-75780000D02*
X184203641Y-75780000D01*
%TO.C,R66*%
X168646359Y-122020000D02*
X168953641Y-122020000D01*
X168646359Y-122780000D02*
X168953641Y-122780000D01*
D13*
%TO.C,J26*%
X128430000Y-74900000D02*
X128430000Y-74265000D01*
X130970000Y-74265000D02*
X130970000Y-74900000D01*
X130970000Y-74900000D02*
X128430000Y-74900000D01*
X127700000Y-72700000D02*
X127100000Y-73300000D01*
X127100000Y-72100000D01*
X127700000Y-72700000D01*
G36*
X127700000Y-72700000D02*
G01*
X127100000Y-73300000D01*
X127100000Y-72100000D01*
X127700000Y-72700000D01*
G37*
D12*
%TO.C,R44*%
X119720000Y-137646359D02*
X119720000Y-137953641D01*
X120480000Y-137646359D02*
X120480000Y-137953641D01*
%TO.C,R9*%
X118353641Y-142020000D02*
X118046359Y-142020000D01*
X118353641Y-142780000D02*
X118046359Y-142780000D01*
%TO.C,C6*%
X145090000Y-142040580D02*
X145090000Y-141759420D01*
X146110000Y-142040580D02*
X146110000Y-141759420D01*
%TO.C,R46*%
X188090000Y-142627064D02*
X188090000Y-141172936D01*
X189910000Y-142627064D02*
X189910000Y-141172936D01*
%TO.C,FB2*%
X128462221Y-93140000D02*
X128787779Y-93140000D01*
X128462221Y-94160000D02*
X128787779Y-94160000D01*
D11*
%TO.C,U7*%
X180125000Y-143980000D02*
X181525000Y-143980000D01*
X181525000Y-139120000D02*
X181525000Y-138975000D01*
X181525000Y-143980000D02*
X181525000Y-144125000D01*
X185675000Y-138975000D02*
X181525000Y-138975000D01*
X185675000Y-139120000D02*
X185675000Y-138975000D01*
X185675000Y-143980000D02*
X185675000Y-144125000D01*
X185675000Y-144125000D02*
X181525000Y-144125000D01*
D12*
%TO.C,TP1*%
X133950000Y-78200000D02*
G75*
G02*
X132050000Y-78200000I-950000J0D01*
G01*
X132050000Y-78200000D02*
G75*
G02*
X133950000Y-78200000I950000J0D01*
G01*
%TO.C,C4*%
X138011252Y-111665000D02*
X137488748Y-111665000D01*
X138011252Y-113135000D02*
X137488748Y-113135000D01*
%TO.C,C51*%
X111490000Y-89809420D02*
X111490000Y-90090580D01*
X112510000Y-89809420D02*
X112510000Y-90090580D01*
%TO.C,R5*%
X179446359Y-131020000D02*
X179753641Y-131020000D01*
X179446359Y-131780000D02*
X179753641Y-131780000D01*
%TD*%
D14*
%TO.C,J14*%
X190975000Y-104000000D03*
X196975000Y-104000000D03*
%TD*%
%TO.C,J16*%
X190975000Y-115000000D03*
X196975000Y-115000000D03*
%TD*%
%TO.C,J3*%
X190975000Y-93000000D03*
X196975000Y-93000000D03*
%TD*%
%LPC*%
D15*
%TO.C,J12*%
X111600000Y-148380000D03*
D16*
X111600000Y-145840000D03*
X111600000Y-143300000D03*
X111600000Y-140760000D03*
X111600000Y-138220000D03*
X111600000Y-135680000D03*
X111600000Y-133140000D03*
X111600000Y-130600000D03*
%TD*%
D17*
%TO.C,SW9*%
X111600000Y-56800000D03*
X111600000Y-54300000D03*
X111600000Y-51800000D03*
%TD*%
D18*
%TO.C,J32*%
X148720000Y-85400000D03*
D16*
X148720000Y-82860000D03*
X148720000Y-80320000D03*
%TD*%
D15*
%TO.C,J10*%
X114800000Y-110600000D03*
D16*
X114800000Y-113140000D03*
X114800000Y-115680000D03*
X114800000Y-118220000D03*
X114800000Y-120760000D03*
X114800000Y-123300000D03*
%TD*%
D19*
%TO.C,J9*%
X118457500Y-57700000D03*
D20*
X118457500Y-63700000D03*
D21*
X113757500Y-60700000D03*
%TD*%
D22*
%TO.C,J27*%
X108005000Y-110950000D03*
X108005000Y-114450000D03*
X108005000Y-117950000D03*
X108005000Y-121450000D03*
%TD*%
D23*
%TO.C,J34*%
X120725000Y-95350000D03*
D16*
X120725000Y-92810000D03*
X123265000Y-95350000D03*
X123265000Y-92810000D03*
X125805000Y-95350000D03*
X125805000Y-92810000D03*
%TD*%
D24*
%TO.C,R32*%
X174800000Y-86400000D03*
X171400000Y-86400000D03*
%TD*%
D25*
%TO.C,U13*%
X181850000Y-124400000D03*
D26*
X183120000Y-122330000D03*
X184390000Y-124400000D03*
%TD*%
D22*
%TO.C,J1*%
X108005000Y-95550000D03*
X108005000Y-99050000D03*
X108005000Y-102550000D03*
X108005000Y-106050000D03*
%TD*%
D27*
%TO.C,J18*%
X191995000Y-89150000D03*
X191995000Y-85650000D03*
X191995000Y-82150000D03*
X191995000Y-78650000D03*
%TD*%
%TO.C,J15*%
X192000000Y-147550000D03*
X192000000Y-144050000D03*
X192000000Y-140550000D03*
X192000000Y-137050000D03*
%TD*%
D22*
%TO.C,J2*%
X108005000Y-137050000D03*
X108005000Y-140550000D03*
X108005000Y-144050000D03*
X108005000Y-147550000D03*
%TD*%
D28*
%TO.C,M1*%
X162540000Y-51500000D03*
D29*
X162540000Y-54040000D03*
X162540000Y-56580000D03*
X162540000Y-59120000D03*
X162540000Y-61660000D03*
X162540000Y-64200000D03*
X182860000Y-64200000D03*
X182860000Y-61660000D03*
X182860000Y-59120000D03*
X182860000Y-56580000D03*
X182860000Y-54040000D03*
X182860000Y-51500000D03*
%TD*%
D15*
%TO.C,J19*%
X111200000Y-123300000D03*
D16*
X111200000Y-120760000D03*
X111200000Y-118220000D03*
X111200000Y-115680000D03*
X111200000Y-113140000D03*
X111200000Y-110600000D03*
%TD*%
D30*
%TO.C,SW4*%
X134100000Y-110900000D03*
X131600000Y-110900000D03*
X129100000Y-110900000D03*
%TD*%
D15*
%TO.C,J20*%
X115200000Y-130680000D03*
D16*
X115200000Y-133220000D03*
X115200000Y-135760000D03*
X115200000Y-138300000D03*
X115200000Y-140840000D03*
X115200000Y-143380000D03*
X115200000Y-145920000D03*
X115200000Y-148460000D03*
%TD*%
D15*
%TO.C,J4*%
X115000000Y-104700000D03*
D16*
X115000000Y-102160000D03*
X115000000Y-99620000D03*
X115000000Y-97080000D03*
%TD*%
D31*
%TO.C,X3*%
X164880000Y-68300000D03*
X167420000Y-68300000D03*
X169960000Y-68300000D03*
X172500000Y-68300000D03*
X175040000Y-68300000D03*
X177580000Y-68300000D03*
X180120000Y-68300000D03*
%TD*%
D18*
%TO.C,J30*%
X153850000Y-85400000D03*
D16*
X153850000Y-82860000D03*
X153850000Y-80320000D03*
%TD*%
D22*
%TO.C,J22*%
X108005000Y-52450000D03*
X108005000Y-55950000D03*
X108005000Y-59450000D03*
X108005000Y-62950000D03*
%TD*%
D15*
%TO.C,U15*%
X168875000Y-62489500D03*
D32*
X168875000Y-59949500D03*
X171415000Y-62489500D03*
X171415000Y-59949500D03*
X173955000Y-62489500D03*
X173955000Y-59949500D03*
X176495000Y-62489500D03*
X176495000Y-59949500D03*
%TD*%
D33*
%TO.C,U21*%
X142380000Y-112000000D03*
D34*
X144920000Y-112000000D03*
X147460000Y-112000000D03*
X150000000Y-112000000D03*
X152540000Y-112000000D03*
X155080000Y-112000000D03*
X157620000Y-112000000D03*
%TD*%
D18*
%TO.C,J33*%
X151300000Y-85400000D03*
D16*
X151300000Y-82860000D03*
X151300000Y-80320000D03*
%TD*%
D35*
%TO.C,U6*%
X165792500Y-51492500D03*
D36*
X165792500Y-53492500D03*
X165792500Y-55492500D03*
X165792500Y-57492500D03*
X165792500Y-59492500D03*
X165792500Y-61492500D03*
X165792500Y-63492500D03*
X165792500Y-65492500D03*
X179392500Y-65492500D03*
X179392500Y-63492500D03*
X179392500Y-61492500D03*
X179392500Y-59492500D03*
X179392500Y-57492500D03*
X179392500Y-55492500D03*
X179392500Y-53492500D03*
X179392500Y-51492500D03*
%TD*%
D14*
%TO.C,MK1*%
X184350000Y-115000000D03*
X182450000Y-115000000D03*
%TD*%
D37*
%TO.C,SW6*%
X175600000Y-106761000D03*
D34*
X170600000Y-106761000D03*
X173100000Y-106761000D03*
D38*
X178700000Y-114261000D03*
X167500000Y-114261000D03*
D34*
X170600000Y-121261000D03*
X175600000Y-121261000D03*
%TD*%
D27*
%TO.C,J24*%
X191995000Y-73750000D03*
X191995000Y-70250000D03*
X191995000Y-66750000D03*
X191995000Y-63250000D03*
%TD*%
D15*
%TO.C,J23*%
X123700000Y-105900000D03*
D16*
X126240000Y-105900000D03*
X128780000Y-105900000D03*
X131320000Y-105900000D03*
X133860000Y-105900000D03*
X136400000Y-105900000D03*
%TD*%
D39*
%TO.C,X1*%
X125000000Y-142755000D03*
X175000000Y-142755000D03*
%TD*%
D40*
%TO.C,R38*%
X111240000Y-87130000D03*
D41*
X123940000Y-87130000D03*
%TD*%
D42*
%TO.C,C39*%
X112800000Y-83082380D03*
D40*
X112800000Y-80582380D03*
%TD*%
D18*
%TO.C,J31*%
X146180000Y-85400000D03*
D16*
X146180000Y-82860000D03*
X146180000Y-80320000D03*
%TD*%
D43*
%TO.C,J8*%
X129050000Y-99900000D03*
D16*
X131590000Y-99900000D03*
X134130000Y-99900000D03*
X136670000Y-99900000D03*
%TD*%
D22*
%TO.C,J28*%
X108005000Y-80150000D03*
X108005000Y-83650000D03*
X108005000Y-87150000D03*
X108005000Y-90650000D03*
%TD*%
D27*
%TO.C,J21*%
X192000000Y-132150000D03*
X192000000Y-128650000D03*
X192000000Y-125150000D03*
X192000000Y-121650000D03*
%TD*%
D17*
%TO.C,U22*%
X175800000Y-78820000D03*
D40*
X175800000Y-76580000D03*
X174220000Y-75000000D03*
X170400000Y-76580000D03*
X170400000Y-78820000D03*
X171980000Y-80400000D03*
%TD*%
D44*
%TO.C,R63*%
X122626274Y-85823726D03*
X122173726Y-86276274D03*
%TD*%
D45*
%TO.C,Q4*%
X175262500Y-82850000D03*
X175262500Y-80950000D03*
X177137500Y-81900000D03*
%TD*%
D46*
%TO.C,C32*%
X127820000Y-92000000D03*
X127180000Y-92000000D03*
%TD*%
D47*
%TO.C,C43*%
X126170000Y-66050000D03*
X127130000Y-66050000D03*
%TD*%
D48*
%TO.C,C19*%
X180000000Y-109850000D03*
X185600000Y-109850000D03*
%TD*%
D49*
%TO.C,R7*%
X119975000Y-119900000D03*
X121625000Y-119900000D03*
%TD*%
D50*
%TO.C,R33*%
X127750000Y-53800000D03*
X172250000Y-53800000D03*
D51*
X110300000Y-63800000D03*
X189700000Y-63800000D03*
%TD*%
D52*
%TO.C,R49*%
X104850000Y-100900000D03*
X104850000Y-102900000D03*
%TD*%
D46*
%TO.C,R45*%
X163720000Y-85150000D03*
X163080000Y-85150000D03*
%TD*%
D53*
%TO.C,SW3*%
X196930000Y-142700000D03*
X196930000Y-145700000D03*
D54*
X194920000Y-141950000D03*
X194920000Y-144950000D03*
X194920000Y-146450000D03*
D55*
X198030000Y-140050000D03*
X195820000Y-140050000D03*
X198030000Y-148350000D03*
X195820000Y-148350000D03*
%TD*%
D56*
%TO.C,C84*%
X114575000Y-66850000D03*
X113025000Y-66850000D03*
%TD*%
D57*
%TO.C,C14*%
X167710589Y-117460589D03*
X168389411Y-118139411D03*
%TD*%
D46*
%TO.C,R60*%
X122870000Y-62000000D03*
X122230000Y-62000000D03*
%TD*%
D58*
%TO.C,C10*%
X110900000Y-104720000D03*
X110900000Y-105680000D03*
%TD*%
D59*
%TO.C,R69*%
X106060000Y-92100000D03*
X105040000Y-92100000D03*
%TD*%
D60*
%TO.C,R68*%
X106150000Y-90580000D03*
X106150000Y-91220000D03*
%TD*%
D61*
%TO.C,TP6*%
X166800000Y-122600000D03*
%TD*%
%TO.C,J17*%
X141200000Y-139975000D03*
X133200000Y-139975000D03*
D62*
X134000000Y-128975000D03*
X135100000Y-128975000D03*
X136200000Y-128975000D03*
X137300000Y-128975000D03*
X138400000Y-128975000D03*
X139500000Y-128975000D03*
X140600000Y-128975000D03*
X141700000Y-128975000D03*
X142800000Y-128975000D03*
D63*
X144000000Y-139575000D03*
D64*
X144000000Y-129975000D03*
D65*
X129400000Y-129975000D03*
D63*
X128500000Y-139575000D03*
%TD*%
D66*
%TO.C,C17*%
X169300000Y-109050000D03*
X172000000Y-109050000D03*
%TD*%
D67*
%TO.C,C12*%
X159939411Y-119210589D03*
X159260589Y-119889411D03*
%TD*%
D68*
%TO.C,R59*%
X121430000Y-60250000D03*
X122070000Y-60250000D03*
%TD*%
D69*
%TO.C,L4*%
X115675000Y-71100000D03*
X122725000Y-71100000D03*
%TD*%
D53*
%TO.C,SW2*%
X196900000Y-131700000D03*
X196900000Y-134700000D03*
D54*
X194890000Y-130950000D03*
X194890000Y-133950000D03*
X194890000Y-135450000D03*
D55*
X198000000Y-129050000D03*
X195790000Y-129050000D03*
X198000000Y-137350000D03*
X195790000Y-137350000D03*
%TD*%
D70*
%TO.C,SW5*%
X124050000Y-123200000D03*
X132550000Y-123200000D03*
X124050000Y-118700000D03*
X132550000Y-118700000D03*
%TD*%
D71*
%TO.C,D21*%
X157650000Y-89150000D03*
X156150000Y-89150000D03*
X156150000Y-94550000D03*
X157650000Y-94550000D03*
%TD*%
D72*
%TO.C,C28*%
X134600000Y-107875000D03*
X134600000Y-109425000D03*
%TD*%
D73*
%TO.C,C52*%
X110500000Y-90725000D03*
X110500000Y-89175000D03*
%TD*%
D60*
%TO.C,C50*%
X139700000Y-90080000D03*
X139700000Y-90720000D03*
%TD*%
D74*
%TO.C,JP2*%
X135650000Y-120000000D03*
D75*
X134350000Y-120000000D03*
%TD*%
D47*
%TO.C,C36*%
X136520000Y-78200000D03*
X137480000Y-78200000D03*
%TD*%
D76*
%TO.C,C1*%
X140050000Y-114400000D03*
X141950000Y-114400000D03*
%TD*%
D46*
%TO.C,C54*%
X118420000Y-133350000D03*
X117780000Y-133350000D03*
%TD*%
D68*
%TO.C,C25*%
X140680000Y-85200000D03*
X141320000Y-85200000D03*
%TD*%
D49*
%TO.C,R3*%
X138625000Y-116550000D03*
X140275000Y-116550000D03*
%TD*%
D68*
%TO.C,R18*%
X109080000Y-129850000D03*
X109720000Y-129850000D03*
%TD*%
D77*
%TO.C,LS2*%
X154000000Y-97800000D03*
X150000000Y-97800000D03*
X146000000Y-97800000D03*
X156000000Y-99050000D03*
X152000000Y-99050000D03*
X148000000Y-99050000D03*
X144000000Y-99050000D03*
X158000000Y-100300000D03*
X154000000Y-100300000D03*
X150000000Y-100300000D03*
X146000000Y-100300000D03*
X142000000Y-100300000D03*
X156000000Y-101550000D03*
X152000000Y-101550000D03*
X148000000Y-101550000D03*
X144000000Y-101550000D03*
X158000000Y-102800000D03*
X154000000Y-102800000D03*
X150000000Y-102800000D03*
X146000000Y-102800000D03*
X142000000Y-102800000D03*
X156000000Y-104050000D03*
X152000000Y-104050000D03*
X148000000Y-104050000D03*
X144000000Y-104050000D03*
X158000000Y-105300000D03*
X154000000Y-105300000D03*
X150000000Y-105300000D03*
X146000000Y-105300000D03*
X142000000Y-105300000D03*
X156000000Y-106550000D03*
X152000000Y-106550000D03*
X148000000Y-106550000D03*
X144000000Y-106550000D03*
X154000000Y-107800000D03*
X150000000Y-107800000D03*
X146000000Y-107800000D03*
%TD*%
D78*
%TO.C,D20*%
X159450000Y-88900000D03*
X161550000Y-88900000D03*
%TD*%
D79*
%TO.C,C45*%
X158500000Y-89520000D03*
X158500000Y-88880000D03*
%TD*%
D68*
%TO.C,R54*%
X185980000Y-118500000D03*
X186620000Y-118500000D03*
%TD*%
D80*
%TO.C,D19*%
X122200000Y-76650000D03*
X118400000Y-76650000D03*
%TD*%
D81*
%TO.C,SW7*%
X175350000Y-103250000D03*
X175350000Y-94750000D03*
X170850000Y-103250000D03*
X170850000Y-94750000D03*
%TD*%
D60*
%TO.C,R55*%
X192000000Y-109880000D03*
X192000000Y-110520000D03*
%TD*%
D14*
%TO.C,J14*%
X190975000Y-104000000D03*
X196975000Y-104000000D03*
D82*
X194575000Y-100500000D03*
X197275000Y-107500000D03*
X198275000Y-100500000D03*
X190275000Y-107500000D03*
X188575000Y-100500000D03*
%TD*%
D83*
%TO.C,U2*%
X134825000Y-112895000D03*
X134825000Y-114165000D03*
X134825000Y-115435000D03*
X134825000Y-116705000D03*
X129875000Y-116705000D03*
X129875000Y-115435000D03*
X129875000Y-114165000D03*
X129875000Y-112895000D03*
D84*
X132350000Y-114800000D03*
%TD*%
D72*
%TO.C,C29*%
X120050000Y-121375000D03*
X120050000Y-122925000D03*
%TD*%
D85*
%TO.C,U8*%
X132987500Y-125000000D03*
X132987500Y-125950000D03*
X132987500Y-126900000D03*
X130712500Y-126900000D03*
X130712500Y-125950000D03*
X130712500Y-125000000D03*
%TD*%
D86*
%TO.C,D13*%
X179100000Y-79250000D03*
X179100000Y-81350000D03*
%TD*%
D35*
%TO.C,LS1*%
X150800000Y-116350000D03*
D87*
X150800000Y-118350000D03*
%TD*%
D79*
%TO.C,C35*%
X139700000Y-82120000D03*
X139700000Y-81480000D03*
%TD*%
D46*
%TO.C,C47*%
X150420000Y-88750000D03*
X149780000Y-88750000D03*
%TD*%
D76*
%TO.C,C80*%
X117700001Y-66500000D03*
X119599999Y-66500000D03*
%TD*%
D46*
%TO.C,C60*%
X171070000Y-74750000D03*
X170430000Y-74750000D03*
%TD*%
D88*
%TO.C,J13*%
X106350000Y-74740000D03*
X106350000Y-68960000D03*
D89*
X107600000Y-75050000D03*
X107550000Y-74250000D03*
D90*
X107550000Y-73100000D03*
X107550000Y-72100000D03*
X107550000Y-71600000D03*
X107550000Y-70600000D03*
D89*
X107550000Y-69450000D03*
X107600000Y-68650000D03*
X107600000Y-68650000D03*
X107550000Y-69450000D03*
D90*
X107550000Y-70100000D03*
X107550000Y-71100000D03*
X107550000Y-72600000D03*
X107550000Y-73600000D03*
D89*
X107550000Y-74250000D03*
X107600000Y-75050000D03*
D91*
X102650000Y-76670000D03*
D92*
X106830000Y-76670000D03*
D91*
X102650000Y-67030000D03*
D92*
X106830000Y-67030000D03*
%TD*%
D49*
%TO.C,R28*%
X119975000Y-118400000D03*
X121625000Y-118400000D03*
%TD*%
D60*
%TO.C,C26*%
X137300000Y-126580000D03*
X137300000Y-127220000D03*
%TD*%
D72*
%TO.C,C31*%
X131600000Y-107875000D03*
X131600000Y-109425000D03*
%TD*%
D93*
%TO.C,U10*%
X167264823Y-119414823D03*
X166911270Y-119768376D03*
X166557717Y-120121930D03*
X166204163Y-120475483D03*
X165850610Y-120829036D03*
X165497057Y-121182590D03*
X165143503Y-121536143D03*
X164789950Y-121889696D03*
D94*
X163800000Y-121889696D03*
X163446447Y-121536143D03*
X163092893Y-121182590D03*
X162739340Y-120829036D03*
X162385787Y-120475483D03*
X162032233Y-120121930D03*
X161678680Y-119768376D03*
X161325127Y-119414823D03*
D93*
X161325127Y-118424873D03*
X161678680Y-118071320D03*
X162032233Y-117717766D03*
X162385787Y-117364213D03*
X162739340Y-117010660D03*
X163092893Y-116657106D03*
X163446447Y-116303553D03*
X163800000Y-115950000D03*
D94*
X164789950Y-115950000D03*
X165143503Y-116303553D03*
X165497057Y-116657106D03*
X165850610Y-117010660D03*
X166204163Y-117364213D03*
X166557717Y-117717766D03*
X166911270Y-118071320D03*
X167264823Y-118424873D03*
D95*
X164294975Y-118919848D03*
%TD*%
D46*
%TO.C,C53*%
X168520000Y-130400000D03*
X167880000Y-130400000D03*
%TD*%
D96*
%TO.C,FB1*%
X169243153Y-117306847D03*
X170356847Y-116193153D03*
%TD*%
D60*
%TO.C,C27*%
X145050000Y-114205000D03*
X145050000Y-114845000D03*
%TD*%
D97*
%TO.C,C20*%
X174950000Y-118450000D03*
X172250000Y-118450000D03*
%TD*%
D98*
%TO.C,C59*%
X169080000Y-58400000D03*
X168120000Y-58400000D03*
%TD*%
D97*
%TO.C,C23*%
X176450000Y-116350000D03*
X173750000Y-116350000D03*
%TD*%
D60*
%TO.C,R58*%
X140600000Y-126770000D03*
X140600000Y-127410000D03*
%TD*%
D56*
%TO.C,C56*%
X118575000Y-144200000D03*
X117025000Y-144200000D03*
%TD*%
D46*
%TO.C,C48*%
X145820000Y-88750000D03*
X145180000Y-88750000D03*
%TD*%
D99*
%TO.C,C22*%
X172300000Y-116080000D03*
X172300000Y-115120000D03*
%TD*%
D59*
%TO.C,R35*%
X162035000Y-85150000D03*
X161015000Y-85150000D03*
%TD*%
D100*
%TO.C,D3*%
X187750000Y-145600000D03*
X189650000Y-145600000D03*
X188700000Y-148600000D03*
%TD*%
D66*
%TO.C,C16*%
X167200000Y-111150000D03*
X169900000Y-111150000D03*
%TD*%
D60*
%TO.C,R39*%
X169300000Y-93480000D03*
X169300000Y-94120000D03*
%TD*%
D56*
%TO.C,C83*%
X114575000Y-68350000D03*
X113025000Y-68350000D03*
%TD*%
D99*
%TO.C,C15*%
X164950000Y-114780000D03*
X164950000Y-113820000D03*
%TD*%
D101*
%TO.C,C24*%
X165200000Y-106950000D03*
X165200000Y-109650000D03*
%TD*%
D102*
%TO.C,R15*%
X136100000Y-54412500D03*
X136100000Y-51487500D03*
%TD*%
D103*
%TO.C,U27*%
X124600000Y-66450000D03*
X123650000Y-66450000D03*
X122700000Y-66450000D03*
X122700000Y-63750000D03*
X123650000Y-63750000D03*
X124600000Y-63750000D03*
%TD*%
D104*
%TO.C,R10*%
X108990000Y-103800000D03*
X110010000Y-103800000D03*
%TD*%
D72*
%TO.C,C30*%
X133100000Y-107875000D03*
X133100000Y-109425000D03*
%TD*%
D105*
%TO.C,U12*%
X118700000Y-149000000D03*
X118700000Y-148000000D03*
X118700000Y-147000000D03*
X120700000Y-147000000D03*
X120700000Y-148000000D03*
X120700000Y-149000000D03*
%TD*%
D79*
%TO.C,R62*%
X152100000Y-114075000D03*
X152100000Y-113435000D03*
%TD*%
D106*
%TO.C,U1*%
X180600000Y-137830000D03*
X180600000Y-136560000D03*
X180600000Y-135290000D03*
X180600000Y-134020000D03*
X186600000Y-134020000D03*
X186600000Y-135290000D03*
X186600000Y-136560000D03*
X186600000Y-137830000D03*
%TD*%
D71*
%TO.C,D15*%
X153044201Y-89150000D03*
X151544201Y-89150000D03*
X151544201Y-94550000D03*
X153044201Y-94550000D03*
%TD*%
D68*
%TO.C,C49*%
X130705000Y-93350000D03*
X131345000Y-93350000D03*
%TD*%
D81*
%TO.C,SW8*%
X175350000Y-133250000D03*
X175350000Y-124750000D03*
X170850000Y-133250000D03*
X170850000Y-124750000D03*
%TD*%
D14*
%TO.C,J16*%
X190975000Y-115000000D03*
X196975000Y-115000000D03*
D82*
X194575000Y-111500000D03*
X197275000Y-118500000D03*
X198275000Y-111500000D03*
X190275000Y-118500000D03*
X188575000Y-111500000D03*
%TD*%
D107*
%TO.C,J11*%
X105300000Y-143700000D03*
X105300000Y-142700000D03*
X105300000Y-141700000D03*
X105300000Y-140700000D03*
D108*
X101425000Y-145000000D03*
X101425000Y-139400000D03*
%TD*%
D109*
%TO.C,U9*%
X117237500Y-136100000D03*
X117237500Y-135600000D03*
X117237500Y-135100000D03*
X117237500Y-134600000D03*
D110*
X117900000Y-134437500D03*
X118400000Y-134437500D03*
X118900000Y-134437500D03*
D109*
X119562500Y-134600000D03*
X119562500Y-135100000D03*
X119562500Y-135600000D03*
X119562500Y-136100000D03*
D110*
X118900000Y-136262500D03*
X118400000Y-136262500D03*
X117900000Y-136262500D03*
%TD*%
D111*
%TO.C,J6*%
X167850000Y-139670000D03*
X172350000Y-139670000D03*
X167850000Y-138400000D03*
X172350000Y-138400000D03*
X167850000Y-137130000D03*
X172350000Y-137130000D03*
%TD*%
D44*
%TO.C,C65*%
X161776274Y-120973726D03*
X161323726Y-121426274D03*
%TD*%
D112*
%TO.C,SW1*%
X181400000Y-147050000D03*
X183100000Y-147050000D03*
D113*
X180550000Y-145350000D03*
X183950000Y-145350000D03*
D114*
X179550000Y-147650000D03*
X184950000Y-147650000D03*
%TD*%
D115*
%TO.C,U4*%
X147450000Y-142160000D03*
X147450000Y-140890000D03*
X147450000Y-139620000D03*
X147450000Y-138350000D03*
X147450000Y-137080000D03*
X147450000Y-135810000D03*
X147450000Y-134540000D03*
X147450000Y-133270000D03*
X147450000Y-132000000D03*
X147450000Y-130730000D03*
X147450000Y-129460000D03*
X147450000Y-128190000D03*
X147450000Y-126920000D03*
X147450000Y-125650000D03*
D116*
X149215000Y-124400000D03*
X150485000Y-124400000D03*
X151755000Y-124400000D03*
X153025000Y-124400000D03*
X154295000Y-124400000D03*
X155565000Y-124400000D03*
X156835000Y-124400000D03*
X158105000Y-124400000D03*
X159375000Y-124400000D03*
X160645000Y-124400000D03*
X161915000Y-124400000D03*
X163185000Y-124400000D03*
D115*
X164950000Y-125650000D03*
X164950000Y-126920000D03*
X164950000Y-128190000D03*
X164950000Y-129460000D03*
X164950000Y-130730000D03*
X164950000Y-132000000D03*
X164950000Y-133270000D03*
X164950000Y-134540000D03*
X164950000Y-135810000D03*
X164950000Y-137080000D03*
X164950000Y-138350000D03*
X164950000Y-139620000D03*
X164950000Y-140890000D03*
X164950000Y-142160000D03*
D117*
X153300000Y-133040000D03*
X153300000Y-133040000D03*
X153300000Y-134440000D03*
X153300000Y-135840000D03*
X154700000Y-133040000D03*
X154700000Y-134440000D03*
X154700000Y-135840000D03*
X154700000Y-135840000D03*
X156100000Y-133040000D03*
X156100000Y-134440000D03*
X156100000Y-135840000D03*
%TD*%
D118*
%TO.C,R43*%
X109900000Y-141690000D03*
X109900000Y-142710000D03*
%TD*%
D56*
%TO.C,C64*%
X104275000Y-114550000D03*
X102725000Y-114550000D03*
%TD*%
D118*
%TO.C,R30*%
X188500000Y-71190000D03*
X188500000Y-72210000D03*
%TD*%
D48*
%TO.C,C18*%
X179800000Y-102700000D03*
X185400000Y-102700000D03*
%TD*%
D119*
%TO.C,L1*%
X126525000Y-113450000D03*
X119475000Y-113450000D03*
%TD*%
D50*
%TO.C,Q3*%
X157430000Y-55500000D03*
D120*
X140770000Y-52960000D03*
D121*
X140770000Y-55500000D03*
X140770000Y-58040000D03*
%TD*%
D122*
%TO.C,J7*%
X157891000Y-85248000D03*
D123*
X157891000Y-82748000D03*
%TD*%
D46*
%TO.C,R22*%
X177820000Y-57500000D03*
X177180000Y-57500000D03*
%TD*%
D124*
%TO.C,R52*%
X102900000Y-104700000D03*
X104900000Y-104700000D03*
%TD*%
D68*
%TO.C,C34*%
X136480000Y-79100000D03*
X137120000Y-79100000D03*
%TD*%
D46*
%TO.C,R37*%
X177720000Y-106900000D03*
X177080000Y-106900000D03*
%TD*%
D125*
%TO.C,U5*%
X138275000Y-82425000D03*
X138275000Y-82925000D03*
X138275000Y-83425000D03*
X138275000Y-83925000D03*
X138275000Y-84425000D03*
X138275000Y-84925000D03*
X138275000Y-85425000D03*
X138275000Y-85925000D03*
X138275000Y-86425000D03*
X138275000Y-86925000D03*
X138275000Y-87425000D03*
X138275000Y-87925000D03*
X138275000Y-88425000D03*
X138275000Y-88925000D03*
X138275000Y-89425000D03*
X138275000Y-89925000D03*
D126*
X136350000Y-91850000D03*
X135850000Y-91850000D03*
X135350000Y-91850000D03*
X134850000Y-91850000D03*
X134350000Y-91850000D03*
X133850000Y-91850000D03*
X133350000Y-91850000D03*
X132850000Y-91850000D03*
X132350000Y-91850000D03*
X131850000Y-91850000D03*
X131350000Y-91850000D03*
X130850000Y-91850000D03*
X130350000Y-91850000D03*
X129850000Y-91850000D03*
X129350000Y-91850000D03*
X128850000Y-91850000D03*
D125*
X126925000Y-89925000D03*
X126925000Y-89425000D03*
X126925000Y-88925000D03*
X126925000Y-88425000D03*
X126925000Y-87925000D03*
X126925000Y-87425000D03*
X126925000Y-86925000D03*
X126925000Y-86425000D03*
X126925000Y-85925000D03*
X126925000Y-85425000D03*
X126925000Y-84925000D03*
X126925000Y-84425000D03*
X126925000Y-83925000D03*
X126925000Y-83425000D03*
X126925000Y-82925000D03*
X126925000Y-82425000D03*
D126*
X128850000Y-80500000D03*
X129350000Y-80500000D03*
X129850000Y-80500000D03*
X130350000Y-80500000D03*
X130850000Y-80500000D03*
X131350000Y-80500000D03*
X131850000Y-80500000D03*
X132350000Y-80500000D03*
X132850000Y-80500000D03*
X133350000Y-80500000D03*
X133850000Y-80500000D03*
X134350000Y-80500000D03*
X134850000Y-80500000D03*
X135350000Y-80500000D03*
X135850000Y-80500000D03*
X136350000Y-80500000D03*
%TD*%
D14*
%TO.C,J3*%
X190975000Y-93000000D03*
X196975000Y-93000000D03*
D82*
X194575000Y-89500000D03*
X197275000Y-96500000D03*
X198275000Y-89500000D03*
X190275000Y-96500000D03*
X188575000Y-89500000D03*
%TD*%
D104*
%TO.C,R40*%
X167790000Y-131300000D03*
X168810000Y-131300000D03*
%TD*%
D127*
%TO.C,U16*%
X102595000Y-107625000D03*
X103865000Y-107625000D03*
X105135000Y-107625000D03*
X106405000Y-107625000D03*
X106405000Y-112575000D03*
X105135000Y-112575000D03*
X103865000Y-112575000D03*
X102595000Y-112575000D03*
%TD*%
D47*
%TO.C,C37*%
X130545000Y-94275000D03*
X131505000Y-94275000D03*
%TD*%
D128*
%TO.C,BT1*%
X122345000Y-127600000D03*
X177955000Y-127600000D03*
D129*
X113700000Y-127600000D03*
D130*
X185700000Y-127600000D03*
%TD*%
D59*
%TO.C,R8*%
X186010000Y-131900000D03*
X184990000Y-131900000D03*
%TD*%
D47*
%TO.C,C61*%
X121840000Y-82200000D03*
X122800000Y-82200000D03*
%TD*%
D59*
%TO.C,R12*%
X133210000Y-56050000D03*
X132190000Y-56050000D03*
%TD*%
D101*
%TO.C,C62*%
X167300000Y-106450000D03*
X167300000Y-109150000D03*
%TD*%
D68*
%TO.C,C58*%
X126980000Y-101200000D03*
X127620000Y-101200000D03*
%TD*%
%TO.C,R53*%
X172980000Y-76950000D03*
X173620000Y-76950000D03*
%TD*%
D60*
%TO.C,R61*%
X135100000Y-126820000D03*
X135100000Y-127460000D03*
%TD*%
D46*
%TO.C,C5*%
X172720000Y-147000000D03*
X172080000Y-147000000D03*
%TD*%
D58*
%TO.C,C9*%
X110600000Y-101420000D03*
X110600000Y-102380000D03*
%TD*%
D68*
%TO.C,R25*%
X187880000Y-118500000D03*
X188520000Y-118500000D03*
%TD*%
D99*
%TO.C,C21*%
X165900000Y-114780000D03*
X165900000Y-113820000D03*
%TD*%
D60*
%TO.C,R4*%
X128250000Y-116480000D03*
X128250000Y-117120000D03*
%TD*%
D131*
%TO.C,Q5*%
X163250000Y-83637500D03*
X161350000Y-83637500D03*
X162300000Y-81762500D03*
%TD*%
D68*
%TO.C,R19*%
X109080000Y-126950000D03*
X109720000Y-126950000D03*
%TD*%
D47*
%TO.C,C41*%
X126140000Y-64100000D03*
X127100000Y-64100000D03*
%TD*%
D72*
%TO.C,C7*%
X121550000Y-121375000D03*
X121550000Y-122925000D03*
%TD*%
D68*
%TO.C,R21*%
X185880000Y-144800000D03*
X186520000Y-144800000D03*
%TD*%
%TO.C,R67*%
X152980000Y-114100000D03*
X153620000Y-114100000D03*
%TD*%
D132*
%TO.C,U11*%
X128850000Y-69200000D03*
X128850000Y-66900000D03*
D133*
X135150000Y-66900000D03*
D132*
X128850000Y-64600000D03*
%TD*%
D79*
%TO.C,R11*%
X171400000Y-84720000D03*
X171400000Y-84080000D03*
%TD*%
D44*
%TO.C,C66*%
X161276274Y-120473726D03*
X160823726Y-120926274D03*
%TD*%
D73*
%TO.C,C63*%
X111300000Y-83825000D03*
X111300000Y-82275000D03*
%TD*%
D134*
%TO.C,D2*%
X183350000Y-131400000D03*
X181450000Y-131400000D03*
X182400000Y-128400000D03*
%TD*%
D135*
%TO.C,R26*%
X161176274Y-117576274D03*
X160723726Y-117123726D03*
%TD*%
D46*
%TO.C,R51*%
X111420000Y-100500000D03*
X110780000Y-100500000D03*
%TD*%
D136*
%TO.C,U14*%
X128825000Y-102850000D03*
X129475000Y-102850000D03*
X130125000Y-102850000D03*
X130775000Y-102850000D03*
X130775000Y-101250000D03*
X130125000Y-101250000D03*
X129475000Y-101250000D03*
X128825000Y-101250000D03*
%TD*%
D60*
%TO.C,C33*%
X125500000Y-81480000D03*
X125500000Y-82120000D03*
%TD*%
D137*
%TO.C,K1*%
X181700000Y-78500000D03*
X184900000Y-78500000D03*
X187100000Y-78500000D03*
X189300000Y-78500000D03*
X189300000Y-85500000D03*
X187100000Y-85500000D03*
X184900000Y-85500000D03*
X181700000Y-85500000D03*
%TD*%
D59*
%TO.C,R48*%
X124760000Y-62000000D03*
X123740000Y-62000000D03*
%TD*%
D79*
%TO.C,C2*%
X146000000Y-140020000D03*
X146000000Y-139380000D03*
%TD*%
D138*
%TO.C,U3*%
X114677500Y-90725000D03*
X114677500Y-90075000D03*
X114677500Y-89425000D03*
X114677500Y-88775000D03*
X114677500Y-88125000D03*
X114677500Y-87475000D03*
X114677500Y-86825000D03*
X114677500Y-86175000D03*
X114677500Y-85525000D03*
X114677500Y-84875000D03*
X114677500Y-84225000D03*
X114677500Y-83575000D03*
X114677500Y-82925000D03*
X114677500Y-82275000D03*
X120402500Y-82275000D03*
X120402500Y-82925000D03*
X120402500Y-83575000D03*
X120402500Y-84225000D03*
X120402500Y-84875000D03*
X120402500Y-85525000D03*
X120402500Y-86175000D03*
X120402500Y-86825000D03*
X120402500Y-87475000D03*
X120402500Y-88125000D03*
X120402500Y-88775000D03*
X120402500Y-89425000D03*
X120402500Y-90075000D03*
X120402500Y-90725000D03*
D139*
X117540000Y-86500000D03*
%TD*%
D59*
%TO.C,R1*%
X177110000Y-147000000D03*
X176090000Y-147000000D03*
%TD*%
D56*
%TO.C,C81*%
X125425000Y-68300000D03*
X123875000Y-68300000D03*
%TD*%
D59*
%TO.C,R24*%
X175610000Y-114800000D03*
X174590000Y-114800000D03*
%TD*%
D140*
%TO.C,U17*%
X158520000Y-62830000D03*
D141*
X156450000Y-64100000D03*
X158520000Y-65370000D03*
%TD*%
D142*
%TO.C,R20*%
X189000000Y-134750000D03*
X189000000Y-131650000D03*
%TD*%
D46*
%TO.C,C3*%
X188820000Y-137800000D03*
X188180000Y-137800000D03*
%TD*%
D59*
%TO.C,R34*%
X124410000Y-76200000D03*
X123390000Y-76200000D03*
%TD*%
D71*
%TO.C,D17*%
X143950000Y-89200000D03*
X142450000Y-89200000D03*
X142450000Y-94600000D03*
X143950000Y-94600000D03*
%TD*%
D88*
%TO.C,J5*%
X106400000Y-131490000D03*
X106400000Y-125710000D03*
D89*
X107650000Y-131800000D03*
X107600000Y-131000000D03*
D90*
X107600000Y-129850000D03*
X107600000Y-128850000D03*
X107600000Y-128350000D03*
X107600000Y-127350000D03*
D89*
X107600000Y-126200000D03*
X107650000Y-125400000D03*
X107650000Y-125400000D03*
X107600000Y-126200000D03*
D90*
X107600000Y-126850000D03*
X107600000Y-127850000D03*
X107600000Y-129350000D03*
X107600000Y-130350000D03*
D89*
X107600000Y-131000000D03*
X107650000Y-131800000D03*
D91*
X102700000Y-133420000D03*
D92*
X106880000Y-133420000D03*
D91*
X102700000Y-123780000D03*
D92*
X106880000Y-123780000D03*
%TD*%
D68*
%TO.C,C55*%
X119230000Y-133350000D03*
X119870000Y-133350000D03*
%TD*%
D46*
%TO.C,R64*%
X111720000Y-103800000D03*
X111080000Y-103800000D03*
%TD*%
D71*
%TO.C,D16*%
X148450000Y-89150000D03*
X146950000Y-89150000D03*
X146950000Y-94550000D03*
X148450000Y-94550000D03*
%TD*%
D46*
%TO.C,R41*%
X174920000Y-137000000D03*
X174280000Y-137000000D03*
%TD*%
D131*
%TO.C,Q2*%
X189850000Y-68037500D03*
X187950000Y-68037500D03*
X188900000Y-66162500D03*
%TD*%
D143*
%TO.C,R23*%
X183100000Y-119025000D03*
X183100000Y-116975000D03*
%TD*%
D68*
%TO.C,R36*%
X177080000Y-106100000D03*
X177720000Y-106100000D03*
%TD*%
D99*
%TO.C,C38*%
X113200000Y-91330000D03*
X113200000Y-90370000D03*
%TD*%
D60*
%TO.C,R57*%
X138400000Y-126770000D03*
X138400000Y-127410000D03*
%TD*%
D98*
%TO.C,C44*%
X127130000Y-67000000D03*
X126170000Y-67000000D03*
%TD*%
D118*
%TO.C,R42*%
X184500000Y-121840000D03*
X184500000Y-122860000D03*
%TD*%
D79*
%TO.C,R2*%
X145900000Y-138620000D03*
X145900000Y-137980000D03*
%TD*%
D104*
%TO.C,R14*%
X108690000Y-100500000D03*
X109710000Y-100500000D03*
%TD*%
D80*
%TO.C,D14*%
X182300000Y-75400000D03*
X178500000Y-75400000D03*
%TD*%
D144*
%TO.C,JP1*%
X180900000Y-118850000D03*
X180900000Y-117550000D03*
%TD*%
D72*
%TO.C,C79*%
X121100000Y-65225000D03*
X121100000Y-66775000D03*
%TD*%
D60*
%TO.C,R56*%
X136200000Y-126770000D03*
X136200000Y-127410000D03*
%TD*%
D131*
%TO.C,Q1*%
X134212500Y-54587500D03*
X132312500Y-54587500D03*
X133262500Y-52712500D03*
%TD*%
D98*
%TO.C,C42*%
X127100000Y-65100000D03*
X126140000Y-65100000D03*
%TD*%
D46*
%TO.C,C40*%
X168920000Y-123300000D03*
X168280000Y-123300000D03*
%TD*%
D98*
%TO.C,C8*%
X109180000Y-93050000D03*
X108220000Y-93050000D03*
%TD*%
%TO.C,C82*%
X122230000Y-61100000D03*
X121270000Y-61100000D03*
%TD*%
D59*
%TO.C,R29*%
X173810000Y-82700000D03*
X172790000Y-82700000D03*
%TD*%
D102*
%TO.C,R13*%
X138350000Y-54412500D03*
X138350000Y-51487500D03*
%TD*%
D67*
%TO.C,C13*%
X160639411Y-119910589D03*
X159960589Y-120589411D03*
%TD*%
D104*
%TO.C,R16*%
X108190000Y-94000000D03*
X109210000Y-94000000D03*
%TD*%
D118*
%TO.C,R70*%
X163600000Y-96090001D03*
X163600000Y-97109999D03*
%TD*%
D49*
%TO.C,R47*%
X136925000Y-114400000D03*
X138575000Y-114400000D03*
%TD*%
D59*
%TO.C,R6*%
X184560000Y-75400000D03*
X183540000Y-75400000D03*
%TD*%
D60*
%TO.C,C11*%
X178900000Y-140530000D03*
X178900000Y-141170000D03*
%TD*%
D79*
%TO.C,R17*%
X110200000Y-94320000D03*
X110200000Y-93680000D03*
%TD*%
D59*
%TO.C,R66*%
X169310000Y-122400000D03*
X168290000Y-122400000D03*
%TD*%
D145*
%TO.C,J26*%
X128430000Y-72650000D03*
X128430000Y-77150000D03*
X129700000Y-72650000D03*
X129700000Y-77150000D03*
X130970000Y-72650000D03*
X130970000Y-77150000D03*
%TD*%
D146*
%TO.C,R44*%
X120100000Y-138310000D03*
X120100000Y-137290000D03*
%TD*%
D104*
%TO.C,R9*%
X117690000Y-142400000D03*
X118710000Y-142400000D03*
%TD*%
D46*
%TO.C,C46*%
X155020000Y-88750000D03*
X154380000Y-88750000D03*
%TD*%
D60*
%TO.C,R50*%
X108400000Y-108180000D03*
X108400000Y-108820000D03*
%TD*%
D68*
%TO.C,R31*%
X188580000Y-70000000D03*
X189220000Y-70000000D03*
%TD*%
D72*
%TO.C,C6*%
X145600000Y-141125000D03*
X145600000Y-142675000D03*
%TD*%
D147*
%TO.C,R46*%
X189000000Y-140350000D03*
X189000000Y-143450000D03*
%TD*%
D148*
%TO.C,FB2*%
X129412500Y-93650000D03*
X127837500Y-93650000D03*
%TD*%
D106*
%TO.C,U7*%
X180600000Y-143455000D03*
X180600000Y-142185000D03*
X180600000Y-140915000D03*
X180600000Y-139645000D03*
X186600000Y-139645000D03*
X186600000Y-140915000D03*
X186600000Y-142185000D03*
X186600000Y-143455000D03*
%TD*%
D24*
%TO.C,TP1*%
X133000000Y-78200000D03*
%TD*%
D76*
%TO.C,C4*%
X136800000Y-112400000D03*
X138700000Y-112400000D03*
%TD*%
D68*
%TO.C,R27*%
X192280000Y-119300000D03*
X192920000Y-119300000D03*
%TD*%
D73*
%TO.C,C51*%
X112000000Y-90725000D03*
X112000000Y-89175000D03*
%TD*%
D59*
%TO.C,R5*%
X180110000Y-131400000D03*
X179090000Y-131400000D03*
%TD*%
D79*
%TO.C,C57*%
X117600000Y-148820000D03*
X117600000Y-148180000D03*
%TD*%
%LPD*%
M02*
