%TF.GenerationSoftware,KiCad,Pcbnew,8.0.3*%
%TF.CreationDate,2024-08-25T19:37:56+02:00*%
%TF.ProjectId,labathome_pcb15,6c616261-7468-46f6-9d65-5f7063623135,rev?*%
%TF.SameCoordinates,Original*%
%TF.FileFunction,Soldermask,Bot*%
%TF.FilePolarity,Negative*%
%FSLAX46Y46*%
G04 Gerber Fmt 4.6, Leading zero omitted, Abs format (unit mm)*
G04 Created by KiCad (PCBNEW 8.0.3) date 2024-08-25 19:37:56*
%MOMM*%
%LPD*%
G01*
G04 APERTURE LIST*
G04 Aperture macros list*
%AMRoundRect*
0 Rectangle with rounded corners*
0 $1 Rounding radius*
0 $2 $3 $4 $5 $6 $7 $8 $9 X,Y pos of 4 corners*
0 Add a 4 corners polygon primitive as box body*
4,1,4,$2,$3,$4,$5,$6,$7,$8,$9,$2,$3,0*
0 Add four circle primitives for the rounded corners*
1,1,$1+$1,$2,$3*
1,1,$1+$1,$4,$5*
1,1,$1+$1,$6,$7*
1,1,$1+$1,$8,$9*
0 Add four rect primitives between the rounded corners*
20,1,$1+$1,$2,$3,$4,$5,0*
20,1,$1+$1,$4,$5,$6,$7,0*
20,1,$1+$1,$6,$7,$8,$9,0*
20,1,$1+$1,$8,$9,$2,$3,0*%
G04 Aperture macros list end*
%ADD10R,1.700000X1.700000*%
%ADD11O,1.700000X1.700000*%
%ADD12O,1.800000X1.400000*%
%ADD13RoundRect,0.500000X0.350000X0.350000X-0.350000X0.350000X-0.350000X-0.350000X0.350000X-0.350000X0*%
%ADD14RoundRect,0.750000X-1.000000X0.750000X-1.000000X-0.750000X1.000000X-0.750000X1.000000X0.750000X0*%
%ADD15RoundRect,0.750000X-1.000000X1.000000X-1.000000X-1.000000X1.000000X-1.000000X1.000000X1.000000X0*%
%ADD16RoundRect,0.875000X-0.875000X0.875000X-0.875000X-0.875000X0.875000X-0.875000X0.875000X0.875000X0*%
%ADD17RoundRect,0.450000X-0.750000X0.450000X-0.750000X-0.450000X0.750000X-0.450000X0.750000X0.450000X0*%
%ADD18RoundRect,0.250000X0.600000X-0.600000X0.600000X0.600000X-0.600000X0.600000X-0.600000X-0.600000X0*%
%ADD19O,1.900000X3.200000*%
%ADD20C,1.500000*%
%ADD21R,1.100000X1.800000*%
%ADD22RoundRect,0.275000X-0.275000X-0.625000X0.275000X-0.625000X0.275000X0.625000X-0.275000X0.625000X0*%
%ADD23RoundRect,0.450000X0.750000X-0.450000X0.750000X0.450000X-0.750000X0.450000X-0.750000X-0.450000X0*%
%ADD24RoundRect,0.400000X-0.400000X-0.400000X0.400000X-0.400000X0.400000X0.400000X-0.400000X0.400000X0*%
%ADD25O,1.800000X1.600000*%
%ADD26R,1.000000X1.000000*%
%ADD27O,1.000000X1.000000*%
%ADD28O,1.400000X1.800000*%
%ADD29O,1.600000X2.200000*%
%ADD30RoundRect,0.220589X0.529411X-0.529411X0.529411X0.529411X-0.529411X0.529411X-0.529411X-0.529411X0*%
%ADD31O,1.700000X1.500000*%
%ADD32O,1.500000X1.700000*%
%ADD33C,1.700000*%
%ADD34RoundRect,0.400000X-0.400000X-0.600000X0.400000X-0.600000X0.400000X0.600000X-0.400000X0.600000X0*%
%ADD35O,1.600000X2.000000*%
%ADD36R,1.350000X1.350000*%
%ADD37C,1.350000*%
%ADD38C,1.200000*%
%ADD39RoundRect,0.400000X-0.400000X0.600000X-0.400000X-0.600000X0.400000X-0.600000X0.400000X0.600000X0*%
%ADD40R,2.000000X3.200000*%
%ADD41C,3.400000*%
%ADD42C,1.600000*%
%ADD43O,1.600000X1.600000*%
%ADD44RoundRect,0.250000X0.550000X-0.550000X0.550000X0.550000X-0.550000X0.550000X-0.550000X-0.550000X0*%
%ADD45RoundRect,0.500000X0.350000X-0.350000X0.350000X0.350000X-0.350000X0.350000X-0.350000X-0.350000X0*%
%ADD46O,1.600000X1.200000*%
%ADD47RoundRect,0.135000X-0.035355X0.226274X-0.226274X0.035355X0.035355X-0.226274X0.226274X-0.035355X0*%
%ADD48RoundRect,0.150000X-0.587500X-0.150000X0.587500X-0.150000X0.587500X0.150000X-0.587500X0.150000X0*%
%ADD49RoundRect,0.140000X0.140000X0.170000X-0.140000X0.170000X-0.140000X-0.170000X0.140000X-0.170000X0*%
%ADD50RoundRect,0.140000X-0.140000X-0.170000X0.140000X-0.170000X0.140000X0.170000X-0.140000X0.170000X0*%
%ADD51RoundRect,0.250000X-1.500000X-0.550000X1.500000X-0.550000X1.500000X0.550000X-1.500000X0.550000X0*%
%ADD52RoundRect,0.200000X-0.200000X-0.275000X0.200000X-0.275000X0.200000X0.275000X-0.200000X0.275000X0*%
%ADD53O,3.500000X3.500000*%
%ADD54C,3.600000*%
%ADD55RoundRect,0.250000X-0.450000X0.350000X-0.450000X-0.350000X0.450000X-0.350000X0.450000X0.350000X0*%
%ADD56RoundRect,0.135000X0.135000X0.185000X-0.135000X0.185000X-0.135000X-0.185000X0.135000X-0.185000X0*%
%ADD57C,0.900000*%
%ADD58R,2.000000X0.700000*%
%ADD59R,0.800000X2.000000*%
%ADD60RoundRect,0.225000X0.225000X0.250000X-0.225000X0.250000X-0.225000X-0.250000X0.225000X-0.250000X0*%
%ADD61RoundRect,0.140000X-0.170000X0.140000X-0.170000X-0.140000X0.170000X-0.140000X0.170000X0.140000X0*%
%ADD62RoundRect,0.135000X-0.185000X0.135000X-0.185000X-0.135000X0.185000X-0.135000X0.185000X0.135000X0*%
%ADD63C,1.000000*%
%ADD64R,0.700000X1.600000*%
%ADD65R,1.200000X2.200000*%
%ADD66R,1.200000X1.500000*%
%ADD67R,1.600000X1.500000*%
%ADD68RoundRect,0.250000X-0.425000X0.450000X-0.425000X-0.450000X0.425000X-0.450000X0.425000X0.450000X0*%
%ADD69RoundRect,0.135000X-0.135000X-0.185000X0.135000X-0.185000X0.135000X0.185000X-0.135000X0.185000X0*%
%ADD70RoundRect,0.335000X-1.340000X-1.365000X1.340000X-1.365000X1.340000X1.365000X-1.340000X1.365000X0*%
%ADD71RoundRect,0.225000X-0.250000X0.225000X-0.250000X-0.225000X0.250000X-0.225000X0.250000X0.225000X0*%
%ADD72RoundRect,0.225000X0.250000X-0.225000X0.250000X0.225000X-0.250000X0.225000X-0.250000X-0.225000X0*%
%ADD73RoundRect,0.140000X0.170000X-0.140000X0.170000X0.140000X-0.170000X0.140000X-0.170000X-0.140000X0*%
%ADD74RoundRect,0.225000X-0.225000X-0.250000X0.225000X-0.250000X0.225000X0.250000X-0.225000X0.250000X0*%
%ADD75C,2.000000*%
%ADD76RoundRect,0.112500X0.112500X-0.187500X0.112500X0.187500X-0.112500X0.187500X-0.112500X-0.187500X0*%
%ADD77RoundRect,0.250000X0.750000X-1.250000X0.750000X1.250000X-0.750000X1.250000X-0.750000X-1.250000X0*%
%ADD78RoundRect,0.150000X0.512500X0.150000X-0.512500X0.150000X-0.512500X-0.150000X0.512500X-0.150000X0*%
%ADD79RoundRect,0.112500X-0.112500X0.187500X-0.112500X-0.187500X0.112500X-0.187500X0.112500X0.187500X0*%
%ADD80O,1.350000X1.350000*%
%ADD81RoundRect,0.250000X0.325000X0.650000X-0.325000X0.650000X-0.325000X-0.650000X0.325000X-0.650000X0*%
%ADD82C,0.650000*%
%ADD83R,1.450000X0.600000*%
%ADD84R,1.450000X0.300000*%
%ADD85O,2.500000X2.000000*%
%ADD86O,3.500000X2.000000*%
%ADD87RoundRect,0.062500X0.062500X-0.337500X0.062500X0.337500X-0.062500X0.337500X-0.062500X-0.337500X0*%
%ADD88RoundRect,0.062500X0.337500X-0.062500X0.337500X0.062500X-0.337500X0.062500X-0.337500X-0.062500X0*%
%ADD89R,3.600000X3.600000*%
%ADD90RoundRect,0.218750X-0.256250X0.218750X-0.256250X-0.218750X0.256250X-0.218750X0.256250X0.218750X0*%
%ADD91RoundRect,0.250000X0.425000X-0.450000X0.425000X0.450000X-0.425000X0.450000X-0.425000X-0.450000X0*%
%ADD92RoundRect,0.200000X0.750000X0.200000X-0.750000X0.200000X-0.750000X-0.200000X0.750000X-0.200000X0*%
%ADD93RoundRect,0.250000X0.450000X0.425000X-0.450000X0.425000X-0.450000X-0.425000X0.450000X-0.425000X0*%
%ADD94RoundRect,0.250000X0.625000X-0.312500X0.625000X0.312500X-0.625000X0.312500X-0.625000X-0.312500X0*%
%ADD95RoundRect,0.162500X0.162500X-0.617500X0.162500X0.617500X-0.162500X0.617500X-0.162500X-0.617500X0*%
%ADD96R,0.800000X0.500000*%
%ADD97R,2.200000X0.600000*%
%ADD98RoundRect,0.150000X0.625000X-0.150000X0.625000X0.150000X-0.625000X0.150000X-0.625000X-0.150000X0*%
%ADD99RoundRect,0.250000X0.650000X-0.350000X0.650000X0.350000X-0.650000X0.350000X-0.650000X-0.350000X0*%
%ADD100RoundRect,0.087500X-0.225000X-0.087500X0.225000X-0.087500X0.225000X0.087500X-0.225000X0.087500X0*%
%ADD101RoundRect,0.087500X-0.087500X-0.225000X0.087500X-0.225000X0.087500X0.225000X-0.087500X0.225000X0*%
%ADD102R,1.500000X0.900000*%
%ADD103R,0.900000X1.500000*%
%ADD104R,0.900000X0.900000*%
%ADD105RoundRect,0.335000X1.340000X1.365000X-1.340000X1.365000X-1.340000X-1.365000X1.340000X-1.365000X0*%
%ADD106R,2.000000X1.905000*%
%ADD107O,2.000000X1.905000*%
%ADD108RoundRect,0.250000X0.750000X-0.600000X0.750000X0.600000X-0.750000X0.600000X-0.750000X-0.600000X0*%
%ADD109O,2.000000X1.700000*%
%ADD110RoundRect,0.250000X-0.350000X-0.450000X0.350000X-0.450000X0.350000X0.450000X-0.350000X0.450000X0*%
%ADD111RoundRect,0.075000X0.700000X0.075000X-0.700000X0.075000X-0.700000X-0.075000X0.700000X-0.075000X0*%
%ADD112RoundRect,0.075000X0.075000X0.700000X-0.075000X0.700000X-0.075000X-0.700000X0.075000X-0.700000X0*%
%ADD113RoundRect,0.150000X-0.150000X0.825000X-0.150000X-0.825000X0.150000X-0.825000X0.150000X0.825000X0*%
%ADD114C,3.200000*%
%ADD115RoundRect,0.500000X-1.250000X-1.250000X1.250000X-1.250000X1.250000X1.250000X-1.250000X1.250000X0*%
%ADD116C,3.500000*%
%ADD117RoundRect,0.150000X0.150000X-0.587500X0.150000X0.587500X-0.150000X0.587500X-0.150000X-0.587500X0*%
%ADD118RoundRect,0.375000X-0.625000X-0.375000X0.625000X-0.375000X0.625000X0.375000X-0.625000X0.375000X0*%
%ADD119RoundRect,0.500000X-0.500000X-1.400000X0.500000X-1.400000X0.500000X1.400000X-0.500000X1.400000X0*%
%ADD120RoundRect,0.135000X0.185000X-0.135000X0.185000X0.135000X-0.185000X0.135000X-0.185000X-0.135000X0*%
%ADD121RoundRect,0.200000X0.200000X-0.750000X0.200000X0.750000X-0.200000X0.750000X-0.200000X-0.750000X0*%
%ADD122R,0.350000X0.500000*%
%ADD123R,0.800000X1.800000*%
%ADD124RoundRect,0.100000X-0.637500X-0.100000X0.637500X-0.100000X0.637500X0.100000X-0.637500X0.100000X0*%
%ADD125R,2.850000X5.400000*%
%ADD126R,1.800000X1.100000*%
%ADD127RoundRect,0.275000X-0.625000X0.275000X-0.625000X-0.275000X0.625000X-0.275000X0.625000X0.275000X0*%
%ADD128RoundRect,0.250000X0.625000X-0.400000X0.625000X0.400000X-0.625000X0.400000X-0.625000X-0.400000X0*%
%ADD129RoundRect,0.250000X0.450000X-0.325000X0.450000X0.325000X-0.450000X0.325000X-0.450000X-0.325000X0*%
%ADD130R,1.500000X1.000000*%
%ADD131RoundRect,0.150000X0.587500X0.150000X-0.587500X0.150000X-0.587500X-0.150000X0.587500X-0.150000X0*%
%ADD132RoundRect,0.150000X0.150000X-0.512500X0.150000X0.512500X-0.150000X0.512500X-0.150000X-0.512500X0*%
%ADD133RoundRect,0.150000X0.825000X0.150000X-0.825000X0.150000X-0.825000X-0.150000X0.825000X-0.150000X0*%
%ADD134R,2.300000X2.300000*%
%ADD135RoundRect,0.250000X0.400000X0.625000X-0.400000X0.625000X-0.400000X-0.625000X0.400000X-0.625000X0*%
%ADD136RoundRect,0.218750X0.218750X0.256250X-0.218750X0.256250X-0.218750X-0.256250X0.218750X-0.256250X0*%
G04 APERTURE END LIST*
D10*
%TO.C,J12*%
X111600000Y-148380000D03*
D11*
X111600000Y-145840000D03*
X111600000Y-143300000D03*
X111600000Y-140760000D03*
X111600000Y-138220000D03*
X111600000Y-135680000D03*
X111600000Y-133140000D03*
X111600000Y-130600000D03*
%TD*%
D12*
%TO.C,SW9*%
X111600000Y-56800000D03*
X111600000Y-54300000D03*
X111600000Y-51800000D03*
%TD*%
D13*
%TO.C,J32*%
X148730000Y-86777000D03*
D11*
X148730000Y-84237000D03*
X148730000Y-81697000D03*
%TD*%
D10*
%TO.C,J10*%
X114800000Y-110600000D03*
D11*
X114800000Y-113140000D03*
X114800000Y-115680000D03*
X114800000Y-118220000D03*
X114800000Y-120760000D03*
X114800000Y-123300000D03*
%TD*%
D14*
%TO.C,J9*%
X118457500Y-57700000D03*
D15*
X118457500Y-63700000D03*
D16*
X113757500Y-60700000D03*
%TD*%
D17*
%TO.C,J27*%
X108005000Y-110950000D03*
X108005000Y-114450000D03*
X108005000Y-117950000D03*
X108005000Y-121450000D03*
%TD*%
D18*
%TO.C,J34*%
X120725000Y-95350000D03*
D11*
X120725000Y-92810000D03*
X123265000Y-95350000D03*
X123265000Y-92810000D03*
X125805000Y-95350000D03*
X125805000Y-92810000D03*
%TD*%
D19*
%TO.C,SW7*%
X175550000Y-91200000D03*
X175550000Y-103700000D03*
X170550000Y-91200000D03*
X170550000Y-103700000D03*
%TD*%
D20*
%TO.C,R32*%
X174800000Y-86400000D03*
X171400000Y-86400000D03*
%TD*%
D21*
%TO.C,U13*%
X181850000Y-124400000D03*
D22*
X183120000Y-122330000D03*
X184390000Y-124400000D03*
%TD*%
D17*
%TO.C,J1*%
X108005000Y-95550000D03*
X108005000Y-99050000D03*
X108005000Y-102550000D03*
X108005000Y-106050000D03*
%TD*%
D23*
%TO.C,J18*%
X191995000Y-89150000D03*
X191995000Y-85650000D03*
X191995000Y-82150000D03*
X191995000Y-78650000D03*
%TD*%
%TO.C,J15*%
X192000000Y-147550000D03*
X192000000Y-144050000D03*
X192000000Y-140550000D03*
X192000000Y-137050000D03*
%TD*%
D17*
%TO.C,J2*%
X108005000Y-137050000D03*
X108005000Y-140550000D03*
X108005000Y-144050000D03*
X108005000Y-147550000D03*
%TD*%
D24*
%TO.C,M1*%
X162540000Y-51500000D03*
D25*
X162540000Y-54040000D03*
X162540000Y-56580000D03*
X162540000Y-59120000D03*
X162540000Y-61660000D03*
X162540000Y-64200000D03*
X182860000Y-64200000D03*
X182860000Y-61660000D03*
X182860000Y-59120000D03*
X182860000Y-56580000D03*
X182860000Y-54040000D03*
X182860000Y-51500000D03*
%TD*%
D19*
%TO.C,SW8*%
X175600000Y-124350000D03*
X175600000Y-136850000D03*
X170600000Y-124350000D03*
X170600000Y-136850000D03*
%TD*%
D26*
%TO.C,J6*%
X168240000Y-141680000D03*
D27*
X169510000Y-141680000D03*
X168240000Y-142950000D03*
X169510000Y-142950000D03*
X168240000Y-144220000D03*
X169510000Y-144220000D03*
%TD*%
D10*
%TO.C,J19*%
X111200000Y-123300000D03*
D11*
X111200000Y-120760000D03*
X111200000Y-118220000D03*
X111200000Y-115680000D03*
X111200000Y-113140000D03*
X111200000Y-110600000D03*
%TD*%
D28*
%TO.C,SW4*%
X134100000Y-110900000D03*
X131600000Y-110900000D03*
X129100000Y-110900000D03*
%TD*%
D10*
%TO.C,J20*%
X115200000Y-130680000D03*
D11*
X115200000Y-133220000D03*
X115200000Y-135760000D03*
X115200000Y-138300000D03*
X115200000Y-140840000D03*
X115200000Y-143380000D03*
X115200000Y-145920000D03*
X115200000Y-148460000D03*
%TD*%
D10*
%TO.C,J4*%
X115000000Y-104700000D03*
D11*
X115000000Y-102160000D03*
X115000000Y-99620000D03*
X115000000Y-97080000D03*
%TD*%
D29*
%TO.C,X3*%
X164880000Y-68300000D03*
X167420000Y-68300000D03*
X169960000Y-68300000D03*
X172500000Y-68300000D03*
X175040000Y-68300000D03*
X177580000Y-68300000D03*
X180120000Y-68300000D03*
%TD*%
D13*
%TO.C,J30*%
X153810000Y-86777000D03*
D11*
X153810000Y-84237000D03*
X153810000Y-81697000D03*
%TD*%
D17*
%TO.C,J22*%
X108005000Y-52450000D03*
X108005000Y-55950000D03*
X108005000Y-59450000D03*
X108005000Y-62950000D03*
%TD*%
D30*
%TO.C,J26*%
X121800000Y-77800000D03*
D31*
X121800000Y-75260000D03*
D32*
X124340000Y-77800000D03*
D31*
X124340000Y-75260000D03*
D32*
X126880000Y-77800000D03*
D31*
X126880000Y-75260000D03*
D32*
X129420000Y-77800000D03*
D20*
X129420000Y-75260000D03*
X131960000Y-77800000D03*
X131960000Y-75260000D03*
D31*
X134500000Y-77800000D03*
X134500000Y-75260000D03*
D33*
X137040000Y-77800000D03*
X137040000Y-75260000D03*
%TD*%
D10*
%TO.C,U15*%
X168875000Y-62489500D03*
D33*
X168875000Y-59949500D03*
X171415000Y-62489500D03*
X171415000Y-59949500D03*
X173955000Y-62489500D03*
X173955000Y-59949500D03*
X176495000Y-62489500D03*
X176495000Y-59949500D03*
%TD*%
D34*
%TO.C,U21*%
X142380000Y-112000000D03*
D35*
X144920000Y-112000000D03*
X147460000Y-112000000D03*
X150000000Y-112000000D03*
X152540000Y-112000000D03*
X155080000Y-112000000D03*
X157620000Y-112000000D03*
%TD*%
D13*
%TO.C,J33*%
X151270000Y-86792000D03*
D11*
X151270000Y-84252000D03*
X151270000Y-81712000D03*
%TD*%
D36*
%TO.C,U6*%
X165792500Y-51492500D03*
D37*
X165792500Y-53492500D03*
X165792500Y-55492500D03*
X165792500Y-57492500D03*
X165792500Y-59492500D03*
X165792500Y-61492500D03*
X165792500Y-63492500D03*
X165792500Y-65492500D03*
X179392500Y-65492500D03*
X179392500Y-63492500D03*
X179392500Y-61492500D03*
X179392500Y-59492500D03*
X179392500Y-57492500D03*
X179392500Y-55492500D03*
X179392500Y-53492500D03*
X179392500Y-51492500D03*
%TD*%
D38*
%TO.C,MK1*%
X184350000Y-115300000D03*
X182450000Y-115300000D03*
%TD*%
D39*
%TO.C,SW6*%
X175600000Y-106800000D03*
D35*
X170600000Y-106800000D03*
X173100000Y-106800000D03*
D40*
X178700000Y-114300000D03*
X167500000Y-114300000D03*
D35*
X170600000Y-121300000D03*
X175600000Y-121300000D03*
%TD*%
D23*
%TO.C,J24*%
X191995000Y-73750000D03*
X191995000Y-70250000D03*
X191995000Y-66750000D03*
X191995000Y-63250000D03*
%TD*%
D10*
%TO.C,J23*%
X123700000Y-105900000D03*
D11*
X126240000Y-105900000D03*
X128780000Y-105900000D03*
X131320000Y-105900000D03*
X133860000Y-105900000D03*
X136400000Y-105900000D03*
%TD*%
D41*
%TO.C,X1*%
X125000000Y-142505000D03*
X175000000Y-142505000D03*
%TD*%
D42*
%TO.C,R38*%
X111240000Y-87130000D03*
D43*
X123940000Y-87130000D03*
%TD*%
D44*
%TO.C,C39*%
X112800000Y-83082380D03*
D42*
X112800000Y-80582380D03*
%TD*%
D13*
%TO.C,J31*%
X146190000Y-86792000D03*
D11*
X146190000Y-84252000D03*
X146190000Y-81712000D03*
%TD*%
D45*
%TO.C,J8*%
X129050000Y-99900000D03*
D11*
X131590000Y-99900000D03*
X134130000Y-99900000D03*
X136670000Y-99900000D03*
%TD*%
D17*
%TO.C,J28*%
X108005000Y-80150000D03*
X108005000Y-83650000D03*
X108005000Y-87150000D03*
X108005000Y-90650000D03*
%TD*%
D23*
%TO.C,J21*%
X192000000Y-132150000D03*
X192000000Y-128650000D03*
X192000000Y-125150000D03*
X192000000Y-121650000D03*
%TD*%
D46*
%TO.C,U22*%
X175800000Y-78820000D03*
D38*
X175800000Y-76580000D03*
X174220000Y-75000000D03*
X170400000Y-76580000D03*
X170400000Y-78820000D03*
X171980000Y-80400000D03*
%TD*%
D47*
%TO.C,R63*%
X122760624Y-85689376D03*
X122039376Y-86410624D03*
%TD*%
D48*
%TO.C,Q4*%
X175012500Y-84800000D03*
X175012500Y-82900000D03*
X176887500Y-83850000D03*
%TD*%
D49*
%TO.C,C32*%
X127980000Y-92000000D03*
X127020000Y-92000000D03*
%TD*%
D50*
%TO.C,C43*%
X126120000Y-66400000D03*
X127080000Y-66400000D03*
%TD*%
D51*
%TO.C,C19*%
X180000000Y-105950000D03*
X185600000Y-105950000D03*
%TD*%
D52*
%TO.C,R7*%
X120275000Y-118100000D03*
X121925000Y-118100000D03*
%TD*%
D53*
%TO.C,R33*%
X127750000Y-53800000D03*
X172250000Y-53800000D03*
D54*
X110300000Y-63800000D03*
X189700000Y-63800000D03*
%TD*%
D55*
%TO.C,R49*%
X104850000Y-100900000D03*
X104850000Y-102900000D03*
%TD*%
D56*
%TO.C,R45*%
X163910000Y-85150000D03*
X162890000Y-85150000D03*
%TD*%
D57*
%TO.C,SW3*%
X196930000Y-142700000D03*
X196930000Y-145700000D03*
D58*
X194920000Y-141950000D03*
X194920000Y-144950000D03*
X194920000Y-146450000D03*
D59*
X198030000Y-140050000D03*
X195820000Y-140050000D03*
X198030000Y-148350000D03*
X195820000Y-148350000D03*
%TD*%
D60*
%TO.C,C84*%
X114375000Y-65100000D03*
X112825000Y-65100000D03*
%TD*%
D61*
%TO.C,C14*%
X175400000Y-98620000D03*
X175400000Y-99580000D03*
%TD*%
D56*
%TO.C,R60*%
X121810000Y-55600000D03*
X120790000Y-55600000D03*
%TD*%
D61*
%TO.C,C10*%
X110900000Y-104720000D03*
X110900000Y-105680000D03*
%TD*%
D56*
%TO.C,R69*%
X110500000Y-90900000D03*
X109480000Y-90900000D03*
%TD*%
D62*
%TO.C,R68*%
X110500000Y-88990000D03*
X110500000Y-90010000D03*
%TD*%
D63*
%TO.C,J17*%
X141200000Y-139975000D03*
X133200000Y-139975000D03*
D64*
X134000000Y-128975000D03*
X135100000Y-128975000D03*
X136200000Y-128975000D03*
X137300000Y-128975000D03*
X138400000Y-128975000D03*
X139500000Y-128975000D03*
X140600000Y-128975000D03*
X141700000Y-128975000D03*
X142800000Y-128975000D03*
D65*
X144000000Y-139575000D03*
D66*
X144000000Y-129975000D03*
D67*
X129400000Y-129975000D03*
D65*
X128500000Y-139575000D03*
%TD*%
D68*
%TO.C,C17*%
X185850000Y-90750000D03*
X185850000Y-93450000D03*
%TD*%
D49*
%TO.C,C12*%
X168280000Y-96850000D03*
X167320000Y-96850000D03*
%TD*%
D69*
%TO.C,R59*%
X114590000Y-55860000D03*
X115610000Y-55860000D03*
%TD*%
D70*
%TO.C,L4*%
X115675000Y-69300000D03*
X122725000Y-69300000D03*
%TD*%
D57*
%TO.C,SW2*%
X196900000Y-131700000D03*
X196900000Y-134700000D03*
D58*
X194890000Y-130950000D03*
X194890000Y-133950000D03*
X194890000Y-135450000D03*
D59*
X198000000Y-129050000D03*
X195790000Y-129050000D03*
X198000000Y-137350000D03*
X195790000Y-137350000D03*
%TD*%
D71*
%TO.C,C28*%
X134600000Y-107825000D03*
X134600000Y-109375000D03*
%TD*%
D72*
%TO.C,C52*%
X112000000Y-90725000D03*
X112000000Y-89175000D03*
%TD*%
D73*
%TO.C,C50*%
X140475000Y-89830000D03*
X140475000Y-88870000D03*
%TD*%
D50*
%TO.C,C36*%
X137220000Y-79400000D03*
X138180000Y-79400000D03*
%TD*%
D74*
%TO.C,C1*%
X139925000Y-115700000D03*
X141475000Y-115700000D03*
%TD*%
D49*
%TO.C,C54*%
X118355000Y-133350000D03*
X117395000Y-133350000D03*
%TD*%
D73*
%TO.C,C25*%
X134500000Y-74030000D03*
X134500000Y-73070000D03*
%TD*%
D52*
%TO.C,R3*%
X139875000Y-117200000D03*
X141525000Y-117200000D03*
%TD*%
D69*
%TO.C,R18*%
X109090000Y-129600000D03*
X110110000Y-129600000D03*
%TD*%
D75*
%TO.C,LS2*%
X154000000Y-97800000D03*
X150000000Y-97800000D03*
X146000000Y-97800000D03*
X156000000Y-99050000D03*
X152000000Y-99050000D03*
X148000000Y-99050000D03*
X144000000Y-99050000D03*
X158000000Y-100300000D03*
X154000000Y-100300000D03*
X150000000Y-100300000D03*
X146000000Y-100300000D03*
X142000000Y-100300000D03*
X156000000Y-101550000D03*
X152000000Y-101550000D03*
X148000000Y-101550000D03*
X144000000Y-101550000D03*
X158000000Y-102800000D03*
X154000000Y-102800000D03*
X150000000Y-102800000D03*
X146000000Y-102800000D03*
X142000000Y-102800000D03*
X156000000Y-104050000D03*
X152000000Y-104050000D03*
X148000000Y-104050000D03*
X144000000Y-104050000D03*
X158000000Y-105300000D03*
X154000000Y-105300000D03*
X150000000Y-105300000D03*
X146000000Y-105300000D03*
X142000000Y-105300000D03*
X156000000Y-106550000D03*
X152000000Y-106550000D03*
X148000000Y-106550000D03*
X144000000Y-106550000D03*
X154000000Y-107800000D03*
X150000000Y-107800000D03*
X146000000Y-107800000D03*
%TD*%
D76*
%TO.C,D20*%
X162275000Y-89975000D03*
X162275000Y-87875000D03*
%TD*%
D61*
%TO.C,C45*%
X160850000Y-89220000D03*
X160850000Y-90180000D03*
%TD*%
D69*
%TO.C,R54*%
X185790000Y-118800000D03*
X186810000Y-118800000D03*
%TD*%
D62*
%TO.C,R55*%
X191150000Y-109640000D03*
X191150000Y-110660000D03*
%TD*%
D38*
%TO.C,J14*%
X190975000Y-104000000D03*
X196975000Y-104000000D03*
D77*
X194575000Y-100500000D03*
X197275000Y-107500000D03*
X198275000Y-100500000D03*
X190275000Y-107500000D03*
X188575000Y-100500000D03*
%TD*%
D71*
%TO.C,C29*%
X120300000Y-119625000D03*
X120300000Y-121175000D03*
%TD*%
D78*
%TO.C,U8*%
X133637500Y-124450000D03*
X133637500Y-125400000D03*
X133637500Y-126350000D03*
X131362500Y-126350000D03*
X131362500Y-125400000D03*
X131362500Y-124450000D03*
%TD*%
D79*
%TO.C,D13*%
X179100000Y-82350000D03*
X179100000Y-84450000D03*
%TD*%
D36*
%TO.C,LS1*%
X180750000Y-93800000D03*
D80*
X180750000Y-91800000D03*
%TD*%
D50*
%TO.C,C35*%
X139820000Y-82400000D03*
X140780000Y-82400000D03*
%TD*%
D73*
%TO.C,C47*%
X143575000Y-92430000D03*
X143575000Y-91470000D03*
%TD*%
D81*
%TO.C,C80*%
X123775000Y-64500000D03*
X120825000Y-64500000D03*
%TD*%
D62*
%TO.C,R24*%
X175400000Y-100490000D03*
X175400000Y-101510000D03*
%TD*%
D49*
%TO.C,C60*%
X171680000Y-75300000D03*
X170720000Y-75300000D03*
%TD*%
D82*
%TO.C,J13*%
X106350000Y-74740000D03*
X106350000Y-68960000D03*
D83*
X107600000Y-75050000D03*
X107550000Y-74250000D03*
D84*
X107550000Y-73100000D03*
X107550000Y-72100000D03*
X107550000Y-71600000D03*
X107550000Y-70600000D03*
D83*
X107550000Y-69450000D03*
X107600000Y-68650000D03*
X107600000Y-68650000D03*
X107550000Y-69450000D03*
D84*
X107550000Y-70100000D03*
X107550000Y-71100000D03*
X107550000Y-72600000D03*
X107550000Y-73600000D03*
D83*
X107550000Y-74250000D03*
X107600000Y-75050000D03*
D85*
X102650000Y-76670000D03*
D86*
X106830000Y-76670000D03*
D85*
X102650000Y-67030000D03*
D86*
X106830000Y-67030000D03*
%TD*%
D52*
%TO.C,R28*%
X120275000Y-116600000D03*
X121925000Y-116600000D03*
%TD*%
D61*
%TO.C,C26*%
X137300000Y-126610000D03*
X137300000Y-127570000D03*
%TD*%
D71*
%TO.C,C31*%
X131600000Y-107825000D03*
X131600000Y-109375000D03*
%TD*%
D87*
%TO.C,U10*%
X173575000Y-99700000D03*
X173075000Y-99700000D03*
X172575000Y-99700000D03*
X172075000Y-99700000D03*
X171575000Y-99700000D03*
X171075000Y-99700000D03*
X170575000Y-99700000D03*
X170075000Y-99700000D03*
D88*
X169375000Y-99000000D03*
X169375000Y-98500000D03*
X169375000Y-98000000D03*
X169375000Y-97500000D03*
X169375000Y-97000000D03*
X169375000Y-96500000D03*
X169375000Y-96000000D03*
X169375000Y-95500000D03*
D87*
X170075000Y-94800000D03*
X170575000Y-94800000D03*
X171075000Y-94800000D03*
X171575000Y-94800000D03*
X172075000Y-94800000D03*
X172575000Y-94800000D03*
X173075000Y-94800000D03*
X173575000Y-94800000D03*
D88*
X174275000Y-95500000D03*
X174275000Y-96000000D03*
X174275000Y-96500000D03*
X174275000Y-97000000D03*
X174275000Y-97500000D03*
X174275000Y-98000000D03*
X174275000Y-98500000D03*
X174275000Y-99000000D03*
D89*
X171825000Y-97250000D03*
%TD*%
D49*
%TO.C,C53*%
X168780000Y-135950000D03*
X167820000Y-135950000D03*
%TD*%
D90*
%TO.C,FB1*%
X178500000Y-100912500D03*
X178500000Y-102487500D03*
%TD*%
D61*
%TO.C,C27*%
X145050000Y-114045000D03*
X145050000Y-115005000D03*
%TD*%
D91*
%TO.C,C20*%
X183350000Y-113300000D03*
X183350000Y-110600000D03*
%TD*%
D49*
%TO.C,C59*%
X169080000Y-58400000D03*
X168120000Y-58400000D03*
%TD*%
D91*
%TO.C,C23*%
X172900000Y-104500000D03*
X172900000Y-101800000D03*
%TD*%
D62*
%TO.C,R58*%
X140600000Y-126580000D03*
X140600000Y-127600000D03*
%TD*%
D60*
%TO.C,C56*%
X118575000Y-144200000D03*
X117025000Y-144200000D03*
%TD*%
D73*
%TO.C,C48*%
X151300000Y-92430000D03*
X151300000Y-91470000D03*
%TD*%
%TO.C,C22*%
X176350000Y-100530000D03*
X176350000Y-99570000D03*
%TD*%
D56*
%TO.C,R35*%
X162035000Y-85150000D03*
X161015000Y-85150000D03*
%TD*%
D92*
%TO.C,D3*%
X182725000Y-140025000D03*
X182725000Y-141925000D03*
X179725000Y-140975000D03*
%TD*%
D68*
%TO.C,C16*%
X183700000Y-90750000D03*
X183700000Y-93450000D03*
%TD*%
D62*
%TO.C,R39*%
X168900000Y-91390000D03*
X168900000Y-92410000D03*
%TD*%
D60*
%TO.C,C83*%
X114475000Y-66600000D03*
X112925000Y-66600000D03*
%TD*%
D50*
%TO.C,C15*%
X175370000Y-95400000D03*
X176330000Y-95400000D03*
%TD*%
D93*
%TO.C,C24*%
X180350000Y-89250000D03*
X177650000Y-89250000D03*
%TD*%
D94*
%TO.C,R15*%
X136000000Y-54262500D03*
X136000000Y-51337500D03*
%TD*%
D95*
%TO.C,U27*%
X122950000Y-60050000D03*
X122000000Y-60050000D03*
X121050000Y-60050000D03*
X121050000Y-57350000D03*
X122000000Y-57350000D03*
X122950000Y-57350000D03*
%TD*%
D69*
%TO.C,R10*%
X108990000Y-103800000D03*
X110010000Y-103800000D03*
%TD*%
D71*
%TO.C,C30*%
X133100000Y-107825000D03*
X133100000Y-109375000D03*
%TD*%
D96*
%TO.C,U12*%
X118700000Y-149000000D03*
X118700000Y-148000000D03*
X118700000Y-147000000D03*
X120700000Y-147000000D03*
X120700000Y-148000000D03*
X120700000Y-149000000D03*
%TD*%
D69*
%TO.C,R62*%
X150915000Y-114050000D03*
X151935000Y-114050000D03*
%TD*%
D97*
%TO.C,U1*%
X180100000Y-137830000D03*
X180100000Y-136560000D03*
X180100000Y-135290000D03*
X180100000Y-134020000D03*
X186100000Y-134020000D03*
X186100000Y-135290000D03*
X186100000Y-136560000D03*
X186100000Y-137830000D03*
%TD*%
D50*
%TO.C,C49*%
X130545000Y-93350000D03*
X131505000Y-93350000D03*
%TD*%
D38*
%TO.C,J16*%
X190975000Y-115000000D03*
X196975000Y-115000000D03*
D77*
X194575000Y-111500000D03*
X197275000Y-118500000D03*
X198275000Y-111500000D03*
X190275000Y-118500000D03*
X188575000Y-111500000D03*
%TD*%
D98*
%TO.C,J11*%
X105300000Y-143700000D03*
X105300000Y-142700000D03*
X105300000Y-141700000D03*
X105300000Y-140700000D03*
D99*
X101425000Y-145000000D03*
X101425000Y-139400000D03*
%TD*%
D100*
%TO.C,U9*%
X117237500Y-136100000D03*
X117237500Y-135600000D03*
X117237500Y-135100000D03*
X117237500Y-134600000D03*
D101*
X117900000Y-134437500D03*
X118400000Y-134437500D03*
X118900000Y-134437500D03*
D100*
X119562500Y-134600000D03*
X119562500Y-135100000D03*
X119562500Y-135600000D03*
X119562500Y-136100000D03*
D101*
X118900000Y-136262500D03*
X118400000Y-136262500D03*
X117900000Y-136262500D03*
%TD*%
D102*
%TO.C,U4*%
X147450000Y-142160000D03*
X147450000Y-140890000D03*
X147450000Y-139620000D03*
X147450000Y-138350000D03*
X147450000Y-137080000D03*
X147450000Y-135810000D03*
X147450000Y-134540000D03*
X147450000Y-133270000D03*
X147450000Y-132000000D03*
X147450000Y-130730000D03*
X147450000Y-129460000D03*
X147450000Y-128190000D03*
X147450000Y-126920000D03*
X147450000Y-125650000D03*
D103*
X149215000Y-124400000D03*
X150485000Y-124400000D03*
X151755000Y-124400000D03*
X153025000Y-124400000D03*
X154295000Y-124400000D03*
X155565000Y-124400000D03*
X156835000Y-124400000D03*
X158105000Y-124400000D03*
X159375000Y-124400000D03*
X160645000Y-124400000D03*
X161915000Y-124400000D03*
X163185000Y-124400000D03*
D102*
X164950000Y-125650000D03*
X164950000Y-126920000D03*
X164950000Y-128190000D03*
X164950000Y-129460000D03*
X164950000Y-130730000D03*
X164950000Y-132000000D03*
X164950000Y-133270000D03*
X164950000Y-134540000D03*
X164950000Y-135810000D03*
X164950000Y-137080000D03*
X164950000Y-138350000D03*
X164950000Y-139620000D03*
X164950000Y-140890000D03*
X164950000Y-142160000D03*
D104*
X153300000Y-133040000D03*
X153300000Y-133040000D03*
X153300000Y-134440000D03*
X153300000Y-135840000D03*
X154700000Y-133040000D03*
X154700000Y-134440000D03*
X154700000Y-135840000D03*
X154700000Y-135840000D03*
X156100000Y-133040000D03*
X156100000Y-134440000D03*
X156100000Y-135840000D03*
%TD*%
D62*
%TO.C,R43*%
X109900000Y-141690000D03*
X109900000Y-142710000D03*
%TD*%
D60*
%TO.C,C64*%
X104275000Y-114550000D03*
X102725000Y-114550000D03*
%TD*%
D62*
%TO.C,R30*%
X188500000Y-71190000D03*
X188500000Y-72210000D03*
%TD*%
D51*
%TO.C,C18*%
X180000000Y-98850000D03*
X185600000Y-98850000D03*
%TD*%
D105*
%TO.C,L1*%
X126475000Y-112200000D03*
X119425000Y-112200000D03*
%TD*%
D53*
%TO.C,Q3*%
X157430000Y-55500000D03*
D106*
X140770000Y-52960000D03*
D107*
X140770000Y-55500000D03*
X140770000Y-58040000D03*
%TD*%
D108*
%TO.C,J7*%
X157891000Y-85248000D03*
D109*
X157891000Y-82748000D03*
%TD*%
D56*
%TO.C,R22*%
X178110000Y-57500000D03*
X177090000Y-57500000D03*
%TD*%
D110*
%TO.C,R52*%
X102900000Y-104700000D03*
X104900000Y-104700000D03*
%TD*%
D50*
%TO.C,C34*%
X137220000Y-80400000D03*
X138180000Y-80400000D03*
%TD*%
D56*
%TO.C,R37*%
X172660000Y-108500000D03*
X171640000Y-108500000D03*
%TD*%
D111*
%TO.C,U5*%
X138275000Y-82425000D03*
X138275000Y-82925000D03*
X138275000Y-83425000D03*
X138275000Y-83925000D03*
X138275000Y-84425000D03*
X138275000Y-84925000D03*
X138275000Y-85425000D03*
X138275000Y-85925000D03*
X138275000Y-86425000D03*
X138275000Y-86925000D03*
X138275000Y-87425000D03*
X138275000Y-87925000D03*
X138275000Y-88425000D03*
X138275000Y-88925000D03*
X138275000Y-89425000D03*
X138275000Y-89925000D03*
D112*
X136350000Y-91850000D03*
X135850000Y-91850000D03*
X135350000Y-91850000D03*
X134850000Y-91850000D03*
X134350000Y-91850000D03*
X133850000Y-91850000D03*
X133350000Y-91850000D03*
X132850000Y-91850000D03*
X132350000Y-91850000D03*
X131850000Y-91850000D03*
X131350000Y-91850000D03*
X130850000Y-91850000D03*
X130350000Y-91850000D03*
X129850000Y-91850000D03*
X129350000Y-91850000D03*
X128850000Y-91850000D03*
D111*
X126925000Y-89925000D03*
X126925000Y-89425000D03*
X126925000Y-88925000D03*
X126925000Y-88425000D03*
X126925000Y-87925000D03*
X126925000Y-87425000D03*
X126925000Y-86925000D03*
X126925000Y-86425000D03*
X126925000Y-85925000D03*
X126925000Y-85425000D03*
X126925000Y-84925000D03*
X126925000Y-84425000D03*
X126925000Y-83925000D03*
X126925000Y-83425000D03*
X126925000Y-82925000D03*
X126925000Y-82425000D03*
D112*
X128850000Y-80500000D03*
X129350000Y-80500000D03*
X129850000Y-80500000D03*
X130350000Y-80500000D03*
X130850000Y-80500000D03*
X131350000Y-80500000D03*
X131850000Y-80500000D03*
X132350000Y-80500000D03*
X132850000Y-80500000D03*
X133350000Y-80500000D03*
X133850000Y-80500000D03*
X134350000Y-80500000D03*
X134850000Y-80500000D03*
X135350000Y-80500000D03*
X135850000Y-80500000D03*
X136350000Y-80500000D03*
%TD*%
D38*
%TO.C,J3*%
X190975000Y-93000000D03*
X196975000Y-93000000D03*
D77*
X194575000Y-89500000D03*
X197275000Y-96500000D03*
X198275000Y-89500000D03*
X190275000Y-96500000D03*
X188575000Y-89500000D03*
%TD*%
D69*
%TO.C,R40*%
X167790000Y-136900000D03*
X168810000Y-136900000D03*
%TD*%
D113*
%TO.C,U16*%
X102595000Y-107625000D03*
X103865000Y-107625000D03*
X105135000Y-107625000D03*
X106405000Y-107625000D03*
X106405000Y-112575000D03*
X105135000Y-112575000D03*
X103865000Y-112575000D03*
X102595000Y-112575000D03*
%TD*%
D50*
%TO.C,C37*%
X130545000Y-94275000D03*
X131505000Y-94275000D03*
%TD*%
D114*
%TO.C,BT1*%
X122345000Y-127600000D03*
X177955000Y-127600000D03*
D115*
X113700000Y-127600000D03*
D116*
X185700000Y-127600000D03*
%TD*%
D56*
%TO.C,R8*%
X186010000Y-131900000D03*
X184990000Y-131900000D03*
%TD*%
D50*
%TO.C,C61*%
X121840000Y-82300000D03*
X122800000Y-82300000D03*
%TD*%
D56*
%TO.C,R12*%
X133510000Y-56600000D03*
X132490000Y-56600000D03*
%TD*%
D68*
%TO.C,C62*%
X172850000Y-88950000D03*
X172850000Y-91650000D03*
%TD*%
D50*
%TO.C,C58*%
X126820000Y-101200000D03*
X127780000Y-101200000D03*
%TD*%
D69*
%TO.C,R53*%
X172590000Y-76500000D03*
X173610000Y-76500000D03*
%TD*%
D62*
%TO.C,R61*%
X135100000Y-126630000D03*
X135100000Y-127650000D03*
%TD*%
D61*
%TO.C,C5*%
X178850000Y-147020000D03*
X178850000Y-147980000D03*
%TD*%
%TO.C,C9*%
X110600000Y-101420000D03*
X110600000Y-102380000D03*
%TD*%
D69*
%TO.C,R25*%
X187690000Y-118800000D03*
X188710000Y-118800000D03*
%TD*%
D50*
%TO.C,C21*%
X175770000Y-96350000D03*
X176730000Y-96350000D03*
%TD*%
D56*
%TO.C,R4*%
X129110000Y-117700000D03*
X128090000Y-117700000D03*
%TD*%
D117*
%TO.C,Q5*%
X163250000Y-83637500D03*
X161350000Y-83637500D03*
X162300000Y-81762500D03*
%TD*%
D69*
%TO.C,R19*%
X109190000Y-126800000D03*
X110210000Y-126800000D03*
%TD*%
D50*
%TO.C,C41*%
X126140000Y-64100000D03*
X127100000Y-64100000D03*
%TD*%
D71*
%TO.C,C7*%
X121900000Y-119625000D03*
X121900000Y-121175000D03*
%TD*%
D62*
%TO.C,R21*%
X189400000Y-147580000D03*
X189400000Y-148600000D03*
%TD*%
D56*
%TO.C,R67*%
X172660000Y-109475000D03*
X171640000Y-109475000D03*
%TD*%
D118*
%TO.C,U11*%
X128850000Y-69200000D03*
X128850000Y-66900000D03*
D119*
X135150000Y-66900000D03*
D118*
X128850000Y-64600000D03*
%TD*%
D120*
%TO.C,R11*%
X172475000Y-86410000D03*
X172475000Y-85390000D03*
%TD*%
D72*
%TO.C,C63*%
X111600000Y-82375000D03*
X111600000Y-80825000D03*
%TD*%
D121*
%TO.C,D2*%
X183750000Y-131900000D03*
X181850000Y-131900000D03*
X182800000Y-128900000D03*
%TD*%
D56*
%TO.C,R26*%
X170235000Y-93650000D03*
X169215000Y-93650000D03*
%TD*%
%TO.C,R51*%
X111610000Y-100500000D03*
X110590000Y-100500000D03*
%TD*%
D122*
%TO.C,U14*%
X128825000Y-102850000D03*
X129475000Y-102850000D03*
X130125000Y-102850000D03*
X130775000Y-102850000D03*
X130775000Y-101250000D03*
X130125000Y-101250000D03*
X129475000Y-101250000D03*
X128825000Y-101250000D03*
%TD*%
D73*
%TO.C,C33*%
X126800000Y-81580000D03*
X126800000Y-80620000D03*
%TD*%
D123*
%TO.C,K1*%
X181700000Y-78500000D03*
X184900000Y-78500000D03*
X187100000Y-78500000D03*
X189300000Y-78500000D03*
X189300000Y-85500000D03*
X187100000Y-85500000D03*
X184900000Y-85500000D03*
X181700000Y-85500000D03*
%TD*%
D56*
%TO.C,R48*%
X123710000Y-55600000D03*
X122690000Y-55600000D03*
%TD*%
D73*
%TO.C,C2*%
X145900000Y-140130000D03*
X145900000Y-139170000D03*
%TD*%
D124*
%TO.C,U3*%
X114677500Y-90725000D03*
X114677500Y-90075000D03*
X114677500Y-89425000D03*
X114677500Y-88775000D03*
X114677500Y-88125000D03*
X114677500Y-87475000D03*
X114677500Y-86825000D03*
X114677500Y-86175000D03*
X114677500Y-85525000D03*
X114677500Y-84875000D03*
X114677500Y-84225000D03*
X114677500Y-83575000D03*
X114677500Y-82925000D03*
X114677500Y-82275000D03*
X120402500Y-82275000D03*
X120402500Y-82925000D03*
X120402500Y-83575000D03*
X120402500Y-84225000D03*
X120402500Y-84875000D03*
X120402500Y-85525000D03*
X120402500Y-86175000D03*
X120402500Y-86825000D03*
X120402500Y-87475000D03*
X120402500Y-88125000D03*
X120402500Y-88775000D03*
X120402500Y-89425000D03*
X120402500Y-90075000D03*
X120402500Y-90725000D03*
D125*
X117540000Y-86500000D03*
%TD*%
D56*
%TO.C,R1*%
X183410000Y-148950000D03*
X182390000Y-148950000D03*
%TD*%
D61*
%TO.C,C81*%
X124300000Y-56820000D03*
X124300000Y-57780000D03*
%TD*%
D126*
%TO.C,U17*%
X158520000Y-62830000D03*
D127*
X156450000Y-64100000D03*
X158520000Y-65370000D03*
%TD*%
D128*
%TO.C,R20*%
X188500000Y-134750000D03*
X188500000Y-131650000D03*
%TD*%
D73*
%TO.C,C3*%
X187800000Y-138980000D03*
X187800000Y-138020000D03*
%TD*%
D56*
%TO.C,R34*%
X119660000Y-76050000D03*
X118640000Y-76050000D03*
%TD*%
D82*
%TO.C,J5*%
X106400000Y-131490000D03*
X106400000Y-125710000D03*
D83*
X107650000Y-131800000D03*
X107600000Y-131000000D03*
D84*
X107600000Y-129850000D03*
X107600000Y-128850000D03*
X107600000Y-128350000D03*
X107600000Y-127350000D03*
D83*
X107600000Y-126200000D03*
X107650000Y-125400000D03*
X107650000Y-125400000D03*
X107600000Y-126200000D03*
D84*
X107600000Y-126850000D03*
X107600000Y-127850000D03*
X107600000Y-129350000D03*
X107600000Y-130350000D03*
D83*
X107600000Y-131000000D03*
X107650000Y-131800000D03*
D85*
X102700000Y-133420000D03*
D86*
X106880000Y-133420000D03*
D85*
X102700000Y-123780000D03*
D86*
X106880000Y-123780000D03*
%TD*%
D50*
%TO.C,C55*%
X119270000Y-133350000D03*
X120230000Y-133350000D03*
%TD*%
D56*
%TO.C,R64*%
X111910000Y-103800000D03*
X110890000Y-103800000D03*
%TD*%
%TO.C,R41*%
X168810000Y-137850000D03*
X167790000Y-137850000D03*
%TD*%
D117*
%TO.C,Q2*%
X189850000Y-68037500D03*
X187950000Y-68037500D03*
X188900000Y-66162500D03*
%TD*%
D129*
%TO.C,R23*%
X184100000Y-118825000D03*
X184100000Y-116775000D03*
%TD*%
D56*
%TO.C,R36*%
X174660000Y-108500000D03*
X173640000Y-108500000D03*
%TD*%
D73*
%TO.C,C38*%
X113200000Y-91580000D03*
X113200000Y-90620000D03*
%TD*%
D62*
%TO.C,R57*%
X138400000Y-126580000D03*
X138400000Y-127600000D03*
%TD*%
D49*
%TO.C,C44*%
X127080000Y-67400000D03*
X126120000Y-67400000D03*
%TD*%
D62*
%TO.C,R42*%
X184500000Y-121840000D03*
X184500000Y-122860000D03*
%TD*%
D120*
%TO.C,R2*%
X178850000Y-146110000D03*
X178850000Y-145090000D03*
%TD*%
D69*
%TO.C,R14*%
X108690000Y-100500000D03*
X109710000Y-100500000D03*
%TD*%
D130*
%TO.C,JP1*%
X181900000Y-118450000D03*
X181900000Y-117150000D03*
%TD*%
D60*
%TO.C,C79*%
X122275000Y-62600000D03*
X120725000Y-62600000D03*
%TD*%
D62*
%TO.C,R56*%
X136200000Y-126580000D03*
X136200000Y-127600000D03*
%TD*%
D131*
%TO.C,Q1*%
X136837500Y-55850000D03*
X136837500Y-57750000D03*
X134962500Y-56800000D03*
%TD*%
D49*
%TO.C,C42*%
X127100000Y-65100000D03*
X126140000Y-65100000D03*
%TD*%
%TO.C,C40*%
X170480000Y-118600000D03*
X169520000Y-118600000D03*
%TD*%
%TO.C,C8*%
X109180000Y-92900000D03*
X108220000Y-92900000D03*
%TD*%
%TO.C,C82*%
X115580000Y-56825000D03*
X114620000Y-56825000D03*
%TD*%
D132*
%TO.C,U24*%
X111700000Y-73837500D03*
X110750000Y-73837500D03*
X109800000Y-73837500D03*
X109800000Y-71562500D03*
X110750000Y-71562500D03*
X111700000Y-71562500D03*
%TD*%
D56*
%TO.C,R29*%
X173535000Y-84450000D03*
X172515000Y-84450000D03*
%TD*%
D94*
%TO.C,R13*%
X138300000Y-54262500D03*
X138300000Y-51337500D03*
%TD*%
D49*
%TO.C,C13*%
X168280000Y-95900000D03*
X167320000Y-95900000D03*
%TD*%
D69*
%TO.C,R16*%
X108190000Y-93900000D03*
X109210000Y-93900000D03*
%TD*%
D47*
%TO.C,R70*%
X166660624Y-90739376D03*
X165939376Y-91460624D03*
%TD*%
D52*
%TO.C,R47*%
X136875000Y-117200000D03*
X138525000Y-117200000D03*
%TD*%
D56*
%TO.C,R6*%
X184010000Y-76200000D03*
X182990000Y-76200000D03*
%TD*%
D61*
%TO.C,C11*%
X179800000Y-145120000D03*
X179800000Y-146080000D03*
%TD*%
D133*
%TO.C,U2*%
X134775000Y-112595000D03*
X134775000Y-113865000D03*
X134775000Y-115135000D03*
X134775000Y-116405000D03*
X129825000Y-116405000D03*
X129825000Y-115135000D03*
X129825000Y-113865000D03*
X129825000Y-112595000D03*
D134*
X132300000Y-114500000D03*
%TD*%
D120*
%TO.C,R17*%
X110200000Y-94510000D03*
X110200000Y-93490000D03*
%TD*%
D56*
%TO.C,R66*%
X170510000Y-119600000D03*
X169490000Y-119600000D03*
%TD*%
D120*
%TO.C,R44*%
X120700000Y-137610000D03*
X120700000Y-136590000D03*
%TD*%
D69*
%TO.C,R9*%
X117690000Y-142400000D03*
X118710000Y-142400000D03*
%TD*%
D61*
%TO.C,C46*%
X138375000Y-90820000D03*
X138375000Y-91780000D03*
%TD*%
D62*
%TO.C,R50*%
X108400000Y-107690000D03*
X108400000Y-108710000D03*
%TD*%
D69*
%TO.C,R31*%
X188390000Y-70000000D03*
X189410000Y-70000000D03*
%TD*%
D71*
%TO.C,C6*%
X145600000Y-141375000D03*
X145600000Y-142925000D03*
%TD*%
D135*
%TO.C,R46*%
X187950000Y-141575000D03*
X184850000Y-141575000D03*
%TD*%
D136*
%TO.C,FB2*%
X129412500Y-93650000D03*
X127837500Y-93650000D03*
%TD*%
D97*
%TO.C,U7*%
X181600000Y-147505000D03*
X181600000Y-146235000D03*
X181600000Y-144965000D03*
X181600000Y-143695000D03*
X187600000Y-143695000D03*
X187600000Y-144965000D03*
X187600000Y-146235000D03*
X187600000Y-147505000D03*
%TD*%
D74*
%TO.C,C4*%
X136925000Y-115700000D03*
X138475000Y-115700000D03*
%TD*%
D69*
%TO.C,R27*%
X191790000Y-119300000D03*
X192810000Y-119300000D03*
%TD*%
D73*
%TO.C,C51*%
X113200000Y-89755000D03*
X113200000Y-88795000D03*
%TD*%
D62*
%TO.C,R5*%
X187800000Y-136090000D03*
X187800000Y-137110000D03*
%TD*%
D73*
%TO.C,C57*%
X117600000Y-148980000D03*
X117600000Y-148020000D03*
%TD*%
M02*
