M48
; DRILL file {KiCad 8.0.3} date 2024-07-08T16:54:39+0200
; FORMAT={-:-/ absolute / inch / decimal}
; #@! TF.CreationDate,2024-07-08T16:54:39+02:00
; #@! TF.GenerationSoftware,Kicad,Pcbnew,8.0.3
; #@! TF.FileFunction,NonPlated,1,2,NPTH
FMAT,2
INCH
; #@! TA.AperFunction,NonPlated,NPTH,ComponentDrill
T1C0.0256
; #@! TA.AperFunction,NonPlated,NPTH,ComponentDrill
T2C0.0354
; #@! TA.AperFunction,NonPlated,NPTH,ComponentDrill
T3C0.0394
; #@! TA.AperFunction,NonPlated,NPTH,ComponentDrill
T4C0.0472
; #@! TA.AperFunction,NonPlated,NPTH,ComponentDrill
T5C0.0787
; #@! TA.AperFunction,NonPlated,NPTH,ComponentDrill
T6C0.1260
; #@! TA.AperFunction,NonPlated,NPTH,ComponentDrill
T7C0.1339
; #@! TA.AperFunction,NonPlated,NPTH,ComponentDrill
T8C0.1378
%
G90
G05
T1
X4.187Y-2.715
X4.187Y-2.9425
X4.189Y-4.9492
X4.189Y-5.1768
T2
X4.0579Y-3.4587
X4.0579Y-3.5768
X7.752Y-5.185
X7.752Y-5.3031
X7.7531Y-5.6181
X7.7531Y-5.7362
T3
X5.2717Y-5.747
X5.5866Y-5.747
T4
X7.5187Y-3.6614
X7.5187Y-4.0945
X7.5187Y-4.5276
X7.7549Y-3.6614
X7.7549Y-4.0945
X7.7549Y-4.5276
T5
X5.5906Y-3.9488
X5.5906Y-4.0472
X5.5906Y-4.1457
X5.6693Y-3.8996
X5.6693Y-3.998
X5.6693Y-4.0965
X5.6693Y-4.1949
X5.748Y-3.8504
X5.748Y-3.9488
X5.748Y-4.0472
X5.748Y-4.1457
X5.748Y-4.2441
X5.8268Y-3.8996
X5.8268Y-3.998
X5.8268Y-4.0965
X5.8268Y-4.1949
X5.9055Y-3.8504
X5.9055Y-3.9488
X5.9055Y-4.0472
X5.9055Y-4.1457
X5.9055Y-4.2441
X5.9843Y-3.8996
X5.9843Y-3.998
X5.9843Y-4.0965
X5.9843Y-4.1949
X6.063Y-3.8504
X6.063Y-3.9488
X6.063Y-4.0472
X6.063Y-4.1457
X6.063Y-4.2441
X6.1417Y-3.8996
X6.1417Y-3.998
X6.1417Y-4.0965
X6.1417Y-4.1949
X6.2205Y-3.9488
X6.2205Y-4.0472
X6.2205Y-4.1457
T6
X4.8167Y-5.0236
X7.0061Y-5.0236
T7
X4.9213Y-5.6104
X6.8898Y-5.6104
T8
X5.0295Y-2.1181
X6.198Y-2.185
X6.7815Y-2.1181
M30
