%TF.GenerationSoftware,KiCad,Pcbnew,8.0.3*%
%TF.CreationDate,2024-08-25T19:37:56+02:00*%
%TF.ProjectId,labathome_pcb15,6c616261-7468-46f6-9d65-5f7063623135,rev?*%
%TF.SameCoordinates,Original*%
%TF.FileFunction,Profile,NP*%
%FSLAX46Y46*%
G04 Gerber Fmt 4.6, Leading zero omitted, Abs format (unit mm)*
G04 Created by KiCad (PCBNEW 8.0.3) date 2024-08-25 19:37:56*
%MOMM*%
%LPD*%
G01*
G04 APERTURE LIST*
%TA.AperFunction,Profile*%
%ADD10C,0.100000*%
%TD*%
G04 APERTURE END LIST*
D10*
X169000000Y-150000000D02*
G75*
G02*
X167000000Y-148000000I0J2000000D01*
G01*
X129200000Y-148000000D02*
G75*
G02*
X127200000Y-150000000I-2000000J0D01*
G01*
X122200000Y-150000000D02*
X122200000Y-145800000D01*
X100000000Y-52000000D02*
G75*
G02*
X102000000Y-50000000I2000000J0D01*
G01*
X100000000Y-52000000D02*
X100000000Y-148000000D01*
X120600000Y-145200000D02*
X122600000Y-145200000D01*
X200000000Y-148000000D02*
G75*
G02*
X198000000Y-150000000I-2000000J0D01*
G01*
X129200000Y-148000000D02*
X129200000Y-143700000D01*
X198000000Y-50000000D02*
G75*
G02*
X200000000Y-52000000I0J-2000000D01*
G01*
X129200000Y-143700000D02*
X167000000Y-143700000D01*
X116200000Y-150000000D02*
X116200000Y-145200000D01*
X122600000Y-150000000D02*
X127200000Y-150000000D01*
X116800000Y-145800000D02*
X116800000Y-150000000D01*
X102000000Y-150000000D02*
X116200000Y-150000000D01*
X116800000Y-150000000D02*
X122200000Y-150000000D01*
X120600000Y-145800000D02*
X120600000Y-145200000D01*
X118400000Y-145800000D02*
X116800000Y-145800000D01*
X167000000Y-143700000D02*
X167000000Y-148000000D01*
X122600000Y-145200000D02*
X122600000Y-150000000D01*
X200000000Y-148000000D02*
X200000000Y-52000000D01*
X102000000Y-150000000D02*
G75*
G02*
X100000000Y-148000000I0J2000000D01*
G01*
X169000000Y-150000000D02*
X198000000Y-150000000D01*
X118400000Y-145200000D02*
X118400000Y-145800000D01*
X116200000Y-145200000D02*
X118400000Y-145200000D01*
X122200000Y-145800000D02*
X120600000Y-145800000D01*
X198000000Y-50000000D02*
X102000000Y-50000000D01*
M02*
