%TF.GenerationSoftware,KiCad,Pcbnew,8.0.3*%
%TF.CreationDate,2024-07-06T11:10:12+02:00*%
%TF.ProjectId,labathome_pcb15,6c616261-7468-46f6-9d65-5f7063623135,rev?*%
%TF.SameCoordinates,Original*%
%TF.FileFunction,Soldermask,Bot*%
%TF.FilePolarity,Negative*%
%FSLAX46Y46*%
G04 Gerber Fmt 4.6, Leading zero omitted, Abs format (unit mm)*
G04 Created by KiCad (PCBNEW 8.0.3) date 2024-07-06 11:10:12*
%MOMM*%
%LPD*%
G01*
G04 APERTURE LIST*
G04 Aperture macros list*
%AMRoundRect*
0 Rectangle with rounded corners*
0 $1 Rounding radius*
0 $2 $3 $4 $5 $6 $7 $8 $9 X,Y pos of 4 corners*
0 Add a 4 corners polygon primitive as box body*
4,1,4,$2,$3,$4,$5,$6,$7,$8,$9,$2,$3,0*
0 Add four circle primitives for the rounded corners*
1,1,$1+$1,$2,$3*
1,1,$1+$1,$4,$5*
1,1,$1+$1,$6,$7*
1,1,$1+$1,$8,$9*
0 Add four rect primitives between the rounded corners*
20,1,$1+$1,$2,$3,$4,$5,0*
20,1,$1+$1,$4,$5,$6,$7,0*
20,1,$1+$1,$6,$7,$8,$9,0*
20,1,$1+$1,$8,$9,$2,$3,0*%
%AMFreePoly0*
4,1,19,0.500000,-0.750000,0.000000,-0.750000,0.000000,-0.744911,-0.071157,-0.744911,-0.207708,-0.704816,-0.327430,-0.627875,-0.420627,-0.520320,-0.479746,-0.390866,-0.500000,-0.250000,-0.500000,0.250000,-0.479746,0.390866,-0.420627,0.520320,-0.327430,0.627875,-0.207708,0.704816,-0.071157,0.744911,0.000000,0.744911,0.000000,0.750000,0.500000,0.750000,0.500000,-0.750000,0.500000,-0.750000,
$1*%
%AMFreePoly1*
4,1,19,0.000000,0.744911,0.071157,0.744911,0.207708,0.704816,0.327430,0.627875,0.420627,0.520320,0.479746,0.390866,0.500000,0.250000,0.500000,-0.250000,0.479746,-0.390866,0.420627,-0.520320,0.327430,-0.627875,0.207708,-0.704816,0.071157,-0.744911,0.000000,-0.744911,0.000000,-0.750000,-0.500000,-0.750000,-0.500000,0.750000,0.000000,0.750000,0.000000,0.744911,0.000000,0.744911,
$1*%
G04 Aperture macros list end*
%ADD10RoundRect,0.300000X0.200000X-0.200000X0.200000X0.200000X-0.200000X0.200000X-0.200000X-0.200000X0*%
%ADD11O,1.000000X1.000000*%
%ADD12R,1.700000X1.700000*%
%ADD13O,1.700000X1.700000*%
%ADD14O,1.800000X1.400000*%
%ADD15RoundRect,0.500000X0.350000X0.350000X-0.350000X0.350000X-0.350000X-0.350000X0.350000X-0.350000X0*%
%ADD16RoundRect,0.750000X-1.000000X0.750000X-1.000000X-0.750000X1.000000X-0.750000X1.000000X0.750000X0*%
%ADD17RoundRect,0.750000X-1.000000X1.000000X-1.000000X-1.000000X1.000000X-1.000000X1.000000X1.000000X0*%
%ADD18RoundRect,0.875000X-0.875000X0.875000X-0.875000X-0.875000X0.875000X-0.875000X0.875000X0.875000X0*%
%ADD19RoundRect,0.450000X-0.750000X0.450000X-0.750000X-0.450000X0.750000X-0.450000X0.750000X0.450000X0*%
%ADD20O,1.900000X3.200000*%
%ADD21C,1.500000*%
%ADD22R,1.100000X1.800000*%
%ADD23RoundRect,0.275000X-0.275000X-0.625000X0.275000X-0.625000X0.275000X0.625000X-0.275000X0.625000X0*%
%ADD24RoundRect,0.450000X0.750000X-0.450000X0.750000X0.450000X-0.750000X0.450000X-0.750000X-0.450000X0*%
%ADD25RoundRect,0.400000X-0.400000X-0.400000X0.400000X-0.400000X0.400000X0.400000X-0.400000X0.400000X0*%
%ADD26O,1.800000X1.600000*%
%ADD27R,1.000000X1.000000*%
%ADD28O,1.400000X1.800000*%
%ADD29O,1.600000X2.200000*%
%ADD30C,1.700000*%
%ADD31RoundRect,0.400000X-0.400000X-0.600000X0.400000X-0.600000X0.400000X0.600000X-0.400000X0.600000X0*%
%ADD32O,1.600000X2.000000*%
%ADD33R,1.350000X1.350000*%
%ADD34C,1.350000*%
%ADD35C,1.200000*%
%ADD36RoundRect,0.400000X-0.400000X0.600000X-0.400000X-0.600000X0.400000X-0.600000X0.400000X0.600000X0*%
%ADD37R,2.000000X3.200000*%
%ADD38C,3.400000*%
%ADD39R,1.600000X1.600000*%
%ADD40C,1.600000*%
%ADD41RoundRect,0.500000X-0.350000X-0.350000X0.350000X-0.350000X0.350000X0.350000X-0.350000X0.350000X0*%
%ADD42O,1.600000X1.200000*%
%ADD43RoundRect,0.135000X0.135000X0.185000X-0.135000X0.185000X-0.135000X-0.185000X0.135000X-0.185000X0*%
%ADD44RoundRect,0.150000X-0.587500X-0.150000X0.587500X-0.150000X0.587500X0.150000X-0.587500X0.150000X0*%
%ADD45RoundRect,0.140000X0.140000X0.170000X-0.140000X0.170000X-0.140000X-0.170000X0.140000X-0.170000X0*%
%ADD46RoundRect,0.140000X0.170000X-0.140000X0.170000X0.140000X-0.170000X0.140000X-0.170000X-0.140000X0*%
%ADD47RoundRect,0.250000X-1.500000X-0.550000X1.500000X-0.550000X1.500000X0.550000X-1.500000X0.550000X0*%
%ADD48FreePoly0,90.000000*%
%ADD49FreePoly1,90.000000*%
%ADD50RoundRect,0.200000X-0.200000X-0.275000X0.200000X-0.275000X0.200000X0.275000X-0.200000X0.275000X0*%
%ADD51O,3.500000X3.500000*%
%ADD52C,3.600000*%
%ADD53RoundRect,0.135000X-0.135000X-0.185000X0.135000X-0.185000X0.135000X0.185000X-0.135000X0.185000X0*%
%ADD54RoundRect,0.135000X-0.185000X0.135000X-0.185000X-0.135000X0.185000X-0.135000X0.185000X0.135000X0*%
%ADD55C,0.900000*%
%ADD56R,2.000000X0.700000*%
%ADD57R,0.800000X2.000000*%
%ADD58RoundRect,0.225000X0.225000X0.250000X-0.225000X0.250000X-0.225000X-0.250000X0.225000X-0.250000X0*%
%ADD59RoundRect,0.140000X-0.170000X0.140000X-0.170000X-0.140000X0.170000X-0.140000X0.170000X0.140000X0*%
%ADD60C,1.000000*%
%ADD61R,0.700000X1.600000*%
%ADD62R,1.200000X2.200000*%
%ADD63R,1.200000X1.500000*%
%ADD64R,1.600000X1.500000*%
%ADD65RoundRect,0.335000X-1.340000X-1.365000X1.340000X-1.365000X1.340000X1.365000X-1.340000X1.365000X0*%
%ADD66RoundRect,0.225000X-0.250000X0.225000X-0.250000X-0.225000X0.250000X-0.225000X0.250000X0.225000X0*%
%ADD67RoundRect,0.225000X-0.225000X-0.250000X0.225000X-0.250000X0.225000X0.250000X-0.225000X0.250000X0*%
%ADD68C,2.000000*%
%ADD69RoundRect,0.250000X0.750000X-1.250000X0.750000X1.250000X-0.750000X1.250000X-0.750000X-1.250000X0*%
%ADD70RoundRect,0.150000X0.512500X0.150000X-0.512500X0.150000X-0.512500X-0.150000X0.512500X-0.150000X0*%
%ADD71RoundRect,0.225000X-0.375000X0.225000X-0.375000X-0.225000X0.375000X-0.225000X0.375000X0.225000X0*%
%ADD72O,1.350000X1.350000*%
%ADD73RoundRect,0.140000X-0.140000X-0.170000X0.140000X-0.170000X0.140000X0.170000X-0.140000X0.170000X0*%
%ADD74RoundRect,0.250000X0.325000X0.650000X-0.325000X0.650000X-0.325000X-0.650000X0.325000X-0.650000X0*%
%ADD75C,0.650000*%
%ADD76R,1.450000X0.600000*%
%ADD77R,1.450000X0.300000*%
%ADD78O,2.500000X2.000000*%
%ADD79O,3.500000X2.000000*%
%ADD80RoundRect,0.062500X0.062500X-0.337500X0.062500X0.337500X-0.062500X0.337500X-0.062500X-0.337500X0*%
%ADD81RoundRect,0.062500X0.337500X-0.062500X0.337500X0.062500X-0.337500X0.062500X-0.337500X-0.062500X0*%
%ADD82R,3.600000X3.600000*%
%ADD83RoundRect,0.218750X-0.256250X0.218750X-0.256250X-0.218750X0.256250X-0.218750X0.256250X0.218750X0*%
%ADD84RoundRect,0.135000X0.185000X-0.135000X0.185000X0.135000X-0.185000X0.135000X-0.185000X-0.135000X0*%
%ADD85RoundRect,0.200000X0.750000X0.200000X-0.750000X0.200000X-0.750000X-0.200000X0.750000X-0.200000X0*%
%ADD86RoundRect,0.250000X-0.625000X0.312500X-0.625000X-0.312500X0.625000X-0.312500X0.625000X0.312500X0*%
%ADD87RoundRect,0.162500X0.162500X-0.617500X0.162500X0.617500X-0.162500X0.617500X-0.162500X-0.617500X0*%
%ADD88R,0.800000X0.500000*%
%ADD89R,2.200000X0.600000*%
%ADD90RoundRect,0.062500X0.375000X0.062500X-0.375000X0.062500X-0.375000X-0.062500X0.375000X-0.062500X0*%
%ADD91RoundRect,0.062500X0.062500X0.375000X-0.062500X0.375000X-0.062500X-0.375000X0.062500X-0.375000X0*%
%ADD92R,5.600000X5.600000*%
%ADD93RoundRect,0.150000X0.625000X-0.150000X0.625000X0.150000X-0.625000X0.150000X-0.625000X-0.150000X0*%
%ADD94RoundRect,0.250000X0.650000X-0.350000X0.650000X0.350000X-0.650000X0.350000X-0.650000X-0.350000X0*%
%ADD95RoundRect,0.087500X-0.087500X0.225000X-0.087500X-0.225000X0.087500X-0.225000X0.087500X0.225000X0*%
%ADD96RoundRect,0.087500X-0.225000X0.087500X-0.225000X-0.087500X0.225000X-0.087500X0.225000X0.087500X0*%
%ADD97R,1.500000X0.900000*%
%ADD98R,0.900000X1.500000*%
%ADD99R,0.900000X0.900000*%
%ADD100R,1.400000X1.200000*%
%ADD101RoundRect,0.335000X1.340000X1.365000X-1.340000X1.365000X-1.340000X-1.365000X1.340000X-1.365000X0*%
%ADD102R,2.000000X1.905000*%
%ADD103O,2.000000X1.905000*%
%ADD104RoundRect,0.250000X0.750000X-0.600000X0.750000X0.600000X-0.750000X0.600000X-0.750000X-0.600000X0*%
%ADD105O,2.000000X1.700000*%
%ADD106C,3.200000*%
%ADD107RoundRect,0.500000X-1.250000X-1.250000X1.250000X-1.250000X1.250000X1.250000X-1.250000X1.250000X0*%
%ADD108C,3.500000*%
%ADD109RoundRect,0.150000X-0.150000X0.587500X-0.150000X-0.587500X0.150000X-0.587500X0.150000X0.587500X0*%
%ADD110RoundRect,0.375000X-0.625000X-0.375000X0.625000X-0.375000X0.625000X0.375000X-0.625000X0.375000X0*%
%ADD111RoundRect,0.500000X-0.500000X-1.400000X0.500000X-1.400000X0.500000X1.400000X-0.500000X1.400000X0*%
%ADD112RoundRect,0.200000X0.200000X-0.750000X0.200000X0.750000X-0.200000X0.750000X-0.200000X-0.750000X0*%
%ADD113R,0.350000X0.500000*%
%ADD114R,0.800000X1.800000*%
%ADD115RoundRect,0.100000X-0.637500X-0.100000X0.637500X-0.100000X0.637500X0.100000X-0.637500X0.100000X0*%
%ADD116R,2.850000X5.400000*%
%ADD117R,1.800000X1.100000*%
%ADD118RoundRect,0.275000X-0.625000X0.275000X-0.625000X-0.275000X0.625000X-0.275000X0.625000X0.275000X0*%
%ADD119RoundRect,0.250000X0.625000X-0.400000X0.625000X0.400000X-0.625000X0.400000X-0.625000X-0.400000X0*%
%ADD120RoundRect,0.150000X0.587500X0.150000X-0.587500X0.150000X-0.587500X-0.150000X0.587500X-0.150000X0*%
%ADD121RoundRect,0.150000X0.150000X-0.512500X0.150000X0.512500X-0.150000X0.512500X-0.150000X-0.512500X0*%
%ADD122RoundRect,0.150000X0.825000X0.150000X-0.825000X0.150000X-0.825000X-0.150000X0.825000X-0.150000X0*%
%ADD123R,2.300000X2.300000*%
%ADD124RoundRect,0.250000X0.400000X0.625000X-0.400000X0.625000X-0.400000X-0.625000X0.400000X-0.625000X0*%
%ADD125RoundRect,0.218750X0.218750X0.256250X-0.218750X0.256250X-0.218750X-0.256250X0.218750X-0.256250X0*%
G04 APERTURE END LIST*
D10*
%TO.C,J26*%
X120390000Y-77770000D03*
D11*
X120390000Y-76500000D03*
X121660000Y-77770000D03*
X121660000Y-76500000D03*
X122930000Y-77770000D03*
X122930000Y-76500000D03*
X124200000Y-77770000D03*
X124200000Y-76500000D03*
X125470000Y-77770000D03*
X125470000Y-76500000D03*
X126740000Y-77770000D03*
X126740000Y-76500000D03*
X128010000Y-77770000D03*
X128010000Y-76500000D03*
%TD*%
D12*
%TO.C,J12*%
X111600000Y-148380000D03*
D13*
X111600000Y-145840000D03*
X111600000Y-143300000D03*
X111600000Y-140760000D03*
X111600000Y-138220000D03*
X111600000Y-135680000D03*
X111600000Y-133140000D03*
X111600000Y-130600000D03*
%TD*%
D14*
%TO.C,SW9*%
X111600000Y-56800000D03*
X111600000Y-54300000D03*
X111600000Y-51800000D03*
%TD*%
D15*
%TO.C,J32*%
X149550000Y-86980000D03*
D13*
X149550000Y-84440000D03*
X149550000Y-81900000D03*
%TD*%
D12*
%TO.C,J10*%
X114800000Y-110600000D03*
D13*
X114800000Y-113140000D03*
X114800000Y-115680000D03*
X114800000Y-118220000D03*
X114800000Y-120760000D03*
X114800000Y-123300000D03*
%TD*%
D16*
%TO.C,J9*%
X118457500Y-57700000D03*
D17*
X118457500Y-63700000D03*
D18*
X113757500Y-60700000D03*
%TD*%
D19*
%TO.C,J27*%
X108005000Y-110950000D03*
X108005000Y-114450000D03*
X108005000Y-117950000D03*
X108005000Y-121450000D03*
%TD*%
D20*
%TO.C,SW7*%
X175550000Y-91200000D03*
X175550000Y-103700000D03*
X170550000Y-91200000D03*
X170550000Y-103700000D03*
%TD*%
D21*
%TO.C,R32*%
X174800000Y-86400000D03*
X171400000Y-86400000D03*
%TD*%
D22*
%TO.C,U13*%
X181850000Y-124400000D03*
D23*
X183120000Y-122330000D03*
X184390000Y-124400000D03*
%TD*%
D19*
%TO.C,J1*%
X108005000Y-95550000D03*
X108005000Y-99050000D03*
X108005000Y-102550000D03*
X108005000Y-106050000D03*
%TD*%
D24*
%TO.C,J18*%
X191995000Y-89150000D03*
X191995000Y-85650000D03*
X191995000Y-82150000D03*
X191995000Y-78650000D03*
%TD*%
%TO.C,J15*%
X192000000Y-147550000D03*
X192000000Y-144050000D03*
X192000000Y-140550000D03*
X192000000Y-137050000D03*
%TD*%
D19*
%TO.C,J2*%
X108005000Y-137050000D03*
X108005000Y-140550000D03*
X108005000Y-144050000D03*
X108005000Y-147550000D03*
%TD*%
D25*
%TO.C,M1*%
X162540000Y-51500000D03*
D26*
X162540000Y-54040000D03*
X162540000Y-56580000D03*
X162540000Y-59120000D03*
X162540000Y-61660000D03*
X162540000Y-64200000D03*
X182860000Y-64200000D03*
X182860000Y-61660000D03*
X182860000Y-59120000D03*
X182860000Y-56580000D03*
X182860000Y-54040000D03*
X182860000Y-51500000D03*
%TD*%
D20*
%TO.C,SW8*%
X175600000Y-124350000D03*
X175600000Y-136850000D03*
X170600000Y-124350000D03*
X170600000Y-136850000D03*
%TD*%
D27*
%TO.C,J6*%
X168230000Y-143830000D03*
D11*
X169500000Y-143830000D03*
X168230000Y-145100000D03*
X169500000Y-145100000D03*
X168230000Y-146370000D03*
X169500000Y-146370000D03*
%TD*%
D12*
%TO.C,J19*%
X111200000Y-123300000D03*
D13*
X111200000Y-120760000D03*
X111200000Y-118220000D03*
X111200000Y-115680000D03*
X111200000Y-113140000D03*
X111200000Y-110600000D03*
%TD*%
D28*
%TO.C,SW4*%
X134100000Y-110900000D03*
X131600000Y-110900000D03*
X129100000Y-110900000D03*
%TD*%
D12*
%TO.C,J20*%
X115200000Y-130680000D03*
D13*
X115200000Y-133220000D03*
X115200000Y-135760000D03*
X115200000Y-138300000D03*
X115200000Y-140840000D03*
X115200000Y-143380000D03*
X115200000Y-145920000D03*
X115200000Y-148460000D03*
%TD*%
D12*
%TO.C,J4*%
X115000000Y-104600000D03*
D13*
X115000000Y-102060000D03*
X115000000Y-99520000D03*
X115000000Y-96980000D03*
%TD*%
D29*
%TO.C,X3*%
X164880000Y-68300000D03*
X167420000Y-68300000D03*
X169960000Y-68300000D03*
X172500000Y-68300000D03*
X175040000Y-68300000D03*
X177580000Y-68300000D03*
X180120000Y-68300000D03*
%TD*%
D19*
%TO.C,J22*%
X108005000Y-52450000D03*
X108005000Y-55950000D03*
X108005000Y-59450000D03*
X108005000Y-62950000D03*
%TD*%
D12*
%TO.C,U15*%
X168875000Y-62489500D03*
D30*
X168875000Y-59949500D03*
X171415000Y-62489500D03*
X171415000Y-59949500D03*
X173955000Y-62489500D03*
X173955000Y-59949500D03*
X176495000Y-62489500D03*
X176495000Y-59949500D03*
%TD*%
D31*
%TO.C,U21*%
X142380000Y-112000000D03*
D32*
X144920000Y-112000000D03*
X147460000Y-112000000D03*
X150000000Y-112000000D03*
X152540000Y-112000000D03*
X155080000Y-112000000D03*
X157620000Y-112000000D03*
%TD*%
D15*
%TO.C,J33*%
X153150000Y-86980000D03*
D13*
X153150000Y-84440000D03*
X153150000Y-81900000D03*
%TD*%
D33*
%TO.C,U6*%
X165792500Y-51492500D03*
D34*
X165792500Y-53492500D03*
X165792500Y-55492500D03*
X165792500Y-57492500D03*
X165792500Y-59492500D03*
X165792500Y-61492500D03*
X165792500Y-63492500D03*
X165792500Y-65492500D03*
X179392500Y-65492500D03*
X179392500Y-63492500D03*
X179392500Y-61492500D03*
X179392500Y-59492500D03*
X179392500Y-57492500D03*
X179392500Y-55492500D03*
X179392500Y-53492500D03*
X179392500Y-51492500D03*
%TD*%
D35*
%TO.C,MK1*%
X184350000Y-115300000D03*
X182450000Y-115300000D03*
%TD*%
D36*
%TO.C,SW6*%
X175600000Y-106800000D03*
D32*
X170600000Y-106800000D03*
X173100000Y-106800000D03*
D37*
X178700000Y-114300000D03*
X167500000Y-114300000D03*
D32*
X170600000Y-121300000D03*
X175600000Y-121300000D03*
%TD*%
D24*
%TO.C,J24*%
X191995000Y-73750000D03*
X191995000Y-70250000D03*
X191995000Y-66750000D03*
X191995000Y-63250000D03*
%TD*%
D12*
%TO.C,J23*%
X123700000Y-105900000D03*
D13*
X126240000Y-105900000D03*
X128780000Y-105900000D03*
X131320000Y-105900000D03*
X133860000Y-105900000D03*
X136400000Y-105900000D03*
%TD*%
D38*
%TO.C,X1*%
X125000000Y-142505000D03*
X175000000Y-142505000D03*
%TD*%
D39*
%TO.C,C39*%
X112800000Y-83082380D03*
D40*
X112800000Y-80582380D03*
%TD*%
D15*
%TO.C,J31*%
X145950000Y-86980000D03*
D13*
X145950000Y-84440000D03*
X145950000Y-81900000D03*
%TD*%
D41*
%TO.C,J8*%
X132700000Y-94600000D03*
D13*
X132700000Y-97140000D03*
X132700000Y-99680000D03*
X132700000Y-102220000D03*
%TD*%
D19*
%TO.C,J28*%
X108005000Y-80150000D03*
X108005000Y-83650000D03*
X108005000Y-87150000D03*
X108005000Y-90650000D03*
%TD*%
D24*
%TO.C,J21*%
X192000000Y-132150000D03*
X192000000Y-128650000D03*
X192000000Y-125150000D03*
X192000000Y-121650000D03*
%TD*%
D42*
%TO.C,U22*%
X175800000Y-78820000D03*
D35*
X175800000Y-76580000D03*
X174220000Y-75000000D03*
X170400000Y-76580000D03*
X170400000Y-78820000D03*
X171980000Y-80400000D03*
%TD*%
D43*
%TO.C,R63*%
X122910000Y-89425000D03*
X121890000Y-89425000D03*
%TD*%
D44*
%TO.C,Q4*%
X175012500Y-84800000D03*
X175012500Y-82900000D03*
X176887500Y-83850000D03*
%TD*%
D45*
%TO.C,C32*%
X125930000Y-89950000D03*
X124970000Y-89950000D03*
%TD*%
D46*
%TO.C,C43*%
X132400000Y-76380000D03*
X132400000Y-75420000D03*
%TD*%
D47*
%TO.C,C19*%
X180000000Y-105950000D03*
X185600000Y-105950000D03*
%TD*%
D48*
%TO.C,JP1*%
X164000000Y-128600000D03*
D49*
X164000000Y-127300000D03*
%TD*%
D50*
%TO.C,R7*%
X120275000Y-118100000D03*
X121925000Y-118100000D03*
%TD*%
D51*
%TO.C,R33*%
X127750000Y-53800000D03*
X172250000Y-53800000D03*
D52*
X110300000Y-63800000D03*
X189700000Y-63800000D03*
%TD*%
D53*
%TO.C,R50*%
X121890000Y-83500000D03*
X122910000Y-83500000D03*
%TD*%
D54*
%TO.C,R45*%
X161950000Y-80990000D03*
X161950000Y-82010000D03*
%TD*%
D55*
%TO.C,SW3*%
X196930000Y-142700000D03*
X196930000Y-145700000D03*
D56*
X194920000Y-141950000D03*
X194920000Y-144950000D03*
X194920000Y-146450000D03*
D57*
X198030000Y-140050000D03*
X195820000Y-140050000D03*
X198030000Y-148350000D03*
X195820000Y-148350000D03*
%TD*%
D58*
%TO.C,C84*%
X113250000Y-69100000D03*
X111700000Y-69100000D03*
%TD*%
D59*
%TO.C,C25*%
X172100000Y-90895000D03*
X172100000Y-91855000D03*
%TD*%
D45*
%TO.C,C52*%
X169030000Y-89700000D03*
X168070000Y-89700000D03*
%TD*%
D59*
%TO.C,C14*%
X177000000Y-98770000D03*
X177000000Y-99730000D03*
%TD*%
D43*
%TO.C,R60*%
X121810000Y-55600000D03*
X120790000Y-55600000D03*
%TD*%
D46*
%TO.C,C10*%
X110500000Y-102180000D03*
X110500000Y-101220000D03*
%TD*%
D60*
%TO.C,J17*%
X141900000Y-145975000D03*
X133900000Y-145975000D03*
D61*
X134700000Y-134975000D03*
X135800000Y-134975000D03*
X136900000Y-134975000D03*
X138000000Y-134975000D03*
X139100000Y-134975000D03*
X140200000Y-134975000D03*
X141300000Y-134975000D03*
X142400000Y-134975000D03*
X143500000Y-134975000D03*
D62*
X144700000Y-145575000D03*
D63*
X144700000Y-135975000D03*
D64*
X130100000Y-135975000D03*
D62*
X129200000Y-145575000D03*
%TD*%
D45*
%TO.C,C12*%
X168330000Y-96850000D03*
X167370000Y-96850000D03*
%TD*%
D53*
%TO.C,R59*%
X114590000Y-55860000D03*
X115610000Y-55860000D03*
%TD*%
D65*
%TO.C,L4*%
X115675000Y-69300000D03*
X122725000Y-69300000D03*
%TD*%
D55*
%TO.C,SW2*%
X196900000Y-131700000D03*
X196900000Y-134700000D03*
D56*
X194890000Y-130950000D03*
X194890000Y-133950000D03*
X194890000Y-135450000D03*
D57*
X198000000Y-129050000D03*
X195790000Y-129050000D03*
X198000000Y-137350000D03*
X195790000Y-137350000D03*
%TD*%
D66*
%TO.C,C28*%
X134600000Y-107825000D03*
X134600000Y-109375000D03*
%TD*%
D45*
%TO.C,C36*%
X125930000Y-90900000D03*
X124970000Y-90900000D03*
%TD*%
D67*
%TO.C,C1*%
X139925000Y-115700000D03*
X141475000Y-115700000D03*
%TD*%
D45*
%TO.C,C54*%
X121430000Y-98750000D03*
X120470000Y-98750000D03*
%TD*%
D50*
%TO.C,R3*%
X139875000Y-117200000D03*
X141525000Y-117200000D03*
%TD*%
D53*
%TO.C,R18*%
X109090000Y-129600000D03*
X110110000Y-129600000D03*
%TD*%
D68*
%TO.C,LS2*%
X154000000Y-97800000D03*
X150000000Y-97800000D03*
X146000000Y-97800000D03*
X156000000Y-99050000D03*
X152000000Y-99050000D03*
X148000000Y-99050000D03*
X144000000Y-99050000D03*
X158000000Y-100300000D03*
X154000000Y-100300000D03*
X150000000Y-100300000D03*
X146000000Y-100300000D03*
X142000000Y-100300000D03*
X156000000Y-101550000D03*
X152000000Y-101550000D03*
X148000000Y-101550000D03*
X144000000Y-101550000D03*
X158000000Y-102800000D03*
X154000000Y-102800000D03*
X150000000Y-102800000D03*
X146000000Y-102800000D03*
X142000000Y-102800000D03*
X156000000Y-104050000D03*
X152000000Y-104050000D03*
X148000000Y-104050000D03*
X144000000Y-104050000D03*
X158000000Y-105300000D03*
X154000000Y-105300000D03*
X150000000Y-105300000D03*
X146000000Y-105300000D03*
X142000000Y-105300000D03*
X156000000Y-106550000D03*
X152000000Y-106550000D03*
X148000000Y-106550000D03*
X144000000Y-106550000D03*
X154000000Y-107800000D03*
X150000000Y-107800000D03*
X146000000Y-107800000D03*
%TD*%
D45*
%TO.C,C45*%
X152680000Y-91200000D03*
X151720000Y-91200000D03*
%TD*%
D53*
%TO.C,R65*%
X121890000Y-81300000D03*
X122910000Y-81300000D03*
%TD*%
%TO.C,R54*%
X185790000Y-118800000D03*
X186810000Y-118800000D03*
%TD*%
D54*
%TO.C,R55*%
X191150000Y-109640000D03*
X191150000Y-110660000D03*
%TD*%
D35*
%TO.C,J14*%
X190975000Y-104000000D03*
X196975000Y-104000000D03*
D69*
X194575000Y-100500000D03*
X197275000Y-107500000D03*
X198275000Y-100500000D03*
X190275000Y-107500000D03*
X188575000Y-100500000D03*
%TD*%
D66*
%TO.C,C29*%
X120300000Y-119625000D03*
X120300000Y-121175000D03*
%TD*%
D70*
%TO.C,U8*%
X134137500Y-124450000D03*
X134137500Y-125400000D03*
X134137500Y-126350000D03*
X131862500Y-126350000D03*
X131862500Y-125400000D03*
X131862500Y-124450000D03*
%TD*%
D71*
%TO.C,D13*%
X179100000Y-81750000D03*
X179100000Y-85050000D03*
%TD*%
D33*
%TO.C,LS1*%
X183050000Y-93800000D03*
D72*
X181050000Y-93800000D03*
%TD*%
D46*
%TO.C,C35*%
X124600000Y-82380000D03*
X124600000Y-81420000D03*
%TD*%
D73*
%TO.C,C16*%
X185020000Y-92050000D03*
X185980000Y-92050000D03*
%TD*%
D45*
%TO.C,C47*%
X138330000Y-91200000D03*
X137370000Y-91200000D03*
%TD*%
D74*
%TO.C,C80*%
X123775000Y-64500000D03*
X120825000Y-64500000D03*
%TD*%
D43*
%TO.C,R24*%
X177085000Y-101000000D03*
X176065000Y-101000000D03*
%TD*%
D45*
%TO.C,C60*%
X171680000Y-75300000D03*
X170720000Y-75300000D03*
%TD*%
D73*
%TO.C,C17*%
X185020000Y-93000000D03*
X185980000Y-93000000D03*
%TD*%
D75*
%TO.C,J13*%
X106350000Y-74740000D03*
X106350000Y-68960000D03*
D76*
X107600000Y-75050000D03*
X107550000Y-74250000D03*
D77*
X107550000Y-73100000D03*
X107550000Y-72100000D03*
X107550000Y-71600000D03*
X107550000Y-70600000D03*
D76*
X107550000Y-69450000D03*
X107600000Y-68650000D03*
X107600000Y-68650000D03*
X107550000Y-69450000D03*
D77*
X107550000Y-70100000D03*
X107550000Y-71100000D03*
X107550000Y-72600000D03*
X107550000Y-73600000D03*
D76*
X107550000Y-74250000D03*
X107600000Y-75050000D03*
D78*
X102650000Y-76670000D03*
D79*
X106830000Y-76670000D03*
D78*
X102650000Y-67030000D03*
D79*
X106830000Y-67030000D03*
%TD*%
D50*
%TO.C,R28*%
X120275000Y-116600000D03*
X121925000Y-116600000D03*
%TD*%
D59*
%TO.C,C26*%
X138000000Y-132520000D03*
X138000000Y-133480000D03*
%TD*%
D66*
%TO.C,C31*%
X131600000Y-107825000D03*
X131600000Y-109375000D03*
%TD*%
D80*
%TO.C,U10*%
X173575000Y-99700000D03*
X173075000Y-99700000D03*
X172575000Y-99700000D03*
X172075000Y-99700000D03*
X171575000Y-99700000D03*
X171075000Y-99700000D03*
X170575000Y-99700000D03*
X170075000Y-99700000D03*
D81*
X169375000Y-99000000D03*
X169375000Y-98500000D03*
X169375000Y-98000000D03*
X169375000Y-97500000D03*
X169375000Y-97000000D03*
X169375000Y-96500000D03*
X169375000Y-96000000D03*
X169375000Y-95500000D03*
D80*
X170075000Y-94800000D03*
X170575000Y-94800000D03*
X171075000Y-94800000D03*
X171575000Y-94800000D03*
X172075000Y-94800000D03*
X172575000Y-94800000D03*
X173075000Y-94800000D03*
X173575000Y-94800000D03*
D81*
X174275000Y-95500000D03*
X174275000Y-96000000D03*
X174275000Y-96500000D03*
X174275000Y-97000000D03*
X174275000Y-97500000D03*
X174275000Y-98000000D03*
X174275000Y-98500000D03*
X174275000Y-99000000D03*
D82*
X171825000Y-97250000D03*
%TD*%
D59*
%TO.C,C53*%
X170700000Y-144740000D03*
X170700000Y-145700000D03*
%TD*%
D83*
%TO.C,FB1*%
X178500000Y-100912500D03*
X178500000Y-102487500D03*
%TD*%
D59*
%TO.C,C27*%
X144950000Y-113470000D03*
X144950000Y-114430000D03*
%TD*%
D45*
%TO.C,C59*%
X169080000Y-58400000D03*
X168120000Y-58400000D03*
%TD*%
D54*
%TO.C,R58*%
X146400000Y-137040000D03*
X146400000Y-138060000D03*
%TD*%
D58*
%TO.C,C56*%
X118575000Y-144200000D03*
X117025000Y-144200000D03*
%TD*%
D73*
%TO.C,C48*%
X157070000Y-91200000D03*
X158030000Y-91200000D03*
%TD*%
D46*
%TO.C,C22*%
X176000000Y-100080000D03*
X176000000Y-99120000D03*
%TD*%
D84*
%TO.C,R35*%
X161000000Y-82010000D03*
X161000000Y-80990000D03*
%TD*%
D85*
%TO.C,D3*%
X182725000Y-140025000D03*
X182725000Y-141925000D03*
X179725000Y-140975000D03*
%TD*%
D45*
%TO.C,C23*%
X175180000Y-101000000D03*
X174220000Y-101000000D03*
%TD*%
D54*
%TO.C,R39*%
X168950000Y-77090000D03*
X168950000Y-78110000D03*
%TD*%
D58*
%TO.C,C83*%
X113275000Y-67600000D03*
X111725000Y-67600000D03*
%TD*%
D73*
%TO.C,C15*%
X175220000Y-95200000D03*
X176180000Y-95200000D03*
%TD*%
D86*
%TO.C,R15*%
X149575000Y-60987500D03*
X149575000Y-63912500D03*
%TD*%
D87*
%TO.C,U27*%
X122950000Y-60050000D03*
X122000000Y-60050000D03*
X121050000Y-60050000D03*
X121050000Y-57350000D03*
X122000000Y-57350000D03*
X122950000Y-57350000D03*
%TD*%
D53*
%TO.C,R10*%
X109490000Y-103100000D03*
X110510000Y-103100000D03*
%TD*%
D66*
%TO.C,C30*%
X133100000Y-107825000D03*
X133100000Y-109375000D03*
%TD*%
D88*
%TO.C,U12*%
X118700000Y-149000000D03*
X118700000Y-148000000D03*
X118700000Y-147000000D03*
X120700000Y-147000000D03*
X120700000Y-148000000D03*
X120700000Y-149000000D03*
%TD*%
D53*
%TO.C,R62*%
X150790000Y-113600000D03*
X151810000Y-113600000D03*
%TD*%
D89*
%TO.C,U1*%
X180100000Y-137830000D03*
X180100000Y-136560000D03*
X180100000Y-135290000D03*
X180100000Y-134020000D03*
X186100000Y-134020000D03*
X186100000Y-135290000D03*
X186100000Y-136560000D03*
X186100000Y-137830000D03*
%TD*%
D45*
%TO.C,C49*%
X128330000Y-89950000D03*
X127370000Y-89950000D03*
%TD*%
D90*
%TO.C,U5*%
X132637500Y-82450000D03*
X132637500Y-82950000D03*
X132637500Y-83450000D03*
X132637500Y-83950000D03*
X132637500Y-84450000D03*
X132637500Y-84950000D03*
X132637500Y-85450000D03*
X132637500Y-85950000D03*
X132637500Y-86450000D03*
X132637500Y-86950000D03*
X132637500Y-87450000D03*
X132637500Y-87950000D03*
D91*
X131950000Y-88637500D03*
X131450000Y-88637500D03*
X130950000Y-88637500D03*
X130450000Y-88637500D03*
X129950000Y-88637500D03*
X129450000Y-88637500D03*
X128950000Y-88637500D03*
X128450000Y-88637500D03*
X127950000Y-88637500D03*
X127450000Y-88637500D03*
X126950000Y-88637500D03*
X126450000Y-88637500D03*
D90*
X125762500Y-87950000D03*
X125762500Y-87450000D03*
X125762500Y-86950000D03*
X125762500Y-86450000D03*
X125762500Y-85950000D03*
X125762500Y-85450000D03*
X125762500Y-84950000D03*
X125762500Y-84450000D03*
X125762500Y-83950000D03*
X125762500Y-83450000D03*
X125762500Y-82950000D03*
X125762500Y-82450000D03*
D91*
X126450000Y-81762500D03*
X126950000Y-81762500D03*
X127450000Y-81762500D03*
X127950000Y-81762500D03*
X128450000Y-81762500D03*
X128950000Y-81762500D03*
X129450000Y-81762500D03*
X129950000Y-81762500D03*
X130450000Y-81762500D03*
X130950000Y-81762500D03*
X131450000Y-81762500D03*
X131950000Y-81762500D03*
D92*
X129200000Y-85200000D03*
%TD*%
D35*
%TO.C,J16*%
X190975000Y-115000000D03*
X196975000Y-115000000D03*
D69*
X194575000Y-111500000D03*
X197275000Y-118500000D03*
X198275000Y-111500000D03*
X190275000Y-118500000D03*
X188575000Y-111500000D03*
%TD*%
D93*
%TO.C,J11*%
X105300000Y-143700000D03*
X105300000Y-142700000D03*
X105300000Y-141700000D03*
X105300000Y-140700000D03*
D94*
X101425000Y-145000000D03*
X101425000Y-139400000D03*
%TD*%
D95*
%TO.C,U9*%
X117750000Y-98337500D03*
X118250000Y-98337500D03*
X118750000Y-98337500D03*
X119250000Y-98337500D03*
D96*
X119412500Y-99000000D03*
X119412500Y-99500000D03*
X119412500Y-100000000D03*
D95*
X119250000Y-100662500D03*
X118750000Y-100662500D03*
X118250000Y-100662500D03*
X117750000Y-100662500D03*
D96*
X117587500Y-100000000D03*
X117587500Y-99500000D03*
X117587500Y-99000000D03*
%TD*%
D97*
%TO.C,U4*%
X148450000Y-148420000D03*
X148450000Y-147150000D03*
X148450000Y-145880000D03*
X148450000Y-144610000D03*
X148450000Y-143340000D03*
X148450000Y-142070000D03*
X148450000Y-140800000D03*
X148450000Y-139530000D03*
X148450000Y-138260000D03*
X148450000Y-136990000D03*
X148450000Y-135720000D03*
X148450000Y-134450000D03*
X148450000Y-133180000D03*
X148450000Y-131910000D03*
D98*
X150215000Y-130660000D03*
X151485000Y-130660000D03*
X152755000Y-130660000D03*
X154025000Y-130660000D03*
X155295000Y-130660000D03*
X156565000Y-130660000D03*
X157835000Y-130660000D03*
X159105000Y-130660000D03*
X160375000Y-130660000D03*
X161645000Y-130660000D03*
X162915000Y-130660000D03*
X164185000Y-130660000D03*
D97*
X165950000Y-131910000D03*
X165950000Y-133180000D03*
X165950000Y-134450000D03*
X165950000Y-135720000D03*
X165950000Y-136990000D03*
X165950000Y-138260000D03*
X165950000Y-139530000D03*
X165950000Y-140800000D03*
X165950000Y-142070000D03*
X165950000Y-143340000D03*
X165950000Y-144610000D03*
X165950000Y-145880000D03*
X165950000Y-147150000D03*
X165950000Y-148420000D03*
D99*
X154300000Y-139300000D03*
X154300000Y-139300000D03*
X154300000Y-140700000D03*
X154300000Y-142100000D03*
X155700000Y-139300000D03*
X155700000Y-140700000D03*
X155700000Y-142100000D03*
X155700000Y-142100000D03*
X157100000Y-139300000D03*
X157100000Y-140700000D03*
X157100000Y-142100000D03*
%TD*%
D45*
%TO.C,C20*%
X183930000Y-116575000D03*
X182970000Y-116575000D03*
%TD*%
D54*
%TO.C,R43*%
X146700000Y-144390000D03*
X146700000Y-145410000D03*
%TD*%
%TO.C,R30*%
X184400000Y-67290000D03*
X184400000Y-68310000D03*
%TD*%
D47*
%TO.C,C18*%
X180000000Y-98850000D03*
X185600000Y-98850000D03*
%TD*%
D100*
%TO.C,Y1*%
X138550000Y-85450000D03*
X136350000Y-85450000D03*
X136350000Y-83750000D03*
X138550000Y-83750000D03*
%TD*%
D101*
%TO.C,L1*%
X126475000Y-112200000D03*
X119425000Y-112200000D03*
%TD*%
D51*
%TO.C,Q3*%
X127770000Y-63500000D03*
D102*
X144430000Y-66040000D03*
D103*
X144430000Y-63500000D03*
X144430000Y-60960000D03*
%TD*%
D104*
%TO.C,J7*%
X157675000Y-85775000D03*
D105*
X157675000Y-83275000D03*
%TD*%
D43*
%TO.C,R22*%
X178110000Y-57500000D03*
X177090000Y-57500000D03*
%TD*%
D46*
%TO.C,C34*%
X133800000Y-81380000D03*
X133800000Y-80420000D03*
%TD*%
D54*
%TO.C,R37*%
X172150000Y-104440000D03*
X172150000Y-105460000D03*
%TD*%
D35*
%TO.C,J3*%
X190975000Y-93000000D03*
X196975000Y-93000000D03*
D69*
X194575000Y-89500000D03*
X197275000Y-96500000D03*
X198275000Y-89500000D03*
X190275000Y-96500000D03*
X188575000Y-89500000D03*
%TD*%
D53*
%TO.C,R40*%
X169590000Y-134800000D03*
X170610000Y-134800000D03*
%TD*%
D45*
%TO.C,C37*%
X128330000Y-90900000D03*
X127370000Y-90900000D03*
%TD*%
D106*
%TO.C,BT1*%
X122345000Y-127600000D03*
X177955000Y-127600000D03*
D107*
X113700000Y-127600000D03*
D108*
X185700000Y-127600000D03*
%TD*%
D43*
%TO.C,R8*%
X186010000Y-131900000D03*
X184990000Y-131900000D03*
%TD*%
D54*
%TO.C,R12*%
X146500000Y-69990000D03*
X146500000Y-71010000D03*
%TD*%
D45*
%TO.C,C58*%
X128880000Y-100700000D03*
X127920000Y-100700000D03*
%TD*%
D53*
%TO.C,R53*%
X172590000Y-76500000D03*
X173610000Y-76500000D03*
%TD*%
D54*
%TO.C,R61*%
X135800000Y-132490000D03*
X135800000Y-133510000D03*
%TD*%
D46*
%TO.C,C5*%
X168200000Y-142980000D03*
X168200000Y-142020000D03*
%TD*%
%TO.C,C9*%
X110500000Y-98480000D03*
X110500000Y-97520000D03*
%TD*%
D53*
%TO.C,R25*%
X187690000Y-118800000D03*
X188710000Y-118800000D03*
%TD*%
D73*
%TO.C,C21*%
X175970000Y-96150000D03*
X176930000Y-96150000D03*
%TD*%
D43*
%TO.C,R4*%
X129110000Y-117700000D03*
X128090000Y-117700000D03*
%TD*%
D53*
%TO.C,R49*%
X133890000Y-85150000D03*
X134910000Y-85150000D03*
%TD*%
D109*
%TO.C,Q5*%
X161300000Y-83412500D03*
X163200000Y-83412500D03*
X162250000Y-85287500D03*
%TD*%
D53*
%TO.C,R19*%
X109190000Y-126800000D03*
X110210000Y-126800000D03*
%TD*%
D59*
%TO.C,C41*%
X132400000Y-72420000D03*
X132400000Y-73380000D03*
%TD*%
D66*
%TO.C,C7*%
X121900000Y-119625000D03*
X121900000Y-121175000D03*
%TD*%
D54*
%TO.C,R21*%
X189400000Y-147580000D03*
X189400000Y-148600000D03*
%TD*%
D53*
%TO.C,R67*%
X134690000Y-81000000D03*
X135710000Y-81000000D03*
%TD*%
D110*
%TO.C,U11*%
X135150000Y-77800000D03*
X135150000Y-75500000D03*
D111*
X141450000Y-75500000D03*
D110*
X135150000Y-73200000D03*
%TD*%
D84*
%TO.C,R11*%
X172475000Y-86410000D03*
X172475000Y-85390000D03*
%TD*%
D59*
%TO.C,C50*%
X140050000Y-84120000D03*
X140050000Y-85080000D03*
%TD*%
D112*
%TO.C,D2*%
X183750000Y-131900000D03*
X181850000Y-131900000D03*
X182800000Y-128900000D03*
%TD*%
D43*
%TO.C,R26*%
X170235000Y-93650000D03*
X169215000Y-93650000D03*
%TD*%
%TO.C,R51*%
X131260000Y-96000000D03*
X130240000Y-96000000D03*
%TD*%
D113*
%TO.C,U14*%
X126925000Y-103300000D03*
X127575000Y-103300000D03*
X128225000Y-103300000D03*
X128875000Y-103300000D03*
X128875000Y-101700000D03*
X128225000Y-101700000D03*
X127575000Y-101700000D03*
X126925000Y-101700000D03*
%TD*%
D73*
%TO.C,C33*%
X131920000Y-80600000D03*
X132880000Y-80600000D03*
%TD*%
D114*
%TO.C,K1*%
X181700000Y-78500000D03*
X184900000Y-78500000D03*
X187100000Y-78500000D03*
X189300000Y-78500000D03*
X189300000Y-85500000D03*
X187100000Y-85500000D03*
X184900000Y-85500000D03*
X181700000Y-85500000D03*
%TD*%
D43*
%TO.C,R48*%
X123710000Y-55600000D03*
X122690000Y-55600000D03*
%TD*%
D59*
%TO.C,C2*%
X146900000Y-147420000D03*
X146900000Y-148380000D03*
%TD*%
D115*
%TO.C,U3*%
X114737500Y-89425000D03*
X114737500Y-88775000D03*
X114737500Y-88125000D03*
X114737500Y-87475000D03*
X114737500Y-86825000D03*
X114737500Y-86175000D03*
X114737500Y-85525000D03*
X114737500Y-84875000D03*
X114737500Y-84225000D03*
X114737500Y-83575000D03*
X114737500Y-82925000D03*
X114737500Y-82275000D03*
X114737500Y-81625000D03*
X114737500Y-80975000D03*
X120462500Y-80975000D03*
X120462500Y-81625000D03*
X120462500Y-82275000D03*
X120462500Y-82925000D03*
X120462500Y-83575000D03*
X120462500Y-84225000D03*
X120462500Y-84875000D03*
X120462500Y-85525000D03*
X120462500Y-86175000D03*
X120462500Y-86825000D03*
X120462500Y-87475000D03*
X120462500Y-88125000D03*
X120462500Y-88775000D03*
X120462500Y-89425000D03*
D116*
X117600000Y-85200000D03*
%TD*%
D43*
%TO.C,R1*%
X184610000Y-148900000D03*
X183590000Y-148900000D03*
%TD*%
D59*
%TO.C,C81*%
X124300000Y-56820000D03*
X124300000Y-57780000D03*
%TD*%
D53*
%TO.C,R52*%
X121890000Y-82300000D03*
X122910000Y-82300000D03*
%TD*%
D117*
%TO.C,U17*%
X158520000Y-62830000D03*
D118*
X156450000Y-64100000D03*
X158520000Y-65370000D03*
%TD*%
D119*
%TO.C,R20*%
X188500000Y-134750000D03*
X188500000Y-131650000D03*
%TD*%
D46*
%TO.C,C3*%
X187800000Y-138980000D03*
X187800000Y-138020000D03*
%TD*%
D43*
%TO.C,R34*%
X119010000Y-75900000D03*
X117990000Y-75900000D03*
%TD*%
D75*
%TO.C,J5*%
X106400000Y-131490000D03*
X106400000Y-125710000D03*
D76*
X107650000Y-131800000D03*
X107600000Y-131000000D03*
D77*
X107600000Y-129850000D03*
X107600000Y-128850000D03*
X107600000Y-128350000D03*
X107600000Y-127350000D03*
D76*
X107600000Y-126200000D03*
X107650000Y-125400000D03*
X107650000Y-125400000D03*
X107600000Y-126200000D03*
D77*
X107600000Y-126850000D03*
X107600000Y-127850000D03*
X107600000Y-129350000D03*
X107600000Y-130350000D03*
D76*
X107600000Y-131000000D03*
X107650000Y-131800000D03*
D78*
X102700000Y-133420000D03*
D79*
X106880000Y-133420000D03*
D78*
X102700000Y-123780000D03*
D79*
X106880000Y-123780000D03*
%TD*%
D45*
%TO.C,C55*%
X121430000Y-100700000D03*
X120470000Y-100700000D03*
%TD*%
D43*
%TO.C,R64*%
X131260000Y-94700000D03*
X130240000Y-94700000D03*
%TD*%
%TO.C,R41*%
X171710000Y-146600000D03*
X170690000Y-146600000D03*
%TD*%
D44*
%TO.C,Q2*%
X185862500Y-66550000D03*
X185862500Y-64650000D03*
X187737500Y-65600000D03*
%TD*%
D84*
%TO.C,R23*%
X184975000Y-117360000D03*
X184975000Y-116340000D03*
%TD*%
%TO.C,R36*%
X174000000Y-105460000D03*
X174000000Y-104440000D03*
%TD*%
D46*
%TO.C,C38*%
X113200000Y-89780000D03*
X113200000Y-88820000D03*
%TD*%
D54*
%TO.C,R57*%
X139200000Y-132465000D03*
X139200000Y-133485000D03*
%TD*%
D59*
%TO.C,C44*%
X133400000Y-75420000D03*
X133400000Y-76380000D03*
%TD*%
D54*
%TO.C,R42*%
X184500000Y-121840000D03*
X184500000Y-122860000D03*
%TD*%
D43*
%TO.C,R2*%
X146910000Y-146300000D03*
X145890000Y-146300000D03*
%TD*%
D53*
%TO.C,R14*%
X109490000Y-99400000D03*
X110510000Y-99400000D03*
%TD*%
D58*
%TO.C,C79*%
X122275000Y-62600000D03*
X120725000Y-62600000D03*
%TD*%
D54*
%TO.C,R56*%
X136800000Y-132480000D03*
X136800000Y-133500000D03*
%TD*%
D120*
%TO.C,Q1*%
X149137500Y-66250000D03*
X149137500Y-68150000D03*
X147262500Y-67200000D03*
%TD*%
D46*
%TO.C,C42*%
X133400000Y-73380000D03*
X133400000Y-72420000D03*
%TD*%
D45*
%TO.C,C40*%
X170480000Y-118600000D03*
X169520000Y-118600000D03*
%TD*%
D73*
%TO.C,C8*%
X109720000Y-95500000D03*
X110680000Y-95500000D03*
%TD*%
D45*
%TO.C,C82*%
X115580000Y-56825000D03*
X114620000Y-56825000D03*
%TD*%
D121*
%TO.C,U24*%
X111700000Y-73837500D03*
X110750000Y-73837500D03*
X109800000Y-73837500D03*
X109800000Y-71562500D03*
X110750000Y-71562500D03*
X111700000Y-71562500D03*
%TD*%
D43*
%TO.C,R29*%
X173535000Y-84450000D03*
X172515000Y-84450000D03*
%TD*%
D86*
%TO.C,R13*%
X147250000Y-60962500D03*
X147250000Y-63887500D03*
%TD*%
D45*
%TO.C,C13*%
X168330000Y-95900000D03*
X167370000Y-95900000D03*
%TD*%
D53*
%TO.C,R16*%
X109490000Y-94400000D03*
X110510000Y-94400000D03*
%TD*%
D59*
%TO.C,C24*%
X173900000Y-90895000D03*
X173900000Y-91855000D03*
%TD*%
D50*
%TO.C,R47*%
X136875000Y-117200000D03*
X138525000Y-117200000D03*
%TD*%
D43*
%TO.C,R6*%
X184010000Y-76200000D03*
X182990000Y-76200000D03*
%TD*%
D59*
%TO.C,C11*%
X179800000Y-145140000D03*
X179800000Y-146100000D03*
%TD*%
D122*
%TO.C,U2*%
X134775000Y-112595000D03*
X134775000Y-113865000D03*
X134775000Y-115135000D03*
X134775000Y-116405000D03*
X129825000Y-116405000D03*
X129825000Y-115135000D03*
X129825000Y-113865000D03*
X129825000Y-112595000D03*
D123*
X132300000Y-114500000D03*
%TD*%
D53*
%TO.C,R38*%
X168040000Y-91200000D03*
X169060000Y-91200000D03*
%TD*%
D43*
%TO.C,R17*%
X131260000Y-96950000D03*
X130240000Y-96950000D03*
%TD*%
%TO.C,R66*%
X170510000Y-119600000D03*
X169490000Y-119600000D03*
%TD*%
D84*
%TO.C,R44*%
X146700000Y-143520000D03*
X146700000Y-142500000D03*
%TD*%
D53*
%TO.C,R9*%
X117690000Y-142400000D03*
X118710000Y-142400000D03*
%TD*%
D45*
%TO.C,C46*%
X145580000Y-91200000D03*
X144620000Y-91200000D03*
%TD*%
%TO.C,C61*%
X137780000Y-82400000D03*
X136820000Y-82400000D03*
%TD*%
D54*
%TO.C,R31*%
X184400000Y-65390000D03*
X184400000Y-66410000D03*
%TD*%
D66*
%TO.C,C6*%
X145600000Y-147525000D03*
X145600000Y-149075000D03*
%TD*%
D124*
%TO.C,R46*%
X187950000Y-141575000D03*
X184850000Y-141575000D03*
%TD*%
D125*
%TO.C,FB2*%
X127287500Y-92100000D03*
X125712500Y-92100000D03*
%TD*%
D89*
%TO.C,U7*%
X181600000Y-147505000D03*
X181600000Y-146235000D03*
X181600000Y-144965000D03*
X181600000Y-143695000D03*
X187600000Y-143695000D03*
X187600000Y-144965000D03*
X187600000Y-146235000D03*
X187600000Y-147505000D03*
%TD*%
D67*
%TO.C,C4*%
X136925000Y-115700000D03*
X138475000Y-115700000D03*
%TD*%
D53*
%TO.C,R27*%
X191790000Y-119300000D03*
X192810000Y-119300000D03*
%TD*%
D46*
%TO.C,C51*%
X112200000Y-88580000D03*
X112200000Y-87620000D03*
%TD*%
D54*
%TO.C,R5*%
X187800000Y-136090000D03*
X187800000Y-137110000D03*
%TD*%
D46*
%TO.C,C57*%
X117600000Y-148980000D03*
X117600000Y-148020000D03*
%TD*%
M02*
