%TF.GenerationSoftware,KiCad,Pcbnew,8.0.5*%
%TF.CreationDate,2024-10-18T10:17:48+02:00*%
%TF.ProjectId,labathome_pcb15,6c616261-7468-46f6-9d65-5f7063623135,rev?*%
%TF.SameCoordinates,Original*%
%TF.FileFunction,Legend,Bot*%
%TF.FilePolarity,Positive*%
%FSLAX46Y46*%
G04 Gerber Fmt 4.6, Leading zero omitted, Abs format (unit mm)*
G04 Created by KiCad (PCBNEW 8.0.5) date 2024-10-18 10:17:48*
%MOMM*%
%LPD*%
G01*
G04 APERTURE LIST*
G04 Aperture macros list*
%AMRoundRect*
0 Rectangle with rounded corners*
0 $1 Rounding radius*
0 $2 $3 $4 $5 $6 $7 $8 $9 X,Y pos of 4 corners*
0 Add a 4 corners polygon primitive as box body*
4,1,4,$2,$3,$4,$5,$6,$7,$8,$9,$2,$3,0*
0 Add four circle primitives for the rounded corners*
1,1,$1+$1,$2,$3*
1,1,$1+$1,$4,$5*
1,1,$1+$1,$6,$7*
1,1,$1+$1,$8,$9*
0 Add four rect primitives between the rounded corners*
20,1,$1+$1,$2,$3,$4,$5,0*
20,1,$1+$1,$4,$5,$6,$7,0*
20,1,$1+$1,$6,$7,$8,$9,0*
20,1,$1+$1,$8,$9,$2,$3,0*%
%AMHorizOval*
0 Thick line with rounded ends*
0 $1 width*
0 $2 $3 position (X,Y) of the first rounded end (center of the circle)*
0 $4 $5 position (X,Y) of the second rounded end (center of the circle)*
0 Add line between two ends*
20,1,$1,$2,$3,$4,$5,0*
0 Add two circle primitives to create the rounded ends*
1,1,$1,$2,$3*
1,1,$1,$4,$5*%
%AMRotRect*
0 Rectangle, with rotation*
0 The origin of the aperture is its center*
0 $1 length*
0 $2 width*
0 $3 Rotation angle, in degrees counterclockwise*
0 Add horizontal line*
21,1,$1,$2,0,0,$3*%
%AMFreePoly0*
4,1,19,0.500000,-0.750000,0.000000,-0.750000,0.000000,-0.744911,-0.071157,-0.744911,-0.207708,-0.704816,-0.327430,-0.627875,-0.420627,-0.520320,-0.479746,-0.390866,-0.500000,-0.250000,-0.500000,0.250000,-0.479746,0.390866,-0.420627,0.520320,-0.327430,0.627875,-0.207708,0.704816,-0.071157,0.744911,0.000000,0.744911,0.000000,0.750000,0.500000,0.750000,0.500000,-0.750000,0.500000,-0.750000,
$1*%
%AMFreePoly1*
4,1,19,0.000000,0.744911,0.071157,0.744911,0.207708,0.704816,0.327430,0.627875,0.420627,0.520320,0.479746,0.390866,0.500000,0.250000,0.500000,-0.250000,0.479746,-0.390866,0.420627,-0.520320,0.327430,-0.627875,0.207708,-0.704816,0.071157,-0.744911,0.000000,-0.744911,0.000000,-0.750000,-0.500000,-0.750000,-0.500000,0.750000,0.000000,0.750000,0.000000,0.744911,0.000000,0.744911,
$1*%
G04 Aperture macros list end*
%ADD10C,0.250000*%
%ADD11C,0.150000*%
%ADD12C,0.120000*%
%ADD13C,0.100000*%
%ADD14C,1.200000*%
%ADD15R,1.700000X1.700000*%
%ADD16O,1.700000X1.700000*%
%ADD17RoundRect,0.750000X-1.000000X0.750000X-1.000000X-0.750000X1.000000X-0.750000X1.000000X0.750000X0*%
%ADD18RoundRect,0.750000X-1.000000X1.000000X-1.000000X-1.000000X1.000000X-1.000000X1.000000X1.000000X0*%
%ADD19RoundRect,0.875000X-0.875000X0.875000X-0.875000X-0.875000X0.875000X-0.875000X0.875000X0.875000X0*%
%ADD20RoundRect,0.450000X-0.750000X0.450000X-0.750000X-0.450000X0.750000X-0.450000X0.750000X0.450000X0*%
%ADD21RoundRect,0.250000X0.600000X-0.600000X0.600000X0.600000X-0.600000X0.600000X-0.600000X-0.600000X0*%
%ADD22C,1.500000*%
%ADD23R,1.100000X1.800000*%
%ADD24RoundRect,0.275000X-0.275000X-0.625000X0.275000X-0.625000X0.275000X0.625000X-0.275000X0.625000X0*%
%ADD25RoundRect,0.450000X0.750000X-0.450000X0.750000X0.450000X-0.750000X0.450000X-0.750000X-0.450000X0*%
%ADD26RoundRect,0.400000X-0.400000X-0.400000X0.400000X-0.400000X0.400000X0.400000X-0.400000X0.400000X0*%
%ADD27O,1.800000X1.600000*%
%ADD28O,1.600000X2.200000*%
%ADD29C,1.700000*%
%ADD30R,1.350000X1.350000*%
%ADD31C,1.350000*%
%ADD32C,3.400000*%
%ADD33RoundRect,0.500000X0.350000X-0.350000X0.350000X0.350000X-0.350000X0.350000X-0.350000X-0.350000X0*%
%ADD34HorizOval,1.400000X0.000000X0.000000X0.000000X0.000000X0*%
%ADD35C,1.600000*%
%ADD36RoundRect,0.100000X0.021213X0.162635X-0.162635X-0.021213X-0.021213X-0.162635X0.162635X0.021213X0*%
%ADD37RoundRect,0.150000X-0.587500X-0.150000X0.587500X-0.150000X0.587500X0.150000X-0.587500X0.150000X0*%
%ADD38RoundRect,0.100000X0.130000X0.100000X-0.130000X0.100000X-0.130000X-0.100000X0.130000X-0.100000X0*%
%ADD39RoundRect,0.140000X0.140000X0.170000X-0.140000X0.170000X-0.140000X-0.170000X0.140000X-0.170000X0*%
%ADD40RoundRect,0.250000X-1.500000X-0.550000X1.500000X-0.550000X1.500000X0.550000X-1.500000X0.550000X0*%
%ADD41RoundRect,0.200000X-0.200000X-0.275000X0.200000X-0.275000X0.200000X0.275000X-0.200000X0.275000X0*%
%ADD42RoundRect,0.150000X0.150000X-0.587500X0.150000X0.587500X-0.150000X0.587500X-0.150000X-0.587500X0*%
%ADD43O,3.500000X3.500000*%
%ADD44C,3.600000*%
%ADD45RoundRect,0.250000X-0.450000X0.350000X-0.450000X-0.350000X0.450000X-0.350000X0.450000X0.350000X0*%
%ADD46RoundRect,0.100000X-0.100000X0.130000X-0.100000X-0.130000X0.100000X-0.130000X0.100000X0.130000X0*%
%ADD47C,0.900000*%
%ADD48R,2.000000X0.700000*%
%ADD49R,0.800000X2.000000*%
%ADD50RoundRect,0.225000X0.225000X0.250000X-0.225000X0.250000X-0.225000X-0.250000X0.225000X-0.250000X0*%
%ADD51RoundRect,0.140000X-0.219203X-0.021213X-0.021213X-0.219203X0.219203X0.021213X0.021213X0.219203X0*%
%ADD52RoundRect,0.140000X-0.170000X0.140000X-0.170000X-0.140000X0.170000X-0.140000X0.170000X0.140000X0*%
%ADD53RoundRect,0.135000X0.135000X0.185000X-0.135000X0.185000X-0.135000X-0.185000X0.135000X-0.185000X0*%
%ADD54RoundRect,0.100000X-0.130000X-0.100000X0.130000X-0.100000X0.130000X0.100000X-0.130000X0.100000X0*%
%ADD55C,1.000000*%
%ADD56R,0.700000X1.600000*%
%ADD57R,1.200000X2.200000*%
%ADD58R,1.200000X1.500000*%
%ADD59R,1.600000X1.500000*%
%ADD60RoundRect,0.250000X-0.450000X-0.425000X0.450000X-0.425000X0.450000X0.425000X-0.450000X0.425000X0*%
%ADD61RoundRect,0.140000X-0.021213X0.219203X-0.219203X0.021213X0.021213X-0.219203X0.219203X-0.021213X0*%
%ADD62RoundRect,0.335000X-1.340000X-1.365000X1.340000X-1.365000X1.340000X1.365000X-1.340000X1.365000X0*%
%ADD63RoundRect,0.220000X-0.780000X-0.330000X0.780000X-0.330000X0.780000X0.330000X-0.780000X0.330000X0*%
%ADD64RoundRect,0.082000X-0.328000X-0.618000X0.328000X-0.618000X0.328000X0.618000X-0.328000X0.618000X0*%
%ADD65RoundRect,0.225000X-0.250000X0.225000X-0.250000X-0.225000X0.250000X-0.225000X0.250000X0.225000X0*%
%ADD66RoundRect,0.225000X0.250000X-0.225000X0.250000X0.225000X-0.250000X0.225000X-0.250000X-0.225000X0*%
%ADD67RoundRect,0.140000X-0.140000X-0.170000X0.140000X-0.170000X0.140000X0.170000X-0.140000X0.170000X0*%
%ADD68RoundRect,0.250000X0.475000X-0.250000X0.475000X0.250000X-0.475000X0.250000X-0.475000X-0.250000X0*%
%ADD69RoundRect,0.100000X0.100000X-0.130000X0.100000X0.130000X-0.100000X0.130000X-0.100000X-0.130000X0*%
%ADD70C,2.000000*%
%ADD71RoundRect,0.112500X-0.187500X-0.112500X0.187500X-0.112500X0.187500X0.112500X-0.187500X0.112500X0*%
%ADD72RoundRect,0.130000X0.520000X0.670000X-0.520000X0.670000X-0.520000X-0.670000X0.520000X-0.670000X0*%
%ADD73RoundRect,0.220000X0.330000X-0.780000X0.330000X0.780000X-0.330000X0.780000X-0.330000X-0.780000X0*%
%ADD74RoundRect,0.250000X0.750000X-1.250000X0.750000X1.250000X-0.750000X1.250000X-0.750000X-1.250000X0*%
%ADD75RoundRect,0.150000X0.825000X0.150000X-0.825000X0.150000X-0.825000X-0.150000X0.825000X-0.150000X0*%
%ADD76R,2.300000X2.300000*%
%ADD77RoundRect,0.225000X-0.225000X-0.250000X0.225000X-0.250000X0.225000X0.250000X-0.225000X0.250000X0*%
%ADD78RoundRect,0.150000X0.512500X0.150000X-0.512500X0.150000X-0.512500X-0.150000X0.512500X-0.150000X0*%
%ADD79RoundRect,0.112500X-0.112500X0.187500X-0.112500X-0.187500X0.112500X-0.187500X0.112500X0.187500X0*%
%ADD80RoundRect,0.135000X-0.035355X0.226274X-0.226274X0.035355X0.035355X-0.226274X0.226274X-0.035355X0*%
%ADD81R,3.600000X1.500000*%
%ADD82RoundRect,0.255000X0.255000X-1.330000X0.255000X1.330000X-0.255000X1.330000X-0.255000X-1.330000X0*%
%ADD83RoundRect,0.250000X-0.250000X-0.475000X0.250000X-0.475000X0.250000X0.475000X-0.250000X0.475000X0*%
%ADD84C,0.650000*%
%ADD85R,1.450000X0.600000*%
%ADD86R,1.450000X0.300000*%
%ADD87O,2.500000X2.000000*%
%ADD88O,3.500000X2.000000*%
%ADD89RoundRect,0.062500X0.282843X-0.194454X-0.194454X0.282843X-0.282843X0.194454X0.194454X-0.282843X0*%
%ADD90RoundRect,0.062500X0.282843X0.194454X0.194454X0.282843X-0.282843X-0.194454X-0.194454X-0.282843X0*%
%ADD91RotRect,3.600000X3.600000X135.000000*%
%ADD92RoundRect,0.218750X0.026517X-0.335876X0.335876X-0.026517X-0.026517X0.335876X-0.335876X0.026517X0*%
%ADD93RoundRect,0.250000X0.450000X0.425000X-0.450000X0.425000X-0.450000X-0.425000X0.450000X-0.425000X0*%
%ADD94RoundRect,0.200000X-0.200000X0.750000X-0.200000X-0.750000X0.200000X-0.750000X0.200000X0.750000X0*%
%ADD95RoundRect,0.140000X0.170000X-0.140000X0.170000X0.140000X-0.170000X0.140000X-0.170000X-0.140000X0*%
%ADD96RoundRect,0.250000X-0.425000X0.450000X-0.425000X-0.450000X0.425000X-0.450000X0.425000X0.450000X0*%
%ADD97RoundRect,0.250000X-0.625000X0.312500X-0.625000X-0.312500X0.625000X-0.312500X0.625000X0.312500X0*%
%ADD98RoundRect,0.162500X0.162500X-0.617500X0.162500X0.617500X-0.162500X0.617500X-0.162500X-0.617500X0*%
%ADD99RoundRect,0.135000X-0.135000X-0.185000X0.135000X-0.185000X0.135000X0.185000X-0.135000X0.185000X0*%
%ADD100R,0.800000X0.500000*%
%ADD101R,2.200000X3.000000*%
%ADD102R,2.200000X2.000000*%
%ADD103R,2.200000X0.600000*%
%ADD104RoundRect,0.050000X0.285000X0.100000X-0.285000X0.100000X-0.285000X-0.100000X0.285000X-0.100000X0*%
%ADD105RoundRect,0.150000X0.625000X-0.150000X0.625000X0.150000X-0.625000X0.150000X-0.625000X-0.150000X0*%
%ADD106RoundRect,0.250000X0.650000X-0.350000X0.650000X0.350000X-0.650000X0.350000X-0.650000X-0.350000X0*%
%ADD107RoundRect,0.087500X-0.225000X-0.087500X0.225000X-0.087500X0.225000X0.087500X-0.225000X0.087500X0*%
%ADD108RoundRect,0.087500X-0.087500X-0.225000X0.087500X-0.225000X0.087500X0.225000X-0.087500X0.225000X0*%
%ADD109RoundRect,0.185000X-1.315000X-0.185000X1.315000X-0.185000X1.315000X0.185000X-1.315000X0.185000X0*%
%ADD110FreePoly0,270.000000*%
%ADD111FreePoly1,270.000000*%
%ADD112C,0.700000*%
%ADD113R,0.900000X1.400000*%
%ADD114R,1.400000X1.200000*%
%ADD115R,1.500000X0.900000*%
%ADD116R,0.900000X1.500000*%
%ADD117R,0.900000X0.900000*%
%ADD118RoundRect,0.135000X-0.185000X0.135000X-0.185000X-0.135000X0.185000X-0.135000X0.185000X0.135000X0*%
%ADD119RoundRect,0.335000X1.340000X1.365000X-1.340000X1.365000X-1.340000X-1.365000X1.340000X-1.365000X0*%
%ADD120RoundRect,0.250000X0.600000X0.750000X-0.600000X0.750000X-0.600000X-0.750000X0.600000X-0.750000X0*%
%ADD121O,1.700000X2.000000*%
%ADD122RoundRect,0.250000X-0.350000X-0.450000X0.350000X-0.450000X0.350000X0.450000X-0.350000X0.450000X0*%
%ADD123RoundRect,0.075000X0.700000X0.075000X-0.700000X0.075000X-0.700000X-0.075000X0.700000X-0.075000X0*%
%ADD124RoundRect,0.075000X0.075000X0.700000X-0.075000X0.700000X-0.075000X-0.700000X0.075000X-0.700000X0*%
%ADD125RoundRect,0.150000X-0.150000X0.825000X-0.150000X-0.825000X0.150000X-0.825000X0.150000X0.825000X0*%
%ADD126C,3.200000*%
%ADD127RoundRect,0.428571X-1.571429X-1.071429X1.571429X-1.071429X1.571429X1.071429X-1.571429X1.071429X0*%
%ADD128C,3.500000*%
%ADD129RoundRect,0.250000X0.850000X0.350000X-0.850000X0.350000X-0.850000X-0.350000X0.850000X-0.350000X0*%
%ADD130RoundRect,0.249997X2.950003X2.650003X-2.950003X2.650003X-2.950003X-2.650003X2.950003X-2.650003X0*%
%ADD131RoundRect,0.135000X0.185000X-0.135000X0.185000X0.135000X-0.185000X0.135000X-0.185000X-0.135000X0*%
%ADD132RoundRect,0.375000X-0.375000X0.625000X-0.375000X-0.625000X0.375000X-0.625000X0.375000X0.625000X0*%
%ADD133RoundRect,0.500000X-1.400000X0.500000X-1.400000X-0.500000X1.400000X-0.500000X1.400000X0.500000X0*%
%ADD134RoundRect,0.200000X0.750000X0.200000X-0.750000X0.200000X-0.750000X-0.200000X0.750000X-0.200000X0*%
%ADD135RoundRect,0.100000X0.162635X-0.021213X-0.021213X0.162635X-0.162635X0.021213X0.021213X-0.162635X0*%
%ADD136R,0.800000X1.800000*%
%ADD137RoundRect,0.100000X-0.637500X-0.100000X0.637500X-0.100000X0.637500X0.100000X-0.637500X0.100000X0*%
%ADD138R,2.850000X5.400000*%
%ADD139FreePoly0,180.000000*%
%ADD140FreePoly1,180.000000*%
%ADD141R,1.000000X3.000000*%
%ADD142R,1.800000X1.100000*%
%ADD143RoundRect,0.275000X-0.625000X0.275000X-0.625000X-0.275000X0.625000X-0.275000X0.625000X0.275000X0*%
%ADD144RoundRect,0.250000X0.625000X-0.400000X0.625000X0.400000X-0.625000X0.400000X-0.625000X-0.400000X0*%
%ADD145R,3.000000X2.200000*%
%ADD146R,2.000000X2.200000*%
%ADD147FreePoly0,0.000000*%
%ADD148FreePoly1,0.000000*%
%ADD149RoundRect,0.250000X-0.450000X0.325000X-0.450000X-0.325000X0.450000X-0.325000X0.450000X0.325000X0*%
%ADD150R,1.000000X1.500000*%
%ADD151RoundRect,0.250000X-1.425000X0.362500X-1.425000X-0.362500X1.425000X-0.362500X1.425000X0.362500X0*%
%ADD152RoundRect,0.250000X0.550000X-1.500000X0.550000X1.500000X-0.550000X1.500000X-0.550000X-1.500000X0*%
%ADD153RoundRect,0.250000X0.312500X0.625000X-0.312500X0.625000X-0.312500X-0.625000X0.312500X-0.625000X0*%
%ADD154RoundRect,0.250000X-0.625000X0.400000X-0.625000X-0.400000X0.625000X-0.400000X0.625000X0.400000X0*%
%ADD155RoundRect,0.218750X0.218750X0.256250X-0.218750X0.256250X-0.218750X-0.256250X0.218750X-0.256250X0*%
G04 APERTURE END LIST*
D10*
X161656955Y-113359500D02*
X161485527Y-113430928D01*
X161485527Y-113430928D02*
X161199812Y-113430928D01*
X161199812Y-113430928D02*
X161085527Y-113359500D01*
X161085527Y-113359500D02*
X161028384Y-113288071D01*
X161028384Y-113288071D02*
X160971241Y-113145214D01*
X160971241Y-113145214D02*
X160971241Y-113002357D01*
X160971241Y-113002357D02*
X161028384Y-112859500D01*
X161028384Y-112859500D02*
X161085527Y-112788071D01*
X161085527Y-112788071D02*
X161199812Y-112716642D01*
X161199812Y-112716642D02*
X161428384Y-112645214D01*
X161428384Y-112645214D02*
X161542669Y-112573785D01*
X161542669Y-112573785D02*
X161599812Y-112502357D01*
X161599812Y-112502357D02*
X161656955Y-112359500D01*
X161656955Y-112359500D02*
X161656955Y-112216642D01*
X161656955Y-112216642D02*
X161599812Y-112073785D01*
X161599812Y-112073785D02*
X161542669Y-112002357D01*
X161542669Y-112002357D02*
X161428384Y-111930928D01*
X161428384Y-111930928D02*
X161142669Y-111930928D01*
X161142669Y-111930928D02*
X160971241Y-112002357D01*
X160456955Y-112430928D02*
X160456955Y-113930928D01*
X160456955Y-112502357D02*
X160342670Y-112430928D01*
X160342670Y-112430928D02*
X160114098Y-112430928D01*
X160114098Y-112430928D02*
X159999812Y-112502357D01*
X159999812Y-112502357D02*
X159942670Y-112573785D01*
X159942670Y-112573785D02*
X159885527Y-112716642D01*
X159885527Y-112716642D02*
X159885527Y-113145214D01*
X159885527Y-113145214D02*
X159942670Y-113288071D01*
X159942670Y-113288071D02*
X159999812Y-113359500D01*
X159999812Y-113359500D02*
X160114098Y-113430928D01*
X160114098Y-113430928D02*
X160342670Y-113430928D01*
X160342670Y-113430928D02*
X160456955Y-113359500D01*
X158914098Y-113359500D02*
X159028384Y-113430928D01*
X159028384Y-113430928D02*
X159256956Y-113430928D01*
X159256956Y-113430928D02*
X159371241Y-113359500D01*
X159371241Y-113359500D02*
X159428384Y-113216642D01*
X159428384Y-113216642D02*
X159428384Y-112645214D01*
X159428384Y-112645214D02*
X159371241Y-112502357D01*
X159371241Y-112502357D02*
X159256956Y-112430928D01*
X159256956Y-112430928D02*
X159028384Y-112430928D01*
X159028384Y-112430928D02*
X158914098Y-112502357D01*
X158914098Y-112502357D02*
X158856956Y-112645214D01*
X158856956Y-112645214D02*
X158856956Y-112788071D01*
X158856956Y-112788071D02*
X159428384Y-112930928D01*
X157828385Y-113430928D02*
X157828385Y-112645214D01*
X157828385Y-112645214D02*
X157885527Y-112502357D01*
X157885527Y-112502357D02*
X157999813Y-112430928D01*
X157999813Y-112430928D02*
X158228385Y-112430928D01*
X158228385Y-112430928D02*
X158342670Y-112502357D01*
X157828385Y-113359500D02*
X157942670Y-113430928D01*
X157942670Y-113430928D02*
X158228385Y-113430928D01*
X158228385Y-113430928D02*
X158342670Y-113359500D01*
X158342670Y-113359500D02*
X158399813Y-113216642D01*
X158399813Y-113216642D02*
X158399813Y-113073785D01*
X158399813Y-113073785D02*
X158342670Y-112930928D01*
X158342670Y-112930928D02*
X158228385Y-112859500D01*
X158228385Y-112859500D02*
X157942670Y-112859500D01*
X157942670Y-112859500D02*
X157828385Y-112788071D01*
X157256956Y-113430928D02*
X157256956Y-111930928D01*
X157142671Y-112859500D02*
X156799813Y-113430928D01*
X156799813Y-112430928D02*
X157256956Y-113002357D01*
X155828384Y-113359500D02*
X155942670Y-113430928D01*
X155942670Y-113430928D02*
X156171242Y-113430928D01*
X156171242Y-113430928D02*
X156285527Y-113359500D01*
X156285527Y-113359500D02*
X156342670Y-113216642D01*
X156342670Y-113216642D02*
X156342670Y-112645214D01*
X156342670Y-112645214D02*
X156285527Y-112502357D01*
X156285527Y-112502357D02*
X156171242Y-112430928D01*
X156171242Y-112430928D02*
X155942670Y-112430928D01*
X155942670Y-112430928D02*
X155828384Y-112502357D01*
X155828384Y-112502357D02*
X155771242Y-112645214D01*
X155771242Y-112645214D02*
X155771242Y-112788071D01*
X155771242Y-112788071D02*
X156342670Y-112930928D01*
X155256956Y-113430928D02*
X155256956Y-112430928D01*
X155256956Y-112716642D02*
X155199813Y-112573785D01*
X155199813Y-112573785D02*
X155142671Y-112502357D01*
X155142671Y-112502357D02*
X155028385Y-112430928D01*
X155028385Y-112430928D02*
X154914099Y-112430928D01*
D11*
X154295238Y-86099847D02*
X154295238Y-85099847D01*
X153819048Y-86099847D02*
X153819048Y-85099847D01*
X153819048Y-85099847D02*
X153247620Y-86099847D01*
X153247620Y-86099847D02*
X153247620Y-85099847D01*
X151533334Y-85099847D02*
X152009524Y-85099847D01*
X152009524Y-85099847D02*
X152057143Y-85576037D01*
X152057143Y-85576037D02*
X152009524Y-85528418D01*
X152009524Y-85528418D02*
X151914286Y-85480799D01*
X151914286Y-85480799D02*
X151676191Y-85480799D01*
X151676191Y-85480799D02*
X151580953Y-85528418D01*
X151580953Y-85528418D02*
X151533334Y-85576037D01*
X151533334Y-85576037D02*
X151485715Y-85671275D01*
X151485715Y-85671275D02*
X151485715Y-85909370D01*
X151485715Y-85909370D02*
X151533334Y-86004608D01*
X151533334Y-86004608D02*
X151580953Y-86052228D01*
X151580953Y-86052228D02*
X151676191Y-86099847D01*
X151676191Y-86099847D02*
X151914286Y-86099847D01*
X151914286Y-86099847D02*
X152009524Y-86052228D01*
X152009524Y-86052228D02*
X152057143Y-86004608D01*
X151200000Y-85099847D02*
X150866667Y-86099847D01*
X150866667Y-86099847D02*
X150533334Y-85099847D01*
X148914286Y-85147466D02*
X149009524Y-85099847D01*
X149009524Y-85099847D02*
X149152381Y-85099847D01*
X149152381Y-85099847D02*
X149295238Y-85147466D01*
X149295238Y-85147466D02*
X149390476Y-85242704D01*
X149390476Y-85242704D02*
X149438095Y-85337942D01*
X149438095Y-85337942D02*
X149485714Y-85528418D01*
X149485714Y-85528418D02*
X149485714Y-85671275D01*
X149485714Y-85671275D02*
X149438095Y-85861751D01*
X149438095Y-85861751D02*
X149390476Y-85956989D01*
X149390476Y-85956989D02*
X149295238Y-86052228D01*
X149295238Y-86052228D02*
X149152381Y-86099847D01*
X149152381Y-86099847D02*
X149057143Y-86099847D01*
X149057143Y-86099847D02*
X148914286Y-86052228D01*
X148914286Y-86052228D02*
X148866667Y-86004608D01*
X148866667Y-86004608D02*
X148866667Y-85671275D01*
X148866667Y-85671275D02*
X149057143Y-85671275D01*
X148438095Y-86099847D02*
X148438095Y-85099847D01*
X148438095Y-85099847D02*
X147866667Y-86099847D01*
X147866667Y-86099847D02*
X147866667Y-85099847D01*
X146771428Y-85099847D02*
X146200000Y-85099847D01*
X146485714Y-86099847D02*
X146485714Y-85099847D01*
X145961904Y-85099847D02*
X145295238Y-86099847D01*
X145295238Y-85099847D02*
X145961904Y-86099847D01*
X143580952Y-86099847D02*
X143914285Y-85623656D01*
X144152380Y-86099847D02*
X144152380Y-85099847D01*
X144152380Y-85099847D02*
X143771428Y-85099847D01*
X143771428Y-85099847D02*
X143676190Y-85147466D01*
X143676190Y-85147466D02*
X143628571Y-85195085D01*
X143628571Y-85195085D02*
X143580952Y-85290323D01*
X143580952Y-85290323D02*
X143580952Y-85433180D01*
X143580952Y-85433180D02*
X143628571Y-85528418D01*
X143628571Y-85528418D02*
X143676190Y-85576037D01*
X143676190Y-85576037D02*
X143771428Y-85623656D01*
X143771428Y-85623656D02*
X144152380Y-85623656D01*
X143247618Y-85099847D02*
X142580952Y-86099847D01*
X142580952Y-85099847D02*
X143247618Y-86099847D01*
X141533332Y-85099847D02*
X140914285Y-85099847D01*
X140914285Y-85099847D02*
X141247618Y-85480799D01*
X141247618Y-85480799D02*
X141104761Y-85480799D01*
X141104761Y-85480799D02*
X141009523Y-85528418D01*
X141009523Y-85528418D02*
X140961904Y-85576037D01*
X140961904Y-85576037D02*
X140914285Y-85671275D01*
X140914285Y-85671275D02*
X140914285Y-85909370D01*
X140914285Y-85909370D02*
X140961904Y-86004608D01*
X140961904Y-86004608D02*
X141009523Y-86052228D01*
X141009523Y-86052228D02*
X141104761Y-86099847D01*
X141104761Y-86099847D02*
X141390475Y-86099847D01*
X141390475Y-86099847D02*
X141485713Y-86052228D01*
X141485713Y-86052228D02*
X141533332Y-86004608D01*
X140628570Y-85099847D02*
X140295237Y-86099847D01*
X140295237Y-86099847D02*
X139961904Y-85099847D01*
X153723810Y-87709791D02*
X154057143Y-87233600D01*
X154295238Y-87709791D02*
X154295238Y-86709791D01*
X154295238Y-86709791D02*
X153914286Y-86709791D01*
X153914286Y-86709791D02*
X153819048Y-86757410D01*
X153819048Y-86757410D02*
X153771429Y-86805029D01*
X153771429Y-86805029D02*
X153723810Y-86900267D01*
X153723810Y-86900267D02*
X153723810Y-87043124D01*
X153723810Y-87043124D02*
X153771429Y-87138362D01*
X153771429Y-87138362D02*
X153819048Y-87185981D01*
X153819048Y-87185981D02*
X153914286Y-87233600D01*
X153914286Y-87233600D02*
X154295238Y-87233600D01*
X153295238Y-87185981D02*
X152961905Y-87185981D01*
X152819048Y-87709791D02*
X153295238Y-87709791D01*
X153295238Y-87709791D02*
X153295238Y-86709791D01*
X153295238Y-86709791D02*
X152819048Y-86709791D01*
X151152381Y-86709791D02*
X151628571Y-86709791D01*
X151628571Y-86709791D02*
X151676190Y-87185981D01*
X151676190Y-87185981D02*
X151628571Y-87138362D01*
X151628571Y-87138362D02*
X151533333Y-87090743D01*
X151533333Y-87090743D02*
X151295238Y-87090743D01*
X151295238Y-87090743D02*
X151200000Y-87138362D01*
X151200000Y-87138362D02*
X151152381Y-87185981D01*
X151152381Y-87185981D02*
X151104762Y-87281219D01*
X151104762Y-87281219D02*
X151104762Y-87519314D01*
X151104762Y-87519314D02*
X151152381Y-87614552D01*
X151152381Y-87614552D02*
X151200000Y-87662172D01*
X151200000Y-87662172D02*
X151295238Y-87709791D01*
X151295238Y-87709791D02*
X151533333Y-87709791D01*
X151533333Y-87709791D02*
X151628571Y-87662172D01*
X151628571Y-87662172D02*
X151676190Y-87614552D01*
X150819047Y-86709791D02*
X150485714Y-87709791D01*
X150485714Y-87709791D02*
X150152381Y-86709791D01*
X148533333Y-86757410D02*
X148628571Y-86709791D01*
X148628571Y-86709791D02*
X148771428Y-86709791D01*
X148771428Y-86709791D02*
X148914285Y-86757410D01*
X148914285Y-86757410D02*
X149009523Y-86852648D01*
X149009523Y-86852648D02*
X149057142Y-86947886D01*
X149057142Y-86947886D02*
X149104761Y-87138362D01*
X149104761Y-87138362D02*
X149104761Y-87281219D01*
X149104761Y-87281219D02*
X149057142Y-87471695D01*
X149057142Y-87471695D02*
X149009523Y-87566933D01*
X149009523Y-87566933D02*
X148914285Y-87662172D01*
X148914285Y-87662172D02*
X148771428Y-87709791D01*
X148771428Y-87709791D02*
X148676190Y-87709791D01*
X148676190Y-87709791D02*
X148533333Y-87662172D01*
X148533333Y-87662172D02*
X148485714Y-87614552D01*
X148485714Y-87614552D02*
X148485714Y-87281219D01*
X148485714Y-87281219D02*
X148676190Y-87281219D01*
X148057142Y-87709791D02*
X148057142Y-86709791D01*
X148057142Y-86709791D02*
X147485714Y-87709791D01*
X147485714Y-87709791D02*
X147485714Y-86709791D01*
X145676190Y-87614552D02*
X145723809Y-87662172D01*
X145723809Y-87662172D02*
X145866666Y-87709791D01*
X145866666Y-87709791D02*
X145961904Y-87709791D01*
X145961904Y-87709791D02*
X146104761Y-87662172D01*
X146104761Y-87662172D02*
X146199999Y-87566933D01*
X146199999Y-87566933D02*
X146247618Y-87471695D01*
X146247618Y-87471695D02*
X146295237Y-87281219D01*
X146295237Y-87281219D02*
X146295237Y-87138362D01*
X146295237Y-87138362D02*
X146247618Y-86947886D01*
X146247618Y-86947886D02*
X146199999Y-86852648D01*
X146199999Y-86852648D02*
X146104761Y-86757410D01*
X146104761Y-86757410D02*
X145961904Y-86709791D01*
X145961904Y-86709791D02*
X145866666Y-86709791D01*
X145866666Y-86709791D02*
X145723809Y-86757410D01*
X145723809Y-86757410D02*
X145676190Y-86805029D01*
X144771428Y-87709791D02*
X145247618Y-87709791D01*
X145247618Y-87709791D02*
X145247618Y-86709791D01*
X143676189Y-87709791D02*
X143676189Y-86709791D01*
X143676189Y-86709791D02*
X143438094Y-86709791D01*
X143438094Y-86709791D02*
X143295237Y-86757410D01*
X143295237Y-86757410D02*
X143199999Y-86852648D01*
X143199999Y-86852648D02*
X143152380Y-86947886D01*
X143152380Y-86947886D02*
X143104761Y-87138362D01*
X143104761Y-87138362D02*
X143104761Y-87281219D01*
X143104761Y-87281219D02*
X143152380Y-87471695D01*
X143152380Y-87471695D02*
X143199999Y-87566933D01*
X143199999Y-87566933D02*
X143295237Y-87662172D01*
X143295237Y-87662172D02*
X143438094Y-87709791D01*
X143438094Y-87709791D02*
X143676189Y-87709791D01*
X142676189Y-87709791D02*
X142676189Y-86709791D01*
X141533332Y-86709791D02*
X140914285Y-86709791D01*
X140914285Y-86709791D02*
X141247618Y-87090743D01*
X141247618Y-87090743D02*
X141104761Y-87090743D01*
X141104761Y-87090743D02*
X141009523Y-87138362D01*
X141009523Y-87138362D02*
X140961904Y-87185981D01*
X140961904Y-87185981D02*
X140914285Y-87281219D01*
X140914285Y-87281219D02*
X140914285Y-87519314D01*
X140914285Y-87519314D02*
X140961904Y-87614552D01*
X140961904Y-87614552D02*
X141009523Y-87662172D01*
X141009523Y-87662172D02*
X141104761Y-87709791D01*
X141104761Y-87709791D02*
X141390475Y-87709791D01*
X141390475Y-87709791D02*
X141485713Y-87662172D01*
X141485713Y-87662172D02*
X141533332Y-87614552D01*
X140628570Y-86709791D02*
X140295237Y-87709791D01*
X140295237Y-87709791D02*
X139961904Y-86709791D01*
X198854819Y-138961904D02*
X198854819Y-139152380D01*
X198854819Y-139152380D02*
X198902438Y-139247618D01*
X198902438Y-139247618D02*
X198997676Y-139342856D01*
X198997676Y-139342856D02*
X199188152Y-139390475D01*
X199188152Y-139390475D02*
X199521485Y-139390475D01*
X199521485Y-139390475D02*
X199711961Y-139342856D01*
X199711961Y-139342856D02*
X199807200Y-139247618D01*
X199807200Y-139247618D02*
X199854819Y-139152380D01*
X199854819Y-139152380D02*
X199854819Y-138961904D01*
X199854819Y-138961904D02*
X199807200Y-138866666D01*
X199807200Y-138866666D02*
X199711961Y-138771428D01*
X199711961Y-138771428D02*
X199521485Y-138723809D01*
X199521485Y-138723809D02*
X199188152Y-138723809D01*
X199188152Y-138723809D02*
X198997676Y-138771428D01*
X198997676Y-138771428D02*
X198902438Y-138866666D01*
X198902438Y-138866666D02*
X198854819Y-138961904D01*
X199854819Y-139819047D02*
X198854819Y-139819047D01*
X198854819Y-139819047D02*
X199854819Y-140390475D01*
X199854819Y-140390475D02*
X198854819Y-140390475D01*
X199759580Y-142199999D02*
X199807200Y-142152380D01*
X199807200Y-142152380D02*
X199854819Y-142009523D01*
X199854819Y-142009523D02*
X199854819Y-141914285D01*
X199854819Y-141914285D02*
X199807200Y-141771428D01*
X199807200Y-141771428D02*
X199711961Y-141676190D01*
X199711961Y-141676190D02*
X199616723Y-141628571D01*
X199616723Y-141628571D02*
X199426247Y-141580952D01*
X199426247Y-141580952D02*
X199283390Y-141580952D01*
X199283390Y-141580952D02*
X199092914Y-141628571D01*
X199092914Y-141628571D02*
X198997676Y-141676190D01*
X198997676Y-141676190D02*
X198902438Y-141771428D01*
X198902438Y-141771428D02*
X198854819Y-141914285D01*
X198854819Y-141914285D02*
X198854819Y-142009523D01*
X198854819Y-142009523D02*
X198902438Y-142152380D01*
X198902438Y-142152380D02*
X198950057Y-142199999D01*
X199569104Y-142580952D02*
X199569104Y-143057142D01*
X199854819Y-142485714D02*
X198854819Y-142819047D01*
X198854819Y-142819047D02*
X199854819Y-143152380D01*
X199854819Y-143485714D02*
X198854819Y-143485714D01*
X198854819Y-143485714D02*
X199854819Y-144057142D01*
X199854819Y-144057142D02*
X198854819Y-144057142D01*
X198854819Y-145152381D02*
X198854819Y-145723809D01*
X199854819Y-145438095D02*
X198854819Y-145438095D01*
X199331009Y-146057143D02*
X199331009Y-146390476D01*
X199854819Y-146533333D02*
X199854819Y-146057143D01*
X199854819Y-146057143D02*
X198854819Y-146057143D01*
X198854819Y-146057143D02*
X198854819Y-146533333D01*
X199854819Y-147533333D02*
X199378628Y-147200000D01*
X199854819Y-146961905D02*
X198854819Y-146961905D01*
X198854819Y-146961905D02*
X198854819Y-147342857D01*
X198854819Y-147342857D02*
X198902438Y-147438095D01*
X198902438Y-147438095D02*
X198950057Y-147485714D01*
X198950057Y-147485714D02*
X199045295Y-147533333D01*
X199045295Y-147533333D02*
X199188152Y-147533333D01*
X199188152Y-147533333D02*
X199283390Y-147485714D01*
X199283390Y-147485714D02*
X199331009Y-147438095D01*
X199331009Y-147438095D02*
X199378628Y-147342857D01*
X199378628Y-147342857D02*
X199378628Y-146961905D01*
X199854819Y-147961905D02*
X198854819Y-147961905D01*
X198854819Y-147961905D02*
X199569104Y-148295238D01*
X199569104Y-148295238D02*
X198854819Y-148628571D01*
X198854819Y-148628571D02*
X199854819Y-148628571D01*
X182214285Y-119502438D02*
X182309523Y-119454819D01*
X182309523Y-119454819D02*
X182452380Y-119454819D01*
X182452380Y-119454819D02*
X182595237Y-119502438D01*
X182595237Y-119502438D02*
X182690475Y-119597676D01*
X182690475Y-119597676D02*
X182738094Y-119692914D01*
X182738094Y-119692914D02*
X182785713Y-119883390D01*
X182785713Y-119883390D02*
X182785713Y-120026247D01*
X182785713Y-120026247D02*
X182738094Y-120216723D01*
X182738094Y-120216723D02*
X182690475Y-120311961D01*
X182690475Y-120311961D02*
X182595237Y-120407200D01*
X182595237Y-120407200D02*
X182452380Y-120454819D01*
X182452380Y-120454819D02*
X182357142Y-120454819D01*
X182357142Y-120454819D02*
X182214285Y-120407200D01*
X182214285Y-120407200D02*
X182166666Y-120359580D01*
X182166666Y-120359580D02*
X182166666Y-120026247D01*
X182166666Y-120026247D02*
X182357142Y-120026247D01*
X181833332Y-119454819D02*
X181214285Y-119454819D01*
X181214285Y-119454819D02*
X181547618Y-119835771D01*
X181547618Y-119835771D02*
X181404761Y-119835771D01*
X181404761Y-119835771D02*
X181309523Y-119883390D01*
X181309523Y-119883390D02*
X181261904Y-119931009D01*
X181261904Y-119931009D02*
X181214285Y-120026247D01*
X181214285Y-120026247D02*
X181214285Y-120264342D01*
X181214285Y-120264342D02*
X181261904Y-120359580D01*
X181261904Y-120359580D02*
X181309523Y-120407200D01*
X181309523Y-120407200D02*
X181404761Y-120454819D01*
X181404761Y-120454819D02*
X181690475Y-120454819D01*
X181690475Y-120454819D02*
X181785713Y-120407200D01*
X181785713Y-120407200D02*
X181833332Y-120359580D01*
X198754819Y-129138095D02*
X198754819Y-129328571D01*
X198754819Y-129328571D02*
X198802438Y-129423809D01*
X198802438Y-129423809D02*
X198897676Y-129519047D01*
X198897676Y-129519047D02*
X199088152Y-129566666D01*
X199088152Y-129566666D02*
X199421485Y-129566666D01*
X199421485Y-129566666D02*
X199611961Y-129519047D01*
X199611961Y-129519047D02*
X199707200Y-129423809D01*
X199707200Y-129423809D02*
X199754819Y-129328571D01*
X199754819Y-129328571D02*
X199754819Y-129138095D01*
X199754819Y-129138095D02*
X199707200Y-129042857D01*
X199707200Y-129042857D02*
X199611961Y-128947619D01*
X199611961Y-128947619D02*
X199421485Y-128900000D01*
X199421485Y-128900000D02*
X199088152Y-128900000D01*
X199088152Y-128900000D02*
X198897676Y-128947619D01*
X198897676Y-128947619D02*
X198802438Y-129042857D01*
X198802438Y-129042857D02*
X198754819Y-129138095D01*
X199754819Y-129995238D02*
X198754819Y-129995238D01*
X198754819Y-129995238D02*
X199754819Y-130566666D01*
X199754819Y-130566666D02*
X198754819Y-130566666D01*
X199754819Y-132376190D02*
X199278628Y-132042857D01*
X199754819Y-131804762D02*
X198754819Y-131804762D01*
X198754819Y-131804762D02*
X198754819Y-132185714D01*
X198754819Y-132185714D02*
X198802438Y-132280952D01*
X198802438Y-132280952D02*
X198850057Y-132328571D01*
X198850057Y-132328571D02*
X198945295Y-132376190D01*
X198945295Y-132376190D02*
X199088152Y-132376190D01*
X199088152Y-132376190D02*
X199183390Y-132328571D01*
X199183390Y-132328571D02*
X199231009Y-132280952D01*
X199231009Y-132280952D02*
X199278628Y-132185714D01*
X199278628Y-132185714D02*
X199278628Y-131804762D01*
X199707200Y-132757143D02*
X199754819Y-132900000D01*
X199754819Y-132900000D02*
X199754819Y-133138095D01*
X199754819Y-133138095D02*
X199707200Y-133233333D01*
X199707200Y-133233333D02*
X199659580Y-133280952D01*
X199659580Y-133280952D02*
X199564342Y-133328571D01*
X199564342Y-133328571D02*
X199469104Y-133328571D01*
X199469104Y-133328571D02*
X199373866Y-133280952D01*
X199373866Y-133280952D02*
X199326247Y-133233333D01*
X199326247Y-133233333D02*
X199278628Y-133138095D01*
X199278628Y-133138095D02*
X199231009Y-132947619D01*
X199231009Y-132947619D02*
X199183390Y-132852381D01*
X199183390Y-132852381D02*
X199135771Y-132804762D01*
X199135771Y-132804762D02*
X199040533Y-132757143D01*
X199040533Y-132757143D02*
X198945295Y-132757143D01*
X198945295Y-132757143D02*
X198850057Y-132804762D01*
X198850057Y-132804762D02*
X198802438Y-132852381D01*
X198802438Y-132852381D02*
X198754819Y-132947619D01*
X198754819Y-132947619D02*
X198754819Y-133185714D01*
X198754819Y-133185714D02*
X198802438Y-133328571D01*
X198754819Y-134376191D02*
X198754819Y-134947619D01*
X199754819Y-134661905D02*
X198754819Y-134661905D01*
X199231009Y-135280953D02*
X199231009Y-135614286D01*
X199754819Y-135757143D02*
X199754819Y-135280953D01*
X199754819Y-135280953D02*
X198754819Y-135280953D01*
X198754819Y-135280953D02*
X198754819Y-135757143D01*
X199754819Y-136757143D02*
X199278628Y-136423810D01*
X199754819Y-136185715D02*
X198754819Y-136185715D01*
X198754819Y-136185715D02*
X198754819Y-136566667D01*
X198754819Y-136566667D02*
X198802438Y-136661905D01*
X198802438Y-136661905D02*
X198850057Y-136709524D01*
X198850057Y-136709524D02*
X198945295Y-136757143D01*
X198945295Y-136757143D02*
X199088152Y-136757143D01*
X199088152Y-136757143D02*
X199183390Y-136709524D01*
X199183390Y-136709524D02*
X199231009Y-136661905D01*
X199231009Y-136661905D02*
X199278628Y-136566667D01*
X199278628Y-136566667D02*
X199278628Y-136185715D01*
X199754819Y-137185715D02*
X198754819Y-137185715D01*
X198754819Y-137185715D02*
X199469104Y-137519048D01*
X199469104Y-137519048D02*
X198754819Y-137852381D01*
X198754819Y-137852381D02*
X199754819Y-137852381D01*
X169004819Y-129999999D02*
X169004819Y-129523809D01*
X169004819Y-129523809D02*
X168004819Y-129523809D01*
X168909580Y-130904761D02*
X168957200Y-130857142D01*
X168957200Y-130857142D02*
X169004819Y-130714285D01*
X169004819Y-130714285D02*
X169004819Y-130619047D01*
X169004819Y-130619047D02*
X168957200Y-130476190D01*
X168957200Y-130476190D02*
X168861961Y-130380952D01*
X168861961Y-130380952D02*
X168766723Y-130333333D01*
X168766723Y-130333333D02*
X168576247Y-130285714D01*
X168576247Y-130285714D02*
X168433390Y-130285714D01*
X168433390Y-130285714D02*
X168242914Y-130333333D01*
X168242914Y-130333333D02*
X168147676Y-130380952D01*
X168147676Y-130380952D02*
X168052438Y-130476190D01*
X168052438Y-130476190D02*
X168004819Y-130619047D01*
X168004819Y-130619047D02*
X168004819Y-130714285D01*
X168004819Y-130714285D02*
X168052438Y-130857142D01*
X168052438Y-130857142D02*
X168100057Y-130904761D01*
X169004819Y-131333333D02*
X168004819Y-131333333D01*
X168004819Y-131333333D02*
X168004819Y-131571428D01*
X168004819Y-131571428D02*
X168052438Y-131714285D01*
X168052438Y-131714285D02*
X168147676Y-131809523D01*
X168147676Y-131809523D02*
X168242914Y-131857142D01*
X168242914Y-131857142D02*
X168433390Y-131904761D01*
X168433390Y-131904761D02*
X168576247Y-131904761D01*
X168576247Y-131904761D02*
X168766723Y-131857142D01*
X168766723Y-131857142D02*
X168861961Y-131809523D01*
X168861961Y-131809523D02*
X168957200Y-131714285D01*
X168957200Y-131714285D02*
X169004819Y-131571428D01*
X169004819Y-131571428D02*
X169004819Y-131333333D01*
X169100057Y-132095238D02*
X169100057Y-132857142D01*
X169004819Y-133666666D02*
X168528628Y-133333333D01*
X169004819Y-133095238D02*
X168004819Y-133095238D01*
X168004819Y-133095238D02*
X168004819Y-133476190D01*
X168004819Y-133476190D02*
X168052438Y-133571428D01*
X168052438Y-133571428D02*
X168100057Y-133619047D01*
X168100057Y-133619047D02*
X168195295Y-133666666D01*
X168195295Y-133666666D02*
X168338152Y-133666666D01*
X168338152Y-133666666D02*
X168433390Y-133619047D01*
X168433390Y-133619047D02*
X168481009Y-133571428D01*
X168481009Y-133571428D02*
X168528628Y-133476190D01*
X168528628Y-133476190D02*
X168528628Y-133095238D01*
X168481009Y-134095238D02*
X168481009Y-134428571D01*
X169004819Y-134571428D02*
X169004819Y-134095238D01*
X169004819Y-134095238D02*
X168004819Y-134095238D01*
X168004819Y-134095238D02*
X168004819Y-134571428D01*
X168957200Y-134952381D02*
X169004819Y-135095238D01*
X169004819Y-135095238D02*
X169004819Y-135333333D01*
X169004819Y-135333333D02*
X168957200Y-135428571D01*
X168957200Y-135428571D02*
X168909580Y-135476190D01*
X168909580Y-135476190D02*
X168814342Y-135523809D01*
X168814342Y-135523809D02*
X168719104Y-135523809D01*
X168719104Y-135523809D02*
X168623866Y-135476190D01*
X168623866Y-135476190D02*
X168576247Y-135428571D01*
X168576247Y-135428571D02*
X168528628Y-135333333D01*
X168528628Y-135333333D02*
X168481009Y-135142857D01*
X168481009Y-135142857D02*
X168433390Y-135047619D01*
X168433390Y-135047619D02*
X168385771Y-135000000D01*
X168385771Y-135000000D02*
X168290533Y-134952381D01*
X168290533Y-134952381D02*
X168195295Y-134952381D01*
X168195295Y-134952381D02*
X168100057Y-135000000D01*
X168100057Y-135000000D02*
X168052438Y-135047619D01*
X168052438Y-135047619D02*
X168004819Y-135142857D01*
X168004819Y-135142857D02*
X168004819Y-135380952D01*
X168004819Y-135380952D02*
X168052438Y-135523809D01*
X160961905Y-145779104D02*
X160485715Y-145779104D01*
X161057143Y-146064819D02*
X160723810Y-145064819D01*
X160723810Y-145064819D02*
X160390477Y-146064819D01*
X160057143Y-145398152D02*
X160057143Y-146064819D01*
X160057143Y-145493390D02*
X160009524Y-145445771D01*
X160009524Y-145445771D02*
X159914286Y-145398152D01*
X159914286Y-145398152D02*
X159771429Y-145398152D01*
X159771429Y-145398152D02*
X159676191Y-145445771D01*
X159676191Y-145445771D02*
X159628572Y-145541009D01*
X159628572Y-145541009D02*
X159628572Y-146064819D01*
X159295238Y-145398152D02*
X158914286Y-145398152D01*
X159152381Y-145064819D02*
X159152381Y-145921961D01*
X159152381Y-145921961D02*
X159104762Y-146017200D01*
X159104762Y-146017200D02*
X159009524Y-146064819D01*
X159009524Y-146064819D02*
X158914286Y-146064819D01*
X158200000Y-146017200D02*
X158295238Y-146064819D01*
X158295238Y-146064819D02*
X158485714Y-146064819D01*
X158485714Y-146064819D02*
X158580952Y-146017200D01*
X158580952Y-146017200D02*
X158628571Y-145921961D01*
X158628571Y-145921961D02*
X158628571Y-145541009D01*
X158628571Y-145541009D02*
X158580952Y-145445771D01*
X158580952Y-145445771D02*
X158485714Y-145398152D01*
X158485714Y-145398152D02*
X158295238Y-145398152D01*
X158295238Y-145398152D02*
X158200000Y-145445771D01*
X158200000Y-145445771D02*
X158152381Y-145541009D01*
X158152381Y-145541009D02*
X158152381Y-145636247D01*
X158152381Y-145636247D02*
X158628571Y-145731485D01*
X157723809Y-145398152D02*
X157723809Y-146064819D01*
X157723809Y-145493390D02*
X157676190Y-145445771D01*
X157676190Y-145445771D02*
X157580952Y-145398152D01*
X157580952Y-145398152D02*
X157438095Y-145398152D01*
X157438095Y-145398152D02*
X157342857Y-145445771D01*
X157342857Y-145445771D02*
X157295238Y-145541009D01*
X157295238Y-145541009D02*
X157295238Y-146064819D01*
X156819047Y-145398152D02*
X156819047Y-146064819D01*
X156819047Y-145493390D02*
X156771428Y-145445771D01*
X156771428Y-145445771D02*
X156676190Y-145398152D01*
X156676190Y-145398152D02*
X156533333Y-145398152D01*
X156533333Y-145398152D02*
X156438095Y-145445771D01*
X156438095Y-145445771D02*
X156390476Y-145541009D01*
X156390476Y-145541009D02*
X156390476Y-146064819D01*
X155485714Y-146064819D02*
X155485714Y-145541009D01*
X155485714Y-145541009D02*
X155533333Y-145445771D01*
X155533333Y-145445771D02*
X155628571Y-145398152D01*
X155628571Y-145398152D02*
X155819047Y-145398152D01*
X155819047Y-145398152D02*
X155914285Y-145445771D01*
X155485714Y-146017200D02*
X155580952Y-146064819D01*
X155580952Y-146064819D02*
X155819047Y-146064819D01*
X155819047Y-146064819D02*
X155914285Y-146017200D01*
X155914285Y-146017200D02*
X155961904Y-145921961D01*
X155961904Y-145921961D02*
X155961904Y-145826723D01*
X155961904Y-145826723D02*
X155914285Y-145731485D01*
X155914285Y-145731485D02*
X155819047Y-145683866D01*
X155819047Y-145683866D02*
X155580952Y-145683866D01*
X155580952Y-145683866D02*
X155485714Y-145636247D01*
X154295237Y-145779104D02*
X153819047Y-145779104D01*
X154390475Y-146064819D02*
X154057142Y-145064819D01*
X154057142Y-145064819D02*
X153723809Y-146064819D01*
X153390475Y-146064819D02*
X153390475Y-145398152D01*
X153390475Y-145588628D02*
X153342856Y-145493390D01*
X153342856Y-145493390D02*
X153295237Y-145445771D01*
X153295237Y-145445771D02*
X153199999Y-145398152D01*
X153199999Y-145398152D02*
X153104761Y-145398152D01*
X152390475Y-146017200D02*
X152485713Y-146064819D01*
X152485713Y-146064819D02*
X152676189Y-146064819D01*
X152676189Y-146064819D02*
X152771427Y-146017200D01*
X152771427Y-146017200D02*
X152819046Y-145921961D01*
X152819046Y-145921961D02*
X152819046Y-145541009D01*
X152819046Y-145541009D02*
X152771427Y-145445771D01*
X152771427Y-145445771D02*
X152676189Y-145398152D01*
X152676189Y-145398152D02*
X152485713Y-145398152D01*
X152485713Y-145398152D02*
X152390475Y-145445771D01*
X152390475Y-145445771D02*
X152342856Y-145541009D01*
X152342856Y-145541009D02*
X152342856Y-145636247D01*
X152342856Y-145636247D02*
X152819046Y-145731485D01*
X151485713Y-146064819D02*
X151485713Y-145541009D01*
X151485713Y-145541009D02*
X151533332Y-145445771D01*
X151533332Y-145445771D02*
X151628570Y-145398152D01*
X151628570Y-145398152D02*
X151819046Y-145398152D01*
X151819046Y-145398152D02*
X151914284Y-145445771D01*
X151485713Y-146017200D02*
X151580951Y-146064819D01*
X151580951Y-146064819D02*
X151819046Y-146064819D01*
X151819046Y-146064819D02*
X151914284Y-146017200D01*
X151914284Y-146017200D02*
X151961903Y-145921961D01*
X151961903Y-145921961D02*
X151961903Y-145826723D01*
X151961903Y-145826723D02*
X151914284Y-145731485D01*
X151914284Y-145731485D02*
X151819046Y-145683866D01*
X151819046Y-145683866D02*
X151580951Y-145683866D01*
X151580951Y-145683866D02*
X151485713Y-145636247D01*
X164414285Y-81056009D02*
X164747618Y-81056009D01*
X164747618Y-81579819D02*
X164747618Y-80579819D01*
X164747618Y-80579819D02*
X164271428Y-80579819D01*
X163938094Y-81294104D02*
X163461904Y-81294104D01*
X164033332Y-81579819D02*
X163699999Y-80579819D01*
X163699999Y-80579819D02*
X163366666Y-81579819D01*
X163033332Y-81579819D02*
X163033332Y-80579819D01*
X163033332Y-80579819D02*
X162461904Y-81579819D01*
X162461904Y-81579819D02*
X162461904Y-80579819D01*
X161509523Y-80579819D02*
X161985713Y-80579819D01*
X161985713Y-80579819D02*
X162033332Y-81056009D01*
X162033332Y-81056009D02*
X161985713Y-81008390D01*
X161985713Y-81008390D02*
X161890475Y-80960771D01*
X161890475Y-80960771D02*
X161652380Y-80960771D01*
X161652380Y-80960771D02*
X161557142Y-81008390D01*
X161557142Y-81008390D02*
X161509523Y-81056009D01*
X161509523Y-81056009D02*
X161461904Y-81151247D01*
X161461904Y-81151247D02*
X161461904Y-81389342D01*
X161461904Y-81389342D02*
X161509523Y-81484580D01*
X161509523Y-81484580D02*
X161557142Y-81532200D01*
X161557142Y-81532200D02*
X161652380Y-81579819D01*
X161652380Y-81579819D02*
X161890475Y-81579819D01*
X161890475Y-81579819D02*
X161985713Y-81532200D01*
X161985713Y-81532200D02*
X162033332Y-81484580D01*
X161176189Y-80579819D02*
X160842856Y-81579819D01*
X160842856Y-81579819D02*
X160509523Y-80579819D01*
X133238094Y-68304819D02*
X132619047Y-68304819D01*
X132619047Y-68304819D02*
X132952380Y-68685771D01*
X132952380Y-68685771D02*
X132809523Y-68685771D01*
X132809523Y-68685771D02*
X132714285Y-68733390D01*
X132714285Y-68733390D02*
X132666666Y-68781009D01*
X132666666Y-68781009D02*
X132619047Y-68876247D01*
X132619047Y-68876247D02*
X132619047Y-69114342D01*
X132619047Y-69114342D02*
X132666666Y-69209580D01*
X132666666Y-69209580D02*
X132714285Y-69257200D01*
X132714285Y-69257200D02*
X132809523Y-69304819D01*
X132809523Y-69304819D02*
X133095237Y-69304819D01*
X133095237Y-69304819D02*
X133190475Y-69257200D01*
X133190475Y-69257200D02*
X133238094Y-69209580D01*
X132333332Y-68304819D02*
X131999999Y-69304819D01*
X131999999Y-69304819D02*
X131666666Y-68304819D01*
X131428570Y-68304819D02*
X130809523Y-68304819D01*
X130809523Y-68304819D02*
X131142856Y-68685771D01*
X131142856Y-68685771D02*
X130999999Y-68685771D01*
X130999999Y-68685771D02*
X130904761Y-68733390D01*
X130904761Y-68733390D02*
X130857142Y-68781009D01*
X130857142Y-68781009D02*
X130809523Y-68876247D01*
X130809523Y-68876247D02*
X130809523Y-69114342D01*
X130809523Y-69114342D02*
X130857142Y-69209580D01*
X130857142Y-69209580D02*
X130904761Y-69257200D01*
X130904761Y-69257200D02*
X130999999Y-69304819D01*
X130999999Y-69304819D02*
X131285713Y-69304819D01*
X131285713Y-69304819D02*
X131380951Y-69257200D01*
X131380951Y-69257200D02*
X131428570Y-69209580D01*
X142354819Y-70454762D02*
X141354819Y-70454762D01*
X141354819Y-70454762D02*
X141354819Y-70835714D01*
X141354819Y-70835714D02*
X141402438Y-70930952D01*
X141402438Y-70930952D02*
X141450057Y-70978571D01*
X141450057Y-70978571D02*
X141545295Y-71026190D01*
X141545295Y-71026190D02*
X141688152Y-71026190D01*
X141688152Y-71026190D02*
X141783390Y-70978571D01*
X141783390Y-70978571D02*
X141831009Y-70930952D01*
X141831009Y-70930952D02*
X141878628Y-70835714D01*
X141878628Y-70835714D02*
X141878628Y-70454762D01*
X142354819Y-72026190D02*
X141878628Y-71692857D01*
X142354819Y-71454762D02*
X141354819Y-71454762D01*
X141354819Y-71454762D02*
X141354819Y-71835714D01*
X141354819Y-71835714D02*
X141402438Y-71930952D01*
X141402438Y-71930952D02*
X141450057Y-71978571D01*
X141450057Y-71978571D02*
X141545295Y-72026190D01*
X141545295Y-72026190D02*
X141688152Y-72026190D01*
X141688152Y-72026190D02*
X141783390Y-71978571D01*
X141783390Y-71978571D02*
X141831009Y-71930952D01*
X141831009Y-71930952D02*
X141878628Y-71835714D01*
X141878628Y-71835714D02*
X141878628Y-71454762D01*
X141354819Y-72645238D02*
X141354819Y-72835714D01*
X141354819Y-72835714D02*
X141402438Y-72930952D01*
X141402438Y-72930952D02*
X141497676Y-73026190D01*
X141497676Y-73026190D02*
X141688152Y-73073809D01*
X141688152Y-73073809D02*
X142021485Y-73073809D01*
X142021485Y-73073809D02*
X142211961Y-73026190D01*
X142211961Y-73026190D02*
X142307200Y-72930952D01*
X142307200Y-72930952D02*
X142354819Y-72835714D01*
X142354819Y-72835714D02*
X142354819Y-72645238D01*
X142354819Y-72645238D02*
X142307200Y-72550000D01*
X142307200Y-72550000D02*
X142211961Y-72454762D01*
X142211961Y-72454762D02*
X142021485Y-72407143D01*
X142021485Y-72407143D02*
X141688152Y-72407143D01*
X141688152Y-72407143D02*
X141497676Y-72454762D01*
X141497676Y-72454762D02*
X141402438Y-72550000D01*
X141402438Y-72550000D02*
X141354819Y-72645238D01*
X141402438Y-74026190D02*
X141354819Y-73930952D01*
X141354819Y-73930952D02*
X141354819Y-73788095D01*
X141354819Y-73788095D02*
X141402438Y-73645238D01*
X141402438Y-73645238D02*
X141497676Y-73550000D01*
X141497676Y-73550000D02*
X141592914Y-73502381D01*
X141592914Y-73502381D02*
X141783390Y-73454762D01*
X141783390Y-73454762D02*
X141926247Y-73454762D01*
X141926247Y-73454762D02*
X142116723Y-73502381D01*
X142116723Y-73502381D02*
X142211961Y-73550000D01*
X142211961Y-73550000D02*
X142307200Y-73645238D01*
X142307200Y-73645238D02*
X142354819Y-73788095D01*
X142354819Y-73788095D02*
X142354819Y-73883333D01*
X142354819Y-73883333D02*
X142307200Y-74026190D01*
X142307200Y-74026190D02*
X142259580Y-74073809D01*
X142259580Y-74073809D02*
X141926247Y-74073809D01*
X141926247Y-74073809D02*
X141926247Y-73883333D01*
X142450057Y-74264286D02*
X142450057Y-75026190D01*
X142307200Y-75216667D02*
X142354819Y-75359524D01*
X142354819Y-75359524D02*
X142354819Y-75597619D01*
X142354819Y-75597619D02*
X142307200Y-75692857D01*
X142307200Y-75692857D02*
X142259580Y-75740476D01*
X142259580Y-75740476D02*
X142164342Y-75788095D01*
X142164342Y-75788095D02*
X142069104Y-75788095D01*
X142069104Y-75788095D02*
X141973866Y-75740476D01*
X141973866Y-75740476D02*
X141926247Y-75692857D01*
X141926247Y-75692857D02*
X141878628Y-75597619D01*
X141878628Y-75597619D02*
X141831009Y-75407143D01*
X141831009Y-75407143D02*
X141783390Y-75311905D01*
X141783390Y-75311905D02*
X141735771Y-75264286D01*
X141735771Y-75264286D02*
X141640533Y-75216667D01*
X141640533Y-75216667D02*
X141545295Y-75216667D01*
X141545295Y-75216667D02*
X141450057Y-75264286D01*
X141450057Y-75264286D02*
X141402438Y-75311905D01*
X141402438Y-75311905D02*
X141354819Y-75407143D01*
X141354819Y-75407143D02*
X141354819Y-75645238D01*
X141354819Y-75645238D02*
X141402438Y-75788095D01*
X141354819Y-76073810D02*
X141354819Y-76645238D01*
X142354819Y-76359524D02*
X141354819Y-76359524D01*
X142354819Y-76978572D02*
X141354819Y-76978572D01*
X141354819Y-76978572D02*
X142069104Y-77311905D01*
X142069104Y-77311905D02*
X141354819Y-77645238D01*
X141354819Y-77645238D02*
X142354819Y-77645238D01*
X139840476Y-67404819D02*
X140316666Y-67404819D01*
X140316666Y-67404819D02*
X140364285Y-67881009D01*
X140364285Y-67881009D02*
X140316666Y-67833390D01*
X140316666Y-67833390D02*
X140221428Y-67785771D01*
X140221428Y-67785771D02*
X139983333Y-67785771D01*
X139983333Y-67785771D02*
X139888095Y-67833390D01*
X139888095Y-67833390D02*
X139840476Y-67881009D01*
X139840476Y-67881009D02*
X139792857Y-67976247D01*
X139792857Y-67976247D02*
X139792857Y-68214342D01*
X139792857Y-68214342D02*
X139840476Y-68309580D01*
X139840476Y-68309580D02*
X139888095Y-68357200D01*
X139888095Y-68357200D02*
X139983333Y-68404819D01*
X139983333Y-68404819D02*
X140221428Y-68404819D01*
X140221428Y-68404819D02*
X140316666Y-68357200D01*
X140316666Y-68357200D02*
X140364285Y-68309580D01*
X139507142Y-67404819D02*
X139173809Y-68404819D01*
X139173809Y-68404819D02*
X138840476Y-67404819D01*
X188164285Y-119202438D02*
X188259523Y-119154819D01*
X188259523Y-119154819D02*
X188402380Y-119154819D01*
X188402380Y-119154819D02*
X188545237Y-119202438D01*
X188545237Y-119202438D02*
X188640475Y-119297676D01*
X188640475Y-119297676D02*
X188688094Y-119392914D01*
X188688094Y-119392914D02*
X188735713Y-119583390D01*
X188735713Y-119583390D02*
X188735713Y-119726247D01*
X188735713Y-119726247D02*
X188688094Y-119916723D01*
X188688094Y-119916723D02*
X188640475Y-120011961D01*
X188640475Y-120011961D02*
X188545237Y-120107200D01*
X188545237Y-120107200D02*
X188402380Y-120154819D01*
X188402380Y-120154819D02*
X188307142Y-120154819D01*
X188307142Y-120154819D02*
X188164285Y-120107200D01*
X188164285Y-120107200D02*
X188116666Y-120059580D01*
X188116666Y-120059580D02*
X188116666Y-119726247D01*
X188116666Y-119726247D02*
X188307142Y-119726247D01*
X187735713Y-119250057D02*
X187688094Y-119202438D01*
X187688094Y-119202438D02*
X187592856Y-119154819D01*
X187592856Y-119154819D02*
X187354761Y-119154819D01*
X187354761Y-119154819D02*
X187259523Y-119202438D01*
X187259523Y-119202438D02*
X187211904Y-119250057D01*
X187211904Y-119250057D02*
X187164285Y-119345295D01*
X187164285Y-119345295D02*
X187164285Y-119440533D01*
X187164285Y-119440533D02*
X187211904Y-119583390D01*
X187211904Y-119583390D02*
X187783332Y-120154819D01*
X187783332Y-120154819D02*
X187164285Y-120154819D01*
D12*
%TO.C,Q4*%
X177650000Y-82290000D02*
X178300000Y-82290000D01*
X177650000Y-85410000D02*
X178300000Y-85410000D01*
X178950000Y-82290000D02*
X178300000Y-82290000D01*
X178950000Y-85410000D02*
X178300000Y-85410000D01*
X177377500Y-85690000D02*
X176897500Y-85690000D01*
X177137500Y-85360000D01*
X177377500Y-85690000D01*
G36*
X177377500Y-85690000D02*
G01*
X176897500Y-85690000D01*
X177137500Y-85360000D01*
X177377500Y-85690000D01*
G37*
%TO.C,C43*%
X134392164Y-68240000D02*
X134607836Y-68240000D01*
X134392164Y-68960000D02*
X134607836Y-68960000D01*
%TO.C,C19*%
X178756250Y-111303750D02*
X178756250Y-112091250D01*
X179150000Y-111697500D02*
X178362500Y-111697500D01*
X179390000Y-108790000D02*
X179390000Y-107504437D01*
X179390000Y-110910000D02*
X179390000Y-112195563D01*
X180454437Y-106440000D02*
X179390000Y-107504437D01*
X180454437Y-113260000D02*
X179390000Y-112195563D01*
X186210000Y-106440000D02*
X180454437Y-106440000D01*
X186210000Y-108790000D02*
X186210000Y-106440000D01*
X186210000Y-110910000D02*
X186210000Y-113260000D01*
X186210000Y-113260000D02*
X180454437Y-113260000D01*
%TO.C,R7*%
X119187258Y-118877500D02*
X118712742Y-118877500D01*
X119187258Y-119922500D02*
X118712742Y-119922500D01*
%TO.C,Q6*%
X141740000Y-120650000D02*
X141740000Y-121300000D01*
X141740000Y-121950000D02*
X141740000Y-121300000D01*
X144860000Y-120650000D02*
X144860000Y-121300000D01*
X144860000Y-121950000D02*
X144860000Y-121300000D01*
X145140000Y-122702500D02*
X144810000Y-122462500D01*
X145140000Y-122222500D01*
X145140000Y-122702500D01*
G36*
X145140000Y-122702500D02*
G01*
X144810000Y-122462500D01*
X145140000Y-122222500D01*
X145140000Y-122702500D01*
G37*
%TO.C,R49*%
X104115000Y-102127064D02*
X104115000Y-101672936D01*
X105585000Y-102127064D02*
X105585000Y-101672936D01*
%TO.C,SW3*%
X195480000Y-144300000D02*
X195480000Y-142600000D01*
X195480000Y-145800000D02*
X195480000Y-145600000D01*
X196530000Y-147650000D02*
X197320000Y-147650000D01*
X197320000Y-140750000D02*
X196530000Y-140750000D01*
X198330000Y-144100000D02*
X199620000Y-144100000D01*
X198330000Y-147050000D02*
X198330000Y-141350000D01*
X199620000Y-142800000D02*
X198330000Y-142800000D01*
X199830000Y-143000000D02*
X199620000Y-142800000D01*
X199830000Y-143900000D02*
X199620000Y-144100000D01*
X199830000Y-143900000D02*
X199830000Y-143000000D01*
%TO.C,C84*%
X113659420Y-66340000D02*
X113940580Y-66340000D01*
X113659420Y-67360000D02*
X113940580Y-67360000D01*
%TO.C,C14*%
X171771693Y-117380810D02*
X171619190Y-117228307D01*
X172280810Y-116871693D02*
X172128307Y-116719190D01*
%TO.C,C10*%
X110540000Y-105307836D02*
X110540000Y-105092164D01*
X111260000Y-105307836D02*
X111260000Y-105092164D01*
%TO.C,R69*%
X123696359Y-88520000D02*
X124003641Y-88520000D01*
X123696359Y-89280000D02*
X124003641Y-89280000D01*
%TO.C,TP6*%
X184355000Y-119685000D02*
G75*
G02*
X182955000Y-119685000I-700000J0D01*
G01*
X182955000Y-119685000D02*
G75*
G02*
X184355000Y-119685000I700000J0D01*
G01*
%TO.C,J17*%
D13*
X144050000Y-128225000D02*
X129050000Y-128225000D01*
X129050000Y-142725000D01*
X144050000Y-142725000D01*
X144050000Y-128225000D01*
D12*
%TO.C,C17*%
X171590000Y-106265000D02*
X171590000Y-108135000D01*
X171590000Y-108135000D02*
X175500000Y-108135000D01*
X175500000Y-106265000D02*
X171590000Y-106265000D01*
%TO.C,C12*%
X162869190Y-118121693D02*
X163021693Y-117969190D01*
X163378307Y-118630810D02*
X163530810Y-118478307D01*
%TO.C,L4*%
X115500000Y-69200000D02*
X115500000Y-67700000D01*
X115500000Y-73000000D02*
X115500000Y-74500000D01*
X115500000Y-74500000D02*
X122900000Y-74500000D01*
X122900000Y-67700000D02*
X115500000Y-67700000D01*
X122900000Y-69200000D02*
X122900000Y-67700000D01*
X122900000Y-73000000D02*
X122900000Y-74500000D01*
%TO.C,SW2*%
X195450000Y-133300000D02*
X195450000Y-131600000D01*
X195450000Y-134800000D02*
X195450000Y-134600000D01*
X196500000Y-136650000D02*
X197290000Y-136650000D01*
X197290000Y-129750000D02*
X196500000Y-129750000D01*
X198300000Y-133100000D02*
X199590000Y-133100000D01*
X198300000Y-136050000D02*
X198300000Y-130350000D01*
X199590000Y-131800000D02*
X198300000Y-131800000D01*
X199800000Y-132000000D02*
X199590000Y-131800000D01*
X199800000Y-132900000D02*
X199590000Y-133100000D01*
X199800000Y-132900000D02*
X199800000Y-132000000D01*
%TO.C,SW5*%
X127670000Y-118800000D02*
X127670000Y-118770000D01*
X127670000Y-120700000D02*
X127670000Y-123300000D01*
X127670000Y-125230000D02*
X127670000Y-125200000D01*
X134130000Y-118770000D02*
X127670000Y-118770000D01*
X134130000Y-118800000D02*
X134130000Y-118770000D01*
X134130000Y-120700000D02*
X134130000Y-123300000D01*
X134130000Y-125200000D02*
X134130000Y-125230000D01*
X134130000Y-125230000D02*
X127670000Y-125230000D01*
D13*
%TO.C,D21*%
X156150000Y-95800000D02*
X155250000Y-95800000D01*
X155250000Y-94900000D01*
X156150000Y-95800000D01*
G36*
X156150000Y-95800000D02*
G01*
X155250000Y-95800000D01*
X155250000Y-94900000D01*
X156150000Y-95800000D01*
G37*
D12*
%TO.C,C28*%
X131440000Y-111040580D02*
X131440000Y-110759420D01*
X132460000Y-111040580D02*
X132460000Y-110759420D01*
%TO.C,C52*%
X109990000Y-89809420D02*
X109990000Y-90090580D01*
X111010000Y-89809420D02*
X111010000Y-90090580D01*
%TO.C,C36*%
X137782836Y-79365000D02*
X137567164Y-79365000D01*
X137782836Y-80085000D02*
X137567164Y-80085000D01*
%TO.C,C1*%
X138915000Y-111938748D02*
X138915000Y-112461252D01*
X140385000Y-111938748D02*
X140385000Y-112461252D01*
%TO.C,R3*%
X139087258Y-114127500D02*
X138612742Y-114127500D01*
X139087258Y-115172500D02*
X138612742Y-115172500D01*
%TO.C,LS2*%
X145500000Y-95300000D02*
X154500000Y-95300000D01*
X145500000Y-97300000D02*
X154500000Y-97300000D01*
X145500000Y-108300000D02*
X154500000Y-108300000D01*
X145500000Y-110300000D02*
X154500000Y-110300000D01*
X145500000Y-108300000D02*
G75*
G02*
X145500000Y-97300000I0J5500000D01*
G01*
X145500000Y-110300000D02*
G75*
G02*
X145500000Y-95300000I0J7500000D01*
G01*
X154500000Y-95300000D02*
G75*
G02*
X154500000Y-110300000I0J-7500000D01*
G01*
X154500000Y-97300000D02*
G75*
G02*
X154500000Y-108300000I0J-5500000D01*
G01*
%TO.C,D20*%
X158890000Y-88050000D02*
X158890000Y-89750000D01*
X161550000Y-88050000D02*
X158890000Y-88050000D01*
X161550000Y-89750000D02*
X158890000Y-89750000D01*
D13*
%TO.C,D19*%
X121550000Y-77550000D02*
X122950000Y-77550000D01*
X122950000Y-75750000D02*
X121550000Y-75750000D01*
X122950000Y-77550000D02*
X122950000Y-75750000D01*
D12*
%TO.C,SW7*%
X169870000Y-95770000D02*
X169870000Y-102230000D01*
X169900000Y-95770000D02*
X169870000Y-95770000D01*
X169900000Y-102230000D02*
X169870000Y-102230000D01*
X171800000Y-95770000D02*
X174400000Y-95770000D01*
X171800000Y-102230000D02*
X174400000Y-102230000D01*
X176300000Y-95770000D02*
X176330000Y-95770000D01*
X176330000Y-95770000D02*
X176330000Y-102230000D01*
X176330000Y-102230000D02*
X176300000Y-102230000D01*
D11*
%TO.C,J14*%
X187925000Y-102100000D02*
X187925000Y-107000000D01*
X187925000Y-107000000D02*
X189175000Y-107000000D01*
X189675000Y-101000000D02*
X193475000Y-101000000D01*
X191375000Y-107000000D02*
X196175000Y-107000000D01*
X195675000Y-101000000D02*
X197175000Y-101000000D01*
X198375000Y-107000000D02*
X199975000Y-107000000D01*
X199975000Y-101000000D02*
X199375000Y-101000000D01*
D12*
%TO.C,U2*%
X130000000Y-112540000D02*
X131950000Y-112540000D01*
X130000000Y-117660000D02*
X131950000Y-117660000D01*
X133900000Y-112540000D02*
X131950000Y-112540000D01*
X133900000Y-117660000D02*
X131950000Y-117660000D01*
X134650000Y-112635000D02*
X134410000Y-112305000D01*
X134890000Y-112305000D01*
X134650000Y-112635000D01*
G36*
X134650000Y-112635000D02*
G01*
X134410000Y-112305000D01*
X134890000Y-112305000D01*
X134650000Y-112635000D01*
G37*
%TO.C,C29*%
X119090580Y-120390000D02*
X118809420Y-120390000D01*
X119090580Y-121410000D02*
X118809420Y-121410000D01*
%TO.C,U8*%
X118000000Y-122840000D02*
X118800000Y-122840000D01*
X118000000Y-125960000D02*
X118800000Y-125960000D01*
X119600000Y-125960000D02*
X118800000Y-125960000D01*
X120600000Y-122840000D02*
X118800000Y-122840000D01*
%TO.C,D13*%
X178400000Y-81550000D02*
X178400000Y-78890000D01*
X180100000Y-78890000D02*
X178400000Y-78890000D01*
X180100000Y-81550000D02*
X180100000Y-78890000D01*
%TO.C,R73*%
X112072659Y-125639940D02*
X112289940Y-125422659D01*
X112610060Y-126177341D02*
X112827341Y-125960060D01*
%TO.C,LS1*%
X149715000Y-115110000D02*
X149715000Y-110590000D01*
X149915000Y-110590000D02*
X149715000Y-110590000D01*
X149915000Y-115110000D02*
X149715000Y-115110000D01*
X154035000Y-110590000D02*
X154235000Y-110590000D01*
X154035000Y-115110000D02*
X154235000Y-115110000D01*
X154235000Y-115110000D02*
X154235000Y-110590000D01*
D13*
%TO.C,J26*%
X155900000Y-67037500D02*
X156400000Y-67037500D01*
X155900000Y-67537500D02*
X155900000Y-67037500D01*
X156400000Y-67037500D02*
X155900000Y-67537500D01*
X156700000Y-67037500D02*
X133500000Y-67037500D01*
X133500000Y-55837500D01*
X156700000Y-55837500D01*
X156700000Y-67037500D01*
D12*
%TO.C,C80*%
X118911253Y-65765000D02*
X118388747Y-65765000D01*
X118911253Y-67235000D02*
X118388747Y-67235000D01*
%TO.C,J13*%
X100000000Y-67350000D02*
X100000000Y-76350000D01*
X100000000Y-67350000D02*
X101350000Y-67350000D01*
X100000000Y-76350000D02*
X101350000Y-76350000D01*
X104050000Y-67350000D02*
X105050000Y-67350000D01*
X104050000Y-76350000D02*
X105050000Y-76350000D01*
%TO.C,R28*%
X119187258Y-117327500D02*
X118712742Y-117327500D01*
X119187258Y-118372500D02*
X118712742Y-118372500D01*
%TO.C,C31*%
X129940000Y-111040580D02*
X129940000Y-110759420D01*
X130960000Y-111040580D02*
X130960000Y-110759420D01*
%TO.C,U10*%
X164208903Y-117700000D02*
X164544778Y-118035876D01*
X164544778Y-117364124D02*
X164208903Y-117700000D01*
X167564124Y-114344778D02*
X167900000Y-114008903D01*
X167900000Y-114008903D02*
X168235876Y-114344778D01*
X167900000Y-121391097D02*
X167564124Y-121055222D01*
X168235876Y-121055222D02*
X167900000Y-121391097D01*
X171378965Y-117487868D02*
X171255222Y-117364124D01*
X171421392Y-117869706D02*
X171255222Y-118035876D01*
X171994148Y-117636360D02*
X171591097Y-117700000D01*
X171654737Y-117296949D01*
X171994148Y-117636360D01*
G36*
X171994148Y-117636360D02*
G01*
X171591097Y-117700000D01*
X171654737Y-117296949D01*
X171994148Y-117636360D01*
G37*
%TO.C,FB1*%
X172904478Y-114974273D02*
X172674273Y-115204478D01*
X173625727Y-115695522D02*
X173395522Y-115925727D01*
%TO.C,C20*%
X178050000Y-119235000D02*
X181960000Y-119235000D01*
X181960000Y-117365000D02*
X178050000Y-117365000D01*
X181960000Y-119235000D02*
X181960000Y-117365000D01*
%TO.C,C59*%
X168492164Y-58040000D02*
X168707836Y-58040000D01*
X168492164Y-58760000D02*
X168707836Y-58760000D01*
%TO.C,C23*%
X178050000Y-117085000D02*
X181960000Y-117085000D01*
X181960000Y-115215000D02*
X178050000Y-115215000D01*
X181960000Y-117085000D02*
X181960000Y-115215000D01*
%TO.C,C56*%
X117659420Y-143690000D02*
X117940580Y-143690000D01*
X117659420Y-144710000D02*
X117940580Y-144710000D01*
%TO.C,C22*%
X177807836Y-113040000D02*
X177592164Y-113040000D01*
X177807836Y-113760000D02*
X177592164Y-113760000D01*
%TO.C,R35*%
X154646359Y-84145000D02*
X154953641Y-84145000D01*
X154646359Y-84905000D02*
X154953641Y-84905000D01*
%TO.C,D3*%
X187120000Y-146260000D02*
X187120000Y-147060000D01*
X187120000Y-147860000D02*
X187120000Y-147060000D01*
X188050000Y-147860000D02*
X187120000Y-147860000D01*
X189350000Y-147860000D02*
X190280000Y-147860000D01*
X190280000Y-146400000D02*
X190280000Y-147860000D01*
X187090000Y-145760000D02*
X186760000Y-146000000D01*
X186760000Y-145520000D01*
X187090000Y-145760000D01*
G36*
X187090000Y-145760000D02*
G01*
X186760000Y-146000000D01*
X186760000Y-145520000D01*
X187090000Y-145760000D01*
G37*
%TO.C,C16*%
X170090000Y-108865000D02*
X170090000Y-110735000D01*
X170090000Y-110735000D02*
X174000000Y-110735000D01*
X174000000Y-108865000D02*
X170090000Y-108865000D01*
%TO.C,C83*%
X113659420Y-67840000D02*
X113940580Y-67840000D01*
X113659420Y-68860000D02*
X113940580Y-68860000D01*
%TO.C,C15*%
X168290000Y-113142164D02*
X168290000Y-113357836D01*
X169010000Y-113142164D02*
X169010000Y-113357836D01*
%TO.C,C24*%
X165465000Y-105790000D02*
X165465000Y-109700000D01*
X167335000Y-105790000D02*
X165465000Y-105790000D01*
X167335000Y-109700000D02*
X167335000Y-105790000D01*
%TO.C,R15*%
X165040000Y-80427064D02*
X165040000Y-78972936D01*
X166860000Y-80427064D02*
X166860000Y-78972936D01*
%TO.C,U27*%
X122040000Y-64200000D02*
X122040000Y-66000000D01*
X125260000Y-64200000D02*
X125260000Y-65000000D01*
X125260000Y-65800000D02*
X125260000Y-65000000D01*
X125540000Y-66540000D02*
X125210000Y-66300000D01*
X125540000Y-66060000D01*
X125540000Y-66540000D01*
G36*
X125540000Y-66540000D02*
G01*
X125210000Y-66300000D01*
X125540000Y-66060000D01*
X125540000Y-66540000D01*
G37*
%TO.C,R74*%
X143646359Y-123320000D02*
X143953641Y-123320000D01*
X143646359Y-124080000D02*
X143953641Y-124080000D01*
%TO.C,R10*%
X109653641Y-103420000D02*
X109346359Y-103420000D01*
X109653641Y-104180000D02*
X109346359Y-104180000D01*
%TO.C,C30*%
X128440000Y-111040580D02*
X128440000Y-110759420D01*
X129460000Y-111040580D02*
X129460000Y-110759420D01*
%TO.C,U12*%
X121200000Y-146500000D02*
X118200000Y-146500000D01*
X118200000Y-149500000D01*
X121200000Y-149500000D01*
X121200000Y-146500000D01*
X120200000Y-148500000D02*
G75*
G02*
X119200000Y-148500000I-500000J0D01*
G01*
X119200000Y-148500000D02*
G75*
G02*
X120200000Y-148500000I500000J0D01*
G01*
D13*
X118000000Y-149000000D02*
X117700000Y-149300000D01*
X117700000Y-148700000D01*
X118000000Y-149000000D01*
G36*
X118000000Y-149000000D02*
G01*
X117700000Y-149300000D01*
X117700000Y-148700000D01*
X118000000Y-149000000D01*
G37*
D12*
%TO.C,D8*%
X145400000Y-72500000D02*
X145400000Y-68600000D01*
X145400000Y-72500000D02*
X148600000Y-72500000D01*
X148600000Y-72500000D02*
X148600000Y-68600000D01*
D11*
%TO.C,U1*%
X180125000Y-138355000D02*
X181525000Y-138355000D01*
X181525000Y-133495000D02*
X181525000Y-133350000D01*
X181525000Y-138355000D02*
X181525000Y-138500000D01*
X185675000Y-133350000D02*
X181525000Y-133350000D01*
X185675000Y-133495000D02*
X185675000Y-133350000D01*
X185675000Y-138355000D02*
X185675000Y-138500000D01*
X185675000Y-138500000D02*
X181525000Y-138500000D01*
D13*
%TO.C,D15*%
X151544201Y-95800000D02*
X150644201Y-95800000D01*
X150644201Y-94900000D01*
X151544201Y-95800000D01*
G36*
X151544201Y-95800000D02*
G01*
X150644201Y-95800000D01*
X150644201Y-94900000D01*
X151544201Y-95800000D01*
G37*
D12*
%TO.C,U18*%
X110500000Y-124490000D02*
X109450000Y-124490000D01*
X110750000Y-126810000D02*
X109450000Y-126810000D01*
X111140000Y-124490000D02*
X110860000Y-124490000D01*
X110860000Y-124210000D01*
X111140000Y-124490000D01*
G36*
X111140000Y-124490000D02*
G01*
X110860000Y-124490000D01*
X110860000Y-124210000D01*
X111140000Y-124490000D01*
G37*
%TO.C,J29*%
X195932500Y-51650000D02*
X194932500Y-51650000D01*
X195932500Y-60650000D02*
X194932500Y-60650000D01*
X199982500Y-51650000D02*
X198632500Y-51650000D01*
X199982500Y-60650000D02*
X198632500Y-60650000D01*
X199982500Y-60650000D02*
X199982500Y-51650000D01*
%TO.C,SW8*%
X169870000Y-125770000D02*
X169870000Y-132230000D01*
X169900000Y-125770000D02*
X169870000Y-125770000D01*
X169900000Y-132230000D02*
X169870000Y-132230000D01*
X171800000Y-125770000D02*
X174400000Y-125770000D01*
X171800000Y-132230000D02*
X174400000Y-132230000D01*
X176300000Y-125770000D02*
X176330000Y-125770000D01*
X176330000Y-125770000D02*
X176330000Y-132230000D01*
X176330000Y-132230000D02*
X176300000Y-132230000D01*
D11*
%TO.C,J16*%
X187925000Y-113100000D02*
X187925000Y-118000000D01*
X187925000Y-118000000D02*
X189175000Y-118000000D01*
X189675000Y-112000000D02*
X193475000Y-112000000D01*
X191375000Y-118000000D02*
X196175000Y-118000000D01*
X195675000Y-112000000D02*
X197175000Y-112000000D01*
X198375000Y-118000000D02*
X199975000Y-118000000D01*
X199975000Y-112000000D02*
X199375000Y-112000000D01*
D12*
%TO.C,J11*%
X100615000Y-140260000D02*
X100615000Y-144140000D01*
X105085000Y-139090000D02*
X102585000Y-139090000D01*
X105085000Y-140140000D02*
X105085000Y-139090000D01*
X105085000Y-144260000D02*
X105085000Y-145310000D01*
X105085000Y-145310000D02*
X102585000Y-145310000D01*
X106075000Y-144260000D02*
X105085000Y-144260000D01*
%TO.C,U9*%
X116790000Y-133990000D02*
X117465000Y-133990000D01*
X116790000Y-134165000D02*
X116790000Y-133990000D01*
X117090000Y-136710000D02*
X117465000Y-136710000D01*
X120010000Y-133990000D02*
X119335000Y-133990000D01*
X120010000Y-134165000D02*
X120010000Y-133990000D01*
X120010000Y-136535000D02*
X120010000Y-136710000D01*
X120010000Y-136710000D02*
X119335000Y-136710000D01*
X116930000Y-136900000D02*
X116650000Y-136900000D01*
X116790000Y-136710000D01*
X116930000Y-136900000D01*
G36*
X116930000Y-136900000D02*
G01*
X116650000Y-136900000D01*
X116790000Y-136710000D01*
X116930000Y-136900000D01*
G37*
%TO.C,D9*%
X145400000Y-79500000D02*
X145400000Y-75600000D01*
X145400000Y-79500000D02*
X148600000Y-79500000D01*
X148600000Y-79500000D02*
X148600000Y-75600000D01*
D13*
%TO.C,J6*%
X169415000Y-136330000D02*
X170050000Y-136330000D01*
X170050000Y-136330000D02*
X170050000Y-138870000D01*
X170050000Y-138870000D02*
X169415000Y-138870000D01*
X168450000Y-140200000D02*
X167250000Y-140200000D01*
X167850000Y-139600000D01*
X168450000Y-140200000D01*
G36*
X168450000Y-140200000D02*
G01*
X167250000Y-140200000D01*
X167850000Y-139600000D01*
X168450000Y-140200000D01*
G37*
D12*
%TO.C,JP3*%
X166250000Y-128750000D02*
X166250000Y-127350000D01*
X166950000Y-126650000D02*
X167550000Y-126650000D01*
X167550000Y-129450000D02*
X166950000Y-129450000D01*
X168250000Y-127350000D02*
X168250000Y-128750000D01*
X166250000Y-127350000D02*
G75*
G02*
X166950000Y-126650000I699999J1D01*
G01*
X166950000Y-129450000D02*
G75*
G02*
X166250000Y-128750000I0J700000D01*
G01*
X167550000Y-126650000D02*
G75*
G02*
X168250000Y-127350000I1J-699999D01*
G01*
X168250000Y-128750000D02*
G75*
G02*
X167550000Y-129450000I-700000J0D01*
G01*
%TO.C,SW1*%
X181350000Y-149150000D02*
X181350000Y-148050000D01*
X183150000Y-148050000D02*
X183150000Y-149150000D01*
X183150000Y-149150000D02*
X181350000Y-149150000D01*
X183250000Y-145700000D02*
X181250000Y-145700000D01*
X184150000Y-148050000D02*
X180350000Y-148050000D01*
%TO.C,U4*%
X147200000Y-123110000D02*
X147200000Y-123860000D01*
X147200000Y-141860000D02*
X147200000Y-148610000D01*
X147200000Y-142670000D02*
X165200000Y-142670000D01*
X148200000Y-123110000D02*
X147200000Y-123110000D01*
X164200000Y-123110000D02*
X165200000Y-123110000D01*
X165200000Y-123110000D02*
X165200000Y-123860000D01*
X165200000Y-141860000D02*
X165200000Y-148610000D01*
X165200000Y-148610000D02*
X147200000Y-148610000D01*
%TO.C,R43*%
X109520000Y-142353641D02*
X109520000Y-142046359D01*
X110280000Y-142353641D02*
X110280000Y-142046359D01*
%TO.C,C64*%
X103359420Y-114040000D02*
X103640580Y-114040000D01*
X103359420Y-115060000D02*
X103640580Y-115060000D01*
%TO.C,R30*%
X187420000Y-72653641D02*
X187420000Y-72346359D01*
X188180000Y-72653641D02*
X188180000Y-72346359D01*
%TO.C,C18*%
X178556250Y-104153750D02*
X178556250Y-104941250D01*
X178950000Y-104547500D02*
X178162500Y-104547500D01*
X179190000Y-101640000D02*
X179190000Y-100354437D01*
X179190000Y-103760000D02*
X179190000Y-105045563D01*
X180254437Y-99290000D02*
X179190000Y-100354437D01*
X180254437Y-106110000D02*
X179190000Y-105045563D01*
X186010000Y-99290000D02*
X180254437Y-99290000D01*
X186010000Y-101640000D02*
X186010000Y-99290000D01*
X186010000Y-103760000D02*
X186010000Y-106110000D01*
X186010000Y-106110000D02*
X180254437Y-106110000D01*
%TO.C,L1*%
X119300000Y-111550000D02*
X119300000Y-110050000D01*
X119300000Y-115350000D02*
X119300000Y-116850000D01*
X119300000Y-116850000D02*
X126700000Y-116850000D01*
X126700000Y-110050000D02*
X119300000Y-110050000D01*
X126700000Y-111550000D02*
X126700000Y-110050000D01*
X126700000Y-115350000D02*
X126700000Y-116850000D01*
%TO.C,J7*%
X159640000Y-81990000D02*
X159640000Y-87960000D01*
X159640000Y-87960000D02*
X167260000Y-87960000D01*
X159650000Y-82000000D02*
X159650000Y-82750000D01*
X159650000Y-82750000D02*
X161450000Y-82750000D01*
X160400000Y-84250000D02*
X159650000Y-84250000D01*
X160400000Y-87200000D02*
X160400000Y-84250000D01*
X161450000Y-82000000D02*
X159650000Y-82000000D01*
X161450000Y-82750000D02*
X161450000Y-82000000D01*
X162950000Y-82000000D02*
X162950000Y-82750000D01*
X162950000Y-82750000D02*
X163950000Y-82750000D01*
X163450000Y-87200000D02*
X160400000Y-87200000D01*
X163450000Y-87200000D02*
X166500000Y-87200000D01*
X163950000Y-82000000D02*
X162950000Y-82000000D01*
X163950000Y-82750000D02*
X163950000Y-82000000D01*
X165450000Y-82000000D02*
X165450000Y-82750000D01*
X165450000Y-82750000D02*
X167250000Y-82750000D01*
X166500000Y-84250000D02*
X167250000Y-84250000D01*
X166500000Y-87200000D02*
X166500000Y-84250000D01*
X167250000Y-82000000D02*
X165450000Y-82000000D01*
X167250000Y-82750000D02*
X167250000Y-82000000D01*
X167260000Y-81990000D02*
X159640000Y-81990000D01*
X167260000Y-87960000D02*
X167260000Y-81990000D01*
%TO.C,R52*%
X104127064Y-103965000D02*
X103672936Y-103965000D01*
X104127064Y-105435000D02*
X103672936Y-105435000D01*
%TO.C,U5*%
X127490000Y-81065000D02*
X128440000Y-81065000D01*
X127490000Y-82015000D02*
X127490000Y-81065000D01*
X127490000Y-90335000D02*
X127490000Y-91285000D01*
X127490000Y-91285000D02*
X128440000Y-91285000D01*
X137710000Y-81065000D02*
X136760000Y-81065000D01*
X137710000Y-82015000D02*
X137710000Y-81065000D01*
X137710000Y-90335000D02*
X137710000Y-91285000D01*
X137710000Y-91285000D02*
X136760000Y-91285000D01*
X138325000Y-82015000D02*
X137985000Y-81545000D01*
X138665000Y-81545000D01*
X138325000Y-82015000D01*
G36*
X138325000Y-82015000D02*
G01*
X137985000Y-81545000D01*
X138665000Y-81545000D01*
X138325000Y-82015000D01*
G37*
D11*
%TO.C,J3*%
X187925000Y-91100000D02*
X187925000Y-96000000D01*
X187925000Y-96000000D02*
X189175000Y-96000000D01*
X189675000Y-90000000D02*
X193475000Y-90000000D01*
X191375000Y-96000000D02*
X196175000Y-96000000D01*
X195675000Y-90000000D02*
X197175000Y-90000000D01*
X198375000Y-96000000D02*
X199975000Y-96000000D01*
X199975000Y-90000000D02*
X199375000Y-90000000D01*
D12*
%TO.C,R40*%
X169053641Y-131620000D02*
X168746359Y-131620000D01*
X169053641Y-132380000D02*
X168746359Y-132380000D01*
%TO.C,U16*%
X101940000Y-108150000D02*
X101940000Y-110100000D01*
X101940000Y-112050000D02*
X101940000Y-110100000D01*
X107060000Y-108150000D02*
X107060000Y-110100000D01*
X107060000Y-112050000D02*
X107060000Y-110100000D01*
X102035000Y-107400000D02*
X101705000Y-107640000D01*
X101705000Y-107160000D01*
X102035000Y-107400000D01*
G36*
X102035000Y-107400000D02*
G01*
X101705000Y-107640000D01*
X101705000Y-107160000D01*
X102035000Y-107400000D01*
G37*
%TO.C,C37*%
X131257836Y-93740000D02*
X131042164Y-93740000D01*
X131257836Y-94460000D02*
X131042164Y-94460000D01*
%TO.C,BT1*%
X112745000Y-117550000D02*
X190745000Y-117550000D01*
X112745000Y-137650000D02*
X112745000Y-117550000D01*
X190745000Y-117550000D02*
X190745000Y-137650000D01*
X190745000Y-137650000D02*
X112745000Y-137650000D01*
%TO.C,R8*%
X190270000Y-134903641D02*
X190270000Y-134596359D01*
X191030000Y-134903641D02*
X191030000Y-134596359D01*
%TO.C,Q3*%
X167110000Y-70400000D02*
X160690000Y-70400000D01*
X167110000Y-70670000D02*
X167110000Y-70400000D01*
X167110000Y-77030000D02*
X167110000Y-77300000D01*
X167110000Y-77300000D02*
X160690000Y-77300000D01*
X168530000Y-70710000D02*
X168290000Y-70380000D01*
X168770000Y-70380000D01*
X168530000Y-70710000D01*
G36*
X168530000Y-70710000D02*
G01*
X168290000Y-70380000D01*
X168770000Y-70380000D01*
X168530000Y-70710000D01*
G37*
%TO.C,C61*%
X122607836Y-82340000D02*
X122392164Y-82340000D01*
X122607836Y-83060000D02*
X122392164Y-83060000D01*
%TO.C,R12*%
X157220000Y-59336359D02*
X157220000Y-59643641D01*
X157980000Y-59336359D02*
X157980000Y-59643641D01*
%TO.C,C62*%
X167865000Y-104990000D02*
X167865000Y-108900000D01*
X169735000Y-104990000D02*
X167865000Y-104990000D01*
X169735000Y-108900000D02*
X169735000Y-104990000D01*
%TO.C,C9*%
X110240000Y-102007836D02*
X110240000Y-101792164D01*
X110960000Y-102007836D02*
X110960000Y-101792164D01*
%TO.C,C21*%
X169240000Y-112892164D02*
X169240000Y-113107836D01*
X169960000Y-112892164D02*
X169960000Y-113107836D01*
%TO.C,Q5*%
X157050000Y-82040000D02*
X157700000Y-82040000D01*
X157050000Y-85160000D02*
X157700000Y-85160000D01*
X158350000Y-82040000D02*
X157700000Y-82040000D01*
X158350000Y-85160000D02*
X157700000Y-85160000D01*
X156777500Y-85440000D02*
X156297500Y-85440000D01*
X156537500Y-85110000D01*
X156777500Y-85440000D01*
G36*
X156777500Y-85440000D02*
G01*
X156297500Y-85440000D01*
X156537500Y-85110000D01*
X156777500Y-85440000D01*
G37*
%TO.C,C41*%
X132440000Y-56807836D02*
X132440000Y-56592164D01*
X133160000Y-56807836D02*
X133160000Y-56592164D01*
%TO.C,C7*%
X120690000Y-118740580D02*
X120690000Y-118459420D01*
X121710000Y-118740580D02*
X121710000Y-118459420D01*
%TO.C,U11*%
X125690000Y-64010000D02*
X125690000Y-60250000D01*
X126950000Y-64010000D02*
X125690000Y-64010000D01*
X131250000Y-64010000D02*
X132510000Y-64010000D01*
X132510000Y-64010000D02*
X132510000Y-60250000D01*
X125790000Y-58970000D02*
X125460000Y-59210000D01*
X125460000Y-58730000D01*
X125790000Y-58970000D01*
G36*
X125790000Y-58970000D02*
G01*
X125460000Y-59210000D01*
X125460000Y-58730000D01*
X125790000Y-58970000D01*
G37*
%TO.C,C63*%
X112209420Y-83290000D02*
X112490580Y-83290000D01*
X112209420Y-84310000D02*
X112490580Y-84310000D01*
%TO.C,D2*%
X184390000Y-129670000D02*
X185190000Y-129670000D01*
X184390000Y-130600000D02*
X184390000Y-129670000D01*
X184390000Y-131900000D02*
X184390000Y-132830000D01*
X185850000Y-132830000D02*
X184390000Y-132830000D01*
X185990000Y-129670000D02*
X185190000Y-129670000D01*
X186490000Y-129640000D02*
X186250000Y-129310000D01*
X186730000Y-129310000D01*
X186490000Y-129640000D01*
G36*
X186490000Y-129640000D02*
G01*
X186250000Y-129310000D01*
X186730000Y-129310000D01*
X186490000Y-129640000D01*
G37*
%TO.C,R71*%
X140120000Y-74403641D02*
X140120000Y-74096359D01*
X140880000Y-74403641D02*
X140880000Y-74096359D01*
%TO.C,K1*%
X180400000Y-85360000D02*
X180410000Y-78700000D01*
X180900000Y-85360000D02*
X180400000Y-85360000D01*
X180910000Y-78100000D02*
X180910000Y-78700000D01*
X180910000Y-78700000D02*
X180410000Y-78700000D01*
X182410000Y-78100000D02*
X182410000Y-78700000D01*
X182410000Y-78700000D02*
X183810000Y-78700000D01*
X183900000Y-85360000D02*
X182500000Y-85360000D01*
X185500000Y-78660000D02*
X186300000Y-78660000D01*
X186300000Y-85360000D02*
X185500000Y-85360000D01*
X187900000Y-78660000D02*
X188500000Y-78660000D01*
X188500000Y-85360000D02*
X187900000Y-85360000D01*
X190100000Y-78660000D02*
X190600000Y-78660000D01*
X190600000Y-78660000D02*
X190600000Y-85360000D01*
X190600000Y-85360000D02*
X190100000Y-85360000D01*
%TO.C,R48*%
X124346359Y-61620000D02*
X124653641Y-61620000D01*
X124346359Y-62380000D02*
X124653641Y-62380000D01*
%TO.C,U3*%
X115390000Y-81940000D02*
X117700000Y-81940000D01*
X115390000Y-82215000D02*
X115390000Y-81940000D01*
X115390000Y-91585000D02*
X115390000Y-91860000D01*
X115390000Y-91860000D02*
X117700000Y-91860000D01*
X120010000Y-81940000D02*
X117700000Y-81940000D01*
X120010000Y-82215000D02*
X120010000Y-81940000D01*
X120010000Y-91585000D02*
X120010000Y-91860000D01*
X120010000Y-91860000D02*
X117700000Y-91860000D01*
X115040000Y-91915000D02*
X114560000Y-91915000D01*
X114800000Y-91585000D01*
X115040000Y-91915000D01*
G36*
X115040000Y-91915000D02*
G01*
X114560000Y-91915000D01*
X114800000Y-91585000D01*
X115040000Y-91915000D01*
G37*
%TO.C,R1*%
X176446359Y-146620000D02*
X176753641Y-146620000D01*
X176446359Y-147380000D02*
X176753641Y-147380000D01*
%TO.C,JP5*%
X126400000Y-69550000D02*
X126400000Y-68950000D01*
X127100000Y-68250000D02*
X128500000Y-68250000D01*
X128500000Y-70250000D02*
X127100000Y-70250000D01*
X129200000Y-68950000D02*
X129200000Y-69550000D01*
X126400000Y-68950000D02*
G75*
G02*
X127100000Y-68250000I700000J0D01*
G01*
X127100000Y-70250000D02*
G75*
G02*
X126400000Y-69550000I0J700000D01*
G01*
X128500000Y-68250000D02*
G75*
G02*
X129200000Y-68950000I1J-699999D01*
G01*
X129200000Y-69550000D02*
G75*
G02*
X128500000Y-70250000I-699999J-1D01*
G01*
%TO.C,C81*%
X124509420Y-67790000D02*
X124790580Y-67790000D01*
X124509420Y-68810000D02*
X124790580Y-68810000D01*
%TO.C,R24*%
X177546359Y-114020000D02*
X177853641Y-114020000D01*
X177546359Y-114780000D02*
X177853641Y-114780000D01*
%TO.C,J36*%
X124520000Y-72045000D02*
X124520000Y-77245000D01*
X124520000Y-72045000D02*
X125090000Y-72045000D01*
X124520000Y-77245000D02*
X125090000Y-77245000D01*
X126610000Y-72045000D02*
X127630000Y-72045000D01*
X126610000Y-77245000D02*
X127630000Y-77245000D01*
X129150000Y-72045000D02*
X130170000Y-72045000D01*
X129150000Y-77245000D02*
X130170000Y-77245000D01*
X131690000Y-72045000D02*
X132710000Y-72045000D01*
X131690000Y-77245000D02*
X132710000Y-77245000D01*
X134230000Y-72045000D02*
X135250000Y-72045000D01*
X134230000Y-77245000D02*
X135250000Y-77245000D01*
X136770000Y-72045000D02*
X137790000Y-72045000D01*
X136770000Y-77245000D02*
X137790000Y-77245000D01*
X139310000Y-70685000D02*
X139310000Y-72045000D01*
X139310000Y-72045000D02*
X139880000Y-72045000D01*
X139310000Y-77245000D02*
X139880000Y-77245000D01*
X139880000Y-72045000D02*
X139880000Y-77245000D01*
%TO.C,U17*%
X161620000Y-65550000D02*
X161620000Y-61950000D01*
X157320000Y-62930000D02*
G75*
G02*
X161611741Y-61938125I2450000J-820000D01*
G01*
X161597684Y-65558445D02*
G75*
G02*
X157320000Y-64530000I-1827684J1808445D01*
G01*
%TO.C,R20*%
X188090000Y-132472936D02*
X188090000Y-133927064D01*
X189910000Y-132472936D02*
X189910000Y-133927064D01*
%TO.C,D10*%
X152500000Y-81100000D02*
X148600000Y-81100000D01*
X152500000Y-84300000D02*
X148600000Y-84300000D01*
X152500000Y-84300000D02*
X152500000Y-81100000D01*
%TO.C,R34*%
X123170000Y-76621359D02*
X123170000Y-76928641D01*
X123930000Y-76621359D02*
X123930000Y-76928641D01*
D13*
%TO.C,D17*%
X142450000Y-95850000D02*
X141550000Y-95850000D01*
X141550000Y-94950000D01*
X142450000Y-95850000D01*
G36*
X142450000Y-95850000D02*
G01*
X141550000Y-95850000D01*
X141550000Y-94950000D01*
X142450000Y-95850000D01*
G37*
D12*
%TO.C,J5*%
X100050000Y-124100000D02*
X100050000Y-133100000D01*
X100050000Y-124100000D02*
X101400000Y-124100000D01*
X100050000Y-133100000D02*
X101400000Y-133100000D01*
X104100000Y-124100000D02*
X105100000Y-124100000D01*
X104100000Y-133100000D02*
X105100000Y-133100000D01*
%TO.C,JP4*%
X135700000Y-69550000D02*
X135700000Y-68950000D01*
X136400000Y-68250000D02*
X137800000Y-68250000D01*
X137800000Y-70250000D02*
X136400000Y-70250000D01*
X138500000Y-68950000D02*
X138500000Y-69550000D01*
X135700000Y-68950000D02*
G75*
G02*
X136400000Y-68250000I699999J1D01*
G01*
X136400000Y-70250000D02*
G75*
G02*
X135700000Y-69550000I-1J699999D01*
G01*
X137800000Y-68250000D02*
G75*
G02*
X138500000Y-68950000I0J-700000D01*
G01*
X138500000Y-69550000D02*
G75*
G02*
X137800000Y-70250000I-700000J0D01*
G01*
D13*
%TO.C,D16*%
X146950000Y-95800000D02*
X146050000Y-95800000D01*
X146050000Y-94900000D01*
X146950000Y-95800000D01*
G36*
X146950000Y-95800000D02*
G01*
X146050000Y-95800000D01*
X146050000Y-94900000D01*
X146950000Y-95800000D01*
G37*
D12*
%TO.C,Q2*%
X185990000Y-66650000D02*
X185990000Y-67300000D01*
X185990000Y-67950000D02*
X185990000Y-67300000D01*
X189110000Y-66650000D02*
X189110000Y-67300000D01*
X189110000Y-67950000D02*
X189110000Y-67300000D01*
X189390000Y-68702500D02*
X189060000Y-68462500D01*
X189390000Y-68222500D01*
X189390000Y-68702500D01*
G36*
X189390000Y-68702500D02*
G01*
X189060000Y-68462500D01*
X189390000Y-68222500D01*
X189390000Y-68702500D01*
G37*
%TO.C,R23*%
X182240000Y-114040000D02*
X182240000Y-116900000D01*
X184160000Y-114040000D02*
X182240000Y-114040000D01*
X184160000Y-116900000D02*
X184160000Y-114040000D01*
%TO.C,C38*%
X112990000Y-90892164D02*
X112990000Y-91107836D01*
X113710000Y-90892164D02*
X113710000Y-91107836D01*
%TO.C,TP1*%
X186895000Y-119685000D02*
G75*
G02*
X185495000Y-119685000I-700000J0D01*
G01*
X185495000Y-119685000D02*
G75*
G02*
X186895000Y-119685000I700000J0D01*
G01*
%TO.C,C44*%
X134607836Y-67290000D02*
X134392164Y-67290000D01*
X134607836Y-68010000D02*
X134392164Y-68010000D01*
%TO.C,R42*%
X186220000Y-123153641D02*
X186220000Y-122846359D01*
X186980000Y-123153641D02*
X186980000Y-122846359D01*
%TO.C,R14*%
X109353641Y-100120000D02*
X109046359Y-100120000D01*
X109353641Y-100880000D02*
X109046359Y-100880000D01*
D13*
%TO.C,D14*%
X181650000Y-76300000D02*
X183050000Y-76300000D01*
X183050000Y-74500000D02*
X181650000Y-74500000D01*
X183050000Y-76300000D02*
X183050000Y-74500000D01*
D12*
%TO.C,JP1*%
X184700000Y-115500000D02*
X187500000Y-115500000D01*
X184700000Y-117500000D02*
X184700000Y-115500000D01*
X187500000Y-115500000D02*
X187500000Y-117500000D01*
X187500000Y-117500000D02*
X184700000Y-117500000D01*
%TO.C,C79*%
X120590000Y-66140580D02*
X120590000Y-65859420D01*
X121610000Y-66140580D02*
X121610000Y-65859420D01*
%TO.C,Q1*%
X160550000Y-66840000D02*
X161200000Y-66840000D01*
X160550000Y-69960000D02*
X161200000Y-69960000D01*
X161850000Y-66840000D02*
X161200000Y-66840000D01*
X161850000Y-69960000D02*
X161200000Y-69960000D01*
X160277500Y-70240000D02*
X159797500Y-70240000D01*
X160037500Y-69910000D01*
X160277500Y-70240000D01*
G36*
X160277500Y-70240000D02*
G01*
X159797500Y-70240000D01*
X160037500Y-69910000D01*
X160277500Y-70240000D01*
G37*
%TO.C,C42*%
X131440000Y-56592164D02*
X131440000Y-56807836D01*
X132160000Y-56592164D02*
X132160000Y-56807836D01*
%TO.C,D12*%
X151400000Y-67500000D02*
X151400000Y-71400000D01*
X154600000Y-67500000D02*
X151400000Y-67500000D01*
X154600000Y-67500000D02*
X154600000Y-71400000D01*
%TO.C,D11*%
X151400000Y-74500000D02*
X151400000Y-78400000D01*
X154600000Y-74500000D02*
X151400000Y-74500000D01*
X154600000Y-74500000D02*
X154600000Y-78400000D01*
%TO.C,C8*%
X108592164Y-92690000D02*
X108807836Y-92690000D01*
X108592164Y-93410000D02*
X108807836Y-93410000D01*
%TO.C,C82*%
X121642164Y-60740000D02*
X121857836Y-60740000D01*
X121642164Y-61460000D02*
X121857836Y-61460000D01*
%TO.C,R38*%
X102690000Y-90577064D02*
X102690000Y-86222936D01*
X106110000Y-90577064D02*
X106110000Y-86222936D01*
%TO.C,C39*%
X109390000Y-74840000D02*
X109390000Y-80595563D01*
X109390000Y-80595563D02*
X110454437Y-81660000D01*
X111740000Y-74840000D02*
X109390000Y-74840000D01*
X111740000Y-81660000D02*
X110454437Y-81660000D01*
X113860000Y-74840000D02*
X116210000Y-74840000D01*
X113860000Y-81660000D02*
X115145563Y-81660000D01*
X114253750Y-82293750D02*
X115041250Y-82293750D01*
X114647500Y-81900000D02*
X114647500Y-82687500D01*
X116210000Y-74840000D02*
X116210000Y-80595563D01*
X116210000Y-80595563D02*
X115145563Y-81660000D01*
%TO.C,R29*%
X177596359Y-85720000D02*
X177903641Y-85720000D01*
X177596359Y-86480000D02*
X177903641Y-86480000D01*
%TO.C,R13*%
X167340000Y-80427064D02*
X167340000Y-78972936D01*
X169160000Y-80427064D02*
X169160000Y-78972936D01*
%TO.C,C13*%
X163569190Y-118821693D02*
X163721693Y-118669190D01*
X164078307Y-119330810D02*
X164230810Y-119178307D01*
%TO.C,R16*%
X108853641Y-93620000D02*
X108546359Y-93620000D01*
X108853641Y-94380000D02*
X108546359Y-94380000D01*
%TO.C,R70*%
X163220000Y-96753641D02*
X163220000Y-96446359D01*
X163980000Y-96753641D02*
X163980000Y-96446359D01*
%TO.C,R47*%
X137387258Y-112627500D02*
X136912742Y-112627500D01*
X137387258Y-113672500D02*
X136912742Y-113672500D01*
%TO.C,R6*%
X183846359Y-74470000D02*
X184153641Y-74470000D01*
X183846359Y-75230000D02*
X184153641Y-75230000D01*
%TO.C,R66*%
X168346359Y-123670000D02*
X168653641Y-123670000D01*
X168346359Y-124430000D02*
X168653641Y-124430000D01*
%TO.C,R44*%
X119720000Y-137646359D02*
X119720000Y-137953641D01*
X120480000Y-137646359D02*
X120480000Y-137953641D01*
%TO.C,R9*%
X118353641Y-142020000D02*
X118046359Y-142020000D01*
X118353641Y-142780000D02*
X118046359Y-142780000D01*
%TO.C,R78*%
X143172936Y-117340000D02*
X144627064Y-117340000D01*
X143172936Y-119160000D02*
X144627064Y-119160000D01*
%TO.C,C6*%
X145090000Y-141240580D02*
X145090000Y-140959420D01*
X146110000Y-141240580D02*
X146110000Y-140959420D01*
%TO.C,R46*%
X188090000Y-142627064D02*
X188090000Y-141172936D01*
X189910000Y-142627064D02*
X189910000Y-141172936D01*
%TO.C,FB2*%
X128587221Y-93140000D02*
X128912779Y-93140000D01*
X128587221Y-94160000D02*
X128912779Y-94160000D01*
D11*
%TO.C,U7*%
X180125000Y-143980000D02*
X181525000Y-143980000D01*
X181525000Y-139120000D02*
X181525000Y-138975000D01*
X181525000Y-143980000D02*
X181525000Y-144125000D01*
X185675000Y-138975000D02*
X181525000Y-138975000D01*
X185675000Y-139120000D02*
X185675000Y-138975000D01*
X185675000Y-143980000D02*
X185675000Y-144125000D01*
X185675000Y-144125000D02*
X181525000Y-144125000D01*
D12*
%TO.C,C4*%
X135911252Y-110665000D02*
X135388748Y-110665000D01*
X135911252Y-112135000D02*
X135388748Y-112135000D01*
%TO.C,C51*%
X111490000Y-89809420D02*
X111490000Y-90090580D01*
X112510000Y-89809420D02*
X112510000Y-90090580D01*
%TO.C,R5*%
X189346359Y-138570000D02*
X189653641Y-138570000D01*
X189346359Y-139330000D02*
X189653641Y-139330000D01*
%TD*%
D14*
%TO.C,J14*%
X190975000Y-104000000D03*
X196975000Y-104000000D03*
%TD*%
%TO.C,J16*%
X190975000Y-115000000D03*
X196975000Y-115000000D03*
%TD*%
%TO.C,J3*%
X190975000Y-93000000D03*
X196975000Y-93000000D03*
%TD*%
%LPC*%
D15*
%TO.C,J12*%
X111600000Y-148380000D03*
D16*
X111600000Y-145840000D03*
X111600000Y-143300000D03*
X111600000Y-140760000D03*
X111600000Y-138220000D03*
X111600000Y-135680000D03*
X111600000Y-133140000D03*
X111600000Y-130600000D03*
%TD*%
D15*
%TO.C,J10*%
X114800000Y-110600000D03*
D16*
X114800000Y-113140000D03*
X114800000Y-115680000D03*
X114800000Y-118220000D03*
X114800000Y-120760000D03*
X114800000Y-123300000D03*
%TD*%
D17*
%TO.C,J9*%
X118457500Y-57700000D03*
D18*
X118457500Y-63700000D03*
D19*
X113757500Y-60700000D03*
%TD*%
D20*
%TO.C,J27*%
X108005000Y-110950000D03*
X108005000Y-114450000D03*
X108005000Y-117950000D03*
X108005000Y-121450000D03*
%TD*%
D21*
%TO.C,J34*%
X120900000Y-95600000D03*
D16*
X120900000Y-93060000D03*
X123440000Y-95600000D03*
X123440000Y-93060000D03*
X125980000Y-95600000D03*
X125980000Y-93060000D03*
%TD*%
D22*
%TO.C,R32*%
X174800000Y-86400000D03*
X171400000Y-86400000D03*
%TD*%
D23*
%TO.C,U13*%
X181850000Y-124000000D03*
D24*
X183120000Y-121930000D03*
X184390000Y-124000000D03*
%TD*%
D20*
%TO.C,J1*%
X108005000Y-95550000D03*
X108005000Y-99050000D03*
X108005000Y-102550000D03*
X108005000Y-106050000D03*
%TD*%
D25*
%TO.C,J18*%
X191995000Y-89150000D03*
X191995000Y-85650000D03*
X191995000Y-82150000D03*
X191995000Y-78650000D03*
%TD*%
%TO.C,J15*%
X192000000Y-147550000D03*
X192000000Y-144050000D03*
X192000000Y-140550000D03*
X192000000Y-137050000D03*
%TD*%
D20*
%TO.C,J2*%
X108005000Y-137050000D03*
X108005000Y-140550000D03*
X108005000Y-144050000D03*
X108005000Y-147550000D03*
%TD*%
D26*
%TO.C,M1*%
X162540000Y-51500000D03*
D27*
X162540000Y-54040000D03*
X162540000Y-56580000D03*
X162540000Y-59120000D03*
X162540000Y-61660000D03*
X162540000Y-64200000D03*
X182860000Y-64200000D03*
X182860000Y-61660000D03*
X182860000Y-59120000D03*
X182860000Y-56580000D03*
X182860000Y-54040000D03*
X182860000Y-51500000D03*
%TD*%
D15*
%TO.C,J19*%
X111200000Y-123300000D03*
D16*
X111200000Y-120760000D03*
X111200000Y-118220000D03*
X111200000Y-115680000D03*
X111200000Y-113140000D03*
X111200000Y-110600000D03*
%TD*%
D15*
%TO.C,J20*%
X115200000Y-130680000D03*
D16*
X115200000Y-133220000D03*
X115200000Y-135760000D03*
X115200000Y-138300000D03*
X115200000Y-140840000D03*
X115200000Y-143380000D03*
X115200000Y-145920000D03*
X115200000Y-148460000D03*
%TD*%
D15*
%TO.C,J4*%
X115000000Y-104700000D03*
D16*
X115000000Y-102160000D03*
X115000000Y-99620000D03*
X115000000Y-97080000D03*
%TD*%
D28*
%TO.C,X3*%
X164880000Y-68300000D03*
X167420000Y-68300000D03*
X169960000Y-68300000D03*
X172500000Y-68300000D03*
X175040000Y-68300000D03*
X177580000Y-68300000D03*
X180120000Y-68300000D03*
%TD*%
D20*
%TO.C,J22*%
X108005000Y-52450000D03*
X108005000Y-55950000D03*
X108005000Y-59450000D03*
X108005000Y-62950000D03*
%TD*%
D15*
%TO.C,U15*%
X168875000Y-62489500D03*
D29*
X168875000Y-59949500D03*
X171415000Y-62489500D03*
X171415000Y-59949500D03*
X173955000Y-62489500D03*
X173955000Y-59949500D03*
X176495000Y-62489500D03*
X176495000Y-59949500D03*
%TD*%
D30*
%TO.C,U6*%
X165792500Y-51492500D03*
D31*
X165792500Y-53492500D03*
X165792500Y-55492500D03*
X165792500Y-57492500D03*
X165792500Y-59492500D03*
X165792500Y-61492500D03*
X165792500Y-63492500D03*
X165792500Y-65492500D03*
X179392500Y-65492500D03*
X179392500Y-63492500D03*
X179392500Y-61492500D03*
X179392500Y-59492500D03*
X179392500Y-57492500D03*
X179392500Y-55492500D03*
X179392500Y-53492500D03*
X179392500Y-51492500D03*
%TD*%
D14*
%TO.C,MK1*%
X186650000Y-115000000D03*
X184750000Y-115000000D03*
%TD*%
%TO.C,SW6*%
X175100000Y-114261000D03*
X170600000Y-114261000D03*
%TD*%
D25*
%TO.C,J24*%
X191995000Y-73750000D03*
X191995000Y-70250000D03*
X191995000Y-66750000D03*
X191995000Y-63250000D03*
%TD*%
D15*
%TO.C,J23*%
X123700000Y-105900000D03*
D16*
X126240000Y-105900000D03*
X128780000Y-105900000D03*
X131320000Y-105900000D03*
X133860000Y-105900000D03*
X136400000Y-105900000D03*
%TD*%
D32*
%TO.C,X1*%
X125000000Y-142755000D03*
X175000000Y-142755000D03*
%TD*%
D33*
%TO.C,J8*%
X129050000Y-99900000D03*
D16*
X131590000Y-99900000D03*
X134130000Y-99900000D03*
X136670000Y-99900000D03*
%TD*%
D20*
%TO.C,J28*%
X108005000Y-80150000D03*
X108005000Y-83650000D03*
X108005000Y-87150000D03*
X108005000Y-90650000D03*
%TD*%
D25*
%TO.C,J21*%
X192000000Y-132150000D03*
X192000000Y-128650000D03*
X192000000Y-125150000D03*
X192000000Y-121650000D03*
%TD*%
D34*
%TO.C,U22*%
X175165869Y-79767990D03*
D35*
X176023080Y-77698500D03*
X175167990Y-75634131D03*
X171034131Y-75632010D03*
X170176920Y-77701500D03*
X171032010Y-79765869D03*
%TD*%
D36*
%TO.C,R63*%
X124576274Y-85923726D03*
X124123726Y-86376274D03*
%TD*%
D37*
%TO.C,Q4*%
X177362500Y-84800000D03*
X177362500Y-82900000D03*
X179237500Y-83850000D03*
%TD*%
D38*
%TO.C,C32*%
X127820000Y-92000000D03*
X127180000Y-92000000D03*
%TD*%
D39*
%TO.C,C43*%
X134980000Y-68600000D03*
X134020000Y-68600000D03*
%TD*%
D40*
%TO.C,C19*%
X180000000Y-109850000D03*
X185600000Y-109850000D03*
%TD*%
D41*
%TO.C,R7*%
X118125000Y-119400000D03*
X119775000Y-119400000D03*
%TD*%
D42*
%TO.C,Q6*%
X144250000Y-122237500D03*
X142350000Y-122237500D03*
X143300000Y-120362500D03*
%TD*%
D43*
%TO.C,R33*%
X127750000Y-53800000D03*
X172250000Y-53800000D03*
D44*
X110300000Y-63800000D03*
X189700000Y-63800000D03*
%TD*%
D45*
%TO.C,R49*%
X104850000Y-100900000D03*
X104850000Y-102900000D03*
%TD*%
D46*
%TO.C,R45*%
X155300000Y-82980000D03*
X155300000Y-83620000D03*
%TD*%
D47*
%TO.C,SW3*%
X196930000Y-142700000D03*
X196930000Y-145700000D03*
D48*
X194920000Y-141950000D03*
X194920000Y-144950000D03*
X194920000Y-146450000D03*
D49*
X198030000Y-140050000D03*
X195820000Y-140050000D03*
X198030000Y-148350000D03*
X195820000Y-148350000D03*
%TD*%
D50*
%TO.C,C84*%
X114575000Y-66850000D03*
X113025000Y-66850000D03*
%TD*%
D51*
%TO.C,C14*%
X171610589Y-116710589D03*
X172289411Y-117389411D03*
%TD*%
D38*
%TO.C,R60*%
X122870000Y-62000000D03*
X122230000Y-62000000D03*
%TD*%
D52*
%TO.C,C10*%
X110900000Y-104720000D03*
X110900000Y-105680000D03*
%TD*%
D53*
%TO.C,R69*%
X124360000Y-88900000D03*
X123340000Y-88900000D03*
%TD*%
D54*
%TO.C,R68*%
X123130000Y-89750000D03*
X123770000Y-89750000D03*
%TD*%
D55*
%TO.C,TP6*%
X183655000Y-119685000D03*
%TD*%
%TO.C,J17*%
X141500000Y-138725000D03*
X133500000Y-138725000D03*
D56*
X134300000Y-127725000D03*
X135400000Y-127725000D03*
X136500000Y-127725000D03*
X137600000Y-127725000D03*
X138700000Y-127725000D03*
X139800000Y-127725000D03*
X140900000Y-127725000D03*
X142000000Y-127725000D03*
X143100000Y-127725000D03*
D57*
X144300000Y-138325000D03*
D58*
X144300000Y-128725000D03*
D59*
X129700000Y-128725000D03*
D57*
X128800000Y-138325000D03*
%TD*%
D60*
%TO.C,C17*%
X172550000Y-107200000D03*
X175250000Y-107200000D03*
%TD*%
D61*
%TO.C,C12*%
X163539411Y-117960589D03*
X162860589Y-118639411D03*
%TD*%
D54*
%TO.C,R59*%
X121430000Y-60250000D03*
X122070000Y-60250000D03*
%TD*%
D62*
%TO.C,L4*%
X115675000Y-71100000D03*
X122725000Y-71100000D03*
%TD*%
D47*
%TO.C,SW2*%
X196900000Y-131700000D03*
X196900000Y-134700000D03*
D48*
X194890000Y-130950000D03*
X194890000Y-133950000D03*
X194890000Y-135450000D03*
D49*
X198000000Y-129050000D03*
X195790000Y-129050000D03*
X198000000Y-137350000D03*
X195790000Y-137350000D03*
%TD*%
D63*
%TO.C,SW5*%
X126650000Y-124250000D03*
X135150000Y-124250000D03*
X126650000Y-119750000D03*
X135150000Y-119750000D03*
%TD*%
D64*
%TO.C,D21*%
X157650000Y-89150000D03*
X156150000Y-89150000D03*
X156150000Y-94550000D03*
X157650000Y-94550000D03*
%TD*%
D65*
%TO.C,C28*%
X131950000Y-110125000D03*
X131950000Y-111675000D03*
%TD*%
D66*
%TO.C,C52*%
X110500000Y-90725000D03*
X110500000Y-89175000D03*
%TD*%
D46*
%TO.C,C50*%
X139700000Y-90080000D03*
X139700000Y-90720000D03*
%TD*%
D67*
%TO.C,C36*%
X137195000Y-79725000D03*
X138155000Y-79725000D03*
%TD*%
D68*
%TO.C,C1*%
X139650000Y-113150000D03*
X139650000Y-111250000D03*
%TD*%
D38*
%TO.C,C54*%
X118420000Y-133350000D03*
X117780000Y-133350000D03*
%TD*%
D69*
%TO.C,C25*%
X140350000Y-76570000D03*
X140350000Y-75930000D03*
%TD*%
D41*
%TO.C,R3*%
X138025000Y-114650000D03*
X139675000Y-114650000D03*
%TD*%
D54*
%TO.C,R18*%
X109080000Y-129850000D03*
X109720000Y-129850000D03*
%TD*%
D70*
%TO.C,LS2*%
X154000000Y-97800000D03*
X150000000Y-97800000D03*
X146000000Y-97800000D03*
X156000000Y-99050000D03*
X152000000Y-99050000D03*
X148000000Y-99050000D03*
X144000000Y-99050000D03*
X158000000Y-100300000D03*
X154000000Y-100300000D03*
X150000000Y-100300000D03*
X146000000Y-100300000D03*
X142000000Y-100300000D03*
X156000000Y-101550000D03*
X152000000Y-101550000D03*
X148000000Y-101550000D03*
X144000000Y-101550000D03*
X158000000Y-102800000D03*
X154000000Y-102800000D03*
X150000000Y-102800000D03*
X146000000Y-102800000D03*
X142000000Y-102800000D03*
X156000000Y-104050000D03*
X152000000Y-104050000D03*
X148000000Y-104050000D03*
X144000000Y-104050000D03*
X158000000Y-105300000D03*
X154000000Y-105300000D03*
X150000000Y-105300000D03*
X146000000Y-105300000D03*
X142000000Y-105300000D03*
X156000000Y-106550000D03*
X152000000Y-106550000D03*
X148000000Y-106550000D03*
X144000000Y-106550000D03*
X154000000Y-107800000D03*
X150000000Y-107800000D03*
X146000000Y-107800000D03*
%TD*%
D71*
%TO.C,D20*%
X159450000Y-88900000D03*
X161550000Y-88900000D03*
%TD*%
D69*
%TO.C,C45*%
X158500000Y-89520000D03*
X158500000Y-88880000D03*
%TD*%
D54*
%TO.C,R54*%
X185130000Y-118300000D03*
X185770000Y-118300000D03*
%TD*%
D72*
%TO.C,D19*%
X122200000Y-76650000D03*
X118400000Y-76650000D03*
%TD*%
D73*
%TO.C,SW7*%
X175350000Y-103250000D03*
X175350000Y-94750000D03*
X170850000Y-103250000D03*
X170850000Y-94750000D03*
%TD*%
D46*
%TO.C,R55*%
X192000000Y-109880000D03*
X192000000Y-110520000D03*
%TD*%
D14*
%TO.C,J14*%
X190975000Y-104000000D03*
X196975000Y-104000000D03*
D74*
X194575000Y-100500000D03*
X197275000Y-107500000D03*
X198275000Y-100500000D03*
X190275000Y-107500000D03*
X188575000Y-100500000D03*
%TD*%
D75*
%TO.C,U2*%
X134425000Y-113195000D03*
X134425000Y-114465000D03*
X134425000Y-115735000D03*
X134425000Y-117005000D03*
X129475000Y-117005000D03*
X129475000Y-115735000D03*
X129475000Y-114465000D03*
X129475000Y-113195000D03*
D76*
X131950000Y-115100000D03*
%TD*%
D77*
%TO.C,C29*%
X118175000Y-120900000D03*
X119725000Y-120900000D03*
%TD*%
D78*
%TO.C,U8*%
X119937500Y-123450000D03*
X119937500Y-124400000D03*
X119937500Y-125350000D03*
X117662500Y-125350000D03*
X117662500Y-124400000D03*
X117662500Y-123450000D03*
%TD*%
D79*
%TO.C,D13*%
X179250000Y-79450000D03*
X179250000Y-81550000D03*
%TD*%
D80*
%TO.C,R73*%
X112810624Y-125439376D03*
X112089376Y-126160624D03*
%TD*%
D81*
%TO.C,LS1*%
X151975000Y-111325000D03*
X151975000Y-114375000D03*
%TD*%
D54*
%TO.C,C35*%
X139705000Y-82475000D03*
X140345000Y-82475000D03*
%TD*%
D82*
%TO.C,J26*%
X155340000Y-65362500D03*
X155340000Y-59912500D03*
X152780000Y-65362500D03*
X152780000Y-59912500D03*
X150180000Y-65362500D03*
X150180000Y-59912500D03*
X147640000Y-65362500D03*
X147640000Y-59912500D03*
X145100000Y-65362500D03*
X145100000Y-59912500D03*
X142560000Y-65362500D03*
X142560000Y-59912500D03*
X140020000Y-65362500D03*
X140020000Y-59912500D03*
X137420000Y-65362500D03*
X137420000Y-59912500D03*
X134860000Y-65362500D03*
X134860000Y-59912500D03*
%TD*%
D38*
%TO.C,C47*%
X150420000Y-88750000D03*
X149780000Y-88750000D03*
%TD*%
D83*
%TO.C,C80*%
X117700001Y-66500000D03*
X119599999Y-66500000D03*
%TD*%
D46*
%TO.C,C60*%
X170900000Y-73080000D03*
X170900000Y-73720000D03*
%TD*%
D84*
%TO.C,J13*%
X106350000Y-74740000D03*
X106350000Y-68960000D03*
D85*
X107600000Y-75050000D03*
X107550000Y-74250000D03*
D86*
X107550000Y-73100000D03*
X107550000Y-72100000D03*
X107550000Y-71600000D03*
X107550000Y-70600000D03*
D85*
X107550000Y-69450000D03*
X107600000Y-68650000D03*
X107600000Y-68650000D03*
X107550000Y-69450000D03*
D86*
X107550000Y-70100000D03*
X107550000Y-71100000D03*
X107550000Y-72600000D03*
X107550000Y-73600000D03*
D85*
X107550000Y-74250000D03*
X107600000Y-75050000D03*
D87*
X102650000Y-76670000D03*
D88*
X106830000Y-76670000D03*
D87*
X102650000Y-67030000D03*
D88*
X106830000Y-67030000D03*
%TD*%
D41*
%TO.C,R28*%
X118125000Y-117850000D03*
X119775000Y-117850000D03*
%TD*%
D38*
%TO.C,C26*%
X138270000Y-126500000D03*
X137630000Y-126500000D03*
%TD*%
D65*
%TO.C,C31*%
X130450000Y-110125000D03*
X130450000Y-111675000D03*
%TD*%
D89*
%TO.C,U10*%
X170869848Y-118194975D03*
X170516295Y-118548528D03*
X170162742Y-118902082D03*
X169809188Y-119255635D03*
X169455635Y-119609188D03*
X169102082Y-119962742D03*
X168748528Y-120316295D03*
X168394975Y-120669848D03*
D90*
X167405025Y-120669848D03*
X167051472Y-120316295D03*
X166697918Y-119962742D03*
X166344365Y-119609188D03*
X165990812Y-119255635D03*
X165637258Y-118902082D03*
X165283705Y-118548528D03*
X164930152Y-118194975D03*
D89*
X164930152Y-117205025D03*
X165283705Y-116851472D03*
X165637258Y-116497918D03*
X165990812Y-116144365D03*
X166344365Y-115790812D03*
X166697918Y-115437258D03*
X167051472Y-115083705D03*
X167405025Y-114730152D03*
D90*
X168394975Y-114730152D03*
X168748528Y-115083705D03*
X169102082Y-115437258D03*
X169455635Y-115790812D03*
X169809188Y-116144365D03*
X170162742Y-116497918D03*
X170516295Y-116851472D03*
X170869848Y-117205025D03*
D91*
X167900000Y-117700000D03*
%TD*%
D38*
%TO.C,C53*%
X175420000Y-137000000D03*
X174780000Y-137000000D03*
%TD*%
D92*
%TO.C,FB1*%
X172593153Y-116006847D03*
X173706847Y-114893153D03*
%TD*%
D46*
%TO.C,C27*%
X145050000Y-114205000D03*
X145050000Y-114845000D03*
%TD*%
D93*
%TO.C,C20*%
X181000000Y-118300000D03*
X178300000Y-118300000D03*
%TD*%
D39*
%TO.C,C59*%
X169080000Y-58400000D03*
X168120000Y-58400000D03*
%TD*%
D93*
%TO.C,C23*%
X181000000Y-116150000D03*
X178300000Y-116150000D03*
%TD*%
D46*
%TO.C,R58*%
X145700000Y-130530000D03*
X145700000Y-131170000D03*
%TD*%
D50*
%TO.C,C56*%
X118575000Y-144200000D03*
X117025000Y-144200000D03*
%TD*%
D38*
%TO.C,C48*%
X145820000Y-88750000D03*
X145180000Y-88750000D03*
%TD*%
D67*
%TO.C,C22*%
X177220000Y-113400000D03*
X178180000Y-113400000D03*
%TD*%
D53*
%TO.C,R35*%
X155310000Y-84525000D03*
X154290000Y-84525000D03*
%TD*%
D94*
%TO.C,D3*%
X187750000Y-145600000D03*
X189650000Y-145600000D03*
X188700000Y-148600000D03*
%TD*%
D60*
%TO.C,C16*%
X171050000Y-109800000D03*
X173750000Y-109800000D03*
%TD*%
D38*
%TO.C,R39*%
X170820000Y-90825000D03*
X170180000Y-90825000D03*
%TD*%
D50*
%TO.C,C83*%
X114575000Y-68350000D03*
X113025000Y-68350000D03*
%TD*%
D95*
%TO.C,C15*%
X168650000Y-113730000D03*
X168650000Y-112770000D03*
%TD*%
D69*
%TO.C,R75*%
X145450000Y-122220000D03*
X145450000Y-121580000D03*
%TD*%
D96*
%TO.C,C24*%
X166400000Y-106750000D03*
X166400000Y-109450000D03*
%TD*%
D97*
%TO.C,R15*%
X165950000Y-78237500D03*
X165950000Y-81162500D03*
%TD*%
D98*
%TO.C,U27*%
X124600000Y-66450000D03*
X123650000Y-66450000D03*
X122700000Y-66450000D03*
X122700000Y-63750000D03*
X123650000Y-63750000D03*
X124600000Y-63750000D03*
%TD*%
D53*
%TO.C,R74*%
X144310000Y-123700000D03*
X143290000Y-123700000D03*
%TD*%
D99*
%TO.C,R10*%
X108990000Y-103800000D03*
X110010000Y-103800000D03*
%TD*%
D65*
%TO.C,C30*%
X128950000Y-110125000D03*
X128950000Y-111675000D03*
%TD*%
D100*
%TO.C,U12*%
X118700000Y-149000000D03*
X118700000Y-148000000D03*
X118700000Y-147000000D03*
X120700000Y-147000000D03*
X120700000Y-148000000D03*
X120700000Y-149000000D03*
%TD*%
D46*
%TO.C,R65*%
X140400000Y-72280000D03*
X140400000Y-72920000D03*
%TD*%
D101*
%TO.C,D8*%
X147000000Y-71300000D03*
D102*
X147000000Y-68250000D03*
%TD*%
D46*
%TO.C,R62*%
X152350000Y-116780000D03*
X152350000Y-117420000D03*
%TD*%
D103*
%TO.C,U1*%
X180600000Y-137830000D03*
X180600000Y-136560000D03*
X180600000Y-135290000D03*
X180600000Y-134020000D03*
X186600000Y-134020000D03*
X186600000Y-135290000D03*
X186600000Y-136560000D03*
X186600000Y-137830000D03*
%TD*%
D64*
%TO.C,D15*%
X153044201Y-89150000D03*
X151544201Y-89150000D03*
X151544201Y-94550000D03*
X153044201Y-94550000D03*
%TD*%
D104*
%TO.C,U18*%
X110840000Y-124900000D03*
X110840000Y-125400000D03*
X110840000Y-125900000D03*
X110840000Y-126400000D03*
X109360000Y-126400000D03*
X109360000Y-125900000D03*
X109360000Y-125400000D03*
X109360000Y-124900000D03*
%TD*%
D54*
%TO.C,C49*%
X130880000Y-93250000D03*
X131520000Y-93250000D03*
%TD*%
D84*
%TO.C,J29*%
X193632500Y-53260000D03*
X193632500Y-59040000D03*
D85*
X192382500Y-52950000D03*
X192432500Y-53750000D03*
D86*
X192432500Y-54900000D03*
X192432500Y-55900000D03*
X192432500Y-56400000D03*
X192432500Y-57400000D03*
D85*
X192432500Y-58550000D03*
X192382500Y-59350000D03*
X192382500Y-59350000D03*
X192432500Y-58550000D03*
D86*
X192432500Y-57900000D03*
X192432500Y-56900000D03*
X192432500Y-55400000D03*
X192432500Y-54400000D03*
D85*
X192432500Y-53750000D03*
X192382500Y-52950000D03*
D87*
X197332500Y-51330000D03*
D88*
X193152500Y-51330000D03*
D87*
X197332500Y-60970000D03*
D88*
X193152500Y-60970000D03*
%TD*%
D73*
%TO.C,SW8*%
X175350000Y-133250000D03*
X175350000Y-124750000D03*
X170850000Y-133250000D03*
X170850000Y-124750000D03*
%TD*%
D14*
%TO.C,J16*%
X190975000Y-115000000D03*
X196975000Y-115000000D03*
D74*
X194575000Y-111500000D03*
X197275000Y-118500000D03*
X198275000Y-111500000D03*
X190275000Y-118500000D03*
X188575000Y-111500000D03*
%TD*%
D105*
%TO.C,J11*%
X105300000Y-143700000D03*
X105300000Y-142700000D03*
X105300000Y-141700000D03*
X105300000Y-140700000D03*
D106*
X101425000Y-145000000D03*
X101425000Y-139400000D03*
%TD*%
D107*
%TO.C,U9*%
X117237500Y-136100000D03*
X117237500Y-135600000D03*
X117237500Y-135100000D03*
X117237500Y-134600000D03*
D108*
X117900000Y-134437500D03*
X118400000Y-134437500D03*
X118900000Y-134437500D03*
D107*
X119562500Y-134600000D03*
X119562500Y-135100000D03*
X119562500Y-135600000D03*
X119562500Y-136100000D03*
D108*
X118900000Y-136262500D03*
X118400000Y-136262500D03*
X117900000Y-136262500D03*
%TD*%
D101*
%TO.C,D9*%
X147000000Y-78300000D03*
D102*
X147000000Y-75250000D03*
%TD*%
D109*
%TO.C,J6*%
X167800000Y-138870000D03*
X172300000Y-138870000D03*
X167800000Y-137600000D03*
X172300000Y-137600000D03*
X167800000Y-136330000D03*
X172300000Y-136330000D03*
%TD*%
D110*
%TO.C,JP3*%
X167250000Y-127400000D03*
D111*
X167250000Y-128700000D03*
%TD*%
D36*
%TO.C,C65*%
X165376274Y-119723726D03*
X164923726Y-120176274D03*
%TD*%
D112*
%TO.C,SW1*%
X181400000Y-147050000D03*
X183100000Y-147050000D03*
D113*
X180550000Y-145350000D03*
X183950000Y-145350000D03*
D114*
X179550000Y-147650000D03*
X184950000Y-147650000D03*
%TD*%
D115*
%TO.C,U4*%
X147450000Y-141120000D03*
X147450000Y-139850000D03*
X147450000Y-138580000D03*
X147450000Y-137310000D03*
X147450000Y-136040000D03*
X147450000Y-134770000D03*
X147450000Y-133500000D03*
X147450000Y-132230000D03*
X147450000Y-130960000D03*
X147450000Y-129690000D03*
X147450000Y-128420000D03*
X147450000Y-127150000D03*
X147450000Y-125880000D03*
X147450000Y-124610000D03*
D116*
X149215000Y-123360000D03*
X150485000Y-123360000D03*
X151755000Y-123360000D03*
X153025000Y-123360000D03*
X154295000Y-123360000D03*
X155565000Y-123360000D03*
X156835000Y-123360000D03*
X158105000Y-123360000D03*
X159375000Y-123360000D03*
X160645000Y-123360000D03*
X161915000Y-123360000D03*
X163185000Y-123360000D03*
D115*
X164950000Y-124610000D03*
X164950000Y-125880000D03*
X164950000Y-127150000D03*
X164950000Y-128420000D03*
X164950000Y-129690000D03*
X164950000Y-130960000D03*
X164950000Y-132230000D03*
X164950000Y-133500000D03*
X164950000Y-134770000D03*
X164950000Y-136040000D03*
X164950000Y-137310000D03*
X164950000Y-138580000D03*
X164950000Y-139850000D03*
X164950000Y-141120000D03*
D117*
X153300000Y-132000000D03*
X153300000Y-132000000D03*
X153300000Y-133400000D03*
X153300000Y-134800000D03*
X154700000Y-132000000D03*
X154700000Y-133400000D03*
X154700000Y-134800000D03*
X154700000Y-134800000D03*
X156100000Y-132000000D03*
X156100000Y-133400000D03*
X156100000Y-134800000D03*
%TD*%
D118*
%TO.C,R43*%
X109900000Y-141690000D03*
X109900000Y-142710000D03*
%TD*%
D50*
%TO.C,C64*%
X104275000Y-114550000D03*
X102725000Y-114550000D03*
%TD*%
D118*
%TO.C,R30*%
X187800000Y-71990000D03*
X187800000Y-73010000D03*
%TD*%
D40*
%TO.C,C18*%
X179800000Y-102700000D03*
X185400000Y-102700000D03*
%TD*%
D119*
%TO.C,L1*%
X126525000Y-113450000D03*
X119475000Y-113450000D03*
%TD*%
D120*
%TO.C,J7*%
X164700000Y-84450000D03*
D121*
X162200000Y-84450000D03*
%TD*%
D38*
%TO.C,R22*%
X177820000Y-57500000D03*
X177180000Y-57500000D03*
%TD*%
D122*
%TO.C,R52*%
X102900000Y-104700000D03*
X104900000Y-104700000D03*
%TD*%
D54*
%TO.C,C34*%
X137155000Y-80550000D03*
X137795000Y-80550000D03*
%TD*%
D46*
%TO.C,R37*%
X167200000Y-101080000D03*
X167200000Y-101720000D03*
%TD*%
D123*
%TO.C,U5*%
X138275000Y-82425000D03*
X138275000Y-82925000D03*
X138275000Y-83425000D03*
X138275000Y-83925000D03*
X138275000Y-84425000D03*
X138275000Y-84925000D03*
X138275000Y-85425000D03*
X138275000Y-85925000D03*
X138275000Y-86425000D03*
X138275000Y-86925000D03*
X138275000Y-87425000D03*
X138275000Y-87925000D03*
X138275000Y-88425000D03*
X138275000Y-88925000D03*
X138275000Y-89425000D03*
X138275000Y-89925000D03*
D124*
X136350000Y-91850000D03*
X135850000Y-91850000D03*
X135350000Y-91850000D03*
X134850000Y-91850000D03*
X134350000Y-91850000D03*
X133850000Y-91850000D03*
X133350000Y-91850000D03*
X132850000Y-91850000D03*
X132350000Y-91850000D03*
X131850000Y-91850000D03*
X131350000Y-91850000D03*
X130850000Y-91850000D03*
X130350000Y-91850000D03*
X129850000Y-91850000D03*
X129350000Y-91850000D03*
X128850000Y-91850000D03*
D123*
X126925000Y-89925000D03*
X126925000Y-89425000D03*
X126925000Y-88925000D03*
X126925000Y-88425000D03*
X126925000Y-87925000D03*
X126925000Y-87425000D03*
X126925000Y-86925000D03*
X126925000Y-86425000D03*
X126925000Y-85925000D03*
X126925000Y-85425000D03*
X126925000Y-84925000D03*
X126925000Y-84425000D03*
X126925000Y-83925000D03*
X126925000Y-83425000D03*
X126925000Y-82925000D03*
X126925000Y-82425000D03*
D124*
X128850000Y-80500000D03*
X129350000Y-80500000D03*
X129850000Y-80500000D03*
X130350000Y-80500000D03*
X130850000Y-80500000D03*
X131350000Y-80500000D03*
X131850000Y-80500000D03*
X132350000Y-80500000D03*
X132850000Y-80500000D03*
X133350000Y-80500000D03*
X133850000Y-80500000D03*
X134350000Y-80500000D03*
X134850000Y-80500000D03*
X135350000Y-80500000D03*
X135850000Y-80500000D03*
X136350000Y-80500000D03*
%TD*%
D14*
%TO.C,J3*%
X190975000Y-93000000D03*
X196975000Y-93000000D03*
D74*
X194575000Y-89500000D03*
X197275000Y-96500000D03*
X198275000Y-89500000D03*
X190275000Y-96500000D03*
X188575000Y-89500000D03*
%TD*%
D99*
%TO.C,R40*%
X168390000Y-132000000D03*
X169410000Y-132000000D03*
%TD*%
D125*
%TO.C,U16*%
X102595000Y-107625000D03*
X103865000Y-107625000D03*
X105135000Y-107625000D03*
X106405000Y-107625000D03*
X106405000Y-112575000D03*
X105135000Y-112575000D03*
X103865000Y-112575000D03*
X102595000Y-112575000D03*
%TD*%
D67*
%TO.C,C37*%
X130670000Y-94100000D03*
X131630000Y-94100000D03*
%TD*%
D126*
%TO.C,BT1*%
X124390000Y-127600000D03*
X180000000Y-127600000D03*
D127*
X115745000Y-127600000D03*
D128*
X187745000Y-127600000D03*
%TD*%
D118*
%TO.C,R8*%
X190650000Y-134240000D03*
X190650000Y-135260000D03*
%TD*%
D129*
%TO.C,Q3*%
X168840000Y-71570000D03*
D130*
X162540000Y-73850000D03*
D129*
X168840000Y-76130000D03*
%TD*%
D67*
%TO.C,C61*%
X122020000Y-82700000D03*
X122980000Y-82700000D03*
%TD*%
D131*
%TO.C,R12*%
X157600000Y-60000000D03*
X157600000Y-58980000D03*
%TD*%
D96*
%TO.C,C62*%
X168800000Y-105950000D03*
X168800000Y-108650000D03*
%TD*%
D46*
%TO.C,R53*%
X177050000Y-74780000D03*
X177050000Y-75420000D03*
%TD*%
D54*
%TO.C,R61*%
X132580000Y-126950000D03*
X133220000Y-126950000D03*
%TD*%
D38*
%TO.C,C5*%
X172720000Y-147000000D03*
X172080000Y-147000000D03*
%TD*%
D52*
%TO.C,C9*%
X110600000Y-101420000D03*
X110600000Y-102380000D03*
%TD*%
D54*
%TO.C,R25*%
X186680000Y-118300000D03*
X187320000Y-118300000D03*
%TD*%
D95*
%TO.C,C21*%
X169600000Y-113480000D03*
X169600000Y-112520000D03*
%TD*%
D46*
%TO.C,R4*%
X127900000Y-117680000D03*
X127900000Y-118320000D03*
%TD*%
D37*
%TO.C,Q5*%
X156762500Y-84550000D03*
X156762500Y-82650000D03*
X158637500Y-83600000D03*
%TD*%
D54*
%TO.C,R19*%
X109930000Y-128950000D03*
X110570000Y-128950000D03*
%TD*%
D52*
%TO.C,C41*%
X132800000Y-56220000D03*
X132800000Y-57180000D03*
%TD*%
D65*
%TO.C,C7*%
X121200000Y-117825000D03*
X121200000Y-119375000D03*
%TD*%
D54*
%TO.C,R21*%
X185880000Y-144800000D03*
X186520000Y-144800000D03*
%TD*%
%TO.C,R67*%
X152330000Y-116000000D03*
X152970000Y-116000000D03*
%TD*%
D132*
%TO.C,U11*%
X126800000Y-58950000D03*
X129100000Y-58950000D03*
D133*
X129100000Y-65250000D03*
D132*
X131400000Y-58950000D03*
%TD*%
D46*
%TO.C,R11*%
X171400000Y-88080000D03*
X171400000Y-88720000D03*
%TD*%
D36*
%TO.C,C66*%
X164876274Y-119223726D03*
X164423726Y-119676274D03*
%TD*%
D50*
%TO.C,C63*%
X113125000Y-83800000D03*
X111575000Y-83800000D03*
%TD*%
D134*
%TO.C,D2*%
X186650000Y-130300000D03*
X186650000Y-132200000D03*
X183650000Y-131250000D03*
%TD*%
D135*
%TO.C,R26*%
X164226274Y-116026274D03*
X163773726Y-115573726D03*
%TD*%
D38*
%TO.C,R51*%
X111420000Y-100500000D03*
X110780000Y-100500000D03*
%TD*%
D46*
%TO.C,C33*%
X125500000Y-81480000D03*
X125500000Y-82120000D03*
%TD*%
D118*
%TO.C,R71*%
X140500000Y-73740000D03*
X140500000Y-74760000D03*
%TD*%
D136*
%TO.C,K1*%
X181700000Y-78500000D03*
X184900000Y-78500000D03*
X187100000Y-78500000D03*
X189300000Y-78500000D03*
X189300000Y-85500000D03*
X187100000Y-85500000D03*
X184900000Y-85500000D03*
X181700000Y-85500000D03*
%TD*%
D53*
%TO.C,R48*%
X125010000Y-62000000D03*
X123990000Y-62000000D03*
%TD*%
D69*
%TO.C,C2*%
X145950000Y-139220000D03*
X145950000Y-138580000D03*
%TD*%
D137*
%TO.C,U3*%
X114837500Y-91125000D03*
X114837500Y-90475000D03*
X114837500Y-89825000D03*
X114837500Y-89175000D03*
X114837500Y-88525000D03*
X114837500Y-87875000D03*
X114837500Y-87225000D03*
X114837500Y-86575000D03*
X114837500Y-85925000D03*
X114837500Y-85275000D03*
X114837500Y-84625000D03*
X114837500Y-83975000D03*
X114837500Y-83325000D03*
X114837500Y-82675000D03*
X120562500Y-82675000D03*
X120562500Y-83325000D03*
X120562500Y-83975000D03*
X120562500Y-84625000D03*
X120562500Y-85275000D03*
X120562500Y-85925000D03*
X120562500Y-86575000D03*
X120562500Y-87225000D03*
X120562500Y-87875000D03*
X120562500Y-88525000D03*
X120562500Y-89175000D03*
X120562500Y-89825000D03*
X120562500Y-90475000D03*
X120562500Y-91125000D03*
D138*
X117700000Y-86900000D03*
%TD*%
D53*
%TO.C,R1*%
X177110000Y-147000000D03*
X176090000Y-147000000D03*
%TD*%
D139*
%TO.C,JP5*%
X128450000Y-69250000D03*
D140*
X127150000Y-69250000D03*
%TD*%
D50*
%TO.C,C81*%
X125425000Y-68300000D03*
X123875000Y-68300000D03*
%TD*%
D53*
%TO.C,R24*%
X178210000Y-114400000D03*
X177190000Y-114400000D03*
%TD*%
D141*
%TO.C,J36*%
X138550000Y-72125000D03*
X138550000Y-77165000D03*
X136010000Y-72125000D03*
X136010000Y-77165000D03*
X133470000Y-72125000D03*
X133470000Y-77165000D03*
X130930000Y-72125000D03*
X130930000Y-77165000D03*
X128390000Y-72125000D03*
X128390000Y-77165000D03*
X125850000Y-72125000D03*
X125850000Y-77165000D03*
%TD*%
D142*
%TO.C,U17*%
X160170000Y-62480000D03*
D143*
X158100000Y-63750000D03*
X160170000Y-65020000D03*
%TD*%
D144*
%TO.C,R20*%
X189000000Y-134750000D03*
X189000000Y-131650000D03*
%TD*%
D145*
%TO.C,D10*%
X151300000Y-82700000D03*
D146*
X148250000Y-82700000D03*
%TD*%
D38*
%TO.C,C3*%
X188820000Y-137800000D03*
X188180000Y-137800000D03*
%TD*%
D131*
%TO.C,R34*%
X123550000Y-77285000D03*
X123550000Y-76265000D03*
%TD*%
D64*
%TO.C,D17*%
X143950000Y-89200000D03*
X142450000Y-89200000D03*
X142450000Y-94600000D03*
X143950000Y-94600000D03*
%TD*%
D84*
%TO.C,J5*%
X106400000Y-131490000D03*
X106400000Y-125710000D03*
D85*
X107650000Y-131800000D03*
X107600000Y-131000000D03*
D86*
X107600000Y-129850000D03*
X107600000Y-128850000D03*
X107600000Y-128350000D03*
X107600000Y-127350000D03*
D85*
X107600000Y-126200000D03*
X107650000Y-125400000D03*
X107650000Y-125400000D03*
X107600000Y-126200000D03*
D86*
X107600000Y-126850000D03*
X107600000Y-127850000D03*
X107600000Y-129350000D03*
X107600000Y-130350000D03*
D85*
X107600000Y-131000000D03*
X107650000Y-131800000D03*
D87*
X102700000Y-133420000D03*
D88*
X106880000Y-133420000D03*
D87*
X102700000Y-123780000D03*
D88*
X106880000Y-123780000D03*
%TD*%
D147*
%TO.C,JP4*%
X136450000Y-69250000D03*
D148*
X137750000Y-69250000D03*
%TD*%
D54*
%TO.C,C55*%
X119230000Y-133350000D03*
X119870000Y-133350000D03*
%TD*%
D38*
%TO.C,R64*%
X111720000Y-103800000D03*
X111080000Y-103800000D03*
%TD*%
D64*
%TO.C,D16*%
X148450000Y-89150000D03*
X146950000Y-89150000D03*
X146950000Y-94550000D03*
X148450000Y-94550000D03*
%TD*%
D38*
%TO.C,R41*%
X175420000Y-136300000D03*
X174780000Y-136300000D03*
%TD*%
D42*
%TO.C,Q2*%
X188500000Y-68237500D03*
X186600000Y-68237500D03*
X187550000Y-66362500D03*
%TD*%
D149*
%TO.C,R23*%
X183200000Y-114875000D03*
X183200000Y-116925000D03*
%TD*%
D69*
%TO.C,R36*%
X168000000Y-101720000D03*
X168000000Y-101080000D03*
%TD*%
D95*
%TO.C,C38*%
X113350000Y-91480000D03*
X113350000Y-90520000D03*
%TD*%
D55*
%TO.C,TP1*%
X186195000Y-119685000D03*
%TD*%
D69*
%TO.C,R57*%
X145700000Y-132620000D03*
X145700000Y-131980000D03*
%TD*%
D67*
%TO.C,C44*%
X134020000Y-67650000D03*
X134980000Y-67650000D03*
%TD*%
D118*
%TO.C,R42*%
X186600000Y-122490000D03*
X186600000Y-123510000D03*
%TD*%
D69*
%TO.C,R2*%
X145950000Y-137770000D03*
X145950000Y-137130000D03*
%TD*%
D99*
%TO.C,R14*%
X108690000Y-100500000D03*
X109710000Y-100500000D03*
%TD*%
D72*
%TO.C,D14*%
X182300000Y-75400000D03*
X178500000Y-75400000D03*
%TD*%
D150*
%TO.C,JP1*%
X186750000Y-116500000D03*
X185450000Y-116500000D03*
%TD*%
D65*
%TO.C,C79*%
X121100000Y-65225000D03*
X121100000Y-66775000D03*
%TD*%
D38*
%TO.C,R72*%
X111020000Y-127300000D03*
X110380000Y-127300000D03*
%TD*%
D46*
%TO.C,R56*%
X144850000Y-132630000D03*
X144850000Y-133270000D03*
%TD*%
D37*
%TO.C,Q1*%
X160262500Y-69350000D03*
X160262500Y-67450000D03*
X162137500Y-68400000D03*
%TD*%
D95*
%TO.C,C42*%
X131800000Y-57180000D03*
X131800000Y-56220000D03*
%TD*%
D38*
%TO.C,C40*%
X168820000Y-124900000D03*
X168180000Y-124900000D03*
%TD*%
D101*
%TO.C,D12*%
X153000000Y-68700000D03*
D102*
X153000000Y-71750000D03*
%TD*%
D101*
%TO.C,D11*%
X153000000Y-75700000D03*
D102*
X153000000Y-78750000D03*
%TD*%
D39*
%TO.C,C8*%
X109180000Y-93050000D03*
X108220000Y-93050000D03*
%TD*%
%TO.C,C82*%
X122230000Y-61100000D03*
X121270000Y-61100000D03*
%TD*%
D151*
%TO.C,R38*%
X104400000Y-85437500D03*
X104400000Y-91362500D03*
%TD*%
D152*
%TO.C,C39*%
X112800000Y-81050000D03*
X112800000Y-75450000D03*
%TD*%
D53*
%TO.C,R29*%
X178260000Y-86100000D03*
X177240000Y-86100000D03*
%TD*%
D97*
%TO.C,R13*%
X168250000Y-78237500D03*
X168250000Y-81162500D03*
%TD*%
D61*
%TO.C,C13*%
X164239411Y-118660589D03*
X163560589Y-119339411D03*
%TD*%
D99*
%TO.C,R16*%
X108190000Y-94000000D03*
X109210000Y-94000000D03*
%TD*%
D118*
%TO.C,R70*%
X163600000Y-96090001D03*
X163600000Y-97109999D03*
%TD*%
D41*
%TO.C,R47*%
X136325000Y-113150000D03*
X137975000Y-113150000D03*
%TD*%
D53*
%TO.C,R6*%
X184510000Y-74850000D03*
X183490000Y-74850000D03*
%TD*%
D46*
%TO.C,C11*%
X179000000Y-140980000D03*
X179000000Y-141620000D03*
%TD*%
D69*
%TO.C,R17*%
X110200000Y-94320000D03*
X110200000Y-93680000D03*
%TD*%
D53*
%TO.C,R66*%
X169010000Y-124050000D03*
X167990000Y-124050000D03*
%TD*%
D131*
%TO.C,R44*%
X120100000Y-138310000D03*
X120100000Y-137290000D03*
%TD*%
D99*
%TO.C,R9*%
X117690000Y-142400000D03*
X118710000Y-142400000D03*
%TD*%
D38*
%TO.C,C46*%
X155020000Y-88750000D03*
X154380000Y-88750000D03*
%TD*%
D153*
%TO.C,R78*%
X145362500Y-118250000D03*
X142437500Y-118250000D03*
%TD*%
D46*
%TO.C,R50*%
X108400000Y-108180000D03*
X108400000Y-108820000D03*
%TD*%
D54*
%TO.C,R31*%
X187680000Y-71200000D03*
X188320000Y-71200000D03*
%TD*%
D65*
%TO.C,C6*%
X145600000Y-140325000D03*
X145600000Y-141875000D03*
%TD*%
D154*
%TO.C,R46*%
X189000000Y-140350000D03*
X189000000Y-143450000D03*
%TD*%
D155*
%TO.C,FB2*%
X129537500Y-93650000D03*
X127962500Y-93650000D03*
%TD*%
D103*
%TO.C,U7*%
X180600000Y-143455000D03*
X180600000Y-142185000D03*
X180600000Y-140915000D03*
X180600000Y-139645000D03*
X186600000Y-139645000D03*
X186600000Y-140915000D03*
X186600000Y-142185000D03*
X186600000Y-143455000D03*
%TD*%
D83*
%TO.C,C4*%
X134700000Y-111400000D03*
X136600000Y-111400000D03*
%TD*%
D54*
%TO.C,R27*%
X192280000Y-119300000D03*
X192920000Y-119300000D03*
%TD*%
D66*
%TO.C,C51*%
X112000000Y-90725000D03*
X112000000Y-89175000D03*
%TD*%
D53*
%TO.C,R5*%
X190010000Y-138950000D03*
X188990000Y-138950000D03*
%TD*%
D69*
%TO.C,C57*%
X117600000Y-148820000D03*
X117600000Y-148180000D03*
%TD*%
%LPD*%
M02*
