%TF.GenerationSoftware,KiCad,Pcbnew,8.0.5*%
%TF.CreationDate,2024-10-11T23:52:17+02:00*%
%TF.ProjectId,labathome_pcb15,6c616261-7468-46f6-9d65-5f7063623135,rev?*%
%TF.SameCoordinates,Original*%
%TF.FileFunction,Soldermask,Top*%
%TF.FilePolarity,Negative*%
%FSLAX46Y46*%
G04 Gerber Fmt 4.6, Leading zero omitted, Abs format (unit mm)*
G04 Created by KiCad (PCBNEW 8.0.5) date 2024-10-11 23:52:17*
%MOMM*%
%LPD*%
G01*
G04 APERTURE LIST*
G04 Aperture macros list*
%AMRoundRect*
0 Rectangle with rounded corners*
0 $1 Rounding radius*
0 $2 $3 $4 $5 $6 $7 $8 $9 X,Y pos of 4 corners*
0 Add a 4 corners polygon primitive as box body*
4,1,4,$2,$3,$4,$5,$6,$7,$8,$9,$2,$3,0*
0 Add four circle primitives for the rounded corners*
1,1,$1+$1,$2,$3*
1,1,$1+$1,$4,$5*
1,1,$1+$1,$6,$7*
1,1,$1+$1,$8,$9*
0 Add four rect primitives between the rounded corners*
20,1,$1+$1,$2,$3,$4,$5,0*
20,1,$1+$1,$4,$5,$6,$7,0*
20,1,$1+$1,$6,$7,$8,$9,0*
20,1,$1+$1,$8,$9,$2,$3,0*%
%AMFreePoly0*
4,1,19,0.500000,-0.750000,0.000000,-0.750000,0.000000,-0.744911,-0.071157,-0.744911,-0.207708,-0.704816,-0.327430,-0.627875,-0.420627,-0.520320,-0.479746,-0.390866,-0.500000,-0.250000,-0.500000,0.250000,-0.479746,0.390866,-0.420627,0.520320,-0.327430,0.627875,-0.207708,0.704816,-0.071157,0.744911,0.000000,0.744911,0.000000,0.750000,0.500000,0.750000,0.500000,-0.750000,0.500000,-0.750000,
$1*%
%AMFreePoly1*
4,1,19,0.000000,0.744911,0.071157,0.744911,0.207708,0.704816,0.327430,0.627875,0.420627,0.520320,0.479746,0.390866,0.500000,0.250000,0.500000,-0.250000,0.479746,-0.390866,0.420627,-0.520320,0.327430,-0.627875,0.207708,-0.704816,0.071157,-0.744911,0.000000,-0.744911,0.000000,-0.750000,-0.500000,-0.750000,-0.500000,0.750000,0.000000,0.750000,0.000000,0.744911,0.000000,0.744911,
$1*%
G04 Aperture macros list end*
%ADD10R,1.700000X1.700000*%
%ADD11O,1.700000X1.700000*%
%ADD12O,1.800000X1.400000*%
%ADD13RoundRect,0.750000X-1.000000X0.750000X-1.000000X-0.750000X1.000000X-0.750000X1.000000X0.750000X0*%
%ADD14RoundRect,0.750000X-1.000000X1.000000X-1.000000X-1.000000X1.000000X-1.000000X1.000000X1.000000X0*%
%ADD15RoundRect,0.875000X-0.875000X0.875000X-0.875000X-0.875000X0.875000X-0.875000X0.875000X0.875000X0*%
%ADD16RoundRect,0.450000X-0.750000X0.450000X-0.750000X-0.450000X0.750000X-0.450000X0.750000X0.450000X0*%
%ADD17RoundRect,0.250000X0.600000X-0.600000X0.600000X0.600000X-0.600000X0.600000X-0.600000X-0.600000X0*%
%ADD18C,1.500000*%
%ADD19R,1.100000X1.800000*%
%ADD20RoundRect,0.275000X-0.275000X-0.625000X0.275000X-0.625000X0.275000X0.625000X-0.275000X0.625000X0*%
%ADD21RoundRect,0.450000X0.750000X-0.450000X0.750000X0.450000X-0.750000X0.450000X-0.750000X-0.450000X0*%
%ADD22RoundRect,0.400000X-0.400000X-0.400000X0.400000X-0.400000X0.400000X0.400000X-0.400000X0.400000X0*%
%ADD23O,1.800000X1.600000*%
%ADD24O,1.400000X1.800000*%
%ADD25O,1.600000X2.200000*%
%ADD26C,1.700000*%
%ADD27RoundRect,0.400000X-0.400000X-0.600000X0.400000X-0.600000X0.400000X0.600000X-0.400000X0.600000X0*%
%ADD28O,1.600000X2.000000*%
%ADD29FreePoly0,180.000000*%
%ADD30FreePoly1,180.000000*%
%ADD31R,1.350000X1.350000*%
%ADD32C,1.350000*%
%ADD33FreePoly0,0.000000*%
%ADD34FreePoly1,0.000000*%
%ADD35C,1.200000*%
%ADD36RoundRect,0.325000X0.325000X0.975000X-0.325000X0.975000X-0.325000X-0.975000X0.325000X-0.975000X0*%
%ADD37RoundRect,0.750000X1.050000X1.750000X-1.050000X1.750000X-1.050000X-1.750000X1.050000X-1.750000X0*%
%ADD38C,3.400000*%
%ADD39C,1.600000*%
%ADD40O,1.600000X1.600000*%
%ADD41RoundRect,0.250000X0.550000X-0.550000X0.550000X0.550000X-0.550000X0.550000X-0.550000X-0.550000X0*%
%ADD42RoundRect,0.500000X0.350000X-0.350000X0.350000X0.350000X-0.350000X0.350000X-0.350000X-0.350000X0*%
%ADD43O,3.500000X3.500000*%
%ADD44C,3.600000*%
%ADD45C,0.900000*%
%ADD46C,1.000000*%
%ADD47C,2.000000*%
%ADD48O,1.350000X1.350000*%
%ADD49C,0.650000*%
%ADD50O,2.500000X2.000000*%
%ADD51O,3.500000X2.000000*%
%ADD52C,0.700000*%
%ADD53RoundRect,0.250000X0.600000X0.750000X-0.600000X0.750000X-0.600000X-0.750000X0.600000X-0.750000X0*%
%ADD54O,1.700000X2.000000*%
%ADD55C,3.200000*%
%ADD56RoundRect,0.500000X-1.250000X-1.250000X1.250000X-1.250000X1.250000X1.250000X-1.250000X1.250000X0*%
%ADD57C,3.500000*%
%ADD58R,1.800000X1.100000*%
%ADD59RoundRect,0.275000X-0.625000X0.275000X-0.625000X-0.275000X0.625000X-0.275000X0.625000X0.275000X0*%
G04 APERTURE END LIST*
D10*
%TO.C,J12*%
X111600000Y-148380000D03*
D11*
X111600000Y-145840000D03*
X111600000Y-143300000D03*
X111600000Y-140760000D03*
X111600000Y-138220000D03*
X111600000Y-135680000D03*
X111600000Y-133140000D03*
X111600000Y-130600000D03*
%TD*%
D12*
%TO.C,SW9*%
X111600000Y-56800000D03*
X111600000Y-54300000D03*
X111600000Y-51800000D03*
%TD*%
D10*
%TO.C,J10*%
X114800000Y-110600000D03*
D11*
X114800000Y-113140000D03*
X114800000Y-115680000D03*
X114800000Y-118220000D03*
X114800000Y-120760000D03*
X114800000Y-123300000D03*
%TD*%
D13*
%TO.C,J9*%
X118457500Y-57700000D03*
D14*
X118457500Y-63700000D03*
D15*
X113757500Y-60700000D03*
%TD*%
D16*
%TO.C,J27*%
X108005000Y-110950000D03*
X108005000Y-114450000D03*
X108005000Y-117950000D03*
X108005000Y-121450000D03*
%TD*%
D17*
%TO.C,J34*%
X120725000Y-95350000D03*
D11*
X120725000Y-92810000D03*
X123265000Y-95350000D03*
X123265000Y-92810000D03*
X125805000Y-95350000D03*
X125805000Y-92810000D03*
%TD*%
D18*
%TO.C,R32*%
X174800000Y-86400000D03*
X171400000Y-86400000D03*
%TD*%
D19*
%TO.C,U13*%
X181850000Y-124400000D03*
D20*
X183120000Y-122330000D03*
X184390000Y-124400000D03*
%TD*%
D16*
%TO.C,J1*%
X108005000Y-95550000D03*
X108005000Y-99050000D03*
X108005000Y-102550000D03*
X108005000Y-106050000D03*
%TD*%
D21*
%TO.C,J18*%
X191995000Y-89150000D03*
X191995000Y-85650000D03*
X191995000Y-82150000D03*
X191995000Y-78650000D03*
%TD*%
%TO.C,J15*%
X192000000Y-147550000D03*
X192000000Y-144050000D03*
X192000000Y-140550000D03*
X192000000Y-137050000D03*
%TD*%
D16*
%TO.C,J2*%
X108005000Y-137050000D03*
X108005000Y-140550000D03*
X108005000Y-144050000D03*
X108005000Y-147550000D03*
%TD*%
D22*
%TO.C,M1*%
X162540000Y-51500000D03*
D23*
X162540000Y-54040000D03*
X162540000Y-56580000D03*
X162540000Y-59120000D03*
X162540000Y-61660000D03*
X162540000Y-64200000D03*
X182860000Y-64200000D03*
X182860000Y-61660000D03*
X182860000Y-59120000D03*
X182860000Y-56580000D03*
X182860000Y-54040000D03*
X182860000Y-51500000D03*
%TD*%
D10*
%TO.C,J19*%
X111200000Y-123300000D03*
D11*
X111200000Y-120760000D03*
X111200000Y-118220000D03*
X111200000Y-115680000D03*
X111200000Y-113140000D03*
X111200000Y-110600000D03*
%TD*%
D24*
%TO.C,SW4*%
X134100000Y-110900000D03*
X131600000Y-110900000D03*
X129100000Y-110900000D03*
%TD*%
D10*
%TO.C,J20*%
X115200000Y-130680000D03*
D11*
X115200000Y-133220000D03*
X115200000Y-135760000D03*
X115200000Y-138300000D03*
X115200000Y-140840000D03*
X115200000Y-143380000D03*
X115200000Y-145920000D03*
X115200000Y-148460000D03*
%TD*%
D10*
%TO.C,J4*%
X115000000Y-104700000D03*
D11*
X115000000Y-102160000D03*
X115000000Y-99620000D03*
X115000000Y-97080000D03*
%TD*%
D25*
%TO.C,X3*%
X164880000Y-68300000D03*
X167420000Y-68300000D03*
X169960000Y-68300000D03*
X172500000Y-68300000D03*
X175040000Y-68300000D03*
X177580000Y-68300000D03*
X180120000Y-68300000D03*
%TD*%
D16*
%TO.C,J22*%
X108005000Y-52450000D03*
X108005000Y-55950000D03*
X108005000Y-59450000D03*
X108005000Y-62950000D03*
%TD*%
D10*
%TO.C,U15*%
X168875000Y-62489500D03*
D26*
X168875000Y-59949500D03*
X171415000Y-62489500D03*
X171415000Y-59949500D03*
X173955000Y-62489500D03*
X173955000Y-59949500D03*
X176495000Y-62489500D03*
X176495000Y-59949500D03*
%TD*%
D27*
%TO.C,U21*%
X142380000Y-112000000D03*
D28*
X144920000Y-112000000D03*
X147460000Y-112000000D03*
X150000000Y-112000000D03*
X152540000Y-112000000D03*
X155080000Y-112000000D03*
X157620000Y-112000000D03*
%TD*%
D29*
%TO.C,JP5*%
X126950000Y-74700000D03*
D30*
X125650000Y-74700000D03*
%TD*%
D31*
%TO.C,U6*%
X165792500Y-51492500D03*
D32*
X165792500Y-53492500D03*
X165792500Y-55492500D03*
X165792500Y-57492500D03*
X165792500Y-59492500D03*
X165792500Y-61492500D03*
X165792500Y-63492500D03*
X165792500Y-65492500D03*
X179392500Y-65492500D03*
X179392500Y-63492500D03*
X179392500Y-61492500D03*
X179392500Y-59492500D03*
X179392500Y-57492500D03*
X179392500Y-55492500D03*
X179392500Y-53492500D03*
X179392500Y-51492500D03*
%TD*%
D33*
%TO.C,JP4*%
X136450000Y-74650000D03*
D34*
X137750000Y-74650000D03*
%TD*%
D35*
%TO.C,MK1*%
X186650000Y-115000000D03*
X184750000Y-115000000D03*
%TD*%
%TO.C,SW6*%
X175100000Y-114261000D03*
X170600000Y-114261000D03*
D36*
X175600000Y-105961000D03*
X170600000Y-105961000D03*
X173100000Y-105961000D03*
D37*
X180900000Y-114261000D03*
X165300000Y-114261000D03*
D36*
X175600000Y-122561000D03*
X170600000Y-122561000D03*
%TD*%
D21*
%TO.C,J24*%
X191995000Y-73750000D03*
X191995000Y-70250000D03*
X191995000Y-66750000D03*
X191995000Y-63250000D03*
%TD*%
D10*
%TO.C,J23*%
X123700000Y-105900000D03*
D11*
X126240000Y-105900000D03*
X128780000Y-105900000D03*
X131320000Y-105900000D03*
X133860000Y-105900000D03*
X136400000Y-105900000D03*
%TD*%
D38*
%TO.C,X1*%
X125000000Y-142755000D03*
X175000000Y-142755000D03*
%TD*%
D39*
%TO.C,R38*%
X111240000Y-87130000D03*
D40*
X123940000Y-87130000D03*
%TD*%
D41*
%TO.C,C39*%
X112800000Y-83082380D03*
D39*
X112800000Y-80582380D03*
%TD*%
D42*
%TO.C,J8*%
X129050000Y-99900000D03*
D11*
X131590000Y-99900000D03*
X134130000Y-99900000D03*
X136670000Y-99900000D03*
%TD*%
D16*
%TO.C,J28*%
X108005000Y-80150000D03*
X108005000Y-83650000D03*
X108005000Y-87150000D03*
X108005000Y-90650000D03*
%TD*%
D21*
%TO.C,J21*%
X192000000Y-132150000D03*
X192000000Y-128650000D03*
X192000000Y-125150000D03*
X192000000Y-121650000D03*
%TD*%
D12*
%TO.C,U22*%
X175800000Y-78820000D03*
D39*
X175800000Y-76580000D03*
X174220000Y-75000000D03*
X170400000Y-76580000D03*
X170400000Y-78820000D03*
X171980000Y-80400000D03*
%TD*%
D43*
%TO.C,R33*%
X127750000Y-53800000D03*
X172250000Y-53800000D03*
D44*
X110300000Y-63800000D03*
X189700000Y-63800000D03*
%TD*%
D45*
%TO.C,SW3*%
X196930000Y-142700000D03*
X196930000Y-145700000D03*
%TD*%
D46*
%TO.C,TP6*%
X183655000Y-119685000D03*
%TD*%
%TO.C,J17*%
X141200000Y-139975000D03*
X133200000Y-139975000D03*
%TD*%
D45*
%TO.C,SW2*%
X196900000Y-131700000D03*
X196900000Y-134700000D03*
%TD*%
D47*
%TO.C,LS2*%
X154000000Y-97800000D03*
X150000000Y-97800000D03*
X146000000Y-97800000D03*
X156000000Y-99050000D03*
X152000000Y-99050000D03*
X148000000Y-99050000D03*
X144000000Y-99050000D03*
X158000000Y-100300000D03*
X154000000Y-100300000D03*
X150000000Y-100300000D03*
X146000000Y-100300000D03*
X142000000Y-100300000D03*
X156000000Y-101550000D03*
X152000000Y-101550000D03*
X148000000Y-101550000D03*
X144000000Y-101550000D03*
X158000000Y-102800000D03*
X154000000Y-102800000D03*
X150000000Y-102800000D03*
X146000000Y-102800000D03*
X142000000Y-102800000D03*
X156000000Y-104050000D03*
X152000000Y-104050000D03*
X148000000Y-104050000D03*
X144000000Y-104050000D03*
X158000000Y-105300000D03*
X154000000Y-105300000D03*
X150000000Y-105300000D03*
X146000000Y-105300000D03*
X142000000Y-105300000D03*
X156000000Y-106550000D03*
X152000000Y-106550000D03*
X148000000Y-106550000D03*
X144000000Y-106550000D03*
X154000000Y-107800000D03*
X150000000Y-107800000D03*
X146000000Y-107800000D03*
%TD*%
D35*
%TO.C,J14*%
X190975000Y-104000000D03*
X196975000Y-104000000D03*
%TD*%
D31*
%TO.C,LS1*%
X150800000Y-116350000D03*
D48*
X150800000Y-118350000D03*
%TD*%
D49*
%TO.C,J13*%
X106350000Y-74740000D03*
X106350000Y-68960000D03*
D50*
X102650000Y-76670000D03*
D51*
X106830000Y-76670000D03*
D50*
X102650000Y-67030000D03*
D51*
X106830000Y-67030000D03*
%TD*%
D35*
%TO.C,J16*%
X190975000Y-115000000D03*
X196975000Y-115000000D03*
%TD*%
D52*
%TO.C,SW1*%
X181400000Y-147050000D03*
X183100000Y-147050000D03*
%TD*%
D53*
%TO.C,J7*%
X164700000Y-84200000D03*
D54*
X162200000Y-84200000D03*
%TD*%
D35*
%TO.C,J3*%
X190975000Y-93000000D03*
X196975000Y-93000000D03*
%TD*%
D55*
%TO.C,BT1*%
X122345000Y-127600000D03*
X177955000Y-127600000D03*
D56*
X113700000Y-127600000D03*
D57*
X185700000Y-127600000D03*
%TD*%
D58*
%TO.C,U17*%
X160170000Y-65830000D03*
D59*
X158100000Y-67100000D03*
X160170000Y-68370000D03*
%TD*%
D49*
%TO.C,J5*%
X106400000Y-131490000D03*
X106400000Y-125710000D03*
D50*
X102700000Y-133420000D03*
D51*
X106880000Y-133420000D03*
D50*
X102700000Y-123780000D03*
D51*
X106880000Y-123780000D03*
%TD*%
D46*
%TO.C,TP1*%
X186195000Y-119685000D03*
%TD*%
M02*
