%TF.GenerationSoftware,KiCad,Pcbnew,8.0.3*%
%TF.CreationDate,2024-07-06T11:10:12+02:00*%
%TF.ProjectId,labathome_pcb15,6c616261-7468-46f6-9d65-5f7063623135,rev?*%
%TF.SameCoordinates,Original*%
%TF.FileFunction,Legend,Bot*%
%TF.FilePolarity,Positive*%
%FSLAX46Y46*%
G04 Gerber Fmt 4.6, Leading zero omitted, Abs format (unit mm)*
G04 Created by KiCad (PCBNEW 8.0.3) date 2024-07-06 11:10:12*
%MOMM*%
%LPD*%
G01*
G04 APERTURE LIST*
G04 Aperture macros list*
%AMRoundRect*
0 Rectangle with rounded corners*
0 $1 Rounding radius*
0 $2 $3 $4 $5 $6 $7 $8 $9 X,Y pos of 4 corners*
0 Add a 4 corners polygon primitive as box body*
4,1,4,$2,$3,$4,$5,$6,$7,$8,$9,$2,$3,0*
0 Add four circle primitives for the rounded corners*
1,1,$1+$1,$2,$3*
1,1,$1+$1,$4,$5*
1,1,$1+$1,$6,$7*
1,1,$1+$1,$8,$9*
0 Add four rect primitives between the rounded corners*
20,1,$1+$1,$2,$3,$4,$5,0*
20,1,$1+$1,$4,$5,$6,$7,0*
20,1,$1+$1,$6,$7,$8,$9,0*
20,1,$1+$1,$8,$9,$2,$3,0*%
%AMFreePoly0*
4,1,19,0.500000,-0.750000,0.000000,-0.750000,0.000000,-0.744911,-0.071157,-0.744911,-0.207708,-0.704816,-0.327430,-0.627875,-0.420627,-0.520320,-0.479746,-0.390866,-0.500000,-0.250000,-0.500000,0.250000,-0.479746,0.390866,-0.420627,0.520320,-0.327430,0.627875,-0.207708,0.704816,-0.071157,0.744911,0.000000,0.744911,0.000000,0.750000,0.500000,0.750000,0.500000,-0.750000,0.500000,-0.750000,
$1*%
%AMFreePoly1*
4,1,19,0.000000,0.744911,0.071157,0.744911,0.207708,0.704816,0.327430,0.627875,0.420627,0.520320,0.479746,0.390866,0.500000,0.250000,0.500000,-0.250000,0.479746,-0.390866,0.420627,-0.520320,0.327430,-0.627875,0.207708,-0.704816,0.071157,-0.744911,0.000000,-0.744911,0.000000,-0.750000,-0.500000,-0.750000,-0.500000,0.750000,0.000000,0.750000,0.000000,0.744911,0.000000,0.744911,
$1*%
G04 Aperture macros list end*
%ADD10C,0.250000*%
%ADD11C,0.150000*%
%ADD12C,0.010000*%
%ADD13C,0.120000*%
%ADD14C,0.100000*%
%ADD15C,1.200000*%
%ADD16RoundRect,0.300000X0.200000X-0.200000X0.200000X0.200000X-0.200000X0.200000X-0.200000X-0.200000X0*%
%ADD17O,1.000000X1.000000*%
%ADD18R,1.700000X1.700000*%
%ADD19O,1.700000X1.700000*%
%ADD20O,1.800000X1.400000*%
%ADD21RoundRect,0.500000X0.350000X0.350000X-0.350000X0.350000X-0.350000X-0.350000X0.350000X-0.350000X0*%
%ADD22RoundRect,0.750000X-1.000000X0.750000X-1.000000X-0.750000X1.000000X-0.750000X1.000000X0.750000X0*%
%ADD23RoundRect,0.750000X-1.000000X1.000000X-1.000000X-1.000000X1.000000X-1.000000X1.000000X1.000000X0*%
%ADD24RoundRect,0.875000X-0.875000X0.875000X-0.875000X-0.875000X0.875000X-0.875000X0.875000X0.875000X0*%
%ADD25RoundRect,0.450000X-0.750000X0.450000X-0.750000X-0.450000X0.750000X-0.450000X0.750000X0.450000X0*%
%ADD26O,1.900000X3.200000*%
%ADD27C,1.500000*%
%ADD28R,1.100000X1.800000*%
%ADD29RoundRect,0.275000X-0.275000X-0.625000X0.275000X-0.625000X0.275000X0.625000X-0.275000X0.625000X0*%
%ADD30RoundRect,0.450000X0.750000X-0.450000X0.750000X0.450000X-0.750000X0.450000X-0.750000X-0.450000X0*%
%ADD31RoundRect,0.400000X-0.400000X-0.400000X0.400000X-0.400000X0.400000X0.400000X-0.400000X0.400000X0*%
%ADD32O,1.800000X1.600000*%
%ADD33R,1.000000X1.000000*%
%ADD34O,1.400000X1.800000*%
%ADD35O,1.600000X2.200000*%
%ADD36C,1.700000*%
%ADD37RoundRect,0.400000X-0.400000X-0.600000X0.400000X-0.600000X0.400000X0.600000X-0.400000X0.600000X0*%
%ADD38O,1.600000X2.000000*%
%ADD39R,1.350000X1.350000*%
%ADD40C,1.350000*%
%ADD41RoundRect,0.400000X-0.400000X0.600000X-0.400000X-0.600000X0.400000X-0.600000X0.400000X0.600000X0*%
%ADD42R,2.000000X3.200000*%
%ADD43C,3.400000*%
%ADD44R,1.600000X1.600000*%
%ADD45C,1.600000*%
%ADD46RoundRect,0.500000X-0.350000X-0.350000X0.350000X-0.350000X0.350000X0.350000X-0.350000X0.350000X0*%
%ADD47O,1.600000X1.200000*%
%ADD48RoundRect,0.135000X0.135000X0.185000X-0.135000X0.185000X-0.135000X-0.185000X0.135000X-0.185000X0*%
%ADD49RoundRect,0.150000X-0.587500X-0.150000X0.587500X-0.150000X0.587500X0.150000X-0.587500X0.150000X0*%
%ADD50RoundRect,0.140000X0.140000X0.170000X-0.140000X0.170000X-0.140000X-0.170000X0.140000X-0.170000X0*%
%ADD51RoundRect,0.140000X0.170000X-0.140000X0.170000X0.140000X-0.170000X0.140000X-0.170000X-0.140000X0*%
%ADD52RoundRect,0.250000X-1.500000X-0.550000X1.500000X-0.550000X1.500000X0.550000X-1.500000X0.550000X0*%
%ADD53FreePoly0,90.000000*%
%ADD54FreePoly1,90.000000*%
%ADD55RoundRect,0.200000X-0.200000X-0.275000X0.200000X-0.275000X0.200000X0.275000X-0.200000X0.275000X0*%
%ADD56O,3.500000X3.500000*%
%ADD57C,3.600000*%
%ADD58RoundRect,0.135000X-0.135000X-0.185000X0.135000X-0.185000X0.135000X0.185000X-0.135000X0.185000X0*%
%ADD59RoundRect,0.135000X-0.185000X0.135000X-0.185000X-0.135000X0.185000X-0.135000X0.185000X0.135000X0*%
%ADD60C,0.900000*%
%ADD61R,2.000000X0.700000*%
%ADD62R,0.800000X2.000000*%
%ADD63RoundRect,0.225000X0.225000X0.250000X-0.225000X0.250000X-0.225000X-0.250000X0.225000X-0.250000X0*%
%ADD64RoundRect,0.140000X-0.170000X0.140000X-0.170000X-0.140000X0.170000X-0.140000X0.170000X0.140000X0*%
%ADD65C,1.000000*%
%ADD66R,0.700000X1.600000*%
%ADD67R,1.200000X2.200000*%
%ADD68R,1.200000X1.500000*%
%ADD69R,1.600000X1.500000*%
%ADD70RoundRect,0.335000X-1.340000X-1.365000X1.340000X-1.365000X1.340000X1.365000X-1.340000X1.365000X0*%
%ADD71RoundRect,0.225000X-0.250000X0.225000X-0.250000X-0.225000X0.250000X-0.225000X0.250000X0.225000X0*%
%ADD72RoundRect,0.225000X-0.225000X-0.250000X0.225000X-0.250000X0.225000X0.250000X-0.225000X0.250000X0*%
%ADD73C,2.000000*%
%ADD74RoundRect,0.250000X0.750000X-1.250000X0.750000X1.250000X-0.750000X1.250000X-0.750000X-1.250000X0*%
%ADD75RoundRect,0.150000X0.512500X0.150000X-0.512500X0.150000X-0.512500X-0.150000X0.512500X-0.150000X0*%
%ADD76RoundRect,0.225000X-0.375000X0.225000X-0.375000X-0.225000X0.375000X-0.225000X0.375000X0.225000X0*%
%ADD77O,1.350000X1.350000*%
%ADD78RoundRect,0.140000X-0.140000X-0.170000X0.140000X-0.170000X0.140000X0.170000X-0.140000X0.170000X0*%
%ADD79RoundRect,0.250000X0.325000X0.650000X-0.325000X0.650000X-0.325000X-0.650000X0.325000X-0.650000X0*%
%ADD80C,0.650000*%
%ADD81R,1.450000X0.600000*%
%ADD82R,1.450000X0.300000*%
%ADD83O,2.500000X2.000000*%
%ADD84O,3.500000X2.000000*%
%ADD85RoundRect,0.062500X0.062500X-0.337500X0.062500X0.337500X-0.062500X0.337500X-0.062500X-0.337500X0*%
%ADD86RoundRect,0.062500X0.337500X-0.062500X0.337500X0.062500X-0.337500X0.062500X-0.337500X-0.062500X0*%
%ADD87R,3.600000X3.600000*%
%ADD88RoundRect,0.218750X-0.256250X0.218750X-0.256250X-0.218750X0.256250X-0.218750X0.256250X0.218750X0*%
%ADD89RoundRect,0.135000X0.185000X-0.135000X0.185000X0.135000X-0.185000X0.135000X-0.185000X-0.135000X0*%
%ADD90RoundRect,0.200000X0.750000X0.200000X-0.750000X0.200000X-0.750000X-0.200000X0.750000X-0.200000X0*%
%ADD91RoundRect,0.250000X-0.625000X0.312500X-0.625000X-0.312500X0.625000X-0.312500X0.625000X0.312500X0*%
%ADD92RoundRect,0.162500X0.162500X-0.617500X0.162500X0.617500X-0.162500X0.617500X-0.162500X-0.617500X0*%
%ADD93R,0.800000X0.500000*%
%ADD94R,2.200000X0.600000*%
%ADD95RoundRect,0.062500X0.375000X0.062500X-0.375000X0.062500X-0.375000X-0.062500X0.375000X-0.062500X0*%
%ADD96RoundRect,0.062500X0.062500X0.375000X-0.062500X0.375000X-0.062500X-0.375000X0.062500X-0.375000X0*%
%ADD97R,5.600000X5.600000*%
%ADD98RoundRect,0.150000X0.625000X-0.150000X0.625000X0.150000X-0.625000X0.150000X-0.625000X-0.150000X0*%
%ADD99RoundRect,0.250000X0.650000X-0.350000X0.650000X0.350000X-0.650000X0.350000X-0.650000X-0.350000X0*%
%ADD100RoundRect,0.087500X-0.087500X0.225000X-0.087500X-0.225000X0.087500X-0.225000X0.087500X0.225000X0*%
%ADD101RoundRect,0.087500X-0.225000X0.087500X-0.225000X-0.087500X0.225000X-0.087500X0.225000X0.087500X0*%
%ADD102R,1.500000X0.900000*%
%ADD103R,0.900000X1.500000*%
%ADD104R,0.900000X0.900000*%
%ADD105R,1.400000X1.200000*%
%ADD106RoundRect,0.335000X1.340000X1.365000X-1.340000X1.365000X-1.340000X-1.365000X1.340000X-1.365000X0*%
%ADD107R,2.000000X1.905000*%
%ADD108O,2.000000X1.905000*%
%ADD109RoundRect,0.250000X0.750000X-0.600000X0.750000X0.600000X-0.750000X0.600000X-0.750000X-0.600000X0*%
%ADD110O,2.000000X1.700000*%
%ADD111C,3.200000*%
%ADD112RoundRect,0.500000X-1.250000X-1.250000X1.250000X-1.250000X1.250000X1.250000X-1.250000X1.250000X0*%
%ADD113C,3.500000*%
%ADD114RoundRect,0.150000X-0.150000X0.587500X-0.150000X-0.587500X0.150000X-0.587500X0.150000X0.587500X0*%
%ADD115RoundRect,0.375000X-0.625000X-0.375000X0.625000X-0.375000X0.625000X0.375000X-0.625000X0.375000X0*%
%ADD116RoundRect,0.500000X-0.500000X-1.400000X0.500000X-1.400000X0.500000X1.400000X-0.500000X1.400000X0*%
%ADD117RoundRect,0.200000X0.200000X-0.750000X0.200000X0.750000X-0.200000X0.750000X-0.200000X-0.750000X0*%
%ADD118R,0.350000X0.500000*%
%ADD119R,0.800000X1.800000*%
%ADD120RoundRect,0.100000X-0.637500X-0.100000X0.637500X-0.100000X0.637500X0.100000X-0.637500X0.100000X0*%
%ADD121R,2.850000X5.400000*%
%ADD122R,1.800000X1.100000*%
%ADD123RoundRect,0.275000X-0.625000X0.275000X-0.625000X-0.275000X0.625000X-0.275000X0.625000X0.275000X0*%
%ADD124RoundRect,0.250000X0.625000X-0.400000X0.625000X0.400000X-0.625000X0.400000X-0.625000X-0.400000X0*%
%ADD125RoundRect,0.150000X0.587500X0.150000X-0.587500X0.150000X-0.587500X-0.150000X0.587500X-0.150000X0*%
%ADD126RoundRect,0.150000X0.150000X-0.512500X0.150000X0.512500X-0.150000X0.512500X-0.150000X-0.512500X0*%
%ADD127RoundRect,0.150000X0.825000X0.150000X-0.825000X0.150000X-0.825000X-0.150000X0.825000X-0.150000X0*%
%ADD128R,2.300000X2.300000*%
%ADD129RoundRect,0.250000X0.400000X0.625000X-0.400000X0.625000X-0.400000X-0.625000X0.400000X-0.625000X0*%
%ADD130RoundRect,0.218750X0.218750X0.256250X-0.218750X0.256250X-0.218750X-0.256250X0.218750X-0.256250X0*%
G04 APERTURE END LIST*
D10*
X184006955Y-92009500D02*
X183835527Y-92080928D01*
X183835527Y-92080928D02*
X183549812Y-92080928D01*
X183549812Y-92080928D02*
X183435527Y-92009500D01*
X183435527Y-92009500D02*
X183378384Y-91938071D01*
X183378384Y-91938071D02*
X183321241Y-91795214D01*
X183321241Y-91795214D02*
X183321241Y-91652357D01*
X183321241Y-91652357D02*
X183378384Y-91509500D01*
X183378384Y-91509500D02*
X183435527Y-91438071D01*
X183435527Y-91438071D02*
X183549812Y-91366642D01*
X183549812Y-91366642D02*
X183778384Y-91295214D01*
X183778384Y-91295214D02*
X183892669Y-91223785D01*
X183892669Y-91223785D02*
X183949812Y-91152357D01*
X183949812Y-91152357D02*
X184006955Y-91009500D01*
X184006955Y-91009500D02*
X184006955Y-90866642D01*
X184006955Y-90866642D02*
X183949812Y-90723785D01*
X183949812Y-90723785D02*
X183892669Y-90652357D01*
X183892669Y-90652357D02*
X183778384Y-90580928D01*
X183778384Y-90580928D02*
X183492669Y-90580928D01*
X183492669Y-90580928D02*
X183321241Y-90652357D01*
X182806955Y-91080928D02*
X182806955Y-92580928D01*
X182806955Y-91152357D02*
X182692670Y-91080928D01*
X182692670Y-91080928D02*
X182464098Y-91080928D01*
X182464098Y-91080928D02*
X182349812Y-91152357D01*
X182349812Y-91152357D02*
X182292670Y-91223785D01*
X182292670Y-91223785D02*
X182235527Y-91366642D01*
X182235527Y-91366642D02*
X182235527Y-91795214D01*
X182235527Y-91795214D02*
X182292670Y-91938071D01*
X182292670Y-91938071D02*
X182349812Y-92009500D01*
X182349812Y-92009500D02*
X182464098Y-92080928D01*
X182464098Y-92080928D02*
X182692670Y-92080928D01*
X182692670Y-92080928D02*
X182806955Y-92009500D01*
X181264098Y-92009500D02*
X181378384Y-92080928D01*
X181378384Y-92080928D02*
X181606956Y-92080928D01*
X181606956Y-92080928D02*
X181721241Y-92009500D01*
X181721241Y-92009500D02*
X181778384Y-91866642D01*
X181778384Y-91866642D02*
X181778384Y-91295214D01*
X181778384Y-91295214D02*
X181721241Y-91152357D01*
X181721241Y-91152357D02*
X181606956Y-91080928D01*
X181606956Y-91080928D02*
X181378384Y-91080928D01*
X181378384Y-91080928D02*
X181264098Y-91152357D01*
X181264098Y-91152357D02*
X181206956Y-91295214D01*
X181206956Y-91295214D02*
X181206956Y-91438071D01*
X181206956Y-91438071D02*
X181778384Y-91580928D01*
X180178385Y-92080928D02*
X180178385Y-91295214D01*
X180178385Y-91295214D02*
X180235527Y-91152357D01*
X180235527Y-91152357D02*
X180349813Y-91080928D01*
X180349813Y-91080928D02*
X180578385Y-91080928D01*
X180578385Y-91080928D02*
X180692670Y-91152357D01*
X180178385Y-92009500D02*
X180292670Y-92080928D01*
X180292670Y-92080928D02*
X180578385Y-92080928D01*
X180578385Y-92080928D02*
X180692670Y-92009500D01*
X180692670Y-92009500D02*
X180749813Y-91866642D01*
X180749813Y-91866642D02*
X180749813Y-91723785D01*
X180749813Y-91723785D02*
X180692670Y-91580928D01*
X180692670Y-91580928D02*
X180578385Y-91509500D01*
X180578385Y-91509500D02*
X180292670Y-91509500D01*
X180292670Y-91509500D02*
X180178385Y-91438071D01*
X179606956Y-92080928D02*
X179606956Y-90580928D01*
X179492671Y-91509500D02*
X179149813Y-92080928D01*
X179149813Y-91080928D02*
X179606956Y-91652357D01*
X178178384Y-92009500D02*
X178292670Y-92080928D01*
X178292670Y-92080928D02*
X178521242Y-92080928D01*
X178521242Y-92080928D02*
X178635527Y-92009500D01*
X178635527Y-92009500D02*
X178692670Y-91866642D01*
X178692670Y-91866642D02*
X178692670Y-91295214D01*
X178692670Y-91295214D02*
X178635527Y-91152357D01*
X178635527Y-91152357D02*
X178521242Y-91080928D01*
X178521242Y-91080928D02*
X178292670Y-91080928D01*
X178292670Y-91080928D02*
X178178384Y-91152357D01*
X178178384Y-91152357D02*
X178121242Y-91295214D01*
X178121242Y-91295214D02*
X178121242Y-91438071D01*
X178121242Y-91438071D02*
X178692670Y-91580928D01*
X177606956Y-92080928D02*
X177606956Y-91080928D01*
X177606956Y-91366642D02*
X177549813Y-91223785D01*
X177549813Y-91223785D02*
X177492671Y-91152357D01*
X177492671Y-91152357D02*
X177378385Y-91080928D01*
X177378385Y-91080928D02*
X177264099Y-91080928D01*
D11*
X164761904Y-125254819D02*
X164761904Y-125969104D01*
X164761904Y-125969104D02*
X164809523Y-126111961D01*
X164809523Y-126111961D02*
X164904761Y-126207200D01*
X164904761Y-126207200D02*
X165047618Y-126254819D01*
X165047618Y-126254819D02*
X165142856Y-126254819D01*
X163952380Y-125731009D02*
X164285713Y-125731009D01*
X164285713Y-126254819D02*
X164285713Y-125254819D01*
X164285713Y-125254819D02*
X163809523Y-125254819D01*
X163476189Y-126207200D02*
X163333332Y-126254819D01*
X163333332Y-126254819D02*
X163095237Y-126254819D01*
X163095237Y-126254819D02*
X162999999Y-126207200D01*
X162999999Y-126207200D02*
X162952380Y-126159580D01*
X162952380Y-126159580D02*
X162904761Y-126064342D01*
X162904761Y-126064342D02*
X162904761Y-125969104D01*
X162904761Y-125969104D02*
X162952380Y-125873866D01*
X162952380Y-125873866D02*
X162999999Y-125826247D01*
X162999999Y-125826247D02*
X163095237Y-125778628D01*
X163095237Y-125778628D02*
X163285713Y-125731009D01*
X163285713Y-125731009D02*
X163380951Y-125683390D01*
X163380951Y-125683390D02*
X163428570Y-125635771D01*
X163428570Y-125635771D02*
X163476189Y-125540533D01*
X163476189Y-125540533D02*
X163476189Y-125445295D01*
X163476189Y-125445295D02*
X163428570Y-125350057D01*
X163428570Y-125350057D02*
X163380951Y-125302438D01*
X163380951Y-125302438D02*
X163285713Y-125254819D01*
X163285713Y-125254819D02*
X163047618Y-125254819D01*
X163047618Y-125254819D02*
X162904761Y-125302438D01*
X140866666Y-119084819D02*
X141199999Y-118608628D01*
X141438094Y-119084819D02*
X141438094Y-118084819D01*
X141438094Y-118084819D02*
X141057142Y-118084819D01*
X141057142Y-118084819D02*
X140961904Y-118132438D01*
X140961904Y-118132438D02*
X140914285Y-118180057D01*
X140914285Y-118180057D02*
X140866666Y-118275295D01*
X140866666Y-118275295D02*
X140866666Y-118418152D01*
X140866666Y-118418152D02*
X140914285Y-118513390D01*
X140914285Y-118513390D02*
X140961904Y-118561009D01*
X140961904Y-118561009D02*
X141057142Y-118608628D01*
X141057142Y-118608628D02*
X141438094Y-118608628D01*
X140533332Y-118084819D02*
X139914285Y-118084819D01*
X139914285Y-118084819D02*
X140247618Y-118465771D01*
X140247618Y-118465771D02*
X140104761Y-118465771D01*
X140104761Y-118465771D02*
X140009523Y-118513390D01*
X140009523Y-118513390D02*
X139961904Y-118561009D01*
X139961904Y-118561009D02*
X139914285Y-118656247D01*
X139914285Y-118656247D02*
X139914285Y-118894342D01*
X139914285Y-118894342D02*
X139961904Y-118989580D01*
X139961904Y-118989580D02*
X140009523Y-119037200D01*
X140009523Y-119037200D02*
X140104761Y-119084819D01*
X140104761Y-119084819D02*
X140390475Y-119084819D01*
X140390475Y-119084819D02*
X140485713Y-119037200D01*
X140485713Y-119037200D02*
X140533332Y-118989580D01*
X161961905Y-153079104D02*
X161485715Y-153079104D01*
X162057143Y-153364819D02*
X161723810Y-152364819D01*
X161723810Y-152364819D02*
X161390477Y-153364819D01*
X161057143Y-152698152D02*
X161057143Y-153364819D01*
X161057143Y-152793390D02*
X161009524Y-152745771D01*
X161009524Y-152745771D02*
X160914286Y-152698152D01*
X160914286Y-152698152D02*
X160771429Y-152698152D01*
X160771429Y-152698152D02*
X160676191Y-152745771D01*
X160676191Y-152745771D02*
X160628572Y-152841009D01*
X160628572Y-152841009D02*
X160628572Y-153364819D01*
X160295238Y-152698152D02*
X159914286Y-152698152D01*
X160152381Y-152364819D02*
X160152381Y-153221961D01*
X160152381Y-153221961D02*
X160104762Y-153317200D01*
X160104762Y-153317200D02*
X160009524Y-153364819D01*
X160009524Y-153364819D02*
X159914286Y-153364819D01*
X159200000Y-153317200D02*
X159295238Y-153364819D01*
X159295238Y-153364819D02*
X159485714Y-153364819D01*
X159485714Y-153364819D02*
X159580952Y-153317200D01*
X159580952Y-153317200D02*
X159628571Y-153221961D01*
X159628571Y-153221961D02*
X159628571Y-152841009D01*
X159628571Y-152841009D02*
X159580952Y-152745771D01*
X159580952Y-152745771D02*
X159485714Y-152698152D01*
X159485714Y-152698152D02*
X159295238Y-152698152D01*
X159295238Y-152698152D02*
X159200000Y-152745771D01*
X159200000Y-152745771D02*
X159152381Y-152841009D01*
X159152381Y-152841009D02*
X159152381Y-152936247D01*
X159152381Y-152936247D02*
X159628571Y-153031485D01*
X158723809Y-152698152D02*
X158723809Y-153364819D01*
X158723809Y-152793390D02*
X158676190Y-152745771D01*
X158676190Y-152745771D02*
X158580952Y-152698152D01*
X158580952Y-152698152D02*
X158438095Y-152698152D01*
X158438095Y-152698152D02*
X158342857Y-152745771D01*
X158342857Y-152745771D02*
X158295238Y-152841009D01*
X158295238Y-152841009D02*
X158295238Y-153364819D01*
X157819047Y-152698152D02*
X157819047Y-153364819D01*
X157819047Y-152793390D02*
X157771428Y-152745771D01*
X157771428Y-152745771D02*
X157676190Y-152698152D01*
X157676190Y-152698152D02*
X157533333Y-152698152D01*
X157533333Y-152698152D02*
X157438095Y-152745771D01*
X157438095Y-152745771D02*
X157390476Y-152841009D01*
X157390476Y-152841009D02*
X157390476Y-153364819D01*
X156485714Y-153364819D02*
X156485714Y-152841009D01*
X156485714Y-152841009D02*
X156533333Y-152745771D01*
X156533333Y-152745771D02*
X156628571Y-152698152D01*
X156628571Y-152698152D02*
X156819047Y-152698152D01*
X156819047Y-152698152D02*
X156914285Y-152745771D01*
X156485714Y-153317200D02*
X156580952Y-153364819D01*
X156580952Y-153364819D02*
X156819047Y-153364819D01*
X156819047Y-153364819D02*
X156914285Y-153317200D01*
X156914285Y-153317200D02*
X156961904Y-153221961D01*
X156961904Y-153221961D02*
X156961904Y-153126723D01*
X156961904Y-153126723D02*
X156914285Y-153031485D01*
X156914285Y-153031485D02*
X156819047Y-152983866D01*
X156819047Y-152983866D02*
X156580952Y-152983866D01*
X156580952Y-152983866D02*
X156485714Y-152936247D01*
X155295237Y-153079104D02*
X154819047Y-153079104D01*
X155390475Y-153364819D02*
X155057142Y-152364819D01*
X155057142Y-152364819D02*
X154723809Y-153364819D01*
X154390475Y-153364819D02*
X154390475Y-152698152D01*
X154390475Y-152888628D02*
X154342856Y-152793390D01*
X154342856Y-152793390D02*
X154295237Y-152745771D01*
X154295237Y-152745771D02*
X154199999Y-152698152D01*
X154199999Y-152698152D02*
X154104761Y-152698152D01*
X153390475Y-153317200D02*
X153485713Y-153364819D01*
X153485713Y-153364819D02*
X153676189Y-153364819D01*
X153676189Y-153364819D02*
X153771427Y-153317200D01*
X153771427Y-153317200D02*
X153819046Y-153221961D01*
X153819046Y-153221961D02*
X153819046Y-152841009D01*
X153819046Y-152841009D02*
X153771427Y-152745771D01*
X153771427Y-152745771D02*
X153676189Y-152698152D01*
X153676189Y-152698152D02*
X153485713Y-152698152D01*
X153485713Y-152698152D02*
X153390475Y-152745771D01*
X153390475Y-152745771D02*
X153342856Y-152841009D01*
X153342856Y-152841009D02*
X153342856Y-152936247D01*
X153342856Y-152936247D02*
X153819046Y-153031485D01*
X152485713Y-153364819D02*
X152485713Y-152841009D01*
X152485713Y-152841009D02*
X152533332Y-152745771D01*
X152533332Y-152745771D02*
X152628570Y-152698152D01*
X152628570Y-152698152D02*
X152819046Y-152698152D01*
X152819046Y-152698152D02*
X152914284Y-152745771D01*
X152485713Y-153317200D02*
X152580951Y-153364819D01*
X152580951Y-153364819D02*
X152819046Y-153364819D01*
X152819046Y-153364819D02*
X152914284Y-153317200D01*
X152914284Y-153317200D02*
X152961903Y-153221961D01*
X152961903Y-153221961D02*
X152961903Y-153126723D01*
X152961903Y-153126723D02*
X152914284Y-153031485D01*
X152914284Y-153031485D02*
X152819046Y-152983866D01*
X152819046Y-152983866D02*
X152580951Y-152983866D01*
X152580951Y-152983866D02*
X152485713Y-152936247D01*
X159414285Y-79731009D02*
X159747618Y-79731009D01*
X159747618Y-80254819D02*
X159747618Y-79254819D01*
X159747618Y-79254819D02*
X159271428Y-79254819D01*
X158938094Y-79969104D02*
X158461904Y-79969104D01*
X159033332Y-80254819D02*
X158699999Y-79254819D01*
X158699999Y-79254819D02*
X158366666Y-80254819D01*
X158033332Y-80254819D02*
X158033332Y-79254819D01*
X158033332Y-79254819D02*
X157461904Y-80254819D01*
X157461904Y-80254819D02*
X157461904Y-79254819D01*
X156509523Y-79254819D02*
X156985713Y-79254819D01*
X156985713Y-79254819D02*
X157033332Y-79731009D01*
X157033332Y-79731009D02*
X156985713Y-79683390D01*
X156985713Y-79683390D02*
X156890475Y-79635771D01*
X156890475Y-79635771D02*
X156652380Y-79635771D01*
X156652380Y-79635771D02*
X156557142Y-79683390D01*
X156557142Y-79683390D02*
X156509523Y-79731009D01*
X156509523Y-79731009D02*
X156461904Y-79826247D01*
X156461904Y-79826247D02*
X156461904Y-80064342D01*
X156461904Y-80064342D02*
X156509523Y-80159580D01*
X156509523Y-80159580D02*
X156557142Y-80207200D01*
X156557142Y-80207200D02*
X156652380Y-80254819D01*
X156652380Y-80254819D02*
X156890475Y-80254819D01*
X156890475Y-80254819D02*
X156985713Y-80207200D01*
X156985713Y-80207200D02*
X157033332Y-80159580D01*
X156176189Y-79254819D02*
X155842856Y-80254819D01*
X155842856Y-80254819D02*
X155509523Y-79254819D01*
X139249580Y-83957142D02*
X139297200Y-83909523D01*
X139297200Y-83909523D02*
X139344819Y-83766666D01*
X139344819Y-83766666D02*
X139344819Y-83671428D01*
X139344819Y-83671428D02*
X139297200Y-83528571D01*
X139297200Y-83528571D02*
X139201961Y-83433333D01*
X139201961Y-83433333D02*
X139106723Y-83385714D01*
X139106723Y-83385714D02*
X138916247Y-83338095D01*
X138916247Y-83338095D02*
X138773390Y-83338095D01*
X138773390Y-83338095D02*
X138582914Y-83385714D01*
X138582914Y-83385714D02*
X138487676Y-83433333D01*
X138487676Y-83433333D02*
X138392438Y-83528571D01*
X138392438Y-83528571D02*
X138344819Y-83671428D01*
X138344819Y-83671428D02*
X138344819Y-83766666D01*
X138344819Y-83766666D02*
X138392438Y-83909523D01*
X138392438Y-83909523D02*
X138440057Y-83957142D01*
X138344819Y-84861904D02*
X138344819Y-84385714D01*
X138344819Y-84385714D02*
X138821009Y-84338095D01*
X138821009Y-84338095D02*
X138773390Y-84385714D01*
X138773390Y-84385714D02*
X138725771Y-84480952D01*
X138725771Y-84480952D02*
X138725771Y-84719047D01*
X138725771Y-84719047D02*
X138773390Y-84814285D01*
X138773390Y-84814285D02*
X138821009Y-84861904D01*
X138821009Y-84861904D02*
X138916247Y-84909523D01*
X138916247Y-84909523D02*
X139154342Y-84909523D01*
X139154342Y-84909523D02*
X139249580Y-84861904D01*
X139249580Y-84861904D02*
X139297200Y-84814285D01*
X139297200Y-84814285D02*
X139344819Y-84719047D01*
X139344819Y-84719047D02*
X139344819Y-84480952D01*
X139344819Y-84480952D02*
X139297200Y-84385714D01*
X139297200Y-84385714D02*
X139249580Y-84338095D01*
X138344819Y-85528571D02*
X138344819Y-85623809D01*
X138344819Y-85623809D02*
X138392438Y-85719047D01*
X138392438Y-85719047D02*
X138440057Y-85766666D01*
X138440057Y-85766666D02*
X138535295Y-85814285D01*
X138535295Y-85814285D02*
X138725771Y-85861904D01*
X138725771Y-85861904D02*
X138963866Y-85861904D01*
X138963866Y-85861904D02*
X139154342Y-85814285D01*
X139154342Y-85814285D02*
X139249580Y-85766666D01*
X139249580Y-85766666D02*
X139297200Y-85719047D01*
X139297200Y-85719047D02*
X139344819Y-85623809D01*
X139344819Y-85623809D02*
X139344819Y-85528571D01*
X139344819Y-85528571D02*
X139297200Y-85433333D01*
X139297200Y-85433333D02*
X139249580Y-85385714D01*
X139249580Y-85385714D02*
X139154342Y-85338095D01*
X139154342Y-85338095D02*
X138963866Y-85290476D01*
X138963866Y-85290476D02*
X138725771Y-85290476D01*
X138725771Y-85290476D02*
X138535295Y-85338095D01*
X138535295Y-85338095D02*
X138440057Y-85385714D01*
X138440057Y-85385714D02*
X138392438Y-85433333D01*
X138392438Y-85433333D02*
X138344819Y-85528571D01*
X138342857Y-119084819D02*
X138676190Y-118608628D01*
X138914285Y-119084819D02*
X138914285Y-118084819D01*
X138914285Y-118084819D02*
X138533333Y-118084819D01*
X138533333Y-118084819D02*
X138438095Y-118132438D01*
X138438095Y-118132438D02*
X138390476Y-118180057D01*
X138390476Y-118180057D02*
X138342857Y-118275295D01*
X138342857Y-118275295D02*
X138342857Y-118418152D01*
X138342857Y-118418152D02*
X138390476Y-118513390D01*
X138390476Y-118513390D02*
X138438095Y-118561009D01*
X138438095Y-118561009D02*
X138533333Y-118608628D01*
X138533333Y-118608628D02*
X138914285Y-118608628D01*
X137485714Y-118418152D02*
X137485714Y-119084819D01*
X137723809Y-118037200D02*
X137961904Y-118751485D01*
X137961904Y-118751485D02*
X137342857Y-118751485D01*
X137057142Y-118084819D02*
X136390476Y-118084819D01*
X136390476Y-118084819D02*
X136819047Y-119084819D01*
D12*
%TO.C,G\u002A\u002A\u002A*%
X105400200Y-136894203D02*
X103370317Y-136891412D01*
X103186379Y-136891155D01*
X102980287Y-136890854D01*
X102789937Y-136890556D01*
X102614679Y-136890257D01*
X102453862Y-136889950D01*
X102306836Y-136889630D01*
X102172950Y-136889292D01*
X102051555Y-136888931D01*
X101941999Y-136888540D01*
X101843633Y-136888115D01*
X101755806Y-136887650D01*
X101677867Y-136887139D01*
X101609167Y-136886578D01*
X101549055Y-136885961D01*
X101496881Y-136885282D01*
X101451994Y-136884536D01*
X101413744Y-136883717D01*
X101381481Y-136882821D01*
X101354554Y-136881842D01*
X101332313Y-136880774D01*
X101314107Y-136879612D01*
X101299287Y-136878351D01*
X101287202Y-136876984D01*
X101277202Y-136875507D01*
X101268635Y-136873915D01*
X101228565Y-136865071D01*
X101096213Y-136825799D01*
X100971814Y-136772350D01*
X100853099Y-136703797D01*
X100771596Y-136644626D01*
X100672768Y-136555377D01*
X100584394Y-136454699D01*
X100508009Y-136344613D01*
X100445151Y-136227142D01*
X100397356Y-136104305D01*
X100393738Y-136091219D01*
X101217322Y-136091219D01*
X101221900Y-136432367D01*
X101306567Y-136433862D01*
X101381687Y-136431762D01*
X101464734Y-136419667D01*
X102055867Y-136419667D01*
X102479200Y-136419667D01*
X102563867Y-136419667D01*
X102987200Y-136419667D01*
X102987200Y-135130617D01*
X103046393Y-135130617D01*
X103046907Y-135132461D01*
X103052078Y-135147603D01*
X103062455Y-135176934D01*
X103077604Y-135219253D01*
X103097090Y-135273361D01*
X103120480Y-135338056D01*
X103147338Y-135412138D01*
X103177231Y-135494405D01*
X103209723Y-135583658D01*
X103244381Y-135678696D01*
X103280769Y-135778317D01*
X103515220Y-136419667D01*
X103940577Y-136419667D01*
X104062852Y-136022239D01*
X104066795Y-136009435D01*
X104090813Y-135932094D01*
X104113379Y-135860480D01*
X104134002Y-135796089D01*
X104152186Y-135740419D01*
X104167437Y-135694967D01*
X104179262Y-135661230D01*
X104187167Y-135640705D01*
X104190657Y-135634889D01*
X104191756Y-135637846D01*
X104197359Y-135654798D01*
X104207060Y-135684980D01*
X104220258Y-135726467D01*
X104236348Y-135777332D01*
X104254727Y-135835648D01*
X104274793Y-135899489D01*
X104295943Y-135966929D01*
X104317572Y-136036042D01*
X104339078Y-136104901D01*
X104359857Y-136171580D01*
X104379308Y-136234152D01*
X104396825Y-136290692D01*
X104411806Y-136339272D01*
X104423649Y-136377967D01*
X104431749Y-136404851D01*
X104434037Y-136409185D01*
X104439573Y-136412768D01*
X104450239Y-136415431D01*
X104468000Y-136417306D01*
X104494825Y-136418527D01*
X104532681Y-136419228D01*
X104583535Y-136419541D01*
X104649354Y-136419601D01*
X104862567Y-136419534D01*
X105095400Y-135779713D01*
X105110249Y-135738910D01*
X105145870Y-135641023D01*
X105179654Y-135548180D01*
X105211164Y-135461588D01*
X105239958Y-135382457D01*
X105265598Y-135311992D01*
X105287644Y-135251401D01*
X105305657Y-135201892D01*
X105319198Y-135164674D01*
X105327827Y-135140952D01*
X105331104Y-135131935D01*
X105329526Y-135130683D01*
X105314318Y-135128569D01*
X105284090Y-135127034D01*
X105240114Y-135126111D01*
X105183665Y-135125835D01*
X105116015Y-135126239D01*
X104898056Y-135128501D01*
X104776568Y-135539134D01*
X104771546Y-135556109D01*
X104747817Y-135636326D01*
X104725467Y-135711903D01*
X104704984Y-135781186D01*
X104686858Y-135842515D01*
X104671580Y-135894235D01*
X104659637Y-135934688D01*
X104651521Y-135962218D01*
X104647721Y-135975167D01*
X104646530Y-135979096D01*
X104640504Y-135991710D01*
X104635550Y-135987867D01*
X104634927Y-135985982D01*
X104630170Y-135970233D01*
X104621352Y-135940336D01*
X104608929Y-135897862D01*
X104593357Y-135844382D01*
X104575095Y-135781468D01*
X104554599Y-135710692D01*
X104532325Y-135633623D01*
X104508732Y-135551834D01*
X104386726Y-135128501D01*
X103973786Y-135128501D01*
X103846923Y-135563167D01*
X103818684Y-135659451D01*
X103791563Y-135750746D01*
X103768661Y-135826383D01*
X103749865Y-135886721D01*
X103735059Y-135932119D01*
X103724131Y-135962937D01*
X103716965Y-135979533D01*
X103713446Y-135982267D01*
X103712465Y-135979478D01*
X103707103Y-135962433D01*
X103697833Y-135932009D01*
X103685201Y-135890056D01*
X103669754Y-135838426D01*
X103652037Y-135778968D01*
X103632597Y-135713534D01*
X103611981Y-135643973D01*
X103590735Y-135572136D01*
X103569405Y-135499873D01*
X103548538Y-135429036D01*
X103528681Y-135361473D01*
X103510379Y-135299037D01*
X103494180Y-135243577D01*
X103480629Y-135196943D01*
X103470274Y-135160987D01*
X103463660Y-135137558D01*
X103461333Y-135128508D01*
X103456719Y-135127619D01*
X103437421Y-135126537D01*
X103405200Y-135125614D01*
X103362347Y-135124897D01*
X103311150Y-135124432D01*
X103253900Y-135124267D01*
X103210430Y-135124408D01*
X103157503Y-135124999D01*
X103112345Y-135125985D01*
X103077246Y-135127297D01*
X103054499Y-135128865D01*
X103046393Y-135130617D01*
X102987200Y-135130617D01*
X102987200Y-135124267D01*
X102563867Y-135124267D01*
X102563867Y-136419667D01*
X102479200Y-136419667D01*
X102479200Y-135124267D01*
X102055867Y-135124267D01*
X102055867Y-135790749D01*
X102055867Y-136419667D01*
X101464734Y-136419667D01*
X101486637Y-136416477D01*
X101584423Y-136387182D01*
X101673935Y-136344443D01*
X101754064Y-136288824D01*
X101823699Y-136220889D01*
X101881731Y-136141204D01*
X101915277Y-136075855D01*
X101945983Y-135986681D01*
X101965010Y-135890648D01*
X101972346Y-135790749D01*
X101967980Y-135689974D01*
X101951901Y-135591314D01*
X101924097Y-135497763D01*
X101884556Y-135412311D01*
X101884270Y-135411807D01*
X101859162Y-135375103D01*
X101823940Y-135333433D01*
X101782509Y-135290605D01*
X101738774Y-135250429D01*
X101696639Y-135216714D01*
X101660009Y-135193268D01*
X101610957Y-135169845D01*
X101506698Y-135133511D01*
X101398819Y-135113028D01*
X101289634Y-135108923D01*
X101221900Y-135111567D01*
X101219615Y-135286207D01*
X101217330Y-135460846D01*
X101292172Y-135464425D01*
X101338333Y-135468956D01*
X101389377Y-135482495D01*
X101431372Y-135506018D01*
X101467894Y-135541084D01*
X101503090Y-135594586D01*
X101528159Y-135658681D01*
X101541962Y-135728852D01*
X101544097Y-135801451D01*
X101534162Y-135872829D01*
X101511755Y-135939336D01*
X101491362Y-135977957D01*
X101454303Y-136025328D01*
X101409046Y-136058745D01*
X101353943Y-136079300D01*
X101287344Y-136088084D01*
X101217322Y-136091219D01*
X100393738Y-136091219D01*
X100375722Y-136026058D01*
X100353093Y-135896368D01*
X100345386Y-135764246D01*
X100352424Y-135632074D01*
X100374030Y-135502233D01*
X100410027Y-135377102D01*
X100460238Y-135259062D01*
X100495567Y-135194080D01*
X100572086Y-135079521D01*
X100660785Y-134975951D01*
X100760658Y-134884243D01*
X100870701Y-134805267D01*
X100989912Y-134739894D01*
X101117284Y-134688996D01*
X101121015Y-134687754D01*
X101136468Y-134682436D01*
X101150432Y-134677474D01*
X101163503Y-134672855D01*
X101176274Y-134668567D01*
X101189339Y-134664598D01*
X101203293Y-134660935D01*
X101218730Y-134657567D01*
X101236245Y-134654481D01*
X101256430Y-134651665D01*
X101279881Y-134649107D01*
X101307192Y-134646794D01*
X101338958Y-134644714D01*
X101375771Y-134642855D01*
X101418228Y-134641205D01*
X101466921Y-134639751D01*
X101522446Y-134638481D01*
X101585395Y-134637384D01*
X101656365Y-134636446D01*
X101735948Y-134635655D01*
X101824739Y-134635000D01*
X101923333Y-134634468D01*
X102032324Y-134634047D01*
X102152305Y-134633724D01*
X102283871Y-134633488D01*
X102427617Y-134633325D01*
X102584136Y-134633225D01*
X102754023Y-134633174D01*
X102937873Y-134633160D01*
X103136278Y-134633172D01*
X103349834Y-134633196D01*
X103579135Y-134633221D01*
X103824775Y-134633235D01*
X103868416Y-134633235D01*
X104111393Y-134633226D01*
X104338133Y-134633208D01*
X104549229Y-134633193D01*
X104745275Y-134633193D01*
X104926865Y-134633220D01*
X105094592Y-134633288D01*
X105249049Y-134633407D01*
X105390832Y-134633590D01*
X105520532Y-134633850D01*
X105638744Y-134634198D01*
X105746061Y-134634646D01*
X105843077Y-134635208D01*
X105930385Y-134635894D01*
X106008580Y-134636718D01*
X106078254Y-134637692D01*
X106140002Y-134638827D01*
X106194417Y-134640136D01*
X106242092Y-134641631D01*
X106283621Y-134643324D01*
X106319598Y-134645228D01*
X106350616Y-134647355D01*
X106377270Y-134649717D01*
X106400151Y-134652325D01*
X106419855Y-134655193D01*
X106436975Y-134658333D01*
X106452105Y-134661756D01*
X106465837Y-134665475D01*
X106478766Y-134669503D01*
X106491485Y-134673850D01*
X106504588Y-134678531D01*
X106518668Y-134683556D01*
X106534320Y-134688938D01*
X106540009Y-134690857D01*
X106667878Y-134743138D01*
X106787777Y-134809986D01*
X106898416Y-134890581D01*
X106998505Y-134984101D01*
X107063229Y-135058233D01*
X107141888Y-135169297D01*
X107205656Y-135288112D01*
X107254851Y-135415305D01*
X107289797Y-135551502D01*
X107291535Y-135560654D01*
X107301264Y-135633229D01*
X107306425Y-135714866D01*
X107306955Y-135799242D01*
X107302790Y-135880033D01*
X107293864Y-135950916D01*
X107261934Y-136084332D01*
X107215196Y-136210997D01*
X107154681Y-136329761D01*
X107081379Y-136439699D01*
X106996281Y-136539887D01*
X106900377Y-136629400D01*
X106794657Y-136707315D01*
X106680113Y-136772707D01*
X106557734Y-136824651D01*
X106428510Y-136862225D01*
X106293434Y-136884502D01*
X106284247Y-136885327D01*
X106250060Y-136887403D01*
X106203866Y-136889285D01*
X106149227Y-136890865D01*
X106089701Y-136892031D01*
X106028850Y-136892674D01*
X105832000Y-136893801D01*
X105832000Y-136260563D01*
X105880912Y-136308365D01*
X105911842Y-136336245D01*
X105977357Y-136381123D01*
X106049532Y-136412286D01*
X106130268Y-136430450D01*
X106221467Y-136436328D01*
X106259237Y-136435530D01*
X106341272Y-136426878D01*
X106416561Y-136407750D01*
X106490557Y-136376941D01*
X106555494Y-136339008D01*
X106627662Y-136279891D01*
X106689358Y-136208851D01*
X106739982Y-136127091D01*
X106778934Y-136035816D01*
X106805613Y-135936229D01*
X106819419Y-135829533D01*
X106819751Y-135716934D01*
X106818383Y-135696536D01*
X106805021Y-135597171D01*
X106780230Y-135505482D01*
X106742703Y-135416367D01*
X106726253Y-135385322D01*
X106671950Y-135305573D01*
X106606872Y-135238842D01*
X106531359Y-135185387D01*
X106445748Y-135145462D01*
X106350376Y-135119324D01*
X106308105Y-135112560D01*
X106211336Y-135107518D01*
X106119724Y-135117620D01*
X106034334Y-135142597D01*
X105956234Y-135182181D01*
X105886490Y-135236103D01*
X105832000Y-135287075D01*
X105832000Y-135124267D01*
X105400200Y-135124267D01*
X105400200Y-135131935D01*
X105400200Y-136894203D01*
G36*
X105400200Y-136894203D02*
G01*
X103370317Y-136891412D01*
X103186379Y-136891155D01*
X102980287Y-136890854D01*
X102789937Y-136890556D01*
X102614679Y-136890257D01*
X102453862Y-136889950D01*
X102306836Y-136889630D01*
X102172950Y-136889292D01*
X102051555Y-136888931D01*
X101941999Y-136888540D01*
X101843633Y-136888115D01*
X101755806Y-136887650D01*
X101677867Y-136887139D01*
X101609167Y-136886578D01*
X101549055Y-136885961D01*
X101496881Y-136885282D01*
X101451994Y-136884536D01*
X101413744Y-136883717D01*
X101381481Y-136882821D01*
X101354554Y-136881842D01*
X101332313Y-136880774D01*
X101314107Y-136879612D01*
X101299287Y-136878351D01*
X101287202Y-136876984D01*
X101277202Y-136875507D01*
X101268635Y-136873915D01*
X101228565Y-136865071D01*
X101096213Y-136825799D01*
X100971814Y-136772350D01*
X100853099Y-136703797D01*
X100771596Y-136644626D01*
X100672768Y-136555377D01*
X100584394Y-136454699D01*
X100508009Y-136344613D01*
X100445151Y-136227142D01*
X100397356Y-136104305D01*
X100393738Y-136091219D01*
X101217322Y-136091219D01*
X101221900Y-136432367D01*
X101306567Y-136433862D01*
X101381687Y-136431762D01*
X101464734Y-136419667D01*
X102055867Y-136419667D01*
X102479200Y-136419667D01*
X102563867Y-136419667D01*
X102987200Y-136419667D01*
X102987200Y-135130617D01*
X103046393Y-135130617D01*
X103046907Y-135132461D01*
X103052078Y-135147603D01*
X103062455Y-135176934D01*
X103077604Y-135219253D01*
X103097090Y-135273361D01*
X103120480Y-135338056D01*
X103147338Y-135412138D01*
X103177231Y-135494405D01*
X103209723Y-135583658D01*
X103244381Y-135678696D01*
X103280769Y-135778317D01*
X103515220Y-136419667D01*
X103940577Y-136419667D01*
X104062852Y-136022239D01*
X104066795Y-136009435D01*
X104090813Y-135932094D01*
X104113379Y-135860480D01*
X104134002Y-135796089D01*
X104152186Y-135740419D01*
X104167437Y-135694967D01*
X104179262Y-135661230D01*
X104187167Y-135640705D01*
X104190657Y-135634889D01*
X104191756Y-135637846D01*
X104197359Y-135654798D01*
X104207060Y-135684980D01*
X104220258Y-135726467D01*
X104236348Y-135777332D01*
X104254727Y-135835648D01*
X104274793Y-135899489D01*
X104295943Y-135966929D01*
X104317572Y-136036042D01*
X104339078Y-136104901D01*
X104359857Y-136171580D01*
X104379308Y-136234152D01*
X104396825Y-136290692D01*
X104411806Y-136339272D01*
X104423649Y-136377967D01*
X104431749Y-136404851D01*
X104434037Y-136409185D01*
X104439573Y-136412768D01*
X104450239Y-136415431D01*
X104468000Y-136417306D01*
X104494825Y-136418527D01*
X104532681Y-136419228D01*
X104583535Y-136419541D01*
X104649354Y-136419601D01*
X104862567Y-136419534D01*
X105095400Y-135779713D01*
X105110249Y-135738910D01*
X105145870Y-135641023D01*
X105179654Y-135548180D01*
X105211164Y-135461588D01*
X105239958Y-135382457D01*
X105265598Y-135311992D01*
X105287644Y-135251401D01*
X105305657Y-135201892D01*
X105319198Y-135164674D01*
X105327827Y-135140952D01*
X105331104Y-135131935D01*
X105329526Y-135130683D01*
X105314318Y-135128569D01*
X105284090Y-135127034D01*
X105240114Y-135126111D01*
X105183665Y-135125835D01*
X105116015Y-135126239D01*
X104898056Y-135128501D01*
X104776568Y-135539134D01*
X104771546Y-135556109D01*
X104747817Y-135636326D01*
X104725467Y-135711903D01*
X104704984Y-135781186D01*
X104686858Y-135842515D01*
X104671580Y-135894235D01*
X104659637Y-135934688D01*
X104651521Y-135962218D01*
X104647721Y-135975167D01*
X104646530Y-135979096D01*
X104640504Y-135991710D01*
X104635550Y-135987867D01*
X104634927Y-135985982D01*
X104630170Y-135970233D01*
X104621352Y-135940336D01*
X104608929Y-135897862D01*
X104593357Y-135844382D01*
X104575095Y-135781468D01*
X104554599Y-135710692D01*
X104532325Y-135633623D01*
X104508732Y-135551834D01*
X104386726Y-135128501D01*
X103973786Y-135128501D01*
X103846923Y-135563167D01*
X103818684Y-135659451D01*
X103791563Y-135750746D01*
X103768661Y-135826383D01*
X103749865Y-135886721D01*
X103735059Y-135932119D01*
X103724131Y-135962937D01*
X103716965Y-135979533D01*
X103713446Y-135982267D01*
X103712465Y-135979478D01*
X103707103Y-135962433D01*
X103697833Y-135932009D01*
X103685201Y-135890056D01*
X103669754Y-135838426D01*
X103652037Y-135778968D01*
X103632597Y-135713534D01*
X103611981Y-135643973D01*
X103590735Y-135572136D01*
X103569405Y-135499873D01*
X103548538Y-135429036D01*
X103528681Y-135361473D01*
X103510379Y-135299037D01*
X103494180Y-135243577D01*
X103480629Y-135196943D01*
X103470274Y-135160987D01*
X103463660Y-135137558D01*
X103461333Y-135128508D01*
X103456719Y-135127619D01*
X103437421Y-135126537D01*
X103405200Y-135125614D01*
X103362347Y-135124897D01*
X103311150Y-135124432D01*
X103253900Y-135124267D01*
X103210430Y-135124408D01*
X103157503Y-135124999D01*
X103112345Y-135125985D01*
X103077246Y-135127297D01*
X103054499Y-135128865D01*
X103046393Y-135130617D01*
X102987200Y-135130617D01*
X102987200Y-135124267D01*
X102563867Y-135124267D01*
X102563867Y-136419667D01*
X102479200Y-136419667D01*
X102479200Y-135124267D01*
X102055867Y-135124267D01*
X102055867Y-135790749D01*
X102055867Y-136419667D01*
X101464734Y-136419667D01*
X101486637Y-136416477D01*
X101584423Y-136387182D01*
X101673935Y-136344443D01*
X101754064Y-136288824D01*
X101823699Y-136220889D01*
X101881731Y-136141204D01*
X101915277Y-136075855D01*
X101945983Y-135986681D01*
X101965010Y-135890648D01*
X101972346Y-135790749D01*
X101967980Y-135689974D01*
X101951901Y-135591314D01*
X101924097Y-135497763D01*
X101884556Y-135412311D01*
X101884270Y-135411807D01*
X101859162Y-135375103D01*
X101823940Y-135333433D01*
X101782509Y-135290605D01*
X101738774Y-135250429D01*
X101696639Y-135216714D01*
X101660009Y-135193268D01*
X101610957Y-135169845D01*
X101506698Y-135133511D01*
X101398819Y-135113028D01*
X101289634Y-135108923D01*
X101221900Y-135111567D01*
X101219615Y-135286207D01*
X101217330Y-135460846D01*
X101292172Y-135464425D01*
X101338333Y-135468956D01*
X101389377Y-135482495D01*
X101431372Y-135506018D01*
X101467894Y-135541084D01*
X101503090Y-135594586D01*
X101528159Y-135658681D01*
X101541962Y-135728852D01*
X101544097Y-135801451D01*
X101534162Y-135872829D01*
X101511755Y-135939336D01*
X101491362Y-135977957D01*
X101454303Y-136025328D01*
X101409046Y-136058745D01*
X101353943Y-136079300D01*
X101287344Y-136088084D01*
X101217322Y-136091219D01*
X100393738Y-136091219D01*
X100375722Y-136026058D01*
X100353093Y-135896368D01*
X100345386Y-135764246D01*
X100352424Y-135632074D01*
X100374030Y-135502233D01*
X100410027Y-135377102D01*
X100460238Y-135259062D01*
X100495567Y-135194080D01*
X100572086Y-135079521D01*
X100660785Y-134975951D01*
X100760658Y-134884243D01*
X100870701Y-134805267D01*
X100989912Y-134739894D01*
X101117284Y-134688996D01*
X101121015Y-134687754D01*
X101136468Y-134682436D01*
X101150432Y-134677474D01*
X101163503Y-134672855D01*
X101176274Y-134668567D01*
X101189339Y-134664598D01*
X101203293Y-134660935D01*
X101218730Y-134657567D01*
X101236245Y-134654481D01*
X101256430Y-134651665D01*
X101279881Y-134649107D01*
X101307192Y-134646794D01*
X101338958Y-134644714D01*
X101375771Y-134642855D01*
X101418228Y-134641205D01*
X101466921Y-134639751D01*
X101522446Y-134638481D01*
X101585395Y-134637384D01*
X101656365Y-134636446D01*
X101735948Y-134635655D01*
X101824739Y-134635000D01*
X101923333Y-134634468D01*
X102032324Y-134634047D01*
X102152305Y-134633724D01*
X102283871Y-134633488D01*
X102427617Y-134633325D01*
X102584136Y-134633225D01*
X102754023Y-134633174D01*
X102937873Y-134633160D01*
X103136278Y-134633172D01*
X103349834Y-134633196D01*
X103579135Y-134633221D01*
X103824775Y-134633235D01*
X103868416Y-134633235D01*
X104111393Y-134633226D01*
X104338133Y-134633208D01*
X104549229Y-134633193D01*
X104745275Y-134633193D01*
X104926865Y-134633220D01*
X105094592Y-134633288D01*
X105249049Y-134633407D01*
X105390832Y-134633590D01*
X105520532Y-134633850D01*
X105638744Y-134634198D01*
X105746061Y-134634646D01*
X105843077Y-134635208D01*
X105930385Y-134635894D01*
X106008580Y-134636718D01*
X106078254Y-134637692D01*
X106140002Y-134638827D01*
X106194417Y-134640136D01*
X106242092Y-134641631D01*
X106283621Y-134643324D01*
X106319598Y-134645228D01*
X106350616Y-134647355D01*
X106377270Y-134649717D01*
X106400151Y-134652325D01*
X106419855Y-134655193D01*
X106436975Y-134658333D01*
X106452105Y-134661756D01*
X106465837Y-134665475D01*
X106478766Y-134669503D01*
X106491485Y-134673850D01*
X106504588Y-134678531D01*
X106518668Y-134683556D01*
X106534320Y-134688938D01*
X106540009Y-134690857D01*
X106667878Y-134743138D01*
X106787777Y-134809986D01*
X106898416Y-134890581D01*
X106998505Y-134984101D01*
X107063229Y-135058233D01*
X107141888Y-135169297D01*
X107205656Y-135288112D01*
X107254851Y-135415305D01*
X107289797Y-135551502D01*
X107291535Y-135560654D01*
X107301264Y-135633229D01*
X107306425Y-135714866D01*
X107306955Y-135799242D01*
X107302790Y-135880033D01*
X107293864Y-135950916D01*
X107261934Y-136084332D01*
X107215196Y-136210997D01*
X107154681Y-136329761D01*
X107081379Y-136439699D01*
X106996281Y-136539887D01*
X106900377Y-136629400D01*
X106794657Y-136707315D01*
X106680113Y-136772707D01*
X106557734Y-136824651D01*
X106428510Y-136862225D01*
X106293434Y-136884502D01*
X106284247Y-136885327D01*
X106250060Y-136887403D01*
X106203866Y-136889285D01*
X106149227Y-136890865D01*
X106089701Y-136892031D01*
X106028850Y-136892674D01*
X105832000Y-136893801D01*
X105832000Y-136260563D01*
X105880912Y-136308365D01*
X105911842Y-136336245D01*
X105977357Y-136381123D01*
X106049532Y-136412286D01*
X106130268Y-136430450D01*
X106221467Y-136436328D01*
X106259237Y-136435530D01*
X106341272Y-136426878D01*
X106416561Y-136407750D01*
X106490557Y-136376941D01*
X106555494Y-136339008D01*
X106627662Y-136279891D01*
X106689358Y-136208851D01*
X106739982Y-136127091D01*
X106778934Y-136035816D01*
X106805613Y-135936229D01*
X106819419Y-135829533D01*
X106819751Y-135716934D01*
X106818383Y-135696536D01*
X106805021Y-135597171D01*
X106780230Y-135505482D01*
X106742703Y-135416367D01*
X106726253Y-135385322D01*
X106671950Y-135305573D01*
X106606872Y-135238842D01*
X106531359Y-135185387D01*
X106445748Y-135145462D01*
X106350376Y-135119324D01*
X106308105Y-135112560D01*
X106211336Y-135107518D01*
X106119724Y-135117620D01*
X106034334Y-135142597D01*
X105956234Y-135182181D01*
X105886490Y-135236103D01*
X105832000Y-135287075D01*
X105832000Y-135124267D01*
X105400200Y-135124267D01*
X105400200Y-135131935D01*
X105400200Y-136894203D01*
G37*
X100594240Y-136739983D02*
X100576281Y-136778179D01*
X100545736Y-136816206D01*
X100504163Y-136850986D01*
X100447255Y-136877927D01*
X100442740Y-136879225D01*
X100409971Y-136882786D01*
X100370121Y-136880491D01*
X100330356Y-136873128D01*
X100297843Y-136861486D01*
X100296647Y-136860871D01*
X100250872Y-136828428D01*
X100215424Y-136785704D01*
X100191419Y-136735919D01*
X100182246Y-136692956D01*
X100228009Y-136692956D01*
X100241033Y-136738374D01*
X100267822Y-136778159D01*
X100270265Y-136780658D01*
X100294934Y-136801238D01*
X100321980Y-136818376D01*
X100335412Y-136824123D01*
X100376862Y-136832874D01*
X100421150Y-136832502D01*
X100459900Y-136822742D01*
X100473768Y-136815369D01*
X100505372Y-136790260D01*
X100532562Y-136758521D01*
X100549579Y-136726339D01*
X100555465Y-136697516D01*
X100555447Y-136654294D01*
X100547328Y-136612073D01*
X100531979Y-136578199D01*
X100512850Y-136553700D01*
X100480707Y-136527271D01*
X100441806Y-136512904D01*
X100392063Y-136508567D01*
X100363387Y-136509123D01*
X100337970Y-136512248D01*
X100317816Y-136519595D01*
X100296491Y-136532796D01*
X100267304Y-136559044D01*
X100241567Y-136599678D01*
X100228328Y-136645520D01*
X100228009Y-136692956D01*
X100182246Y-136692956D01*
X100179970Y-136682295D01*
X100182192Y-136628052D01*
X100199201Y-136576412D01*
X100223368Y-136540251D01*
X100259154Y-136503985D01*
X100299034Y-136476327D01*
X100319593Y-136467265D01*
X100350881Y-136460308D01*
X100392167Y-136458270D01*
X100410982Y-136458768D01*
X100462368Y-136467335D01*
X100505774Y-136487993D01*
X100545736Y-136522642D01*
X100562405Y-136541627D01*
X100586491Y-136578972D01*
X100599171Y-136619504D01*
X100602861Y-136669434D01*
X100602027Y-136695416D01*
X100601660Y-136697516D01*
X100594240Y-136739983D01*
G36*
X100594240Y-136739983D02*
G01*
X100576281Y-136778179D01*
X100545736Y-136816206D01*
X100504163Y-136850986D01*
X100447255Y-136877927D01*
X100442740Y-136879225D01*
X100409971Y-136882786D01*
X100370121Y-136880491D01*
X100330356Y-136873128D01*
X100297843Y-136861486D01*
X100296647Y-136860871D01*
X100250872Y-136828428D01*
X100215424Y-136785704D01*
X100191419Y-136735919D01*
X100182246Y-136692956D01*
X100228009Y-136692956D01*
X100241033Y-136738374D01*
X100267822Y-136778159D01*
X100270265Y-136780658D01*
X100294934Y-136801238D01*
X100321980Y-136818376D01*
X100335412Y-136824123D01*
X100376862Y-136832874D01*
X100421150Y-136832502D01*
X100459900Y-136822742D01*
X100473768Y-136815369D01*
X100505372Y-136790260D01*
X100532562Y-136758521D01*
X100549579Y-136726339D01*
X100555465Y-136697516D01*
X100555447Y-136654294D01*
X100547328Y-136612073D01*
X100531979Y-136578199D01*
X100512850Y-136553700D01*
X100480707Y-136527271D01*
X100441806Y-136512904D01*
X100392063Y-136508567D01*
X100363387Y-136509123D01*
X100337970Y-136512248D01*
X100317816Y-136519595D01*
X100296491Y-136532796D01*
X100267304Y-136559044D01*
X100241567Y-136599678D01*
X100228328Y-136645520D01*
X100228009Y-136692956D01*
X100182246Y-136692956D01*
X100179970Y-136682295D01*
X100182192Y-136628052D01*
X100199201Y-136576412D01*
X100223368Y-136540251D01*
X100259154Y-136503985D01*
X100299034Y-136476327D01*
X100319593Y-136467265D01*
X100350881Y-136460308D01*
X100392167Y-136458270D01*
X100410982Y-136458768D01*
X100462368Y-136467335D01*
X100505774Y-136487993D01*
X100545736Y-136522642D01*
X100562405Y-136541627D01*
X100586491Y-136578972D01*
X100599171Y-136619504D01*
X100602861Y-136669434D01*
X100602027Y-136695416D01*
X100601660Y-136697516D01*
X100594240Y-136739983D01*
G37*
X106156623Y-135458986D02*
X106220478Y-135476108D01*
X106275176Y-135506958D01*
X106320028Y-135550743D01*
X106354346Y-135606674D01*
X106377441Y-135673959D01*
X106388623Y-135751806D01*
X106389382Y-135795025D01*
X106380795Y-135870755D01*
X106359800Y-135938061D01*
X106327198Y-135995688D01*
X106283789Y-136042379D01*
X106230375Y-136076879D01*
X106167756Y-136097934D01*
X106159768Y-136099407D01*
X106105890Y-136101984D01*
X106048770Y-136094273D01*
X105996368Y-136077235D01*
X105964804Y-136060294D01*
X105915371Y-136019528D01*
X105876979Y-135967068D01*
X105850242Y-135904143D01*
X105835770Y-135831979D01*
X105834178Y-135751806D01*
X105834465Y-135747275D01*
X105843028Y-135679551D01*
X105859831Y-135623366D01*
X105886433Y-135574893D01*
X105924394Y-135530301D01*
X105965676Y-135495228D01*
X106013813Y-135469661D01*
X106067755Y-135457145D01*
X106131309Y-135456320D01*
X106156623Y-135458986D01*
G36*
X106156623Y-135458986D02*
G01*
X106220478Y-135476108D01*
X106275176Y-135506958D01*
X106320028Y-135550743D01*
X106354346Y-135606674D01*
X106377441Y-135673959D01*
X106388623Y-135751806D01*
X106389382Y-135795025D01*
X106380795Y-135870755D01*
X106359800Y-135938061D01*
X106327198Y-135995688D01*
X106283789Y-136042379D01*
X106230375Y-136076879D01*
X106167756Y-136097934D01*
X106159768Y-136099407D01*
X106105890Y-136101984D01*
X106048770Y-136094273D01*
X105996368Y-136077235D01*
X105964804Y-136060294D01*
X105915371Y-136019528D01*
X105876979Y-135967068D01*
X105850242Y-135904143D01*
X105835770Y-135831979D01*
X105834178Y-135751806D01*
X105834465Y-135747275D01*
X105843028Y-135679551D01*
X105859831Y-135623366D01*
X105886433Y-135574893D01*
X105924394Y-135530301D01*
X105965676Y-135495228D01*
X106013813Y-135469661D01*
X106067755Y-135457145D01*
X106131309Y-135456320D01*
X106156623Y-135458986D01*
G37*
X100472600Y-136766801D02*
X100451434Y-136766801D01*
X100438965Y-136765411D01*
X100431848Y-136757207D01*
X100430267Y-136737167D01*
X100428994Y-136717904D01*
X100422220Y-136709274D01*
X100405703Y-136707534D01*
X100396030Y-136708271D01*
X100379114Y-136716522D01*
X100363655Y-136737167D01*
X100355320Y-136749921D01*
X100340206Y-136763278D01*
X100320366Y-136766801D01*
X100294560Y-136766801D01*
X100338488Y-136700421D01*
X100320877Y-136682811D01*
X100311581Y-136670187D01*
X100303371Y-136640970D01*
X100304916Y-136626715D01*
X100345845Y-136626715D01*
X100350739Y-136646151D01*
X100366507Y-136657615D01*
X100395146Y-136663571D01*
X100430267Y-136666174D01*
X100430267Y-136596494D01*
X100395146Y-136599097D01*
X100379599Y-136601277D01*
X100356039Y-136611149D01*
X100345845Y-136626715D01*
X100304916Y-136626715D01*
X100306754Y-136609753D01*
X100321676Y-136583196D01*
X100323226Y-136581574D01*
X100334756Y-136572112D01*
X100349381Y-136566673D01*
X100371708Y-136564191D01*
X100406343Y-136563601D01*
X100472600Y-136563601D01*
X100472600Y-136666174D01*
X100472600Y-136766801D01*
G36*
X100472600Y-136766801D02*
G01*
X100451434Y-136766801D01*
X100438965Y-136765411D01*
X100431848Y-136757207D01*
X100430267Y-136737167D01*
X100428994Y-136717904D01*
X100422220Y-136709274D01*
X100405703Y-136707534D01*
X100396030Y-136708271D01*
X100379114Y-136716522D01*
X100363655Y-136737167D01*
X100355320Y-136749921D01*
X100340206Y-136763278D01*
X100320366Y-136766801D01*
X100294560Y-136766801D01*
X100338488Y-136700421D01*
X100320877Y-136682811D01*
X100311581Y-136670187D01*
X100303371Y-136640970D01*
X100304916Y-136626715D01*
X100345845Y-136626715D01*
X100350739Y-136646151D01*
X100366507Y-136657615D01*
X100395146Y-136663571D01*
X100430267Y-136666174D01*
X100430267Y-136596494D01*
X100395146Y-136599097D01*
X100379599Y-136601277D01*
X100356039Y-136611149D01*
X100345845Y-136626715D01*
X100304916Y-136626715D01*
X100306754Y-136609753D01*
X100321676Y-136583196D01*
X100323226Y-136581574D01*
X100334756Y-136572112D01*
X100349381Y-136566673D01*
X100371708Y-136564191D01*
X100406343Y-136563601D01*
X100472600Y-136563601D01*
X100472600Y-136666174D01*
X100472600Y-136766801D01*
G37*
D13*
%TO.C,R63*%
X122246359Y-89045000D02*
X122553641Y-89045000D01*
X122246359Y-89805000D02*
X122553641Y-89805000D01*
%TO.C,Q4*%
X175300000Y-82290000D02*
X175950000Y-82290000D01*
X175300000Y-85410000D02*
X175950000Y-85410000D01*
X176600000Y-82290000D02*
X175950000Y-82290000D01*
X176600000Y-85410000D02*
X175950000Y-85410000D01*
X175027500Y-85690000D02*
X174547500Y-85690000D01*
X174787500Y-85360000D01*
X175027500Y-85690000D01*
G36*
X175027500Y-85690000D02*
G01*
X174547500Y-85690000D01*
X174787500Y-85360000D01*
X175027500Y-85690000D01*
G37*
%TO.C,C32*%
X125342164Y-89590000D02*
X125557836Y-89590000D01*
X125342164Y-90310000D02*
X125557836Y-90310000D01*
%TO.C,C43*%
X132040000Y-75792164D02*
X132040000Y-76007836D01*
X132760000Y-75792164D02*
X132760000Y-76007836D01*
%TO.C,C19*%
X178756250Y-107403750D02*
X178756250Y-108191250D01*
X179150000Y-107797500D02*
X178362500Y-107797500D01*
X179390000Y-104890000D02*
X179390000Y-103604437D01*
X179390000Y-107010000D02*
X179390000Y-108295563D01*
X180454437Y-102540000D02*
X179390000Y-103604437D01*
X180454437Y-109360000D02*
X179390000Y-108295563D01*
X186210000Y-102540000D02*
X180454437Y-102540000D01*
X186210000Y-104890000D02*
X186210000Y-102540000D01*
X186210000Y-107010000D02*
X186210000Y-109360000D01*
X186210000Y-109360000D02*
X180454437Y-109360000D01*
%TO.C,JP1*%
X163000000Y-128650000D02*
X163000000Y-127250000D01*
X163700000Y-126550000D02*
X164300000Y-126550000D01*
X164300000Y-129350000D02*
X163700000Y-129350000D01*
X165000000Y-127250000D02*
X165000000Y-128650000D01*
X163000000Y-127250000D02*
G75*
G02*
X163700000Y-126550000I700000J0D01*
G01*
X163700000Y-129350000D02*
G75*
G02*
X163000000Y-128650000I-1J699999D01*
G01*
X164300000Y-126550000D02*
G75*
G02*
X165000000Y-127250000I0J-700000D01*
G01*
X165000000Y-128650000D02*
G75*
G02*
X164300000Y-129350000I-699999J-1D01*
G01*
%TO.C,R7*%
X121337258Y-117577500D02*
X120862742Y-117577500D01*
X121337258Y-118622500D02*
X120862742Y-118622500D01*
%TO.C,R33*%
X112000000Y-61800000D02*
X120000000Y-61800000D01*
X120000000Y-50300000D02*
X180000000Y-50300000D01*
X120000000Y-65800000D02*
X112000000Y-65800000D01*
X120000000Y-69300000D02*
X180000000Y-69300000D01*
X120000000Y-70300000D02*
X180000000Y-70300000D01*
X120000000Y-71300000D02*
X120000000Y-50300000D01*
X180000000Y-50300000D02*
X180000000Y-71300000D01*
X180000000Y-56300000D02*
X120000000Y-56300000D01*
X180000000Y-57300000D02*
X120000000Y-57300000D01*
X180000000Y-58300000D02*
X120000000Y-58300000D01*
X180000000Y-59300000D02*
X120000000Y-59300000D01*
X180000000Y-61800000D02*
X188000000Y-61800000D01*
X180000000Y-66800000D02*
X180000000Y-63800000D01*
X180000000Y-68300000D02*
X120000000Y-68300000D01*
X180000000Y-71300000D02*
X120000000Y-71300000D01*
X188000000Y-65800000D02*
X180000000Y-65800000D01*
%TO.C,R50*%
X122553641Y-83120000D02*
X122246359Y-83120000D01*
X122553641Y-83880000D02*
X122246359Y-83880000D01*
%TO.C,R45*%
X161570000Y-81653641D02*
X161570000Y-81346359D01*
X162330000Y-81653641D02*
X162330000Y-81346359D01*
%TO.C,SW3*%
X195480000Y-144300000D02*
X195480000Y-142600000D01*
X195480000Y-145800000D02*
X195480000Y-145600000D01*
X196530000Y-147650000D02*
X197320000Y-147650000D01*
X197320000Y-140750000D02*
X196530000Y-140750000D01*
X198330000Y-144100000D02*
X199620000Y-144100000D01*
X198330000Y-147050000D02*
X198330000Y-141350000D01*
X199620000Y-142800000D02*
X198330000Y-142800000D01*
X199830000Y-143000000D02*
X199620000Y-142800000D01*
X199830000Y-143900000D02*
X199620000Y-144100000D01*
X199830000Y-143900000D02*
X199830000Y-143000000D01*
%TO.C,C84*%
X112334420Y-68590000D02*
X112615580Y-68590000D01*
X112334420Y-69610000D02*
X112615580Y-69610000D01*
%TO.C,C25*%
X171740000Y-91482836D02*
X171740000Y-91267164D01*
X172460000Y-91482836D02*
X172460000Y-91267164D01*
%TO.C,C52*%
X168442164Y-89340000D02*
X168657836Y-89340000D01*
X168442164Y-90060000D02*
X168657836Y-90060000D01*
%TO.C,C14*%
X176640000Y-99357836D02*
X176640000Y-99142164D01*
X177360000Y-99357836D02*
X177360000Y-99142164D01*
%TO.C,R60*%
X121146359Y-55220000D02*
X121453641Y-55220000D01*
X121146359Y-55980000D02*
X121453641Y-55980000D01*
%TO.C,C10*%
X110140000Y-101592164D02*
X110140000Y-101807836D01*
X110860000Y-101592164D02*
X110860000Y-101807836D01*
%TO.C,J17*%
D14*
X129450000Y-149975000D02*
X144450000Y-149975000D01*
X144450000Y-135475000D01*
X129450000Y-135475000D01*
X129450000Y-149975000D01*
D13*
%TO.C,C12*%
X167742164Y-96490000D02*
X167957836Y-96490000D01*
X167742164Y-97210000D02*
X167957836Y-97210000D01*
%TO.C,R59*%
X115253641Y-55480000D02*
X114946359Y-55480000D01*
X115253641Y-56240000D02*
X114946359Y-56240000D01*
%TO.C,L4*%
X115500000Y-67400000D02*
X115500000Y-65900000D01*
X115500000Y-71200000D02*
X115500000Y-72700000D01*
X115500000Y-72700000D02*
X122900000Y-72700000D01*
X122900000Y-65900000D02*
X115500000Y-65900000D01*
X122900000Y-67400000D02*
X122900000Y-65900000D01*
X122900000Y-71200000D02*
X122900000Y-72700000D01*
%TO.C,SW2*%
X195450000Y-133300000D02*
X195450000Y-131600000D01*
X195450000Y-134800000D02*
X195450000Y-134600000D01*
X196500000Y-136650000D02*
X197290000Y-136650000D01*
X197290000Y-129750000D02*
X196500000Y-129750000D01*
X198300000Y-133100000D02*
X199590000Y-133100000D01*
X198300000Y-136050000D02*
X198300000Y-130350000D01*
X199590000Y-131800000D02*
X198300000Y-131800000D01*
X199800000Y-132000000D02*
X199590000Y-131800000D01*
X199800000Y-132900000D02*
X199590000Y-133100000D01*
X199800000Y-132900000D02*
X199800000Y-132000000D01*
%TO.C,C28*%
X134090000Y-108740580D02*
X134090000Y-108459420D01*
X135110000Y-108740580D02*
X135110000Y-108459420D01*
%TO.C,C36*%
X125342164Y-90540000D02*
X125557836Y-90540000D01*
X125342164Y-91260000D02*
X125557836Y-91260000D01*
%TO.C,C1*%
X140840580Y-115190000D02*
X140559420Y-115190000D01*
X140840580Y-116210000D02*
X140559420Y-116210000D01*
%TO.C,C54*%
X120842164Y-98390000D02*
X121057836Y-98390000D01*
X120842164Y-99110000D02*
X121057836Y-99110000D01*
%TO.C,R3*%
X140937258Y-116677500D02*
X140462742Y-116677500D01*
X140937258Y-117722500D02*
X140462742Y-117722500D01*
%TO.C,R18*%
X109753641Y-129220000D02*
X109446359Y-129220000D01*
X109753641Y-129980000D02*
X109446359Y-129980000D01*
%TO.C,LS2*%
X145500000Y-95300000D02*
X154500000Y-95300000D01*
X145500000Y-97300000D02*
X154500000Y-97300000D01*
X145500000Y-108300000D02*
X154500000Y-108300000D01*
X145500000Y-110300000D02*
X154500000Y-110300000D01*
X145500000Y-108300000D02*
G75*
G02*
X145500000Y-97300000I0J5500000D01*
G01*
X145500000Y-110300000D02*
G75*
G02*
X145500000Y-95300000I0J7500000D01*
G01*
X154500000Y-95300000D02*
G75*
G02*
X154500000Y-110300000I0J-7500000D01*
G01*
X154500000Y-97300000D02*
G75*
G02*
X154500000Y-108300000I0J-5500000D01*
G01*
%TO.C,C45*%
X152092164Y-90840000D02*
X152307836Y-90840000D01*
X152092164Y-91560000D02*
X152307836Y-91560000D01*
%TO.C,R65*%
X122553641Y-80920000D02*
X122246359Y-80920000D01*
X122553641Y-81680000D02*
X122246359Y-81680000D01*
%TO.C,R54*%
X186453641Y-118420000D02*
X186146359Y-118420000D01*
X186453641Y-119180000D02*
X186146359Y-119180000D01*
%TO.C,R55*%
X190770000Y-110303641D02*
X190770000Y-109996359D01*
X191530000Y-110303641D02*
X191530000Y-109996359D01*
D11*
%TO.C,J14*%
X187925000Y-102100000D02*
X187925000Y-107000000D01*
X187925000Y-107000000D02*
X189175000Y-107000000D01*
X189675000Y-101000000D02*
X193475000Y-101000000D01*
X191375000Y-107000000D02*
X196175000Y-107000000D01*
X195675000Y-101000000D02*
X197175000Y-101000000D01*
X198375000Y-107000000D02*
X199975000Y-107000000D01*
X199975000Y-101000000D02*
X199375000Y-101000000D01*
D13*
%TO.C,C29*%
X119790000Y-120540580D02*
X119790000Y-120259420D01*
X120810000Y-120540580D02*
X120810000Y-120259420D01*
%TO.C,U8*%
X132200000Y-123840000D02*
X133000000Y-123840000D01*
X132200000Y-126960000D02*
X133000000Y-126960000D01*
X133800000Y-126960000D02*
X133000000Y-126960000D01*
X134800000Y-123840000D02*
X133000000Y-123840000D01*
%TO.C,D13*%
X178100000Y-85050000D02*
X178100000Y-81040000D01*
X180100000Y-81040000D02*
X178100000Y-81040000D01*
X180100000Y-85050000D02*
X180100000Y-81040000D01*
%TO.C,LS1*%
X179990000Y-92740000D02*
X179990000Y-94860000D01*
X179990000Y-92740000D02*
X182050000Y-92740000D01*
X179990000Y-94860000D02*
X182050000Y-94860000D01*
X182050000Y-92740000D02*
X182050000Y-94860000D01*
X184110000Y-93800000D02*
X184110000Y-94860000D01*
X184110000Y-94860000D02*
X183050000Y-94860000D01*
%TO.C,C35*%
X124240000Y-81792164D02*
X124240000Y-82007836D01*
X124960000Y-81792164D02*
X124960000Y-82007836D01*
%TO.C,C16*%
X185607836Y-91690000D02*
X185392164Y-91690000D01*
X185607836Y-92410000D02*
X185392164Y-92410000D01*
%TO.C,C47*%
X137742164Y-90840000D02*
X137957836Y-90840000D01*
X137742164Y-91560000D02*
X137957836Y-91560000D01*
%TO.C,C80*%
X121588748Y-63590000D02*
X123011252Y-63590000D01*
X121588748Y-65410000D02*
X123011252Y-65410000D01*
%TO.C,R24*%
X176421359Y-100620000D02*
X176728641Y-100620000D01*
X176421359Y-101380000D02*
X176728641Y-101380000D01*
%TO.C,C60*%
X171092164Y-74940000D02*
X171307836Y-74940000D01*
X171092164Y-75660000D02*
X171307836Y-75660000D01*
%TO.C,C17*%
X185607836Y-92640000D02*
X185392164Y-92640000D01*
X185607836Y-93360000D02*
X185392164Y-93360000D01*
%TO.C,J13*%
X100000000Y-67350000D02*
X100000000Y-76350000D01*
X100000000Y-67350000D02*
X101350000Y-67350000D01*
X100000000Y-76350000D02*
X101350000Y-76350000D01*
X104050000Y-67350000D02*
X105050000Y-67350000D01*
X104050000Y-76350000D02*
X105050000Y-76350000D01*
%TO.C,R28*%
X121337258Y-116077500D02*
X120862742Y-116077500D01*
X121337258Y-117122500D02*
X120862742Y-117122500D01*
%TO.C,C26*%
X137640000Y-133107836D02*
X137640000Y-132892164D01*
X138360000Y-133107836D02*
X138360000Y-132892164D01*
%TO.C,C31*%
X131090000Y-108740580D02*
X131090000Y-108459420D01*
X132110000Y-108740580D02*
X132110000Y-108459420D01*
%TO.C,U10*%
X169215000Y-94640000D02*
X169215000Y-95115000D01*
X169215000Y-99860000D02*
X169215000Y-99385000D01*
X169690000Y-94640000D02*
X169215000Y-94640000D01*
X169690000Y-99860000D02*
X169215000Y-99860000D01*
X173960000Y-94640000D02*
X174435000Y-94640000D01*
X174195000Y-99860000D02*
X173960000Y-99860000D01*
X174435000Y-94640000D02*
X174435000Y-95115000D01*
X174435000Y-99560000D02*
X174435000Y-99385000D01*
X174765000Y-100100000D02*
X174435000Y-99860000D01*
X174765000Y-99620000D01*
X174765000Y-100100000D01*
G36*
X174765000Y-100100000D02*
G01*
X174435000Y-99860000D01*
X174765000Y-99620000D01*
X174765000Y-100100000D01*
G37*
%TO.C,C53*%
X170340000Y-145327836D02*
X170340000Y-145112164D01*
X171060000Y-145327836D02*
X171060000Y-145112164D01*
%TO.C,FB1*%
X177990000Y-101862779D02*
X177990000Y-101537221D01*
X179010000Y-101862779D02*
X179010000Y-101537221D01*
%TO.C,C27*%
X144590000Y-114057836D02*
X144590000Y-113842164D01*
X145310000Y-114057836D02*
X145310000Y-113842164D01*
%TO.C,C59*%
X168492164Y-58040000D02*
X168707836Y-58040000D01*
X168492164Y-58760000D02*
X168707836Y-58760000D01*
%TO.C,R58*%
X146020000Y-137703641D02*
X146020000Y-137396359D01*
X146780000Y-137703641D02*
X146780000Y-137396359D01*
%TO.C,C56*%
X117659420Y-143690000D02*
X117940580Y-143690000D01*
X117659420Y-144710000D02*
X117940580Y-144710000D01*
%TO.C,C48*%
X157657836Y-90840000D02*
X157442164Y-90840000D01*
X157657836Y-91560000D02*
X157442164Y-91560000D01*
%TO.C,C22*%
X175640000Y-99492164D02*
X175640000Y-99707836D01*
X176360000Y-99492164D02*
X176360000Y-99707836D01*
%TO.C,R35*%
X160620000Y-81346359D02*
X160620000Y-81653641D01*
X161380000Y-81346359D02*
X161380000Y-81653641D01*
%TO.C,D3*%
X180465000Y-139395000D02*
X181265000Y-139395000D01*
X180465000Y-140325000D02*
X180465000Y-139395000D01*
X180465000Y-141625000D02*
X180465000Y-142555000D01*
X181925000Y-142555000D02*
X180465000Y-142555000D01*
X182065000Y-139395000D02*
X181265000Y-139395000D01*
X182565000Y-139365000D02*
X182325000Y-139035000D01*
X182805000Y-139035000D01*
X182565000Y-139365000D01*
G36*
X182565000Y-139365000D02*
G01*
X182325000Y-139035000D01*
X182805000Y-139035000D01*
X182565000Y-139365000D01*
G37*
%TO.C,C23*%
X174592164Y-100640000D02*
X174807836Y-100640000D01*
X174592164Y-101360000D02*
X174807836Y-101360000D01*
%TO.C,R39*%
X168570000Y-77753641D02*
X168570000Y-77446359D01*
X169330000Y-77753641D02*
X169330000Y-77446359D01*
%TO.C,C83*%
X112359420Y-67090000D02*
X112640580Y-67090000D01*
X112359420Y-68110000D02*
X112640580Y-68110000D01*
%TO.C,C15*%
X175807836Y-94840000D02*
X175592164Y-94840000D01*
X175807836Y-95560000D02*
X175592164Y-95560000D01*
%TO.C,R15*%
X148665000Y-63177064D02*
X148665000Y-61722936D01*
X150485000Y-63177064D02*
X150485000Y-61722936D01*
%TO.C,U27*%
X120390000Y-57800000D02*
X120390000Y-59600000D01*
X123610000Y-57800000D02*
X123610000Y-58600000D01*
X123610000Y-59400000D02*
X123610000Y-58600000D01*
X123890000Y-60140000D02*
X123560000Y-59900000D01*
X123890000Y-59660000D01*
X123890000Y-60140000D01*
G36*
X123890000Y-60140000D02*
G01*
X123560000Y-59900000D01*
X123890000Y-59660000D01*
X123890000Y-60140000D01*
G37*
%TO.C,R10*%
X110153641Y-102720000D02*
X109846359Y-102720000D01*
X110153641Y-103480000D02*
X109846359Y-103480000D01*
%TO.C,C30*%
X132590000Y-108740580D02*
X132590000Y-108459420D01*
X133610000Y-108740580D02*
X133610000Y-108459420D01*
%TO.C,U12*%
X119200000Y-148500000D02*
X118200000Y-148500000D01*
X119200000Y-149500000D02*
X119200000Y-148500000D01*
X121200000Y-146500000D02*
X118200000Y-146500000D01*
X118200000Y-149500000D01*
X121200000Y-149500000D01*
X121200000Y-146500000D01*
X120200000Y-148500000D02*
G75*
G02*
X119200000Y-148500000I-500000J0D01*
G01*
X119200000Y-148500000D02*
G75*
G02*
X120200000Y-148500000I500000J0D01*
G01*
%TO.C,R62*%
X151453641Y-113220000D02*
X151146359Y-113220000D01*
X151453641Y-113980000D02*
X151146359Y-113980000D01*
D11*
%TO.C,U1*%
X179625000Y-138355000D02*
X181025000Y-138355000D01*
X181025000Y-133495000D02*
X181025000Y-133350000D01*
X181025000Y-138355000D02*
X181025000Y-138500000D01*
X185175000Y-133350000D02*
X181025000Y-133350000D01*
X185175000Y-133495000D02*
X185175000Y-133350000D01*
X185175000Y-138355000D02*
X185175000Y-138500000D01*
X185175000Y-138500000D02*
X181025000Y-138500000D01*
D13*
%TO.C,C49*%
X127742164Y-89590000D02*
X127957836Y-89590000D01*
X127742164Y-90310000D02*
X127957836Y-90310000D01*
%TO.C,U5*%
X125590000Y-81590000D02*
X126065000Y-81590000D01*
X125590000Y-82065000D02*
X125590000Y-81590000D01*
X125590000Y-88335000D02*
X125590000Y-88810000D01*
X125590000Y-88810000D02*
X126065000Y-88810000D01*
X132510000Y-81590000D02*
X132335000Y-81590000D01*
X132810000Y-81830000D02*
X132810000Y-82065000D01*
X132810000Y-88335000D02*
X132810000Y-88810000D01*
X132810000Y-88810000D02*
X132335000Y-88810000D01*
X132810000Y-81590000D02*
X132570000Y-81260000D01*
X133050000Y-81260000D01*
X132810000Y-81590000D01*
G36*
X132810000Y-81590000D02*
G01*
X132570000Y-81260000D01*
X133050000Y-81260000D01*
X132810000Y-81590000D01*
G37*
D11*
%TO.C,J16*%
X187925000Y-113100000D02*
X187925000Y-118000000D01*
X187925000Y-118000000D02*
X189175000Y-118000000D01*
X189675000Y-112000000D02*
X193475000Y-112000000D01*
X191375000Y-118000000D02*
X196175000Y-118000000D01*
X195675000Y-112000000D02*
X197175000Y-112000000D01*
X198375000Y-118000000D02*
X199975000Y-118000000D01*
X199975000Y-112000000D02*
X199375000Y-112000000D01*
D13*
%TO.C,J11*%
X100615000Y-140260000D02*
X100615000Y-144140000D01*
X105085000Y-139090000D02*
X102585000Y-139090000D01*
X105085000Y-140140000D02*
X105085000Y-139090000D01*
X105085000Y-144260000D02*
X105085000Y-145310000D01*
X105085000Y-145310000D02*
X102585000Y-145310000D01*
X106075000Y-144260000D02*
X105085000Y-144260000D01*
%TO.C,U9*%
X117140000Y-98190000D02*
X117140000Y-98565000D01*
X117140000Y-101110000D02*
X117140000Y-100435000D01*
X117315000Y-101110000D02*
X117140000Y-101110000D01*
X119685000Y-97890000D02*
X119860000Y-97890000D01*
X119685000Y-101110000D02*
X119860000Y-101110000D01*
X119860000Y-97890000D02*
X119860000Y-98565000D01*
X119860000Y-101110000D02*
X119860000Y-100435000D01*
X117140000Y-97890000D02*
X116950000Y-98030000D01*
X116950000Y-97750000D01*
X117140000Y-97890000D01*
G36*
X117140000Y-97890000D02*
G01*
X116950000Y-98030000D01*
X116950000Y-97750000D01*
X117140000Y-97890000D01*
G37*
%TO.C,U4*%
X148200000Y-130410000D02*
X148200000Y-131160000D01*
X148200000Y-149160000D02*
X148200000Y-155910000D01*
X148200000Y-149970000D02*
X166200000Y-149970000D01*
X149200000Y-130410000D02*
X148200000Y-130410000D01*
X165200000Y-130410000D02*
X166200000Y-130410000D01*
X166200000Y-130410000D02*
X166200000Y-131160000D01*
X166200000Y-149160000D02*
X166200000Y-155910000D01*
X166200000Y-155910000D02*
X148200000Y-155910000D01*
%TO.C,C20*%
X183342164Y-116215000D02*
X183557836Y-116215000D01*
X183342164Y-116935000D02*
X183557836Y-116935000D01*
%TO.C,R43*%
X146320000Y-145053641D02*
X146320000Y-144746359D01*
X147080000Y-145053641D02*
X147080000Y-144746359D01*
%TO.C,R30*%
X184020000Y-67953641D02*
X184020000Y-67646359D01*
X184780000Y-67953641D02*
X184780000Y-67646359D01*
%TO.C,C18*%
X178756250Y-100303750D02*
X178756250Y-101091250D01*
X179150000Y-100697500D02*
X178362500Y-100697500D01*
X179390000Y-97790000D02*
X179390000Y-96504437D01*
X179390000Y-99910000D02*
X179390000Y-101195563D01*
X180454437Y-95440000D02*
X179390000Y-96504437D01*
X180454437Y-102260000D02*
X179390000Y-101195563D01*
X186210000Y-95440000D02*
X180454437Y-95440000D01*
X186210000Y-97790000D02*
X186210000Y-95440000D01*
X186210000Y-99910000D02*
X186210000Y-102260000D01*
X186210000Y-102260000D02*
X180454437Y-102260000D01*
%TO.C,Y1*%
X135450000Y-86250000D02*
X139450000Y-86250000D01*
X139450000Y-86250000D02*
X139450000Y-82950000D01*
%TO.C,L1*%
X119250000Y-110300000D02*
X119250000Y-108800000D01*
X119250000Y-114100000D02*
X119250000Y-115600000D01*
X119250000Y-115600000D02*
X126650000Y-115600000D01*
X126650000Y-108800000D02*
X119250000Y-108800000D01*
X126650000Y-110300000D02*
X126650000Y-108800000D01*
X126650000Y-114100000D02*
X126650000Y-115600000D01*
%TO.C,Q3*%
X124850000Y-58380000D02*
X124850000Y-59020000D01*
X124850000Y-60220000D02*
X124850000Y-61420000D01*
X124850000Y-62620000D02*
X124850000Y-63820000D01*
X124850000Y-65020000D02*
X124850000Y-66221000D01*
X124850000Y-67420000D02*
X124850000Y-68620000D01*
X125010000Y-58380000D02*
X126210000Y-58380000D01*
X125010000Y-68620000D02*
X126210000Y-68620000D01*
X127410000Y-58380000D02*
X128610000Y-58380000D01*
X127410000Y-68620000D02*
X128610000Y-68620000D01*
X129810000Y-58380000D02*
X131010000Y-58380000D01*
X129810000Y-68620000D02*
X131010000Y-68620000D01*
X131250000Y-58380000D02*
X131250000Y-68620000D01*
X131250000Y-58380000D02*
X140740000Y-58380000D01*
X131250000Y-68620000D02*
X140740000Y-68620000D01*
X140740000Y-58380000D02*
X140740000Y-68620000D01*
X140740000Y-60960000D02*
X143280000Y-60960000D01*
X140740000Y-63500000D02*
X143280000Y-63500000D01*
X140740000Y-66040000D02*
X143280000Y-66040000D01*
%TO.C,J7*%
X154165000Y-80715000D02*
X154165000Y-88335000D01*
X154165000Y-88335000D02*
X160135000Y-88335000D01*
X154925000Y-81475000D02*
X157875000Y-81475000D01*
X154925000Y-84525000D02*
X154925000Y-81475000D01*
X154925000Y-84525000D02*
X154925000Y-87575000D01*
X154925000Y-87575000D02*
X157875000Y-87575000D01*
X157875000Y-81475000D02*
X157875000Y-80725000D01*
X157875000Y-87575000D02*
X157875000Y-88325000D01*
X159175000Y-88625000D02*
X160425000Y-88625000D01*
X159375000Y-80725000D02*
X159375000Y-82525000D01*
X159375000Y-82525000D02*
X160125000Y-82525000D01*
X159375000Y-84025000D02*
X159375000Y-85025000D01*
X159375000Y-85025000D02*
X160125000Y-85025000D01*
X159375000Y-86525000D02*
X159375000Y-88325000D01*
X159375000Y-88325000D02*
X160125000Y-88325000D01*
X160125000Y-80725000D02*
X159375000Y-80725000D01*
X160125000Y-82525000D02*
X160125000Y-80725000D01*
X160125000Y-84025000D02*
X159375000Y-84025000D01*
X160125000Y-85025000D02*
X160125000Y-84025000D01*
X160125000Y-86525000D02*
X159375000Y-86525000D01*
X160125000Y-88325000D02*
X160125000Y-86525000D01*
X160135000Y-80715000D02*
X154165000Y-80715000D01*
X160135000Y-88335000D02*
X160135000Y-80715000D01*
X160425000Y-88625000D02*
X160425000Y-87375000D01*
%TO.C,R22*%
X177446359Y-57120000D02*
X177753641Y-57120000D01*
X177446359Y-57880000D02*
X177753641Y-57880000D01*
%TO.C,C34*%
X133440000Y-80792164D02*
X133440000Y-81007836D01*
X134160000Y-80792164D02*
X134160000Y-81007836D01*
%TO.C,R37*%
X171770000Y-105103641D02*
X171770000Y-104796359D01*
X172530000Y-105103641D02*
X172530000Y-104796359D01*
D11*
%TO.C,J3*%
X187925000Y-91100000D02*
X187925000Y-96000000D01*
X187925000Y-96000000D02*
X189175000Y-96000000D01*
X189675000Y-90000000D02*
X193475000Y-90000000D01*
X191375000Y-96000000D02*
X196175000Y-96000000D01*
X195675000Y-90000000D02*
X197175000Y-90000000D01*
X198375000Y-96000000D02*
X199975000Y-96000000D01*
X199975000Y-90000000D02*
X199375000Y-90000000D01*
D13*
%TO.C,R40*%
X170253641Y-134420000D02*
X169946359Y-134420000D01*
X170253641Y-135180000D02*
X169946359Y-135180000D01*
%TO.C,C37*%
X127742164Y-90540000D02*
X127957836Y-90540000D01*
X127742164Y-91260000D02*
X127957836Y-91260000D01*
%TO.C,BT1*%
X110700000Y-117550000D02*
X188700000Y-117550000D01*
X110700000Y-137650000D02*
X110700000Y-117550000D01*
X188700000Y-117550000D02*
X188700000Y-137650000D01*
X188700000Y-137650000D02*
X110700000Y-137650000D01*
%TO.C,R8*%
X185346359Y-131520000D02*
X185653641Y-131520000D01*
X185346359Y-132280000D02*
X185653641Y-132280000D01*
%TO.C,R12*%
X146120000Y-70653641D02*
X146120000Y-70346359D01*
X146880000Y-70653641D02*
X146880000Y-70346359D01*
%TO.C,C58*%
X128292164Y-100340000D02*
X128507836Y-100340000D01*
X128292164Y-101060000D02*
X128507836Y-101060000D01*
%TO.C,R53*%
X173253641Y-76120000D02*
X172946359Y-76120000D01*
X173253641Y-76880000D02*
X172946359Y-76880000D01*
%TO.C,R61*%
X135420000Y-133153641D02*
X135420000Y-132846359D01*
X136180000Y-133153641D02*
X136180000Y-132846359D01*
%TO.C,C5*%
X167840000Y-142392164D02*
X167840000Y-142607836D01*
X168560000Y-142392164D02*
X168560000Y-142607836D01*
%TO.C,C9*%
X110140000Y-97892164D02*
X110140000Y-98107836D01*
X110860000Y-97892164D02*
X110860000Y-98107836D01*
%TO.C,R25*%
X188353641Y-118420000D02*
X188046359Y-118420000D01*
X188353641Y-119180000D02*
X188046359Y-119180000D01*
%TO.C,C21*%
X176557836Y-95790000D02*
X176342164Y-95790000D01*
X176557836Y-96510000D02*
X176342164Y-96510000D01*
%TO.C,R4*%
X128446359Y-117320000D02*
X128753641Y-117320000D01*
X128446359Y-118080000D02*
X128753641Y-118080000D01*
%TO.C,R49*%
X134553641Y-84770000D02*
X134246359Y-84770000D01*
X134553641Y-85530000D02*
X134246359Y-85530000D01*
%TO.C,Q5*%
X160690000Y-83700000D02*
X160690000Y-84350000D01*
X160690000Y-85000000D02*
X160690000Y-84350000D01*
X163810000Y-83700000D02*
X163810000Y-84350000D01*
X163810000Y-85000000D02*
X163810000Y-84350000D01*
X160740000Y-83187500D02*
X160410000Y-83427500D01*
X160410000Y-82947500D01*
X160740000Y-83187500D01*
G36*
X160740000Y-83187500D02*
G01*
X160410000Y-83427500D01*
X160410000Y-82947500D01*
X160740000Y-83187500D01*
G37*
%TO.C,R19*%
X109853641Y-126420000D02*
X109546359Y-126420000D01*
X109853641Y-127180000D02*
X109546359Y-127180000D01*
%TO.C,C41*%
X132040000Y-73007836D02*
X132040000Y-72792164D01*
X132760000Y-73007836D02*
X132760000Y-72792164D01*
%TO.C,C7*%
X121390000Y-120540580D02*
X121390000Y-120259420D01*
X122410000Y-120540580D02*
X122410000Y-120259420D01*
%TO.C,R21*%
X189020000Y-148243641D02*
X189020000Y-147936359D01*
X189780000Y-148243641D02*
X189780000Y-147936359D01*
%TO.C,R67*%
X135353641Y-80620000D02*
X135046359Y-80620000D01*
X135353641Y-81380000D02*
X135046359Y-81380000D01*
%TO.C,U11*%
X140210000Y-72090000D02*
X136450000Y-72090000D01*
X140210000Y-73350000D02*
X140210000Y-72090000D01*
X140210000Y-77650000D02*
X140210000Y-78910000D01*
X140210000Y-78910000D02*
X136450000Y-78910000D01*
X135410000Y-79140000D02*
X134930000Y-79140000D01*
X135170000Y-78810000D01*
X135410000Y-79140000D01*
G36*
X135410000Y-79140000D02*
G01*
X134930000Y-79140000D01*
X135170000Y-78810000D01*
X135410000Y-79140000D01*
G37*
%TO.C,R11*%
X172095000Y-85746359D02*
X172095000Y-86053641D01*
X172855000Y-85746359D02*
X172855000Y-86053641D01*
%TO.C,C50*%
X139690000Y-84707836D02*
X139690000Y-84492164D01*
X140410000Y-84707836D02*
X140410000Y-84492164D01*
%TO.C,D2*%
X181220000Y-131100000D02*
X181220000Y-129640000D01*
X182150000Y-129640000D02*
X181220000Y-129640000D01*
X183450000Y-129640000D02*
X184380000Y-129640000D01*
X184380000Y-129640000D02*
X184380000Y-130440000D01*
X184380000Y-131240000D02*
X184380000Y-130440000D01*
X184740000Y-131980000D02*
X184410000Y-131740000D01*
X184740000Y-131500000D01*
X184740000Y-131980000D01*
G36*
X184740000Y-131980000D02*
G01*
X184410000Y-131740000D01*
X184740000Y-131500000D01*
X184740000Y-131980000D01*
G37*
%TO.C,R26*%
X169571359Y-93270000D02*
X169878641Y-93270000D01*
X169571359Y-94030000D02*
X169878641Y-94030000D01*
%TO.C,R51*%
X130596359Y-95620000D02*
X130903641Y-95620000D01*
X130596359Y-96380000D02*
X130903641Y-96380000D01*
D14*
%TO.C,U14*%
X126550000Y-102040000D02*
X126550000Y-101400000D01*
X126550000Y-103400000D02*
X126550000Y-102960000D01*
X126700000Y-101400000D02*
X126550000Y-101400000D01*
X129125000Y-101425000D02*
X128975000Y-101425000D01*
X129250000Y-102040000D02*
X129250000Y-101400000D01*
X129250000Y-103600000D02*
X129100000Y-103600000D01*
X129250000Y-103600000D02*
X129250000Y-102960000D01*
X126550000Y-103960000D02*
X126190000Y-103600000D01*
X126550000Y-103600000D01*
X126550000Y-103960000D01*
G36*
X126550000Y-103960000D02*
G01*
X126190000Y-103600000D01*
X126550000Y-103600000D01*
X126550000Y-103960000D01*
G37*
D13*
%TO.C,C33*%
X132507836Y-80240000D02*
X132292164Y-80240000D01*
X132507836Y-80960000D02*
X132292164Y-80960000D01*
%TO.C,K1*%
X180400000Y-85360000D02*
X180410000Y-78700000D01*
X180900000Y-85360000D02*
X180400000Y-85360000D01*
X180910000Y-78100000D02*
X180910000Y-78700000D01*
X180910000Y-78700000D02*
X180410000Y-78700000D01*
X182410000Y-78100000D02*
X182410000Y-78700000D01*
X182410000Y-78700000D02*
X183810000Y-78700000D01*
X183900000Y-85360000D02*
X182500000Y-85360000D01*
X185500000Y-78660000D02*
X186300000Y-78660000D01*
X186300000Y-85360000D02*
X185500000Y-85360000D01*
X187900000Y-78660000D02*
X188500000Y-78660000D01*
X188500000Y-85360000D02*
X187900000Y-85360000D01*
X190100000Y-78660000D02*
X190600000Y-78660000D01*
X190600000Y-78660000D02*
X190600000Y-85360000D01*
X190600000Y-85360000D02*
X190100000Y-85360000D01*
%TO.C,R48*%
X123046359Y-55220000D02*
X123353641Y-55220000D01*
X123046359Y-55980000D02*
X123353641Y-55980000D01*
%TO.C,C2*%
X146540000Y-148007836D02*
X146540000Y-147792164D01*
X147260000Y-148007836D02*
X147260000Y-147792164D01*
%TO.C,U3*%
X115290000Y-80240000D02*
X117600000Y-80240000D01*
X115290000Y-80515000D02*
X115290000Y-80240000D01*
X115290000Y-89885000D02*
X115290000Y-90160000D01*
X115290000Y-90160000D02*
X117600000Y-90160000D01*
X119910000Y-80240000D02*
X117600000Y-80240000D01*
X119910000Y-80515000D02*
X119910000Y-80240000D01*
X119910000Y-89885000D02*
X119910000Y-90160000D01*
X119910000Y-90160000D02*
X117600000Y-90160000D01*
X114940000Y-90215000D02*
X114460000Y-90215000D01*
X114700000Y-89885000D01*
X114940000Y-90215000D01*
G36*
X114940000Y-90215000D02*
G01*
X114460000Y-90215000D01*
X114700000Y-89885000D01*
X114940000Y-90215000D01*
G37*
%TO.C,R1*%
X183946359Y-148520000D02*
X184253641Y-148520000D01*
X183946359Y-149280000D02*
X184253641Y-149280000D01*
%TO.C,C81*%
X123940000Y-57407836D02*
X123940000Y-57192164D01*
X124660000Y-57407836D02*
X124660000Y-57192164D01*
%TO.C,R52*%
X122553641Y-81920000D02*
X122246359Y-81920000D01*
X122553641Y-82680000D02*
X122246359Y-82680000D01*
%TO.C,U17*%
X159970000Y-65900000D02*
X159970000Y-62300000D01*
X155670000Y-63280000D02*
G75*
G02*
X159961741Y-62288125I2450000J-820000D01*
G01*
X159947684Y-65908445D02*
G75*
G02*
X155670000Y-64880000I-1827684J1808445D01*
G01*
%TO.C,R20*%
X187590000Y-132472936D02*
X187590000Y-133927064D01*
X189410000Y-132472936D02*
X189410000Y-133927064D01*
%TO.C,C3*%
X187440000Y-138392164D02*
X187440000Y-138607836D01*
X188160000Y-138392164D02*
X188160000Y-138607836D01*
%TO.C,R34*%
X118346359Y-75520000D02*
X118653641Y-75520000D01*
X118346359Y-76280000D02*
X118653641Y-76280000D01*
%TO.C,J5*%
X100050000Y-124100000D02*
X100050000Y-133100000D01*
X100050000Y-124100000D02*
X101400000Y-124100000D01*
X100050000Y-133100000D02*
X101400000Y-133100000D01*
X104100000Y-124100000D02*
X105100000Y-124100000D01*
X104100000Y-133100000D02*
X105100000Y-133100000D01*
%TO.C,C55*%
X120842164Y-100340000D02*
X121057836Y-100340000D01*
X120842164Y-101060000D02*
X121057836Y-101060000D01*
%TO.C,R64*%
X130596359Y-94320000D02*
X130903641Y-94320000D01*
X130596359Y-95080000D02*
X130903641Y-95080000D01*
%TO.C,R41*%
X171046359Y-146220000D02*
X171353641Y-146220000D01*
X171046359Y-146980000D02*
X171353641Y-146980000D01*
%TO.C,Q2*%
X186150000Y-64040000D02*
X186800000Y-64040000D01*
X186150000Y-67160000D02*
X186800000Y-67160000D01*
X187450000Y-64040000D02*
X186800000Y-64040000D01*
X187450000Y-67160000D02*
X186800000Y-67160000D01*
X185877500Y-67440000D02*
X185397500Y-67440000D01*
X185637500Y-67110000D01*
X185877500Y-67440000D01*
G36*
X185877500Y-67440000D02*
G01*
X185397500Y-67440000D01*
X185637500Y-67110000D01*
X185877500Y-67440000D01*
G37*
%TO.C,R23*%
X184595000Y-116696359D02*
X184595000Y-117003641D01*
X185355000Y-116696359D02*
X185355000Y-117003641D01*
%TO.C,R36*%
X173620000Y-104796359D02*
X173620000Y-105103641D01*
X174380000Y-104796359D02*
X174380000Y-105103641D01*
%TO.C,C38*%
X112840000Y-89192164D02*
X112840000Y-89407836D01*
X113560000Y-89192164D02*
X113560000Y-89407836D01*
%TO.C,R57*%
X138820000Y-133128641D02*
X138820000Y-132821359D01*
X139580000Y-133128641D02*
X139580000Y-132821359D01*
%TO.C,C44*%
X133040000Y-76007836D02*
X133040000Y-75792164D01*
X133760000Y-76007836D02*
X133760000Y-75792164D01*
%TO.C,R42*%
X184120000Y-122503641D02*
X184120000Y-122196359D01*
X184880000Y-122503641D02*
X184880000Y-122196359D01*
%TO.C,R2*%
X146246359Y-145920000D02*
X146553641Y-145920000D01*
X146246359Y-146680000D02*
X146553641Y-146680000D01*
%TO.C,R14*%
X110153641Y-99020000D02*
X109846359Y-99020000D01*
X110153641Y-99780000D02*
X109846359Y-99780000D01*
%TO.C,C79*%
X121359420Y-62090000D02*
X121640580Y-62090000D01*
X121359420Y-63110000D02*
X121640580Y-63110000D01*
%TO.C,R56*%
X136420000Y-133143641D02*
X136420000Y-132836359D01*
X137180000Y-133143641D02*
X137180000Y-132836359D01*
%TO.C,Q1*%
X147550000Y-65640000D02*
X148200000Y-65640000D01*
X147550000Y-68760000D02*
X148200000Y-68760000D01*
X148850000Y-65640000D02*
X148200000Y-65640000D01*
X148850000Y-68760000D02*
X148200000Y-68760000D01*
X149362500Y-65690000D02*
X149122500Y-65360000D01*
X149602500Y-65360000D01*
X149362500Y-65690000D01*
G36*
X149362500Y-65690000D02*
G01*
X149122500Y-65360000D01*
X149602500Y-65360000D01*
X149362500Y-65690000D01*
G37*
%TO.C,C42*%
X133040000Y-72792164D02*
X133040000Y-73007836D01*
X133760000Y-72792164D02*
X133760000Y-73007836D01*
%TO.C,C40*%
X169892164Y-118240000D02*
X170107836Y-118240000D01*
X169892164Y-118960000D02*
X170107836Y-118960000D01*
%TO.C,C8*%
X110307836Y-95140000D02*
X110092164Y-95140000D01*
X110307836Y-95860000D02*
X110092164Y-95860000D01*
%TO.C,C82*%
X114992164Y-56465000D02*
X115207836Y-56465000D01*
X114992164Y-57185000D02*
X115207836Y-57185000D01*
%TO.C,U24*%
X109190000Y-71900000D02*
X109190000Y-72700000D01*
X109190000Y-73500000D02*
X109190000Y-72700000D01*
X112310000Y-71900000D02*
X112310000Y-72700000D01*
X112310000Y-74500000D02*
X112310000Y-72700000D01*
%TO.C,R29*%
X172871359Y-84070000D02*
X173178641Y-84070000D01*
X172871359Y-84830000D02*
X173178641Y-84830000D01*
%TO.C,R13*%
X146340000Y-63152064D02*
X146340000Y-61697936D01*
X148160000Y-63152064D02*
X148160000Y-61697936D01*
%TO.C,C13*%
X167742164Y-95540000D02*
X167957836Y-95540000D01*
X167742164Y-96260000D02*
X167957836Y-96260000D01*
%TO.C,R16*%
X110153641Y-94020000D02*
X109846359Y-94020000D01*
X110153641Y-94780000D02*
X109846359Y-94780000D01*
%TO.C,C24*%
X173540000Y-91482836D02*
X173540000Y-91267164D01*
X174260000Y-91482836D02*
X174260000Y-91267164D01*
%TO.C,R47*%
X137937258Y-116677500D02*
X137462742Y-116677500D01*
X137937258Y-117722500D02*
X137462742Y-117722500D01*
%TO.C,R6*%
X183346359Y-75820000D02*
X183653641Y-75820000D01*
X183346359Y-76580000D02*
X183653641Y-76580000D01*
%TO.C,C11*%
X179440000Y-145727836D02*
X179440000Y-145512164D01*
X180160000Y-145727836D02*
X180160000Y-145512164D01*
%TO.C,U2*%
X130350000Y-111940000D02*
X132300000Y-111940000D01*
X130350000Y-117060000D02*
X132300000Y-117060000D01*
X134250000Y-111940000D02*
X132300000Y-111940000D01*
X134250000Y-117060000D02*
X132300000Y-117060000D01*
X135000000Y-112035000D02*
X134760000Y-111705000D01*
X135240000Y-111705000D01*
X135000000Y-112035000D01*
G36*
X135000000Y-112035000D02*
G01*
X134760000Y-111705000D01*
X135240000Y-111705000D01*
X135000000Y-112035000D01*
G37*
%TO.C,R38*%
X168703641Y-90820000D02*
X168396359Y-90820000D01*
X168703641Y-91580000D02*
X168396359Y-91580000D01*
%TO.C,R17*%
X130596359Y-96570000D02*
X130903641Y-96570000D01*
X130596359Y-97330000D02*
X130903641Y-97330000D01*
%TO.C,R66*%
X169846359Y-119220000D02*
X170153641Y-119220000D01*
X169846359Y-119980000D02*
X170153641Y-119980000D01*
%TO.C,R44*%
X146320000Y-142856359D02*
X146320000Y-143163641D01*
X147080000Y-142856359D02*
X147080000Y-143163641D01*
%TO.C,R9*%
X118353641Y-142020000D02*
X118046359Y-142020000D01*
X118353641Y-142780000D02*
X118046359Y-142780000D01*
%TO.C,C46*%
X144992164Y-90840000D02*
X145207836Y-90840000D01*
X144992164Y-91560000D02*
X145207836Y-91560000D01*
%TO.C,C61*%
X137192164Y-82040000D02*
X137407836Y-82040000D01*
X137192164Y-82760000D02*
X137407836Y-82760000D01*
%TO.C,R31*%
X184020000Y-66053641D02*
X184020000Y-65746359D01*
X184780000Y-66053641D02*
X184780000Y-65746359D01*
%TO.C,C6*%
X145090000Y-148440580D02*
X145090000Y-148159420D01*
X146110000Y-148440580D02*
X146110000Y-148159420D01*
%TO.C,R46*%
X185672936Y-140665000D02*
X187127064Y-140665000D01*
X185672936Y-142485000D02*
X187127064Y-142485000D01*
%TO.C,FB2*%
X126337221Y-91590000D02*
X126662779Y-91590000D01*
X126337221Y-92610000D02*
X126662779Y-92610000D01*
D11*
%TO.C,U7*%
X181125000Y-148030000D02*
X182525000Y-148030000D01*
X182525000Y-143170000D02*
X182525000Y-143025000D01*
X182525000Y-148030000D02*
X182525000Y-148175000D01*
X186675000Y-143025000D02*
X182525000Y-143025000D01*
X186675000Y-143170000D02*
X186675000Y-143025000D01*
X186675000Y-148030000D02*
X186675000Y-148175000D01*
X186675000Y-148175000D02*
X182525000Y-148175000D01*
D13*
%TO.C,C4*%
X137840580Y-115190000D02*
X137559420Y-115190000D01*
X137840580Y-116210000D02*
X137559420Y-116210000D01*
%TO.C,R27*%
X192453641Y-118920000D02*
X192146359Y-118920000D01*
X192453641Y-119680000D02*
X192146359Y-119680000D01*
%TO.C,C51*%
X111840000Y-87992164D02*
X111840000Y-88207836D01*
X112560000Y-87992164D02*
X112560000Y-88207836D01*
%TO.C,R5*%
X187420000Y-136753641D02*
X187420000Y-136446359D01*
X188180000Y-136753641D02*
X188180000Y-136446359D01*
%TO.C,C57*%
X117240000Y-148392164D02*
X117240000Y-148607836D01*
X117960000Y-148392164D02*
X117960000Y-148607836D01*
%TD*%
D15*
%TO.C,J14*%
X190975000Y-104000000D03*
X196975000Y-104000000D03*
%TD*%
%TO.C,J16*%
X190975000Y-115000000D03*
X196975000Y-115000000D03*
%TD*%
%TO.C,J3*%
X190975000Y-93000000D03*
X196975000Y-93000000D03*
%TD*%
%LPC*%
D16*
%TO.C,J26*%
X120390000Y-77770000D03*
D17*
X120390000Y-76500000D03*
X121660000Y-77770000D03*
X121660000Y-76500000D03*
X122930000Y-77770000D03*
X122930000Y-76500000D03*
X124200000Y-77770000D03*
X124200000Y-76500000D03*
X125470000Y-77770000D03*
X125470000Y-76500000D03*
X126740000Y-77770000D03*
X126740000Y-76500000D03*
X128010000Y-77770000D03*
X128010000Y-76500000D03*
%TD*%
D18*
%TO.C,J12*%
X111600000Y-148380000D03*
D19*
X111600000Y-145840000D03*
X111600000Y-143300000D03*
X111600000Y-140760000D03*
X111600000Y-138220000D03*
X111600000Y-135680000D03*
X111600000Y-133140000D03*
X111600000Y-130600000D03*
%TD*%
D20*
%TO.C,SW9*%
X111600000Y-56800000D03*
X111600000Y-54300000D03*
X111600000Y-51800000D03*
%TD*%
D21*
%TO.C,J32*%
X149550000Y-86980000D03*
D19*
X149550000Y-84440000D03*
X149550000Y-81900000D03*
%TD*%
D18*
%TO.C,J10*%
X114800000Y-110600000D03*
D19*
X114800000Y-113140000D03*
X114800000Y-115680000D03*
X114800000Y-118220000D03*
X114800000Y-120760000D03*
X114800000Y-123300000D03*
%TD*%
D22*
%TO.C,J9*%
X118457500Y-57700000D03*
D23*
X118457500Y-63700000D03*
D24*
X113757500Y-60700000D03*
%TD*%
D25*
%TO.C,J27*%
X108005000Y-110950000D03*
X108005000Y-114450000D03*
X108005000Y-117950000D03*
X108005000Y-121450000D03*
%TD*%
D26*
%TO.C,SW7*%
X175550000Y-91200000D03*
X175550000Y-103700000D03*
X170550000Y-91200000D03*
X170550000Y-103700000D03*
%TD*%
D27*
%TO.C,R32*%
X174800000Y-86400000D03*
X171400000Y-86400000D03*
%TD*%
D28*
%TO.C,U13*%
X181850000Y-124400000D03*
D29*
X183120000Y-122330000D03*
X184390000Y-124400000D03*
%TD*%
D25*
%TO.C,J1*%
X108005000Y-95550000D03*
X108005000Y-99050000D03*
X108005000Y-102550000D03*
X108005000Y-106050000D03*
%TD*%
D30*
%TO.C,J18*%
X191995000Y-89150000D03*
X191995000Y-85650000D03*
X191995000Y-82150000D03*
X191995000Y-78650000D03*
%TD*%
%TO.C,J15*%
X192000000Y-147550000D03*
X192000000Y-144050000D03*
X192000000Y-140550000D03*
X192000000Y-137050000D03*
%TD*%
D25*
%TO.C,J2*%
X108005000Y-137050000D03*
X108005000Y-140550000D03*
X108005000Y-144050000D03*
X108005000Y-147550000D03*
%TD*%
D31*
%TO.C,M1*%
X162540000Y-51500000D03*
D32*
X162540000Y-54040000D03*
X162540000Y-56580000D03*
X162540000Y-59120000D03*
X162540000Y-61660000D03*
X162540000Y-64200000D03*
X182860000Y-64200000D03*
X182860000Y-61660000D03*
X182860000Y-59120000D03*
X182860000Y-56580000D03*
X182860000Y-54040000D03*
X182860000Y-51500000D03*
%TD*%
D26*
%TO.C,SW8*%
X175600000Y-124350000D03*
X175600000Y-136850000D03*
X170600000Y-124350000D03*
X170600000Y-136850000D03*
%TD*%
D33*
%TO.C,J6*%
X168230000Y-143830000D03*
D17*
X169500000Y-143830000D03*
X168230000Y-145100000D03*
X169500000Y-145100000D03*
X168230000Y-146370000D03*
X169500000Y-146370000D03*
%TD*%
D18*
%TO.C,J19*%
X111200000Y-123300000D03*
D19*
X111200000Y-120760000D03*
X111200000Y-118220000D03*
X111200000Y-115680000D03*
X111200000Y-113140000D03*
X111200000Y-110600000D03*
%TD*%
D34*
%TO.C,SW4*%
X134100000Y-110900000D03*
X131600000Y-110900000D03*
X129100000Y-110900000D03*
%TD*%
D18*
%TO.C,J20*%
X115200000Y-130680000D03*
D19*
X115200000Y-133220000D03*
X115200000Y-135760000D03*
X115200000Y-138300000D03*
X115200000Y-140840000D03*
X115200000Y-143380000D03*
X115200000Y-145920000D03*
X115200000Y-148460000D03*
%TD*%
D18*
%TO.C,J4*%
X115000000Y-104600000D03*
D19*
X115000000Y-102060000D03*
X115000000Y-99520000D03*
X115000000Y-96980000D03*
%TD*%
D35*
%TO.C,X3*%
X164880000Y-68300000D03*
X167420000Y-68300000D03*
X169960000Y-68300000D03*
X172500000Y-68300000D03*
X175040000Y-68300000D03*
X177580000Y-68300000D03*
X180120000Y-68300000D03*
%TD*%
D25*
%TO.C,J22*%
X108005000Y-52450000D03*
X108005000Y-55950000D03*
X108005000Y-59450000D03*
X108005000Y-62950000D03*
%TD*%
D18*
%TO.C,U15*%
X168875000Y-62489500D03*
D36*
X168875000Y-59949500D03*
X171415000Y-62489500D03*
X171415000Y-59949500D03*
X173955000Y-62489500D03*
X173955000Y-59949500D03*
X176495000Y-62489500D03*
X176495000Y-59949500D03*
%TD*%
D37*
%TO.C,U21*%
X142380000Y-112000000D03*
D38*
X144920000Y-112000000D03*
X147460000Y-112000000D03*
X150000000Y-112000000D03*
X152540000Y-112000000D03*
X155080000Y-112000000D03*
X157620000Y-112000000D03*
%TD*%
D21*
%TO.C,J33*%
X153150000Y-86980000D03*
D19*
X153150000Y-84440000D03*
X153150000Y-81900000D03*
%TD*%
D39*
%TO.C,U6*%
X165792500Y-51492500D03*
D40*
X165792500Y-53492500D03*
X165792500Y-55492500D03*
X165792500Y-57492500D03*
X165792500Y-59492500D03*
X165792500Y-61492500D03*
X165792500Y-63492500D03*
X165792500Y-65492500D03*
X179392500Y-65492500D03*
X179392500Y-63492500D03*
X179392500Y-61492500D03*
X179392500Y-59492500D03*
X179392500Y-57492500D03*
X179392500Y-55492500D03*
X179392500Y-53492500D03*
X179392500Y-51492500D03*
%TD*%
D15*
%TO.C,MK1*%
X184350000Y-115300000D03*
X182450000Y-115300000D03*
%TD*%
D41*
%TO.C,SW6*%
X175600000Y-106800000D03*
D38*
X170600000Y-106800000D03*
X173100000Y-106800000D03*
D42*
X178700000Y-114300000D03*
X167500000Y-114300000D03*
D38*
X170600000Y-121300000D03*
X175600000Y-121300000D03*
%TD*%
D30*
%TO.C,J24*%
X191995000Y-73750000D03*
X191995000Y-70250000D03*
X191995000Y-66750000D03*
X191995000Y-63250000D03*
%TD*%
D18*
%TO.C,J23*%
X123700000Y-105900000D03*
D19*
X126240000Y-105900000D03*
X128780000Y-105900000D03*
X131320000Y-105900000D03*
X133860000Y-105900000D03*
X136400000Y-105900000D03*
%TD*%
D43*
%TO.C,X1*%
X125000000Y-142505000D03*
X175000000Y-142505000D03*
%TD*%
D44*
%TO.C,C39*%
X112800000Y-83082380D03*
D45*
X112800000Y-80582380D03*
%TD*%
D21*
%TO.C,J31*%
X145950000Y-86980000D03*
D19*
X145950000Y-84440000D03*
X145950000Y-81900000D03*
%TD*%
D46*
%TO.C,J8*%
X132700000Y-94600000D03*
D19*
X132700000Y-97140000D03*
X132700000Y-99680000D03*
X132700000Y-102220000D03*
%TD*%
D25*
%TO.C,J28*%
X108005000Y-80150000D03*
X108005000Y-83650000D03*
X108005000Y-87150000D03*
X108005000Y-90650000D03*
%TD*%
D30*
%TO.C,J21*%
X192000000Y-132150000D03*
X192000000Y-128650000D03*
X192000000Y-125150000D03*
X192000000Y-121650000D03*
%TD*%
D47*
%TO.C,U22*%
X175800000Y-78820000D03*
D15*
X175800000Y-76580000D03*
X174220000Y-75000000D03*
X170400000Y-76580000D03*
X170400000Y-78820000D03*
X171980000Y-80400000D03*
%TD*%
D48*
%TO.C,R63*%
X122910000Y-89425000D03*
X121890000Y-89425000D03*
%TD*%
D49*
%TO.C,Q4*%
X175012500Y-84800000D03*
X175012500Y-82900000D03*
X176887500Y-83850000D03*
%TD*%
D50*
%TO.C,C32*%
X125930000Y-89950000D03*
X124970000Y-89950000D03*
%TD*%
D51*
%TO.C,C43*%
X132400000Y-76380000D03*
X132400000Y-75420000D03*
%TD*%
D52*
%TO.C,C19*%
X180000000Y-105950000D03*
X185600000Y-105950000D03*
%TD*%
D53*
%TO.C,JP1*%
X164000000Y-128600000D03*
D54*
X164000000Y-127300000D03*
%TD*%
D55*
%TO.C,R7*%
X120275000Y-118100000D03*
X121925000Y-118100000D03*
%TD*%
D56*
%TO.C,R33*%
X127750000Y-53800000D03*
X172250000Y-53800000D03*
D57*
X110300000Y-63800000D03*
X189700000Y-63800000D03*
%TD*%
D58*
%TO.C,R50*%
X121890000Y-83500000D03*
X122910000Y-83500000D03*
%TD*%
D59*
%TO.C,R45*%
X161950000Y-80990000D03*
X161950000Y-82010000D03*
%TD*%
D60*
%TO.C,SW3*%
X196930000Y-142700000D03*
X196930000Y-145700000D03*
D61*
X194920000Y-141950000D03*
X194920000Y-144950000D03*
X194920000Y-146450000D03*
D62*
X198030000Y-140050000D03*
X195820000Y-140050000D03*
X198030000Y-148350000D03*
X195820000Y-148350000D03*
%TD*%
D63*
%TO.C,C84*%
X113250000Y-69100000D03*
X111700000Y-69100000D03*
%TD*%
D64*
%TO.C,C25*%
X172100000Y-90895000D03*
X172100000Y-91855000D03*
%TD*%
D50*
%TO.C,C52*%
X169030000Y-89700000D03*
X168070000Y-89700000D03*
%TD*%
D64*
%TO.C,C14*%
X177000000Y-98770000D03*
X177000000Y-99730000D03*
%TD*%
D48*
%TO.C,R60*%
X121810000Y-55600000D03*
X120790000Y-55600000D03*
%TD*%
D51*
%TO.C,C10*%
X110500000Y-102180000D03*
X110500000Y-101220000D03*
%TD*%
D65*
%TO.C,J17*%
X141900000Y-145975000D03*
X133900000Y-145975000D03*
D66*
X134700000Y-134975000D03*
X135800000Y-134975000D03*
X136900000Y-134975000D03*
X138000000Y-134975000D03*
X139100000Y-134975000D03*
X140200000Y-134975000D03*
X141300000Y-134975000D03*
X142400000Y-134975000D03*
X143500000Y-134975000D03*
D67*
X144700000Y-145575000D03*
D68*
X144700000Y-135975000D03*
D69*
X130100000Y-135975000D03*
D67*
X129200000Y-145575000D03*
%TD*%
D50*
%TO.C,C12*%
X168330000Y-96850000D03*
X167370000Y-96850000D03*
%TD*%
D58*
%TO.C,R59*%
X114590000Y-55860000D03*
X115610000Y-55860000D03*
%TD*%
D70*
%TO.C,L4*%
X115675000Y-69300000D03*
X122725000Y-69300000D03*
%TD*%
D60*
%TO.C,SW2*%
X196900000Y-131700000D03*
X196900000Y-134700000D03*
D61*
X194890000Y-130950000D03*
X194890000Y-133950000D03*
X194890000Y-135450000D03*
D62*
X198000000Y-129050000D03*
X195790000Y-129050000D03*
X198000000Y-137350000D03*
X195790000Y-137350000D03*
%TD*%
D71*
%TO.C,C28*%
X134600000Y-107825000D03*
X134600000Y-109375000D03*
%TD*%
D50*
%TO.C,C36*%
X125930000Y-90900000D03*
X124970000Y-90900000D03*
%TD*%
D72*
%TO.C,C1*%
X139925000Y-115700000D03*
X141475000Y-115700000D03*
%TD*%
D50*
%TO.C,C54*%
X121430000Y-98750000D03*
X120470000Y-98750000D03*
%TD*%
D55*
%TO.C,R3*%
X139875000Y-117200000D03*
X141525000Y-117200000D03*
%TD*%
D58*
%TO.C,R18*%
X109090000Y-129600000D03*
X110110000Y-129600000D03*
%TD*%
D73*
%TO.C,LS2*%
X154000000Y-97800000D03*
X150000000Y-97800000D03*
X146000000Y-97800000D03*
X156000000Y-99050000D03*
X152000000Y-99050000D03*
X148000000Y-99050000D03*
X144000000Y-99050000D03*
X158000000Y-100300000D03*
X154000000Y-100300000D03*
X150000000Y-100300000D03*
X146000000Y-100300000D03*
X142000000Y-100300000D03*
X156000000Y-101550000D03*
X152000000Y-101550000D03*
X148000000Y-101550000D03*
X144000000Y-101550000D03*
X158000000Y-102800000D03*
X154000000Y-102800000D03*
X150000000Y-102800000D03*
X146000000Y-102800000D03*
X142000000Y-102800000D03*
X156000000Y-104050000D03*
X152000000Y-104050000D03*
X148000000Y-104050000D03*
X144000000Y-104050000D03*
X158000000Y-105300000D03*
X154000000Y-105300000D03*
X150000000Y-105300000D03*
X146000000Y-105300000D03*
X142000000Y-105300000D03*
X156000000Y-106550000D03*
X152000000Y-106550000D03*
X148000000Y-106550000D03*
X144000000Y-106550000D03*
X154000000Y-107800000D03*
X150000000Y-107800000D03*
X146000000Y-107800000D03*
%TD*%
D50*
%TO.C,C45*%
X152680000Y-91200000D03*
X151720000Y-91200000D03*
%TD*%
D58*
%TO.C,R65*%
X121890000Y-81300000D03*
X122910000Y-81300000D03*
%TD*%
%TO.C,R54*%
X185790000Y-118800000D03*
X186810000Y-118800000D03*
%TD*%
D59*
%TO.C,R55*%
X191150000Y-109640000D03*
X191150000Y-110660000D03*
%TD*%
D15*
%TO.C,J14*%
X190975000Y-104000000D03*
X196975000Y-104000000D03*
D74*
X194575000Y-100500000D03*
X197275000Y-107500000D03*
X198275000Y-100500000D03*
X190275000Y-107500000D03*
X188575000Y-100500000D03*
%TD*%
D71*
%TO.C,C29*%
X120300000Y-119625000D03*
X120300000Y-121175000D03*
%TD*%
D75*
%TO.C,U8*%
X134137500Y-124450000D03*
X134137500Y-125400000D03*
X134137500Y-126350000D03*
X131862500Y-126350000D03*
X131862500Y-125400000D03*
X131862500Y-124450000D03*
%TD*%
D76*
%TO.C,D13*%
X179100000Y-81750000D03*
X179100000Y-85050000D03*
%TD*%
D39*
%TO.C,LS1*%
X183050000Y-93800000D03*
D77*
X181050000Y-93800000D03*
%TD*%
D51*
%TO.C,C35*%
X124600000Y-82380000D03*
X124600000Y-81420000D03*
%TD*%
D78*
%TO.C,C16*%
X185020000Y-92050000D03*
X185980000Y-92050000D03*
%TD*%
D50*
%TO.C,C47*%
X138330000Y-91200000D03*
X137370000Y-91200000D03*
%TD*%
D79*
%TO.C,C80*%
X123775000Y-64500000D03*
X120825000Y-64500000D03*
%TD*%
D48*
%TO.C,R24*%
X177085000Y-101000000D03*
X176065000Y-101000000D03*
%TD*%
D50*
%TO.C,C60*%
X171680000Y-75300000D03*
X170720000Y-75300000D03*
%TD*%
D78*
%TO.C,C17*%
X185020000Y-93000000D03*
X185980000Y-93000000D03*
%TD*%
D80*
%TO.C,J13*%
X106350000Y-74740000D03*
X106350000Y-68960000D03*
D81*
X107600000Y-75050000D03*
X107550000Y-74250000D03*
D82*
X107550000Y-73100000D03*
X107550000Y-72100000D03*
X107550000Y-71600000D03*
X107550000Y-70600000D03*
D81*
X107550000Y-69450000D03*
X107600000Y-68650000D03*
X107600000Y-68650000D03*
X107550000Y-69450000D03*
D82*
X107550000Y-70100000D03*
X107550000Y-71100000D03*
X107550000Y-72600000D03*
X107550000Y-73600000D03*
D81*
X107550000Y-74250000D03*
X107600000Y-75050000D03*
D83*
X102650000Y-76670000D03*
D84*
X106830000Y-76670000D03*
D83*
X102650000Y-67030000D03*
D84*
X106830000Y-67030000D03*
%TD*%
D55*
%TO.C,R28*%
X120275000Y-116600000D03*
X121925000Y-116600000D03*
%TD*%
D64*
%TO.C,C26*%
X138000000Y-132520000D03*
X138000000Y-133480000D03*
%TD*%
D71*
%TO.C,C31*%
X131600000Y-107825000D03*
X131600000Y-109375000D03*
%TD*%
D85*
%TO.C,U10*%
X173575000Y-99700000D03*
X173075000Y-99700000D03*
X172575000Y-99700000D03*
X172075000Y-99700000D03*
X171575000Y-99700000D03*
X171075000Y-99700000D03*
X170575000Y-99700000D03*
X170075000Y-99700000D03*
D86*
X169375000Y-99000000D03*
X169375000Y-98500000D03*
X169375000Y-98000000D03*
X169375000Y-97500000D03*
X169375000Y-97000000D03*
X169375000Y-96500000D03*
X169375000Y-96000000D03*
X169375000Y-95500000D03*
D85*
X170075000Y-94800000D03*
X170575000Y-94800000D03*
X171075000Y-94800000D03*
X171575000Y-94800000D03*
X172075000Y-94800000D03*
X172575000Y-94800000D03*
X173075000Y-94800000D03*
X173575000Y-94800000D03*
D86*
X174275000Y-95500000D03*
X174275000Y-96000000D03*
X174275000Y-96500000D03*
X174275000Y-97000000D03*
X174275000Y-97500000D03*
X174275000Y-98000000D03*
X174275000Y-98500000D03*
X174275000Y-99000000D03*
D87*
X171825000Y-97250000D03*
%TD*%
D64*
%TO.C,C53*%
X170700000Y-144740000D03*
X170700000Y-145700000D03*
%TD*%
D88*
%TO.C,FB1*%
X178500000Y-100912500D03*
X178500000Y-102487500D03*
%TD*%
D64*
%TO.C,C27*%
X144950000Y-113470000D03*
X144950000Y-114430000D03*
%TD*%
D50*
%TO.C,C59*%
X169080000Y-58400000D03*
X168120000Y-58400000D03*
%TD*%
D59*
%TO.C,R58*%
X146400000Y-137040000D03*
X146400000Y-138060000D03*
%TD*%
D63*
%TO.C,C56*%
X118575000Y-144200000D03*
X117025000Y-144200000D03*
%TD*%
D78*
%TO.C,C48*%
X157070000Y-91200000D03*
X158030000Y-91200000D03*
%TD*%
D51*
%TO.C,C22*%
X176000000Y-100080000D03*
X176000000Y-99120000D03*
%TD*%
D89*
%TO.C,R35*%
X161000000Y-82010000D03*
X161000000Y-80990000D03*
%TD*%
D90*
%TO.C,D3*%
X182725000Y-140025000D03*
X182725000Y-141925000D03*
X179725000Y-140975000D03*
%TD*%
D50*
%TO.C,C23*%
X175180000Y-101000000D03*
X174220000Y-101000000D03*
%TD*%
D59*
%TO.C,R39*%
X168950000Y-77090000D03*
X168950000Y-78110000D03*
%TD*%
D63*
%TO.C,C83*%
X113275000Y-67600000D03*
X111725000Y-67600000D03*
%TD*%
D78*
%TO.C,C15*%
X175220000Y-95200000D03*
X176180000Y-95200000D03*
%TD*%
D91*
%TO.C,R15*%
X149575000Y-60987500D03*
X149575000Y-63912500D03*
%TD*%
D92*
%TO.C,U27*%
X122950000Y-60050000D03*
X122000000Y-60050000D03*
X121050000Y-60050000D03*
X121050000Y-57350000D03*
X122000000Y-57350000D03*
X122950000Y-57350000D03*
%TD*%
D58*
%TO.C,R10*%
X109490000Y-103100000D03*
X110510000Y-103100000D03*
%TD*%
D71*
%TO.C,C30*%
X133100000Y-107825000D03*
X133100000Y-109375000D03*
%TD*%
D93*
%TO.C,U12*%
X118700000Y-149000000D03*
X118700000Y-148000000D03*
X118700000Y-147000000D03*
X120700000Y-147000000D03*
X120700000Y-148000000D03*
X120700000Y-149000000D03*
%TD*%
D58*
%TO.C,R62*%
X150790000Y-113600000D03*
X151810000Y-113600000D03*
%TD*%
D94*
%TO.C,U1*%
X180100000Y-137830000D03*
X180100000Y-136560000D03*
X180100000Y-135290000D03*
X180100000Y-134020000D03*
X186100000Y-134020000D03*
X186100000Y-135290000D03*
X186100000Y-136560000D03*
X186100000Y-137830000D03*
%TD*%
D50*
%TO.C,C49*%
X128330000Y-89950000D03*
X127370000Y-89950000D03*
%TD*%
D95*
%TO.C,U5*%
X132637500Y-82450000D03*
X132637500Y-82950000D03*
X132637500Y-83450000D03*
X132637500Y-83950000D03*
X132637500Y-84450000D03*
X132637500Y-84950000D03*
X132637500Y-85450000D03*
X132637500Y-85950000D03*
X132637500Y-86450000D03*
X132637500Y-86950000D03*
X132637500Y-87450000D03*
X132637500Y-87950000D03*
D96*
X131950000Y-88637500D03*
X131450000Y-88637500D03*
X130950000Y-88637500D03*
X130450000Y-88637500D03*
X129950000Y-88637500D03*
X129450000Y-88637500D03*
X128950000Y-88637500D03*
X128450000Y-88637500D03*
X127950000Y-88637500D03*
X127450000Y-88637500D03*
X126950000Y-88637500D03*
X126450000Y-88637500D03*
D95*
X125762500Y-87950000D03*
X125762500Y-87450000D03*
X125762500Y-86950000D03*
X125762500Y-86450000D03*
X125762500Y-85950000D03*
X125762500Y-85450000D03*
X125762500Y-84950000D03*
X125762500Y-84450000D03*
X125762500Y-83950000D03*
X125762500Y-83450000D03*
X125762500Y-82950000D03*
X125762500Y-82450000D03*
D96*
X126450000Y-81762500D03*
X126950000Y-81762500D03*
X127450000Y-81762500D03*
X127950000Y-81762500D03*
X128450000Y-81762500D03*
X128950000Y-81762500D03*
X129450000Y-81762500D03*
X129950000Y-81762500D03*
X130450000Y-81762500D03*
X130950000Y-81762500D03*
X131450000Y-81762500D03*
X131950000Y-81762500D03*
D97*
X129200000Y-85200000D03*
%TD*%
D15*
%TO.C,J16*%
X190975000Y-115000000D03*
X196975000Y-115000000D03*
D74*
X194575000Y-111500000D03*
X197275000Y-118500000D03*
X198275000Y-111500000D03*
X190275000Y-118500000D03*
X188575000Y-111500000D03*
%TD*%
D98*
%TO.C,J11*%
X105300000Y-143700000D03*
X105300000Y-142700000D03*
X105300000Y-141700000D03*
X105300000Y-140700000D03*
D99*
X101425000Y-145000000D03*
X101425000Y-139400000D03*
%TD*%
D100*
%TO.C,U9*%
X117750000Y-98337500D03*
X118250000Y-98337500D03*
X118750000Y-98337500D03*
X119250000Y-98337500D03*
D101*
X119412500Y-99000000D03*
X119412500Y-99500000D03*
X119412500Y-100000000D03*
D100*
X119250000Y-100662500D03*
X118750000Y-100662500D03*
X118250000Y-100662500D03*
X117750000Y-100662500D03*
D101*
X117587500Y-100000000D03*
X117587500Y-99500000D03*
X117587500Y-99000000D03*
%TD*%
D102*
%TO.C,U4*%
X148450000Y-148420000D03*
X148450000Y-147150000D03*
X148450000Y-145880000D03*
X148450000Y-144610000D03*
X148450000Y-143340000D03*
X148450000Y-142070000D03*
X148450000Y-140800000D03*
X148450000Y-139530000D03*
X148450000Y-138260000D03*
X148450000Y-136990000D03*
X148450000Y-135720000D03*
X148450000Y-134450000D03*
X148450000Y-133180000D03*
X148450000Y-131910000D03*
D103*
X150215000Y-130660000D03*
X151485000Y-130660000D03*
X152755000Y-130660000D03*
X154025000Y-130660000D03*
X155295000Y-130660000D03*
X156565000Y-130660000D03*
X157835000Y-130660000D03*
X159105000Y-130660000D03*
X160375000Y-130660000D03*
X161645000Y-130660000D03*
X162915000Y-130660000D03*
X164185000Y-130660000D03*
D102*
X165950000Y-131910000D03*
X165950000Y-133180000D03*
X165950000Y-134450000D03*
X165950000Y-135720000D03*
X165950000Y-136990000D03*
X165950000Y-138260000D03*
X165950000Y-139530000D03*
X165950000Y-140800000D03*
X165950000Y-142070000D03*
X165950000Y-143340000D03*
X165950000Y-144610000D03*
X165950000Y-145880000D03*
X165950000Y-147150000D03*
X165950000Y-148420000D03*
D104*
X154300000Y-139300000D03*
X154300000Y-139300000D03*
X154300000Y-140700000D03*
X154300000Y-142100000D03*
X155700000Y-139300000D03*
X155700000Y-140700000D03*
X155700000Y-142100000D03*
X155700000Y-142100000D03*
X157100000Y-139300000D03*
X157100000Y-140700000D03*
X157100000Y-142100000D03*
%TD*%
D50*
%TO.C,C20*%
X183930000Y-116575000D03*
X182970000Y-116575000D03*
%TD*%
D59*
%TO.C,R43*%
X146700000Y-144390000D03*
X146700000Y-145410000D03*
%TD*%
%TO.C,R30*%
X184400000Y-67290000D03*
X184400000Y-68310000D03*
%TD*%
D52*
%TO.C,C18*%
X180000000Y-98850000D03*
X185600000Y-98850000D03*
%TD*%
D105*
%TO.C,Y1*%
X138550000Y-85450000D03*
X136350000Y-85450000D03*
X136350000Y-83750000D03*
X138550000Y-83750000D03*
%TD*%
D106*
%TO.C,L1*%
X126475000Y-112200000D03*
X119425000Y-112200000D03*
%TD*%
D56*
%TO.C,Q3*%
X127770000Y-63500000D03*
D107*
X144430000Y-66040000D03*
D108*
X144430000Y-63500000D03*
X144430000Y-60960000D03*
%TD*%
D109*
%TO.C,J7*%
X157675000Y-85775000D03*
D110*
X157675000Y-83275000D03*
%TD*%
D48*
%TO.C,R22*%
X178110000Y-57500000D03*
X177090000Y-57500000D03*
%TD*%
D51*
%TO.C,C34*%
X133800000Y-81380000D03*
X133800000Y-80420000D03*
%TD*%
D59*
%TO.C,R37*%
X172150000Y-104440000D03*
X172150000Y-105460000D03*
%TD*%
D15*
%TO.C,J3*%
X190975000Y-93000000D03*
X196975000Y-93000000D03*
D74*
X194575000Y-89500000D03*
X197275000Y-96500000D03*
X198275000Y-89500000D03*
X190275000Y-96500000D03*
X188575000Y-89500000D03*
%TD*%
D58*
%TO.C,R40*%
X169590000Y-134800000D03*
X170610000Y-134800000D03*
%TD*%
D50*
%TO.C,C37*%
X128330000Y-90900000D03*
X127370000Y-90900000D03*
%TD*%
D111*
%TO.C,BT1*%
X122345000Y-127600000D03*
X177955000Y-127600000D03*
D112*
X113700000Y-127600000D03*
D113*
X185700000Y-127600000D03*
%TD*%
D48*
%TO.C,R8*%
X186010000Y-131900000D03*
X184990000Y-131900000D03*
%TD*%
D59*
%TO.C,R12*%
X146500000Y-69990000D03*
X146500000Y-71010000D03*
%TD*%
D50*
%TO.C,C58*%
X128880000Y-100700000D03*
X127920000Y-100700000D03*
%TD*%
D58*
%TO.C,R53*%
X172590000Y-76500000D03*
X173610000Y-76500000D03*
%TD*%
D59*
%TO.C,R61*%
X135800000Y-132490000D03*
X135800000Y-133510000D03*
%TD*%
D51*
%TO.C,C5*%
X168200000Y-142980000D03*
X168200000Y-142020000D03*
%TD*%
%TO.C,C9*%
X110500000Y-98480000D03*
X110500000Y-97520000D03*
%TD*%
D58*
%TO.C,R25*%
X187690000Y-118800000D03*
X188710000Y-118800000D03*
%TD*%
D78*
%TO.C,C21*%
X175970000Y-96150000D03*
X176930000Y-96150000D03*
%TD*%
D48*
%TO.C,R4*%
X129110000Y-117700000D03*
X128090000Y-117700000D03*
%TD*%
D58*
%TO.C,R49*%
X133890000Y-85150000D03*
X134910000Y-85150000D03*
%TD*%
D114*
%TO.C,Q5*%
X161300000Y-83412500D03*
X163200000Y-83412500D03*
X162250000Y-85287500D03*
%TD*%
D58*
%TO.C,R19*%
X109190000Y-126800000D03*
X110210000Y-126800000D03*
%TD*%
D64*
%TO.C,C41*%
X132400000Y-72420000D03*
X132400000Y-73380000D03*
%TD*%
D71*
%TO.C,C7*%
X121900000Y-119625000D03*
X121900000Y-121175000D03*
%TD*%
D59*
%TO.C,R21*%
X189400000Y-147580000D03*
X189400000Y-148600000D03*
%TD*%
D58*
%TO.C,R67*%
X134690000Y-81000000D03*
X135710000Y-81000000D03*
%TD*%
D115*
%TO.C,U11*%
X135150000Y-77800000D03*
X135150000Y-75500000D03*
D116*
X141450000Y-75500000D03*
D115*
X135150000Y-73200000D03*
%TD*%
D89*
%TO.C,R11*%
X172475000Y-86410000D03*
X172475000Y-85390000D03*
%TD*%
D64*
%TO.C,C50*%
X140050000Y-84120000D03*
X140050000Y-85080000D03*
%TD*%
D117*
%TO.C,D2*%
X183750000Y-131900000D03*
X181850000Y-131900000D03*
X182800000Y-128900000D03*
%TD*%
D48*
%TO.C,R26*%
X170235000Y-93650000D03*
X169215000Y-93650000D03*
%TD*%
%TO.C,R51*%
X131260000Y-96000000D03*
X130240000Y-96000000D03*
%TD*%
D118*
%TO.C,U14*%
X126925000Y-103300000D03*
X127575000Y-103300000D03*
X128225000Y-103300000D03*
X128875000Y-103300000D03*
X128875000Y-101700000D03*
X128225000Y-101700000D03*
X127575000Y-101700000D03*
X126925000Y-101700000D03*
%TD*%
D78*
%TO.C,C33*%
X131920000Y-80600000D03*
X132880000Y-80600000D03*
%TD*%
D119*
%TO.C,K1*%
X181700000Y-78500000D03*
X184900000Y-78500000D03*
X187100000Y-78500000D03*
X189300000Y-78500000D03*
X189300000Y-85500000D03*
X187100000Y-85500000D03*
X184900000Y-85500000D03*
X181700000Y-85500000D03*
%TD*%
D48*
%TO.C,R48*%
X123710000Y-55600000D03*
X122690000Y-55600000D03*
%TD*%
D64*
%TO.C,C2*%
X146900000Y-147420000D03*
X146900000Y-148380000D03*
%TD*%
D120*
%TO.C,U3*%
X114737500Y-89425000D03*
X114737500Y-88775000D03*
X114737500Y-88125000D03*
X114737500Y-87475000D03*
X114737500Y-86825000D03*
X114737500Y-86175000D03*
X114737500Y-85525000D03*
X114737500Y-84875000D03*
X114737500Y-84225000D03*
X114737500Y-83575000D03*
X114737500Y-82925000D03*
X114737500Y-82275000D03*
X114737500Y-81625000D03*
X114737500Y-80975000D03*
X120462500Y-80975000D03*
X120462500Y-81625000D03*
X120462500Y-82275000D03*
X120462500Y-82925000D03*
X120462500Y-83575000D03*
X120462500Y-84225000D03*
X120462500Y-84875000D03*
X120462500Y-85525000D03*
X120462500Y-86175000D03*
X120462500Y-86825000D03*
X120462500Y-87475000D03*
X120462500Y-88125000D03*
X120462500Y-88775000D03*
X120462500Y-89425000D03*
D121*
X117600000Y-85200000D03*
%TD*%
D48*
%TO.C,R1*%
X184610000Y-148900000D03*
X183590000Y-148900000D03*
%TD*%
D64*
%TO.C,C81*%
X124300000Y-56820000D03*
X124300000Y-57780000D03*
%TD*%
D58*
%TO.C,R52*%
X121890000Y-82300000D03*
X122910000Y-82300000D03*
%TD*%
D122*
%TO.C,U17*%
X158520000Y-62830000D03*
D123*
X156450000Y-64100000D03*
X158520000Y-65370000D03*
%TD*%
D124*
%TO.C,R20*%
X188500000Y-134750000D03*
X188500000Y-131650000D03*
%TD*%
D51*
%TO.C,C3*%
X187800000Y-138980000D03*
X187800000Y-138020000D03*
%TD*%
D48*
%TO.C,R34*%
X119010000Y-75900000D03*
X117990000Y-75900000D03*
%TD*%
D80*
%TO.C,J5*%
X106400000Y-131490000D03*
X106400000Y-125710000D03*
D81*
X107650000Y-131800000D03*
X107600000Y-131000000D03*
D82*
X107600000Y-129850000D03*
X107600000Y-128850000D03*
X107600000Y-128350000D03*
X107600000Y-127350000D03*
D81*
X107600000Y-126200000D03*
X107650000Y-125400000D03*
X107650000Y-125400000D03*
X107600000Y-126200000D03*
D82*
X107600000Y-126850000D03*
X107600000Y-127850000D03*
X107600000Y-129350000D03*
X107600000Y-130350000D03*
D81*
X107600000Y-131000000D03*
X107650000Y-131800000D03*
D83*
X102700000Y-133420000D03*
D84*
X106880000Y-133420000D03*
D83*
X102700000Y-123780000D03*
D84*
X106880000Y-123780000D03*
%TD*%
D50*
%TO.C,C55*%
X121430000Y-100700000D03*
X120470000Y-100700000D03*
%TD*%
D48*
%TO.C,R64*%
X131260000Y-94700000D03*
X130240000Y-94700000D03*
%TD*%
%TO.C,R41*%
X171710000Y-146600000D03*
X170690000Y-146600000D03*
%TD*%
D49*
%TO.C,Q2*%
X185862500Y-66550000D03*
X185862500Y-64650000D03*
X187737500Y-65600000D03*
%TD*%
D89*
%TO.C,R23*%
X184975000Y-117360000D03*
X184975000Y-116340000D03*
%TD*%
%TO.C,R36*%
X174000000Y-105460000D03*
X174000000Y-104440000D03*
%TD*%
D51*
%TO.C,C38*%
X113200000Y-89780000D03*
X113200000Y-88820000D03*
%TD*%
D59*
%TO.C,R57*%
X139200000Y-132465000D03*
X139200000Y-133485000D03*
%TD*%
D64*
%TO.C,C44*%
X133400000Y-75420000D03*
X133400000Y-76380000D03*
%TD*%
D59*
%TO.C,R42*%
X184500000Y-121840000D03*
X184500000Y-122860000D03*
%TD*%
D48*
%TO.C,R2*%
X146910000Y-146300000D03*
X145890000Y-146300000D03*
%TD*%
D58*
%TO.C,R14*%
X109490000Y-99400000D03*
X110510000Y-99400000D03*
%TD*%
D63*
%TO.C,C79*%
X122275000Y-62600000D03*
X120725000Y-62600000D03*
%TD*%
D59*
%TO.C,R56*%
X136800000Y-132480000D03*
X136800000Y-133500000D03*
%TD*%
D125*
%TO.C,Q1*%
X149137500Y-66250000D03*
X149137500Y-68150000D03*
X147262500Y-67200000D03*
%TD*%
D51*
%TO.C,C42*%
X133400000Y-73380000D03*
X133400000Y-72420000D03*
%TD*%
D50*
%TO.C,C40*%
X170480000Y-118600000D03*
X169520000Y-118600000D03*
%TD*%
D78*
%TO.C,C8*%
X109720000Y-95500000D03*
X110680000Y-95500000D03*
%TD*%
D50*
%TO.C,C82*%
X115580000Y-56825000D03*
X114620000Y-56825000D03*
%TD*%
D126*
%TO.C,U24*%
X111700000Y-73837500D03*
X110750000Y-73837500D03*
X109800000Y-73837500D03*
X109800000Y-71562500D03*
X110750000Y-71562500D03*
X111700000Y-71562500D03*
%TD*%
D48*
%TO.C,R29*%
X173535000Y-84450000D03*
X172515000Y-84450000D03*
%TD*%
D91*
%TO.C,R13*%
X147250000Y-60962500D03*
X147250000Y-63887500D03*
%TD*%
D50*
%TO.C,C13*%
X168330000Y-95900000D03*
X167370000Y-95900000D03*
%TD*%
D58*
%TO.C,R16*%
X109490000Y-94400000D03*
X110510000Y-94400000D03*
%TD*%
D64*
%TO.C,C24*%
X173900000Y-90895000D03*
X173900000Y-91855000D03*
%TD*%
D55*
%TO.C,R47*%
X136875000Y-117200000D03*
X138525000Y-117200000D03*
%TD*%
D48*
%TO.C,R6*%
X184010000Y-76200000D03*
X182990000Y-76200000D03*
%TD*%
D64*
%TO.C,C11*%
X179800000Y-145140000D03*
X179800000Y-146100000D03*
%TD*%
D127*
%TO.C,U2*%
X134775000Y-112595000D03*
X134775000Y-113865000D03*
X134775000Y-115135000D03*
X134775000Y-116405000D03*
X129825000Y-116405000D03*
X129825000Y-115135000D03*
X129825000Y-113865000D03*
X129825000Y-112595000D03*
D128*
X132300000Y-114500000D03*
%TD*%
D58*
%TO.C,R38*%
X168040000Y-91200000D03*
X169060000Y-91200000D03*
%TD*%
D48*
%TO.C,R17*%
X131260000Y-96950000D03*
X130240000Y-96950000D03*
%TD*%
%TO.C,R66*%
X170510000Y-119600000D03*
X169490000Y-119600000D03*
%TD*%
D89*
%TO.C,R44*%
X146700000Y-143520000D03*
X146700000Y-142500000D03*
%TD*%
D58*
%TO.C,R9*%
X117690000Y-142400000D03*
X118710000Y-142400000D03*
%TD*%
D50*
%TO.C,C46*%
X145580000Y-91200000D03*
X144620000Y-91200000D03*
%TD*%
%TO.C,C61*%
X137780000Y-82400000D03*
X136820000Y-82400000D03*
%TD*%
D59*
%TO.C,R31*%
X184400000Y-65390000D03*
X184400000Y-66410000D03*
%TD*%
D71*
%TO.C,C6*%
X145600000Y-147525000D03*
X145600000Y-149075000D03*
%TD*%
D129*
%TO.C,R46*%
X187950000Y-141575000D03*
X184850000Y-141575000D03*
%TD*%
D130*
%TO.C,FB2*%
X127287500Y-92100000D03*
X125712500Y-92100000D03*
%TD*%
D94*
%TO.C,U7*%
X181600000Y-147505000D03*
X181600000Y-146235000D03*
X181600000Y-144965000D03*
X181600000Y-143695000D03*
X187600000Y-143695000D03*
X187600000Y-144965000D03*
X187600000Y-146235000D03*
X187600000Y-147505000D03*
%TD*%
D72*
%TO.C,C4*%
X136925000Y-115700000D03*
X138475000Y-115700000D03*
%TD*%
D58*
%TO.C,R27*%
X191790000Y-119300000D03*
X192810000Y-119300000D03*
%TD*%
D51*
%TO.C,C51*%
X112200000Y-88580000D03*
X112200000Y-87620000D03*
%TD*%
D59*
%TO.C,R5*%
X187800000Y-136090000D03*
X187800000Y-137110000D03*
%TD*%
D51*
%TO.C,C57*%
X117600000Y-148980000D03*
X117600000Y-148020000D03*
%TD*%
%LPD*%
M02*
