%TF.GenerationSoftware,KiCad,Pcbnew,8.0.3*%
%TF.CreationDate,2024-09-04T21:42:18+02:00*%
%TF.ProjectId,labathome_pcb15,6c616261-7468-46f6-9d65-5f7063623135,rev?*%
%TF.SameCoordinates,Original*%
%TF.FileFunction,Paste,Bot*%
%TF.FilePolarity,Positive*%
%FSLAX46Y46*%
G04 Gerber Fmt 4.6, Leading zero omitted, Abs format (unit mm)*
G04 Created by KiCad (PCBNEW 8.0.3) date 2024-09-04 21:42:18*
%MOMM*%
%LPD*%
G01*
G04 APERTURE LIST*
G04 Aperture macros list*
%AMRoundRect*
0 Rectangle with rounded corners*
0 $1 Rounding radius*
0 $2 $3 $4 $5 $6 $7 $8 $9 X,Y pos of 4 corners*
0 Add a 4 corners polygon primitive as box body*
4,1,4,$2,$3,$4,$5,$6,$7,$8,$9,$2,$3,0*
0 Add four circle primitives for the rounded corners*
1,1,$1+$1,$2,$3*
1,1,$1+$1,$4,$5*
1,1,$1+$1,$6,$7*
1,1,$1+$1,$8,$9*
0 Add four rect primitives between the rounded corners*
20,1,$1+$1,$2,$3,$4,$5,0*
20,1,$1+$1,$4,$5,$6,$7,0*
20,1,$1+$1,$6,$7,$8,$9,0*
20,1,$1+$1,$8,$9,$2,$3,0*%
%AMFreePoly0*
4,1,19,0.290204,0.301344,0.321117,0.247801,0.322490,0.232106,0.322490,-0.157228,0.301344,-0.215326,0.296018,-0.221139,0.221139,-0.296018,0.165104,-0.322146,0.157228,-0.322490,-0.232106,-0.322490,-0.290204,-0.301344,-0.321117,-0.247801,-0.322490,-0.232106,-0.322490,0.232106,-0.301344,0.290204,-0.247801,0.321117,-0.232106,0.322490,0.232106,0.322490,0.290204,0.301344,0.290204,0.301344,
$1*%
%AMFreePoly1*
4,1,21,0.231573,0.385173,0.236504,0.380653,0.300030,0.317127,0.322198,0.269587,0.322490,0.262904,0.322490,-0.262904,0.304550,-0.312195,0.300030,-0.317127,0.236504,-0.380653,0.188964,-0.402821,0.182281,-0.403113,-0.245807,-0.403113,-0.295098,-0.385173,-0.321325,-0.339746,-0.322490,-0.326430,-0.322490,0.326430,-0.304550,0.375720,-0.259123,0.401948,-0.245807,0.403113,0.182281,0.403113,
0.231573,0.385173,0.231573,0.385173,$1*%
%AMFreePoly2*
4,1,19,0.215326,0.301344,0.221139,0.296018,0.296018,0.221139,0.322146,0.165104,0.322490,0.157228,0.322490,-0.232106,0.301344,-0.290204,0.247801,-0.321117,0.232106,-0.322490,-0.232106,-0.322490,-0.290204,-0.301344,-0.321117,-0.247801,-0.322490,-0.232106,-0.322490,0.232106,-0.301344,0.290204,-0.247801,0.321117,-0.232106,0.322490,0.157228,0.322490,0.215326,0.301344,0.215326,0.301344,
$1*%
%AMFreePoly3*
4,1,21,0.375720,0.304550,0.401948,0.259123,0.403113,0.245807,0.403113,-0.182281,0.385173,-0.231573,0.380653,-0.236504,0.317127,-0.300030,0.269587,-0.322198,0.262904,-0.322490,-0.262904,-0.322490,-0.312195,-0.304550,-0.317127,-0.300030,-0.380653,-0.236504,-0.402821,-0.188964,-0.403113,-0.182281,-0.403113,0.245807,-0.385173,0.295098,-0.339746,0.321325,-0.326430,0.322490,0.326430,0.322490,
0.375720,0.304550,0.375720,0.304550,$1*%
%AMFreePoly4*
4,1,21,0.312195,0.304550,0.317127,0.300030,0.380653,0.236504,0.402821,0.188964,0.403113,0.182281,0.403113,-0.245807,0.385173,-0.295098,0.339746,-0.321325,0.326430,-0.322490,-0.326430,-0.322490,-0.375720,-0.304550,-0.401948,-0.259123,-0.403113,-0.245807,-0.403113,0.182281,-0.385173,0.231573,-0.380653,0.236504,-0.317127,0.300030,-0.269587,0.322198,-0.262904,0.322490,0.262904,0.322490,
0.312195,0.304550,0.312195,0.304550,$1*%
%AMFreePoly5*
4,1,19,0.290204,0.301344,0.321117,0.247801,0.322490,0.232106,0.322490,-0.232106,0.301344,-0.290204,0.247801,-0.321117,0.232106,-0.322490,-0.157228,-0.322490,-0.215326,-0.301344,-0.221139,-0.296018,-0.296018,-0.221139,-0.322146,-0.165104,-0.322490,-0.157228,-0.322490,0.232106,-0.301344,0.290204,-0.247801,0.321117,-0.232106,0.322490,0.232106,0.322490,0.290204,0.301344,0.290204,0.301344,
$1*%
%AMFreePoly6*
4,1,21,0.295098,0.385173,0.321325,0.339746,0.322490,0.326430,0.322490,-0.326430,0.304550,-0.375720,0.259123,-0.401948,0.245807,-0.403113,-0.182281,-0.403113,-0.231573,-0.385173,-0.236504,-0.380653,-0.300030,-0.317127,-0.322198,-0.269587,-0.322490,-0.262904,-0.322490,0.262904,-0.304550,0.312195,-0.300030,0.317127,-0.236504,0.380653,-0.188964,0.402821,-0.182281,0.403113,0.245807,0.403113,
0.295098,0.385173,0.295098,0.385173,$1*%
%AMFreePoly7*
4,1,19,0.290204,0.301344,0.321117,0.247801,0.322490,0.232106,0.322490,-0.232106,0.301344,-0.290204,0.247801,-0.321117,0.232106,-0.322490,-0.232106,-0.322490,-0.290204,-0.301344,-0.321117,-0.247801,-0.322490,-0.232106,-0.322490,0.157228,-0.301344,0.215326,-0.296018,0.221139,-0.221139,0.296018,-0.165104,0.322146,-0.157228,0.322490,0.232106,0.322490,0.290204,0.301344,0.290204,0.301344,
$1*%
G04 Aperture macros list end*
%ADD10RoundRect,0.079500X-0.014849X0.127279X-0.127279X0.014849X0.014849X-0.127279X0.127279X-0.014849X0*%
%ADD11RoundRect,0.150000X-0.587500X-0.150000X0.587500X-0.150000X0.587500X0.150000X-0.587500X0.150000X0*%
%ADD12RoundRect,0.079500X0.079500X0.100500X-0.079500X0.100500X-0.079500X-0.100500X0.079500X-0.100500X0*%
%ADD13RoundRect,0.140000X-0.140000X-0.170000X0.140000X-0.170000X0.140000X0.170000X-0.140000X0.170000X0*%
%ADD14RoundRect,0.250000X-1.500000X-0.550000X1.500000X-0.550000X1.500000X0.550000X-1.500000X0.550000X0*%
%ADD15RoundRect,0.200000X-0.200000X-0.275000X0.200000X-0.275000X0.200000X0.275000X-0.200000X0.275000X0*%
%ADD16RoundRect,0.250000X-0.450000X0.350000X-0.450000X-0.350000X0.450000X-0.350000X0.450000X0.350000X0*%
%ADD17R,2.000000X0.700000*%
%ADD18R,0.800000X2.000000*%
%ADD19RoundRect,0.225000X0.225000X0.250000X-0.225000X0.250000X-0.225000X-0.250000X0.225000X-0.250000X0*%
%ADD20RoundRect,0.140000X-0.219203X-0.021213X-0.021213X-0.219203X0.219203X0.021213X0.021213X0.219203X0*%
%ADD21RoundRect,0.140000X-0.170000X0.140000X-0.170000X-0.140000X0.170000X-0.140000X0.170000X0.140000X0*%
%ADD22RoundRect,0.135000X0.135000X0.185000X-0.135000X0.185000X-0.135000X-0.185000X0.135000X-0.185000X0*%
%ADD23RoundRect,0.079500X-0.100500X0.079500X-0.100500X-0.079500X0.100500X-0.079500X0.100500X0.079500X0*%
%ADD24R,0.700000X1.600000*%
%ADD25R,1.200000X2.200000*%
%ADD26R,1.200000X1.500000*%
%ADD27R,1.600000X1.500000*%
%ADD28RoundRect,0.250000X-0.450000X-0.425000X0.450000X-0.425000X0.450000X0.425000X-0.450000X0.425000X0*%
%ADD29RoundRect,0.140000X-0.021213X0.219203X-0.219203X0.021213X0.021213X-0.219203X0.219203X-0.021213X0*%
%ADD30RoundRect,0.079500X-0.079500X-0.100500X0.079500X-0.100500X0.079500X0.100500X-0.079500X0.100500X0*%
%ADD31RoundRect,0.335000X-1.340000X-1.365000X1.340000X-1.365000X1.340000X1.365000X-1.340000X1.365000X0*%
%ADD32RoundRect,0.220000X-0.780000X-0.330000X0.780000X-0.330000X0.780000X0.330000X-0.780000X0.330000X0*%
%ADD33RoundRect,0.082000X-0.328000X-0.618000X0.328000X-0.618000X0.328000X0.618000X-0.328000X0.618000X0*%
%ADD34RoundRect,0.225000X-0.250000X0.225000X-0.250000X-0.225000X0.250000X-0.225000X0.250000X0.225000X0*%
%ADD35RoundRect,0.225000X0.250000X-0.225000X0.250000X0.225000X-0.250000X0.225000X-0.250000X-0.225000X0*%
%ADD36RoundRect,0.250000X-0.250000X-0.475000X0.250000X-0.475000X0.250000X0.475000X-0.250000X0.475000X0*%
%ADD37RoundRect,0.112500X-0.187500X-0.112500X0.187500X-0.112500X0.187500X0.112500X-0.187500X0.112500X0*%
%ADD38RoundRect,0.079500X0.100500X-0.079500X0.100500X0.079500X-0.100500X0.079500X-0.100500X-0.079500X0*%
%ADD39RoundRect,0.130000X0.520000X0.670000X-0.520000X0.670000X-0.520000X-0.670000X0.520000X-0.670000X0*%
%ADD40RoundRect,0.220000X0.330000X-0.780000X0.330000X0.780000X-0.330000X0.780000X-0.330000X-0.780000X0*%
%ADD41RoundRect,0.250000X0.750000X-1.250000X0.750000X1.250000X-0.750000X1.250000X-0.750000X-1.250000X0*%
%ADD42RoundRect,0.232500X0.232500X0.232500X-0.232500X0.232500X-0.232500X-0.232500X0.232500X-0.232500X0*%
%ADD43RoundRect,0.150000X0.825000X0.150000X-0.825000X0.150000X-0.825000X-0.150000X0.825000X-0.150000X0*%
%ADD44RoundRect,0.150000X0.512500X0.150000X-0.512500X0.150000X-0.512500X-0.150000X0.512500X-0.150000X0*%
%ADD45RoundRect,0.112500X-0.112500X0.187500X-0.112500X-0.187500X0.112500X-0.187500X0.112500X0.187500X0*%
%ADD46R,1.450000X0.600000*%
%ADD47R,1.450000X0.300000*%
%ADD48FreePoly0,135.000000*%
%ADD49FreePoly1,135.000000*%
%ADD50FreePoly2,135.000000*%
%ADD51FreePoly3,135.000000*%
%ADD52RoundRect,0.201557X0.285043X0.000000X0.000000X0.285043X-0.285043X0.000000X0.000000X-0.285043X0*%
%ADD53FreePoly4,135.000000*%
%ADD54FreePoly5,135.000000*%
%ADD55FreePoly6,135.000000*%
%ADD56FreePoly7,135.000000*%
%ADD57RoundRect,0.062500X0.282843X-0.194454X-0.194454X0.282843X-0.282843X0.194454X0.194454X-0.282843X0*%
%ADD58RoundRect,0.062500X0.282843X0.194454X0.194454X0.282843X-0.282843X-0.194454X-0.194454X-0.282843X0*%
%ADD59RoundRect,0.218750X0.026517X-0.335876X0.335876X-0.026517X-0.026517X0.335876X-0.335876X0.026517X0*%
%ADD60RoundRect,0.250000X0.450000X0.425000X-0.450000X0.425000X-0.450000X-0.425000X0.450000X-0.425000X0*%
%ADD61RoundRect,0.140000X0.140000X0.170000X-0.140000X0.170000X-0.140000X-0.170000X0.140000X-0.170000X0*%
%ADD62RoundRect,0.140000X0.170000X-0.140000X0.170000X0.140000X-0.170000X0.140000X-0.170000X-0.140000X0*%
%ADD63RoundRect,0.200000X-0.200000X0.750000X-0.200000X-0.750000X0.200000X-0.750000X0.200000X0.750000X0*%
%ADD64RoundRect,0.250000X-0.425000X0.450000X-0.425000X-0.450000X0.425000X-0.450000X0.425000X0.450000X0*%
%ADD65RoundRect,0.250000X0.625000X-0.312500X0.625000X0.312500X-0.625000X0.312500X-0.625000X-0.312500X0*%
%ADD66RoundRect,0.162500X0.162500X-0.617500X0.162500X0.617500X-0.162500X0.617500X-0.162500X-0.617500X0*%
%ADD67RoundRect,0.135000X-0.135000X-0.185000X0.135000X-0.185000X0.135000X0.185000X-0.135000X0.185000X0*%
%ADD68R,0.800000X0.500000*%
%ADD69R,2.200000X0.600000*%
%ADD70RoundRect,0.150000X0.625000X-0.150000X0.625000X0.150000X-0.625000X0.150000X-0.625000X-0.150000X0*%
%ADD71RoundRect,0.250000X0.650000X-0.350000X0.650000X0.350000X-0.650000X0.350000X-0.650000X-0.350000X0*%
%ADD72RoundRect,0.087500X-0.225000X-0.087500X0.225000X-0.087500X0.225000X0.087500X-0.225000X0.087500X0*%
%ADD73RoundRect,0.087500X-0.087500X-0.225000X0.087500X-0.225000X0.087500X0.225000X-0.087500X0.225000X0*%
%ADD74RoundRect,0.185000X-1.315000X-0.185000X1.315000X-0.185000X1.315000X0.185000X-1.315000X0.185000X0*%
%ADD75R,0.900000X1.400000*%
%ADD76R,1.400000X1.200000*%
%ADD77R,1.500000X0.900000*%
%ADD78R,0.900000X1.500000*%
%ADD79R,0.900000X0.900000*%
%ADD80RoundRect,0.135000X-0.185000X0.135000X-0.185000X-0.135000X0.185000X-0.135000X0.185000X0.135000X0*%
%ADD81RoundRect,0.335000X1.340000X1.365000X-1.340000X1.365000X-1.340000X-1.365000X1.340000X-1.365000X0*%
%ADD82RoundRect,0.250000X-0.350000X-0.450000X0.350000X-0.450000X0.350000X0.450000X-0.350000X0.450000X0*%
%ADD83RoundRect,0.075000X0.700000X0.075000X-0.700000X0.075000X-0.700000X-0.075000X0.700000X-0.075000X0*%
%ADD84RoundRect,0.075000X0.075000X0.700000X-0.075000X0.700000X-0.075000X-0.700000X0.075000X-0.700000X0*%
%ADD85RoundRect,0.150000X-0.150000X0.825000X-0.150000X-0.825000X0.150000X-0.825000X0.150000X0.825000X0*%
%ADD86RoundRect,0.150000X0.150000X-0.587500X0.150000X0.587500X-0.150000X0.587500X-0.150000X-0.587500X0*%
%ADD87RoundRect,0.375000X-0.625000X-0.375000X0.625000X-0.375000X0.625000X0.375000X-0.625000X0.375000X0*%
%ADD88RoundRect,0.500000X-0.500000X-1.400000X0.500000X-1.400000X0.500000X1.400000X-0.500000X1.400000X0*%
%ADD89RoundRect,0.200000X0.200000X-0.750000X0.200000X0.750000X-0.200000X0.750000X-0.200000X-0.750000X0*%
%ADD90RoundRect,0.079500X0.127279X0.014849X0.014849X0.127279X-0.127279X-0.014849X-0.014849X-0.127279X0*%
%ADD91R,0.350000X0.500000*%
%ADD92R,0.800000X1.800000*%
%ADD93RoundRect,0.250000X-0.900000X-0.475000X0.900000X-0.475000X0.900000X0.475000X-0.900000X0.475000X0*%
%ADD94RoundRect,0.100000X-0.637500X-0.100000X0.637500X-0.100000X0.637500X0.100000X-0.637500X0.100000X0*%
%ADD95RoundRect,0.250000X0.625000X-0.400000X0.625000X0.400000X-0.625000X0.400000X-0.625000X-0.400000X0*%
%ADD96RoundRect,0.250000X0.450000X-0.325000X0.450000X0.325000X-0.450000X0.325000X-0.450000X-0.325000X0*%
%ADD97RoundRect,0.185000X-0.185000X1.315000X-0.185000X-1.315000X0.185000X-1.315000X0.185000X1.315000X0*%
%ADD98RoundRect,0.135000X0.185000X-0.135000X0.185000X0.135000X-0.185000X0.135000X-0.185000X-0.135000X0*%
%ADD99RoundRect,0.250000X-0.625000X0.400000X-0.625000X-0.400000X0.625000X-0.400000X0.625000X0.400000X0*%
%ADD100RoundRect,0.218750X0.218750X0.256250X-0.218750X0.256250X-0.218750X-0.256250X0.218750X-0.256250X0*%
G04 APERTURE END LIST*
D10*
%TO.C,R63*%
X122643952Y-85806048D03*
X122156048Y-86293952D03*
%TD*%
D11*
%TO.C,Q4*%
X175262500Y-82850000D03*
X175262500Y-80950000D03*
X177137500Y-81900000D03*
%TD*%
D12*
%TO.C,C32*%
X127845000Y-92000000D03*
X127155000Y-92000000D03*
%TD*%
D13*
%TO.C,C43*%
X126170000Y-66050000D03*
X127130000Y-66050000D03*
%TD*%
D14*
%TO.C,C19*%
X180000000Y-109850000D03*
X185600000Y-109850000D03*
%TD*%
D15*
%TO.C,R7*%
X119975000Y-119900000D03*
X121625000Y-119900000D03*
%TD*%
D16*
%TO.C,R49*%
X104850000Y-100900000D03*
X104850000Y-102900000D03*
%TD*%
D12*
%TO.C,R45*%
X163745000Y-85150000D03*
X163055000Y-85150000D03*
%TD*%
D17*
%TO.C,SW3*%
X194920000Y-141950000D03*
X194920000Y-144950000D03*
X194920000Y-146450000D03*
D18*
X198030000Y-140050000D03*
X195820000Y-140050000D03*
X198030000Y-148350000D03*
X195820000Y-148350000D03*
%TD*%
D19*
%TO.C,C84*%
X114575000Y-66850000D03*
X113025000Y-66850000D03*
%TD*%
D20*
%TO.C,C14*%
X167710589Y-117460589D03*
X168389411Y-118139411D03*
%TD*%
D12*
%TO.C,R60*%
X122895000Y-62000000D03*
X122205000Y-62000000D03*
%TD*%
D21*
%TO.C,C10*%
X110900000Y-104720000D03*
X110900000Y-105680000D03*
%TD*%
D22*
%TO.C,R69*%
X106060000Y-92100000D03*
X105040000Y-92100000D03*
%TD*%
D23*
%TO.C,R68*%
X106150000Y-90555000D03*
X106150000Y-91245000D03*
%TD*%
D24*
%TO.C,J17*%
X134000000Y-128975000D03*
X135100000Y-128975000D03*
X136200000Y-128975000D03*
X137300000Y-128975000D03*
X138400000Y-128975000D03*
X139500000Y-128975000D03*
X140600000Y-128975000D03*
X141700000Y-128975000D03*
X142800000Y-128975000D03*
D25*
X144000000Y-139575000D03*
D26*
X144000000Y-129975000D03*
D27*
X129400000Y-129975000D03*
D25*
X128500000Y-139575000D03*
%TD*%
D28*
%TO.C,C17*%
X169300000Y-109050000D03*
X172000000Y-109050000D03*
%TD*%
D29*
%TO.C,C12*%
X159939411Y-119210589D03*
X159260589Y-119889411D03*
%TD*%
D30*
%TO.C,R59*%
X121405000Y-60250000D03*
X122095000Y-60250000D03*
%TD*%
D31*
%TO.C,L4*%
X115675000Y-71100000D03*
X122725000Y-71100000D03*
%TD*%
D17*
%TO.C,SW2*%
X194890000Y-130950000D03*
X194890000Y-133950000D03*
X194890000Y-135450000D03*
D18*
X198000000Y-129050000D03*
X195790000Y-129050000D03*
X198000000Y-137350000D03*
X195790000Y-137350000D03*
%TD*%
D32*
%TO.C,SW5*%
X124050000Y-123200000D03*
X132550000Y-123200000D03*
X124050000Y-118700000D03*
X132550000Y-118700000D03*
%TD*%
D33*
%TO.C,D21*%
X157650000Y-89150000D03*
X156150000Y-89150000D03*
X156150000Y-94550000D03*
X157650000Y-94550000D03*
%TD*%
D34*
%TO.C,C28*%
X134600000Y-107875000D03*
X134600000Y-109425000D03*
%TD*%
D35*
%TO.C,C52*%
X110500000Y-90725000D03*
X110500000Y-89175000D03*
%TD*%
D23*
%TO.C,C50*%
X139700000Y-90055000D03*
X139700000Y-90745000D03*
%TD*%
D13*
%TO.C,C36*%
X136520000Y-78200000D03*
X137480000Y-78200000D03*
%TD*%
D36*
%TO.C,C1*%
X140050000Y-114400000D03*
X141950000Y-114400000D03*
%TD*%
D12*
%TO.C,C54*%
X118445000Y-133350000D03*
X117755000Y-133350000D03*
%TD*%
D30*
%TO.C,C25*%
X140655000Y-85200000D03*
X141345000Y-85200000D03*
%TD*%
D15*
%TO.C,R3*%
X138625000Y-116550000D03*
X140275000Y-116550000D03*
%TD*%
D30*
%TO.C,R18*%
X109055000Y-129850000D03*
X109745000Y-129850000D03*
%TD*%
D37*
%TO.C,D20*%
X159450000Y-88900000D03*
X161550000Y-88900000D03*
%TD*%
D38*
%TO.C,C45*%
X158500000Y-89545000D03*
X158500000Y-88855000D03*
%TD*%
D30*
%TO.C,R54*%
X185955000Y-118500000D03*
X186645000Y-118500000D03*
%TD*%
D39*
%TO.C,D19*%
X122200000Y-76650000D03*
X118400000Y-76650000D03*
%TD*%
D40*
%TO.C,SW7*%
X175350000Y-103250000D03*
X175350000Y-94750000D03*
X170850000Y-103250000D03*
X170850000Y-94750000D03*
%TD*%
D23*
%TO.C,R55*%
X192000000Y-109855000D03*
X192000000Y-110545000D03*
%TD*%
D41*
%TO.C,J14*%
X194575000Y-100500000D03*
X197275000Y-107500000D03*
X198275000Y-100500000D03*
X190275000Y-107500000D03*
X188575000Y-100500000D03*
%TD*%
D42*
%TO.C,U2*%
X132925000Y-115375000D03*
X132925000Y-114225000D03*
X131775000Y-115375000D03*
X131775000Y-114225000D03*
D43*
X134825000Y-112895000D03*
X134825000Y-114165000D03*
X134825000Y-115435000D03*
X134825000Y-116705000D03*
X129875000Y-116705000D03*
X129875000Y-115435000D03*
X129875000Y-114165000D03*
X129875000Y-112895000D03*
%TD*%
D34*
%TO.C,C29*%
X120050000Y-121375000D03*
X120050000Y-122925000D03*
%TD*%
D44*
%TO.C,U8*%
X132987500Y-125000000D03*
X132987500Y-125950000D03*
X132987500Y-126900000D03*
X130712500Y-126900000D03*
X130712500Y-125950000D03*
X130712500Y-125000000D03*
%TD*%
D45*
%TO.C,D13*%
X179100000Y-79250000D03*
X179100000Y-81350000D03*
%TD*%
D38*
%TO.C,C35*%
X139700000Y-82145000D03*
X139700000Y-81455000D03*
%TD*%
D12*
%TO.C,C47*%
X150445000Y-88750000D03*
X149755000Y-88750000D03*
%TD*%
D36*
%TO.C,C80*%
X117700001Y-66500000D03*
X119599999Y-66500000D03*
%TD*%
D12*
%TO.C,C60*%
X171095000Y-74750000D03*
X170405000Y-74750000D03*
%TD*%
D46*
%TO.C,J13*%
X107600000Y-75050000D03*
X107550000Y-74250000D03*
D47*
X107550000Y-73100000D03*
X107550000Y-72100000D03*
X107550000Y-71600000D03*
X107550000Y-70600000D03*
D46*
X107550000Y-69450000D03*
X107600000Y-68650000D03*
X107600000Y-68650000D03*
X107550000Y-69450000D03*
D47*
X107550000Y-70100000D03*
X107550000Y-71100000D03*
X107550000Y-72600000D03*
X107550000Y-73600000D03*
D46*
X107550000Y-74250000D03*
X107600000Y-75050000D03*
%TD*%
D15*
%TO.C,R28*%
X119975000Y-118400000D03*
X121625000Y-118400000D03*
%TD*%
D23*
%TO.C,C26*%
X137300000Y-126555000D03*
X137300000Y-127245000D03*
%TD*%
D34*
%TO.C,C31*%
X131600000Y-107875000D03*
X131600000Y-109425000D03*
%TD*%
D48*
%TO.C,U10*%
X164294975Y-120899747D03*
D49*
X164931371Y-120263351D03*
X165638478Y-119556244D03*
D50*
X166274874Y-118919848D03*
D51*
X163658579Y-120263351D03*
D52*
X164294975Y-119626955D03*
X165002082Y-118919848D03*
D53*
X165638478Y-118283452D03*
D51*
X162951472Y-119556244D03*
D52*
X163587868Y-118919848D03*
X164294975Y-118212741D03*
D53*
X164931371Y-117576345D03*
D54*
X162315076Y-118919848D03*
D55*
X162951472Y-118283452D03*
X163658579Y-117576345D03*
D56*
X164294975Y-116939949D03*
D57*
X167264823Y-119414823D03*
X166911270Y-119768376D03*
X166557717Y-120121930D03*
X166204163Y-120475483D03*
X165850610Y-120829036D03*
X165497057Y-121182590D03*
X165143503Y-121536143D03*
X164789950Y-121889696D03*
D58*
X163800000Y-121889696D03*
X163446447Y-121536143D03*
X163092893Y-121182590D03*
X162739340Y-120829036D03*
X162385787Y-120475483D03*
X162032233Y-120121930D03*
X161678680Y-119768376D03*
X161325127Y-119414823D03*
D57*
X161325127Y-118424873D03*
X161678680Y-118071320D03*
X162032233Y-117717766D03*
X162385787Y-117364213D03*
X162739340Y-117010660D03*
X163092893Y-116657106D03*
X163446447Y-116303553D03*
X163800000Y-115950000D03*
D58*
X164789950Y-115950000D03*
X165143503Y-116303553D03*
X165497057Y-116657106D03*
X165850610Y-117010660D03*
X166204163Y-117364213D03*
X166557717Y-117717766D03*
X166911270Y-118071320D03*
X167264823Y-118424873D03*
%TD*%
D12*
%TO.C,C53*%
X168545000Y-130400000D03*
X167855000Y-130400000D03*
%TD*%
D59*
%TO.C,FB1*%
X169243153Y-117306847D03*
X170356847Y-116193153D03*
%TD*%
D23*
%TO.C,C27*%
X145050000Y-114180000D03*
X145050000Y-114870000D03*
%TD*%
D60*
%TO.C,C20*%
X174950000Y-118450000D03*
X172250000Y-118450000D03*
%TD*%
D61*
%TO.C,C59*%
X169080000Y-58400000D03*
X168120000Y-58400000D03*
%TD*%
D60*
%TO.C,C23*%
X176450000Y-116350000D03*
X173750000Y-116350000D03*
%TD*%
D23*
%TO.C,R58*%
X140600000Y-126745000D03*
X140600000Y-127435000D03*
%TD*%
D19*
%TO.C,C56*%
X118575000Y-144200000D03*
X117025000Y-144200000D03*
%TD*%
D12*
%TO.C,C48*%
X145845000Y-88750000D03*
X145155000Y-88750000D03*
%TD*%
D62*
%TO.C,C22*%
X172300000Y-116080000D03*
X172300000Y-115120000D03*
%TD*%
D22*
%TO.C,R35*%
X162035000Y-85150000D03*
X161015000Y-85150000D03*
%TD*%
D63*
%TO.C,D3*%
X187750000Y-145600000D03*
X189650000Y-145600000D03*
X188700000Y-148600000D03*
%TD*%
D28*
%TO.C,C16*%
X167200000Y-111150000D03*
X169900000Y-111150000D03*
%TD*%
D23*
%TO.C,R39*%
X169300000Y-93455000D03*
X169300000Y-94145000D03*
%TD*%
D19*
%TO.C,C83*%
X114575000Y-68350000D03*
X113025000Y-68350000D03*
%TD*%
D62*
%TO.C,C15*%
X164950000Y-114780000D03*
X164950000Y-113820000D03*
%TD*%
D64*
%TO.C,C24*%
X165200000Y-106950000D03*
X165200000Y-109650000D03*
%TD*%
D65*
%TO.C,R15*%
X136100000Y-54412500D03*
X136100000Y-51487500D03*
%TD*%
D66*
%TO.C,U27*%
X124600000Y-66450000D03*
X123650000Y-66450000D03*
X122700000Y-66450000D03*
X122700000Y-63750000D03*
X123650000Y-63750000D03*
X124600000Y-63750000D03*
%TD*%
D67*
%TO.C,R10*%
X108990000Y-103800000D03*
X110010000Y-103800000D03*
%TD*%
D34*
%TO.C,C30*%
X133100000Y-107875000D03*
X133100000Y-109425000D03*
%TD*%
D68*
%TO.C,U12*%
X118700000Y-149000000D03*
X118700000Y-148000000D03*
X118700000Y-147000000D03*
X120700000Y-147000000D03*
X120700000Y-148000000D03*
X120700000Y-149000000D03*
%TD*%
D38*
%TO.C,R62*%
X152100000Y-114100000D03*
X152100000Y-113410000D03*
%TD*%
D69*
%TO.C,U1*%
X180600000Y-137830000D03*
X180600000Y-136560000D03*
X180600000Y-135290000D03*
X180600000Y-134020000D03*
X186600000Y-134020000D03*
X186600000Y-135290000D03*
X186600000Y-136560000D03*
X186600000Y-137830000D03*
%TD*%
D33*
%TO.C,D15*%
X153044201Y-89150000D03*
X151544201Y-89150000D03*
X151544201Y-94550000D03*
X153044201Y-94550000D03*
%TD*%
D30*
%TO.C,C49*%
X130680000Y-93350000D03*
X131370000Y-93350000D03*
%TD*%
D40*
%TO.C,SW8*%
X175350000Y-133250000D03*
X175350000Y-124750000D03*
X170850000Y-133250000D03*
X170850000Y-124750000D03*
%TD*%
D41*
%TO.C,J16*%
X194575000Y-111500000D03*
X197275000Y-118500000D03*
X198275000Y-111500000D03*
X190275000Y-118500000D03*
X188575000Y-111500000D03*
%TD*%
D70*
%TO.C,J11*%
X105300000Y-143700000D03*
X105300000Y-142700000D03*
X105300000Y-141700000D03*
X105300000Y-140700000D03*
D71*
X101425000Y-145000000D03*
X101425000Y-139400000D03*
%TD*%
D72*
%TO.C,U9*%
X117237500Y-136100000D03*
X117237500Y-135600000D03*
X117237500Y-135100000D03*
X117237500Y-134600000D03*
D73*
X117900000Y-134437500D03*
X118400000Y-134437500D03*
X118900000Y-134437500D03*
D72*
X119562500Y-134600000D03*
X119562500Y-135100000D03*
X119562500Y-135600000D03*
X119562500Y-136100000D03*
D73*
X118900000Y-136262500D03*
X118400000Y-136262500D03*
X117900000Y-136262500D03*
%TD*%
D74*
%TO.C,J6*%
X167850000Y-139670000D03*
X172350000Y-139670000D03*
X167850000Y-138400000D03*
X172350000Y-138400000D03*
X167850000Y-137130000D03*
X172350000Y-137130000D03*
%TD*%
D10*
%TO.C,C65*%
X161793952Y-120956048D03*
X161306048Y-121443952D03*
%TD*%
D75*
%TO.C,SW1*%
X180550000Y-145350000D03*
X183950000Y-145350000D03*
D76*
X179550000Y-147650000D03*
X184950000Y-147650000D03*
%TD*%
D77*
%TO.C,U4*%
X147450000Y-142160000D03*
X147450000Y-140890000D03*
X147450000Y-139620000D03*
X147450000Y-138350000D03*
X147450000Y-137080000D03*
X147450000Y-135810000D03*
X147450000Y-134540000D03*
X147450000Y-133270000D03*
X147450000Y-132000000D03*
X147450000Y-130730000D03*
X147450000Y-129460000D03*
X147450000Y-128190000D03*
X147450000Y-126920000D03*
X147450000Y-125650000D03*
D78*
X149215000Y-124400000D03*
X150485000Y-124400000D03*
X151755000Y-124400000D03*
X153025000Y-124400000D03*
X154295000Y-124400000D03*
X155565000Y-124400000D03*
X156835000Y-124400000D03*
X158105000Y-124400000D03*
X159375000Y-124400000D03*
X160645000Y-124400000D03*
X161915000Y-124400000D03*
X163185000Y-124400000D03*
D77*
X164950000Y-125650000D03*
X164950000Y-126920000D03*
X164950000Y-128190000D03*
X164950000Y-129460000D03*
X164950000Y-130730000D03*
X164950000Y-132000000D03*
X164950000Y-133270000D03*
X164950000Y-134540000D03*
X164950000Y-135810000D03*
X164950000Y-137080000D03*
X164950000Y-138350000D03*
X164950000Y-139620000D03*
X164950000Y-140890000D03*
X164950000Y-142160000D03*
D79*
X153300000Y-133040000D03*
X153300000Y-133040000D03*
X153300000Y-134440000D03*
X153300000Y-135840000D03*
X154700000Y-133040000D03*
X154700000Y-134440000D03*
X154700000Y-135840000D03*
X154700000Y-135840000D03*
X156100000Y-133040000D03*
X156100000Y-134440000D03*
X156100000Y-135840000D03*
%TD*%
D80*
%TO.C,R43*%
X109900000Y-141690000D03*
X109900000Y-142710000D03*
%TD*%
D19*
%TO.C,C64*%
X104275000Y-114550000D03*
X102725000Y-114550000D03*
%TD*%
D80*
%TO.C,R30*%
X188500000Y-71190000D03*
X188500000Y-72210000D03*
%TD*%
D14*
%TO.C,C18*%
X179800000Y-102700000D03*
X185400000Y-102700000D03*
%TD*%
D81*
%TO.C,L1*%
X126525000Y-113450000D03*
X119475000Y-113450000D03*
%TD*%
D12*
%TO.C,R22*%
X177845000Y-57500000D03*
X177155000Y-57500000D03*
%TD*%
D82*
%TO.C,R52*%
X102900000Y-104700000D03*
X104900000Y-104700000D03*
%TD*%
D30*
%TO.C,C34*%
X136455000Y-79100000D03*
X137145000Y-79100000D03*
%TD*%
D12*
%TO.C,R37*%
X177745000Y-106900000D03*
X177055000Y-106900000D03*
%TD*%
D83*
%TO.C,U5*%
X138275000Y-82425000D03*
X138275000Y-82925000D03*
X138275000Y-83425000D03*
X138275000Y-83925000D03*
X138275000Y-84425000D03*
X138275000Y-84925000D03*
X138275000Y-85425000D03*
X138275000Y-85925000D03*
X138275000Y-86425000D03*
X138275000Y-86925000D03*
X138275000Y-87425000D03*
X138275000Y-87925000D03*
X138275000Y-88425000D03*
X138275000Y-88925000D03*
X138275000Y-89425000D03*
X138275000Y-89925000D03*
D84*
X136350000Y-91850000D03*
X135850000Y-91850000D03*
X135350000Y-91850000D03*
X134850000Y-91850000D03*
X134350000Y-91850000D03*
X133850000Y-91850000D03*
X133350000Y-91850000D03*
X132850000Y-91850000D03*
X132350000Y-91850000D03*
X131850000Y-91850000D03*
X131350000Y-91850000D03*
X130850000Y-91850000D03*
X130350000Y-91850000D03*
X129850000Y-91850000D03*
X129350000Y-91850000D03*
X128850000Y-91850000D03*
D83*
X126925000Y-89925000D03*
X126925000Y-89425000D03*
X126925000Y-88925000D03*
X126925000Y-88425000D03*
X126925000Y-87925000D03*
X126925000Y-87425000D03*
X126925000Y-86925000D03*
X126925000Y-86425000D03*
X126925000Y-85925000D03*
X126925000Y-85425000D03*
X126925000Y-84925000D03*
X126925000Y-84425000D03*
X126925000Y-83925000D03*
X126925000Y-83425000D03*
X126925000Y-82925000D03*
X126925000Y-82425000D03*
D84*
X128850000Y-80500000D03*
X129350000Y-80500000D03*
X129850000Y-80500000D03*
X130350000Y-80500000D03*
X130850000Y-80500000D03*
X131350000Y-80500000D03*
X131850000Y-80500000D03*
X132350000Y-80500000D03*
X132850000Y-80500000D03*
X133350000Y-80500000D03*
X133850000Y-80500000D03*
X134350000Y-80500000D03*
X134850000Y-80500000D03*
X135350000Y-80500000D03*
X135850000Y-80500000D03*
X136350000Y-80500000D03*
%TD*%
D41*
%TO.C,J3*%
X194575000Y-89500000D03*
X197275000Y-96500000D03*
X198275000Y-89500000D03*
X190275000Y-96500000D03*
X188575000Y-89500000D03*
%TD*%
D67*
%TO.C,R40*%
X167790000Y-131300000D03*
X168810000Y-131300000D03*
%TD*%
D85*
%TO.C,U16*%
X102595000Y-107625000D03*
X103865000Y-107625000D03*
X105135000Y-107625000D03*
X106405000Y-107625000D03*
X106405000Y-112575000D03*
X105135000Y-112575000D03*
X103865000Y-112575000D03*
X102595000Y-112575000D03*
%TD*%
D13*
%TO.C,C37*%
X130545000Y-94275000D03*
X131505000Y-94275000D03*
%TD*%
D22*
%TO.C,R8*%
X186010000Y-131900000D03*
X184990000Y-131900000D03*
%TD*%
D13*
%TO.C,C61*%
X121840000Y-82200000D03*
X122800000Y-82200000D03*
%TD*%
D22*
%TO.C,R12*%
X133210000Y-56050000D03*
X132190000Y-56050000D03*
%TD*%
D64*
%TO.C,C62*%
X167300000Y-106450000D03*
X167300000Y-109150000D03*
%TD*%
D30*
%TO.C,C58*%
X126955000Y-101200000D03*
X127645000Y-101200000D03*
%TD*%
%TO.C,R53*%
X172955000Y-76950000D03*
X173645000Y-76950000D03*
%TD*%
D23*
%TO.C,R61*%
X135100000Y-126795000D03*
X135100000Y-127485000D03*
%TD*%
D12*
%TO.C,C5*%
X172745000Y-147000000D03*
X172055000Y-147000000D03*
%TD*%
D21*
%TO.C,C9*%
X110600000Y-101420000D03*
X110600000Y-102380000D03*
%TD*%
D30*
%TO.C,R25*%
X187855000Y-118500000D03*
X188545000Y-118500000D03*
%TD*%
D62*
%TO.C,C21*%
X165900000Y-114780000D03*
X165900000Y-113820000D03*
%TD*%
D23*
%TO.C,R4*%
X128250000Y-116455000D03*
X128250000Y-117145000D03*
%TD*%
D86*
%TO.C,Q5*%
X163250000Y-83637500D03*
X161350000Y-83637500D03*
X162300000Y-81762500D03*
%TD*%
D30*
%TO.C,R19*%
X109055000Y-126950000D03*
X109745000Y-126950000D03*
%TD*%
D13*
%TO.C,C41*%
X126140000Y-64100000D03*
X127100000Y-64100000D03*
%TD*%
D34*
%TO.C,C7*%
X121550000Y-121375000D03*
X121550000Y-122925000D03*
%TD*%
D30*
%TO.C,R21*%
X185855000Y-144800000D03*
X186545000Y-144800000D03*
%TD*%
%TO.C,R67*%
X152955000Y-114100000D03*
X153645000Y-114100000D03*
%TD*%
D87*
%TO.C,U11*%
X128850000Y-69200000D03*
X128850000Y-66900000D03*
D88*
X135150000Y-66900000D03*
D87*
X128850000Y-64600000D03*
%TD*%
D38*
%TO.C,R11*%
X171400000Y-84745000D03*
X171400000Y-84055000D03*
%TD*%
D10*
%TO.C,C66*%
X161293952Y-120456048D03*
X160806048Y-120943952D03*
%TD*%
D35*
%TO.C,C63*%
X111300000Y-83825000D03*
X111300000Y-82275000D03*
%TD*%
D89*
%TO.C,D2*%
X183350000Y-131400000D03*
X181450000Y-131400000D03*
X182400000Y-128400000D03*
%TD*%
D90*
%TO.C,R26*%
X161193952Y-117593952D03*
X160706048Y-117106048D03*
%TD*%
D12*
%TO.C,R51*%
X111445000Y-100500000D03*
X110755000Y-100500000D03*
%TD*%
D91*
%TO.C,U14*%
X128825000Y-102850000D03*
X129475000Y-102850000D03*
X130125000Y-102850000D03*
X130775000Y-102850000D03*
X130775000Y-101250000D03*
X130125000Y-101250000D03*
X129475000Y-101250000D03*
X128825000Y-101250000D03*
%TD*%
D23*
%TO.C,C33*%
X125500000Y-81455000D03*
X125500000Y-82145000D03*
%TD*%
D92*
%TO.C,K1*%
X181700000Y-78500000D03*
X184900000Y-78500000D03*
X187100000Y-78500000D03*
X189300000Y-78500000D03*
X189300000Y-85500000D03*
X187100000Y-85500000D03*
X184900000Y-85500000D03*
X181700000Y-85500000D03*
%TD*%
D22*
%TO.C,R48*%
X124760000Y-62000000D03*
X123740000Y-62000000D03*
%TD*%
D38*
%TO.C,C2*%
X146000000Y-140045000D03*
X146000000Y-139355000D03*
%TD*%
D93*
%TO.C,U3*%
X117540000Y-84700000D03*
X117540000Y-86500000D03*
X117540000Y-88300000D03*
D94*
X114677500Y-90725000D03*
X114677500Y-90075000D03*
X114677500Y-89425000D03*
X114677500Y-88775000D03*
X114677500Y-88125000D03*
X114677500Y-87475000D03*
X114677500Y-86825000D03*
X114677500Y-86175000D03*
X114677500Y-85525000D03*
X114677500Y-84875000D03*
X114677500Y-84225000D03*
X114677500Y-83575000D03*
X114677500Y-82925000D03*
X114677500Y-82275000D03*
X120402500Y-82275000D03*
X120402500Y-82925000D03*
X120402500Y-83575000D03*
X120402500Y-84225000D03*
X120402500Y-84875000D03*
X120402500Y-85525000D03*
X120402500Y-86175000D03*
X120402500Y-86825000D03*
X120402500Y-87475000D03*
X120402500Y-88125000D03*
X120402500Y-88775000D03*
X120402500Y-89425000D03*
X120402500Y-90075000D03*
X120402500Y-90725000D03*
%TD*%
D22*
%TO.C,R1*%
X177110000Y-147000000D03*
X176090000Y-147000000D03*
%TD*%
D19*
%TO.C,C81*%
X125425000Y-68300000D03*
X123875000Y-68300000D03*
%TD*%
D22*
%TO.C,R24*%
X175610000Y-114800000D03*
X174590000Y-114800000D03*
%TD*%
D95*
%TO.C,R20*%
X189000000Y-134750000D03*
X189000000Y-131650000D03*
%TD*%
D12*
%TO.C,C3*%
X188845000Y-137800000D03*
X188155000Y-137800000D03*
%TD*%
D22*
%TO.C,R34*%
X124410000Y-76200000D03*
X123390000Y-76200000D03*
%TD*%
D33*
%TO.C,D17*%
X143950000Y-89200000D03*
X142450000Y-89200000D03*
X142450000Y-94600000D03*
X143950000Y-94600000D03*
%TD*%
D46*
%TO.C,J5*%
X107650000Y-131800000D03*
X107600000Y-131000000D03*
D47*
X107600000Y-129850000D03*
X107600000Y-128850000D03*
X107600000Y-128350000D03*
X107600000Y-127350000D03*
D46*
X107600000Y-126200000D03*
X107650000Y-125400000D03*
X107650000Y-125400000D03*
X107600000Y-126200000D03*
D47*
X107600000Y-126850000D03*
X107600000Y-127850000D03*
X107600000Y-129350000D03*
X107600000Y-130350000D03*
D46*
X107600000Y-131000000D03*
X107650000Y-131800000D03*
%TD*%
D30*
%TO.C,C55*%
X119205000Y-133350000D03*
X119895000Y-133350000D03*
%TD*%
D12*
%TO.C,R64*%
X111745000Y-103800000D03*
X111055000Y-103800000D03*
%TD*%
D33*
%TO.C,D16*%
X148450000Y-89150000D03*
X146950000Y-89150000D03*
X146950000Y-94550000D03*
X148450000Y-94550000D03*
%TD*%
D12*
%TO.C,R41*%
X174945000Y-137000000D03*
X174255000Y-137000000D03*
%TD*%
D86*
%TO.C,Q2*%
X189850000Y-68037500D03*
X187950000Y-68037500D03*
X188900000Y-66162500D03*
%TD*%
D96*
%TO.C,R23*%
X183100000Y-119025000D03*
X183100000Y-116975000D03*
%TD*%
D30*
%TO.C,R36*%
X177055000Y-106100000D03*
X177745000Y-106100000D03*
%TD*%
D62*
%TO.C,C38*%
X113200000Y-91330000D03*
X113200000Y-90370000D03*
%TD*%
D23*
%TO.C,R57*%
X138400000Y-126745000D03*
X138400000Y-127435000D03*
%TD*%
D61*
%TO.C,C44*%
X127130000Y-67000000D03*
X126170000Y-67000000D03*
%TD*%
D80*
%TO.C,R42*%
X184500000Y-121840000D03*
X184500000Y-122860000D03*
%TD*%
D38*
%TO.C,R2*%
X145900000Y-138645000D03*
X145900000Y-137955000D03*
%TD*%
D67*
%TO.C,R14*%
X108690000Y-100500000D03*
X109710000Y-100500000D03*
%TD*%
D39*
%TO.C,D14*%
X182300000Y-75400000D03*
X178500000Y-75400000D03*
%TD*%
D34*
%TO.C,C79*%
X121100000Y-65225000D03*
X121100000Y-66775000D03*
%TD*%
D23*
%TO.C,R56*%
X136200000Y-126745000D03*
X136200000Y-127435000D03*
%TD*%
D86*
%TO.C,Q1*%
X134212500Y-54587500D03*
X132312500Y-54587500D03*
X133262500Y-52712500D03*
%TD*%
D61*
%TO.C,C42*%
X127100000Y-65100000D03*
X126140000Y-65100000D03*
%TD*%
D12*
%TO.C,C40*%
X168945000Y-123300000D03*
X168255000Y-123300000D03*
%TD*%
D61*
%TO.C,C8*%
X109180000Y-93050000D03*
X108220000Y-93050000D03*
%TD*%
%TO.C,C82*%
X122230000Y-61100000D03*
X121270000Y-61100000D03*
%TD*%
D22*
%TO.C,R29*%
X173810000Y-82700000D03*
X172790000Y-82700000D03*
%TD*%
D65*
%TO.C,R13*%
X138350000Y-54412500D03*
X138350000Y-51487500D03*
%TD*%
D29*
%TO.C,C13*%
X160639411Y-119910589D03*
X159960589Y-120589411D03*
%TD*%
D67*
%TO.C,R16*%
X108190000Y-94000000D03*
X109210000Y-94000000D03*
%TD*%
D80*
%TO.C,R70*%
X163600000Y-96090001D03*
X163600000Y-97109999D03*
%TD*%
D15*
%TO.C,R47*%
X136925000Y-114400000D03*
X138575000Y-114400000D03*
%TD*%
D22*
%TO.C,R6*%
X184560000Y-75400000D03*
X183540000Y-75400000D03*
%TD*%
D23*
%TO.C,C11*%
X178900000Y-140505000D03*
X178900000Y-141195000D03*
%TD*%
D38*
%TO.C,R17*%
X110200000Y-94345000D03*
X110200000Y-93655000D03*
%TD*%
D22*
%TO.C,R66*%
X169310000Y-122400000D03*
X168290000Y-122400000D03*
%TD*%
D97*
%TO.C,J26*%
X128430000Y-72650000D03*
X128430000Y-77150000D03*
X129700000Y-72650000D03*
X129700000Y-77150000D03*
X130970000Y-72650000D03*
X130970000Y-77150000D03*
%TD*%
D98*
%TO.C,R44*%
X120100000Y-138310000D03*
X120100000Y-137290000D03*
%TD*%
D67*
%TO.C,R9*%
X117690000Y-142400000D03*
X118710000Y-142400000D03*
%TD*%
D12*
%TO.C,C46*%
X155045000Y-88750000D03*
X154355000Y-88750000D03*
%TD*%
D23*
%TO.C,R50*%
X108400000Y-108155000D03*
X108400000Y-108845000D03*
%TD*%
D30*
%TO.C,R31*%
X188555000Y-70000000D03*
X189245000Y-70000000D03*
%TD*%
D34*
%TO.C,C6*%
X145600000Y-141125000D03*
X145600000Y-142675000D03*
%TD*%
D99*
%TO.C,R46*%
X189000000Y-140350000D03*
X189000000Y-143450000D03*
%TD*%
D100*
%TO.C,FB2*%
X129412500Y-93650000D03*
X127837500Y-93650000D03*
%TD*%
D69*
%TO.C,U7*%
X180600000Y-143455000D03*
X180600000Y-142185000D03*
X180600000Y-140915000D03*
X180600000Y-139645000D03*
X186600000Y-139645000D03*
X186600000Y-140915000D03*
X186600000Y-142185000D03*
X186600000Y-143455000D03*
%TD*%
D36*
%TO.C,C4*%
X136800000Y-112400000D03*
X138700000Y-112400000D03*
%TD*%
D30*
%TO.C,R27*%
X192255000Y-119300000D03*
X192945000Y-119300000D03*
%TD*%
D35*
%TO.C,C51*%
X112000000Y-90725000D03*
X112000000Y-89175000D03*
%TD*%
D22*
%TO.C,R5*%
X180110000Y-131400000D03*
X179090000Y-131400000D03*
%TD*%
D38*
%TO.C,C57*%
X117600000Y-148845000D03*
X117600000Y-148155000D03*
%TD*%
M02*
