%TF.GenerationSoftware,KiCad,Pcbnew,8.0.5*%
%TF.CreationDate,2024-10-17T22:57:38+02:00*%
%TF.ProjectId,labathome_pcb15,6c616261-7468-46f6-9d65-5f7063623135,rev?*%
%TF.SameCoordinates,Original*%
%TF.FileFunction,Profile,NP*%
%FSLAX46Y46*%
G04 Gerber Fmt 4.6, Leading zero omitted, Abs format (unit mm)*
G04 Created by KiCad (PCBNEW 8.0.5) date 2024-10-17 22:57:38*
%MOMM*%
%LPD*%
G01*
G04 APERTURE LIST*
%TA.AperFunction,Profile*%
%ADD10C,0.100000*%
%TD*%
%TA.AperFunction,Profile*%
%ADD11C,0.050000*%
%TD*%
G04 APERTURE END LIST*
D10*
X169000000Y-150000000D02*
G75*
G02*
X167000000Y-148000000I0J2000000D01*
G01*
X122200000Y-150000000D02*
X122200000Y-145800000D01*
X100000000Y-52000000D02*
G75*
G02*
X102000000Y-50000000I2000000J0D01*
G01*
X100000000Y-52000000D02*
X100000000Y-148000000D01*
X120600000Y-145200000D02*
X122600000Y-145200000D01*
X200000000Y-148000000D02*
G75*
G02*
X198000000Y-150000000I-2000000J0D01*
G01*
X129200000Y-148000000D02*
X129200000Y-142700000D01*
X198000000Y-50000000D02*
G75*
G02*
X200000000Y-52000000I0J-2000000D01*
G01*
X187250000Y-150000000D02*
G75*
G02*
X185650000Y-148400000I0J1600000D01*
G01*
X129200000Y-142700000D02*
X167000000Y-142700000D01*
X129200000Y-148000000D02*
G75*
G02*
X127200000Y-150000000I-2000000J0D01*
G01*
X116200000Y-150000000D02*
X116200000Y-145200000D01*
X122600000Y-150000000D02*
X127200000Y-150000000D01*
X116800000Y-145800000D02*
X116800000Y-150000000D01*
X102000000Y-150000000D02*
X116200000Y-150000000D01*
X116800000Y-150000000D02*
X122200000Y-150000000D01*
X120600000Y-145800000D02*
X120600000Y-145200000D01*
X118400000Y-145800000D02*
X116800000Y-145800000D01*
X167000000Y-142700000D02*
X167000000Y-148000000D01*
X122600000Y-145200000D02*
X122600000Y-150000000D01*
X200000000Y-148000000D02*
X200000000Y-52000000D01*
X187250000Y-150000000D02*
X198000000Y-150000000D01*
X102000000Y-150000000D02*
G75*
G02*
X100000000Y-148000000I0J2000000D01*
G01*
X169000000Y-150000000D02*
X177250000Y-150000000D01*
X178850000Y-148400000D02*
G75*
G02*
X177250000Y-150000000I-1600000J0D01*
G01*
X178850000Y-148400000D02*
X185650000Y-148400000D01*
X118400000Y-145200000D02*
X118400000Y-145800000D01*
X116200000Y-145200000D02*
X118400000Y-145200000D01*
X122200000Y-145800000D02*
X120600000Y-145800000D01*
X198000000Y-50000000D02*
X102000000Y-50000000D01*
D11*
%TO.C,SW5*%
X132900000Y-122000000D02*
G75*
G02*
X128900000Y-122000000I-2000000J0D01*
G01*
X128900000Y-122000000D02*
G75*
G02*
X132900000Y-122000000I2000000J0D01*
G01*
D10*
%TO.C,D21*%
X155410001Y-92634453D02*
X155410001Y-91045549D01*
X156207159Y-90140002D02*
X157612843Y-90140002D01*
X157612843Y-93540000D02*
X156207159Y-93540000D01*
X158410000Y-91045548D02*
X158410000Y-92634453D01*
X155341702Y-90793290D02*
G75*
G02*
X155410000Y-91045549I-431712J-252260D01*
G01*
X155341702Y-90793290D02*
G75*
G02*
X155990281Y-90090518I431698J252260D01*
G01*
X155410001Y-92634453D02*
G75*
G02*
X155341702Y-92886711I-500009J3D01*
G01*
X155990281Y-93589485D02*
G75*
G02*
X155341704Y-92886712I-216877J450515D01*
G01*
X155990281Y-93589485D02*
G75*
G02*
X156207158Y-93540000I216876J-450505D01*
G01*
X156207159Y-90140002D02*
G75*
G02*
X155990281Y-90090517I81J500352D01*
G01*
X157612843Y-93540000D02*
G75*
G02*
X157829721Y-93589485I2J-499990D01*
G01*
X157829721Y-90090517D02*
G75*
G02*
X157612844Y-90140000I-216921J450717D01*
G01*
X157829721Y-90090517D02*
G75*
G02*
X158478298Y-90793290I216879J-450513D01*
G01*
X158410000Y-91045548D02*
G75*
G02*
X158478299Y-90793290I500010J-2D01*
G01*
X158478300Y-92886712D02*
G75*
G02*
X157829721Y-93589485I-431701J-252258D01*
G01*
X158478300Y-92886712D02*
G75*
G02*
X158410001Y-92634454I431710J252261D01*
G01*
D11*
%TO.C,D19*%
X119250000Y-75800000D02*
X119250000Y-77500000D01*
X119850000Y-77800000D02*
X120750000Y-77800000D01*
X120750000Y-75500000D02*
X119850000Y-75500000D01*
X121350000Y-77500000D02*
X121350000Y-75800000D01*
X119250000Y-75800000D02*
G75*
G02*
X119850000Y-75500000I300000J150000D01*
G01*
X119850000Y-77800000D02*
G75*
G02*
X119250000Y-77500000I-300000J150000D01*
G01*
X120750000Y-75500000D02*
G75*
G02*
X121350000Y-75800000I300000J-150000D01*
G01*
X121350000Y-77500000D02*
G75*
G02*
X120750000Y-77800000I-300000J-150000D01*
G01*
%TO.C,SW7*%
X175100000Y-99000000D02*
G75*
G02*
X171100000Y-99000000I-2000000J0D01*
G01*
X171100000Y-99000000D02*
G75*
G02*
X175100000Y-99000000I2000000J0D01*
G01*
D10*
%TO.C,D15*%
X150804202Y-92634453D02*
X150804202Y-91045549D01*
X151601360Y-90140002D02*
X153007044Y-90140002D01*
X153007044Y-93540000D02*
X151601360Y-93540000D01*
X153804201Y-91045548D02*
X153804201Y-92634453D01*
X150735903Y-90793290D02*
G75*
G02*
X150804201Y-91045549I-431712J-252260D01*
G01*
X150735903Y-90793290D02*
G75*
G02*
X151384482Y-90090518I431698J252260D01*
G01*
X150804202Y-92634453D02*
G75*
G02*
X150735903Y-92886711I-500009J3D01*
G01*
X151384482Y-93589485D02*
G75*
G02*
X150735905Y-92886712I-216877J450515D01*
G01*
X151384482Y-93589485D02*
G75*
G02*
X151601359Y-93540000I216876J-450505D01*
G01*
X151601360Y-90140002D02*
G75*
G02*
X151384482Y-90090517I81J500352D01*
G01*
X153007044Y-93540000D02*
G75*
G02*
X153223922Y-93589485I2J-499990D01*
G01*
X153223922Y-90090517D02*
G75*
G02*
X153007045Y-90140000I-216921J450717D01*
G01*
X153223922Y-90090517D02*
G75*
G02*
X153872499Y-90793290I216879J-450513D01*
G01*
X153804201Y-91045548D02*
G75*
G02*
X153872500Y-90793290I500010J-2D01*
G01*
X153872501Y-92886712D02*
G75*
G02*
X153223922Y-93589485I-431701J-252258D01*
G01*
X153872501Y-92886712D02*
G75*
G02*
X153804202Y-92634454I431710J252261D01*
G01*
D11*
%TO.C,SW8*%
X175100000Y-129000000D02*
G75*
G02*
X171100000Y-129000000I-2000000J0D01*
G01*
X171100000Y-129000000D02*
G75*
G02*
X175100000Y-129000000I2000000J0D01*
G01*
D10*
%TO.C,D17*%
X141710001Y-92684453D02*
X141710001Y-91095549D01*
X142507159Y-90190002D02*
X143912843Y-90190002D01*
X143912843Y-93590000D02*
X142507159Y-93590000D01*
X144710000Y-91095548D02*
X144710000Y-92684453D01*
X141641702Y-90843290D02*
G75*
G02*
X141710000Y-91095549I-431712J-252260D01*
G01*
X141641702Y-90843290D02*
G75*
G02*
X142290281Y-90140518I431698J252260D01*
G01*
X141710001Y-92684453D02*
G75*
G02*
X141641702Y-92936711I-500009J3D01*
G01*
X142290281Y-93639485D02*
G75*
G02*
X141641704Y-92936712I-216877J450515D01*
G01*
X142290281Y-93639485D02*
G75*
G02*
X142507158Y-93590000I216876J-450505D01*
G01*
X142507159Y-90190002D02*
G75*
G02*
X142290281Y-90140517I81J500352D01*
G01*
X143912843Y-93590000D02*
G75*
G02*
X144129721Y-93639485I2J-499990D01*
G01*
X144129721Y-90140517D02*
G75*
G02*
X143912844Y-90190000I-216921J450717D01*
G01*
X144129721Y-90140517D02*
G75*
G02*
X144778298Y-90843290I216879J-450513D01*
G01*
X144710000Y-91095548D02*
G75*
G02*
X144778299Y-90843290I500010J-2D01*
G01*
X144778300Y-92936712D02*
G75*
G02*
X144129721Y-93639485I-431701J-252258D01*
G01*
X144778300Y-92936712D02*
G75*
G02*
X144710001Y-92684454I431710J252261D01*
G01*
%TO.C,D16*%
X146210001Y-92634453D02*
X146210001Y-91045549D01*
X147007159Y-90140002D02*
X148412843Y-90140002D01*
X148412843Y-93540000D02*
X147007159Y-93540000D01*
X149210000Y-91045548D02*
X149210000Y-92634453D01*
X146141702Y-90793290D02*
G75*
G02*
X146210000Y-91045549I-431712J-252260D01*
G01*
X146141702Y-90793290D02*
G75*
G02*
X146790281Y-90090518I431698J252260D01*
G01*
X146210001Y-92634453D02*
G75*
G02*
X146141702Y-92886711I-500009J3D01*
G01*
X146790281Y-93589485D02*
G75*
G02*
X146141704Y-92886712I-216877J450515D01*
G01*
X146790281Y-93589485D02*
G75*
G02*
X147007158Y-93540000I216876J-450505D01*
G01*
X147007159Y-90140002D02*
G75*
G02*
X146790281Y-90090517I81J500352D01*
G01*
X148412843Y-93540000D02*
G75*
G02*
X148629721Y-93589485I2J-499990D01*
G01*
X148629721Y-90090517D02*
G75*
G02*
X148412844Y-90140000I-216921J450717D01*
G01*
X148629721Y-90090517D02*
G75*
G02*
X149278298Y-90793290I216879J-450513D01*
G01*
X149210000Y-91045548D02*
G75*
G02*
X149278299Y-90793290I500010J-2D01*
G01*
X149278300Y-92886712D02*
G75*
G02*
X148629721Y-93589485I-431701J-252258D01*
G01*
X149278300Y-92886712D02*
G75*
G02*
X149210001Y-92634454I431710J252261D01*
G01*
D11*
%TO.C,D14*%
X179350000Y-74550000D02*
X179350000Y-76250000D01*
X179950000Y-76550000D02*
X180850000Y-76550000D01*
X180850000Y-74250000D02*
X179950000Y-74250000D01*
X181450000Y-76250000D02*
X181450000Y-74550000D01*
X179350000Y-74550000D02*
G75*
G02*
X179950000Y-74250000I300000J150000D01*
G01*
X179950000Y-76550000D02*
G75*
G02*
X179350000Y-76250000I-300000J150000D01*
G01*
X180850000Y-74250000D02*
G75*
G02*
X181450000Y-74550000I300000J-150000D01*
G01*
X181450000Y-76250000D02*
G75*
G02*
X180850000Y-76550000I-300000J-150000D01*
G01*
%TD*%
M02*
