%TF.GenerationSoftware,KiCad,Pcbnew,8.0.3*%
%TF.CreationDate,2024-07-06T00:02:26+02:00*%
%TF.ProjectId,labathome_pcb15,6c616261-7468-46f6-9d65-5f7063623135,rev?*%
%TF.SameCoordinates,Original*%
%TF.FileFunction,Soldermask,Top*%
%TF.FilePolarity,Negative*%
%FSLAX46Y46*%
G04 Gerber Fmt 4.6, Leading zero omitted, Abs format (unit mm)*
G04 Created by KiCad (PCBNEW 8.0.3) date 2024-07-06 00:02:26*
%MOMM*%
%LPD*%
G01*
G04 APERTURE LIST*
G04 Aperture macros list*
%AMRoundRect*
0 Rectangle with rounded corners*
0 $1 Rounding radius*
0 $2 $3 $4 $5 $6 $7 $8 $9 X,Y pos of 4 corners*
0 Add a 4 corners polygon primitive as box body*
4,1,4,$2,$3,$4,$5,$6,$7,$8,$9,$2,$3,0*
0 Add four circle primitives for the rounded corners*
1,1,$1+$1,$2,$3*
1,1,$1+$1,$4,$5*
1,1,$1+$1,$6,$7*
1,1,$1+$1,$8,$9*
0 Add four rect primitives between the rounded corners*
20,1,$1+$1,$2,$3,$4,$5,0*
20,1,$1+$1,$4,$5,$6,$7,0*
20,1,$1+$1,$6,$7,$8,$9,0*
20,1,$1+$1,$8,$9,$2,$3,0*%
G04 Aperture macros list end*
%ADD10R,1.700000X1.700000*%
%ADD11O,1.700000X1.700000*%
%ADD12O,1.800000X1.400000*%
%ADD13RoundRect,0.500000X0.350000X0.350000X-0.350000X0.350000X-0.350000X-0.350000X0.350000X-0.350000X0*%
%ADD14RoundRect,0.750000X-1.000000X0.750000X-1.000000X-0.750000X1.000000X-0.750000X1.000000X0.750000X0*%
%ADD15RoundRect,0.750000X-1.000000X1.000000X-1.000000X-1.000000X1.000000X-1.000000X1.000000X1.000000X0*%
%ADD16RoundRect,0.875000X-0.875000X0.875000X-0.875000X-0.875000X0.875000X-0.875000X0.875000X0.875000X0*%
%ADD17R,1.000000X2.000000*%
%ADD18RoundRect,0.450000X-0.750000X0.450000X-0.750000X-0.450000X0.750000X-0.450000X0.750000X0.450000X0*%
%ADD19R,2.200000X1.400000*%
%ADD20RoundRect,0.250000X-0.325000X-0.450000X0.325000X-0.450000X0.325000X0.450000X-0.325000X0.450000X0*%
%ADD21O,1.900000X3.200000*%
%ADD22C,1.500000*%
%ADD23R,1.100000X1.800000*%
%ADD24RoundRect,0.275000X-0.275000X-0.625000X0.275000X-0.625000X0.275000X0.625000X-0.275000X0.625000X0*%
%ADD25RoundRect,0.450000X0.750000X-0.450000X0.750000X0.450000X-0.750000X0.450000X-0.750000X-0.450000X0*%
%ADD26RoundRect,0.250000X0.450000X-0.325000X0.450000X0.325000X-0.450000X0.325000X-0.450000X-0.325000X0*%
%ADD27RoundRect,0.400000X-0.400000X-0.400000X0.400000X-0.400000X0.400000X0.400000X-0.400000X0.400000X0*%
%ADD28O,1.800000X1.600000*%
%ADD29RoundRect,0.150000X-0.150000X-0.850000X0.150000X-0.850000X0.150000X0.850000X-0.150000X0.850000X0*%
%ADD30RoundRect,0.444444X-0.555556X-0.755556X0.555556X-0.755556X0.555556X0.755556X-0.555556X0.755556X0*%
%ADD31RoundRect,0.416666X-0.583334X-0.783334X0.583334X-0.783334X0.583334X0.783334X-0.583334X0.783334X0*%
%ADD32RoundRect,0.250000X-0.450000X0.325000X-0.450000X-0.325000X0.450000X-0.325000X0.450000X0.325000X0*%
%ADD33R,2.200000X3.000000*%
%ADD34R,2.200000X2.000000*%
%ADD35R,1.000000X1.000000*%
%ADD36O,1.000000X1.000000*%
%ADD37O,1.400000X1.800000*%
%ADD38O,1.600000X2.200000*%
%ADD39C,1.700000*%
%ADD40RoundRect,0.400000X-0.400000X-0.600000X0.400000X-0.600000X0.400000X0.600000X-0.400000X0.600000X0*%
%ADD41O,1.600000X2.000000*%
%ADD42R,1.350000X1.350000*%
%ADD43C,1.350000*%
%ADD44C,1.200000*%
%ADD45RoundRect,0.250000X0.325000X0.450000X-0.325000X0.450000X-0.325000X-0.450000X0.325000X-0.450000X0*%
%ADD46RoundRect,0.400000X-0.400000X0.600000X-0.400000X-0.600000X0.400000X-0.600000X0.400000X0.600000X0*%
%ADD47R,2.000000X3.200000*%
%ADD48C,3.400000*%
%ADD49R,1.600000X1.600000*%
%ADD50C,1.600000*%
%ADD51RoundRect,0.500000X-0.350000X-0.350000X0.350000X-0.350000X0.350000X0.350000X-0.350000X0.350000X0*%
%ADD52O,1.600000X1.200000*%
%ADD53O,3.500000X3.500000*%
%ADD54C,3.600000*%
%ADD55C,0.900000*%
%ADD56C,1.000000*%
%ADD57C,2.000000*%
%ADD58O,1.350000X1.350000*%
%ADD59C,0.650000*%
%ADD60O,2.500000X2.000000*%
%ADD61O,3.500000X2.000000*%
%ADD62R,2.000000X1.905000*%
%ADD63O,2.000000X1.905000*%
%ADD64RoundRect,0.250000X0.750000X-0.600000X0.750000X0.600000X-0.750000X0.600000X-0.750000X-0.600000X0*%
%ADD65O,2.000000X1.700000*%
%ADD66C,3.200000*%
%ADD67RoundRect,0.500000X-1.250000X-1.250000X1.250000X-1.250000X1.250000X1.250000X-1.250000X1.250000X0*%
%ADD68C,3.500000*%
%ADD69R,1.800000X1.100000*%
%ADD70RoundRect,0.275000X-0.625000X0.275000X-0.625000X-0.275000X0.625000X-0.275000X0.625000X0.275000X0*%
G04 APERTURE END LIST*
D10*
%TO.C,J12*%
X111600000Y-148380000D03*
D11*
X111600000Y-145840000D03*
X111600000Y-143300000D03*
X111600000Y-140760000D03*
X111600000Y-138220000D03*
X111600000Y-135680000D03*
X111600000Y-133140000D03*
X111600000Y-130600000D03*
%TD*%
D12*
%TO.C,SW9*%
X111600000Y-56800000D03*
X111600000Y-54300000D03*
X111600000Y-51800000D03*
%TD*%
D13*
%TO.C,J32*%
X149550000Y-86980000D03*
D11*
X149550000Y-84440000D03*
X149550000Y-81900000D03*
%TD*%
D10*
%TO.C,J10*%
X114800000Y-110600000D03*
D11*
X114800000Y-113140000D03*
X114800000Y-115680000D03*
X114800000Y-118220000D03*
X114800000Y-120760000D03*
X114800000Y-123300000D03*
%TD*%
D14*
%TO.C,J9*%
X118457500Y-57700000D03*
D15*
X118457500Y-63700000D03*
D16*
X113757500Y-60700000D03*
%TD*%
D17*
%TO.C,SW5*%
X123800000Y-122600000D03*
X123800000Y-116000000D03*
X127600000Y-122600000D03*
X127600000Y-116000000D03*
%TD*%
D18*
%TO.C,J27*%
X108005000Y-110950000D03*
X108005000Y-114450000D03*
X108005000Y-117950000D03*
X108005000Y-121450000D03*
%TD*%
D19*
%TO.C,D15*%
X159100000Y-90050000D03*
X159100000Y-93350000D03*
X164300000Y-93350000D03*
X164300000Y-90050000D03*
%TD*%
D20*
%TO.C,D19*%
X117475000Y-77700000D03*
X119525000Y-77700000D03*
%TD*%
D21*
%TO.C,SW7*%
X175550000Y-91200000D03*
X175550000Y-103700000D03*
X170550000Y-91200000D03*
X170550000Y-103700000D03*
%TD*%
D22*
%TO.C,R32*%
X174800000Y-86400000D03*
X171400000Y-86400000D03*
%TD*%
D23*
%TO.C,U13*%
X181850000Y-124400000D03*
D24*
X183120000Y-122330000D03*
X184390000Y-124400000D03*
%TD*%
D18*
%TO.C,J1*%
X108005000Y-95550000D03*
X108005000Y-99050000D03*
X108005000Y-102550000D03*
X108005000Y-106050000D03*
%TD*%
D25*
%TO.C,J18*%
X191995000Y-89150000D03*
X191995000Y-85650000D03*
X191995000Y-82150000D03*
X191995000Y-78650000D03*
%TD*%
%TO.C,J15*%
X192000000Y-147550000D03*
X192000000Y-144050000D03*
X192000000Y-140550000D03*
X192000000Y-137050000D03*
%TD*%
D26*
%TO.C,D1*%
X129700000Y-120425000D03*
X129700000Y-118375000D03*
%TD*%
D18*
%TO.C,J2*%
X108005000Y-137050000D03*
X108005000Y-140550000D03*
X108005000Y-144050000D03*
X108005000Y-147550000D03*
%TD*%
D27*
%TO.C,M1*%
X162540000Y-51500000D03*
D28*
X162540000Y-54040000D03*
X162540000Y-56580000D03*
X162540000Y-59120000D03*
X162540000Y-61660000D03*
X162540000Y-64200000D03*
X182860000Y-64200000D03*
X182860000Y-61660000D03*
X182860000Y-59120000D03*
X182860000Y-56580000D03*
X182860000Y-54040000D03*
X182860000Y-51500000D03*
%TD*%
D29*
%TO.C,J25*%
X123550000Y-80600000D03*
X124550000Y-80600000D03*
X125550000Y-80600000D03*
X126550000Y-80600000D03*
X127550000Y-80600000D03*
X128550000Y-80600000D03*
D30*
X121850000Y-77550000D03*
D31*
X130250000Y-77550000D03*
%TD*%
D32*
%TO.C,D6*%
X135700000Y-118375000D03*
X135700000Y-120425000D03*
%TD*%
D19*
%TO.C,D17*%
X143500000Y-90050000D03*
X143500000Y-93350000D03*
X148700000Y-93350000D03*
X148700000Y-90050000D03*
%TD*%
D33*
%TO.C,D8*%
X152500000Y-66900000D03*
D34*
X152500000Y-63850000D03*
%TD*%
D19*
%TO.C,D16*%
X151300000Y-90050000D03*
X151300000Y-93350000D03*
X156500000Y-93350000D03*
X156500000Y-90050000D03*
%TD*%
D21*
%TO.C,SW8*%
X175600000Y-124350000D03*
X175600000Y-136850000D03*
X170600000Y-124350000D03*
X170600000Y-136850000D03*
%TD*%
D33*
%TO.C,D9*%
X152500000Y-74300000D03*
D34*
X152500000Y-71250000D03*
%TD*%
D35*
%TO.C,J6*%
X168230000Y-143830000D03*
D36*
X169500000Y-143830000D03*
X168230000Y-145100000D03*
X169500000Y-145100000D03*
X168230000Y-146370000D03*
X169500000Y-146370000D03*
%TD*%
D17*
%TO.C,SW1*%
X180600000Y-148550000D03*
X180600000Y-141950000D03*
X184400000Y-148550000D03*
X184400000Y-141950000D03*
%TD*%
D26*
%TO.C,D5*%
X133700000Y-120425000D03*
X133700000Y-118375000D03*
%TD*%
D10*
%TO.C,J19*%
X111200000Y-123300000D03*
D11*
X111200000Y-120760000D03*
X111200000Y-118220000D03*
X111200000Y-115680000D03*
X111200000Y-113140000D03*
X111200000Y-110600000D03*
%TD*%
D37*
%TO.C,SW4*%
X134100000Y-110900000D03*
X131600000Y-110900000D03*
X129100000Y-110900000D03*
%TD*%
D10*
%TO.C,J20*%
X115200000Y-130680000D03*
D11*
X115200000Y-133220000D03*
X115200000Y-135760000D03*
X115200000Y-138300000D03*
X115200000Y-140840000D03*
X115200000Y-143380000D03*
X115200000Y-145920000D03*
X115200000Y-148460000D03*
%TD*%
D32*
%TO.C,D4*%
X131700000Y-118375000D03*
X131700000Y-120425000D03*
%TD*%
D10*
%TO.C,J4*%
X115000000Y-104600000D03*
D11*
X115000000Y-102060000D03*
X115000000Y-99520000D03*
X115000000Y-96980000D03*
%TD*%
D38*
%TO.C,X3*%
X164880000Y-68300000D03*
X167420000Y-68300000D03*
X169960000Y-68300000D03*
X172500000Y-68300000D03*
X175040000Y-68300000D03*
X177580000Y-68300000D03*
X180120000Y-68300000D03*
%TD*%
D18*
%TO.C,J22*%
X108005000Y-52450000D03*
X108005000Y-55950000D03*
X108005000Y-59450000D03*
X108005000Y-62950000D03*
%TD*%
D10*
%TO.C,U15*%
X168875000Y-62489500D03*
D39*
X168875000Y-59949500D03*
X171415000Y-62489500D03*
X171415000Y-59949500D03*
X173955000Y-62489500D03*
X173955000Y-59949500D03*
X176495000Y-62489500D03*
X176495000Y-59949500D03*
%TD*%
D40*
%TO.C,U21*%
X142380000Y-112000000D03*
D41*
X144920000Y-112000000D03*
X147460000Y-112000000D03*
X150000000Y-112000000D03*
X152540000Y-112000000D03*
X155080000Y-112000000D03*
X157620000Y-112000000D03*
%TD*%
D13*
%TO.C,J33*%
X153150000Y-86980000D03*
D11*
X153150000Y-84440000D03*
X153150000Y-81900000D03*
%TD*%
D42*
%TO.C,U6*%
X165792500Y-51492500D03*
D43*
X165792500Y-53492500D03*
X165792500Y-55492500D03*
X165792500Y-57492500D03*
X165792500Y-59492500D03*
X165792500Y-61492500D03*
X165792500Y-63492500D03*
X165792500Y-65492500D03*
X179392500Y-65492500D03*
X179392500Y-63492500D03*
X179392500Y-61492500D03*
X179392500Y-59492500D03*
X179392500Y-57492500D03*
X179392500Y-55492500D03*
X179392500Y-53492500D03*
X179392500Y-51492500D03*
%TD*%
D33*
%TO.C,D10*%
X147500000Y-71700000D03*
D34*
X147500000Y-74750000D03*
%TD*%
D19*
%TO.C,D18*%
X135700000Y-90050000D03*
X135700000Y-93350000D03*
X140900000Y-93350000D03*
X140900000Y-90050000D03*
%TD*%
D44*
%TO.C,MK1*%
X184350000Y-115300000D03*
X182450000Y-115300000D03*
%TD*%
D45*
%TO.C,D14*%
X183125000Y-77700000D03*
X181075000Y-77700000D03*
%TD*%
D46*
%TO.C,SW6*%
X175600000Y-106800000D03*
D41*
X170600000Y-106800000D03*
X173100000Y-106800000D03*
D47*
X178700000Y-114300000D03*
X167500000Y-114300000D03*
D41*
X170600000Y-121300000D03*
X175600000Y-121300000D03*
%TD*%
D25*
%TO.C,J24*%
X191995000Y-73750000D03*
X191995000Y-70250000D03*
X191995000Y-66750000D03*
X191995000Y-63250000D03*
%TD*%
D33*
%TO.C,D12*%
X147500000Y-56200000D03*
D34*
X147500000Y-59250000D03*
%TD*%
D33*
%TO.C,D11*%
X147500000Y-64300000D03*
D34*
X147500000Y-67350000D03*
%TD*%
D10*
%TO.C,J23*%
X123700000Y-105900000D03*
D11*
X126240000Y-105900000D03*
X128780000Y-105900000D03*
X131320000Y-105900000D03*
X133860000Y-105900000D03*
X136400000Y-105900000D03*
%TD*%
D48*
%TO.C,X1*%
X125000000Y-142505000D03*
X175000000Y-142505000D03*
%TD*%
D49*
%TO.C,C39*%
X112800000Y-83082380D03*
D50*
X112800000Y-80582380D03*
%TD*%
D13*
%TO.C,J31*%
X145950000Y-86980000D03*
D11*
X145950000Y-84440000D03*
X145950000Y-81900000D03*
%TD*%
D51*
%TO.C,J8*%
X132700000Y-94600000D03*
D11*
X132700000Y-97140000D03*
X132700000Y-99680000D03*
X132700000Y-102220000D03*
%TD*%
D18*
%TO.C,J28*%
X108005000Y-80150000D03*
X108005000Y-83650000D03*
X108005000Y-87150000D03*
X108005000Y-90650000D03*
%TD*%
D25*
%TO.C,J21*%
X192000000Y-132150000D03*
X192000000Y-128650000D03*
X192000000Y-125150000D03*
X192000000Y-121650000D03*
%TD*%
D52*
%TO.C,U22*%
X175800000Y-78820000D03*
D44*
X175800000Y-76580000D03*
X174220000Y-75000000D03*
X170400000Y-76580000D03*
X170400000Y-78820000D03*
X171980000Y-80400000D03*
%TD*%
D33*
%TO.C,D7*%
X152500000Y-59300000D03*
D34*
X152500000Y-56250000D03*
%TD*%
D53*
%TO.C,R33*%
X127750000Y-53800000D03*
X172250000Y-53800000D03*
D54*
X110300000Y-63800000D03*
X189700000Y-63800000D03*
%TD*%
D55*
%TO.C,SW3*%
X196930000Y-142700000D03*
X196930000Y-145700000D03*
%TD*%
D56*
%TO.C,J17*%
X141900000Y-145975000D03*
X133900000Y-145975000D03*
%TD*%
D55*
%TO.C,SW2*%
X196900000Y-131700000D03*
X196900000Y-134700000D03*
%TD*%
D57*
%TO.C,LS2*%
X154000000Y-97800000D03*
X150000000Y-97800000D03*
X146000000Y-97800000D03*
X156000000Y-99050000D03*
X152000000Y-99050000D03*
X148000000Y-99050000D03*
X144000000Y-99050000D03*
X158000000Y-100300000D03*
X154000000Y-100300000D03*
X150000000Y-100300000D03*
X146000000Y-100300000D03*
X142000000Y-100300000D03*
X156000000Y-101550000D03*
X152000000Y-101550000D03*
X148000000Y-101550000D03*
X144000000Y-101550000D03*
X158000000Y-102800000D03*
X154000000Y-102800000D03*
X150000000Y-102800000D03*
X146000000Y-102800000D03*
X142000000Y-102800000D03*
X156000000Y-104050000D03*
X152000000Y-104050000D03*
X148000000Y-104050000D03*
X144000000Y-104050000D03*
X158000000Y-105300000D03*
X154000000Y-105300000D03*
X150000000Y-105300000D03*
X146000000Y-105300000D03*
X142000000Y-105300000D03*
X156000000Y-106550000D03*
X152000000Y-106550000D03*
X148000000Y-106550000D03*
X144000000Y-106550000D03*
X154000000Y-107800000D03*
X150000000Y-107800000D03*
X146000000Y-107800000D03*
%TD*%
D44*
%TO.C,J14*%
X190975000Y-104000000D03*
X196975000Y-104000000D03*
%TD*%
D42*
%TO.C,LS1*%
X183050000Y-93800000D03*
D58*
X181050000Y-93800000D03*
%TD*%
D59*
%TO.C,J13*%
X106350000Y-74740000D03*
X106350000Y-68960000D03*
D60*
X102650000Y-76670000D03*
D61*
X106830000Y-76670000D03*
D60*
X102650000Y-67030000D03*
D61*
X106830000Y-67030000D03*
%TD*%
D44*
%TO.C,J16*%
X190975000Y-115000000D03*
X196975000Y-115000000D03*
%TD*%
D53*
%TO.C,Q3*%
X127770000Y-63500000D03*
D62*
X144430000Y-66040000D03*
D63*
X144430000Y-63500000D03*
X144430000Y-60960000D03*
%TD*%
D64*
%TO.C,J7*%
X157675000Y-85775000D03*
D65*
X157675000Y-83275000D03*
%TD*%
D44*
%TO.C,J3*%
X190975000Y-93000000D03*
X196975000Y-93000000D03*
%TD*%
D66*
%TO.C,BT1*%
X122345000Y-127600000D03*
X177955000Y-127600000D03*
D67*
X113700000Y-127600000D03*
D68*
X185700000Y-127600000D03*
%TD*%
D69*
%TO.C,U17*%
X158520000Y-62830000D03*
D70*
X156450000Y-64100000D03*
X158520000Y-65370000D03*
%TD*%
D59*
%TO.C,J5*%
X106400000Y-131490000D03*
X106400000Y-125710000D03*
D60*
X102700000Y-133420000D03*
D61*
X106880000Y-133420000D03*
D60*
X102700000Y-123780000D03*
D61*
X106880000Y-123780000D03*
%TD*%
M02*
