%TF.GenerationSoftware,KiCad,Pcbnew,8.0.3*%
%TF.CreationDate,2024-08-25T19:37:56+02:00*%
%TF.ProjectId,labathome_pcb15,6c616261-7468-46f6-9d65-5f7063623135,rev?*%
%TF.SameCoordinates,Original*%
%TF.FileFunction,Legend,Bot*%
%TF.FilePolarity,Positive*%
%FSLAX46Y46*%
G04 Gerber Fmt 4.6, Leading zero omitted, Abs format (unit mm)*
G04 Created by KiCad (PCBNEW 8.0.3) date 2024-08-25 19:37:56*
%MOMM*%
%LPD*%
G01*
G04 APERTURE LIST*
G04 Aperture macros list*
%AMRoundRect*
0 Rectangle with rounded corners*
0 $1 Rounding radius*
0 $2 $3 $4 $5 $6 $7 $8 $9 X,Y pos of 4 corners*
0 Add a 4 corners polygon primitive as box body*
4,1,4,$2,$3,$4,$5,$6,$7,$8,$9,$2,$3,0*
0 Add four circle primitives for the rounded corners*
1,1,$1+$1,$2,$3*
1,1,$1+$1,$4,$5*
1,1,$1+$1,$6,$7*
1,1,$1+$1,$8,$9*
0 Add four rect primitives between the rounded corners*
20,1,$1+$1,$2,$3,$4,$5,0*
20,1,$1+$1,$4,$5,$6,$7,0*
20,1,$1+$1,$6,$7,$8,$9,0*
20,1,$1+$1,$8,$9,$2,$3,0*%
G04 Aperture macros list end*
%ADD10C,0.250000*%
%ADD11C,0.150000*%
%ADD12C,0.120000*%
%ADD13C,0.100000*%
%ADD14C,1.200000*%
%ADD15R,1.700000X1.700000*%
%ADD16O,1.700000X1.700000*%
%ADD17O,1.800000X1.400000*%
%ADD18RoundRect,0.500000X0.350000X0.350000X-0.350000X0.350000X-0.350000X-0.350000X0.350000X-0.350000X0*%
%ADD19RoundRect,0.750000X-1.000000X0.750000X-1.000000X-0.750000X1.000000X-0.750000X1.000000X0.750000X0*%
%ADD20RoundRect,0.750000X-1.000000X1.000000X-1.000000X-1.000000X1.000000X-1.000000X1.000000X1.000000X0*%
%ADD21RoundRect,0.875000X-0.875000X0.875000X-0.875000X-0.875000X0.875000X-0.875000X0.875000X0.875000X0*%
%ADD22RoundRect,0.450000X-0.750000X0.450000X-0.750000X-0.450000X0.750000X-0.450000X0.750000X0.450000X0*%
%ADD23RoundRect,0.250000X0.600000X-0.600000X0.600000X0.600000X-0.600000X0.600000X-0.600000X-0.600000X0*%
%ADD24O,1.900000X3.200000*%
%ADD25C,1.500000*%
%ADD26R,1.100000X1.800000*%
%ADD27RoundRect,0.275000X-0.275000X-0.625000X0.275000X-0.625000X0.275000X0.625000X-0.275000X0.625000X0*%
%ADD28RoundRect,0.450000X0.750000X-0.450000X0.750000X0.450000X-0.750000X0.450000X-0.750000X-0.450000X0*%
%ADD29RoundRect,0.400000X-0.400000X-0.400000X0.400000X-0.400000X0.400000X0.400000X-0.400000X0.400000X0*%
%ADD30O,1.800000X1.600000*%
%ADD31R,1.000000X1.000000*%
%ADD32O,1.000000X1.000000*%
%ADD33O,1.400000X1.800000*%
%ADD34O,1.600000X2.200000*%
%ADD35RoundRect,0.220589X0.529411X-0.529411X0.529411X0.529411X-0.529411X0.529411X-0.529411X-0.529411X0*%
%ADD36O,1.700000X1.500000*%
%ADD37O,1.500000X1.700000*%
%ADD38C,1.700000*%
%ADD39RoundRect,0.400000X-0.400000X-0.600000X0.400000X-0.600000X0.400000X0.600000X-0.400000X0.600000X0*%
%ADD40O,1.600000X2.000000*%
%ADD41R,1.350000X1.350000*%
%ADD42C,1.350000*%
%ADD43RoundRect,0.400000X-0.400000X0.600000X-0.400000X-0.600000X0.400000X-0.600000X0.400000X0.600000X0*%
%ADD44R,2.000000X3.200000*%
%ADD45C,3.400000*%
%ADD46C,1.600000*%
%ADD47O,1.600000X1.600000*%
%ADD48RoundRect,0.250000X0.550000X-0.550000X0.550000X0.550000X-0.550000X0.550000X-0.550000X-0.550000X0*%
%ADD49RoundRect,0.500000X0.350000X-0.350000X0.350000X0.350000X-0.350000X0.350000X-0.350000X-0.350000X0*%
%ADD50O,1.600000X1.200000*%
%ADD51RoundRect,0.135000X-0.035355X0.226274X-0.226274X0.035355X0.035355X-0.226274X0.226274X-0.035355X0*%
%ADD52RoundRect,0.150000X-0.587500X-0.150000X0.587500X-0.150000X0.587500X0.150000X-0.587500X0.150000X0*%
%ADD53RoundRect,0.140000X0.140000X0.170000X-0.140000X0.170000X-0.140000X-0.170000X0.140000X-0.170000X0*%
%ADD54RoundRect,0.140000X-0.140000X-0.170000X0.140000X-0.170000X0.140000X0.170000X-0.140000X0.170000X0*%
%ADD55RoundRect,0.250000X-1.500000X-0.550000X1.500000X-0.550000X1.500000X0.550000X-1.500000X0.550000X0*%
%ADD56RoundRect,0.200000X-0.200000X-0.275000X0.200000X-0.275000X0.200000X0.275000X-0.200000X0.275000X0*%
%ADD57O,3.500000X3.500000*%
%ADD58C,3.600000*%
%ADD59RoundRect,0.250000X-0.450000X0.350000X-0.450000X-0.350000X0.450000X-0.350000X0.450000X0.350000X0*%
%ADD60RoundRect,0.135000X0.135000X0.185000X-0.135000X0.185000X-0.135000X-0.185000X0.135000X-0.185000X0*%
%ADD61C,0.900000*%
%ADD62R,2.000000X0.700000*%
%ADD63R,0.800000X2.000000*%
%ADD64RoundRect,0.225000X0.225000X0.250000X-0.225000X0.250000X-0.225000X-0.250000X0.225000X-0.250000X0*%
%ADD65RoundRect,0.140000X-0.170000X0.140000X-0.170000X-0.140000X0.170000X-0.140000X0.170000X0.140000X0*%
%ADD66RoundRect,0.135000X-0.185000X0.135000X-0.185000X-0.135000X0.185000X-0.135000X0.185000X0.135000X0*%
%ADD67C,1.000000*%
%ADD68R,0.700000X1.600000*%
%ADD69R,1.200000X2.200000*%
%ADD70R,1.200000X1.500000*%
%ADD71R,1.600000X1.500000*%
%ADD72RoundRect,0.250000X-0.425000X0.450000X-0.425000X-0.450000X0.425000X-0.450000X0.425000X0.450000X0*%
%ADD73RoundRect,0.135000X-0.135000X-0.185000X0.135000X-0.185000X0.135000X0.185000X-0.135000X0.185000X0*%
%ADD74RoundRect,0.335000X-1.340000X-1.365000X1.340000X-1.365000X1.340000X1.365000X-1.340000X1.365000X0*%
%ADD75RoundRect,0.225000X-0.250000X0.225000X-0.250000X-0.225000X0.250000X-0.225000X0.250000X0.225000X0*%
%ADD76RoundRect,0.225000X0.250000X-0.225000X0.250000X0.225000X-0.250000X0.225000X-0.250000X-0.225000X0*%
%ADD77RoundRect,0.140000X0.170000X-0.140000X0.170000X0.140000X-0.170000X0.140000X-0.170000X-0.140000X0*%
%ADD78RoundRect,0.225000X-0.225000X-0.250000X0.225000X-0.250000X0.225000X0.250000X-0.225000X0.250000X0*%
%ADD79C,2.000000*%
%ADD80RoundRect,0.112500X0.112500X-0.187500X0.112500X0.187500X-0.112500X0.187500X-0.112500X-0.187500X0*%
%ADD81RoundRect,0.250000X0.750000X-1.250000X0.750000X1.250000X-0.750000X1.250000X-0.750000X-1.250000X0*%
%ADD82RoundRect,0.150000X0.512500X0.150000X-0.512500X0.150000X-0.512500X-0.150000X0.512500X-0.150000X0*%
%ADD83RoundRect,0.112500X-0.112500X0.187500X-0.112500X-0.187500X0.112500X-0.187500X0.112500X0.187500X0*%
%ADD84O,1.350000X1.350000*%
%ADD85RoundRect,0.250000X0.325000X0.650000X-0.325000X0.650000X-0.325000X-0.650000X0.325000X-0.650000X0*%
%ADD86C,0.650000*%
%ADD87R,1.450000X0.600000*%
%ADD88R,1.450000X0.300000*%
%ADD89O,2.500000X2.000000*%
%ADD90O,3.500000X2.000000*%
%ADD91RoundRect,0.062500X0.062500X-0.337500X0.062500X0.337500X-0.062500X0.337500X-0.062500X-0.337500X0*%
%ADD92RoundRect,0.062500X0.337500X-0.062500X0.337500X0.062500X-0.337500X0.062500X-0.337500X-0.062500X0*%
%ADD93R,3.600000X3.600000*%
%ADD94RoundRect,0.218750X-0.256250X0.218750X-0.256250X-0.218750X0.256250X-0.218750X0.256250X0.218750X0*%
%ADD95RoundRect,0.250000X0.425000X-0.450000X0.425000X0.450000X-0.425000X0.450000X-0.425000X-0.450000X0*%
%ADD96RoundRect,0.200000X0.750000X0.200000X-0.750000X0.200000X-0.750000X-0.200000X0.750000X-0.200000X0*%
%ADD97RoundRect,0.250000X0.450000X0.425000X-0.450000X0.425000X-0.450000X-0.425000X0.450000X-0.425000X0*%
%ADD98RoundRect,0.250000X0.625000X-0.312500X0.625000X0.312500X-0.625000X0.312500X-0.625000X-0.312500X0*%
%ADD99RoundRect,0.162500X0.162500X-0.617500X0.162500X0.617500X-0.162500X0.617500X-0.162500X-0.617500X0*%
%ADD100R,0.800000X0.500000*%
%ADD101R,2.200000X0.600000*%
%ADD102RoundRect,0.150000X0.625000X-0.150000X0.625000X0.150000X-0.625000X0.150000X-0.625000X-0.150000X0*%
%ADD103RoundRect,0.250000X0.650000X-0.350000X0.650000X0.350000X-0.650000X0.350000X-0.650000X-0.350000X0*%
%ADD104RoundRect,0.087500X-0.225000X-0.087500X0.225000X-0.087500X0.225000X0.087500X-0.225000X0.087500X0*%
%ADD105RoundRect,0.087500X-0.087500X-0.225000X0.087500X-0.225000X0.087500X0.225000X-0.087500X0.225000X0*%
%ADD106R,1.500000X0.900000*%
%ADD107R,0.900000X1.500000*%
%ADD108R,0.900000X0.900000*%
%ADD109RoundRect,0.335000X1.340000X1.365000X-1.340000X1.365000X-1.340000X-1.365000X1.340000X-1.365000X0*%
%ADD110R,2.000000X1.905000*%
%ADD111O,2.000000X1.905000*%
%ADD112RoundRect,0.250000X0.750000X-0.600000X0.750000X0.600000X-0.750000X0.600000X-0.750000X-0.600000X0*%
%ADD113O,2.000000X1.700000*%
%ADD114RoundRect,0.250000X-0.350000X-0.450000X0.350000X-0.450000X0.350000X0.450000X-0.350000X0.450000X0*%
%ADD115RoundRect,0.075000X0.700000X0.075000X-0.700000X0.075000X-0.700000X-0.075000X0.700000X-0.075000X0*%
%ADD116RoundRect,0.075000X0.075000X0.700000X-0.075000X0.700000X-0.075000X-0.700000X0.075000X-0.700000X0*%
%ADD117RoundRect,0.150000X-0.150000X0.825000X-0.150000X-0.825000X0.150000X-0.825000X0.150000X0.825000X0*%
%ADD118C,3.200000*%
%ADD119RoundRect,0.500000X-1.250000X-1.250000X1.250000X-1.250000X1.250000X1.250000X-1.250000X1.250000X0*%
%ADD120C,3.500000*%
%ADD121RoundRect,0.150000X0.150000X-0.587500X0.150000X0.587500X-0.150000X0.587500X-0.150000X-0.587500X0*%
%ADD122RoundRect,0.375000X-0.625000X-0.375000X0.625000X-0.375000X0.625000X0.375000X-0.625000X0.375000X0*%
%ADD123RoundRect,0.500000X-0.500000X-1.400000X0.500000X-1.400000X0.500000X1.400000X-0.500000X1.400000X0*%
%ADD124RoundRect,0.135000X0.185000X-0.135000X0.185000X0.135000X-0.185000X0.135000X-0.185000X-0.135000X0*%
%ADD125RoundRect,0.200000X0.200000X-0.750000X0.200000X0.750000X-0.200000X0.750000X-0.200000X-0.750000X0*%
%ADD126R,0.350000X0.500000*%
%ADD127R,0.800000X1.800000*%
%ADD128RoundRect,0.100000X-0.637500X-0.100000X0.637500X-0.100000X0.637500X0.100000X-0.637500X0.100000X0*%
%ADD129R,2.850000X5.400000*%
%ADD130R,1.800000X1.100000*%
%ADD131RoundRect,0.275000X-0.625000X0.275000X-0.625000X-0.275000X0.625000X-0.275000X0.625000X0.275000X0*%
%ADD132RoundRect,0.250000X0.625000X-0.400000X0.625000X0.400000X-0.625000X0.400000X-0.625000X-0.400000X0*%
%ADD133RoundRect,0.250000X0.450000X-0.325000X0.450000X0.325000X-0.450000X0.325000X-0.450000X-0.325000X0*%
%ADD134R,1.500000X1.000000*%
%ADD135RoundRect,0.150000X0.587500X0.150000X-0.587500X0.150000X-0.587500X-0.150000X0.587500X-0.150000X0*%
%ADD136RoundRect,0.150000X0.150000X-0.512500X0.150000X0.512500X-0.150000X0.512500X-0.150000X-0.512500X0*%
%ADD137RoundRect,0.150000X0.825000X0.150000X-0.825000X0.150000X-0.825000X-0.150000X0.825000X-0.150000X0*%
%ADD138R,2.300000X2.300000*%
%ADD139RoundRect,0.250000X0.400000X0.625000X-0.400000X0.625000X-0.400000X-0.625000X0.400000X-0.625000X0*%
%ADD140RoundRect,0.218750X0.218750X0.256250X-0.218750X0.256250X-0.218750X-0.256250X0.218750X-0.256250X0*%
G04 APERTURE END LIST*
D10*
X178906955Y-94109500D02*
X178735527Y-94180928D01*
X178735527Y-94180928D02*
X178449812Y-94180928D01*
X178449812Y-94180928D02*
X178335527Y-94109500D01*
X178335527Y-94109500D02*
X178278384Y-94038071D01*
X178278384Y-94038071D02*
X178221241Y-93895214D01*
X178221241Y-93895214D02*
X178221241Y-93752357D01*
X178221241Y-93752357D02*
X178278384Y-93609500D01*
X178278384Y-93609500D02*
X178335527Y-93538071D01*
X178335527Y-93538071D02*
X178449812Y-93466642D01*
X178449812Y-93466642D02*
X178678384Y-93395214D01*
X178678384Y-93395214D02*
X178792669Y-93323785D01*
X178792669Y-93323785D02*
X178849812Y-93252357D01*
X178849812Y-93252357D02*
X178906955Y-93109500D01*
X178906955Y-93109500D02*
X178906955Y-92966642D01*
X178906955Y-92966642D02*
X178849812Y-92823785D01*
X178849812Y-92823785D02*
X178792669Y-92752357D01*
X178792669Y-92752357D02*
X178678384Y-92680928D01*
X178678384Y-92680928D02*
X178392669Y-92680928D01*
X178392669Y-92680928D02*
X178221241Y-92752357D01*
X177706955Y-93180928D02*
X177706955Y-94680928D01*
X177706955Y-93252357D02*
X177592670Y-93180928D01*
X177592670Y-93180928D02*
X177364098Y-93180928D01*
X177364098Y-93180928D02*
X177249812Y-93252357D01*
X177249812Y-93252357D02*
X177192670Y-93323785D01*
X177192670Y-93323785D02*
X177135527Y-93466642D01*
X177135527Y-93466642D02*
X177135527Y-93895214D01*
X177135527Y-93895214D02*
X177192670Y-94038071D01*
X177192670Y-94038071D02*
X177249812Y-94109500D01*
X177249812Y-94109500D02*
X177364098Y-94180928D01*
X177364098Y-94180928D02*
X177592670Y-94180928D01*
X177592670Y-94180928D02*
X177706955Y-94109500D01*
X176164098Y-94109500D02*
X176278384Y-94180928D01*
X176278384Y-94180928D02*
X176506956Y-94180928D01*
X176506956Y-94180928D02*
X176621241Y-94109500D01*
X176621241Y-94109500D02*
X176678384Y-93966642D01*
X176678384Y-93966642D02*
X176678384Y-93395214D01*
X176678384Y-93395214D02*
X176621241Y-93252357D01*
X176621241Y-93252357D02*
X176506956Y-93180928D01*
X176506956Y-93180928D02*
X176278384Y-93180928D01*
X176278384Y-93180928D02*
X176164098Y-93252357D01*
X176164098Y-93252357D02*
X176106956Y-93395214D01*
X176106956Y-93395214D02*
X176106956Y-93538071D01*
X176106956Y-93538071D02*
X176678384Y-93680928D01*
X175078385Y-94180928D02*
X175078385Y-93395214D01*
X175078385Y-93395214D02*
X175135527Y-93252357D01*
X175135527Y-93252357D02*
X175249813Y-93180928D01*
X175249813Y-93180928D02*
X175478385Y-93180928D01*
X175478385Y-93180928D02*
X175592670Y-93252357D01*
X175078385Y-94109500D02*
X175192670Y-94180928D01*
X175192670Y-94180928D02*
X175478385Y-94180928D01*
X175478385Y-94180928D02*
X175592670Y-94109500D01*
X175592670Y-94109500D02*
X175649813Y-93966642D01*
X175649813Y-93966642D02*
X175649813Y-93823785D01*
X175649813Y-93823785D02*
X175592670Y-93680928D01*
X175592670Y-93680928D02*
X175478385Y-93609500D01*
X175478385Y-93609500D02*
X175192670Y-93609500D01*
X175192670Y-93609500D02*
X175078385Y-93538071D01*
X174506956Y-94180928D02*
X174506956Y-92680928D01*
X174392671Y-93609500D02*
X174049813Y-94180928D01*
X174049813Y-93180928D02*
X174506956Y-93752357D01*
X173078384Y-94109500D02*
X173192670Y-94180928D01*
X173192670Y-94180928D02*
X173421242Y-94180928D01*
X173421242Y-94180928D02*
X173535527Y-94109500D01*
X173535527Y-94109500D02*
X173592670Y-93966642D01*
X173592670Y-93966642D02*
X173592670Y-93395214D01*
X173592670Y-93395214D02*
X173535527Y-93252357D01*
X173535527Y-93252357D02*
X173421242Y-93180928D01*
X173421242Y-93180928D02*
X173192670Y-93180928D01*
X173192670Y-93180928D02*
X173078384Y-93252357D01*
X173078384Y-93252357D02*
X173021242Y-93395214D01*
X173021242Y-93395214D02*
X173021242Y-93538071D01*
X173021242Y-93538071D02*
X173592670Y-93680928D01*
X172506956Y-94180928D02*
X172506956Y-93180928D01*
X172506956Y-93466642D02*
X172449813Y-93323785D01*
X172449813Y-93323785D02*
X172392671Y-93252357D01*
X172392671Y-93252357D02*
X172278385Y-93180928D01*
X172278385Y-93180928D02*
X172164099Y-93180928D01*
D11*
X198854819Y-138961904D02*
X198854819Y-139152380D01*
X198854819Y-139152380D02*
X198902438Y-139247618D01*
X198902438Y-139247618D02*
X198997676Y-139342856D01*
X198997676Y-139342856D02*
X199188152Y-139390475D01*
X199188152Y-139390475D02*
X199521485Y-139390475D01*
X199521485Y-139390475D02*
X199711961Y-139342856D01*
X199711961Y-139342856D02*
X199807200Y-139247618D01*
X199807200Y-139247618D02*
X199854819Y-139152380D01*
X199854819Y-139152380D02*
X199854819Y-138961904D01*
X199854819Y-138961904D02*
X199807200Y-138866666D01*
X199807200Y-138866666D02*
X199711961Y-138771428D01*
X199711961Y-138771428D02*
X199521485Y-138723809D01*
X199521485Y-138723809D02*
X199188152Y-138723809D01*
X199188152Y-138723809D02*
X198997676Y-138771428D01*
X198997676Y-138771428D02*
X198902438Y-138866666D01*
X198902438Y-138866666D02*
X198854819Y-138961904D01*
X199854819Y-139819047D02*
X198854819Y-139819047D01*
X198854819Y-139819047D02*
X199854819Y-140390475D01*
X199854819Y-140390475D02*
X198854819Y-140390475D01*
X199759580Y-142199999D02*
X199807200Y-142152380D01*
X199807200Y-142152380D02*
X199854819Y-142009523D01*
X199854819Y-142009523D02*
X199854819Y-141914285D01*
X199854819Y-141914285D02*
X199807200Y-141771428D01*
X199807200Y-141771428D02*
X199711961Y-141676190D01*
X199711961Y-141676190D02*
X199616723Y-141628571D01*
X199616723Y-141628571D02*
X199426247Y-141580952D01*
X199426247Y-141580952D02*
X199283390Y-141580952D01*
X199283390Y-141580952D02*
X199092914Y-141628571D01*
X199092914Y-141628571D02*
X198997676Y-141676190D01*
X198997676Y-141676190D02*
X198902438Y-141771428D01*
X198902438Y-141771428D02*
X198854819Y-141914285D01*
X198854819Y-141914285D02*
X198854819Y-142009523D01*
X198854819Y-142009523D02*
X198902438Y-142152380D01*
X198902438Y-142152380D02*
X198950057Y-142199999D01*
X199569104Y-142580952D02*
X199569104Y-143057142D01*
X199854819Y-142485714D02*
X198854819Y-142819047D01*
X198854819Y-142819047D02*
X199854819Y-143152380D01*
X199854819Y-143485714D02*
X198854819Y-143485714D01*
X198854819Y-143485714D02*
X199854819Y-144057142D01*
X199854819Y-144057142D02*
X198854819Y-144057142D01*
X198854819Y-145152381D02*
X198854819Y-145723809D01*
X199854819Y-145438095D02*
X198854819Y-145438095D01*
X199331009Y-146057143D02*
X199331009Y-146390476D01*
X199854819Y-146533333D02*
X199854819Y-146057143D01*
X199854819Y-146057143D02*
X198854819Y-146057143D01*
X198854819Y-146057143D02*
X198854819Y-146533333D01*
X199854819Y-147533333D02*
X199378628Y-147200000D01*
X199854819Y-146961905D02*
X198854819Y-146961905D01*
X198854819Y-146961905D02*
X198854819Y-147342857D01*
X198854819Y-147342857D02*
X198902438Y-147438095D01*
X198902438Y-147438095D02*
X198950057Y-147485714D01*
X198950057Y-147485714D02*
X199045295Y-147533333D01*
X199045295Y-147533333D02*
X199188152Y-147533333D01*
X199188152Y-147533333D02*
X199283390Y-147485714D01*
X199283390Y-147485714D02*
X199331009Y-147438095D01*
X199331009Y-147438095D02*
X199378628Y-147342857D01*
X199378628Y-147342857D02*
X199378628Y-146961905D01*
X199854819Y-147961905D02*
X198854819Y-147961905D01*
X198854819Y-147961905D02*
X199569104Y-148295238D01*
X199569104Y-148295238D02*
X198854819Y-148628571D01*
X198854819Y-148628571D02*
X199854819Y-148628571D01*
X198754819Y-129138095D02*
X198754819Y-129328571D01*
X198754819Y-129328571D02*
X198802438Y-129423809D01*
X198802438Y-129423809D02*
X198897676Y-129519047D01*
X198897676Y-129519047D02*
X199088152Y-129566666D01*
X199088152Y-129566666D02*
X199421485Y-129566666D01*
X199421485Y-129566666D02*
X199611961Y-129519047D01*
X199611961Y-129519047D02*
X199707200Y-129423809D01*
X199707200Y-129423809D02*
X199754819Y-129328571D01*
X199754819Y-129328571D02*
X199754819Y-129138095D01*
X199754819Y-129138095D02*
X199707200Y-129042857D01*
X199707200Y-129042857D02*
X199611961Y-128947619D01*
X199611961Y-128947619D02*
X199421485Y-128900000D01*
X199421485Y-128900000D02*
X199088152Y-128900000D01*
X199088152Y-128900000D02*
X198897676Y-128947619D01*
X198897676Y-128947619D02*
X198802438Y-129042857D01*
X198802438Y-129042857D02*
X198754819Y-129138095D01*
X199754819Y-129995238D02*
X198754819Y-129995238D01*
X198754819Y-129995238D02*
X199754819Y-130566666D01*
X199754819Y-130566666D02*
X198754819Y-130566666D01*
X199754819Y-132376190D02*
X199278628Y-132042857D01*
X199754819Y-131804762D02*
X198754819Y-131804762D01*
X198754819Y-131804762D02*
X198754819Y-132185714D01*
X198754819Y-132185714D02*
X198802438Y-132280952D01*
X198802438Y-132280952D02*
X198850057Y-132328571D01*
X198850057Y-132328571D02*
X198945295Y-132376190D01*
X198945295Y-132376190D02*
X199088152Y-132376190D01*
X199088152Y-132376190D02*
X199183390Y-132328571D01*
X199183390Y-132328571D02*
X199231009Y-132280952D01*
X199231009Y-132280952D02*
X199278628Y-132185714D01*
X199278628Y-132185714D02*
X199278628Y-131804762D01*
X199707200Y-132757143D02*
X199754819Y-132900000D01*
X199754819Y-132900000D02*
X199754819Y-133138095D01*
X199754819Y-133138095D02*
X199707200Y-133233333D01*
X199707200Y-133233333D02*
X199659580Y-133280952D01*
X199659580Y-133280952D02*
X199564342Y-133328571D01*
X199564342Y-133328571D02*
X199469104Y-133328571D01*
X199469104Y-133328571D02*
X199373866Y-133280952D01*
X199373866Y-133280952D02*
X199326247Y-133233333D01*
X199326247Y-133233333D02*
X199278628Y-133138095D01*
X199278628Y-133138095D02*
X199231009Y-132947619D01*
X199231009Y-132947619D02*
X199183390Y-132852381D01*
X199183390Y-132852381D02*
X199135771Y-132804762D01*
X199135771Y-132804762D02*
X199040533Y-132757143D01*
X199040533Y-132757143D02*
X198945295Y-132757143D01*
X198945295Y-132757143D02*
X198850057Y-132804762D01*
X198850057Y-132804762D02*
X198802438Y-132852381D01*
X198802438Y-132852381D02*
X198754819Y-132947619D01*
X198754819Y-132947619D02*
X198754819Y-133185714D01*
X198754819Y-133185714D02*
X198802438Y-133328571D01*
X198754819Y-134376191D02*
X198754819Y-134947619D01*
X199754819Y-134661905D02*
X198754819Y-134661905D01*
X199231009Y-135280953D02*
X199231009Y-135614286D01*
X199754819Y-135757143D02*
X199754819Y-135280953D01*
X199754819Y-135280953D02*
X198754819Y-135280953D01*
X198754819Y-135280953D02*
X198754819Y-135757143D01*
X199754819Y-136757143D02*
X199278628Y-136423810D01*
X199754819Y-136185715D02*
X198754819Y-136185715D01*
X198754819Y-136185715D02*
X198754819Y-136566667D01*
X198754819Y-136566667D02*
X198802438Y-136661905D01*
X198802438Y-136661905D02*
X198850057Y-136709524D01*
X198850057Y-136709524D02*
X198945295Y-136757143D01*
X198945295Y-136757143D02*
X199088152Y-136757143D01*
X199088152Y-136757143D02*
X199183390Y-136709524D01*
X199183390Y-136709524D02*
X199231009Y-136661905D01*
X199231009Y-136661905D02*
X199278628Y-136566667D01*
X199278628Y-136566667D02*
X199278628Y-136185715D01*
X199754819Y-137185715D02*
X198754819Y-137185715D01*
X198754819Y-137185715D02*
X199469104Y-137519048D01*
X199469104Y-137519048D02*
X198754819Y-137852381D01*
X198754819Y-137852381D02*
X199754819Y-137852381D01*
X160961905Y-146819104D02*
X160485715Y-146819104D01*
X161057143Y-147104819D02*
X160723810Y-146104819D01*
X160723810Y-146104819D02*
X160390477Y-147104819D01*
X160057143Y-146438152D02*
X160057143Y-147104819D01*
X160057143Y-146533390D02*
X160009524Y-146485771D01*
X160009524Y-146485771D02*
X159914286Y-146438152D01*
X159914286Y-146438152D02*
X159771429Y-146438152D01*
X159771429Y-146438152D02*
X159676191Y-146485771D01*
X159676191Y-146485771D02*
X159628572Y-146581009D01*
X159628572Y-146581009D02*
X159628572Y-147104819D01*
X159295238Y-146438152D02*
X158914286Y-146438152D01*
X159152381Y-146104819D02*
X159152381Y-146961961D01*
X159152381Y-146961961D02*
X159104762Y-147057200D01*
X159104762Y-147057200D02*
X159009524Y-147104819D01*
X159009524Y-147104819D02*
X158914286Y-147104819D01*
X158200000Y-147057200D02*
X158295238Y-147104819D01*
X158295238Y-147104819D02*
X158485714Y-147104819D01*
X158485714Y-147104819D02*
X158580952Y-147057200D01*
X158580952Y-147057200D02*
X158628571Y-146961961D01*
X158628571Y-146961961D02*
X158628571Y-146581009D01*
X158628571Y-146581009D02*
X158580952Y-146485771D01*
X158580952Y-146485771D02*
X158485714Y-146438152D01*
X158485714Y-146438152D02*
X158295238Y-146438152D01*
X158295238Y-146438152D02*
X158200000Y-146485771D01*
X158200000Y-146485771D02*
X158152381Y-146581009D01*
X158152381Y-146581009D02*
X158152381Y-146676247D01*
X158152381Y-146676247D02*
X158628571Y-146771485D01*
X157723809Y-146438152D02*
X157723809Y-147104819D01*
X157723809Y-146533390D02*
X157676190Y-146485771D01*
X157676190Y-146485771D02*
X157580952Y-146438152D01*
X157580952Y-146438152D02*
X157438095Y-146438152D01*
X157438095Y-146438152D02*
X157342857Y-146485771D01*
X157342857Y-146485771D02*
X157295238Y-146581009D01*
X157295238Y-146581009D02*
X157295238Y-147104819D01*
X156819047Y-146438152D02*
X156819047Y-147104819D01*
X156819047Y-146533390D02*
X156771428Y-146485771D01*
X156771428Y-146485771D02*
X156676190Y-146438152D01*
X156676190Y-146438152D02*
X156533333Y-146438152D01*
X156533333Y-146438152D02*
X156438095Y-146485771D01*
X156438095Y-146485771D02*
X156390476Y-146581009D01*
X156390476Y-146581009D02*
X156390476Y-147104819D01*
X155485714Y-147104819D02*
X155485714Y-146581009D01*
X155485714Y-146581009D02*
X155533333Y-146485771D01*
X155533333Y-146485771D02*
X155628571Y-146438152D01*
X155628571Y-146438152D02*
X155819047Y-146438152D01*
X155819047Y-146438152D02*
X155914285Y-146485771D01*
X155485714Y-147057200D02*
X155580952Y-147104819D01*
X155580952Y-147104819D02*
X155819047Y-147104819D01*
X155819047Y-147104819D02*
X155914285Y-147057200D01*
X155914285Y-147057200D02*
X155961904Y-146961961D01*
X155961904Y-146961961D02*
X155961904Y-146866723D01*
X155961904Y-146866723D02*
X155914285Y-146771485D01*
X155914285Y-146771485D02*
X155819047Y-146723866D01*
X155819047Y-146723866D02*
X155580952Y-146723866D01*
X155580952Y-146723866D02*
X155485714Y-146676247D01*
X154295237Y-146819104D02*
X153819047Y-146819104D01*
X154390475Y-147104819D02*
X154057142Y-146104819D01*
X154057142Y-146104819D02*
X153723809Y-147104819D01*
X153390475Y-147104819D02*
X153390475Y-146438152D01*
X153390475Y-146628628D02*
X153342856Y-146533390D01*
X153342856Y-146533390D02*
X153295237Y-146485771D01*
X153295237Y-146485771D02*
X153199999Y-146438152D01*
X153199999Y-146438152D02*
X153104761Y-146438152D01*
X152390475Y-147057200D02*
X152485713Y-147104819D01*
X152485713Y-147104819D02*
X152676189Y-147104819D01*
X152676189Y-147104819D02*
X152771427Y-147057200D01*
X152771427Y-147057200D02*
X152819046Y-146961961D01*
X152819046Y-146961961D02*
X152819046Y-146581009D01*
X152819046Y-146581009D02*
X152771427Y-146485771D01*
X152771427Y-146485771D02*
X152676189Y-146438152D01*
X152676189Y-146438152D02*
X152485713Y-146438152D01*
X152485713Y-146438152D02*
X152390475Y-146485771D01*
X152390475Y-146485771D02*
X152342856Y-146581009D01*
X152342856Y-146581009D02*
X152342856Y-146676247D01*
X152342856Y-146676247D02*
X152819046Y-146771485D01*
X151485713Y-147104819D02*
X151485713Y-146581009D01*
X151485713Y-146581009D02*
X151533332Y-146485771D01*
X151533332Y-146485771D02*
X151628570Y-146438152D01*
X151628570Y-146438152D02*
X151819046Y-146438152D01*
X151819046Y-146438152D02*
X151914284Y-146485771D01*
X151485713Y-147057200D02*
X151580951Y-147104819D01*
X151580951Y-147104819D02*
X151819046Y-147104819D01*
X151819046Y-147104819D02*
X151914284Y-147057200D01*
X151914284Y-147057200D02*
X151961903Y-146961961D01*
X151961903Y-146961961D02*
X151961903Y-146866723D01*
X151961903Y-146866723D02*
X151914284Y-146771485D01*
X151914284Y-146771485D02*
X151819046Y-146723866D01*
X151819046Y-146723866D02*
X151580951Y-146723866D01*
X151580951Y-146723866D02*
X151485713Y-146676247D01*
X159630285Y-79204009D02*
X159963618Y-79204009D01*
X159963618Y-79727819D02*
X159963618Y-78727819D01*
X159963618Y-78727819D02*
X159487428Y-78727819D01*
X159154094Y-79442104D02*
X158677904Y-79442104D01*
X159249332Y-79727819D02*
X158915999Y-78727819D01*
X158915999Y-78727819D02*
X158582666Y-79727819D01*
X158249332Y-79727819D02*
X158249332Y-78727819D01*
X158249332Y-78727819D02*
X157677904Y-79727819D01*
X157677904Y-79727819D02*
X157677904Y-78727819D01*
X156725523Y-78727819D02*
X157201713Y-78727819D01*
X157201713Y-78727819D02*
X157249332Y-79204009D01*
X157249332Y-79204009D02*
X157201713Y-79156390D01*
X157201713Y-79156390D02*
X157106475Y-79108771D01*
X157106475Y-79108771D02*
X156868380Y-79108771D01*
X156868380Y-79108771D02*
X156773142Y-79156390D01*
X156773142Y-79156390D02*
X156725523Y-79204009D01*
X156725523Y-79204009D02*
X156677904Y-79299247D01*
X156677904Y-79299247D02*
X156677904Y-79537342D01*
X156677904Y-79537342D02*
X156725523Y-79632580D01*
X156725523Y-79632580D02*
X156773142Y-79680200D01*
X156773142Y-79680200D02*
X156868380Y-79727819D01*
X156868380Y-79727819D02*
X157106475Y-79727819D01*
X157106475Y-79727819D02*
X157201713Y-79680200D01*
X157201713Y-79680200D02*
X157249332Y-79632580D01*
X156392189Y-78727819D02*
X156058856Y-79727819D01*
X156058856Y-79727819D02*
X155725523Y-78727819D01*
D12*
%TO.C,R63*%
X122022659Y-85889940D02*
X122239940Y-85672659D01*
X122560060Y-86427341D02*
X122777341Y-86210060D01*
%TO.C,Q4*%
X175300000Y-82290000D02*
X175950000Y-82290000D01*
X175300000Y-85410000D02*
X175950000Y-85410000D01*
X176600000Y-82290000D02*
X175950000Y-82290000D01*
X176600000Y-85410000D02*
X175950000Y-85410000D01*
X175027500Y-85690000D02*
X174547500Y-85690000D01*
X174787500Y-85360000D01*
X175027500Y-85690000D01*
G36*
X175027500Y-85690000D02*
G01*
X174547500Y-85690000D01*
X174787500Y-85360000D01*
X175027500Y-85690000D01*
G37*
%TO.C,C32*%
X127392164Y-91640000D02*
X127607836Y-91640000D01*
X127392164Y-92360000D02*
X127607836Y-92360000D01*
%TO.C,C43*%
X126707836Y-66040000D02*
X126492164Y-66040000D01*
X126707836Y-66760000D02*
X126492164Y-66760000D01*
%TO.C,C19*%
X178756250Y-107403750D02*
X178756250Y-108191250D01*
X179150000Y-107797500D02*
X178362500Y-107797500D01*
X179390000Y-104890000D02*
X179390000Y-103604437D01*
X179390000Y-107010000D02*
X179390000Y-108295563D01*
X180454437Y-102540000D02*
X179390000Y-103604437D01*
X180454437Y-109360000D02*
X179390000Y-108295563D01*
X186210000Y-102540000D02*
X180454437Y-102540000D01*
X186210000Y-104890000D02*
X186210000Y-102540000D01*
X186210000Y-107010000D02*
X186210000Y-109360000D01*
X186210000Y-109360000D02*
X180454437Y-109360000D01*
%TO.C,R7*%
X121337258Y-117577500D02*
X120862742Y-117577500D01*
X121337258Y-118622500D02*
X120862742Y-118622500D01*
%TO.C,R49*%
X104115000Y-102127064D02*
X104115000Y-101672936D01*
X105585000Y-102127064D02*
X105585000Y-101672936D01*
%TO.C,R45*%
X163246359Y-84770000D02*
X163553641Y-84770000D01*
X163246359Y-85530000D02*
X163553641Y-85530000D01*
%TO.C,SW3*%
X195480000Y-144300000D02*
X195480000Y-142600000D01*
X195480000Y-145800000D02*
X195480000Y-145600000D01*
X196530000Y-147650000D02*
X197320000Y-147650000D01*
X197320000Y-140750000D02*
X196530000Y-140750000D01*
X198330000Y-144100000D02*
X199620000Y-144100000D01*
X198330000Y-147050000D02*
X198330000Y-141350000D01*
X199620000Y-142800000D02*
X198330000Y-142800000D01*
X199830000Y-143000000D02*
X199620000Y-142800000D01*
X199830000Y-143900000D02*
X199620000Y-144100000D01*
X199830000Y-143900000D02*
X199830000Y-143000000D01*
%TO.C,C84*%
X113459420Y-64590000D02*
X113740580Y-64590000D01*
X113459420Y-65610000D02*
X113740580Y-65610000D01*
%TO.C,C14*%
X175040000Y-99207836D02*
X175040000Y-98992164D01*
X175760000Y-99207836D02*
X175760000Y-98992164D01*
%TO.C,R60*%
X121146359Y-55220000D02*
X121453641Y-55220000D01*
X121146359Y-55980000D02*
X121453641Y-55980000D01*
%TO.C,C10*%
X110540000Y-105307836D02*
X110540000Y-105092164D01*
X111260000Y-105307836D02*
X111260000Y-105092164D01*
%TO.C,R69*%
X109836359Y-90520000D02*
X110143641Y-90520000D01*
X109836359Y-91280000D02*
X110143641Y-91280000D01*
%TO.C,R68*%
X110120000Y-89653641D02*
X110120000Y-89346359D01*
X110880000Y-89653641D02*
X110880000Y-89346359D01*
%TO.C,J17*%
D13*
X128750000Y-143975000D02*
X143750000Y-143975000D01*
X143750000Y-129475000D01*
X128750000Y-129475000D01*
X128750000Y-143975000D01*
D12*
%TO.C,C17*%
X184915000Y-89790000D02*
X184915000Y-93700000D01*
X186785000Y-89790000D02*
X184915000Y-89790000D01*
X186785000Y-93700000D02*
X186785000Y-89790000D01*
%TO.C,C12*%
X167692164Y-96490000D02*
X167907836Y-96490000D01*
X167692164Y-97210000D02*
X167907836Y-97210000D01*
%TO.C,R59*%
X115253641Y-55480000D02*
X114946359Y-55480000D01*
X115253641Y-56240000D02*
X114946359Y-56240000D01*
%TO.C,L4*%
X115500000Y-67400000D02*
X115500000Y-65900000D01*
X115500000Y-71200000D02*
X115500000Y-72700000D01*
X115500000Y-72700000D02*
X122900000Y-72700000D01*
X122900000Y-65900000D02*
X115500000Y-65900000D01*
X122900000Y-67400000D02*
X122900000Y-65900000D01*
X122900000Y-71200000D02*
X122900000Y-72700000D01*
%TO.C,SW2*%
X195450000Y-133300000D02*
X195450000Y-131600000D01*
X195450000Y-134800000D02*
X195450000Y-134600000D01*
X196500000Y-136650000D02*
X197290000Y-136650000D01*
X197290000Y-129750000D02*
X196500000Y-129750000D01*
X198300000Y-133100000D02*
X199590000Y-133100000D01*
X198300000Y-136050000D02*
X198300000Y-130350000D01*
X199590000Y-131800000D02*
X198300000Y-131800000D01*
X199800000Y-132000000D02*
X199590000Y-131800000D01*
X199800000Y-132900000D02*
X199590000Y-133100000D01*
X199800000Y-132900000D02*
X199800000Y-132000000D01*
%TO.C,C28*%
X134090000Y-108740580D02*
X134090000Y-108459420D01*
X135110000Y-108740580D02*
X135110000Y-108459420D01*
%TO.C,C52*%
X111490000Y-89809420D02*
X111490000Y-90090580D01*
X112510000Y-89809420D02*
X112510000Y-90090580D01*
%TO.C,C50*%
X140115000Y-89242164D02*
X140115000Y-89457836D01*
X140835000Y-89242164D02*
X140835000Y-89457836D01*
%TO.C,C36*%
X137807836Y-79040000D02*
X137592164Y-79040000D01*
X137807836Y-79760000D02*
X137592164Y-79760000D01*
%TO.C,C1*%
X140840580Y-115190000D02*
X140559420Y-115190000D01*
X140840580Y-116210000D02*
X140559420Y-116210000D01*
%TO.C,C54*%
X117767164Y-132990000D02*
X117982836Y-132990000D01*
X117767164Y-133710000D02*
X117982836Y-133710000D01*
%TO.C,C25*%
X134140000Y-73442164D02*
X134140000Y-73657836D01*
X134860000Y-73442164D02*
X134860000Y-73657836D01*
%TO.C,R3*%
X140937258Y-116677500D02*
X140462742Y-116677500D01*
X140937258Y-117722500D02*
X140462742Y-117722500D01*
%TO.C,R18*%
X109753641Y-129220000D02*
X109446359Y-129220000D01*
X109753641Y-129980000D02*
X109446359Y-129980000D01*
%TO.C,LS2*%
X145500000Y-95300000D02*
X154500000Y-95300000D01*
X145500000Y-97300000D02*
X154500000Y-97300000D01*
X145500000Y-108300000D02*
X154500000Y-108300000D01*
X145500000Y-110300000D02*
X154500000Y-110300000D01*
X145500000Y-108300000D02*
G75*
G02*
X145500000Y-97300000I0J5500000D01*
G01*
X145500000Y-110300000D02*
G75*
G02*
X145500000Y-95300000I0J7500000D01*
G01*
X154500000Y-95300000D02*
G75*
G02*
X154500000Y-110300000I0J-7500000D01*
G01*
X154500000Y-97300000D02*
G75*
G02*
X154500000Y-108300000I0J-5500000D01*
G01*
%TO.C,D20*%
X161425000Y-87875000D02*
X161425000Y-90535000D01*
X161425000Y-90535000D02*
X163125000Y-90535000D01*
X163125000Y-87875000D02*
X163125000Y-90535000D01*
%TO.C,C45*%
X160490000Y-89807836D02*
X160490000Y-89592164D01*
X161210000Y-89807836D02*
X161210000Y-89592164D01*
%TO.C,R54*%
X186453641Y-118420000D02*
X186146359Y-118420000D01*
X186453641Y-119180000D02*
X186146359Y-119180000D01*
%TO.C,R55*%
X190770000Y-110303641D02*
X190770000Y-109996359D01*
X191530000Y-110303641D02*
X191530000Y-109996359D01*
D11*
%TO.C,J14*%
X187925000Y-102100000D02*
X187925000Y-107000000D01*
X187925000Y-107000000D02*
X189175000Y-107000000D01*
X189675000Y-101000000D02*
X193475000Y-101000000D01*
X191375000Y-107000000D02*
X196175000Y-107000000D01*
X195675000Y-101000000D02*
X197175000Y-101000000D01*
X198375000Y-107000000D02*
X199975000Y-107000000D01*
X199975000Y-101000000D02*
X199375000Y-101000000D01*
D12*
%TO.C,C29*%
X119790000Y-120540580D02*
X119790000Y-120259420D01*
X120810000Y-120540580D02*
X120810000Y-120259420D01*
%TO.C,U8*%
X131700000Y-123840000D02*
X132500000Y-123840000D01*
X131700000Y-126960000D02*
X132500000Y-126960000D01*
X133300000Y-126960000D02*
X132500000Y-126960000D01*
X134300000Y-123840000D02*
X132500000Y-123840000D01*
%TO.C,D13*%
X178250000Y-84450000D02*
X178250000Y-81790000D01*
X179950000Y-81790000D02*
X178250000Y-81790000D01*
X179950000Y-84450000D02*
X179950000Y-81790000D01*
%TO.C,LS1*%
X179690000Y-90740000D02*
X179690000Y-92800000D01*
X179690000Y-94860000D02*
X179690000Y-93800000D01*
X180750000Y-94860000D02*
X179690000Y-94860000D01*
X181810000Y-90740000D02*
X179690000Y-90740000D01*
X181810000Y-90740000D02*
X181810000Y-92800000D01*
X181810000Y-92800000D02*
X179690000Y-92800000D01*
%TO.C,C35*%
X140407836Y-82040000D02*
X140192164Y-82040000D01*
X140407836Y-82760000D02*
X140192164Y-82760000D01*
%TO.C,C47*%
X143215000Y-91842164D02*
X143215000Y-92057836D01*
X143935000Y-91842164D02*
X143935000Y-92057836D01*
%TO.C,C80*%
X121588748Y-63590000D02*
X123011252Y-63590000D01*
X121588748Y-65410000D02*
X123011252Y-65410000D01*
%TO.C,R24*%
X175020000Y-101153641D02*
X175020000Y-100846359D01*
X175780000Y-101153641D02*
X175780000Y-100846359D01*
%TO.C,C60*%
X171092164Y-74940000D02*
X171307836Y-74940000D01*
X171092164Y-75660000D02*
X171307836Y-75660000D01*
%TO.C,J13*%
X100000000Y-67350000D02*
X100000000Y-76350000D01*
X100000000Y-67350000D02*
X101350000Y-67350000D01*
X100000000Y-76350000D02*
X101350000Y-76350000D01*
X104050000Y-67350000D02*
X105050000Y-67350000D01*
X104050000Y-76350000D02*
X105050000Y-76350000D01*
%TO.C,R28*%
X121337258Y-116077500D02*
X120862742Y-116077500D01*
X121337258Y-117122500D02*
X120862742Y-117122500D01*
%TO.C,C26*%
X136940000Y-127197836D02*
X136940000Y-126982164D01*
X137660000Y-127197836D02*
X137660000Y-126982164D01*
%TO.C,C31*%
X131090000Y-108740580D02*
X131090000Y-108459420D01*
X132110000Y-108740580D02*
X132110000Y-108459420D01*
%TO.C,U10*%
X169215000Y-94640000D02*
X169215000Y-95115000D01*
X169215000Y-99860000D02*
X169215000Y-99385000D01*
X169690000Y-94640000D02*
X169215000Y-94640000D01*
X169690000Y-99860000D02*
X169215000Y-99860000D01*
X173960000Y-94640000D02*
X174435000Y-94640000D01*
X174195000Y-99860000D02*
X173960000Y-99860000D01*
X174435000Y-94640000D02*
X174435000Y-95115000D01*
X174435000Y-99560000D02*
X174435000Y-99385000D01*
X174765000Y-100100000D02*
X174435000Y-99860000D01*
X174765000Y-99620000D01*
X174765000Y-100100000D01*
G36*
X174765000Y-100100000D02*
G01*
X174435000Y-99860000D01*
X174765000Y-99620000D01*
X174765000Y-100100000D01*
G37*
%TO.C,C53*%
X168192164Y-135590000D02*
X168407836Y-135590000D01*
X168192164Y-136310000D02*
X168407836Y-136310000D01*
%TO.C,FB1*%
X177990000Y-101862779D02*
X177990000Y-101537221D01*
X179010000Y-101862779D02*
X179010000Y-101537221D01*
%TO.C,C27*%
X144690000Y-114632836D02*
X144690000Y-114417164D01*
X145410000Y-114632836D02*
X145410000Y-114417164D01*
%TO.C,C20*%
X182415000Y-110350000D02*
X182415000Y-114260000D01*
X182415000Y-114260000D02*
X184285000Y-114260000D01*
X184285000Y-114260000D02*
X184285000Y-110350000D01*
%TO.C,C59*%
X168492164Y-58040000D02*
X168707836Y-58040000D01*
X168492164Y-58760000D02*
X168707836Y-58760000D01*
%TO.C,C23*%
X171965000Y-101550000D02*
X171965000Y-105460000D01*
X171965000Y-105460000D02*
X173835000Y-105460000D01*
X173835000Y-105460000D02*
X173835000Y-101550000D01*
%TO.C,R58*%
X140220000Y-127243641D02*
X140220000Y-126936359D01*
X140980000Y-127243641D02*
X140980000Y-126936359D01*
%TO.C,C56*%
X117659420Y-143690000D02*
X117940580Y-143690000D01*
X117659420Y-144710000D02*
X117940580Y-144710000D01*
%TO.C,C48*%
X150940000Y-91842164D02*
X150940000Y-92057836D01*
X151660000Y-91842164D02*
X151660000Y-92057836D01*
%TO.C,C22*%
X175990000Y-99942164D02*
X175990000Y-100157836D01*
X176710000Y-99942164D02*
X176710000Y-100157836D01*
%TO.C,R35*%
X161371359Y-84770000D02*
X161678641Y-84770000D01*
X161371359Y-85530000D02*
X161678641Y-85530000D01*
%TO.C,D3*%
X180465000Y-139395000D02*
X181265000Y-139395000D01*
X180465000Y-140325000D02*
X180465000Y-139395000D01*
X180465000Y-141625000D02*
X180465000Y-142555000D01*
X181925000Y-142555000D02*
X180465000Y-142555000D01*
X182065000Y-139395000D02*
X181265000Y-139395000D01*
X182565000Y-139365000D02*
X182325000Y-139035000D01*
X182805000Y-139035000D01*
X182565000Y-139365000D01*
G36*
X182565000Y-139365000D02*
G01*
X182325000Y-139035000D01*
X182805000Y-139035000D01*
X182565000Y-139365000D01*
G37*
%TO.C,C16*%
X182765000Y-89790000D02*
X182765000Y-93700000D01*
X184635000Y-89790000D02*
X182765000Y-89790000D01*
X184635000Y-93700000D02*
X184635000Y-89790000D01*
%TO.C,R39*%
X168520000Y-92053641D02*
X168520000Y-91746359D01*
X169280000Y-92053641D02*
X169280000Y-91746359D01*
%TO.C,C83*%
X113559420Y-66090000D02*
X113840580Y-66090000D01*
X113559420Y-67110000D02*
X113840580Y-67110000D01*
%TO.C,C15*%
X175957836Y-95040000D02*
X175742164Y-95040000D01*
X175957836Y-95760000D02*
X175742164Y-95760000D01*
%TO.C,C24*%
X177400000Y-90185000D02*
X181310000Y-90185000D01*
X181310000Y-88315000D02*
X177400000Y-88315000D01*
X181310000Y-90185000D02*
X181310000Y-88315000D01*
%TO.C,R15*%
X135090000Y-52072936D02*
X135090000Y-53527064D01*
X136910000Y-52072936D02*
X136910000Y-53527064D01*
%TO.C,U27*%
X120390000Y-57800000D02*
X120390000Y-59600000D01*
X123610000Y-57800000D02*
X123610000Y-58600000D01*
X123610000Y-59400000D02*
X123610000Y-58600000D01*
X123890000Y-60140000D02*
X123560000Y-59900000D01*
X123890000Y-59660000D01*
X123890000Y-60140000D01*
G36*
X123890000Y-60140000D02*
G01*
X123560000Y-59900000D01*
X123890000Y-59660000D01*
X123890000Y-60140000D01*
G37*
%TO.C,R10*%
X109653641Y-103420000D02*
X109346359Y-103420000D01*
X109653641Y-104180000D02*
X109346359Y-104180000D01*
%TO.C,C30*%
X132590000Y-108740580D02*
X132590000Y-108459420D01*
X133610000Y-108740580D02*
X133610000Y-108459420D01*
%TO.C,U12*%
X119200000Y-148500000D02*
X118200000Y-148500000D01*
X119200000Y-149500000D02*
X119200000Y-148500000D01*
X121200000Y-146500000D02*
X118200000Y-146500000D01*
X118200000Y-149500000D01*
X121200000Y-149500000D01*
X121200000Y-146500000D01*
X120200000Y-148500000D02*
G75*
G02*
X119200000Y-148500000I-500000J0D01*
G01*
X119200000Y-148500000D02*
G75*
G02*
X120200000Y-148500000I500000J0D01*
G01*
%TO.C,R62*%
X151578641Y-113670000D02*
X151271359Y-113670000D01*
X151578641Y-114430000D02*
X151271359Y-114430000D01*
D11*
%TO.C,U1*%
X179625000Y-138355000D02*
X181025000Y-138355000D01*
X181025000Y-133495000D02*
X181025000Y-133350000D01*
X181025000Y-138355000D02*
X181025000Y-138500000D01*
X185175000Y-133350000D02*
X181025000Y-133350000D01*
X185175000Y-133495000D02*
X185175000Y-133350000D01*
X185175000Y-138355000D02*
X185175000Y-138500000D01*
X185175000Y-138500000D02*
X181025000Y-138500000D01*
D12*
%TO.C,C49*%
X131132836Y-92990000D02*
X130917164Y-92990000D01*
X131132836Y-93710000D02*
X130917164Y-93710000D01*
D11*
%TO.C,J16*%
X187925000Y-113100000D02*
X187925000Y-118000000D01*
X187925000Y-118000000D02*
X189175000Y-118000000D01*
X189675000Y-112000000D02*
X193475000Y-112000000D01*
X191375000Y-118000000D02*
X196175000Y-118000000D01*
X195675000Y-112000000D02*
X197175000Y-112000000D01*
X198375000Y-118000000D02*
X199975000Y-118000000D01*
X199975000Y-112000000D02*
X199375000Y-112000000D01*
D12*
%TO.C,J11*%
X100615000Y-140260000D02*
X100615000Y-144140000D01*
X105085000Y-139090000D02*
X102585000Y-139090000D01*
X105085000Y-140140000D02*
X105085000Y-139090000D01*
X105085000Y-144260000D02*
X105085000Y-145310000D01*
X105085000Y-145310000D02*
X102585000Y-145310000D01*
X106075000Y-144260000D02*
X105085000Y-144260000D01*
%TO.C,U9*%
X116790000Y-133990000D02*
X117465000Y-133990000D01*
X116790000Y-134165000D02*
X116790000Y-133990000D01*
X117090000Y-136710000D02*
X117465000Y-136710000D01*
X120010000Y-133990000D02*
X119335000Y-133990000D01*
X120010000Y-134165000D02*
X120010000Y-133990000D01*
X120010000Y-136535000D02*
X120010000Y-136710000D01*
X120010000Y-136710000D02*
X119335000Y-136710000D01*
X116930000Y-136900000D02*
X116650000Y-136900000D01*
X116790000Y-136710000D01*
X116930000Y-136900000D01*
G36*
X116930000Y-136900000D02*
G01*
X116650000Y-136900000D01*
X116790000Y-136710000D01*
X116930000Y-136900000D01*
G37*
%TO.C,U4*%
X147200000Y-124150000D02*
X147200000Y-124900000D01*
X147200000Y-142900000D02*
X147200000Y-149650000D01*
X147200000Y-143710000D02*
X165200000Y-143710000D01*
X148200000Y-124150000D02*
X147200000Y-124150000D01*
X164200000Y-124150000D02*
X165200000Y-124150000D01*
X165200000Y-124150000D02*
X165200000Y-124900000D01*
X165200000Y-142900000D02*
X165200000Y-149650000D01*
X165200000Y-149650000D02*
X147200000Y-149650000D01*
%TO.C,R43*%
X109520000Y-142353641D02*
X109520000Y-142046359D01*
X110280000Y-142353641D02*
X110280000Y-142046359D01*
%TO.C,C64*%
X103359420Y-114040000D02*
X103640580Y-114040000D01*
X103359420Y-115060000D02*
X103640580Y-115060000D01*
%TO.C,R30*%
X188120000Y-71853641D02*
X188120000Y-71546359D01*
X188880000Y-71853641D02*
X188880000Y-71546359D01*
%TO.C,C18*%
X178756250Y-100303750D02*
X178756250Y-101091250D01*
X179150000Y-100697500D02*
X178362500Y-100697500D01*
X179390000Y-97790000D02*
X179390000Y-96504437D01*
X179390000Y-99910000D02*
X179390000Y-101195563D01*
X180454437Y-95440000D02*
X179390000Y-96504437D01*
X180454437Y-102260000D02*
X179390000Y-101195563D01*
X186210000Y-95440000D02*
X180454437Y-95440000D01*
X186210000Y-97790000D02*
X186210000Y-95440000D01*
X186210000Y-99910000D02*
X186210000Y-102260000D01*
X186210000Y-102260000D02*
X180454437Y-102260000D01*
%TO.C,L1*%
X119250000Y-110300000D02*
X119250000Y-108800000D01*
X119250000Y-114100000D02*
X119250000Y-115600000D01*
X119250000Y-115600000D02*
X126650000Y-115600000D01*
X126650000Y-108800000D02*
X119250000Y-108800000D01*
X126650000Y-110300000D02*
X126650000Y-108800000D01*
X126650000Y-114100000D02*
X126650000Y-115600000D01*
%TO.C,Q3*%
X144460000Y-52960000D02*
X141920000Y-52960000D01*
X144460000Y-55500000D02*
X141920000Y-55500000D01*
X144460000Y-58040000D02*
X141920000Y-58040000D01*
X144460000Y-60620000D02*
X144460000Y-50380000D01*
X153950000Y-50380000D02*
X144460000Y-50380000D01*
X153950000Y-60620000D02*
X144460000Y-60620000D01*
X153950000Y-60620000D02*
X153950000Y-50380000D01*
X155390000Y-50380000D02*
X154190000Y-50380000D01*
X155390000Y-60620000D02*
X154190000Y-60620000D01*
X157790000Y-50380000D02*
X156590000Y-50380000D01*
X157790000Y-60620000D02*
X156590000Y-60620000D01*
X160190000Y-50380000D02*
X158990000Y-50380000D01*
X160190000Y-60620000D02*
X158990000Y-60620000D01*
X160350000Y-51580000D02*
X160350000Y-50380000D01*
X160350000Y-53980000D02*
X160350000Y-52779000D01*
X160350000Y-56380000D02*
X160350000Y-55180000D01*
X160350000Y-58780000D02*
X160350000Y-57580000D01*
X160350000Y-60620000D02*
X160350000Y-59980000D01*
%TO.C,J7*%
X154381000Y-80188000D02*
X154381000Y-87808000D01*
X154381000Y-87808000D02*
X160351000Y-87808000D01*
X155141000Y-80948000D02*
X158091000Y-80948000D01*
X155141000Y-83998000D02*
X155141000Y-80948000D01*
X155141000Y-83998000D02*
X155141000Y-87048000D01*
X155141000Y-87048000D02*
X158091000Y-87048000D01*
X158091000Y-80948000D02*
X158091000Y-80198000D01*
X158091000Y-87048000D02*
X158091000Y-87798000D01*
X159591000Y-80198000D02*
X159591000Y-81998000D01*
X159591000Y-81998000D02*
X160341000Y-81998000D01*
X159591000Y-83498000D02*
X159591000Y-84498000D01*
X159591000Y-84498000D02*
X160341000Y-84498000D01*
X159591000Y-85998000D02*
X159591000Y-87798000D01*
X159591000Y-87798000D02*
X160341000Y-87798000D01*
X160341000Y-80198000D02*
X159591000Y-80198000D01*
X160341000Y-81998000D02*
X160341000Y-80198000D01*
X160341000Y-83498000D02*
X159591000Y-83498000D01*
X160341000Y-84498000D02*
X160341000Y-83498000D01*
X160341000Y-85998000D02*
X159591000Y-85998000D01*
X160341000Y-87798000D02*
X160341000Y-85998000D01*
X160351000Y-80188000D02*
X154381000Y-80188000D01*
X160351000Y-87808000D02*
X160351000Y-80188000D01*
%TO.C,R22*%
X177446359Y-57120000D02*
X177753641Y-57120000D01*
X177446359Y-57880000D02*
X177753641Y-57880000D01*
%TO.C,R52*%
X104127064Y-103965000D02*
X103672936Y-103965000D01*
X104127064Y-105435000D02*
X103672936Y-105435000D01*
%TO.C,C34*%
X137807836Y-80040000D02*
X137592164Y-80040000D01*
X137807836Y-80760000D02*
X137592164Y-80760000D01*
%TO.C,R37*%
X171996359Y-108120000D02*
X172303641Y-108120000D01*
X171996359Y-108880000D02*
X172303641Y-108880000D01*
%TO.C,U5*%
X127490000Y-81065000D02*
X128440000Y-81065000D01*
X127490000Y-82015000D02*
X127490000Y-81065000D01*
X127490000Y-90335000D02*
X127490000Y-91285000D01*
X127490000Y-91285000D02*
X128440000Y-91285000D01*
X137710000Y-81065000D02*
X136760000Y-81065000D01*
X137710000Y-82015000D02*
X137710000Y-81065000D01*
X137710000Y-90335000D02*
X137710000Y-91285000D01*
X137710000Y-91285000D02*
X136760000Y-91285000D01*
X138325000Y-82015000D02*
X137985000Y-81545000D01*
X138665000Y-81545000D01*
X138325000Y-82015000D01*
G36*
X138325000Y-82015000D02*
G01*
X137985000Y-81545000D01*
X138665000Y-81545000D01*
X138325000Y-82015000D01*
G37*
D11*
%TO.C,J3*%
X187925000Y-91100000D02*
X187925000Y-96000000D01*
X187925000Y-96000000D02*
X189175000Y-96000000D01*
X189675000Y-90000000D02*
X193475000Y-90000000D01*
X191375000Y-96000000D02*
X196175000Y-96000000D01*
X195675000Y-90000000D02*
X197175000Y-90000000D01*
X198375000Y-96000000D02*
X199975000Y-96000000D01*
X199975000Y-90000000D02*
X199375000Y-90000000D01*
D12*
%TO.C,R40*%
X168453641Y-136520000D02*
X168146359Y-136520000D01*
X168453641Y-137280000D02*
X168146359Y-137280000D01*
%TO.C,U16*%
X101940000Y-108150000D02*
X101940000Y-110100000D01*
X101940000Y-112050000D02*
X101940000Y-110100000D01*
X107060000Y-108150000D02*
X107060000Y-110100000D01*
X107060000Y-112050000D02*
X107060000Y-110100000D01*
X102035000Y-107400000D02*
X101705000Y-107640000D01*
X101705000Y-107160000D01*
X102035000Y-107400000D01*
G36*
X102035000Y-107400000D02*
G01*
X101705000Y-107640000D01*
X101705000Y-107160000D01*
X102035000Y-107400000D01*
G37*
%TO.C,C37*%
X131132836Y-93915000D02*
X130917164Y-93915000D01*
X131132836Y-94635000D02*
X130917164Y-94635000D01*
%TO.C,BT1*%
X110700000Y-117550000D02*
X188700000Y-117550000D01*
X110700000Y-137650000D02*
X110700000Y-117550000D01*
X188700000Y-117550000D02*
X188700000Y-137650000D01*
X188700000Y-137650000D02*
X110700000Y-137650000D01*
%TO.C,R8*%
X185346359Y-131520000D02*
X185653641Y-131520000D01*
X185346359Y-132280000D02*
X185653641Y-132280000D01*
%TO.C,C61*%
X122427836Y-81940000D02*
X122212164Y-81940000D01*
X122427836Y-82660000D02*
X122212164Y-82660000D01*
%TO.C,R12*%
X132846359Y-56220000D02*
X133153641Y-56220000D01*
X132846359Y-56980000D02*
X133153641Y-56980000D01*
%TO.C,C62*%
X171915000Y-87990000D02*
X171915000Y-91900000D01*
X173785000Y-87990000D02*
X171915000Y-87990000D01*
X173785000Y-91900000D02*
X173785000Y-87990000D01*
%TO.C,C58*%
X127407836Y-100840000D02*
X127192164Y-100840000D01*
X127407836Y-101560000D02*
X127192164Y-101560000D01*
%TO.C,R53*%
X173253641Y-76120000D02*
X172946359Y-76120000D01*
X173253641Y-76880000D02*
X172946359Y-76880000D01*
%TO.C,R61*%
X134720000Y-127293641D02*
X134720000Y-126986359D01*
X135480000Y-127293641D02*
X135480000Y-126986359D01*
%TO.C,C5*%
X178490000Y-147607836D02*
X178490000Y-147392164D01*
X179210000Y-147607836D02*
X179210000Y-147392164D01*
%TO.C,C9*%
X110240000Y-102007836D02*
X110240000Y-101792164D01*
X110960000Y-102007836D02*
X110960000Y-101792164D01*
%TO.C,R25*%
X188353641Y-118420000D02*
X188046359Y-118420000D01*
X188353641Y-119180000D02*
X188046359Y-119180000D01*
%TO.C,C21*%
X176357836Y-95990000D02*
X176142164Y-95990000D01*
X176357836Y-96710000D02*
X176142164Y-96710000D01*
%TO.C,R4*%
X128446359Y-117320000D02*
X128753641Y-117320000D01*
X128446359Y-118080000D02*
X128753641Y-118080000D01*
%TO.C,Q5*%
X160740000Y-82050000D02*
X160740000Y-82700000D01*
X160740000Y-83350000D02*
X160740000Y-82700000D01*
X163860000Y-82050000D02*
X163860000Y-82700000D01*
X163860000Y-83350000D02*
X163860000Y-82700000D01*
X164140000Y-84102500D02*
X163810000Y-83862500D01*
X164140000Y-83622500D01*
X164140000Y-84102500D01*
G36*
X164140000Y-84102500D02*
G01*
X163810000Y-83862500D01*
X164140000Y-83622500D01*
X164140000Y-84102500D01*
G37*
%TO.C,R19*%
X109853641Y-126420000D02*
X109546359Y-126420000D01*
X109853641Y-127180000D02*
X109546359Y-127180000D01*
%TO.C,C41*%
X126727836Y-63740000D02*
X126512164Y-63740000D01*
X126727836Y-64460000D02*
X126512164Y-64460000D01*
%TO.C,C7*%
X121390000Y-120540580D02*
X121390000Y-120259420D01*
X122410000Y-120540580D02*
X122410000Y-120259420D01*
%TO.C,R21*%
X189020000Y-148243641D02*
X189020000Y-147936359D01*
X189780000Y-148243641D02*
X189780000Y-147936359D01*
%TO.C,R67*%
X171996359Y-109095000D02*
X172303641Y-109095000D01*
X171996359Y-109855000D02*
X172303641Y-109855000D01*
%TO.C,U11*%
X133910000Y-63490000D02*
X130150000Y-63490000D01*
X133910000Y-64750000D02*
X133910000Y-63490000D01*
X133910000Y-69050000D02*
X133910000Y-70310000D01*
X133910000Y-70310000D02*
X130150000Y-70310000D01*
X129110000Y-70540000D02*
X128630000Y-70540000D01*
X128870000Y-70210000D01*
X129110000Y-70540000D01*
G36*
X129110000Y-70540000D02*
G01*
X128630000Y-70540000D01*
X128870000Y-70210000D01*
X129110000Y-70540000D01*
G37*
%TO.C,R11*%
X172095000Y-85746359D02*
X172095000Y-86053641D01*
X172855000Y-85746359D02*
X172855000Y-86053641D01*
%TO.C,C63*%
X111090000Y-81459420D02*
X111090000Y-81740580D01*
X112110000Y-81459420D02*
X112110000Y-81740580D01*
%TO.C,D2*%
X181220000Y-131100000D02*
X181220000Y-129640000D01*
X182150000Y-129640000D02*
X181220000Y-129640000D01*
X183450000Y-129640000D02*
X184380000Y-129640000D01*
X184380000Y-129640000D02*
X184380000Y-130440000D01*
X184380000Y-131240000D02*
X184380000Y-130440000D01*
X184740000Y-131980000D02*
X184410000Y-131740000D01*
X184740000Y-131500000D01*
X184740000Y-131980000D01*
G36*
X184740000Y-131980000D02*
G01*
X184410000Y-131740000D01*
X184740000Y-131500000D01*
X184740000Y-131980000D01*
G37*
%TO.C,R26*%
X169571359Y-93270000D02*
X169878641Y-93270000D01*
X169571359Y-94030000D02*
X169878641Y-94030000D01*
%TO.C,R51*%
X110946359Y-100120000D02*
X111253641Y-100120000D01*
X110946359Y-100880000D02*
X111253641Y-100880000D01*
D13*
%TO.C,U14*%
X128450000Y-101590000D02*
X128450000Y-100950000D01*
X128450000Y-102950000D02*
X128450000Y-102510000D01*
X128600000Y-100950000D02*
X128450000Y-100950000D01*
X131025000Y-100975000D02*
X130875000Y-100975000D01*
X131150000Y-101590000D02*
X131150000Y-100950000D01*
X131150000Y-103150000D02*
X131000000Y-103150000D01*
X131150000Y-103150000D02*
X131150000Y-102510000D01*
X128450000Y-103510000D02*
X128090000Y-103150000D01*
X128450000Y-103150000D01*
X128450000Y-103510000D01*
G36*
X128450000Y-103510000D02*
G01*
X128090000Y-103150000D01*
X128450000Y-103150000D01*
X128450000Y-103510000D01*
G37*
D12*
%TO.C,C33*%
X126440000Y-80992164D02*
X126440000Y-81207836D01*
X127160000Y-80992164D02*
X127160000Y-81207836D01*
%TO.C,K1*%
X180400000Y-85360000D02*
X180410000Y-78700000D01*
X180900000Y-85360000D02*
X180400000Y-85360000D01*
X180910000Y-78100000D02*
X180910000Y-78700000D01*
X180910000Y-78700000D02*
X180410000Y-78700000D01*
X182410000Y-78100000D02*
X182410000Y-78700000D01*
X182410000Y-78700000D02*
X183810000Y-78700000D01*
X183900000Y-85360000D02*
X182500000Y-85360000D01*
X185500000Y-78660000D02*
X186300000Y-78660000D01*
X186300000Y-85360000D02*
X185500000Y-85360000D01*
X187900000Y-78660000D02*
X188500000Y-78660000D01*
X188500000Y-85360000D02*
X187900000Y-85360000D01*
X190100000Y-78660000D02*
X190600000Y-78660000D01*
X190600000Y-78660000D02*
X190600000Y-85360000D01*
X190600000Y-85360000D02*
X190100000Y-85360000D01*
%TO.C,R48*%
X123046359Y-55220000D02*
X123353641Y-55220000D01*
X123046359Y-55980000D02*
X123353641Y-55980000D01*
%TO.C,C2*%
X145540000Y-139542164D02*
X145540000Y-139757836D01*
X146260000Y-139542164D02*
X146260000Y-139757836D01*
%TO.C,U3*%
X115230000Y-81540000D02*
X117540000Y-81540000D01*
X115230000Y-81815000D02*
X115230000Y-81540000D01*
X115230000Y-91185000D02*
X115230000Y-91460000D01*
X115230000Y-91460000D02*
X117540000Y-91460000D01*
X119850000Y-81540000D02*
X117540000Y-81540000D01*
X119850000Y-81815000D02*
X119850000Y-81540000D01*
X119850000Y-91185000D02*
X119850000Y-91460000D01*
X119850000Y-91460000D02*
X117540000Y-91460000D01*
X114880000Y-91515000D02*
X114400000Y-91515000D01*
X114640000Y-91185000D01*
X114880000Y-91515000D01*
G36*
X114880000Y-91515000D02*
G01*
X114400000Y-91515000D01*
X114640000Y-91185000D01*
X114880000Y-91515000D01*
G37*
%TO.C,R1*%
X182746359Y-148570000D02*
X183053641Y-148570000D01*
X182746359Y-149330000D02*
X183053641Y-149330000D01*
%TO.C,C81*%
X123940000Y-57407836D02*
X123940000Y-57192164D01*
X124660000Y-57407836D02*
X124660000Y-57192164D01*
%TO.C,U17*%
X159970000Y-65900000D02*
X159970000Y-62300000D01*
X155670000Y-63280000D02*
G75*
G02*
X159961741Y-62288125I2450000J-820000D01*
G01*
X159947684Y-65908445D02*
G75*
G02*
X155670000Y-64880000I-1827684J1808445D01*
G01*
%TO.C,R20*%
X187590000Y-132472936D02*
X187590000Y-133927064D01*
X189410000Y-132472936D02*
X189410000Y-133927064D01*
%TO.C,C3*%
X187440000Y-138392164D02*
X187440000Y-138607836D01*
X188160000Y-138392164D02*
X188160000Y-138607836D01*
%TO.C,R34*%
X118996359Y-75670000D02*
X119303641Y-75670000D01*
X118996359Y-76430000D02*
X119303641Y-76430000D01*
%TO.C,J5*%
X100050000Y-124100000D02*
X100050000Y-133100000D01*
X100050000Y-124100000D02*
X101400000Y-124100000D01*
X100050000Y-133100000D02*
X101400000Y-133100000D01*
X104100000Y-124100000D02*
X105100000Y-124100000D01*
X104100000Y-133100000D02*
X105100000Y-133100000D01*
%TO.C,C55*%
X119857836Y-132990000D02*
X119642164Y-132990000D01*
X119857836Y-133710000D02*
X119642164Y-133710000D01*
%TO.C,R64*%
X111246359Y-103420000D02*
X111553641Y-103420000D01*
X111246359Y-104180000D02*
X111553641Y-104180000D01*
%TO.C,R41*%
X168146359Y-137470000D02*
X168453641Y-137470000D01*
X168146359Y-138230000D02*
X168453641Y-138230000D01*
%TO.C,Q2*%
X187340000Y-66450000D02*
X187340000Y-67100000D01*
X187340000Y-67750000D02*
X187340000Y-67100000D01*
X190460000Y-66450000D02*
X190460000Y-67100000D01*
X190460000Y-67750000D02*
X190460000Y-67100000D01*
X190740000Y-68502500D02*
X190410000Y-68262500D01*
X190740000Y-68022500D01*
X190740000Y-68502500D01*
G36*
X190740000Y-68502500D02*
G01*
X190410000Y-68262500D01*
X190740000Y-68022500D01*
X190740000Y-68502500D01*
G37*
%TO.C,R23*%
X183140000Y-116800000D02*
X183140000Y-119660000D01*
X183140000Y-119660000D02*
X185060000Y-119660000D01*
X185060000Y-119660000D02*
X185060000Y-116800000D01*
%TO.C,R36*%
X173996359Y-108120000D02*
X174303641Y-108120000D01*
X173996359Y-108880000D02*
X174303641Y-108880000D01*
%TO.C,C38*%
X112840000Y-90992164D02*
X112840000Y-91207836D01*
X113560000Y-90992164D02*
X113560000Y-91207836D01*
%TO.C,R57*%
X138020000Y-127243641D02*
X138020000Y-126936359D01*
X138780000Y-127243641D02*
X138780000Y-126936359D01*
%TO.C,C44*%
X126492164Y-67040000D02*
X126707836Y-67040000D01*
X126492164Y-67760000D02*
X126707836Y-67760000D01*
%TO.C,R42*%
X184120000Y-122503641D02*
X184120000Y-122196359D01*
X184880000Y-122503641D02*
X184880000Y-122196359D01*
%TO.C,R2*%
X178470000Y-145446359D02*
X178470000Y-145753641D01*
X179230000Y-145446359D02*
X179230000Y-145753641D01*
%TO.C,R14*%
X109353641Y-100120000D02*
X109046359Y-100120000D01*
X109353641Y-100880000D02*
X109046359Y-100880000D01*
%TO.C,JP1*%
X180900000Y-116400000D02*
X182900000Y-116400000D01*
X180900000Y-119200000D02*
X180900000Y-116400000D01*
X182900000Y-116400000D02*
X182900000Y-119200000D01*
X182900000Y-119200000D02*
X180900000Y-119200000D01*
%TO.C,C79*%
X121359420Y-62090000D02*
X121640580Y-62090000D01*
X121359420Y-63110000D02*
X121640580Y-63110000D01*
%TO.C,R56*%
X135820000Y-127243641D02*
X135820000Y-126936359D01*
X136580000Y-127243641D02*
X136580000Y-126936359D01*
%TO.C,Q1*%
X135250000Y-55240000D02*
X135900000Y-55240000D01*
X135250000Y-58360000D02*
X135900000Y-58360000D01*
X136550000Y-55240000D02*
X135900000Y-55240000D01*
X136550000Y-58360000D02*
X135900000Y-58360000D01*
X137062500Y-55290000D02*
X136822500Y-54960000D01*
X137302500Y-54960000D01*
X137062500Y-55290000D01*
G36*
X137062500Y-55290000D02*
G01*
X136822500Y-54960000D01*
X137302500Y-54960000D01*
X137062500Y-55290000D01*
G37*
%TO.C,C42*%
X126512164Y-64740000D02*
X126727836Y-64740000D01*
X126512164Y-65460000D02*
X126727836Y-65460000D01*
%TO.C,C40*%
X169892164Y-118240000D02*
X170107836Y-118240000D01*
X169892164Y-118960000D02*
X170107836Y-118960000D01*
%TO.C,C8*%
X108592164Y-92540000D02*
X108807836Y-92540000D01*
X108592164Y-93260000D02*
X108807836Y-93260000D01*
%TO.C,C82*%
X114992164Y-56465000D02*
X115207836Y-56465000D01*
X114992164Y-57185000D02*
X115207836Y-57185000D01*
%TO.C,U24*%
X109190000Y-71900000D02*
X109190000Y-72700000D01*
X109190000Y-73500000D02*
X109190000Y-72700000D01*
X112310000Y-71900000D02*
X112310000Y-72700000D01*
X112310000Y-74500000D02*
X112310000Y-72700000D01*
%TO.C,R29*%
X172871359Y-84070000D02*
X173178641Y-84070000D01*
X172871359Y-84830000D02*
X173178641Y-84830000D01*
%TO.C,R13*%
X137390000Y-52072936D02*
X137390000Y-53527064D01*
X139210000Y-52072936D02*
X139210000Y-53527064D01*
%TO.C,C13*%
X167692164Y-95540000D02*
X167907836Y-95540000D01*
X167692164Y-96260000D02*
X167907836Y-96260000D01*
%TO.C,R16*%
X108853641Y-93520000D02*
X108546359Y-93520000D01*
X108853641Y-94280000D02*
X108546359Y-94280000D01*
%TO.C,R70*%
X165922659Y-90939940D02*
X166139940Y-90722659D01*
X166460060Y-91477341D02*
X166677341Y-91260060D01*
%TO.C,R47*%
X137937258Y-116677500D02*
X137462742Y-116677500D01*
X137937258Y-117722500D02*
X137462742Y-117722500D01*
%TO.C,R6*%
X183346359Y-75820000D02*
X183653641Y-75820000D01*
X183346359Y-76580000D02*
X183653641Y-76580000D01*
%TO.C,C11*%
X179440000Y-145707836D02*
X179440000Y-145492164D01*
X180160000Y-145707836D02*
X180160000Y-145492164D01*
%TO.C,U2*%
X130350000Y-111940000D02*
X132300000Y-111940000D01*
X130350000Y-117060000D02*
X132300000Y-117060000D01*
X134250000Y-111940000D02*
X132300000Y-111940000D01*
X134250000Y-117060000D02*
X132300000Y-117060000D01*
X135000000Y-112035000D02*
X134760000Y-111705000D01*
X135240000Y-111705000D01*
X135000000Y-112035000D01*
G36*
X135000000Y-112035000D02*
G01*
X134760000Y-111705000D01*
X135240000Y-111705000D01*
X135000000Y-112035000D01*
G37*
%TO.C,R17*%
X109820000Y-93846359D02*
X109820000Y-94153641D01*
X110580000Y-93846359D02*
X110580000Y-94153641D01*
%TO.C,R66*%
X169846359Y-119220000D02*
X170153641Y-119220000D01*
X169846359Y-119980000D02*
X170153641Y-119980000D01*
%TO.C,R44*%
X120320000Y-136946359D02*
X120320000Y-137253641D01*
X121080000Y-136946359D02*
X121080000Y-137253641D01*
%TO.C,R9*%
X118353641Y-142020000D02*
X118046359Y-142020000D01*
X118353641Y-142780000D02*
X118046359Y-142780000D01*
%TO.C,C46*%
X138015000Y-91407836D02*
X138015000Y-91192164D01*
X138735000Y-91407836D02*
X138735000Y-91192164D01*
%TO.C,R50*%
X108020000Y-108353641D02*
X108020000Y-108046359D01*
X108780000Y-108353641D02*
X108780000Y-108046359D01*
%TO.C,R31*%
X189053641Y-69620000D02*
X188746359Y-69620000D01*
X189053641Y-70380000D02*
X188746359Y-70380000D01*
%TO.C,C6*%
X145090000Y-142290580D02*
X145090000Y-142009420D01*
X146110000Y-142290580D02*
X146110000Y-142009420D01*
%TO.C,R46*%
X185672936Y-140665000D02*
X187127064Y-140665000D01*
X185672936Y-142485000D02*
X187127064Y-142485000D01*
%TO.C,FB2*%
X128462221Y-93140000D02*
X128787779Y-93140000D01*
X128462221Y-94160000D02*
X128787779Y-94160000D01*
D11*
%TO.C,U7*%
X181125000Y-148030000D02*
X182525000Y-148030000D01*
X182525000Y-143170000D02*
X182525000Y-143025000D01*
X182525000Y-148030000D02*
X182525000Y-148175000D01*
X186675000Y-143025000D02*
X182525000Y-143025000D01*
X186675000Y-143170000D02*
X186675000Y-143025000D01*
X186675000Y-148030000D02*
X186675000Y-148175000D01*
X186675000Y-148175000D02*
X182525000Y-148175000D01*
D12*
%TO.C,C4*%
X137840580Y-115190000D02*
X137559420Y-115190000D01*
X137840580Y-116210000D02*
X137559420Y-116210000D01*
%TO.C,R27*%
X192453641Y-118920000D02*
X192146359Y-118920000D01*
X192453641Y-119680000D02*
X192146359Y-119680000D01*
%TO.C,C51*%
X112840000Y-89167164D02*
X112840000Y-89382836D01*
X113560000Y-89167164D02*
X113560000Y-89382836D01*
%TO.C,R5*%
X187420000Y-136753641D02*
X187420000Y-136446359D01*
X188180000Y-136753641D02*
X188180000Y-136446359D01*
%TO.C,C57*%
X117240000Y-148392164D02*
X117240000Y-148607836D01*
X117960000Y-148392164D02*
X117960000Y-148607836D01*
%TD*%
D14*
%TO.C,J14*%
X190975000Y-104000000D03*
X196975000Y-104000000D03*
%TD*%
%TO.C,J16*%
X190975000Y-115000000D03*
X196975000Y-115000000D03*
%TD*%
%TO.C,J3*%
X190975000Y-93000000D03*
X196975000Y-93000000D03*
%TD*%
%LPC*%
D15*
%TO.C,J12*%
X111600000Y-148380000D03*
D16*
X111600000Y-145840000D03*
X111600000Y-143300000D03*
X111600000Y-140760000D03*
X111600000Y-138220000D03*
X111600000Y-135680000D03*
X111600000Y-133140000D03*
X111600000Y-130600000D03*
%TD*%
D17*
%TO.C,SW9*%
X111600000Y-56800000D03*
X111600000Y-54300000D03*
X111600000Y-51800000D03*
%TD*%
D18*
%TO.C,J32*%
X148730000Y-86777000D03*
D16*
X148730000Y-84237000D03*
X148730000Y-81697000D03*
%TD*%
D15*
%TO.C,J10*%
X114800000Y-110600000D03*
D16*
X114800000Y-113140000D03*
X114800000Y-115680000D03*
X114800000Y-118220000D03*
X114800000Y-120760000D03*
X114800000Y-123300000D03*
%TD*%
D19*
%TO.C,J9*%
X118457500Y-57700000D03*
D20*
X118457500Y-63700000D03*
D21*
X113757500Y-60700000D03*
%TD*%
D22*
%TO.C,J27*%
X108005000Y-110950000D03*
X108005000Y-114450000D03*
X108005000Y-117950000D03*
X108005000Y-121450000D03*
%TD*%
D23*
%TO.C,J34*%
X120725000Y-95350000D03*
D16*
X120725000Y-92810000D03*
X123265000Y-95350000D03*
X123265000Y-92810000D03*
X125805000Y-95350000D03*
X125805000Y-92810000D03*
%TD*%
D24*
%TO.C,SW7*%
X175550000Y-91200000D03*
X175550000Y-103700000D03*
X170550000Y-91200000D03*
X170550000Y-103700000D03*
%TD*%
D25*
%TO.C,R32*%
X174800000Y-86400000D03*
X171400000Y-86400000D03*
%TD*%
D26*
%TO.C,U13*%
X181850000Y-124400000D03*
D27*
X183120000Y-122330000D03*
X184390000Y-124400000D03*
%TD*%
D22*
%TO.C,J1*%
X108005000Y-95550000D03*
X108005000Y-99050000D03*
X108005000Y-102550000D03*
X108005000Y-106050000D03*
%TD*%
D28*
%TO.C,J18*%
X191995000Y-89150000D03*
X191995000Y-85650000D03*
X191995000Y-82150000D03*
X191995000Y-78650000D03*
%TD*%
%TO.C,J15*%
X192000000Y-147550000D03*
X192000000Y-144050000D03*
X192000000Y-140550000D03*
X192000000Y-137050000D03*
%TD*%
D22*
%TO.C,J2*%
X108005000Y-137050000D03*
X108005000Y-140550000D03*
X108005000Y-144050000D03*
X108005000Y-147550000D03*
%TD*%
D29*
%TO.C,M1*%
X162540000Y-51500000D03*
D30*
X162540000Y-54040000D03*
X162540000Y-56580000D03*
X162540000Y-59120000D03*
X162540000Y-61660000D03*
X162540000Y-64200000D03*
X182860000Y-64200000D03*
X182860000Y-61660000D03*
X182860000Y-59120000D03*
X182860000Y-56580000D03*
X182860000Y-54040000D03*
X182860000Y-51500000D03*
%TD*%
D24*
%TO.C,SW8*%
X175600000Y-124350000D03*
X175600000Y-136850000D03*
X170600000Y-124350000D03*
X170600000Y-136850000D03*
%TD*%
D31*
%TO.C,J6*%
X168240000Y-141680000D03*
D32*
X169510000Y-141680000D03*
X168240000Y-142950000D03*
X169510000Y-142950000D03*
X168240000Y-144220000D03*
X169510000Y-144220000D03*
%TD*%
D15*
%TO.C,J19*%
X111200000Y-123300000D03*
D16*
X111200000Y-120760000D03*
X111200000Y-118220000D03*
X111200000Y-115680000D03*
X111200000Y-113140000D03*
X111200000Y-110600000D03*
%TD*%
D33*
%TO.C,SW4*%
X134100000Y-110900000D03*
X131600000Y-110900000D03*
X129100000Y-110900000D03*
%TD*%
D15*
%TO.C,J20*%
X115200000Y-130680000D03*
D16*
X115200000Y-133220000D03*
X115200000Y-135760000D03*
X115200000Y-138300000D03*
X115200000Y-140840000D03*
X115200000Y-143380000D03*
X115200000Y-145920000D03*
X115200000Y-148460000D03*
%TD*%
D15*
%TO.C,J4*%
X115000000Y-104700000D03*
D16*
X115000000Y-102160000D03*
X115000000Y-99620000D03*
X115000000Y-97080000D03*
%TD*%
D34*
%TO.C,X3*%
X164880000Y-68300000D03*
X167420000Y-68300000D03*
X169960000Y-68300000D03*
X172500000Y-68300000D03*
X175040000Y-68300000D03*
X177580000Y-68300000D03*
X180120000Y-68300000D03*
%TD*%
D18*
%TO.C,J30*%
X153810000Y-86777000D03*
D16*
X153810000Y-84237000D03*
X153810000Y-81697000D03*
%TD*%
D22*
%TO.C,J22*%
X108005000Y-52450000D03*
X108005000Y-55950000D03*
X108005000Y-59450000D03*
X108005000Y-62950000D03*
%TD*%
D35*
%TO.C,J26*%
X121800000Y-77800000D03*
D36*
X121800000Y-75260000D03*
D37*
X124340000Y-77800000D03*
D36*
X124340000Y-75260000D03*
D37*
X126880000Y-77800000D03*
D36*
X126880000Y-75260000D03*
D37*
X129420000Y-77800000D03*
D25*
X129420000Y-75260000D03*
X131960000Y-77800000D03*
X131960000Y-75260000D03*
D36*
X134500000Y-77800000D03*
X134500000Y-75260000D03*
D38*
X137040000Y-77800000D03*
X137040000Y-75260000D03*
%TD*%
D15*
%TO.C,U15*%
X168875000Y-62489500D03*
D38*
X168875000Y-59949500D03*
X171415000Y-62489500D03*
X171415000Y-59949500D03*
X173955000Y-62489500D03*
X173955000Y-59949500D03*
X176495000Y-62489500D03*
X176495000Y-59949500D03*
%TD*%
D39*
%TO.C,U21*%
X142380000Y-112000000D03*
D40*
X144920000Y-112000000D03*
X147460000Y-112000000D03*
X150000000Y-112000000D03*
X152540000Y-112000000D03*
X155080000Y-112000000D03*
X157620000Y-112000000D03*
%TD*%
D18*
%TO.C,J33*%
X151270000Y-86792000D03*
D16*
X151270000Y-84252000D03*
X151270000Y-81712000D03*
%TD*%
D41*
%TO.C,U6*%
X165792500Y-51492500D03*
D42*
X165792500Y-53492500D03*
X165792500Y-55492500D03*
X165792500Y-57492500D03*
X165792500Y-59492500D03*
X165792500Y-61492500D03*
X165792500Y-63492500D03*
X165792500Y-65492500D03*
X179392500Y-65492500D03*
X179392500Y-63492500D03*
X179392500Y-61492500D03*
X179392500Y-59492500D03*
X179392500Y-57492500D03*
X179392500Y-55492500D03*
X179392500Y-53492500D03*
X179392500Y-51492500D03*
%TD*%
D14*
%TO.C,MK1*%
X184350000Y-115300000D03*
X182450000Y-115300000D03*
%TD*%
D43*
%TO.C,SW6*%
X175600000Y-106800000D03*
D40*
X170600000Y-106800000D03*
X173100000Y-106800000D03*
D44*
X178700000Y-114300000D03*
X167500000Y-114300000D03*
D40*
X170600000Y-121300000D03*
X175600000Y-121300000D03*
%TD*%
D28*
%TO.C,J24*%
X191995000Y-73750000D03*
X191995000Y-70250000D03*
X191995000Y-66750000D03*
X191995000Y-63250000D03*
%TD*%
D15*
%TO.C,J23*%
X123700000Y-105900000D03*
D16*
X126240000Y-105900000D03*
X128780000Y-105900000D03*
X131320000Y-105900000D03*
X133860000Y-105900000D03*
X136400000Y-105900000D03*
%TD*%
D45*
%TO.C,X1*%
X125000000Y-142505000D03*
X175000000Y-142505000D03*
%TD*%
D46*
%TO.C,R38*%
X111240000Y-87130000D03*
D47*
X123940000Y-87130000D03*
%TD*%
D48*
%TO.C,C39*%
X112800000Y-83082380D03*
D46*
X112800000Y-80582380D03*
%TD*%
D18*
%TO.C,J31*%
X146190000Y-86792000D03*
D16*
X146190000Y-84252000D03*
X146190000Y-81712000D03*
%TD*%
D49*
%TO.C,J8*%
X129050000Y-99900000D03*
D16*
X131590000Y-99900000D03*
X134130000Y-99900000D03*
X136670000Y-99900000D03*
%TD*%
D22*
%TO.C,J28*%
X108005000Y-80150000D03*
X108005000Y-83650000D03*
X108005000Y-87150000D03*
X108005000Y-90650000D03*
%TD*%
D28*
%TO.C,J21*%
X192000000Y-132150000D03*
X192000000Y-128650000D03*
X192000000Y-125150000D03*
X192000000Y-121650000D03*
%TD*%
D50*
%TO.C,U22*%
X175800000Y-78820000D03*
D14*
X175800000Y-76580000D03*
X174220000Y-75000000D03*
X170400000Y-76580000D03*
X170400000Y-78820000D03*
X171980000Y-80400000D03*
%TD*%
D51*
%TO.C,R63*%
X122760624Y-85689376D03*
X122039376Y-86410624D03*
%TD*%
D52*
%TO.C,Q4*%
X175012500Y-84800000D03*
X175012500Y-82900000D03*
X176887500Y-83850000D03*
%TD*%
D53*
%TO.C,C32*%
X127980000Y-92000000D03*
X127020000Y-92000000D03*
%TD*%
D54*
%TO.C,C43*%
X126120000Y-66400000D03*
X127080000Y-66400000D03*
%TD*%
D55*
%TO.C,C19*%
X180000000Y-105950000D03*
X185600000Y-105950000D03*
%TD*%
D56*
%TO.C,R7*%
X120275000Y-118100000D03*
X121925000Y-118100000D03*
%TD*%
D57*
%TO.C,R33*%
X127750000Y-53800000D03*
X172250000Y-53800000D03*
D58*
X110300000Y-63800000D03*
X189700000Y-63800000D03*
%TD*%
D59*
%TO.C,R49*%
X104850000Y-100900000D03*
X104850000Y-102900000D03*
%TD*%
D60*
%TO.C,R45*%
X163910000Y-85150000D03*
X162890000Y-85150000D03*
%TD*%
D61*
%TO.C,SW3*%
X196930000Y-142700000D03*
X196930000Y-145700000D03*
D62*
X194920000Y-141950000D03*
X194920000Y-144950000D03*
X194920000Y-146450000D03*
D63*
X198030000Y-140050000D03*
X195820000Y-140050000D03*
X198030000Y-148350000D03*
X195820000Y-148350000D03*
%TD*%
D64*
%TO.C,C84*%
X114375000Y-65100000D03*
X112825000Y-65100000D03*
%TD*%
D65*
%TO.C,C14*%
X175400000Y-98620000D03*
X175400000Y-99580000D03*
%TD*%
D60*
%TO.C,R60*%
X121810000Y-55600000D03*
X120790000Y-55600000D03*
%TD*%
D65*
%TO.C,C10*%
X110900000Y-104720000D03*
X110900000Y-105680000D03*
%TD*%
D60*
%TO.C,R69*%
X110500000Y-90900000D03*
X109480000Y-90900000D03*
%TD*%
D66*
%TO.C,R68*%
X110500000Y-88990000D03*
X110500000Y-90010000D03*
%TD*%
D67*
%TO.C,J17*%
X141200000Y-139975000D03*
X133200000Y-139975000D03*
D68*
X134000000Y-128975000D03*
X135100000Y-128975000D03*
X136200000Y-128975000D03*
X137300000Y-128975000D03*
X138400000Y-128975000D03*
X139500000Y-128975000D03*
X140600000Y-128975000D03*
X141700000Y-128975000D03*
X142800000Y-128975000D03*
D69*
X144000000Y-139575000D03*
D70*
X144000000Y-129975000D03*
D71*
X129400000Y-129975000D03*
D69*
X128500000Y-139575000D03*
%TD*%
D72*
%TO.C,C17*%
X185850000Y-90750000D03*
X185850000Y-93450000D03*
%TD*%
D53*
%TO.C,C12*%
X168280000Y-96850000D03*
X167320000Y-96850000D03*
%TD*%
D73*
%TO.C,R59*%
X114590000Y-55860000D03*
X115610000Y-55860000D03*
%TD*%
D74*
%TO.C,L4*%
X115675000Y-69300000D03*
X122725000Y-69300000D03*
%TD*%
D61*
%TO.C,SW2*%
X196900000Y-131700000D03*
X196900000Y-134700000D03*
D62*
X194890000Y-130950000D03*
X194890000Y-133950000D03*
X194890000Y-135450000D03*
D63*
X198000000Y-129050000D03*
X195790000Y-129050000D03*
X198000000Y-137350000D03*
X195790000Y-137350000D03*
%TD*%
D75*
%TO.C,C28*%
X134600000Y-107825000D03*
X134600000Y-109375000D03*
%TD*%
D76*
%TO.C,C52*%
X112000000Y-90725000D03*
X112000000Y-89175000D03*
%TD*%
D77*
%TO.C,C50*%
X140475000Y-89830000D03*
X140475000Y-88870000D03*
%TD*%
D54*
%TO.C,C36*%
X137220000Y-79400000D03*
X138180000Y-79400000D03*
%TD*%
D78*
%TO.C,C1*%
X139925000Y-115700000D03*
X141475000Y-115700000D03*
%TD*%
D53*
%TO.C,C54*%
X118355000Y-133350000D03*
X117395000Y-133350000D03*
%TD*%
D77*
%TO.C,C25*%
X134500000Y-74030000D03*
X134500000Y-73070000D03*
%TD*%
D56*
%TO.C,R3*%
X139875000Y-117200000D03*
X141525000Y-117200000D03*
%TD*%
D73*
%TO.C,R18*%
X109090000Y-129600000D03*
X110110000Y-129600000D03*
%TD*%
D79*
%TO.C,LS2*%
X154000000Y-97800000D03*
X150000000Y-97800000D03*
X146000000Y-97800000D03*
X156000000Y-99050000D03*
X152000000Y-99050000D03*
X148000000Y-99050000D03*
X144000000Y-99050000D03*
X158000000Y-100300000D03*
X154000000Y-100300000D03*
X150000000Y-100300000D03*
X146000000Y-100300000D03*
X142000000Y-100300000D03*
X156000000Y-101550000D03*
X152000000Y-101550000D03*
X148000000Y-101550000D03*
X144000000Y-101550000D03*
X158000000Y-102800000D03*
X154000000Y-102800000D03*
X150000000Y-102800000D03*
X146000000Y-102800000D03*
X142000000Y-102800000D03*
X156000000Y-104050000D03*
X152000000Y-104050000D03*
X148000000Y-104050000D03*
X144000000Y-104050000D03*
X158000000Y-105300000D03*
X154000000Y-105300000D03*
X150000000Y-105300000D03*
X146000000Y-105300000D03*
X142000000Y-105300000D03*
X156000000Y-106550000D03*
X152000000Y-106550000D03*
X148000000Y-106550000D03*
X144000000Y-106550000D03*
X154000000Y-107800000D03*
X150000000Y-107800000D03*
X146000000Y-107800000D03*
%TD*%
D80*
%TO.C,D20*%
X162275000Y-89975000D03*
X162275000Y-87875000D03*
%TD*%
D65*
%TO.C,C45*%
X160850000Y-89220000D03*
X160850000Y-90180000D03*
%TD*%
D73*
%TO.C,R54*%
X185790000Y-118800000D03*
X186810000Y-118800000D03*
%TD*%
D66*
%TO.C,R55*%
X191150000Y-109640000D03*
X191150000Y-110660000D03*
%TD*%
D14*
%TO.C,J14*%
X190975000Y-104000000D03*
X196975000Y-104000000D03*
D81*
X194575000Y-100500000D03*
X197275000Y-107500000D03*
X198275000Y-100500000D03*
X190275000Y-107500000D03*
X188575000Y-100500000D03*
%TD*%
D75*
%TO.C,C29*%
X120300000Y-119625000D03*
X120300000Y-121175000D03*
%TD*%
D82*
%TO.C,U8*%
X133637500Y-124450000D03*
X133637500Y-125400000D03*
X133637500Y-126350000D03*
X131362500Y-126350000D03*
X131362500Y-125400000D03*
X131362500Y-124450000D03*
%TD*%
D83*
%TO.C,D13*%
X179100000Y-82350000D03*
X179100000Y-84450000D03*
%TD*%
D41*
%TO.C,LS1*%
X180750000Y-93800000D03*
D84*
X180750000Y-91800000D03*
%TD*%
D54*
%TO.C,C35*%
X139820000Y-82400000D03*
X140780000Y-82400000D03*
%TD*%
D77*
%TO.C,C47*%
X143575000Y-92430000D03*
X143575000Y-91470000D03*
%TD*%
D85*
%TO.C,C80*%
X123775000Y-64500000D03*
X120825000Y-64500000D03*
%TD*%
D66*
%TO.C,R24*%
X175400000Y-100490000D03*
X175400000Y-101510000D03*
%TD*%
D53*
%TO.C,C60*%
X171680000Y-75300000D03*
X170720000Y-75300000D03*
%TD*%
D86*
%TO.C,J13*%
X106350000Y-74740000D03*
X106350000Y-68960000D03*
D87*
X107600000Y-75050000D03*
X107550000Y-74250000D03*
D88*
X107550000Y-73100000D03*
X107550000Y-72100000D03*
X107550000Y-71600000D03*
X107550000Y-70600000D03*
D87*
X107550000Y-69450000D03*
X107600000Y-68650000D03*
X107600000Y-68650000D03*
X107550000Y-69450000D03*
D88*
X107550000Y-70100000D03*
X107550000Y-71100000D03*
X107550000Y-72600000D03*
X107550000Y-73600000D03*
D87*
X107550000Y-74250000D03*
X107600000Y-75050000D03*
D89*
X102650000Y-76670000D03*
D90*
X106830000Y-76670000D03*
D89*
X102650000Y-67030000D03*
D90*
X106830000Y-67030000D03*
%TD*%
D56*
%TO.C,R28*%
X120275000Y-116600000D03*
X121925000Y-116600000D03*
%TD*%
D65*
%TO.C,C26*%
X137300000Y-126610000D03*
X137300000Y-127570000D03*
%TD*%
D75*
%TO.C,C31*%
X131600000Y-107825000D03*
X131600000Y-109375000D03*
%TD*%
D91*
%TO.C,U10*%
X173575000Y-99700000D03*
X173075000Y-99700000D03*
X172575000Y-99700000D03*
X172075000Y-99700000D03*
X171575000Y-99700000D03*
X171075000Y-99700000D03*
X170575000Y-99700000D03*
X170075000Y-99700000D03*
D92*
X169375000Y-99000000D03*
X169375000Y-98500000D03*
X169375000Y-98000000D03*
X169375000Y-97500000D03*
X169375000Y-97000000D03*
X169375000Y-96500000D03*
X169375000Y-96000000D03*
X169375000Y-95500000D03*
D91*
X170075000Y-94800000D03*
X170575000Y-94800000D03*
X171075000Y-94800000D03*
X171575000Y-94800000D03*
X172075000Y-94800000D03*
X172575000Y-94800000D03*
X173075000Y-94800000D03*
X173575000Y-94800000D03*
D92*
X174275000Y-95500000D03*
X174275000Y-96000000D03*
X174275000Y-96500000D03*
X174275000Y-97000000D03*
X174275000Y-97500000D03*
X174275000Y-98000000D03*
X174275000Y-98500000D03*
X174275000Y-99000000D03*
D93*
X171825000Y-97250000D03*
%TD*%
D53*
%TO.C,C53*%
X168780000Y-135950000D03*
X167820000Y-135950000D03*
%TD*%
D94*
%TO.C,FB1*%
X178500000Y-100912500D03*
X178500000Y-102487500D03*
%TD*%
D65*
%TO.C,C27*%
X145050000Y-114045000D03*
X145050000Y-115005000D03*
%TD*%
D95*
%TO.C,C20*%
X183350000Y-113300000D03*
X183350000Y-110600000D03*
%TD*%
D53*
%TO.C,C59*%
X169080000Y-58400000D03*
X168120000Y-58400000D03*
%TD*%
D95*
%TO.C,C23*%
X172900000Y-104500000D03*
X172900000Y-101800000D03*
%TD*%
D66*
%TO.C,R58*%
X140600000Y-126580000D03*
X140600000Y-127600000D03*
%TD*%
D64*
%TO.C,C56*%
X118575000Y-144200000D03*
X117025000Y-144200000D03*
%TD*%
D77*
%TO.C,C48*%
X151300000Y-92430000D03*
X151300000Y-91470000D03*
%TD*%
%TO.C,C22*%
X176350000Y-100530000D03*
X176350000Y-99570000D03*
%TD*%
D60*
%TO.C,R35*%
X162035000Y-85150000D03*
X161015000Y-85150000D03*
%TD*%
D96*
%TO.C,D3*%
X182725000Y-140025000D03*
X182725000Y-141925000D03*
X179725000Y-140975000D03*
%TD*%
D72*
%TO.C,C16*%
X183700000Y-90750000D03*
X183700000Y-93450000D03*
%TD*%
D66*
%TO.C,R39*%
X168900000Y-91390000D03*
X168900000Y-92410000D03*
%TD*%
D64*
%TO.C,C83*%
X114475000Y-66600000D03*
X112925000Y-66600000D03*
%TD*%
D54*
%TO.C,C15*%
X175370000Y-95400000D03*
X176330000Y-95400000D03*
%TD*%
D97*
%TO.C,C24*%
X180350000Y-89250000D03*
X177650000Y-89250000D03*
%TD*%
D98*
%TO.C,R15*%
X136000000Y-54262500D03*
X136000000Y-51337500D03*
%TD*%
D99*
%TO.C,U27*%
X122950000Y-60050000D03*
X122000000Y-60050000D03*
X121050000Y-60050000D03*
X121050000Y-57350000D03*
X122000000Y-57350000D03*
X122950000Y-57350000D03*
%TD*%
D73*
%TO.C,R10*%
X108990000Y-103800000D03*
X110010000Y-103800000D03*
%TD*%
D75*
%TO.C,C30*%
X133100000Y-107825000D03*
X133100000Y-109375000D03*
%TD*%
D100*
%TO.C,U12*%
X118700000Y-149000000D03*
X118700000Y-148000000D03*
X118700000Y-147000000D03*
X120700000Y-147000000D03*
X120700000Y-148000000D03*
X120700000Y-149000000D03*
%TD*%
D73*
%TO.C,R62*%
X150915000Y-114050000D03*
X151935000Y-114050000D03*
%TD*%
D101*
%TO.C,U1*%
X180100000Y-137830000D03*
X180100000Y-136560000D03*
X180100000Y-135290000D03*
X180100000Y-134020000D03*
X186100000Y-134020000D03*
X186100000Y-135290000D03*
X186100000Y-136560000D03*
X186100000Y-137830000D03*
%TD*%
D54*
%TO.C,C49*%
X130545000Y-93350000D03*
X131505000Y-93350000D03*
%TD*%
D14*
%TO.C,J16*%
X190975000Y-115000000D03*
X196975000Y-115000000D03*
D81*
X194575000Y-111500000D03*
X197275000Y-118500000D03*
X198275000Y-111500000D03*
X190275000Y-118500000D03*
X188575000Y-111500000D03*
%TD*%
D102*
%TO.C,J11*%
X105300000Y-143700000D03*
X105300000Y-142700000D03*
X105300000Y-141700000D03*
X105300000Y-140700000D03*
D103*
X101425000Y-145000000D03*
X101425000Y-139400000D03*
%TD*%
D104*
%TO.C,U9*%
X117237500Y-136100000D03*
X117237500Y-135600000D03*
X117237500Y-135100000D03*
X117237500Y-134600000D03*
D105*
X117900000Y-134437500D03*
X118400000Y-134437500D03*
X118900000Y-134437500D03*
D104*
X119562500Y-134600000D03*
X119562500Y-135100000D03*
X119562500Y-135600000D03*
X119562500Y-136100000D03*
D105*
X118900000Y-136262500D03*
X118400000Y-136262500D03*
X117900000Y-136262500D03*
%TD*%
D106*
%TO.C,U4*%
X147450000Y-142160000D03*
X147450000Y-140890000D03*
X147450000Y-139620000D03*
X147450000Y-138350000D03*
X147450000Y-137080000D03*
X147450000Y-135810000D03*
X147450000Y-134540000D03*
X147450000Y-133270000D03*
X147450000Y-132000000D03*
X147450000Y-130730000D03*
X147450000Y-129460000D03*
X147450000Y-128190000D03*
X147450000Y-126920000D03*
X147450000Y-125650000D03*
D107*
X149215000Y-124400000D03*
X150485000Y-124400000D03*
X151755000Y-124400000D03*
X153025000Y-124400000D03*
X154295000Y-124400000D03*
X155565000Y-124400000D03*
X156835000Y-124400000D03*
X158105000Y-124400000D03*
X159375000Y-124400000D03*
X160645000Y-124400000D03*
X161915000Y-124400000D03*
X163185000Y-124400000D03*
D106*
X164950000Y-125650000D03*
X164950000Y-126920000D03*
X164950000Y-128190000D03*
X164950000Y-129460000D03*
X164950000Y-130730000D03*
X164950000Y-132000000D03*
X164950000Y-133270000D03*
X164950000Y-134540000D03*
X164950000Y-135810000D03*
X164950000Y-137080000D03*
X164950000Y-138350000D03*
X164950000Y-139620000D03*
X164950000Y-140890000D03*
X164950000Y-142160000D03*
D108*
X153300000Y-133040000D03*
X153300000Y-133040000D03*
X153300000Y-134440000D03*
X153300000Y-135840000D03*
X154700000Y-133040000D03*
X154700000Y-134440000D03*
X154700000Y-135840000D03*
X154700000Y-135840000D03*
X156100000Y-133040000D03*
X156100000Y-134440000D03*
X156100000Y-135840000D03*
%TD*%
D66*
%TO.C,R43*%
X109900000Y-141690000D03*
X109900000Y-142710000D03*
%TD*%
D64*
%TO.C,C64*%
X104275000Y-114550000D03*
X102725000Y-114550000D03*
%TD*%
D66*
%TO.C,R30*%
X188500000Y-71190000D03*
X188500000Y-72210000D03*
%TD*%
D55*
%TO.C,C18*%
X180000000Y-98850000D03*
X185600000Y-98850000D03*
%TD*%
D109*
%TO.C,L1*%
X126475000Y-112200000D03*
X119425000Y-112200000D03*
%TD*%
D57*
%TO.C,Q3*%
X157430000Y-55500000D03*
D110*
X140770000Y-52960000D03*
D111*
X140770000Y-55500000D03*
X140770000Y-58040000D03*
%TD*%
D112*
%TO.C,J7*%
X157891000Y-85248000D03*
D113*
X157891000Y-82748000D03*
%TD*%
D60*
%TO.C,R22*%
X178110000Y-57500000D03*
X177090000Y-57500000D03*
%TD*%
D114*
%TO.C,R52*%
X102900000Y-104700000D03*
X104900000Y-104700000D03*
%TD*%
D54*
%TO.C,C34*%
X137220000Y-80400000D03*
X138180000Y-80400000D03*
%TD*%
D60*
%TO.C,R37*%
X172660000Y-108500000D03*
X171640000Y-108500000D03*
%TD*%
D115*
%TO.C,U5*%
X138275000Y-82425000D03*
X138275000Y-82925000D03*
X138275000Y-83425000D03*
X138275000Y-83925000D03*
X138275000Y-84425000D03*
X138275000Y-84925000D03*
X138275000Y-85425000D03*
X138275000Y-85925000D03*
X138275000Y-86425000D03*
X138275000Y-86925000D03*
X138275000Y-87425000D03*
X138275000Y-87925000D03*
X138275000Y-88425000D03*
X138275000Y-88925000D03*
X138275000Y-89425000D03*
X138275000Y-89925000D03*
D116*
X136350000Y-91850000D03*
X135850000Y-91850000D03*
X135350000Y-91850000D03*
X134850000Y-91850000D03*
X134350000Y-91850000D03*
X133850000Y-91850000D03*
X133350000Y-91850000D03*
X132850000Y-91850000D03*
X132350000Y-91850000D03*
X131850000Y-91850000D03*
X131350000Y-91850000D03*
X130850000Y-91850000D03*
X130350000Y-91850000D03*
X129850000Y-91850000D03*
X129350000Y-91850000D03*
X128850000Y-91850000D03*
D115*
X126925000Y-89925000D03*
X126925000Y-89425000D03*
X126925000Y-88925000D03*
X126925000Y-88425000D03*
X126925000Y-87925000D03*
X126925000Y-87425000D03*
X126925000Y-86925000D03*
X126925000Y-86425000D03*
X126925000Y-85925000D03*
X126925000Y-85425000D03*
X126925000Y-84925000D03*
X126925000Y-84425000D03*
X126925000Y-83925000D03*
X126925000Y-83425000D03*
X126925000Y-82925000D03*
X126925000Y-82425000D03*
D116*
X128850000Y-80500000D03*
X129350000Y-80500000D03*
X129850000Y-80500000D03*
X130350000Y-80500000D03*
X130850000Y-80500000D03*
X131350000Y-80500000D03*
X131850000Y-80500000D03*
X132350000Y-80500000D03*
X132850000Y-80500000D03*
X133350000Y-80500000D03*
X133850000Y-80500000D03*
X134350000Y-80500000D03*
X134850000Y-80500000D03*
X135350000Y-80500000D03*
X135850000Y-80500000D03*
X136350000Y-80500000D03*
%TD*%
D14*
%TO.C,J3*%
X190975000Y-93000000D03*
X196975000Y-93000000D03*
D81*
X194575000Y-89500000D03*
X197275000Y-96500000D03*
X198275000Y-89500000D03*
X190275000Y-96500000D03*
X188575000Y-89500000D03*
%TD*%
D73*
%TO.C,R40*%
X167790000Y-136900000D03*
X168810000Y-136900000D03*
%TD*%
D117*
%TO.C,U16*%
X102595000Y-107625000D03*
X103865000Y-107625000D03*
X105135000Y-107625000D03*
X106405000Y-107625000D03*
X106405000Y-112575000D03*
X105135000Y-112575000D03*
X103865000Y-112575000D03*
X102595000Y-112575000D03*
%TD*%
D54*
%TO.C,C37*%
X130545000Y-94275000D03*
X131505000Y-94275000D03*
%TD*%
D118*
%TO.C,BT1*%
X122345000Y-127600000D03*
X177955000Y-127600000D03*
D119*
X113700000Y-127600000D03*
D120*
X185700000Y-127600000D03*
%TD*%
D60*
%TO.C,R8*%
X186010000Y-131900000D03*
X184990000Y-131900000D03*
%TD*%
D54*
%TO.C,C61*%
X121840000Y-82300000D03*
X122800000Y-82300000D03*
%TD*%
D60*
%TO.C,R12*%
X133510000Y-56600000D03*
X132490000Y-56600000D03*
%TD*%
D72*
%TO.C,C62*%
X172850000Y-88950000D03*
X172850000Y-91650000D03*
%TD*%
D54*
%TO.C,C58*%
X126820000Y-101200000D03*
X127780000Y-101200000D03*
%TD*%
D73*
%TO.C,R53*%
X172590000Y-76500000D03*
X173610000Y-76500000D03*
%TD*%
D66*
%TO.C,R61*%
X135100000Y-126630000D03*
X135100000Y-127650000D03*
%TD*%
D65*
%TO.C,C5*%
X178850000Y-147020000D03*
X178850000Y-147980000D03*
%TD*%
%TO.C,C9*%
X110600000Y-101420000D03*
X110600000Y-102380000D03*
%TD*%
D73*
%TO.C,R25*%
X187690000Y-118800000D03*
X188710000Y-118800000D03*
%TD*%
D54*
%TO.C,C21*%
X175770000Y-96350000D03*
X176730000Y-96350000D03*
%TD*%
D60*
%TO.C,R4*%
X129110000Y-117700000D03*
X128090000Y-117700000D03*
%TD*%
D121*
%TO.C,Q5*%
X163250000Y-83637500D03*
X161350000Y-83637500D03*
X162300000Y-81762500D03*
%TD*%
D73*
%TO.C,R19*%
X109190000Y-126800000D03*
X110210000Y-126800000D03*
%TD*%
D54*
%TO.C,C41*%
X126140000Y-64100000D03*
X127100000Y-64100000D03*
%TD*%
D75*
%TO.C,C7*%
X121900000Y-119625000D03*
X121900000Y-121175000D03*
%TD*%
D66*
%TO.C,R21*%
X189400000Y-147580000D03*
X189400000Y-148600000D03*
%TD*%
D60*
%TO.C,R67*%
X172660000Y-109475000D03*
X171640000Y-109475000D03*
%TD*%
D122*
%TO.C,U11*%
X128850000Y-69200000D03*
X128850000Y-66900000D03*
D123*
X135150000Y-66900000D03*
D122*
X128850000Y-64600000D03*
%TD*%
D124*
%TO.C,R11*%
X172475000Y-86410000D03*
X172475000Y-85390000D03*
%TD*%
D76*
%TO.C,C63*%
X111600000Y-82375000D03*
X111600000Y-80825000D03*
%TD*%
D125*
%TO.C,D2*%
X183750000Y-131900000D03*
X181850000Y-131900000D03*
X182800000Y-128900000D03*
%TD*%
D60*
%TO.C,R26*%
X170235000Y-93650000D03*
X169215000Y-93650000D03*
%TD*%
%TO.C,R51*%
X111610000Y-100500000D03*
X110590000Y-100500000D03*
%TD*%
D126*
%TO.C,U14*%
X128825000Y-102850000D03*
X129475000Y-102850000D03*
X130125000Y-102850000D03*
X130775000Y-102850000D03*
X130775000Y-101250000D03*
X130125000Y-101250000D03*
X129475000Y-101250000D03*
X128825000Y-101250000D03*
%TD*%
D77*
%TO.C,C33*%
X126800000Y-81580000D03*
X126800000Y-80620000D03*
%TD*%
D127*
%TO.C,K1*%
X181700000Y-78500000D03*
X184900000Y-78500000D03*
X187100000Y-78500000D03*
X189300000Y-78500000D03*
X189300000Y-85500000D03*
X187100000Y-85500000D03*
X184900000Y-85500000D03*
X181700000Y-85500000D03*
%TD*%
D60*
%TO.C,R48*%
X123710000Y-55600000D03*
X122690000Y-55600000D03*
%TD*%
D77*
%TO.C,C2*%
X145900000Y-140130000D03*
X145900000Y-139170000D03*
%TD*%
D128*
%TO.C,U3*%
X114677500Y-90725000D03*
X114677500Y-90075000D03*
X114677500Y-89425000D03*
X114677500Y-88775000D03*
X114677500Y-88125000D03*
X114677500Y-87475000D03*
X114677500Y-86825000D03*
X114677500Y-86175000D03*
X114677500Y-85525000D03*
X114677500Y-84875000D03*
X114677500Y-84225000D03*
X114677500Y-83575000D03*
X114677500Y-82925000D03*
X114677500Y-82275000D03*
X120402500Y-82275000D03*
X120402500Y-82925000D03*
X120402500Y-83575000D03*
X120402500Y-84225000D03*
X120402500Y-84875000D03*
X120402500Y-85525000D03*
X120402500Y-86175000D03*
X120402500Y-86825000D03*
X120402500Y-87475000D03*
X120402500Y-88125000D03*
X120402500Y-88775000D03*
X120402500Y-89425000D03*
X120402500Y-90075000D03*
X120402500Y-90725000D03*
D129*
X117540000Y-86500000D03*
%TD*%
D60*
%TO.C,R1*%
X183410000Y-148950000D03*
X182390000Y-148950000D03*
%TD*%
D65*
%TO.C,C81*%
X124300000Y-56820000D03*
X124300000Y-57780000D03*
%TD*%
D130*
%TO.C,U17*%
X158520000Y-62830000D03*
D131*
X156450000Y-64100000D03*
X158520000Y-65370000D03*
%TD*%
D132*
%TO.C,R20*%
X188500000Y-134750000D03*
X188500000Y-131650000D03*
%TD*%
D77*
%TO.C,C3*%
X187800000Y-138980000D03*
X187800000Y-138020000D03*
%TD*%
D60*
%TO.C,R34*%
X119660000Y-76050000D03*
X118640000Y-76050000D03*
%TD*%
D86*
%TO.C,J5*%
X106400000Y-131490000D03*
X106400000Y-125710000D03*
D87*
X107650000Y-131800000D03*
X107600000Y-131000000D03*
D88*
X107600000Y-129850000D03*
X107600000Y-128850000D03*
X107600000Y-128350000D03*
X107600000Y-127350000D03*
D87*
X107600000Y-126200000D03*
X107650000Y-125400000D03*
X107650000Y-125400000D03*
X107600000Y-126200000D03*
D88*
X107600000Y-126850000D03*
X107600000Y-127850000D03*
X107600000Y-129350000D03*
X107600000Y-130350000D03*
D87*
X107600000Y-131000000D03*
X107650000Y-131800000D03*
D89*
X102700000Y-133420000D03*
D90*
X106880000Y-133420000D03*
D89*
X102700000Y-123780000D03*
D90*
X106880000Y-123780000D03*
%TD*%
D54*
%TO.C,C55*%
X119270000Y-133350000D03*
X120230000Y-133350000D03*
%TD*%
D60*
%TO.C,R64*%
X111910000Y-103800000D03*
X110890000Y-103800000D03*
%TD*%
%TO.C,R41*%
X168810000Y-137850000D03*
X167790000Y-137850000D03*
%TD*%
D121*
%TO.C,Q2*%
X189850000Y-68037500D03*
X187950000Y-68037500D03*
X188900000Y-66162500D03*
%TD*%
D133*
%TO.C,R23*%
X184100000Y-118825000D03*
X184100000Y-116775000D03*
%TD*%
D60*
%TO.C,R36*%
X174660000Y-108500000D03*
X173640000Y-108500000D03*
%TD*%
D77*
%TO.C,C38*%
X113200000Y-91580000D03*
X113200000Y-90620000D03*
%TD*%
D66*
%TO.C,R57*%
X138400000Y-126580000D03*
X138400000Y-127600000D03*
%TD*%
D53*
%TO.C,C44*%
X127080000Y-67400000D03*
X126120000Y-67400000D03*
%TD*%
D66*
%TO.C,R42*%
X184500000Y-121840000D03*
X184500000Y-122860000D03*
%TD*%
D124*
%TO.C,R2*%
X178850000Y-146110000D03*
X178850000Y-145090000D03*
%TD*%
D73*
%TO.C,R14*%
X108690000Y-100500000D03*
X109710000Y-100500000D03*
%TD*%
D134*
%TO.C,JP1*%
X181900000Y-118450000D03*
X181900000Y-117150000D03*
%TD*%
D64*
%TO.C,C79*%
X122275000Y-62600000D03*
X120725000Y-62600000D03*
%TD*%
D66*
%TO.C,R56*%
X136200000Y-126580000D03*
X136200000Y-127600000D03*
%TD*%
D135*
%TO.C,Q1*%
X136837500Y-55850000D03*
X136837500Y-57750000D03*
X134962500Y-56800000D03*
%TD*%
D53*
%TO.C,C42*%
X127100000Y-65100000D03*
X126140000Y-65100000D03*
%TD*%
%TO.C,C40*%
X170480000Y-118600000D03*
X169520000Y-118600000D03*
%TD*%
%TO.C,C8*%
X109180000Y-92900000D03*
X108220000Y-92900000D03*
%TD*%
%TO.C,C82*%
X115580000Y-56825000D03*
X114620000Y-56825000D03*
%TD*%
D136*
%TO.C,U24*%
X111700000Y-73837500D03*
X110750000Y-73837500D03*
X109800000Y-73837500D03*
X109800000Y-71562500D03*
X110750000Y-71562500D03*
X111700000Y-71562500D03*
%TD*%
D60*
%TO.C,R29*%
X173535000Y-84450000D03*
X172515000Y-84450000D03*
%TD*%
D98*
%TO.C,R13*%
X138300000Y-54262500D03*
X138300000Y-51337500D03*
%TD*%
D53*
%TO.C,C13*%
X168280000Y-95900000D03*
X167320000Y-95900000D03*
%TD*%
D73*
%TO.C,R16*%
X108190000Y-93900000D03*
X109210000Y-93900000D03*
%TD*%
D51*
%TO.C,R70*%
X166660624Y-90739376D03*
X165939376Y-91460624D03*
%TD*%
D56*
%TO.C,R47*%
X136875000Y-117200000D03*
X138525000Y-117200000D03*
%TD*%
D60*
%TO.C,R6*%
X184010000Y-76200000D03*
X182990000Y-76200000D03*
%TD*%
D65*
%TO.C,C11*%
X179800000Y-145120000D03*
X179800000Y-146080000D03*
%TD*%
D137*
%TO.C,U2*%
X134775000Y-112595000D03*
X134775000Y-113865000D03*
X134775000Y-115135000D03*
X134775000Y-116405000D03*
X129825000Y-116405000D03*
X129825000Y-115135000D03*
X129825000Y-113865000D03*
X129825000Y-112595000D03*
D138*
X132300000Y-114500000D03*
%TD*%
D124*
%TO.C,R17*%
X110200000Y-94510000D03*
X110200000Y-93490000D03*
%TD*%
D60*
%TO.C,R66*%
X170510000Y-119600000D03*
X169490000Y-119600000D03*
%TD*%
D124*
%TO.C,R44*%
X120700000Y-137610000D03*
X120700000Y-136590000D03*
%TD*%
D73*
%TO.C,R9*%
X117690000Y-142400000D03*
X118710000Y-142400000D03*
%TD*%
D65*
%TO.C,C46*%
X138375000Y-90820000D03*
X138375000Y-91780000D03*
%TD*%
D66*
%TO.C,R50*%
X108400000Y-107690000D03*
X108400000Y-108710000D03*
%TD*%
D73*
%TO.C,R31*%
X188390000Y-70000000D03*
X189410000Y-70000000D03*
%TD*%
D75*
%TO.C,C6*%
X145600000Y-141375000D03*
X145600000Y-142925000D03*
%TD*%
D139*
%TO.C,R46*%
X187950000Y-141575000D03*
X184850000Y-141575000D03*
%TD*%
D140*
%TO.C,FB2*%
X129412500Y-93650000D03*
X127837500Y-93650000D03*
%TD*%
D101*
%TO.C,U7*%
X181600000Y-147505000D03*
X181600000Y-146235000D03*
X181600000Y-144965000D03*
X181600000Y-143695000D03*
X187600000Y-143695000D03*
X187600000Y-144965000D03*
X187600000Y-146235000D03*
X187600000Y-147505000D03*
%TD*%
D78*
%TO.C,C4*%
X136925000Y-115700000D03*
X138475000Y-115700000D03*
%TD*%
D73*
%TO.C,R27*%
X191790000Y-119300000D03*
X192810000Y-119300000D03*
%TD*%
D77*
%TO.C,C51*%
X113200000Y-89755000D03*
X113200000Y-88795000D03*
%TD*%
D66*
%TO.C,R5*%
X187800000Y-136090000D03*
X187800000Y-137110000D03*
%TD*%
D77*
%TO.C,C57*%
X117600000Y-148980000D03*
X117600000Y-148020000D03*
%TD*%
%LPD*%
M02*
