M48
; DRILL file {KiCad 8.0.3} date 2024-08-25T19:37:56+0200
; FORMAT={-:-/ absolute / inch / decimal}
; #@! TF.CreationDate,2024-08-25T19:37:56+02:00
; #@! TF.GenerationSoftware,Kicad,Pcbnew,8.0.3
; #@! TF.FileFunction,Plated,1,2,PTH
FMAT,2
INCH
; #@! TA.AperFunction,Plated,PTH,ViaDrill
T1C0.0118
; #@! TA.AperFunction,Plated,PTH,ComponentDrill
T2C0.0118
; #@! TA.AperFunction,Plated,PTH,ViaDrill
T3C0.0157
; #@! TA.AperFunction,Plated,PTH,ViaDrill
T4C0.0197
; #@! TA.AperFunction,Plated,PTH,ComponentDrill
T5C0.0197
; #@! TA.AperFunction,Plated,PTH,ComponentDrill
T6C0.0236
; #@! TA.AperFunction,Plated,PTH,ComponentDrill
T7C0.0256
; #@! TA.AperFunction,Plated,PTH,ComponentDrill
T8C0.0276
; #@! TA.AperFunction,Plated,PTH,ComponentDrill
T9C0.0295
; #@! TA.AperFunction,Plated,PTH,ComponentDrill
T10C0.0315
; #@! TA.AperFunction,Plated,PTH,ComponentDrill
T11C0.0354
; #@! TA.AperFunction,Plated,PTH,ComponentDrill
T12C0.0394
; #@! TA.AperFunction,Plated,PTH,ComponentDrill
T13C0.0433
; #@! TA.AperFunction,Plated,PTH,ComponentDrill
T14C0.0472
; #@! TA.AperFunction,Plated,PTH,ComponentDrill
T15C0.0512
; #@! TA.AperFunction,Plated,PTH,ComponentDrill
T16C0.0591
; #@! TA.AperFunction,Plated,PTH,ComponentDrill
T17C0.0630
; #@! TA.AperFunction,Plated,PTH,ComponentDrill
T18C0.0787
%
G90
G05
T1
X4.0Y-5.4291
X4.0Y-5.6299
X4.0098Y-4.7357
X4.0197Y-2.315
X4.0197Y-5.8425
X4.0236Y-5.5472
X4.0246Y-4.7037
X4.0276Y-5.0197
X4.0315Y-5.1654
X4.0354Y-2.1575
X4.0374Y-4.3839
X4.0394Y-2.5079
X4.0394Y-3.8504
X4.0453Y-4.3209
X4.0472Y-4.0354
X4.0472Y-4.6799
X4.0492Y-3.2657
X4.0551Y-3.4134
X4.0571Y-3.313
X4.0591Y-3.6535
X4.0709Y-3.5079
X4.0709Y-4.3622
X4.0787Y-5.5669
X4.0827Y-5.626
X4.0866Y-2.0748
X4.1024Y-5.3799
X4.1063Y-5.7756
X4.1083Y-4.7894
X4.1181Y-2.7382
X4.1181Y-2.9173
X4.1181Y-4.2992
X4.1181Y-5.3071
X4.126Y-5.1457
X4.1299Y-3.4528
X4.1299Y-4.3661
X4.1299Y-4.9291
X4.1299Y-5.8307
X4.1339Y-3.7835
X4.1378Y-4.5108
X4.1476Y-4.8051
X4.1496Y-3.8976
X4.1535Y-3.2835
X4.1535Y-3.5984
X4.1535Y-4.6024
X4.1535Y-5.063
X4.1575Y-5.4134
X4.1634Y-3.3307
X4.1693Y-3.1339
X4.1693Y-4.1772
X4.1693Y-5.7087
X4.1732Y-4.7116
X4.185Y-4.3228
X4.187Y-4.6772
X4.188Y-3.2264
X4.1925Y-4.7357
X4.2047Y-4.1102
X4.2205Y-2.4094
X4.2283Y-3.9803
X4.2382Y-4.2461
X4.248Y-5.3268
X4.252Y-5.6024
X4.2717Y-4.437
X4.2835Y-4.5768
X4.2913Y-5.8701
X4.294Y-2.6759
X4.3051Y-4.8878
X4.311Y-3.3661
X4.313Y-4.8386
X4.315Y-4.5925
X4.3248Y-3.1949
X4.3268Y-3.8937
X4.3307Y-4.7047
X4.3346Y-2.2559
X4.3346Y-2.7087
X4.3346Y-4.2126
X4.3386Y-2.3268
X4.3386Y-3.122
X4.3386Y-3.7402
X4.3425Y-2.6417
X4.3425Y-4.9528
X4.3465Y-2.4016
X4.3583Y-2.9409
X4.3583Y-3.6339
X4.3612Y-2.7854
X4.3701Y-2.7205
X4.374Y-2.6614
X4.3858Y-3.5472
X4.3937Y-3.937
X4.4045Y-4.0561
X4.4094Y-3.5945
X4.4173Y-2.5669
X4.4173Y-2.622
X4.4213Y-4.0157
X4.4297Y-2.9384
X4.4311Y-4.8209
X4.4331Y-4.2638
X4.437Y-5.2874
X4.4409Y-4.8602
X4.4469Y-3.0551
X4.4488Y-2.0079
X4.4587Y-4.3071
X4.4602Y-2.884
X4.4606Y-5.1378
X4.4636Y-3.0856
X4.4661Y-3.3406
X4.4724Y-5.622
X4.4803Y-2.7835
X4.4961Y-4.2303
X4.5315Y-3.1535
X4.5719Y-2.2667
X4.5886Y-4.2854
X4.5945Y-4.7047
X4.5987Y-5.2948
X4.6004Y-3.0
X4.6024Y-2.0236
X4.6063Y-4.0394
X4.6083Y-4.7579
X4.6102Y-5.7953
X4.6142Y-5.7559
X4.6289Y-3.0266
X4.6299Y-5.8858
X4.6329Y-5.5846
X4.6339Y-5.0472
X4.6457Y-3.9843
X4.6496Y-4.8386
X4.6496Y-5.5295
X4.6535Y-2.0748
X4.6535Y-4.6929
X4.6604Y-5.2185
X4.6654Y-4.2106
X4.6693Y-4.5984
X4.6722Y-2.9754
X4.6732Y-4.5472
X4.6772Y-3.6969
X4.6781Y-5.2362
X4.689Y-5.5069
X4.6896Y-5.46
X4.6959Y-5.2185
X4.7028Y-3.5709
X4.7047Y-4.1024
X4.7205Y-3.0669
X4.7205Y-5.4882
X4.7205Y-5.5551
X4.7205Y-5.5866
X4.7323Y-3.9528
X4.7362Y-4.8031
X4.7441Y-4.8543
X4.7677Y-4.1063
X4.7756Y-4.1969
X4.7835Y-2.4213
X4.7835Y-5.622
X4.7835Y-3.565
X4.7913Y-3.3681
X4.7913Y-5.7559
X4.7953Y-2.6181
X4.7953Y-2.6496
X4.7953Y-5.5551
X4.7953Y-5.8268
X4.7953Y-5.8819
X4.7992Y-4.8031
X4.8031Y-2.4016
X4.81Y-5.2047
X4.813Y-3.3425
X4.8189Y-2.0236
X4.8189Y-4.8425
X4.8228Y-2.4213
X4.8268Y-3.9685
X4.8307Y-2.6181
X4.8307Y-2.6496
X4.8425Y-5.2913
X4.8465Y-4.7402
X4.8659Y-3.2669
X4.8738Y-3.3614
X4.8819Y-2.0866
X4.8858Y-3.9882
X4.8937Y-2.2913
X4.8976Y-5.1654
X4.9331Y-4.6772
X4.9331Y-5.7756
X4.9449Y-3.9449
X4.9488Y-4.8346
X4.9567Y-5.0315
X4.9596Y-3.1703
X4.9843Y-2.874
X4.9961Y-2.7756
X5.0039Y-5.8425
X5.0236Y-4.6339
X5.0276Y-2.8386
X5.0315Y-5.2559
X5.0325Y-3.1663
X5.0335Y-3.2096
X5.0345Y-3.2402
X5.0455Y-3.3718
X5.0472Y-3.2992
X5.0526Y-3.2654
X5.0551Y-5.3268
X5.0591Y-3.6161
X5.0591Y-4.1102
X5.0591Y-5.622
X5.062Y-3.4262
X5.0669Y-3.4774
X5.0709Y-4.2874
X5.0864Y-3.5509
X5.0906Y-2.8386
X5.0945Y-4.0748
X5.1063Y-4.8858
X5.1063Y-5.1063
X5.1102Y-4.8071
X5.1161Y-3.4026
X5.1181Y-4.1299
X5.122Y-2.0394
X5.127Y-3.4843
X5.1417Y-3.2372
X5.1457Y-2.2638
X5.1575Y-4.2421
X5.1575Y-4.937
X5.1575Y-5.4961
X5.1713Y-3.5669
X5.1732Y-3.3829
X5.1811Y-3.435
X5.2008Y-2.2283
X5.2008Y-2.8504
X5.2008Y-4.5984
X5.2106Y-4.2421
X5.2205Y-5.2559
X5.2254Y-3.3268
X5.2274Y-3.5108
X5.2283Y-4.0472
X5.2283Y-4.8189
X5.2283Y-4.937
X5.2323Y-4.4055
X5.2336Y-3.0972
X5.2402Y-2.8711
X5.2451Y-3.5571
X5.249Y-3.3593
X5.2559Y-4.0945
X5.2562Y-3.1203
X5.2598Y-2.063
X5.2697Y-4.2421
X5.2746Y-3.5148
X5.2874Y-3.2953
X5.3053Y-3.2281
X5.3248Y-4.2421
X5.3465Y-2.8386
X5.3504Y-4.4961
X5.3514Y-4.5394
X5.3514Y-4.5866
X5.3622Y-4.9602
X5.3711Y-3.1174
X5.3753Y-3.4731
X5.378Y-3.8583
X5.378Y-4.252
X5.3819Y-3.1654
X5.3819Y-3.4026
X5.3819Y-3.44
X5.3819Y-4.8268
X5.3829Y-3.3671
X5.3858Y-3.7559
X5.3858Y-4.0039
X5.3937Y-5.5354
X5.4034Y-3.2445
X5.4055Y-4.9504
X5.4134Y-4.3858
X5.4252Y-4.6732
X5.4252Y-5.1417
X5.4301Y-3.6142
X5.437Y-2.8937
X5.4409Y-4.5039
X5.4488Y-4.9602
X5.4606Y-4.437
X5.4678Y-3.1486
X5.4843Y-4.0748
X5.4882Y-3.9646
X5.4921Y-4.374
X5.4947Y-3.3652
X5.4947Y-3.4965
X5.5039Y-4.2953
X5.5118Y-3.1299
X5.5118Y-5.563
X5.5157Y-3.7874
X5.5276Y-4.8071
X5.5315Y-3.1732
X5.5354Y-4.9484
X5.5433Y-4.4882
X5.5472Y-4.3307
X5.5512Y-3.6772
X5.56Y-3.2441
X5.5669Y-5.2677
X5.5866Y-3.8268
X5.6063Y-5.0
X5.6142Y-5.1417
X5.626Y-4.6555
X5.6299Y-3.3495
X5.6378Y-4.5236
X5.6398Y-4.8386
X5.6457Y-3.126
X5.6526Y-3.5787
X5.6693Y-5.0
X5.6693Y-5.0551
X5.6772Y-3.7638
X5.689Y-4.2874
X5.7185Y-5.5315
X5.7283Y-2.0079
X5.7402Y-3.6811
X5.7677Y-4.5315
X5.7677Y-4.6693
X5.7677Y-4.815
X5.8268Y-3.6772
X5.8425Y-5.0965
X5.8425Y-5.1476
X5.8429Y-5.0472
X5.8504Y-3.7598
X5.8543Y-4.3268
X5.8583Y-4.5315
X5.8976Y-4.7598
X5.9055Y-4.5787
X5.9055Y-5.1102
X5.9291Y-5.6142
X5.9331Y-5.437
X5.937Y-5.0039
X5.937Y-5.252
X5.937Y-5.4961
X5.9449Y-3.7402
X5.9567Y-3.5778
X5.9724Y-4.7283
X5.9843Y-4.622
X6.0Y-3.7953
X6.0Y-4.5236
X6.0039Y-2.0886
X6.0118Y-4.3268
X6.0315Y-5.0
X6.0472Y-3.7008
X6.0512Y-4.8425
X6.063Y-2.0197
X6.0748Y-3.5906
X6.0906Y-2.2008
X6.0984Y-4.8268
X6.1024Y-3.6732
X6.1102Y-5.622
X6.1112Y-4.6033
X6.1299Y-5.5039
X6.1417Y-2.1063
X6.1417Y-5.4094
X6.1442Y-4.9458
X6.1457Y-3.811
X6.1457Y-4.311
X6.1535Y-4.5157
X6.1789Y-4.9463
X6.1821Y-4.8366
X6.1929Y-5.1575
X6.1969Y-2.0079
X6.1969Y-3.7559
X6.2018Y-4.7731
X6.2087Y-5.0472
X6.2126Y-4.811
X6.2165Y-2.2756
X6.2369Y-4.5263
X6.248Y-5.4016
X6.2549Y-5.5817
X6.2559Y-5.5394
X6.2598Y-5.6299
X6.2638Y-2.9646
X6.2638Y-4.7677
X6.2638Y-4.8386
X6.2687Y-4.2597
X6.2717Y-2.1004
X6.2756Y-2.7559
X6.2844Y-4.315
X6.2913Y-2.3583
X6.3002Y-4.3411
X6.3051Y-5.311
X6.3159Y-4.4341
X6.3189Y-4.8268
X6.3228Y-4.7402
X6.3307Y-5.5492
X6.3386Y-5.1457
X6.3504Y-3.5423
X6.3543Y-5.0197
X6.3577Y-4.6783
X6.3661Y-2.8307
X6.3858Y-5.4665
X6.3898Y-4.6255
X6.3907Y-2.9636
X6.3996Y-5.2953
X6.4002Y-4.7208
X6.4075Y-5.6339
X6.4331Y-2.6417
X6.437Y-3.4596
X6.4409Y-2.8819
X6.4426Y-4.6783
X6.4449Y-5.3918
X6.4456Y-3.1498
X6.4557Y-4.0588
X6.4567Y-2.9764
X6.4581Y-3.0817
X6.4646Y-2.3189
X6.4736Y-3.1376
X6.4749Y-3.1071
X6.4764Y-3.8976
X6.4764Y-4.0039
X6.4833Y-3.2992
X6.4843Y-3.752
X6.4862Y-3.4026
X6.4882Y-3.7028
X6.5118Y-3.6693
X6.5335Y-5.6024
X6.5472Y-3.8386
X6.5512Y-3.8898
X6.5512Y-3.9685
X6.5512Y-5.1417
X6.5531Y-5.5472
X6.555Y-4.9108
X6.5709Y-3.7756
X6.5709Y-3.813
X6.5709Y-5.6024
X6.5737Y-3.558
X6.5748Y-4.1417
X6.5827Y-4.2008
X6.5876Y-5.3888
X6.5886Y-5.5394
X6.5906Y-2.3465
X6.5906Y-2.7579
X6.5965Y-3.935
X6.5984Y-3.6654
X6.6063Y-4.874
X6.6072Y-3.8406
X6.6142Y-2.5709
X6.6142Y-4.5984
X6.6181Y-4.1614
X6.628Y-3.6988
X6.6299Y-4.7402
X6.6368Y-4.3937
X6.6457Y-3.0935
X6.6457Y-5.8622
X6.6476Y-2.75
X6.6496Y-3.5276
X6.6496Y-4.2008
X6.6535Y-4.1063
X6.6575Y-4.1575
X6.6614Y-3.1972
X6.6614Y-2.9764
X6.6614Y-5.4429
X6.6654Y-5.2283
X6.6693Y-5.0039
X6.6732Y-2.5315
X6.6811Y-5.0866
X6.685Y-2.0394
X6.685Y-3.0591
X6.6929Y-2.8858
X6.6929Y-3.1614
X6.6929Y-3.48
X6.7047Y-4.3976
X6.7087Y-3.2677
X6.7087Y-3.3622
X6.7323Y-2.5157
X6.7323Y-4.5197
X6.747Y-3.9615
X6.7559Y-3.5236
X6.7575Y-4.3287
X6.7638Y-2.6063
X6.7657Y-5.7264
X6.7677Y-4.1496
X6.7707Y-3.3238
X6.7874Y-5.0591
X6.7913Y-2.7874
X6.7913Y-3.2638
X6.7943Y-3.9616
X6.7992Y-3.4528
X6.8071Y-4.4291
X6.8071Y-5.8701
X6.8091Y-5.5551
X6.811Y-4.9528
X6.815Y-5.4213
X6.8189Y-5.2126
X6.8228Y-4.6693
X6.8257Y-3.96
X6.8283Y-4.3028
X6.8346Y-4.811
X6.8425Y-3.2874
X6.8425Y-3.3661
X6.8543Y-2.5906
X6.8543Y-3.0591
X6.8543Y-3.4961
X6.8583Y-2.8701
X6.8583Y-4.563
X6.891Y-3.7756
X6.9134Y-2.1772
X6.9134Y-5.0984
X6.9173Y-2.9055
X6.937Y-5.1929
X6.9449Y-2.5551
X6.9449Y-4.4409
X6.9488Y-3.4843
X6.9488Y-4.5984
X6.9528Y-3.3543
X6.9567Y-2.0709
X6.9587Y-3.7559
X6.9685Y-4.248
X6.9724Y-4.3386
X6.9724Y-5.6831
X6.9764Y-3.5709
X6.9803Y-3.6122
X6.9813Y-5.4705
X6.9843Y-3.815
X6.9862Y-3.9567
X6.9882Y-2.9921
X6.9941Y-2.4134
X6.9955Y-3.7844
X6.9961Y-3.752
X7.0138Y-5.4734
X7.0157Y-2.7874
X7.0157Y-4.7008
X7.0157Y-4.8346
X7.0197Y-4.0728
X7.0197Y-5.876
X7.0236Y-3.2717
X7.0256Y-4.1122
X7.0315Y-3.563
X7.0433Y-4.3189
X7.0472Y-3.4961
X7.0512Y-4.2323
X7.0531Y-4.0965
X7.0551Y-4.0354
X7.0591Y-3.1339
X7.0787Y-5.1457
X7.0945Y-3.9843
X7.0984Y-3.0394
X7.0984Y-5.752
X7.1004Y-5.7073
X7.1024Y-4.7283
X7.1142Y-4.4055
X7.1181Y-5.0591
X7.1201Y-3.9528
X7.122Y-4.0827
X7.122Y-4.563
X7.126Y-2.8819
X7.126Y-4.4882
X7.1378Y-2.7677
X7.1437Y-4.2539
X7.1457Y-4.3228
X7.1457Y-4.7835
X7.1496Y-3.2244
X7.1673Y-5.4478
X7.1693Y-3.6496
X7.1732Y-3.7244
X7.1791Y-4.2323
X7.1811Y-5.3898
X7.189Y-4.7165
X7.2008Y-5.7559
X7.2047Y-3.0236
X7.2047Y-3.4843
X7.2205Y-3.4094
X7.2283Y-3.7638
X7.2402Y-5.8642
X7.2441Y-3.2992
X7.248Y-4.7126
X7.2795Y-2.9331
X7.2835Y-4.0945
X7.2835Y-5.4449
X7.2953Y-3.4449
X7.2953Y-4.2894
X7.2953Y-4.4213
X7.2992Y-4.2402
X7.2992Y-5.1299
X7.3031Y-2.1969
X7.3071Y-5.7638
X7.3228Y-2.0354
X7.3248Y-4.5965
X7.3268Y-2.3661
X7.3268Y-3.626
X7.3307Y-3.8307
X7.3386Y-3.1929
X7.3386Y-4.0354
X7.3398Y-5.1941
X7.3425Y-4.1063
X7.3465Y-3.4803
X7.3465Y-4.7283
X7.3543Y-4.2972
X7.3661Y-4.4685
X7.376Y-3.7697
X7.4016Y-5.8819
X7.4036Y-4.6475
X7.4094Y-5.5098
X7.4134Y-3.622
X7.4173Y-3.8031
X7.4232Y-3.6654
X7.4252Y-2.3583
X7.4272Y-3.8346
X7.4409Y-5.4724
X7.4449Y-3.752
X7.4488Y-2.2087
X7.4528Y-4.1457
X7.4567Y-4.0591
X7.4587Y-5.5157
X7.4646Y-4.4685
X7.4646Y-5.622
X7.4685Y-5.0157
X7.4764Y-2.0472
X7.4882Y-3.4685
X7.4882Y-3.622
X7.5Y-3.563
X7.5098Y-3.9213
X7.5354Y-4.4213
X7.5472Y-2.2795
X7.5591Y-4.0157
X7.5591Y-5.7402
X7.563Y-3.8071
X7.563Y-5.311
X7.5669Y-2.1339
X7.5669Y-3.5669
X7.5669Y-4.2402
X7.5925Y-4.4882
X7.6102Y-3.7126
X7.6142Y-3.6339
X7.622Y-4.6102
X7.6417Y-4.2933
X7.6476Y-4.2224
X7.6535Y-3.063
X7.6535Y-5.8819
X7.6594Y-3.7067
X7.6614Y-4.7913
X7.6713Y-4.0669
X7.6732Y-2.0669
X7.6732Y-2.3661
X7.6732Y-3.8386
X7.6772Y-2.5
X7.6772Y-4.6909
X7.6791Y-4.5472
X7.6811Y-2.6024
X7.685Y-4.1457
X7.6929Y-3.7756
X7.7008Y-4.9961
X7.7087Y-2.2008
X7.7087Y-3.6142
X7.7244Y-2.815
X7.7283Y-3.2874
X7.7283Y-3.4724
X7.7402Y-4.8937
X7.752Y-5.4606
X7.7559Y-3.9528
X7.7638Y-2.0276
X7.7657Y-4.0433
X7.7677Y-3.122
X7.7677Y-3.7323
X7.7677Y-3.8661
X7.7677Y-4.2992
X7.7677Y-4.5984
X7.7835Y-2.9409
X7.7874Y-5.6654
X7.8031Y-2.6811
X7.8071Y-3.3661
X7.8071Y-3.4567
X7.8071Y-3.5906
X7.8071Y-3.8898
X7.8071Y-4.0236
X7.8071Y-4.4606
X7.815Y-2.3307
X7.815Y-4.0925
X7.8209Y-4.502
X7.8307Y-2.4528
X7.8307Y-3.6181
X7.8346Y-3.8504
X7.8465Y-4.7087
X7.8465Y-4.8819
X7.8465Y-5.7362
X7.8504Y-4.2126
X7.8504Y-5.1142
X7.8504Y-5.3504
T2
X4.5833Y-3.311
X4.5833Y-3.374
X4.5833Y-3.437
X4.5833Y-3.5
X4.6719Y-3.311
X4.6719Y-3.374
X4.6719Y-3.437
X4.6719Y-3.5
X5.1732Y-4.4724
X5.1732Y-4.5433
X5.2441Y-4.4724
X5.2441Y-4.5433
X6.7254Y-3.7894
X6.7254Y-3.8287
X6.7254Y-3.8681
X6.7648Y-3.7894
X6.7648Y-3.8287
X6.7648Y-3.8681
X6.8041Y-3.7894
X6.8041Y-3.8287
X6.8041Y-3.8681
T3
X4.2795Y-5.1565
X4.2876Y-4.9575
T4
X5.0238Y-2.676
X5.0787Y-2.3031
X5.0787Y-2.3622
X5.0787Y-2.4213
X5.0787Y-2.4803
X5.126Y-2.5236
X5.1378Y-2.5787
X5.1378Y-2.6378
X5.1378Y-2.6969
X5.1378Y-2.7559
X5.1969Y-2.3031
X5.1969Y-2.3622
X5.1969Y-2.4213
X5.1969Y-2.4803
X5.1969Y-2.5787
X5.1969Y-2.6378
X5.1969Y-2.6969
X5.1969Y-2.7559
X5.2559Y-2.3031
X5.2559Y-2.3622
X5.2559Y-2.4213
X5.2953Y-2.7559
X5.3346Y-2.3622
X5.374Y-2.4803
X5.374Y-2.5787
X5.374Y-2.6378
X5.374Y-2.6969
X5.374Y-2.7559
X5.4331Y-2.4213
X5.4331Y-2.4803
X5.4331Y-2.5787
X5.4331Y-2.6378
X5.4331Y-2.6969
X5.4331Y-2.7559
X5.4921Y-2.3622
X5.4921Y-2.4213
X5.4921Y-2.4803
X5.4921Y-2.5787
X5.4921Y-2.6378
X5.4921Y-2.6969
X5.6437Y-3.0295
X6.497Y-2.9872
T5
X7.1831Y-4.5394
X7.2579Y-4.5394
T6
X4.3937Y-2.0394
X4.3937Y-2.1378
X4.3937Y-2.2362
X5.0827Y-4.3661
X5.1811Y-4.3661
X5.2795Y-4.3661
T7
X6.6236Y-5.578
X6.6236Y-5.628
X6.6236Y-5.678
X6.6736Y-5.578
X6.6736Y-5.628
X6.6736Y-5.678
T8
X6.7087Y-3.015
X6.7087Y-3.1031
X6.7709Y-3.1654
X6.8591Y-2.9528
X6.9213Y-3.015
X6.9213Y-3.1031
T9
X6.1752Y-2.5236
X6.2252Y-2.4736
X6.2252Y-2.5736
X7.1594Y-4.8819
X7.2094Y-4.8319
X7.2594Y-4.8819
T10
X4.3795Y-3.4303
X4.4409Y-3.1725
X4.4409Y-3.271
X4.8795Y-3.4303
X6.5273Y-2.0273
X6.5273Y-2.106
X6.5273Y-2.1847
X6.5273Y-2.2635
X6.5273Y-2.3422
X6.5273Y-2.421
X6.5273Y-2.4997
X6.5273Y-2.5784
X6.748Y-3.4016
X6.8819Y-3.4016
X7.0627Y-2.0273
X7.0627Y-2.106
X7.0627Y-2.1847
X7.0627Y-2.2635
X7.0627Y-2.3422
X7.0627Y-2.421
X7.0627Y-2.4997
X7.0627Y-2.5784
X7.1161Y-3.6142
X7.1161Y-3.6929
T11
X6.3992Y-2.0276
X6.3992Y-2.1276
X6.3992Y-2.2276
X6.3992Y-2.3276
X6.3992Y-2.4276
X6.3992Y-2.5276
X6.4913Y-2.689
X6.5913Y-2.689
X6.6913Y-2.689
X6.7913Y-2.689
X6.8913Y-2.689
X6.9913Y-2.689
X7.0913Y-2.689
X7.1992Y-2.0276
X7.1992Y-2.1276
X7.1992Y-2.2276
X7.1992Y-2.3276
X7.1992Y-2.4276
X7.1992Y-2.5276
T12
X4.378Y-4.3543
X4.378Y-4.4543
X4.378Y-4.5543
X4.378Y-4.6543
X4.378Y-4.7543
X4.378Y-4.8543
X4.3937Y-5.1417
X4.3937Y-5.2417
X4.3937Y-5.3417
X4.3937Y-5.4417
X4.3937Y-5.5417
X4.3937Y-5.6417
X4.3937Y-5.7417
X4.3937Y-5.8417
X4.5197Y-4.3543
X4.5197Y-4.4543
X4.5197Y-4.5543
X4.5197Y-4.6543
X4.5197Y-4.7543
X4.5197Y-4.8543
X4.5276Y-3.822
X4.5276Y-3.922
X4.5276Y-4.022
X4.5276Y-4.122
X4.5354Y-5.1449
X4.5354Y-5.2449
X4.5354Y-5.3449
X4.5354Y-5.4449
X4.5354Y-5.5449
X4.5354Y-5.6449
X4.5354Y-5.7449
X4.5354Y-5.8449
X4.753Y-3.6539
X4.753Y-3.7539
X4.7953Y-2.963
X4.7953Y-3.063
X4.853Y-3.6539
X4.853Y-3.7539
X4.8701Y-4.1693
X4.8953Y-2.963
X4.8953Y-3.063
X4.953Y-3.6539
X4.953Y-3.7539
X4.9701Y-4.1693
X4.9953Y-2.963
X4.9953Y-3.063
X5.0701Y-4.1693
X5.0807Y-3.9331
X5.0953Y-2.963
X5.0953Y-3.063
X5.1701Y-4.1693
X5.1807Y-3.9331
X5.1953Y-2.963
X5.1953Y-3.063
X5.2701Y-4.1693
X5.2807Y-3.9331
X5.2953Y-2.963
X5.2953Y-3.063
X5.3701Y-4.1693
X5.3807Y-3.9331
X5.3953Y-2.963
X5.3953Y-3.063
X5.6055Y-4.4094
X5.7055Y-4.4094
X5.7555Y-3.217
X5.7555Y-3.317
X5.7555Y-3.417
X5.8055Y-4.4094
X5.8555Y-3.2164
X5.8555Y-3.3164
X5.8555Y-3.4164
X5.9055Y-4.4094
X5.9555Y-3.217
X5.9555Y-3.317
X5.9555Y-3.417
X6.0055Y-4.4094
X6.0555Y-3.2164
X6.0555Y-3.3164
X6.0555Y-3.4164
X6.1055Y-4.4094
X6.2055Y-4.4094
X6.2162Y-3.2578
X6.2162Y-3.3562
X6.6486Y-2.3602
X6.6486Y-2.4602
X6.7165Y-4.2047
X6.7165Y-4.7756
X6.7486Y-2.3602
X6.7486Y-2.4602
X6.815Y-4.2047
X6.8486Y-2.3602
X6.8486Y-2.4602
X6.9134Y-4.2047
X6.9134Y-4.7756
X6.9486Y-2.3602
X6.9486Y-2.4602
T13
X5.5421Y-2.085
X5.5421Y-2.185
X5.5421Y-2.285
T14
X4.2522Y-2.065
X4.2522Y-2.2028
X4.2522Y-2.3406
X4.2522Y-2.4783
X4.2522Y-3.1555
X4.2522Y-3.2933
X4.2522Y-3.4311
X4.2522Y-3.5689
X4.2522Y-3.7618
X4.2522Y-3.8996
X4.2522Y-4.0374
X4.2522Y-4.1752
X4.2522Y-4.3681
X4.2522Y-4.5059
X4.2522Y-4.6437
X4.2522Y-4.7815
X4.2522Y-5.3957
X4.2522Y-5.5335
X4.2522Y-5.6713
X4.2522Y-5.8091
X7.5589Y-2.4902
X7.5589Y-2.628
X7.5589Y-2.7657
X7.5589Y-2.9035
X7.5589Y-3.0965
X7.5589Y-3.2343
X7.5589Y-3.372
X7.5589Y-3.5098
X7.5591Y-4.7894
X7.5591Y-4.9272
X7.5591Y-5.065
X7.5591Y-5.2028
X7.5591Y-5.3957
X7.5591Y-5.5335
X7.5591Y-5.6713
X7.5591Y-5.8091
T15
X6.7146Y-3.5906
X6.7146Y-4.0827
X6.7165Y-4.8957
X6.7165Y-5.3878
X6.9114Y-3.5906
X6.9114Y-4.0827
X6.9134Y-4.8957
X6.9134Y-5.3878
T17
X4.3425Y-2.5118
X7.4685Y-2.5118
T18
X4.4764Y-5.0236
X7.311Y-5.0236
T6
G00X4.0295Y-2.6587
M15
G01X4.0531Y-2.6587
M16
G05
G00X4.0295Y-2.9988
M15
G01X4.0531Y-2.9988
M16
G05
G00X4.0315Y-4.8929
M15
G01X4.0551Y-4.8929
M16
G05
G00X4.0315Y-5.2331
M15
G01X4.0551Y-5.2331
M16
G05
G00X4.1843Y-2.6587
M15
G01X4.2276Y-2.6587
M16
G05
G00X4.1843Y-2.9988
M15
G01X4.2276Y-2.9988
M16
G05
G00X4.1862Y-4.8929
M15
G01X4.2295Y-4.8929
M16
G05
G00X4.1862Y-5.2331
M15
G01X4.2295Y-5.2331
M16
G05
T12
G00X4.4786Y-2.3504
M15
G01X4.4786Y-2.4291
M16
G05
G00X4.7031Y-2.2717
M15
G01X4.6243Y-2.2717
M16
G05
G00X4.7031Y-2.5079
M15
G01X4.6243Y-2.5079
M16
G05
T16
G00X6.5945Y-4.4744
M15
G01X6.5945Y-4.5256
M16
G05
G00X7.0354Y-4.4744
M15
G01X7.0354Y-4.5256
M16
G05
M30
