%TF.GenerationSoftware,KiCad,Pcbnew,8.0.3*%
%TF.CreationDate,2024-07-08T16:54:39+02:00*%
%TF.ProjectId,labathome_pcb15,6c616261-7468-46f6-9d65-5f7063623135,rev?*%
%TF.SameCoordinates,Original*%
%TF.FileFunction,Paste,Top*%
%TF.FilePolarity,Positive*%
%FSLAX46Y46*%
G04 Gerber Fmt 4.6, Leading zero omitted, Abs format (unit mm)*
G04 Created by KiCad (PCBNEW 8.0.3) date 2024-07-08 16:54:39*
%MOMM*%
%LPD*%
G01*
G04 APERTURE LIST*
G04 Aperture macros list*
%AMRoundRect*
0 Rectangle with rounded corners*
0 $1 Rounding radius*
0 $2 $3 $4 $5 $6 $7 $8 $9 X,Y pos of 4 corners*
0 Add a 4 corners polygon primitive as box body*
4,1,4,$2,$3,$4,$5,$6,$7,$8,$9,$2,$3,0*
0 Add four circle primitives for the rounded corners*
1,1,$1+$1,$2,$3*
1,1,$1+$1,$4,$5*
1,1,$1+$1,$6,$7*
1,1,$1+$1,$8,$9*
0 Add four rect primitives between the rounded corners*
20,1,$1+$1,$2,$3,$4,$5,0*
20,1,$1+$1,$4,$5,$6,$7,0*
20,1,$1+$1,$6,$7,$8,$9,0*
20,1,$1+$1,$8,$9,$2,$3,0*%
G04 Aperture macros list end*
%ADD10R,1.000000X2.000000*%
%ADD11R,2.200000X1.400000*%
%ADD12RoundRect,0.250000X0.450000X-0.325000X0.450000X0.325000X-0.450000X0.325000X-0.450000X-0.325000X0*%
%ADD13RoundRect,0.250000X-0.450000X0.325000X-0.450000X-0.325000X0.450000X-0.325000X0.450000X0.325000X0*%
%ADD14R,2.200000X3.000000*%
%ADD15R,2.200000X2.000000*%
%ADD16RoundRect,0.250000X0.325000X0.450000X-0.325000X0.450000X-0.325000X-0.450000X0.325000X-0.450000X0*%
G04 APERTURE END LIST*
D10*
%TO.C,SW5*%
X123800000Y-122600000D03*
X123800000Y-116000000D03*
X127600000Y-122600000D03*
X127600000Y-116000000D03*
%TD*%
D11*
%TO.C,D15*%
X159100000Y-90050000D03*
X159100000Y-93350000D03*
X164300000Y-93350000D03*
X164300000Y-90050000D03*
%TD*%
D12*
%TO.C,D19*%
X115200000Y-75725000D03*
X115200000Y-73675000D03*
%TD*%
%TO.C,D1*%
X129700000Y-120425000D03*
X129700000Y-118375000D03*
%TD*%
D13*
%TO.C,D6*%
X135700000Y-118375000D03*
X135700000Y-120425000D03*
%TD*%
D11*
%TO.C,D17*%
X143500000Y-90050000D03*
X143500000Y-93350000D03*
X148700000Y-93350000D03*
X148700000Y-90050000D03*
%TD*%
D14*
%TO.C,D8*%
X152500000Y-66900000D03*
D15*
X152500000Y-63850000D03*
%TD*%
D11*
%TO.C,D16*%
X151300000Y-90050000D03*
X151300000Y-93350000D03*
X156500000Y-93350000D03*
X156500000Y-90050000D03*
%TD*%
D14*
%TO.C,D9*%
X152500000Y-74300000D03*
D15*
X152500000Y-71250000D03*
%TD*%
D10*
%TO.C,SW1*%
X180600000Y-148550000D03*
X180600000Y-141950000D03*
X184400000Y-148550000D03*
X184400000Y-141950000D03*
%TD*%
D12*
%TO.C,D5*%
X133700000Y-120425000D03*
X133700000Y-118375000D03*
%TD*%
D13*
%TO.C,D4*%
X131700000Y-118375000D03*
X131700000Y-120425000D03*
%TD*%
D14*
%TO.C,D10*%
X147500000Y-71700000D03*
D15*
X147500000Y-74750000D03*
%TD*%
D11*
%TO.C,D18*%
X135700000Y-90050000D03*
X135700000Y-93350000D03*
X140900000Y-93350000D03*
X140900000Y-90050000D03*
%TD*%
D16*
%TO.C,D14*%
X183125000Y-77700000D03*
X181075000Y-77700000D03*
%TD*%
D14*
%TO.C,D12*%
X147500000Y-56200000D03*
D15*
X147500000Y-59250000D03*
%TD*%
D14*
%TO.C,D11*%
X147500000Y-64300000D03*
D15*
X147500000Y-67350000D03*
%TD*%
D14*
%TO.C,D7*%
X152500000Y-59300000D03*
D15*
X152500000Y-56250000D03*
%TD*%
M02*
