%TF.GenerationSoftware,KiCad,Pcbnew,8.0.5*%
%TF.CreationDate,2024-10-17T22:57:37+02:00*%
%TF.ProjectId,labathome_pcb15,6c616261-7468-46f6-9d65-5f7063623135,rev?*%
%TF.SameCoordinates,Original*%
%TF.FileFunction,Soldermask,Top*%
%TF.FilePolarity,Negative*%
%FSLAX46Y46*%
G04 Gerber Fmt 4.6, Leading zero omitted, Abs format (unit mm)*
G04 Created by KiCad (PCBNEW 8.0.5) date 2024-10-17 22:57:37*
%MOMM*%
%LPD*%
G01*
G04 APERTURE LIST*
G04 Aperture macros list*
%AMRoundRect*
0 Rectangle with rounded corners*
0 $1 Rounding radius*
0 $2 $3 $4 $5 $6 $7 $8 $9 X,Y pos of 4 corners*
0 Add a 4 corners polygon primitive as box body*
4,1,4,$2,$3,$4,$5,$6,$7,$8,$9,$2,$3,0*
0 Add four circle primitives for the rounded corners*
1,1,$1+$1,$2,$3*
1,1,$1+$1,$4,$5*
1,1,$1+$1,$6,$7*
1,1,$1+$1,$8,$9*
0 Add four rect primitives between the rounded corners*
20,1,$1+$1,$2,$3,$4,$5,0*
20,1,$1+$1,$4,$5,$6,$7,0*
20,1,$1+$1,$6,$7,$8,$9,0*
20,1,$1+$1,$8,$9,$2,$3,0*%
%AMHorizOval*
0 Thick line with rounded ends*
0 $1 width*
0 $2 $3 position (X,Y) of the first rounded end (center of the circle)*
0 $4 $5 position (X,Y) of the second rounded end (center of the circle)*
0 Add line between two ends*
20,1,$1,$2,$3,$4,$5,0*
0 Add two circle primitives to create the rounded ends*
1,1,$1,$2,$3*
1,1,$1,$4,$5*%
G04 Aperture macros list end*
%ADD10RoundRect,0.087500X0.087500X1.912500X-0.087500X1.912500X-0.087500X-1.912500X0.087500X-1.912500X0*%
%ADD11R,1.700000X1.700000*%
%ADD12O,1.700000X1.700000*%
%ADD13RoundRect,0.750000X-1.000000X0.750000X-1.000000X-0.750000X1.000000X-0.750000X1.000000X0.750000X0*%
%ADD14RoundRect,0.750000X-1.000000X1.000000X-1.000000X-1.000000X1.000000X-1.000000X1.000000X1.000000X0*%
%ADD15RoundRect,0.875000X-0.875000X0.875000X-0.875000X-0.875000X0.875000X-0.875000X0.875000X0.875000X0*%
%ADD16RoundRect,0.450000X-0.750000X0.450000X-0.750000X-0.450000X0.750000X-0.450000X0.750000X0.450000X0*%
%ADD17RoundRect,0.250000X0.600000X-0.600000X0.600000X0.600000X-0.600000X0.600000X-0.600000X-0.600000X0*%
%ADD18C,1.500000*%
%ADD19R,1.100000X1.800000*%
%ADD20RoundRect,0.275000X-0.275000X-0.625000X0.275000X-0.625000X0.275000X0.625000X-0.275000X0.625000X0*%
%ADD21RoundRect,0.450000X0.750000X-0.450000X0.750000X0.450000X-0.750000X0.450000X-0.750000X-0.450000X0*%
%ADD22RoundRect,0.400000X-0.400000X-0.400000X0.400000X-0.400000X0.400000X0.400000X-0.400000X0.400000X0*%
%ADD23O,1.800000X1.600000*%
%ADD24O,1.600000X2.200000*%
%ADD25C,1.700000*%
%ADD26R,1.350000X1.350000*%
%ADD27C,1.350000*%
%ADD28C,1.200000*%
%ADD29RoundRect,0.325000X0.325000X0.975000X-0.325000X0.975000X-0.325000X-0.975000X0.325000X-0.975000X0*%
%ADD30RoundRect,0.750000X1.050000X1.750000X-1.050000X1.750000X-1.050000X-1.750000X1.050000X-1.750000X0*%
%ADD31C,3.400000*%
%ADD32RoundRect,0.500000X0.350000X-0.350000X0.350000X0.350000X-0.350000X0.350000X-0.350000X-0.350000X0*%
%ADD33HorizOval,1.400000X0.000000X0.000000X0.000000X0.000000X0*%
%ADD34C,1.600000*%
%ADD35O,3.500000X3.500000*%
%ADD36C,3.600000*%
%ADD37C,0.900000*%
%ADD38C,1.000000*%
%ADD39C,2.000000*%
%ADD40C,0.650000*%
%ADD41O,2.500000X2.000000*%
%ADD42O,3.500000X2.000000*%
%ADD43C,0.700000*%
%ADD44RoundRect,0.250000X0.600000X0.750000X-0.600000X0.750000X-0.600000X-0.750000X0.600000X-0.750000X0*%
%ADD45O,1.700000X2.000000*%
%ADD46C,3.200000*%
%ADD47RoundRect,0.428571X-1.571429X-1.071429X1.571429X-1.071429X1.571429X1.071429X-1.571429X1.071429X0*%
%ADD48C,3.500000*%
%ADD49R,1.800000X1.100000*%
%ADD50RoundRect,0.275000X-0.625000X0.275000X-0.625000X-0.275000X0.625000X-0.275000X0.625000X0.275000X0*%
G04 APERTURE END LIST*
D10*
%TO.C,X2*%
X143230000Y-122110000D03*
X143930000Y-122110000D03*
X144630000Y-122110000D03*
X145330000Y-122110000D03*
X146030000Y-122110000D03*
X146730000Y-122110000D03*
X147430000Y-122110000D03*
X148130000Y-122110000D03*
X148830000Y-122110000D03*
X149530000Y-122110000D03*
X150230000Y-122110000D03*
X150930000Y-122110000D03*
%TD*%
D11*
%TO.C,J12*%
X111600000Y-148380000D03*
D12*
X111600000Y-145840000D03*
X111600000Y-143300000D03*
X111600000Y-140760000D03*
X111600000Y-138220000D03*
X111600000Y-135680000D03*
X111600000Y-133140000D03*
X111600000Y-130600000D03*
%TD*%
D11*
%TO.C,J10*%
X114800000Y-110600000D03*
D12*
X114800000Y-113140000D03*
X114800000Y-115680000D03*
X114800000Y-118220000D03*
X114800000Y-120760000D03*
X114800000Y-123300000D03*
%TD*%
D13*
%TO.C,J9*%
X118457500Y-57700000D03*
D14*
X118457500Y-63700000D03*
D15*
X113757500Y-60700000D03*
%TD*%
D16*
%TO.C,J27*%
X108005000Y-110950000D03*
X108005000Y-114450000D03*
X108005000Y-117950000D03*
X108005000Y-121450000D03*
%TD*%
D17*
%TO.C,J34*%
X120900000Y-95600000D03*
D12*
X120900000Y-93060000D03*
X123440000Y-95600000D03*
X123440000Y-93060000D03*
X125980000Y-95600000D03*
X125980000Y-93060000D03*
%TD*%
D18*
%TO.C,R32*%
X174800000Y-86400000D03*
X171400000Y-86400000D03*
%TD*%
D19*
%TO.C,U13*%
X181850000Y-124000000D03*
D20*
X183120000Y-121930000D03*
X184390000Y-124000000D03*
%TD*%
D16*
%TO.C,J1*%
X108005000Y-95550000D03*
X108005000Y-99050000D03*
X108005000Y-102550000D03*
X108005000Y-106050000D03*
%TD*%
D21*
%TO.C,J18*%
X191995000Y-89150000D03*
X191995000Y-85650000D03*
X191995000Y-82150000D03*
X191995000Y-78650000D03*
%TD*%
%TO.C,J15*%
X192000000Y-147550000D03*
X192000000Y-144050000D03*
X192000000Y-140550000D03*
X192000000Y-137050000D03*
%TD*%
D16*
%TO.C,J2*%
X108005000Y-137050000D03*
X108005000Y-140550000D03*
X108005000Y-144050000D03*
X108005000Y-147550000D03*
%TD*%
D22*
%TO.C,M1*%
X162540000Y-51500000D03*
D23*
X162540000Y-54040000D03*
X162540000Y-56580000D03*
X162540000Y-59120000D03*
X162540000Y-61660000D03*
X162540000Y-64200000D03*
X182860000Y-64200000D03*
X182860000Y-61660000D03*
X182860000Y-59120000D03*
X182860000Y-56580000D03*
X182860000Y-54040000D03*
X182860000Y-51500000D03*
%TD*%
D11*
%TO.C,J19*%
X111200000Y-123300000D03*
D12*
X111200000Y-120760000D03*
X111200000Y-118220000D03*
X111200000Y-115680000D03*
X111200000Y-113140000D03*
X111200000Y-110600000D03*
%TD*%
D11*
%TO.C,J20*%
X115200000Y-130680000D03*
D12*
X115200000Y-133220000D03*
X115200000Y-135760000D03*
X115200000Y-138300000D03*
X115200000Y-140840000D03*
X115200000Y-143380000D03*
X115200000Y-145920000D03*
X115200000Y-148460000D03*
%TD*%
D11*
%TO.C,J4*%
X115000000Y-104700000D03*
D12*
X115000000Y-102160000D03*
X115000000Y-99620000D03*
X115000000Y-97080000D03*
%TD*%
D24*
%TO.C,X3*%
X164880000Y-68300000D03*
X167420000Y-68300000D03*
X169960000Y-68300000D03*
X172500000Y-68300000D03*
X175040000Y-68300000D03*
X177580000Y-68300000D03*
X180120000Y-68300000D03*
%TD*%
D16*
%TO.C,J22*%
X108005000Y-52450000D03*
X108005000Y-55950000D03*
X108005000Y-59450000D03*
X108005000Y-62950000D03*
%TD*%
D11*
%TO.C,U15*%
X168875000Y-62489500D03*
D25*
X168875000Y-59949500D03*
X171415000Y-62489500D03*
X171415000Y-59949500D03*
X173955000Y-62489500D03*
X173955000Y-59949500D03*
X176495000Y-62489500D03*
X176495000Y-59949500D03*
%TD*%
D26*
%TO.C,U6*%
X165792500Y-51492500D03*
D27*
X165792500Y-53492500D03*
X165792500Y-55492500D03*
X165792500Y-57492500D03*
X165792500Y-59492500D03*
X165792500Y-61492500D03*
X165792500Y-63492500D03*
X165792500Y-65492500D03*
X179392500Y-65492500D03*
X179392500Y-63492500D03*
X179392500Y-61492500D03*
X179392500Y-59492500D03*
X179392500Y-57492500D03*
X179392500Y-55492500D03*
X179392500Y-53492500D03*
X179392500Y-51492500D03*
%TD*%
D28*
%TO.C,MK1*%
X186650000Y-115000000D03*
X184750000Y-115000000D03*
%TD*%
%TO.C,SW6*%
X175100000Y-114261000D03*
X170600000Y-114261000D03*
D29*
X175600000Y-105961000D03*
X170600000Y-105961000D03*
X173100000Y-105961000D03*
D30*
X180900000Y-114261000D03*
X165300000Y-114261000D03*
D29*
X175600000Y-122561000D03*
X170600000Y-122561000D03*
%TD*%
D21*
%TO.C,J24*%
X191995000Y-73750000D03*
X191995000Y-70250000D03*
X191995000Y-66750000D03*
X191995000Y-63250000D03*
%TD*%
D11*
%TO.C,J23*%
X123700000Y-105900000D03*
D12*
X126240000Y-105900000D03*
X128780000Y-105900000D03*
X131320000Y-105900000D03*
X133860000Y-105900000D03*
X136400000Y-105900000D03*
%TD*%
D31*
%TO.C,X1*%
X125000000Y-142755000D03*
X175000000Y-142755000D03*
%TD*%
D32*
%TO.C,J8*%
X129050000Y-99900000D03*
D12*
X131590000Y-99900000D03*
X134130000Y-99900000D03*
X136670000Y-99900000D03*
%TD*%
D16*
%TO.C,J28*%
X108005000Y-80150000D03*
X108005000Y-83650000D03*
X108005000Y-87150000D03*
X108005000Y-90650000D03*
%TD*%
D21*
%TO.C,J21*%
X192000000Y-132150000D03*
X192000000Y-128650000D03*
X192000000Y-125150000D03*
X192000000Y-121650000D03*
%TD*%
D33*
%TO.C,U22*%
X175165869Y-79767990D03*
D34*
X176023080Y-77698500D03*
X175167990Y-75634131D03*
X171034131Y-75632010D03*
X170176920Y-77701500D03*
X171032010Y-79765869D03*
%TD*%
D35*
%TO.C,R33*%
X127750000Y-53800000D03*
X172250000Y-53800000D03*
D36*
X110300000Y-63800000D03*
X189700000Y-63800000D03*
%TD*%
D37*
%TO.C,SW3*%
X196930000Y-142700000D03*
X196930000Y-145700000D03*
%TD*%
D38*
%TO.C,TP6*%
X183655000Y-119685000D03*
%TD*%
%TO.C,J17*%
X141500000Y-138725000D03*
X133500000Y-138725000D03*
%TD*%
D37*
%TO.C,SW2*%
X196900000Y-131700000D03*
X196900000Y-134700000D03*
%TD*%
D39*
%TO.C,LS2*%
X154000000Y-97800000D03*
X150000000Y-97800000D03*
X146000000Y-97800000D03*
X156000000Y-99050000D03*
X152000000Y-99050000D03*
X148000000Y-99050000D03*
X144000000Y-99050000D03*
X158000000Y-100300000D03*
X154000000Y-100300000D03*
X150000000Y-100300000D03*
X146000000Y-100300000D03*
X142000000Y-100300000D03*
X156000000Y-101550000D03*
X152000000Y-101550000D03*
X148000000Y-101550000D03*
X144000000Y-101550000D03*
X158000000Y-102800000D03*
X154000000Y-102800000D03*
X150000000Y-102800000D03*
X146000000Y-102800000D03*
X142000000Y-102800000D03*
X156000000Y-104050000D03*
X152000000Y-104050000D03*
X148000000Y-104050000D03*
X144000000Y-104050000D03*
X158000000Y-105300000D03*
X154000000Y-105300000D03*
X150000000Y-105300000D03*
X146000000Y-105300000D03*
X142000000Y-105300000D03*
X156000000Y-106550000D03*
X152000000Y-106550000D03*
X148000000Y-106550000D03*
X144000000Y-106550000D03*
X154000000Y-107800000D03*
X150000000Y-107800000D03*
X146000000Y-107800000D03*
%TD*%
D28*
%TO.C,J14*%
X190975000Y-104000000D03*
X196975000Y-104000000D03*
%TD*%
D40*
%TO.C,J13*%
X106350000Y-74740000D03*
X106350000Y-68960000D03*
D41*
X102650000Y-76670000D03*
D42*
X106830000Y-76670000D03*
D41*
X102650000Y-67030000D03*
D42*
X106830000Y-67030000D03*
%TD*%
D40*
%TO.C,J29*%
X193632500Y-53260000D03*
X193632500Y-59040000D03*
D41*
X197332500Y-51330000D03*
D42*
X193152500Y-51330000D03*
D41*
X197332500Y-60970000D03*
D42*
X193152500Y-60970000D03*
%TD*%
D28*
%TO.C,J16*%
X190975000Y-115000000D03*
X196975000Y-115000000D03*
%TD*%
D43*
%TO.C,SW1*%
X181400000Y-147050000D03*
X183100000Y-147050000D03*
%TD*%
D44*
%TO.C,J7*%
X164700000Y-84450000D03*
D45*
X162200000Y-84450000D03*
%TD*%
D28*
%TO.C,J3*%
X190975000Y-93000000D03*
X196975000Y-93000000D03*
%TD*%
D46*
%TO.C,BT1*%
X124390000Y-127600000D03*
X180000000Y-127600000D03*
D47*
X115745000Y-127600000D03*
D48*
X187745000Y-127600000D03*
%TD*%
D49*
%TO.C,U17*%
X160170000Y-62480000D03*
D50*
X158100000Y-63750000D03*
X160170000Y-65020000D03*
%TD*%
D40*
%TO.C,J5*%
X106400000Y-131490000D03*
X106400000Y-125710000D03*
D41*
X102700000Y-133420000D03*
D42*
X106880000Y-133420000D03*
D41*
X102700000Y-123780000D03*
D42*
X106880000Y-123780000D03*
%TD*%
D38*
%TO.C,TP1*%
X186195000Y-119685000D03*
%TD*%
M02*
