%TF.GenerationSoftware,KiCad,Pcbnew,8.0.3*%
%TF.CreationDate,2024-07-08T22:33:59+02:00*%
%TF.ProjectId,labathome_pcb15,6c616261-7468-46f6-9d65-5f7063623135,rev?*%
%TF.SameCoordinates,Original*%
%TF.FileFunction,Legend,Bot*%
%TF.FilePolarity,Positive*%
%FSLAX46Y46*%
G04 Gerber Fmt 4.6, Leading zero omitted, Abs format (unit mm)*
G04 Created by KiCad (PCBNEW 8.0.3) date 2024-07-08 22:33:59*
%MOMM*%
%LPD*%
G01*
G04 APERTURE LIST*
G04 Aperture macros list*
%AMRoundRect*
0 Rectangle with rounded corners*
0 $1 Rounding radius*
0 $2 $3 $4 $5 $6 $7 $8 $9 X,Y pos of 4 corners*
0 Add a 4 corners polygon primitive as box body*
4,1,4,$2,$3,$4,$5,$6,$7,$8,$9,$2,$3,0*
0 Add four circle primitives for the rounded corners*
1,1,$1+$1,$2,$3*
1,1,$1+$1,$4,$5*
1,1,$1+$1,$6,$7*
1,1,$1+$1,$8,$9*
0 Add four rect primitives between the rounded corners*
20,1,$1+$1,$2,$3,$4,$5,0*
20,1,$1+$1,$4,$5,$6,$7,0*
20,1,$1+$1,$6,$7,$8,$9,0*
20,1,$1+$1,$8,$9,$2,$3,0*%
G04 Aperture macros list end*
%ADD10C,0.250000*%
%ADD11C,0.150000*%
%ADD12C,0.120000*%
%ADD13C,0.100000*%
%ADD14C,1.200000*%
%ADD15R,1.500000X1.000000*%
%ADD16RoundRect,0.250000X0.450000X-0.325000X0.450000X0.325000X-0.450000X0.325000X-0.450000X-0.325000X0*%
%ADD17R,1.700000X1.700000*%
%ADD18O,1.700000X1.700000*%
%ADD19O,1.800000X1.400000*%
%ADD20RoundRect,0.500000X0.350000X0.350000X-0.350000X0.350000X-0.350000X-0.350000X0.350000X-0.350000X0*%
%ADD21RoundRect,0.750000X-1.000000X0.750000X-1.000000X-0.750000X1.000000X-0.750000X1.000000X0.750000X0*%
%ADD22RoundRect,0.750000X-1.000000X1.000000X-1.000000X-1.000000X1.000000X-1.000000X1.000000X1.000000X0*%
%ADD23RoundRect,0.875000X-0.875000X0.875000X-0.875000X-0.875000X0.875000X-0.875000X0.875000X0.875000X0*%
%ADD24RoundRect,0.450000X-0.750000X0.450000X-0.750000X-0.450000X0.750000X-0.450000X0.750000X0.450000X0*%
%ADD25O,1.900000X3.200000*%
%ADD26C,1.500000*%
%ADD27R,1.100000X1.800000*%
%ADD28RoundRect,0.275000X-0.275000X-0.625000X0.275000X-0.625000X0.275000X0.625000X-0.275000X0.625000X0*%
%ADD29RoundRect,0.450000X0.750000X-0.450000X0.750000X0.450000X-0.750000X0.450000X-0.750000X-0.450000X0*%
%ADD30RoundRect,0.400000X-0.400000X-0.400000X0.400000X-0.400000X0.400000X0.400000X-0.400000X0.400000X0*%
%ADD31O,1.800000X1.600000*%
%ADD32R,1.000000X1.000000*%
%ADD33O,1.000000X1.000000*%
%ADD34O,1.400000X1.800000*%
%ADD35O,1.600000X2.200000*%
%ADD36RoundRect,0.220589X0.529411X-0.529411X0.529411X0.529411X-0.529411X0.529411X-0.529411X-0.529411X0*%
%ADD37O,1.700000X1.500000*%
%ADD38O,1.500000X1.700000*%
%ADD39C,1.700000*%
%ADD40RoundRect,0.400000X-0.400000X-0.600000X0.400000X-0.600000X0.400000X0.600000X-0.400000X0.600000X0*%
%ADD41O,1.600000X2.000000*%
%ADD42R,1.350000X1.350000*%
%ADD43C,1.350000*%
%ADD44RoundRect,0.400000X-0.400000X0.600000X-0.400000X-0.600000X0.400000X-0.600000X0.400000X0.600000X0*%
%ADD45R,2.000000X3.200000*%
%ADD46C,3.400000*%
%ADD47R,1.600000X1.600000*%
%ADD48C,1.600000*%
%ADD49RoundRect,0.500000X-0.350000X-0.350000X0.350000X-0.350000X0.350000X0.350000X-0.350000X0.350000X0*%
%ADD50O,1.600000X1.200000*%
%ADD51RoundRect,0.135000X0.135000X0.185000X-0.135000X0.185000X-0.135000X-0.185000X0.135000X-0.185000X0*%
%ADD52RoundRect,0.150000X-0.587500X-0.150000X0.587500X-0.150000X0.587500X0.150000X-0.587500X0.150000X0*%
%ADD53RoundRect,0.140000X0.140000X0.170000X-0.140000X0.170000X-0.140000X-0.170000X0.140000X-0.170000X0*%
%ADD54RoundRect,0.140000X-0.140000X-0.170000X0.140000X-0.170000X0.140000X0.170000X-0.140000X0.170000X0*%
%ADD55RoundRect,0.250000X-1.500000X-0.550000X1.500000X-0.550000X1.500000X0.550000X-1.500000X0.550000X0*%
%ADD56RoundRect,0.200000X-0.200000X-0.275000X0.200000X-0.275000X0.200000X0.275000X-0.200000X0.275000X0*%
%ADD57O,3.500000X3.500000*%
%ADD58C,3.600000*%
%ADD59RoundRect,0.135000X-0.135000X-0.185000X0.135000X-0.185000X0.135000X0.185000X-0.135000X0.185000X0*%
%ADD60C,0.900000*%
%ADD61R,2.000000X0.700000*%
%ADD62R,0.800000X2.000000*%
%ADD63RoundRect,0.225000X0.225000X0.250000X-0.225000X0.250000X-0.225000X-0.250000X0.225000X-0.250000X0*%
%ADD64RoundRect,0.140000X-0.170000X0.140000X-0.170000X-0.140000X0.170000X-0.140000X0.170000X0.140000X0*%
%ADD65RoundRect,0.140000X0.170000X-0.140000X0.170000X0.140000X-0.170000X0.140000X-0.170000X-0.140000X0*%
%ADD66RoundRect,0.135000X-0.185000X0.135000X-0.185000X-0.135000X0.185000X-0.135000X0.185000X0.135000X0*%
%ADD67C,1.000000*%
%ADD68R,0.700000X1.600000*%
%ADD69R,1.200000X2.200000*%
%ADD70R,1.200000X1.500000*%
%ADD71R,1.600000X1.500000*%
%ADD72RoundRect,0.250000X-0.425000X0.450000X-0.425000X-0.450000X0.425000X-0.450000X0.425000X0.450000X0*%
%ADD73RoundRect,0.335000X-1.340000X-1.365000X1.340000X-1.365000X1.340000X1.365000X-1.340000X1.365000X0*%
%ADD74RoundRect,0.225000X-0.250000X0.225000X-0.250000X-0.225000X0.250000X-0.225000X0.250000X0.225000X0*%
%ADD75RoundRect,0.225000X-0.225000X-0.250000X0.225000X-0.250000X0.225000X0.250000X-0.225000X0.250000X0*%
%ADD76C,2.000000*%
%ADD77RoundRect,0.112500X-0.187500X-0.112500X0.187500X-0.112500X0.187500X0.112500X-0.187500X0.112500X0*%
%ADD78RoundRect,0.250000X0.750000X-1.250000X0.750000X1.250000X-0.750000X1.250000X-0.750000X-1.250000X0*%
%ADD79RoundRect,0.150000X0.512500X0.150000X-0.512500X0.150000X-0.512500X-0.150000X0.512500X-0.150000X0*%
%ADD80RoundRect,0.112500X-0.112500X0.187500X-0.112500X-0.187500X0.112500X-0.187500X0.112500X0.187500X0*%
%ADD81O,1.350000X1.350000*%
%ADD82RoundRect,0.250000X0.325000X0.650000X-0.325000X0.650000X-0.325000X-0.650000X0.325000X-0.650000X0*%
%ADD83C,0.650000*%
%ADD84R,1.450000X0.600000*%
%ADD85R,1.450000X0.300000*%
%ADD86O,2.500000X2.000000*%
%ADD87O,3.500000X2.000000*%
%ADD88RoundRect,0.062500X0.062500X-0.337500X0.062500X0.337500X-0.062500X0.337500X-0.062500X-0.337500X0*%
%ADD89RoundRect,0.062500X0.337500X-0.062500X0.337500X0.062500X-0.337500X0.062500X-0.337500X-0.062500X0*%
%ADD90R,3.600000X3.600000*%
%ADD91RoundRect,0.218750X-0.256250X0.218750X-0.256250X-0.218750X0.256250X-0.218750X0.256250X0.218750X0*%
%ADD92RoundRect,0.250000X0.425000X-0.450000X0.425000X0.450000X-0.425000X0.450000X-0.425000X-0.450000X0*%
%ADD93RoundRect,0.200000X0.750000X0.200000X-0.750000X0.200000X-0.750000X-0.200000X0.750000X-0.200000X0*%
%ADD94RoundRect,0.250000X0.450000X0.425000X-0.450000X0.425000X-0.450000X-0.425000X0.450000X-0.425000X0*%
%ADD95RoundRect,0.250000X0.625000X-0.312500X0.625000X0.312500X-0.625000X0.312500X-0.625000X-0.312500X0*%
%ADD96RoundRect,0.162500X0.162500X-0.617500X0.162500X0.617500X-0.162500X0.617500X-0.162500X-0.617500X0*%
%ADD97R,0.800000X0.500000*%
%ADD98R,2.200000X0.600000*%
%ADD99RoundRect,0.062500X0.375000X0.062500X-0.375000X0.062500X-0.375000X-0.062500X0.375000X-0.062500X0*%
%ADD100RoundRect,0.062500X0.062500X0.375000X-0.062500X0.375000X-0.062500X-0.375000X0.062500X-0.375000X0*%
%ADD101R,5.600000X5.600000*%
%ADD102RoundRect,0.150000X0.625000X-0.150000X0.625000X0.150000X-0.625000X0.150000X-0.625000X-0.150000X0*%
%ADD103RoundRect,0.250000X0.650000X-0.350000X0.650000X0.350000X-0.650000X0.350000X-0.650000X-0.350000X0*%
%ADD104RoundRect,0.087500X-0.087500X0.225000X-0.087500X-0.225000X0.087500X-0.225000X0.087500X0.225000X0*%
%ADD105RoundRect,0.087500X-0.225000X0.087500X-0.225000X-0.087500X0.225000X-0.087500X0.225000X0.087500X0*%
%ADD106R,1.500000X0.900000*%
%ADD107R,0.900000X1.500000*%
%ADD108R,0.900000X0.900000*%
%ADD109R,1.400000X1.200000*%
%ADD110RoundRect,0.335000X1.340000X1.365000X-1.340000X1.365000X-1.340000X-1.365000X1.340000X-1.365000X0*%
%ADD111R,2.000000X1.905000*%
%ADD112O,2.000000X1.905000*%
%ADD113RoundRect,0.250000X0.750000X-0.600000X0.750000X0.600000X-0.750000X0.600000X-0.750000X-0.600000X0*%
%ADD114O,2.000000X1.700000*%
%ADD115C,3.200000*%
%ADD116RoundRect,0.500000X-1.250000X-1.250000X1.250000X-1.250000X1.250000X1.250000X-1.250000X1.250000X0*%
%ADD117C,3.500000*%
%ADD118RoundRect,0.150000X0.150000X-0.587500X0.150000X0.587500X-0.150000X0.587500X-0.150000X-0.587500X0*%
%ADD119RoundRect,0.375000X-0.625000X-0.375000X0.625000X-0.375000X0.625000X0.375000X-0.625000X0.375000X0*%
%ADD120RoundRect,0.500000X-0.500000X-1.400000X0.500000X-1.400000X0.500000X1.400000X-0.500000X1.400000X0*%
%ADD121RoundRect,0.135000X0.185000X-0.135000X0.185000X0.135000X-0.185000X0.135000X-0.185000X-0.135000X0*%
%ADD122RoundRect,0.200000X0.200000X-0.750000X0.200000X0.750000X-0.200000X0.750000X-0.200000X-0.750000X0*%
%ADD123R,0.350000X0.500000*%
%ADD124R,0.800000X1.800000*%
%ADD125RoundRect,0.100000X-0.637500X-0.100000X0.637500X-0.100000X0.637500X0.100000X-0.637500X0.100000X0*%
%ADD126R,2.850000X5.400000*%
%ADD127R,1.800000X1.100000*%
%ADD128RoundRect,0.275000X-0.625000X0.275000X-0.625000X-0.275000X0.625000X-0.275000X0.625000X0.275000X0*%
%ADD129RoundRect,0.250000X0.625000X-0.400000X0.625000X0.400000X-0.625000X0.400000X-0.625000X-0.400000X0*%
%ADD130RoundRect,0.150000X0.587500X0.150000X-0.587500X0.150000X-0.587500X-0.150000X0.587500X-0.150000X0*%
%ADD131RoundRect,0.150000X0.150000X-0.512500X0.150000X0.512500X-0.150000X0.512500X-0.150000X-0.512500X0*%
%ADD132RoundRect,0.135000X-0.035355X0.226274X-0.226274X0.035355X0.035355X-0.226274X0.226274X-0.035355X0*%
%ADD133RoundRect,0.150000X0.825000X0.150000X-0.825000X0.150000X-0.825000X-0.150000X0.825000X-0.150000X0*%
%ADD134R,2.300000X2.300000*%
%ADD135RoundRect,0.250000X0.400000X0.625000X-0.400000X0.625000X-0.400000X-0.625000X0.400000X-0.625000X0*%
%ADD136RoundRect,0.218750X0.218750X0.256250X-0.218750X0.256250X-0.218750X-0.256250X0.218750X-0.256250X0*%
G04 APERTURE END LIST*
D10*
X178906955Y-94109500D02*
X178735527Y-94180928D01*
X178735527Y-94180928D02*
X178449812Y-94180928D01*
X178449812Y-94180928D02*
X178335527Y-94109500D01*
X178335527Y-94109500D02*
X178278384Y-94038071D01*
X178278384Y-94038071D02*
X178221241Y-93895214D01*
X178221241Y-93895214D02*
X178221241Y-93752357D01*
X178221241Y-93752357D02*
X178278384Y-93609500D01*
X178278384Y-93609500D02*
X178335527Y-93538071D01*
X178335527Y-93538071D02*
X178449812Y-93466642D01*
X178449812Y-93466642D02*
X178678384Y-93395214D01*
X178678384Y-93395214D02*
X178792669Y-93323785D01*
X178792669Y-93323785D02*
X178849812Y-93252357D01*
X178849812Y-93252357D02*
X178906955Y-93109500D01*
X178906955Y-93109500D02*
X178906955Y-92966642D01*
X178906955Y-92966642D02*
X178849812Y-92823785D01*
X178849812Y-92823785D02*
X178792669Y-92752357D01*
X178792669Y-92752357D02*
X178678384Y-92680928D01*
X178678384Y-92680928D02*
X178392669Y-92680928D01*
X178392669Y-92680928D02*
X178221241Y-92752357D01*
X177706955Y-93180928D02*
X177706955Y-94680928D01*
X177706955Y-93252357D02*
X177592670Y-93180928D01*
X177592670Y-93180928D02*
X177364098Y-93180928D01*
X177364098Y-93180928D02*
X177249812Y-93252357D01*
X177249812Y-93252357D02*
X177192670Y-93323785D01*
X177192670Y-93323785D02*
X177135527Y-93466642D01*
X177135527Y-93466642D02*
X177135527Y-93895214D01*
X177135527Y-93895214D02*
X177192670Y-94038071D01*
X177192670Y-94038071D02*
X177249812Y-94109500D01*
X177249812Y-94109500D02*
X177364098Y-94180928D01*
X177364098Y-94180928D02*
X177592670Y-94180928D01*
X177592670Y-94180928D02*
X177706955Y-94109500D01*
X176164098Y-94109500D02*
X176278384Y-94180928D01*
X176278384Y-94180928D02*
X176506956Y-94180928D01*
X176506956Y-94180928D02*
X176621241Y-94109500D01*
X176621241Y-94109500D02*
X176678384Y-93966642D01*
X176678384Y-93966642D02*
X176678384Y-93395214D01*
X176678384Y-93395214D02*
X176621241Y-93252357D01*
X176621241Y-93252357D02*
X176506956Y-93180928D01*
X176506956Y-93180928D02*
X176278384Y-93180928D01*
X176278384Y-93180928D02*
X176164098Y-93252357D01*
X176164098Y-93252357D02*
X176106956Y-93395214D01*
X176106956Y-93395214D02*
X176106956Y-93538071D01*
X176106956Y-93538071D02*
X176678384Y-93680928D01*
X175078385Y-94180928D02*
X175078385Y-93395214D01*
X175078385Y-93395214D02*
X175135527Y-93252357D01*
X175135527Y-93252357D02*
X175249813Y-93180928D01*
X175249813Y-93180928D02*
X175478385Y-93180928D01*
X175478385Y-93180928D02*
X175592670Y-93252357D01*
X175078385Y-94109500D02*
X175192670Y-94180928D01*
X175192670Y-94180928D02*
X175478385Y-94180928D01*
X175478385Y-94180928D02*
X175592670Y-94109500D01*
X175592670Y-94109500D02*
X175649813Y-93966642D01*
X175649813Y-93966642D02*
X175649813Y-93823785D01*
X175649813Y-93823785D02*
X175592670Y-93680928D01*
X175592670Y-93680928D02*
X175478385Y-93609500D01*
X175478385Y-93609500D02*
X175192670Y-93609500D01*
X175192670Y-93609500D02*
X175078385Y-93538071D01*
X174506956Y-94180928D02*
X174506956Y-92680928D01*
X174392671Y-93609500D02*
X174049813Y-94180928D01*
X174049813Y-93180928D02*
X174506956Y-93752357D01*
X173078384Y-94109500D02*
X173192670Y-94180928D01*
X173192670Y-94180928D02*
X173421242Y-94180928D01*
X173421242Y-94180928D02*
X173535527Y-94109500D01*
X173535527Y-94109500D02*
X173592670Y-93966642D01*
X173592670Y-93966642D02*
X173592670Y-93395214D01*
X173592670Y-93395214D02*
X173535527Y-93252357D01*
X173535527Y-93252357D02*
X173421242Y-93180928D01*
X173421242Y-93180928D02*
X173192670Y-93180928D01*
X173192670Y-93180928D02*
X173078384Y-93252357D01*
X173078384Y-93252357D02*
X173021242Y-93395214D01*
X173021242Y-93395214D02*
X173021242Y-93538071D01*
X173021242Y-93538071D02*
X173592670Y-93680928D01*
X172506956Y-94180928D02*
X172506956Y-93180928D01*
X172506956Y-93466642D02*
X172449813Y-93323785D01*
X172449813Y-93323785D02*
X172392671Y-93252357D01*
X172392671Y-93252357D02*
X172278385Y-93180928D01*
X172278385Y-93180928D02*
X172164099Y-93180928D01*
D11*
X198854819Y-138961904D02*
X198854819Y-139152380D01*
X198854819Y-139152380D02*
X198902438Y-139247618D01*
X198902438Y-139247618D02*
X198997676Y-139342856D01*
X198997676Y-139342856D02*
X199188152Y-139390475D01*
X199188152Y-139390475D02*
X199521485Y-139390475D01*
X199521485Y-139390475D02*
X199711961Y-139342856D01*
X199711961Y-139342856D02*
X199807200Y-139247618D01*
X199807200Y-139247618D02*
X199854819Y-139152380D01*
X199854819Y-139152380D02*
X199854819Y-138961904D01*
X199854819Y-138961904D02*
X199807200Y-138866666D01*
X199807200Y-138866666D02*
X199711961Y-138771428D01*
X199711961Y-138771428D02*
X199521485Y-138723809D01*
X199521485Y-138723809D02*
X199188152Y-138723809D01*
X199188152Y-138723809D02*
X198997676Y-138771428D01*
X198997676Y-138771428D02*
X198902438Y-138866666D01*
X198902438Y-138866666D02*
X198854819Y-138961904D01*
X199854819Y-139819047D02*
X198854819Y-139819047D01*
X198854819Y-139819047D02*
X199854819Y-140390475D01*
X199854819Y-140390475D02*
X198854819Y-140390475D01*
X199759580Y-142199999D02*
X199807200Y-142152380D01*
X199807200Y-142152380D02*
X199854819Y-142009523D01*
X199854819Y-142009523D02*
X199854819Y-141914285D01*
X199854819Y-141914285D02*
X199807200Y-141771428D01*
X199807200Y-141771428D02*
X199711961Y-141676190D01*
X199711961Y-141676190D02*
X199616723Y-141628571D01*
X199616723Y-141628571D02*
X199426247Y-141580952D01*
X199426247Y-141580952D02*
X199283390Y-141580952D01*
X199283390Y-141580952D02*
X199092914Y-141628571D01*
X199092914Y-141628571D02*
X198997676Y-141676190D01*
X198997676Y-141676190D02*
X198902438Y-141771428D01*
X198902438Y-141771428D02*
X198854819Y-141914285D01*
X198854819Y-141914285D02*
X198854819Y-142009523D01*
X198854819Y-142009523D02*
X198902438Y-142152380D01*
X198902438Y-142152380D02*
X198950057Y-142199999D01*
X199569104Y-142580952D02*
X199569104Y-143057142D01*
X199854819Y-142485714D02*
X198854819Y-142819047D01*
X198854819Y-142819047D02*
X199854819Y-143152380D01*
X199854819Y-143485714D02*
X198854819Y-143485714D01*
X198854819Y-143485714D02*
X199854819Y-144057142D01*
X199854819Y-144057142D02*
X198854819Y-144057142D01*
X198854819Y-145152381D02*
X198854819Y-145723809D01*
X199854819Y-145438095D02*
X198854819Y-145438095D01*
X199331009Y-146057143D02*
X199331009Y-146390476D01*
X199854819Y-146533333D02*
X199854819Y-146057143D01*
X199854819Y-146057143D02*
X198854819Y-146057143D01*
X198854819Y-146057143D02*
X198854819Y-146533333D01*
X199854819Y-147533333D02*
X199378628Y-147200000D01*
X199854819Y-146961905D02*
X198854819Y-146961905D01*
X198854819Y-146961905D02*
X198854819Y-147342857D01*
X198854819Y-147342857D02*
X198902438Y-147438095D01*
X198902438Y-147438095D02*
X198950057Y-147485714D01*
X198950057Y-147485714D02*
X199045295Y-147533333D01*
X199045295Y-147533333D02*
X199188152Y-147533333D01*
X199188152Y-147533333D02*
X199283390Y-147485714D01*
X199283390Y-147485714D02*
X199331009Y-147438095D01*
X199331009Y-147438095D02*
X199378628Y-147342857D01*
X199378628Y-147342857D02*
X199378628Y-146961905D01*
X199854819Y-147961905D02*
X198854819Y-147961905D01*
X198854819Y-147961905D02*
X199569104Y-148295238D01*
X199569104Y-148295238D02*
X198854819Y-148628571D01*
X198854819Y-148628571D02*
X199854819Y-148628571D01*
X198754819Y-129138095D02*
X198754819Y-129328571D01*
X198754819Y-129328571D02*
X198802438Y-129423809D01*
X198802438Y-129423809D02*
X198897676Y-129519047D01*
X198897676Y-129519047D02*
X199088152Y-129566666D01*
X199088152Y-129566666D02*
X199421485Y-129566666D01*
X199421485Y-129566666D02*
X199611961Y-129519047D01*
X199611961Y-129519047D02*
X199707200Y-129423809D01*
X199707200Y-129423809D02*
X199754819Y-129328571D01*
X199754819Y-129328571D02*
X199754819Y-129138095D01*
X199754819Y-129138095D02*
X199707200Y-129042857D01*
X199707200Y-129042857D02*
X199611961Y-128947619D01*
X199611961Y-128947619D02*
X199421485Y-128900000D01*
X199421485Y-128900000D02*
X199088152Y-128900000D01*
X199088152Y-128900000D02*
X198897676Y-128947619D01*
X198897676Y-128947619D02*
X198802438Y-129042857D01*
X198802438Y-129042857D02*
X198754819Y-129138095D01*
X199754819Y-129995238D02*
X198754819Y-129995238D01*
X198754819Y-129995238D02*
X199754819Y-130566666D01*
X199754819Y-130566666D02*
X198754819Y-130566666D01*
X199754819Y-132376190D02*
X199278628Y-132042857D01*
X199754819Y-131804762D02*
X198754819Y-131804762D01*
X198754819Y-131804762D02*
X198754819Y-132185714D01*
X198754819Y-132185714D02*
X198802438Y-132280952D01*
X198802438Y-132280952D02*
X198850057Y-132328571D01*
X198850057Y-132328571D02*
X198945295Y-132376190D01*
X198945295Y-132376190D02*
X199088152Y-132376190D01*
X199088152Y-132376190D02*
X199183390Y-132328571D01*
X199183390Y-132328571D02*
X199231009Y-132280952D01*
X199231009Y-132280952D02*
X199278628Y-132185714D01*
X199278628Y-132185714D02*
X199278628Y-131804762D01*
X199707200Y-132757143D02*
X199754819Y-132900000D01*
X199754819Y-132900000D02*
X199754819Y-133138095D01*
X199754819Y-133138095D02*
X199707200Y-133233333D01*
X199707200Y-133233333D02*
X199659580Y-133280952D01*
X199659580Y-133280952D02*
X199564342Y-133328571D01*
X199564342Y-133328571D02*
X199469104Y-133328571D01*
X199469104Y-133328571D02*
X199373866Y-133280952D01*
X199373866Y-133280952D02*
X199326247Y-133233333D01*
X199326247Y-133233333D02*
X199278628Y-133138095D01*
X199278628Y-133138095D02*
X199231009Y-132947619D01*
X199231009Y-132947619D02*
X199183390Y-132852381D01*
X199183390Y-132852381D02*
X199135771Y-132804762D01*
X199135771Y-132804762D02*
X199040533Y-132757143D01*
X199040533Y-132757143D02*
X198945295Y-132757143D01*
X198945295Y-132757143D02*
X198850057Y-132804762D01*
X198850057Y-132804762D02*
X198802438Y-132852381D01*
X198802438Y-132852381D02*
X198754819Y-132947619D01*
X198754819Y-132947619D02*
X198754819Y-133185714D01*
X198754819Y-133185714D02*
X198802438Y-133328571D01*
X198754819Y-134376191D02*
X198754819Y-134947619D01*
X199754819Y-134661905D02*
X198754819Y-134661905D01*
X199231009Y-135280953D02*
X199231009Y-135614286D01*
X199754819Y-135757143D02*
X199754819Y-135280953D01*
X199754819Y-135280953D02*
X198754819Y-135280953D01*
X198754819Y-135280953D02*
X198754819Y-135757143D01*
X199754819Y-136757143D02*
X199278628Y-136423810D01*
X199754819Y-136185715D02*
X198754819Y-136185715D01*
X198754819Y-136185715D02*
X198754819Y-136566667D01*
X198754819Y-136566667D02*
X198802438Y-136661905D01*
X198802438Y-136661905D02*
X198850057Y-136709524D01*
X198850057Y-136709524D02*
X198945295Y-136757143D01*
X198945295Y-136757143D02*
X199088152Y-136757143D01*
X199088152Y-136757143D02*
X199183390Y-136709524D01*
X199183390Y-136709524D02*
X199231009Y-136661905D01*
X199231009Y-136661905D02*
X199278628Y-136566667D01*
X199278628Y-136566667D02*
X199278628Y-136185715D01*
X199754819Y-137185715D02*
X198754819Y-137185715D01*
X198754819Y-137185715D02*
X199469104Y-137519048D01*
X199469104Y-137519048D02*
X198754819Y-137852381D01*
X198754819Y-137852381D02*
X199754819Y-137852381D01*
X100154819Y-82142857D02*
X100964342Y-82142857D01*
X100964342Y-82142857D02*
X101059580Y-82190476D01*
X101059580Y-82190476D02*
X101107200Y-82238095D01*
X101107200Y-82238095D02*
X101154819Y-82333333D01*
X101154819Y-82333333D02*
X101154819Y-82523809D01*
X101154819Y-82523809D02*
X101107200Y-82619047D01*
X101107200Y-82619047D02*
X101059580Y-82666666D01*
X101059580Y-82666666D02*
X100964342Y-82714285D01*
X100964342Y-82714285D02*
X100154819Y-82714285D01*
X101107200Y-83142857D02*
X101154819Y-83285714D01*
X101154819Y-83285714D02*
X101154819Y-83523809D01*
X101154819Y-83523809D02*
X101107200Y-83619047D01*
X101107200Y-83619047D02*
X101059580Y-83666666D01*
X101059580Y-83666666D02*
X100964342Y-83714285D01*
X100964342Y-83714285D02*
X100869104Y-83714285D01*
X100869104Y-83714285D02*
X100773866Y-83666666D01*
X100773866Y-83666666D02*
X100726247Y-83619047D01*
X100726247Y-83619047D02*
X100678628Y-83523809D01*
X100678628Y-83523809D02*
X100631009Y-83333333D01*
X100631009Y-83333333D02*
X100583390Y-83238095D01*
X100583390Y-83238095D02*
X100535771Y-83190476D01*
X100535771Y-83190476D02*
X100440533Y-83142857D01*
X100440533Y-83142857D02*
X100345295Y-83142857D01*
X100345295Y-83142857D02*
X100250057Y-83190476D01*
X100250057Y-83190476D02*
X100202438Y-83238095D01*
X100202438Y-83238095D02*
X100154819Y-83333333D01*
X100154819Y-83333333D02*
X100154819Y-83571428D01*
X100154819Y-83571428D02*
X100202438Y-83714285D01*
X100631009Y-84476190D02*
X100678628Y-84619047D01*
X100678628Y-84619047D02*
X100726247Y-84666666D01*
X100726247Y-84666666D02*
X100821485Y-84714285D01*
X100821485Y-84714285D02*
X100964342Y-84714285D01*
X100964342Y-84714285D02*
X101059580Y-84666666D01*
X101059580Y-84666666D02*
X101107200Y-84619047D01*
X101107200Y-84619047D02*
X101154819Y-84523809D01*
X101154819Y-84523809D02*
X101154819Y-84142857D01*
X101154819Y-84142857D02*
X100154819Y-84142857D01*
X100154819Y-84142857D02*
X100154819Y-84476190D01*
X100154819Y-84476190D02*
X100202438Y-84571428D01*
X100202438Y-84571428D02*
X100250057Y-84619047D01*
X100250057Y-84619047D02*
X100345295Y-84666666D01*
X100345295Y-84666666D02*
X100440533Y-84666666D01*
X100440533Y-84666666D02*
X100535771Y-84619047D01*
X100535771Y-84619047D02*
X100583390Y-84571428D01*
X100583390Y-84571428D02*
X100631009Y-84476190D01*
X100631009Y-84476190D02*
X100631009Y-84142857D01*
X101154819Y-85142857D02*
X100154819Y-85142857D01*
X100154819Y-85142857D02*
X100154819Y-85523809D01*
X100154819Y-85523809D02*
X100202438Y-85619047D01*
X100202438Y-85619047D02*
X100250057Y-85666666D01*
X100250057Y-85666666D02*
X100345295Y-85714285D01*
X100345295Y-85714285D02*
X100488152Y-85714285D01*
X100488152Y-85714285D02*
X100583390Y-85666666D01*
X100583390Y-85666666D02*
X100631009Y-85619047D01*
X100631009Y-85619047D02*
X100678628Y-85523809D01*
X100678628Y-85523809D02*
X100678628Y-85142857D01*
X101154819Y-86142857D02*
X100154819Y-86142857D01*
X100154819Y-86142857D02*
X100154819Y-86380952D01*
X100154819Y-86380952D02*
X100202438Y-86523809D01*
X100202438Y-86523809D02*
X100297676Y-86619047D01*
X100297676Y-86619047D02*
X100392914Y-86666666D01*
X100392914Y-86666666D02*
X100583390Y-86714285D01*
X100583390Y-86714285D02*
X100726247Y-86714285D01*
X100726247Y-86714285D02*
X100916723Y-86666666D01*
X100916723Y-86666666D02*
X101011961Y-86619047D01*
X101011961Y-86619047D02*
X101107200Y-86523809D01*
X101107200Y-86523809D02*
X101154819Y-86380952D01*
X101154819Y-86380952D02*
X101154819Y-86142857D01*
X100869104Y-87857143D02*
X100869104Y-88333333D01*
X101154819Y-87761905D02*
X100154819Y-88095238D01*
X100154819Y-88095238D02*
X101154819Y-88428571D01*
X101154819Y-88761905D02*
X100154819Y-88761905D01*
X100154819Y-88761905D02*
X100154819Y-89000000D01*
X100154819Y-89000000D02*
X100202438Y-89142857D01*
X100202438Y-89142857D02*
X100297676Y-89238095D01*
X100297676Y-89238095D02*
X100392914Y-89285714D01*
X100392914Y-89285714D02*
X100583390Y-89333333D01*
X100583390Y-89333333D02*
X100726247Y-89333333D01*
X100726247Y-89333333D02*
X100916723Y-89285714D01*
X100916723Y-89285714D02*
X101011961Y-89238095D01*
X101011961Y-89238095D02*
X101107200Y-89142857D01*
X101107200Y-89142857D02*
X101154819Y-89000000D01*
X101154819Y-89000000D02*
X101154819Y-88761905D01*
X101059580Y-90333333D02*
X101107200Y-90285714D01*
X101107200Y-90285714D02*
X101154819Y-90142857D01*
X101154819Y-90142857D02*
X101154819Y-90047619D01*
X101154819Y-90047619D02*
X101107200Y-89904762D01*
X101107200Y-89904762D02*
X101011961Y-89809524D01*
X101011961Y-89809524D02*
X100916723Y-89761905D01*
X100916723Y-89761905D02*
X100726247Y-89714286D01*
X100726247Y-89714286D02*
X100583390Y-89714286D01*
X100583390Y-89714286D02*
X100392914Y-89761905D01*
X100392914Y-89761905D02*
X100297676Y-89809524D01*
X100297676Y-89809524D02*
X100202438Y-89904762D01*
X100202438Y-89904762D02*
X100154819Y-90047619D01*
X100154819Y-90047619D02*
X100154819Y-90142857D01*
X100154819Y-90142857D02*
X100202438Y-90285714D01*
X100202438Y-90285714D02*
X100250057Y-90333333D01*
X100250057Y-90714286D02*
X100202438Y-90761905D01*
X100202438Y-90761905D02*
X100154819Y-90857143D01*
X100154819Y-90857143D02*
X100154819Y-91095238D01*
X100154819Y-91095238D02*
X100202438Y-91190476D01*
X100202438Y-91190476D02*
X100250057Y-91238095D01*
X100250057Y-91238095D02*
X100345295Y-91285714D01*
X100345295Y-91285714D02*
X100440533Y-91285714D01*
X100440533Y-91285714D02*
X100583390Y-91238095D01*
X100583390Y-91238095D02*
X101154819Y-90666667D01*
X101154819Y-90666667D02*
X101154819Y-91285714D01*
X100631009Y-92476191D02*
X100631009Y-92809524D01*
X101154819Y-92952381D02*
X101154819Y-92476191D01*
X101154819Y-92476191D02*
X100154819Y-92476191D01*
X100154819Y-92476191D02*
X100154819Y-92952381D01*
X100154819Y-93285715D02*
X101154819Y-93952381D01*
X100154819Y-93952381D02*
X101154819Y-93285715D01*
X100154819Y-94190477D02*
X100154819Y-94761905D01*
X101154819Y-94476191D02*
X100154819Y-94476191D01*
X161961905Y-153079104D02*
X161485715Y-153079104D01*
X162057143Y-153364819D02*
X161723810Y-152364819D01*
X161723810Y-152364819D02*
X161390477Y-153364819D01*
X161057143Y-152698152D02*
X161057143Y-153364819D01*
X161057143Y-152793390D02*
X161009524Y-152745771D01*
X161009524Y-152745771D02*
X160914286Y-152698152D01*
X160914286Y-152698152D02*
X160771429Y-152698152D01*
X160771429Y-152698152D02*
X160676191Y-152745771D01*
X160676191Y-152745771D02*
X160628572Y-152841009D01*
X160628572Y-152841009D02*
X160628572Y-153364819D01*
X160295238Y-152698152D02*
X159914286Y-152698152D01*
X160152381Y-152364819D02*
X160152381Y-153221961D01*
X160152381Y-153221961D02*
X160104762Y-153317200D01*
X160104762Y-153317200D02*
X160009524Y-153364819D01*
X160009524Y-153364819D02*
X159914286Y-153364819D01*
X159200000Y-153317200D02*
X159295238Y-153364819D01*
X159295238Y-153364819D02*
X159485714Y-153364819D01*
X159485714Y-153364819D02*
X159580952Y-153317200D01*
X159580952Y-153317200D02*
X159628571Y-153221961D01*
X159628571Y-153221961D02*
X159628571Y-152841009D01*
X159628571Y-152841009D02*
X159580952Y-152745771D01*
X159580952Y-152745771D02*
X159485714Y-152698152D01*
X159485714Y-152698152D02*
X159295238Y-152698152D01*
X159295238Y-152698152D02*
X159200000Y-152745771D01*
X159200000Y-152745771D02*
X159152381Y-152841009D01*
X159152381Y-152841009D02*
X159152381Y-152936247D01*
X159152381Y-152936247D02*
X159628571Y-153031485D01*
X158723809Y-152698152D02*
X158723809Y-153364819D01*
X158723809Y-152793390D02*
X158676190Y-152745771D01*
X158676190Y-152745771D02*
X158580952Y-152698152D01*
X158580952Y-152698152D02*
X158438095Y-152698152D01*
X158438095Y-152698152D02*
X158342857Y-152745771D01*
X158342857Y-152745771D02*
X158295238Y-152841009D01*
X158295238Y-152841009D02*
X158295238Y-153364819D01*
X157819047Y-152698152D02*
X157819047Y-153364819D01*
X157819047Y-152793390D02*
X157771428Y-152745771D01*
X157771428Y-152745771D02*
X157676190Y-152698152D01*
X157676190Y-152698152D02*
X157533333Y-152698152D01*
X157533333Y-152698152D02*
X157438095Y-152745771D01*
X157438095Y-152745771D02*
X157390476Y-152841009D01*
X157390476Y-152841009D02*
X157390476Y-153364819D01*
X156485714Y-153364819D02*
X156485714Y-152841009D01*
X156485714Y-152841009D02*
X156533333Y-152745771D01*
X156533333Y-152745771D02*
X156628571Y-152698152D01*
X156628571Y-152698152D02*
X156819047Y-152698152D01*
X156819047Y-152698152D02*
X156914285Y-152745771D01*
X156485714Y-153317200D02*
X156580952Y-153364819D01*
X156580952Y-153364819D02*
X156819047Y-153364819D01*
X156819047Y-153364819D02*
X156914285Y-153317200D01*
X156914285Y-153317200D02*
X156961904Y-153221961D01*
X156961904Y-153221961D02*
X156961904Y-153126723D01*
X156961904Y-153126723D02*
X156914285Y-153031485D01*
X156914285Y-153031485D02*
X156819047Y-152983866D01*
X156819047Y-152983866D02*
X156580952Y-152983866D01*
X156580952Y-152983866D02*
X156485714Y-152936247D01*
X155295237Y-153079104D02*
X154819047Y-153079104D01*
X155390475Y-153364819D02*
X155057142Y-152364819D01*
X155057142Y-152364819D02*
X154723809Y-153364819D01*
X154390475Y-153364819D02*
X154390475Y-152698152D01*
X154390475Y-152888628D02*
X154342856Y-152793390D01*
X154342856Y-152793390D02*
X154295237Y-152745771D01*
X154295237Y-152745771D02*
X154199999Y-152698152D01*
X154199999Y-152698152D02*
X154104761Y-152698152D01*
X153390475Y-153317200D02*
X153485713Y-153364819D01*
X153485713Y-153364819D02*
X153676189Y-153364819D01*
X153676189Y-153364819D02*
X153771427Y-153317200D01*
X153771427Y-153317200D02*
X153819046Y-153221961D01*
X153819046Y-153221961D02*
X153819046Y-152841009D01*
X153819046Y-152841009D02*
X153771427Y-152745771D01*
X153771427Y-152745771D02*
X153676189Y-152698152D01*
X153676189Y-152698152D02*
X153485713Y-152698152D01*
X153485713Y-152698152D02*
X153390475Y-152745771D01*
X153390475Y-152745771D02*
X153342856Y-152841009D01*
X153342856Y-152841009D02*
X153342856Y-152936247D01*
X153342856Y-152936247D02*
X153819046Y-153031485D01*
X152485713Y-153364819D02*
X152485713Y-152841009D01*
X152485713Y-152841009D02*
X152533332Y-152745771D01*
X152533332Y-152745771D02*
X152628570Y-152698152D01*
X152628570Y-152698152D02*
X152819046Y-152698152D01*
X152819046Y-152698152D02*
X152914284Y-152745771D01*
X152485713Y-153317200D02*
X152580951Y-153364819D01*
X152580951Y-153364819D02*
X152819046Y-153364819D01*
X152819046Y-153364819D02*
X152914284Y-153317200D01*
X152914284Y-153317200D02*
X152961903Y-153221961D01*
X152961903Y-153221961D02*
X152961903Y-153126723D01*
X152961903Y-153126723D02*
X152914284Y-153031485D01*
X152914284Y-153031485D02*
X152819046Y-152983866D01*
X152819046Y-152983866D02*
X152580951Y-152983866D01*
X152580951Y-152983866D02*
X152485713Y-152936247D01*
X159414285Y-79731009D02*
X159747618Y-79731009D01*
X159747618Y-80254819D02*
X159747618Y-79254819D01*
X159747618Y-79254819D02*
X159271428Y-79254819D01*
X158938094Y-79969104D02*
X158461904Y-79969104D01*
X159033332Y-80254819D02*
X158699999Y-79254819D01*
X158699999Y-79254819D02*
X158366666Y-80254819D01*
X158033332Y-80254819D02*
X158033332Y-79254819D01*
X158033332Y-79254819D02*
X157461904Y-80254819D01*
X157461904Y-80254819D02*
X157461904Y-79254819D01*
X156509523Y-79254819D02*
X156985713Y-79254819D01*
X156985713Y-79254819D02*
X157033332Y-79731009D01*
X157033332Y-79731009D02*
X156985713Y-79683390D01*
X156985713Y-79683390D02*
X156890475Y-79635771D01*
X156890475Y-79635771D02*
X156652380Y-79635771D01*
X156652380Y-79635771D02*
X156557142Y-79683390D01*
X156557142Y-79683390D02*
X156509523Y-79731009D01*
X156509523Y-79731009D02*
X156461904Y-79826247D01*
X156461904Y-79826247D02*
X156461904Y-80064342D01*
X156461904Y-80064342D02*
X156509523Y-80159580D01*
X156509523Y-80159580D02*
X156557142Y-80207200D01*
X156557142Y-80207200D02*
X156652380Y-80254819D01*
X156652380Y-80254819D02*
X156890475Y-80254819D01*
X156890475Y-80254819D02*
X156985713Y-80207200D01*
X156985713Y-80207200D02*
X157033332Y-80159580D01*
X156176189Y-79254819D02*
X155842856Y-80254819D01*
X155842856Y-80254819D02*
X155509523Y-79254819D01*
D12*
%TO.C,JP1*%
X182900000Y-116400000D02*
X182900000Y-119200000D01*
X182900000Y-119200000D02*
X180900000Y-119200000D01*
X180900000Y-116400000D02*
X182900000Y-116400000D01*
X180900000Y-119200000D02*
X180900000Y-116400000D01*
%TO.C,R23*%
X183140000Y-119660000D02*
X185060000Y-119660000D01*
X183140000Y-116800000D02*
X183140000Y-119660000D01*
X185060000Y-119660000D02*
X185060000Y-116800000D01*
%TO.C,R63*%
X122246359Y-89045000D02*
X122553641Y-89045000D01*
X122246359Y-89805000D02*
X122553641Y-89805000D01*
%TO.C,Q4*%
X175300000Y-82290000D02*
X175950000Y-82290000D01*
X175300000Y-85410000D02*
X175950000Y-85410000D01*
X176600000Y-82290000D02*
X175950000Y-82290000D01*
X176600000Y-85410000D02*
X175950000Y-85410000D01*
X175027500Y-85690000D02*
X174547500Y-85690000D01*
X174787500Y-85360000D01*
X175027500Y-85690000D01*
G36*
X175027500Y-85690000D02*
G01*
X174547500Y-85690000D01*
X174787500Y-85360000D01*
X175027500Y-85690000D01*
G37*
%TO.C,C32*%
X125342164Y-89590000D02*
X125557836Y-89590000D01*
X125342164Y-90310000D02*
X125557836Y-90310000D01*
%TO.C,C43*%
X126707836Y-66040000D02*
X126492164Y-66040000D01*
X126707836Y-66760000D02*
X126492164Y-66760000D01*
%TO.C,C19*%
X178756250Y-107403750D02*
X178756250Y-108191250D01*
X179150000Y-107797500D02*
X178362500Y-107797500D01*
X179390000Y-104890000D02*
X179390000Y-103604437D01*
X179390000Y-107010000D02*
X179390000Y-108295563D01*
X180454437Y-102540000D02*
X179390000Y-103604437D01*
X180454437Y-109360000D02*
X179390000Y-108295563D01*
X186210000Y-102540000D02*
X180454437Y-102540000D01*
X186210000Y-104890000D02*
X186210000Y-102540000D01*
X186210000Y-107010000D02*
X186210000Y-109360000D01*
X186210000Y-109360000D02*
X180454437Y-109360000D01*
%TO.C,R7*%
X121337258Y-117577500D02*
X120862742Y-117577500D01*
X121337258Y-118622500D02*
X120862742Y-118622500D01*
%TO.C,R50*%
X122553641Y-83120000D02*
X122246359Y-83120000D01*
X122553641Y-83880000D02*
X122246359Y-83880000D01*
%TO.C,R45*%
X161653641Y-84720000D02*
X161346359Y-84720000D01*
X161653641Y-85480000D02*
X161346359Y-85480000D01*
%TO.C,SW3*%
X195480000Y-144300000D02*
X195480000Y-142600000D01*
X195480000Y-145800000D02*
X195480000Y-145600000D01*
X196530000Y-147650000D02*
X197320000Y-147650000D01*
X197320000Y-140750000D02*
X196530000Y-140750000D01*
X198330000Y-144100000D02*
X199620000Y-144100000D01*
X198330000Y-147050000D02*
X198330000Y-141350000D01*
X199620000Y-142800000D02*
X198330000Y-142800000D01*
X199830000Y-143000000D02*
X199620000Y-142800000D01*
X199830000Y-143900000D02*
X199620000Y-144100000D01*
X199830000Y-143900000D02*
X199830000Y-143000000D01*
%TO.C,C84*%
X112334420Y-68590000D02*
X112615580Y-68590000D01*
X112334420Y-69610000D02*
X112615580Y-69610000D01*
%TO.C,C14*%
X176640000Y-99357836D02*
X176640000Y-99142164D01*
X177360000Y-99357836D02*
X177360000Y-99142164D01*
%TO.C,R60*%
X121146359Y-55220000D02*
X121453641Y-55220000D01*
X121146359Y-55980000D02*
X121453641Y-55980000D01*
%TO.C,C10*%
X110140000Y-101592164D02*
X110140000Y-101807836D01*
X110860000Y-101592164D02*
X110860000Y-101807836D01*
%TO.C,R69*%
X109820000Y-89103641D02*
X109820000Y-88796359D01*
X110580000Y-89103641D02*
X110580000Y-88796359D01*
%TO.C,R68*%
X110820000Y-88253641D02*
X110820000Y-87946359D01*
X111580000Y-88253641D02*
X111580000Y-87946359D01*
%TO.C,J17*%
D13*
X129450000Y-149975000D02*
X144450000Y-149975000D01*
X144450000Y-135475000D01*
X129450000Y-135475000D01*
X129450000Y-149975000D01*
D12*
%TO.C,C17*%
X184915000Y-89790000D02*
X184915000Y-93700000D01*
X186785000Y-89790000D02*
X184915000Y-89790000D01*
X186785000Y-93700000D02*
X186785000Y-89790000D01*
%TO.C,C12*%
X167742164Y-96490000D02*
X167957836Y-96490000D01*
X167742164Y-97210000D02*
X167957836Y-97210000D01*
%TO.C,R59*%
X115253641Y-55480000D02*
X114946359Y-55480000D01*
X115253641Y-56240000D02*
X114946359Y-56240000D01*
%TO.C,L4*%
X115500000Y-67400000D02*
X115500000Y-65900000D01*
X115500000Y-71200000D02*
X115500000Y-72700000D01*
X115500000Y-72700000D02*
X122900000Y-72700000D01*
X122900000Y-65900000D02*
X115500000Y-65900000D01*
X122900000Y-67400000D02*
X122900000Y-65900000D01*
X122900000Y-71200000D02*
X122900000Y-72700000D01*
%TO.C,SW2*%
X195450000Y-133300000D02*
X195450000Y-131600000D01*
X195450000Y-134800000D02*
X195450000Y-134600000D01*
X196500000Y-136650000D02*
X197290000Y-136650000D01*
X197290000Y-129750000D02*
X196500000Y-129750000D01*
X198300000Y-133100000D02*
X199590000Y-133100000D01*
X198300000Y-136050000D02*
X198300000Y-130350000D01*
X199590000Y-131800000D02*
X198300000Y-131800000D01*
X199800000Y-132000000D02*
X199590000Y-131800000D01*
X199800000Y-132900000D02*
X199590000Y-133100000D01*
X199800000Y-132900000D02*
X199800000Y-132000000D01*
%TO.C,C28*%
X134090000Y-108740580D02*
X134090000Y-108459420D01*
X135110000Y-108740580D02*
X135110000Y-108459420D01*
%TO.C,C36*%
X125342164Y-90540000D02*
X125557836Y-90540000D01*
X125342164Y-91260000D02*
X125557836Y-91260000D01*
%TO.C,C1*%
X140840580Y-115190000D02*
X140559420Y-115190000D01*
X140840580Y-116210000D02*
X140559420Y-116210000D01*
%TO.C,C54*%
X120842164Y-98390000D02*
X121057836Y-98390000D01*
X120842164Y-99110000D02*
X121057836Y-99110000D01*
%TO.C,C25*%
X138860000Y-74107836D02*
X138860000Y-73892164D01*
X138140000Y-74107836D02*
X138140000Y-73892164D01*
%TO.C,R3*%
X140937258Y-116677500D02*
X140462742Y-116677500D01*
X140937258Y-117722500D02*
X140462742Y-117722500D01*
%TO.C,R18*%
X109753641Y-129220000D02*
X109446359Y-129220000D01*
X109753641Y-129980000D02*
X109446359Y-129980000D01*
%TO.C,LS2*%
X145500000Y-95300000D02*
X154500000Y-95300000D01*
X145500000Y-97300000D02*
X154500000Y-97300000D01*
X145500000Y-108300000D02*
X154500000Y-108300000D01*
X145500000Y-110300000D02*
X154500000Y-110300000D01*
X145500000Y-108300000D02*
G75*
G02*
X145500000Y-97300000I0J5500000D01*
G01*
X145500000Y-110300000D02*
G75*
G02*
X145500000Y-95300000I0J7500000D01*
G01*
X154500000Y-95300000D02*
G75*
G02*
X154500000Y-110300000I0J-7500000D01*
G01*
X154500000Y-97300000D02*
G75*
G02*
X154500000Y-108300000I0J-5500000D01*
G01*
%TO.C,D20*%
X156190000Y-91700000D02*
X156190000Y-93400000D01*
X158850000Y-91700000D02*
X156190000Y-91700000D01*
X158850000Y-93400000D02*
X156190000Y-93400000D01*
%TO.C,C45*%
X157407836Y-90740000D02*
X157192164Y-90740000D01*
X157407836Y-91460000D02*
X157192164Y-91460000D01*
%TO.C,R65*%
X122553641Y-80920000D02*
X122246359Y-80920000D01*
X122553641Y-81680000D02*
X122246359Y-81680000D01*
%TO.C,R54*%
X186453641Y-118420000D02*
X186146359Y-118420000D01*
X186453641Y-119180000D02*
X186146359Y-119180000D01*
%TO.C,R55*%
X190770000Y-110303641D02*
X190770000Y-109996359D01*
X191530000Y-110303641D02*
X191530000Y-109996359D01*
D11*
%TO.C,J14*%
X187925000Y-102100000D02*
X187925000Y-107000000D01*
X187925000Y-107000000D02*
X189175000Y-107000000D01*
X189675000Y-101000000D02*
X193475000Y-101000000D01*
X191375000Y-107000000D02*
X196175000Y-107000000D01*
X195675000Y-101000000D02*
X197175000Y-101000000D01*
X198375000Y-107000000D02*
X199975000Y-107000000D01*
X199975000Y-101000000D02*
X199375000Y-101000000D01*
D12*
%TO.C,C29*%
X119790000Y-120540580D02*
X119790000Y-120259420D01*
X120810000Y-120540580D02*
X120810000Y-120259420D01*
%TO.C,U8*%
X132200000Y-123840000D02*
X133000000Y-123840000D01*
X132200000Y-126960000D02*
X133000000Y-126960000D01*
X133800000Y-126960000D02*
X133000000Y-126960000D01*
X134800000Y-123840000D02*
X133000000Y-123840000D01*
%TO.C,D13*%
X178250000Y-84450000D02*
X178250000Y-81790000D01*
X179950000Y-81790000D02*
X178250000Y-81790000D01*
X179950000Y-84450000D02*
X179950000Y-81790000D01*
%TO.C,LS1*%
X179690000Y-90740000D02*
X179690000Y-92800000D01*
X179690000Y-94860000D02*
X179690000Y-93800000D01*
X180750000Y-94860000D02*
X179690000Y-94860000D01*
X181810000Y-90740000D02*
X179690000Y-90740000D01*
X181810000Y-90740000D02*
X181810000Y-92800000D01*
X181810000Y-92800000D02*
X179690000Y-92800000D01*
%TO.C,C35*%
X124240000Y-81792164D02*
X124240000Y-82007836D01*
X124960000Y-81792164D02*
X124960000Y-82007836D01*
%TO.C,C47*%
X137742164Y-90840000D02*
X137957836Y-90840000D01*
X137742164Y-91560000D02*
X137957836Y-91560000D01*
%TO.C,C80*%
X121588748Y-63590000D02*
X123011252Y-63590000D01*
X121588748Y-65410000D02*
X123011252Y-65410000D01*
%TO.C,R24*%
X174946359Y-100620000D02*
X175253641Y-100620000D01*
X174946359Y-101380000D02*
X175253641Y-101380000D01*
%TO.C,C60*%
X171092164Y-74940000D02*
X171307836Y-74940000D01*
X171092164Y-75660000D02*
X171307836Y-75660000D01*
%TO.C,J13*%
X100000000Y-67350000D02*
X100000000Y-76350000D01*
X100000000Y-67350000D02*
X101350000Y-67350000D01*
X100000000Y-76350000D02*
X101350000Y-76350000D01*
X104050000Y-67350000D02*
X105050000Y-67350000D01*
X104050000Y-76350000D02*
X105050000Y-76350000D01*
%TO.C,R28*%
X121337258Y-116077500D02*
X120862742Y-116077500D01*
X121337258Y-117122500D02*
X120862742Y-117122500D01*
%TO.C,C26*%
X137640000Y-133107836D02*
X137640000Y-132892164D01*
X138360000Y-133107836D02*
X138360000Y-132892164D01*
%TO.C,C31*%
X131090000Y-108740580D02*
X131090000Y-108459420D01*
X132110000Y-108740580D02*
X132110000Y-108459420D01*
%TO.C,U10*%
X169215000Y-94640000D02*
X169215000Y-95115000D01*
X169215000Y-99860000D02*
X169215000Y-99385000D01*
X169690000Y-94640000D02*
X169215000Y-94640000D01*
X169690000Y-99860000D02*
X169215000Y-99860000D01*
X173960000Y-94640000D02*
X174435000Y-94640000D01*
X174195000Y-99860000D02*
X173960000Y-99860000D01*
X174435000Y-94640000D02*
X174435000Y-95115000D01*
X174435000Y-99560000D02*
X174435000Y-99385000D01*
X174765000Y-100100000D02*
X174435000Y-99860000D01*
X174765000Y-99620000D01*
X174765000Y-100100000D01*
G36*
X174765000Y-100100000D02*
G01*
X174435000Y-99860000D01*
X174765000Y-99620000D01*
X174765000Y-100100000D01*
G37*
%TO.C,C53*%
X170340000Y-145327836D02*
X170340000Y-145112164D01*
X171060000Y-145327836D02*
X171060000Y-145112164D01*
%TO.C,FB1*%
X177990000Y-101862779D02*
X177990000Y-101537221D01*
X179010000Y-101862779D02*
X179010000Y-101537221D01*
%TO.C,C27*%
X144590000Y-114057836D02*
X144590000Y-113842164D01*
X145310000Y-114057836D02*
X145310000Y-113842164D01*
%TO.C,C20*%
X182415000Y-110350000D02*
X182415000Y-114260000D01*
X182415000Y-114260000D02*
X184285000Y-114260000D01*
X184285000Y-114260000D02*
X184285000Y-110350000D01*
%TO.C,C59*%
X168492164Y-58040000D02*
X168707836Y-58040000D01*
X168492164Y-58760000D02*
X168707836Y-58760000D01*
%TO.C,C23*%
X172115000Y-101550000D02*
X172115000Y-105460000D01*
X172115000Y-105460000D02*
X173985000Y-105460000D01*
X173985000Y-105460000D02*
X173985000Y-101550000D01*
%TO.C,R58*%
X146020000Y-137703641D02*
X146020000Y-137396359D01*
X146780000Y-137703641D02*
X146780000Y-137396359D01*
%TO.C,C56*%
X117659420Y-143690000D02*
X117940580Y-143690000D01*
X117659420Y-144710000D02*
X117940580Y-144710000D01*
%TO.C,C48*%
X151992164Y-90840000D02*
X152207836Y-90840000D01*
X151992164Y-91560000D02*
X152207836Y-91560000D01*
%TO.C,C22*%
X175640000Y-99492164D02*
X175640000Y-99707836D01*
X176360000Y-99492164D02*
X176360000Y-99707836D01*
%TO.C,R35*%
X161420000Y-86653641D02*
X161420000Y-86346359D01*
X162180000Y-86653641D02*
X162180000Y-86346359D01*
%TO.C,SW10*%
X100170000Y-89650000D02*
X100170000Y-90550000D01*
X100170000Y-89650000D02*
X100380000Y-89450000D01*
X100170000Y-90550000D02*
X100380000Y-90750000D01*
X100380000Y-90750000D02*
X101670000Y-90750000D01*
X101670000Y-86500000D02*
X101670000Y-92200000D01*
X101670000Y-89450000D02*
X100380000Y-89450000D01*
X102680000Y-92800000D02*
X103470000Y-92800000D01*
X103470000Y-85900000D02*
X102680000Y-85900000D01*
X104520000Y-87750000D02*
X104520000Y-87950000D01*
X104520000Y-89250000D02*
X104520000Y-90950000D01*
%TO.C,D3*%
X180465000Y-139395000D02*
X181265000Y-139395000D01*
X180465000Y-140325000D02*
X180465000Y-139395000D01*
X180465000Y-141625000D02*
X180465000Y-142555000D01*
X181925000Y-142555000D02*
X180465000Y-142555000D01*
X182065000Y-139395000D02*
X181265000Y-139395000D01*
X182565000Y-139365000D02*
X182325000Y-139035000D01*
X182805000Y-139035000D01*
X182565000Y-139365000D01*
G36*
X182565000Y-139365000D02*
G01*
X182325000Y-139035000D01*
X182805000Y-139035000D01*
X182565000Y-139365000D01*
G37*
%TO.C,C16*%
X182765000Y-89790000D02*
X182765000Y-93700000D01*
X184635000Y-89790000D02*
X182765000Y-89790000D01*
X184635000Y-93700000D02*
X184635000Y-89790000D01*
%TO.C,R39*%
X168520000Y-92053641D02*
X168520000Y-91746359D01*
X169280000Y-92053641D02*
X169280000Y-91746359D01*
%TO.C,C83*%
X112359420Y-67090000D02*
X112640580Y-67090000D01*
X112359420Y-68110000D02*
X112640580Y-68110000D01*
%TO.C,C15*%
X175807836Y-94840000D02*
X175592164Y-94840000D01*
X175807836Y-95560000D02*
X175592164Y-95560000D01*
%TO.C,C24*%
X177400000Y-90185000D02*
X181310000Y-90185000D01*
X181310000Y-88315000D02*
X177400000Y-88315000D01*
X181310000Y-90185000D02*
X181310000Y-88315000D01*
%TO.C,R15*%
X135090000Y-52072936D02*
X135090000Y-53527064D01*
X136910000Y-52072936D02*
X136910000Y-53527064D01*
%TO.C,U27*%
X120390000Y-57800000D02*
X120390000Y-59600000D01*
X123610000Y-57800000D02*
X123610000Y-58600000D01*
X123610000Y-59400000D02*
X123610000Y-58600000D01*
X123890000Y-60140000D02*
X123560000Y-59900000D01*
X123890000Y-59660000D01*
X123890000Y-60140000D01*
G36*
X123890000Y-60140000D02*
G01*
X123560000Y-59900000D01*
X123890000Y-59660000D01*
X123890000Y-60140000D01*
G37*
%TO.C,R10*%
X110153641Y-102720000D02*
X109846359Y-102720000D01*
X110153641Y-103480000D02*
X109846359Y-103480000D01*
%TO.C,C30*%
X132590000Y-108740580D02*
X132590000Y-108459420D01*
X133610000Y-108740580D02*
X133610000Y-108459420D01*
%TO.C,U12*%
X119200000Y-148500000D02*
X118200000Y-148500000D01*
X119200000Y-149500000D02*
X119200000Y-148500000D01*
X121200000Y-146500000D02*
X118200000Y-146500000D01*
X118200000Y-149500000D01*
X121200000Y-149500000D01*
X121200000Y-146500000D01*
X120200000Y-148500000D02*
G75*
G02*
X119200000Y-148500000I-500000J0D01*
G01*
X119200000Y-148500000D02*
G75*
G02*
X120200000Y-148500000I500000J0D01*
G01*
%TO.C,R62*%
X151453641Y-113220000D02*
X151146359Y-113220000D01*
X151453641Y-113980000D02*
X151146359Y-113980000D01*
D11*
%TO.C,U1*%
X179625000Y-138355000D02*
X181025000Y-138355000D01*
X181025000Y-133495000D02*
X181025000Y-133350000D01*
X181025000Y-138355000D02*
X181025000Y-138500000D01*
X185175000Y-133350000D02*
X181025000Y-133350000D01*
X185175000Y-133495000D02*
X185175000Y-133350000D01*
X185175000Y-138355000D02*
X185175000Y-138500000D01*
X185175000Y-138500000D02*
X181025000Y-138500000D01*
D12*
%TO.C,C49*%
X127742164Y-89590000D02*
X127957836Y-89590000D01*
X127742164Y-90310000D02*
X127957836Y-90310000D01*
%TO.C,U5*%
X125590000Y-81590000D02*
X126065000Y-81590000D01*
X125590000Y-82065000D02*
X125590000Y-81590000D01*
X125590000Y-88335000D02*
X125590000Y-88810000D01*
X125590000Y-88810000D02*
X126065000Y-88810000D01*
X132510000Y-81590000D02*
X132335000Y-81590000D01*
X132810000Y-81830000D02*
X132810000Y-82065000D01*
X132810000Y-88335000D02*
X132810000Y-88810000D01*
X132810000Y-88810000D02*
X132335000Y-88810000D01*
X132810000Y-81590000D02*
X132570000Y-81260000D01*
X133050000Y-81260000D01*
X132810000Y-81590000D01*
G36*
X132810000Y-81590000D02*
G01*
X132570000Y-81260000D01*
X133050000Y-81260000D01*
X132810000Y-81590000D01*
G37*
D11*
%TO.C,J16*%
X187925000Y-113100000D02*
X187925000Y-118000000D01*
X187925000Y-118000000D02*
X189175000Y-118000000D01*
X189675000Y-112000000D02*
X193475000Y-112000000D01*
X191375000Y-118000000D02*
X196175000Y-118000000D01*
X195675000Y-112000000D02*
X197175000Y-112000000D01*
X198375000Y-118000000D02*
X199975000Y-118000000D01*
X199975000Y-112000000D02*
X199375000Y-112000000D01*
D12*
%TO.C,J11*%
X100615000Y-140260000D02*
X100615000Y-144140000D01*
X105085000Y-139090000D02*
X102585000Y-139090000D01*
X105085000Y-140140000D02*
X105085000Y-139090000D01*
X105085000Y-144260000D02*
X105085000Y-145310000D01*
X105085000Y-145310000D02*
X102585000Y-145310000D01*
X106075000Y-144260000D02*
X105085000Y-144260000D01*
%TO.C,U9*%
X117140000Y-98190000D02*
X117140000Y-98565000D01*
X117140000Y-101110000D02*
X117140000Y-100435000D01*
X117315000Y-101110000D02*
X117140000Y-101110000D01*
X119685000Y-97890000D02*
X119860000Y-97890000D01*
X119685000Y-101110000D02*
X119860000Y-101110000D01*
X119860000Y-97890000D02*
X119860000Y-98565000D01*
X119860000Y-101110000D02*
X119860000Y-100435000D01*
X117140000Y-97890000D02*
X116950000Y-98030000D01*
X116950000Y-97750000D01*
X117140000Y-97890000D01*
G36*
X117140000Y-97890000D02*
G01*
X116950000Y-98030000D01*
X116950000Y-97750000D01*
X117140000Y-97890000D01*
G37*
%TO.C,U4*%
X148200000Y-130410000D02*
X148200000Y-131160000D01*
X148200000Y-149160000D02*
X148200000Y-155910000D01*
X148200000Y-149970000D02*
X166200000Y-149970000D01*
X149200000Y-130410000D02*
X148200000Y-130410000D01*
X165200000Y-130410000D02*
X166200000Y-130410000D01*
X166200000Y-130410000D02*
X166200000Y-131160000D01*
X166200000Y-149160000D02*
X166200000Y-155910000D01*
X166200000Y-155910000D02*
X148200000Y-155910000D01*
%TO.C,R43*%
X146320000Y-145053641D02*
X146320000Y-144746359D01*
X147080000Y-145053641D02*
X147080000Y-144746359D01*
%TO.C,R30*%
X188120000Y-71853641D02*
X188120000Y-71546359D01*
X188880000Y-71853641D02*
X188880000Y-71546359D01*
%TO.C,C18*%
X178756250Y-100303750D02*
X178756250Y-101091250D01*
X179150000Y-100697500D02*
X178362500Y-100697500D01*
X179390000Y-97790000D02*
X179390000Y-96504437D01*
X179390000Y-99910000D02*
X179390000Y-101195563D01*
X180454437Y-95440000D02*
X179390000Y-96504437D01*
X180454437Y-102260000D02*
X179390000Y-101195563D01*
X186210000Y-95440000D02*
X180454437Y-95440000D01*
X186210000Y-97790000D02*
X186210000Y-95440000D01*
X186210000Y-99910000D02*
X186210000Y-102260000D01*
X186210000Y-102260000D02*
X180454437Y-102260000D01*
%TO.C,Y1*%
X136100000Y-86200000D02*
X140100000Y-86200000D01*
X140100000Y-86200000D02*
X140100000Y-82900000D01*
%TO.C,L1*%
X119250000Y-110300000D02*
X119250000Y-108800000D01*
X119250000Y-114100000D02*
X119250000Y-115600000D01*
X119250000Y-115600000D02*
X126650000Y-115600000D01*
X126650000Y-108800000D02*
X119250000Y-108800000D01*
X126650000Y-110300000D02*
X126650000Y-108800000D01*
X126650000Y-114100000D02*
X126650000Y-115600000D01*
%TO.C,Q3*%
X144460000Y-52960000D02*
X141920000Y-52960000D01*
X144460000Y-55500000D02*
X141920000Y-55500000D01*
X144460000Y-58040000D02*
X141920000Y-58040000D01*
X144460000Y-60620000D02*
X144460000Y-50380000D01*
X153950000Y-50380000D02*
X144460000Y-50380000D01*
X153950000Y-60620000D02*
X144460000Y-60620000D01*
X153950000Y-60620000D02*
X153950000Y-50380000D01*
X155390000Y-50380000D02*
X154190000Y-50380000D01*
X155390000Y-60620000D02*
X154190000Y-60620000D01*
X157790000Y-50380000D02*
X156590000Y-50380000D01*
X157790000Y-60620000D02*
X156590000Y-60620000D01*
X160190000Y-50380000D02*
X158990000Y-50380000D01*
X160190000Y-60620000D02*
X158990000Y-60620000D01*
X160350000Y-51580000D02*
X160350000Y-50380000D01*
X160350000Y-53980000D02*
X160350000Y-52779000D01*
X160350000Y-56380000D02*
X160350000Y-55180000D01*
X160350000Y-58780000D02*
X160350000Y-57580000D01*
X160350000Y-60620000D02*
X160350000Y-59980000D01*
%TO.C,J7*%
X154165000Y-80715000D02*
X154165000Y-88335000D01*
X154165000Y-88335000D02*
X160135000Y-88335000D01*
X154925000Y-81475000D02*
X157875000Y-81475000D01*
X154925000Y-84525000D02*
X154925000Y-81475000D01*
X154925000Y-84525000D02*
X154925000Y-87575000D01*
X154925000Y-87575000D02*
X157875000Y-87575000D01*
X157875000Y-81475000D02*
X157875000Y-80725000D01*
X157875000Y-87575000D02*
X157875000Y-88325000D01*
X159175000Y-88625000D02*
X160425000Y-88625000D01*
X159375000Y-80725000D02*
X159375000Y-82525000D01*
X159375000Y-82525000D02*
X160125000Y-82525000D01*
X159375000Y-84025000D02*
X159375000Y-85025000D01*
X159375000Y-85025000D02*
X160125000Y-85025000D01*
X159375000Y-86525000D02*
X159375000Y-88325000D01*
X159375000Y-88325000D02*
X160125000Y-88325000D01*
X160125000Y-80725000D02*
X159375000Y-80725000D01*
X160125000Y-82525000D02*
X160125000Y-80725000D01*
X160125000Y-84025000D02*
X159375000Y-84025000D01*
X160125000Y-85025000D02*
X160125000Y-84025000D01*
X160125000Y-86525000D02*
X159375000Y-86525000D01*
X160125000Y-88325000D02*
X160125000Y-86525000D01*
X160135000Y-80715000D02*
X154165000Y-80715000D01*
X160135000Y-88335000D02*
X160135000Y-80715000D01*
X160425000Y-88625000D02*
X160425000Y-87375000D01*
%TO.C,R22*%
X177446359Y-57120000D02*
X177753641Y-57120000D01*
X177446359Y-57880000D02*
X177753641Y-57880000D01*
%TO.C,C34*%
X133440000Y-81792164D02*
X133440000Y-82007836D01*
X134160000Y-81792164D02*
X134160000Y-82007836D01*
%TO.C,R37*%
X171996359Y-108120000D02*
X172303641Y-108120000D01*
X171996359Y-108880000D02*
X172303641Y-108880000D01*
D11*
%TO.C,J3*%
X187925000Y-91100000D02*
X187925000Y-96000000D01*
X187925000Y-96000000D02*
X189175000Y-96000000D01*
X189675000Y-90000000D02*
X193475000Y-90000000D01*
X191375000Y-96000000D02*
X196175000Y-96000000D01*
X195675000Y-90000000D02*
X197175000Y-90000000D01*
X198375000Y-96000000D02*
X199975000Y-96000000D01*
X199975000Y-90000000D02*
X199375000Y-90000000D01*
D12*
%TO.C,R40*%
X170253641Y-134420000D02*
X169946359Y-134420000D01*
X170253641Y-135180000D02*
X169946359Y-135180000D01*
%TO.C,C37*%
X127742164Y-90540000D02*
X127957836Y-90540000D01*
X127742164Y-91260000D02*
X127957836Y-91260000D01*
%TO.C,BT1*%
X110700000Y-117550000D02*
X188700000Y-117550000D01*
X110700000Y-137650000D02*
X110700000Y-117550000D01*
X188700000Y-117550000D02*
X188700000Y-137650000D01*
X188700000Y-137650000D02*
X110700000Y-137650000D01*
%TO.C,R8*%
X185346359Y-131520000D02*
X185653641Y-131520000D01*
X185346359Y-132280000D02*
X185653641Y-132280000D01*
%TO.C,R12*%
X132846359Y-56220000D02*
X133153641Y-56220000D01*
X132846359Y-56980000D02*
X133153641Y-56980000D01*
%TO.C,C62*%
X171915000Y-87990000D02*
X171915000Y-91900000D01*
X173785000Y-87990000D02*
X171915000Y-87990000D01*
X173785000Y-91900000D02*
X173785000Y-87990000D01*
%TO.C,C58*%
X128292164Y-100340000D02*
X128507836Y-100340000D01*
X128292164Y-101060000D02*
X128507836Y-101060000D01*
%TO.C,R53*%
X173253641Y-76120000D02*
X172946359Y-76120000D01*
X173253641Y-76880000D02*
X172946359Y-76880000D01*
%TO.C,R61*%
X135420000Y-133153641D02*
X135420000Y-132846359D01*
X136180000Y-133153641D02*
X136180000Y-132846359D01*
%TO.C,C5*%
X167840000Y-142392164D02*
X167840000Y-142607836D01*
X168560000Y-142392164D02*
X168560000Y-142607836D01*
%TO.C,C9*%
X110140000Y-97892164D02*
X110140000Y-98107836D01*
X110860000Y-97892164D02*
X110860000Y-98107836D01*
%TO.C,R25*%
X188353641Y-118420000D02*
X188046359Y-118420000D01*
X188353641Y-119180000D02*
X188046359Y-119180000D01*
%TO.C,C21*%
X176557836Y-95790000D02*
X176342164Y-95790000D01*
X176557836Y-96510000D02*
X176342164Y-96510000D01*
%TO.C,R4*%
X128446359Y-117320000D02*
X128753641Y-117320000D01*
X128446359Y-118080000D02*
X128753641Y-118080000D01*
%TO.C,R49*%
X135153641Y-85020000D02*
X134846359Y-85020000D01*
X135153641Y-85780000D02*
X134846359Y-85780000D01*
%TO.C,Q5*%
X160740000Y-82050000D02*
X160740000Y-82700000D01*
X160740000Y-83350000D02*
X160740000Y-82700000D01*
X163860000Y-82050000D02*
X163860000Y-82700000D01*
X163860000Y-83350000D02*
X163860000Y-82700000D01*
X164140000Y-84102500D02*
X163810000Y-83862500D01*
X164140000Y-83622500D01*
X164140000Y-84102500D01*
G36*
X164140000Y-84102500D02*
G01*
X163810000Y-83862500D01*
X164140000Y-83622500D01*
X164140000Y-84102500D01*
G37*
%TO.C,R19*%
X109853641Y-126420000D02*
X109546359Y-126420000D01*
X109853641Y-127180000D02*
X109546359Y-127180000D01*
%TO.C,C41*%
X126727836Y-63740000D02*
X126512164Y-63740000D01*
X126727836Y-64460000D02*
X126512164Y-64460000D01*
%TO.C,C7*%
X121390000Y-120540580D02*
X121390000Y-120259420D01*
X122410000Y-120540580D02*
X122410000Y-120259420D01*
%TO.C,R21*%
X189020000Y-148243641D02*
X189020000Y-147936359D01*
X189780000Y-148243641D02*
X189780000Y-147936359D01*
%TO.C,R67*%
X135353641Y-80620000D02*
X135046359Y-80620000D01*
X135353641Y-81380000D02*
X135046359Y-81380000D01*
%TO.C,U11*%
X133910000Y-63490000D02*
X130150000Y-63490000D01*
X133910000Y-64750000D02*
X133910000Y-63490000D01*
X133910000Y-69050000D02*
X133910000Y-70310000D01*
X133910000Y-70310000D02*
X130150000Y-70310000D01*
X129110000Y-70540000D02*
X128630000Y-70540000D01*
X128870000Y-70210000D01*
X129110000Y-70540000D01*
G36*
X129110000Y-70540000D02*
G01*
X128630000Y-70540000D01*
X128870000Y-70210000D01*
X129110000Y-70540000D01*
G37*
%TO.C,R11*%
X172095000Y-85746359D02*
X172095000Y-86053641D01*
X172855000Y-85746359D02*
X172855000Y-86053641D01*
%TO.C,C50*%
X140340000Y-84657836D02*
X140340000Y-84442164D01*
X141060000Y-84657836D02*
X141060000Y-84442164D01*
%TO.C,D2*%
X181220000Y-131100000D02*
X181220000Y-129640000D01*
X182150000Y-129640000D02*
X181220000Y-129640000D01*
X183450000Y-129640000D02*
X184380000Y-129640000D01*
X184380000Y-129640000D02*
X184380000Y-130440000D01*
X184380000Y-131240000D02*
X184380000Y-130440000D01*
X184740000Y-131980000D02*
X184410000Y-131740000D01*
X184740000Y-131500000D01*
X184740000Y-131980000D01*
G36*
X184740000Y-131980000D02*
G01*
X184410000Y-131740000D01*
X184740000Y-131500000D01*
X184740000Y-131980000D01*
G37*
%TO.C,R26*%
X169571359Y-93270000D02*
X169878641Y-93270000D01*
X169571359Y-94030000D02*
X169878641Y-94030000D01*
%TO.C,R51*%
X130596359Y-95620000D02*
X130903641Y-95620000D01*
X130596359Y-96380000D02*
X130903641Y-96380000D01*
D13*
%TO.C,U14*%
X126550000Y-102040000D02*
X126550000Y-101400000D01*
X126550000Y-103400000D02*
X126550000Y-102960000D01*
X126700000Y-101400000D02*
X126550000Y-101400000D01*
X129125000Y-101425000D02*
X128975000Y-101425000D01*
X129250000Y-102040000D02*
X129250000Y-101400000D01*
X129250000Y-103600000D02*
X129100000Y-103600000D01*
X129250000Y-103600000D02*
X129250000Y-102960000D01*
X126550000Y-103960000D02*
X126190000Y-103600000D01*
X126550000Y-103600000D01*
X126550000Y-103960000D01*
G36*
X126550000Y-103960000D02*
G01*
X126190000Y-103600000D01*
X126550000Y-103600000D01*
X126550000Y-103960000D01*
G37*
D12*
%TO.C,C33*%
X132507836Y-80240000D02*
X132292164Y-80240000D01*
X132507836Y-80960000D02*
X132292164Y-80960000D01*
%TO.C,K1*%
X180400000Y-85360000D02*
X180410000Y-78700000D01*
X180900000Y-85360000D02*
X180400000Y-85360000D01*
X180910000Y-78100000D02*
X180910000Y-78700000D01*
X180910000Y-78700000D02*
X180410000Y-78700000D01*
X182410000Y-78100000D02*
X182410000Y-78700000D01*
X182410000Y-78700000D02*
X183810000Y-78700000D01*
X183900000Y-85360000D02*
X182500000Y-85360000D01*
X185500000Y-78660000D02*
X186300000Y-78660000D01*
X186300000Y-85360000D02*
X185500000Y-85360000D01*
X187900000Y-78660000D02*
X188500000Y-78660000D01*
X188500000Y-85360000D02*
X187900000Y-85360000D01*
X190100000Y-78660000D02*
X190600000Y-78660000D01*
X190600000Y-78660000D02*
X190600000Y-85360000D01*
X190600000Y-85360000D02*
X190100000Y-85360000D01*
%TO.C,R48*%
X123046359Y-55220000D02*
X123353641Y-55220000D01*
X123046359Y-55980000D02*
X123353641Y-55980000D01*
%TO.C,C2*%
X146540000Y-148007836D02*
X146540000Y-147792164D01*
X147260000Y-148007836D02*
X147260000Y-147792164D01*
%TO.C,U3*%
X115290000Y-80240000D02*
X117600000Y-80240000D01*
X115290000Y-80515000D02*
X115290000Y-80240000D01*
X115290000Y-89885000D02*
X115290000Y-90160000D01*
X115290000Y-90160000D02*
X117600000Y-90160000D01*
X119910000Y-80240000D02*
X117600000Y-80240000D01*
X119910000Y-80515000D02*
X119910000Y-80240000D01*
X119910000Y-89885000D02*
X119910000Y-90160000D01*
X119910000Y-90160000D02*
X117600000Y-90160000D01*
X114940000Y-90215000D02*
X114460000Y-90215000D01*
X114700000Y-89885000D01*
X114940000Y-90215000D01*
G36*
X114940000Y-90215000D02*
G01*
X114460000Y-90215000D01*
X114700000Y-89885000D01*
X114940000Y-90215000D01*
G37*
%TO.C,R1*%
X183946359Y-148520000D02*
X184253641Y-148520000D01*
X183946359Y-149280000D02*
X184253641Y-149280000D01*
%TO.C,C81*%
X123940000Y-57407836D02*
X123940000Y-57192164D01*
X124660000Y-57407836D02*
X124660000Y-57192164D01*
%TO.C,R52*%
X122553641Y-81920000D02*
X122246359Y-81920000D01*
X122553641Y-82680000D02*
X122246359Y-82680000D01*
%TO.C,U17*%
X159970000Y-65900000D02*
X159970000Y-62300000D01*
X155670000Y-63280000D02*
G75*
G02*
X159961741Y-62288125I2450000J-820000D01*
G01*
X159947684Y-65908445D02*
G75*
G02*
X155670000Y-64880000I-1827684J1808445D01*
G01*
%TO.C,R20*%
X187590000Y-132472936D02*
X187590000Y-133927064D01*
X189410000Y-132472936D02*
X189410000Y-133927064D01*
%TO.C,C3*%
X187440000Y-138392164D02*
X187440000Y-138607836D01*
X188160000Y-138392164D02*
X188160000Y-138607836D01*
%TO.C,R34*%
X118996359Y-75670000D02*
X119303641Y-75670000D01*
X118996359Y-76430000D02*
X119303641Y-76430000D01*
%TO.C,J5*%
X100050000Y-124100000D02*
X100050000Y-133100000D01*
X100050000Y-124100000D02*
X101400000Y-124100000D01*
X100050000Y-133100000D02*
X101400000Y-133100000D01*
X104100000Y-124100000D02*
X105100000Y-124100000D01*
X104100000Y-133100000D02*
X105100000Y-133100000D01*
%TO.C,C55*%
X120842164Y-100340000D02*
X121057836Y-100340000D01*
X120842164Y-101060000D02*
X121057836Y-101060000D01*
%TO.C,R64*%
X130596359Y-94320000D02*
X130903641Y-94320000D01*
X130596359Y-95080000D02*
X130903641Y-95080000D01*
%TO.C,R41*%
X171046359Y-146220000D02*
X171353641Y-146220000D01*
X171046359Y-146980000D02*
X171353641Y-146980000D01*
%TO.C,Q2*%
X187340000Y-66450000D02*
X187340000Y-67100000D01*
X187340000Y-67750000D02*
X187340000Y-67100000D01*
X190460000Y-66450000D02*
X190460000Y-67100000D01*
X190460000Y-67750000D02*
X190460000Y-67100000D01*
X190740000Y-68502500D02*
X190410000Y-68262500D01*
X190740000Y-68022500D01*
X190740000Y-68502500D01*
G36*
X190740000Y-68502500D02*
G01*
X190410000Y-68262500D01*
X190740000Y-68022500D01*
X190740000Y-68502500D01*
G37*
%TO.C,R36*%
X173996359Y-108120000D02*
X174303641Y-108120000D01*
X173996359Y-108880000D02*
X174303641Y-108880000D01*
%TO.C,C38*%
X112840000Y-89192164D02*
X112840000Y-89407836D01*
X113560000Y-89192164D02*
X113560000Y-89407836D01*
%TO.C,R57*%
X138820000Y-133128641D02*
X138820000Y-132821359D01*
X139580000Y-133128641D02*
X139580000Y-132821359D01*
%TO.C,C44*%
X126492164Y-67040000D02*
X126707836Y-67040000D01*
X126492164Y-67760000D02*
X126707836Y-67760000D01*
%TO.C,R42*%
X184120000Y-122503641D02*
X184120000Y-122196359D01*
X184880000Y-122503641D02*
X184880000Y-122196359D01*
%TO.C,R2*%
X146246359Y-145920000D02*
X146553641Y-145920000D01*
X146246359Y-146680000D02*
X146553641Y-146680000D01*
%TO.C,R14*%
X110153641Y-99020000D02*
X109846359Y-99020000D01*
X110153641Y-99780000D02*
X109846359Y-99780000D01*
%TO.C,C79*%
X121359420Y-62090000D02*
X121640580Y-62090000D01*
X121359420Y-63110000D02*
X121640580Y-63110000D01*
%TO.C,R56*%
X136420000Y-133143641D02*
X136420000Y-132836359D01*
X137180000Y-133143641D02*
X137180000Y-132836359D01*
%TO.C,Q1*%
X135250000Y-55240000D02*
X135900000Y-55240000D01*
X135250000Y-58360000D02*
X135900000Y-58360000D01*
X136550000Y-55240000D02*
X135900000Y-55240000D01*
X136550000Y-58360000D02*
X135900000Y-58360000D01*
X137062500Y-55290000D02*
X136822500Y-54960000D01*
X137302500Y-54960000D01*
X137062500Y-55290000D01*
G36*
X137062500Y-55290000D02*
G01*
X136822500Y-54960000D01*
X137302500Y-54960000D01*
X137062500Y-55290000D01*
G37*
%TO.C,C42*%
X126512164Y-64740000D02*
X126727836Y-64740000D01*
X126512164Y-65460000D02*
X126727836Y-65460000D01*
%TO.C,C40*%
X169892164Y-118240000D02*
X170107836Y-118240000D01*
X169892164Y-118960000D02*
X170107836Y-118960000D01*
%TO.C,C8*%
X110860000Y-95807836D02*
X110860000Y-95592164D01*
X110140000Y-95807836D02*
X110140000Y-95592164D01*
%TO.C,C82*%
X114992164Y-56465000D02*
X115207836Y-56465000D01*
X114992164Y-57185000D02*
X115207836Y-57185000D01*
%TO.C,U24*%
X109190000Y-71900000D02*
X109190000Y-72700000D01*
X109190000Y-73500000D02*
X109190000Y-72700000D01*
X112310000Y-71900000D02*
X112310000Y-72700000D01*
X112310000Y-74500000D02*
X112310000Y-72700000D01*
%TO.C,R29*%
X172871359Y-84070000D02*
X173178641Y-84070000D01*
X172871359Y-84830000D02*
X173178641Y-84830000D01*
%TO.C,R13*%
X137390000Y-52072936D02*
X137390000Y-53527064D01*
X139210000Y-52072936D02*
X139210000Y-53527064D01*
%TO.C,C13*%
X167742164Y-95540000D02*
X167957836Y-95540000D01*
X167742164Y-96260000D02*
X167957836Y-96260000D01*
%TO.C,R16*%
X110153641Y-93920000D02*
X109846359Y-93920000D01*
X110153641Y-94680000D02*
X109846359Y-94680000D01*
%TO.C,R70*%
X165922659Y-90939940D02*
X166139940Y-90722659D01*
X166460060Y-91477341D02*
X166677341Y-91260060D01*
%TO.C,R47*%
X137937258Y-116677500D02*
X137462742Y-116677500D01*
X137937258Y-117722500D02*
X137462742Y-117722500D01*
%TO.C,R6*%
X183346359Y-75820000D02*
X183653641Y-75820000D01*
X183346359Y-76580000D02*
X183653641Y-76580000D01*
%TO.C,C11*%
X179440000Y-145727836D02*
X179440000Y-145512164D01*
X180160000Y-145727836D02*
X180160000Y-145512164D01*
%TO.C,U2*%
X130350000Y-111940000D02*
X132300000Y-111940000D01*
X130350000Y-117060000D02*
X132300000Y-117060000D01*
X134250000Y-111940000D02*
X132300000Y-111940000D01*
X134250000Y-117060000D02*
X132300000Y-117060000D01*
X135000000Y-112035000D02*
X134760000Y-111705000D01*
X135240000Y-111705000D01*
X135000000Y-112035000D01*
G36*
X135000000Y-112035000D02*
G01*
X134760000Y-111705000D01*
X135240000Y-111705000D01*
X135000000Y-112035000D01*
G37*
%TO.C,R17*%
X130596359Y-96570000D02*
X130903641Y-96570000D01*
X130596359Y-97330000D02*
X130903641Y-97330000D01*
%TO.C,R66*%
X169846359Y-119220000D02*
X170153641Y-119220000D01*
X169846359Y-119980000D02*
X170153641Y-119980000D01*
%TO.C,R44*%
X146320000Y-142856359D02*
X146320000Y-143163641D01*
X147080000Y-142856359D02*
X147080000Y-143163641D01*
%TO.C,R9*%
X118353641Y-142020000D02*
X118046359Y-142020000D01*
X118353641Y-142780000D02*
X118046359Y-142780000D01*
%TO.C,C46*%
X144992164Y-90840000D02*
X145207836Y-90840000D01*
X144992164Y-91560000D02*
X145207836Y-91560000D01*
%TO.C,C61*%
X137992164Y-81840000D02*
X138207836Y-81840000D01*
X137992164Y-82560000D02*
X138207836Y-82560000D01*
%TO.C,R31*%
X189053641Y-69620000D02*
X188746359Y-69620000D01*
X189053641Y-70380000D02*
X188746359Y-70380000D01*
%TO.C,C6*%
X145090000Y-148440580D02*
X145090000Y-148159420D01*
X146110000Y-148440580D02*
X146110000Y-148159420D01*
%TO.C,R46*%
X185672936Y-140665000D02*
X187127064Y-140665000D01*
X185672936Y-142485000D02*
X187127064Y-142485000D01*
%TO.C,FB2*%
X126337221Y-91590000D02*
X126662779Y-91590000D01*
X126337221Y-92610000D02*
X126662779Y-92610000D01*
D11*
%TO.C,U7*%
X181125000Y-148030000D02*
X182525000Y-148030000D01*
X182525000Y-143170000D02*
X182525000Y-143025000D01*
X182525000Y-148030000D02*
X182525000Y-148175000D01*
X186675000Y-143025000D02*
X182525000Y-143025000D01*
X186675000Y-143170000D02*
X186675000Y-143025000D01*
X186675000Y-148030000D02*
X186675000Y-148175000D01*
X186675000Y-148175000D02*
X182525000Y-148175000D01*
D12*
%TO.C,C4*%
X137840580Y-115190000D02*
X137559420Y-115190000D01*
X137840580Y-116210000D02*
X137559420Y-116210000D01*
%TO.C,R27*%
X192453641Y-118920000D02*
X192146359Y-118920000D01*
X192453641Y-119680000D02*
X192146359Y-119680000D01*
%TO.C,C51*%
X111840000Y-87992164D02*
X111840000Y-88207836D01*
X112560000Y-87992164D02*
X112560000Y-88207836D01*
%TO.C,R5*%
X187420000Y-136753641D02*
X187420000Y-136446359D01*
X188180000Y-136753641D02*
X188180000Y-136446359D01*
%TO.C,C57*%
X117240000Y-148392164D02*
X117240000Y-148607836D01*
X117960000Y-148392164D02*
X117960000Y-148607836D01*
%TD*%
D14*
%TO.C,J14*%
X190975000Y-104000000D03*
X196975000Y-104000000D03*
%TD*%
%TO.C,J16*%
X190975000Y-115000000D03*
X196975000Y-115000000D03*
%TD*%
%TO.C,J3*%
X190975000Y-93000000D03*
X196975000Y-93000000D03*
%TD*%
%LPC*%
D15*
%TO.C,JP1*%
X181900000Y-118450000D03*
X181900000Y-117150000D03*
%TD*%
D16*
%TO.C,R23*%
X184100000Y-118825000D03*
X184100000Y-116775000D03*
%TD*%
D17*
%TO.C,J12*%
X111600000Y-148380000D03*
D18*
X111600000Y-145840000D03*
X111600000Y-143300000D03*
X111600000Y-140760000D03*
X111600000Y-138220000D03*
X111600000Y-135680000D03*
X111600000Y-133140000D03*
X111600000Y-130600000D03*
%TD*%
D19*
%TO.C,SW9*%
X111600000Y-56800000D03*
X111600000Y-54300000D03*
X111600000Y-51800000D03*
%TD*%
D20*
%TO.C,J32*%
X149550000Y-86980000D03*
D18*
X149550000Y-84440000D03*
X149550000Y-81900000D03*
%TD*%
D17*
%TO.C,J10*%
X114800000Y-110600000D03*
D18*
X114800000Y-113140000D03*
X114800000Y-115680000D03*
X114800000Y-118220000D03*
X114800000Y-120760000D03*
X114800000Y-123300000D03*
%TD*%
D21*
%TO.C,J9*%
X118457500Y-57700000D03*
D22*
X118457500Y-63700000D03*
D23*
X113757500Y-60700000D03*
%TD*%
D24*
%TO.C,J27*%
X108005000Y-110950000D03*
X108005000Y-114450000D03*
X108005000Y-117950000D03*
X108005000Y-121450000D03*
%TD*%
D25*
%TO.C,SW7*%
X175550000Y-91200000D03*
X175550000Y-103700000D03*
X170550000Y-91200000D03*
X170550000Y-103700000D03*
%TD*%
D26*
%TO.C,R32*%
X174800000Y-86400000D03*
X171400000Y-86400000D03*
%TD*%
D27*
%TO.C,U13*%
X181850000Y-124400000D03*
D28*
X183120000Y-122330000D03*
X184390000Y-124400000D03*
%TD*%
D24*
%TO.C,J1*%
X108005000Y-95550000D03*
X108005000Y-99050000D03*
X108005000Y-102550000D03*
X108005000Y-106050000D03*
%TD*%
D29*
%TO.C,J18*%
X191995000Y-89150000D03*
X191995000Y-85650000D03*
X191995000Y-82150000D03*
X191995000Y-78650000D03*
%TD*%
%TO.C,J15*%
X192000000Y-147550000D03*
X192000000Y-144050000D03*
X192000000Y-140550000D03*
X192000000Y-137050000D03*
%TD*%
D24*
%TO.C,J2*%
X108005000Y-137050000D03*
X108005000Y-140550000D03*
X108005000Y-144050000D03*
X108005000Y-147550000D03*
%TD*%
D30*
%TO.C,M1*%
X162540000Y-51500000D03*
D31*
X162540000Y-54040000D03*
X162540000Y-56580000D03*
X162540000Y-59120000D03*
X162540000Y-61660000D03*
X162540000Y-64200000D03*
X182860000Y-64200000D03*
X182860000Y-61660000D03*
X182860000Y-59120000D03*
X182860000Y-56580000D03*
X182860000Y-54040000D03*
X182860000Y-51500000D03*
%TD*%
D25*
%TO.C,SW8*%
X175600000Y-124350000D03*
X175600000Y-136850000D03*
X170600000Y-124350000D03*
X170600000Y-136850000D03*
%TD*%
D32*
%TO.C,J6*%
X168230000Y-143830000D03*
D33*
X169500000Y-143830000D03*
X168230000Y-145100000D03*
X169500000Y-145100000D03*
X168230000Y-146370000D03*
X169500000Y-146370000D03*
%TD*%
D17*
%TO.C,J19*%
X111200000Y-123300000D03*
D18*
X111200000Y-120760000D03*
X111200000Y-118220000D03*
X111200000Y-115680000D03*
X111200000Y-113140000D03*
X111200000Y-110600000D03*
%TD*%
D34*
%TO.C,SW4*%
X134100000Y-110900000D03*
X131600000Y-110900000D03*
X129100000Y-110900000D03*
%TD*%
D17*
%TO.C,J20*%
X115200000Y-130680000D03*
D18*
X115200000Y-133220000D03*
X115200000Y-135760000D03*
X115200000Y-138300000D03*
X115200000Y-140840000D03*
X115200000Y-143380000D03*
X115200000Y-145920000D03*
X115200000Y-148460000D03*
%TD*%
D17*
%TO.C,J4*%
X115000000Y-104600000D03*
D18*
X115000000Y-102060000D03*
X115000000Y-99520000D03*
X115000000Y-96980000D03*
%TD*%
D35*
%TO.C,X3*%
X164880000Y-68300000D03*
X167420000Y-68300000D03*
X169960000Y-68300000D03*
X172500000Y-68300000D03*
X175040000Y-68300000D03*
X177580000Y-68300000D03*
X180120000Y-68300000D03*
%TD*%
D24*
%TO.C,J22*%
X108005000Y-52450000D03*
X108005000Y-55950000D03*
X108005000Y-59450000D03*
X108005000Y-62950000D03*
%TD*%
D36*
%TO.C,J26*%
X121800000Y-77800000D03*
D37*
X121800000Y-75260000D03*
D38*
X124340000Y-77800000D03*
D37*
X124340000Y-75260000D03*
D38*
X126880000Y-77800000D03*
D37*
X126880000Y-75260000D03*
D38*
X129420000Y-77800000D03*
D26*
X129420000Y-75260000D03*
X131960000Y-77800000D03*
X131960000Y-75260000D03*
D37*
X134500000Y-77800000D03*
X134500000Y-75260000D03*
D39*
X137040000Y-77800000D03*
X137040000Y-75260000D03*
%TD*%
D17*
%TO.C,U15*%
X168875000Y-62489500D03*
D39*
X168875000Y-59949500D03*
X171415000Y-62489500D03*
X171415000Y-59949500D03*
X173955000Y-62489500D03*
X173955000Y-59949500D03*
X176495000Y-62489500D03*
X176495000Y-59949500D03*
%TD*%
D40*
%TO.C,U21*%
X142380000Y-112000000D03*
D41*
X144920000Y-112000000D03*
X147460000Y-112000000D03*
X150000000Y-112000000D03*
X152540000Y-112000000D03*
X155080000Y-112000000D03*
X157620000Y-112000000D03*
%TD*%
D20*
%TO.C,J33*%
X153150000Y-86980000D03*
D18*
X153150000Y-84440000D03*
X153150000Y-81900000D03*
%TD*%
D42*
%TO.C,U6*%
X165792500Y-51492500D03*
D43*
X165792500Y-53492500D03*
X165792500Y-55492500D03*
X165792500Y-57492500D03*
X165792500Y-59492500D03*
X165792500Y-61492500D03*
X165792500Y-63492500D03*
X165792500Y-65492500D03*
X179392500Y-65492500D03*
X179392500Y-63492500D03*
X179392500Y-61492500D03*
X179392500Y-59492500D03*
X179392500Y-57492500D03*
X179392500Y-55492500D03*
X179392500Y-53492500D03*
X179392500Y-51492500D03*
%TD*%
D14*
%TO.C,MK1*%
X184350000Y-115300000D03*
X182450000Y-115300000D03*
%TD*%
D44*
%TO.C,SW6*%
X175600000Y-106800000D03*
D41*
X170600000Y-106800000D03*
X173100000Y-106800000D03*
D45*
X178700000Y-114300000D03*
X167500000Y-114300000D03*
D41*
X170600000Y-121300000D03*
X175600000Y-121300000D03*
%TD*%
D29*
%TO.C,J24*%
X191995000Y-73750000D03*
X191995000Y-70250000D03*
X191995000Y-66750000D03*
X191995000Y-63250000D03*
%TD*%
D17*
%TO.C,J23*%
X123700000Y-105900000D03*
D18*
X126240000Y-105900000D03*
X128780000Y-105900000D03*
X131320000Y-105900000D03*
X133860000Y-105900000D03*
X136400000Y-105900000D03*
%TD*%
D46*
%TO.C,X1*%
X125000000Y-142505000D03*
X175000000Y-142505000D03*
%TD*%
D47*
%TO.C,C39*%
X112800000Y-83082380D03*
D48*
X112800000Y-80582380D03*
%TD*%
D20*
%TO.C,J31*%
X145950000Y-86980000D03*
D18*
X145950000Y-84440000D03*
X145950000Y-81900000D03*
%TD*%
D49*
%TO.C,J8*%
X132700000Y-94600000D03*
D18*
X132700000Y-97140000D03*
X132700000Y-99680000D03*
X132700000Y-102220000D03*
%TD*%
D24*
%TO.C,J28*%
X108005000Y-80150000D03*
X108005000Y-83650000D03*
X108005000Y-87150000D03*
X108005000Y-90650000D03*
%TD*%
D29*
%TO.C,J21*%
X192000000Y-132150000D03*
X192000000Y-128650000D03*
X192000000Y-125150000D03*
X192000000Y-121650000D03*
%TD*%
D50*
%TO.C,U22*%
X175800000Y-78820000D03*
D14*
X175800000Y-76580000D03*
X174220000Y-75000000D03*
X170400000Y-76580000D03*
X170400000Y-78820000D03*
X171980000Y-80400000D03*
%TD*%
D51*
%TO.C,R63*%
X122910000Y-89425000D03*
X121890000Y-89425000D03*
%TD*%
D52*
%TO.C,Q4*%
X175012500Y-84800000D03*
X175012500Y-82900000D03*
X176887500Y-83850000D03*
%TD*%
D53*
%TO.C,C32*%
X125930000Y-89950000D03*
X124970000Y-89950000D03*
%TD*%
D54*
%TO.C,C43*%
X126120000Y-66400000D03*
X127080000Y-66400000D03*
%TD*%
D55*
%TO.C,C19*%
X180000000Y-105950000D03*
X185600000Y-105950000D03*
%TD*%
D56*
%TO.C,R7*%
X120275000Y-118100000D03*
X121925000Y-118100000D03*
%TD*%
D57*
%TO.C,R33*%
X127750000Y-53800000D03*
X172250000Y-53800000D03*
D58*
X110300000Y-63800000D03*
X189700000Y-63800000D03*
%TD*%
D59*
%TO.C,R50*%
X121890000Y-83500000D03*
X122910000Y-83500000D03*
%TD*%
%TO.C,R45*%
X160990000Y-85100000D03*
X162010000Y-85100000D03*
%TD*%
D60*
%TO.C,SW3*%
X196930000Y-142700000D03*
X196930000Y-145700000D03*
D61*
X194920000Y-141950000D03*
X194920000Y-144950000D03*
X194920000Y-146450000D03*
D62*
X198030000Y-140050000D03*
X195820000Y-140050000D03*
X198030000Y-148350000D03*
X195820000Y-148350000D03*
%TD*%
D63*
%TO.C,C84*%
X113250000Y-69100000D03*
X111700000Y-69100000D03*
%TD*%
D64*
%TO.C,C14*%
X177000000Y-98770000D03*
X177000000Y-99730000D03*
%TD*%
D51*
%TO.C,R60*%
X121810000Y-55600000D03*
X120790000Y-55600000D03*
%TD*%
D65*
%TO.C,C10*%
X110500000Y-102180000D03*
X110500000Y-101220000D03*
%TD*%
D66*
%TO.C,R69*%
X110200000Y-88440000D03*
X110200000Y-89460000D03*
%TD*%
%TO.C,R68*%
X111200000Y-87590000D03*
X111200000Y-88610000D03*
%TD*%
D67*
%TO.C,J17*%
X141900000Y-145975000D03*
X133900000Y-145975000D03*
D68*
X134700000Y-134975000D03*
X135800000Y-134975000D03*
X136900000Y-134975000D03*
X138000000Y-134975000D03*
X139100000Y-134975000D03*
X140200000Y-134975000D03*
X141300000Y-134975000D03*
X142400000Y-134975000D03*
X143500000Y-134975000D03*
D69*
X144700000Y-145575000D03*
D70*
X144700000Y-135975000D03*
D71*
X130100000Y-135975000D03*
D69*
X129200000Y-145575000D03*
%TD*%
D72*
%TO.C,C17*%
X185850000Y-90750000D03*
X185850000Y-93450000D03*
%TD*%
D53*
%TO.C,C12*%
X168330000Y-96850000D03*
X167370000Y-96850000D03*
%TD*%
D59*
%TO.C,R59*%
X114590000Y-55860000D03*
X115610000Y-55860000D03*
%TD*%
D73*
%TO.C,L4*%
X115675000Y-69300000D03*
X122725000Y-69300000D03*
%TD*%
D60*
%TO.C,SW2*%
X196900000Y-131700000D03*
X196900000Y-134700000D03*
D61*
X194890000Y-130950000D03*
X194890000Y-133950000D03*
X194890000Y-135450000D03*
D62*
X198000000Y-129050000D03*
X195790000Y-129050000D03*
X198000000Y-137350000D03*
X195790000Y-137350000D03*
%TD*%
D74*
%TO.C,C28*%
X134600000Y-107825000D03*
X134600000Y-109375000D03*
%TD*%
D53*
%TO.C,C36*%
X125930000Y-90900000D03*
X124970000Y-90900000D03*
%TD*%
D75*
%TO.C,C1*%
X139925000Y-115700000D03*
X141475000Y-115700000D03*
%TD*%
D53*
%TO.C,C54*%
X121430000Y-98750000D03*
X120470000Y-98750000D03*
%TD*%
D64*
%TO.C,C25*%
X138500000Y-73520000D03*
X138500000Y-74480000D03*
%TD*%
D56*
%TO.C,R3*%
X139875000Y-117200000D03*
X141525000Y-117200000D03*
%TD*%
D59*
%TO.C,R18*%
X109090000Y-129600000D03*
X110110000Y-129600000D03*
%TD*%
D76*
%TO.C,LS2*%
X154000000Y-97800000D03*
X150000000Y-97800000D03*
X146000000Y-97800000D03*
X156000000Y-99050000D03*
X152000000Y-99050000D03*
X148000000Y-99050000D03*
X144000000Y-99050000D03*
X158000000Y-100300000D03*
X154000000Y-100300000D03*
X150000000Y-100300000D03*
X146000000Y-100300000D03*
X142000000Y-100300000D03*
X156000000Y-101550000D03*
X152000000Y-101550000D03*
X148000000Y-101550000D03*
X144000000Y-101550000D03*
X158000000Y-102800000D03*
X154000000Y-102800000D03*
X150000000Y-102800000D03*
X146000000Y-102800000D03*
X142000000Y-102800000D03*
X156000000Y-104050000D03*
X152000000Y-104050000D03*
X148000000Y-104050000D03*
X144000000Y-104050000D03*
X158000000Y-105300000D03*
X154000000Y-105300000D03*
X150000000Y-105300000D03*
X146000000Y-105300000D03*
X142000000Y-105300000D03*
X156000000Y-106550000D03*
X152000000Y-106550000D03*
X148000000Y-106550000D03*
X144000000Y-106550000D03*
X154000000Y-107800000D03*
X150000000Y-107800000D03*
X146000000Y-107800000D03*
%TD*%
D77*
%TO.C,D20*%
X156750000Y-92550000D03*
X158850000Y-92550000D03*
%TD*%
D54*
%TO.C,C45*%
X156820000Y-91100000D03*
X157780000Y-91100000D03*
%TD*%
D59*
%TO.C,R65*%
X121890000Y-81300000D03*
X122910000Y-81300000D03*
%TD*%
%TO.C,R54*%
X185790000Y-118800000D03*
X186810000Y-118800000D03*
%TD*%
D66*
%TO.C,R55*%
X191150000Y-109640000D03*
X191150000Y-110660000D03*
%TD*%
D14*
%TO.C,J14*%
X190975000Y-104000000D03*
X196975000Y-104000000D03*
D78*
X194575000Y-100500000D03*
X197275000Y-107500000D03*
X198275000Y-100500000D03*
X190275000Y-107500000D03*
X188575000Y-100500000D03*
%TD*%
D74*
%TO.C,C29*%
X120300000Y-119625000D03*
X120300000Y-121175000D03*
%TD*%
D79*
%TO.C,U8*%
X134137500Y-124450000D03*
X134137500Y-125400000D03*
X134137500Y-126350000D03*
X131862500Y-126350000D03*
X131862500Y-125400000D03*
X131862500Y-124450000D03*
%TD*%
D80*
%TO.C,D13*%
X179100000Y-82350000D03*
X179100000Y-84450000D03*
%TD*%
D42*
%TO.C,LS1*%
X180750000Y-93800000D03*
D81*
X180750000Y-91800000D03*
%TD*%
D65*
%TO.C,C35*%
X124600000Y-82380000D03*
X124600000Y-81420000D03*
%TD*%
D53*
%TO.C,C47*%
X138330000Y-91200000D03*
X137370000Y-91200000D03*
%TD*%
D82*
%TO.C,C80*%
X123775000Y-64500000D03*
X120825000Y-64500000D03*
%TD*%
D51*
%TO.C,R24*%
X175610000Y-101000000D03*
X174590000Y-101000000D03*
%TD*%
D53*
%TO.C,C60*%
X171680000Y-75300000D03*
X170720000Y-75300000D03*
%TD*%
D83*
%TO.C,J13*%
X106350000Y-74740000D03*
X106350000Y-68960000D03*
D84*
X107600000Y-75050000D03*
X107550000Y-74250000D03*
D85*
X107550000Y-73100000D03*
X107550000Y-72100000D03*
X107550000Y-71600000D03*
X107550000Y-70600000D03*
D84*
X107550000Y-69450000D03*
X107600000Y-68650000D03*
X107600000Y-68650000D03*
X107550000Y-69450000D03*
D85*
X107550000Y-70100000D03*
X107550000Y-71100000D03*
X107550000Y-72600000D03*
X107550000Y-73600000D03*
D84*
X107550000Y-74250000D03*
X107600000Y-75050000D03*
D86*
X102650000Y-76670000D03*
D87*
X106830000Y-76670000D03*
D86*
X102650000Y-67030000D03*
D87*
X106830000Y-67030000D03*
%TD*%
D56*
%TO.C,R28*%
X120275000Y-116600000D03*
X121925000Y-116600000D03*
%TD*%
D64*
%TO.C,C26*%
X138000000Y-132520000D03*
X138000000Y-133480000D03*
%TD*%
D74*
%TO.C,C31*%
X131600000Y-107825000D03*
X131600000Y-109375000D03*
%TD*%
D88*
%TO.C,U10*%
X173575000Y-99700000D03*
X173075000Y-99700000D03*
X172575000Y-99700000D03*
X172075000Y-99700000D03*
X171575000Y-99700000D03*
X171075000Y-99700000D03*
X170575000Y-99700000D03*
X170075000Y-99700000D03*
D89*
X169375000Y-99000000D03*
X169375000Y-98500000D03*
X169375000Y-98000000D03*
X169375000Y-97500000D03*
X169375000Y-97000000D03*
X169375000Y-96500000D03*
X169375000Y-96000000D03*
X169375000Y-95500000D03*
D88*
X170075000Y-94800000D03*
X170575000Y-94800000D03*
X171075000Y-94800000D03*
X171575000Y-94800000D03*
X172075000Y-94800000D03*
X172575000Y-94800000D03*
X173075000Y-94800000D03*
X173575000Y-94800000D03*
D89*
X174275000Y-95500000D03*
X174275000Y-96000000D03*
X174275000Y-96500000D03*
X174275000Y-97000000D03*
X174275000Y-97500000D03*
X174275000Y-98000000D03*
X174275000Y-98500000D03*
X174275000Y-99000000D03*
D90*
X171825000Y-97250000D03*
%TD*%
D64*
%TO.C,C53*%
X170700000Y-144740000D03*
X170700000Y-145700000D03*
%TD*%
D91*
%TO.C,FB1*%
X178500000Y-100912500D03*
X178500000Y-102487500D03*
%TD*%
D64*
%TO.C,C27*%
X144950000Y-113470000D03*
X144950000Y-114430000D03*
%TD*%
D92*
%TO.C,C20*%
X183350000Y-113300000D03*
X183350000Y-110600000D03*
%TD*%
D53*
%TO.C,C59*%
X169080000Y-58400000D03*
X168120000Y-58400000D03*
%TD*%
D92*
%TO.C,C23*%
X173050000Y-104500000D03*
X173050000Y-101800000D03*
%TD*%
D66*
%TO.C,R58*%
X146400000Y-137040000D03*
X146400000Y-138060000D03*
%TD*%
D63*
%TO.C,C56*%
X118575000Y-144200000D03*
X117025000Y-144200000D03*
%TD*%
D53*
%TO.C,C48*%
X152580000Y-91200000D03*
X151620000Y-91200000D03*
%TD*%
D65*
%TO.C,C22*%
X176000000Y-100080000D03*
X176000000Y-99120000D03*
%TD*%
D66*
%TO.C,R35*%
X161800000Y-85990000D03*
X161800000Y-87010000D03*
%TD*%
D60*
%TO.C,SW10*%
X103070000Y-90850000D03*
X103070000Y-87850000D03*
D61*
X105080000Y-91600000D03*
X105080000Y-88600000D03*
X105080000Y-87100000D03*
D62*
X101970000Y-93500000D03*
X104180000Y-93500000D03*
X101970000Y-85200000D03*
X104180000Y-85200000D03*
%TD*%
D93*
%TO.C,D3*%
X182725000Y-140025000D03*
X182725000Y-141925000D03*
X179725000Y-140975000D03*
%TD*%
D72*
%TO.C,C16*%
X183700000Y-90750000D03*
X183700000Y-93450000D03*
%TD*%
D66*
%TO.C,R39*%
X168900000Y-91390000D03*
X168900000Y-92410000D03*
%TD*%
D63*
%TO.C,C83*%
X113275000Y-67600000D03*
X111725000Y-67600000D03*
%TD*%
D54*
%TO.C,C15*%
X175220000Y-95200000D03*
X176180000Y-95200000D03*
%TD*%
D94*
%TO.C,C24*%
X180350000Y-89250000D03*
X177650000Y-89250000D03*
%TD*%
D95*
%TO.C,R15*%
X136000000Y-54262500D03*
X136000000Y-51337500D03*
%TD*%
D96*
%TO.C,U27*%
X122950000Y-60050000D03*
X122000000Y-60050000D03*
X121050000Y-60050000D03*
X121050000Y-57350000D03*
X122000000Y-57350000D03*
X122950000Y-57350000D03*
%TD*%
D59*
%TO.C,R10*%
X109490000Y-103100000D03*
X110510000Y-103100000D03*
%TD*%
D74*
%TO.C,C30*%
X133100000Y-107825000D03*
X133100000Y-109375000D03*
%TD*%
D97*
%TO.C,U12*%
X118700000Y-149000000D03*
X118700000Y-148000000D03*
X118700000Y-147000000D03*
X120700000Y-147000000D03*
X120700000Y-148000000D03*
X120700000Y-149000000D03*
%TD*%
D59*
%TO.C,R62*%
X150790000Y-113600000D03*
X151810000Y-113600000D03*
%TD*%
D98*
%TO.C,U1*%
X180100000Y-137830000D03*
X180100000Y-136560000D03*
X180100000Y-135290000D03*
X180100000Y-134020000D03*
X186100000Y-134020000D03*
X186100000Y-135290000D03*
X186100000Y-136560000D03*
X186100000Y-137830000D03*
%TD*%
D53*
%TO.C,C49*%
X128330000Y-89950000D03*
X127370000Y-89950000D03*
%TD*%
D99*
%TO.C,U5*%
X132637500Y-82450000D03*
X132637500Y-82950000D03*
X132637500Y-83450000D03*
X132637500Y-83950000D03*
X132637500Y-84450000D03*
X132637500Y-84950000D03*
X132637500Y-85450000D03*
X132637500Y-85950000D03*
X132637500Y-86450000D03*
X132637500Y-86950000D03*
X132637500Y-87450000D03*
X132637500Y-87950000D03*
D100*
X131950000Y-88637500D03*
X131450000Y-88637500D03*
X130950000Y-88637500D03*
X130450000Y-88637500D03*
X129950000Y-88637500D03*
X129450000Y-88637500D03*
X128950000Y-88637500D03*
X128450000Y-88637500D03*
X127950000Y-88637500D03*
X127450000Y-88637500D03*
X126950000Y-88637500D03*
X126450000Y-88637500D03*
D99*
X125762500Y-87950000D03*
X125762500Y-87450000D03*
X125762500Y-86950000D03*
X125762500Y-86450000D03*
X125762500Y-85950000D03*
X125762500Y-85450000D03*
X125762500Y-84950000D03*
X125762500Y-84450000D03*
X125762500Y-83950000D03*
X125762500Y-83450000D03*
X125762500Y-82950000D03*
X125762500Y-82450000D03*
D100*
X126450000Y-81762500D03*
X126950000Y-81762500D03*
X127450000Y-81762500D03*
X127950000Y-81762500D03*
X128450000Y-81762500D03*
X128950000Y-81762500D03*
X129450000Y-81762500D03*
X129950000Y-81762500D03*
X130450000Y-81762500D03*
X130950000Y-81762500D03*
X131450000Y-81762500D03*
X131950000Y-81762500D03*
D101*
X129200000Y-85200000D03*
%TD*%
D14*
%TO.C,J16*%
X190975000Y-115000000D03*
X196975000Y-115000000D03*
D78*
X194575000Y-111500000D03*
X197275000Y-118500000D03*
X198275000Y-111500000D03*
X190275000Y-118500000D03*
X188575000Y-111500000D03*
%TD*%
D102*
%TO.C,J11*%
X105300000Y-143700000D03*
X105300000Y-142700000D03*
X105300000Y-141700000D03*
X105300000Y-140700000D03*
D103*
X101425000Y-145000000D03*
X101425000Y-139400000D03*
%TD*%
D104*
%TO.C,U9*%
X117750000Y-98337500D03*
X118250000Y-98337500D03*
X118750000Y-98337500D03*
X119250000Y-98337500D03*
D105*
X119412500Y-99000000D03*
X119412500Y-99500000D03*
X119412500Y-100000000D03*
D104*
X119250000Y-100662500D03*
X118750000Y-100662500D03*
X118250000Y-100662500D03*
X117750000Y-100662500D03*
D105*
X117587500Y-100000000D03*
X117587500Y-99500000D03*
X117587500Y-99000000D03*
%TD*%
D106*
%TO.C,U4*%
X148450000Y-148420000D03*
X148450000Y-147150000D03*
X148450000Y-145880000D03*
X148450000Y-144610000D03*
X148450000Y-143340000D03*
X148450000Y-142070000D03*
X148450000Y-140800000D03*
X148450000Y-139530000D03*
X148450000Y-138260000D03*
X148450000Y-136990000D03*
X148450000Y-135720000D03*
X148450000Y-134450000D03*
X148450000Y-133180000D03*
X148450000Y-131910000D03*
D107*
X150215000Y-130660000D03*
X151485000Y-130660000D03*
X152755000Y-130660000D03*
X154025000Y-130660000D03*
X155295000Y-130660000D03*
X156565000Y-130660000D03*
X157835000Y-130660000D03*
X159105000Y-130660000D03*
X160375000Y-130660000D03*
X161645000Y-130660000D03*
X162915000Y-130660000D03*
X164185000Y-130660000D03*
D106*
X165950000Y-131910000D03*
X165950000Y-133180000D03*
X165950000Y-134450000D03*
X165950000Y-135720000D03*
X165950000Y-136990000D03*
X165950000Y-138260000D03*
X165950000Y-139530000D03*
X165950000Y-140800000D03*
X165950000Y-142070000D03*
X165950000Y-143340000D03*
X165950000Y-144610000D03*
X165950000Y-145880000D03*
X165950000Y-147150000D03*
X165950000Y-148420000D03*
D108*
X154300000Y-139300000D03*
X154300000Y-139300000D03*
X154300000Y-140700000D03*
X154300000Y-142100000D03*
X155700000Y-139300000D03*
X155700000Y-140700000D03*
X155700000Y-142100000D03*
X155700000Y-142100000D03*
X157100000Y-139300000D03*
X157100000Y-140700000D03*
X157100000Y-142100000D03*
%TD*%
D66*
%TO.C,R43*%
X146700000Y-144390000D03*
X146700000Y-145410000D03*
%TD*%
%TO.C,R30*%
X188500000Y-71190000D03*
X188500000Y-72210000D03*
%TD*%
D55*
%TO.C,C18*%
X180000000Y-98850000D03*
X185600000Y-98850000D03*
%TD*%
D109*
%TO.C,Y1*%
X139200000Y-85400000D03*
X137000000Y-85400000D03*
X137000000Y-83700000D03*
X139200000Y-83700000D03*
%TD*%
D110*
%TO.C,L1*%
X126475000Y-112200000D03*
X119425000Y-112200000D03*
%TD*%
D57*
%TO.C,Q3*%
X157430000Y-55500000D03*
D111*
X140770000Y-52960000D03*
D112*
X140770000Y-55500000D03*
X140770000Y-58040000D03*
%TD*%
D113*
%TO.C,J7*%
X157675000Y-85775000D03*
D114*
X157675000Y-83275000D03*
%TD*%
D51*
%TO.C,R22*%
X178110000Y-57500000D03*
X177090000Y-57500000D03*
%TD*%
D65*
%TO.C,C34*%
X133800000Y-82380000D03*
X133800000Y-81420000D03*
%TD*%
D51*
%TO.C,R37*%
X172660000Y-108500000D03*
X171640000Y-108500000D03*
%TD*%
D14*
%TO.C,J3*%
X190975000Y-93000000D03*
X196975000Y-93000000D03*
D78*
X194575000Y-89500000D03*
X197275000Y-96500000D03*
X198275000Y-89500000D03*
X190275000Y-96500000D03*
X188575000Y-89500000D03*
%TD*%
D59*
%TO.C,R40*%
X169590000Y-134800000D03*
X170610000Y-134800000D03*
%TD*%
D53*
%TO.C,C37*%
X128330000Y-90900000D03*
X127370000Y-90900000D03*
%TD*%
D115*
%TO.C,BT1*%
X122345000Y-127600000D03*
X177955000Y-127600000D03*
D116*
X113700000Y-127600000D03*
D117*
X185700000Y-127600000D03*
%TD*%
D51*
%TO.C,R8*%
X186010000Y-131900000D03*
X184990000Y-131900000D03*
%TD*%
%TO.C,R12*%
X133510000Y-56600000D03*
X132490000Y-56600000D03*
%TD*%
D72*
%TO.C,C62*%
X172850000Y-88950000D03*
X172850000Y-91650000D03*
%TD*%
D53*
%TO.C,C58*%
X128880000Y-100700000D03*
X127920000Y-100700000D03*
%TD*%
D59*
%TO.C,R53*%
X172590000Y-76500000D03*
X173610000Y-76500000D03*
%TD*%
D66*
%TO.C,R61*%
X135800000Y-132490000D03*
X135800000Y-133510000D03*
%TD*%
D65*
%TO.C,C5*%
X168200000Y-142980000D03*
X168200000Y-142020000D03*
%TD*%
%TO.C,C9*%
X110500000Y-98480000D03*
X110500000Y-97520000D03*
%TD*%
D59*
%TO.C,R25*%
X187690000Y-118800000D03*
X188710000Y-118800000D03*
%TD*%
D54*
%TO.C,C21*%
X175970000Y-96150000D03*
X176930000Y-96150000D03*
%TD*%
D51*
%TO.C,R4*%
X129110000Y-117700000D03*
X128090000Y-117700000D03*
%TD*%
D59*
%TO.C,R49*%
X134490000Y-85400000D03*
X135510000Y-85400000D03*
%TD*%
D118*
%TO.C,Q5*%
X163250000Y-83637500D03*
X161350000Y-83637500D03*
X162300000Y-81762500D03*
%TD*%
D59*
%TO.C,R19*%
X109190000Y-126800000D03*
X110210000Y-126800000D03*
%TD*%
D54*
%TO.C,C41*%
X126140000Y-64100000D03*
X127100000Y-64100000D03*
%TD*%
D74*
%TO.C,C7*%
X121900000Y-119625000D03*
X121900000Y-121175000D03*
%TD*%
D66*
%TO.C,R21*%
X189400000Y-147580000D03*
X189400000Y-148600000D03*
%TD*%
D59*
%TO.C,R67*%
X134690000Y-81000000D03*
X135710000Y-81000000D03*
%TD*%
D119*
%TO.C,U11*%
X128850000Y-69200000D03*
X128850000Y-66900000D03*
D120*
X135150000Y-66900000D03*
D119*
X128850000Y-64600000D03*
%TD*%
D121*
%TO.C,R11*%
X172475000Y-86410000D03*
X172475000Y-85390000D03*
%TD*%
D64*
%TO.C,C50*%
X140700000Y-84070000D03*
X140700000Y-85030000D03*
%TD*%
D122*
%TO.C,D2*%
X183750000Y-131900000D03*
X181850000Y-131900000D03*
X182800000Y-128900000D03*
%TD*%
D51*
%TO.C,R26*%
X170235000Y-93650000D03*
X169215000Y-93650000D03*
%TD*%
%TO.C,R51*%
X131260000Y-96000000D03*
X130240000Y-96000000D03*
%TD*%
D123*
%TO.C,U14*%
X126925000Y-103300000D03*
X127575000Y-103300000D03*
X128225000Y-103300000D03*
X128875000Y-103300000D03*
X128875000Y-101700000D03*
X128225000Y-101700000D03*
X127575000Y-101700000D03*
X126925000Y-101700000D03*
%TD*%
D54*
%TO.C,C33*%
X131920000Y-80600000D03*
X132880000Y-80600000D03*
%TD*%
D124*
%TO.C,K1*%
X181700000Y-78500000D03*
X184900000Y-78500000D03*
X187100000Y-78500000D03*
X189300000Y-78500000D03*
X189300000Y-85500000D03*
X187100000Y-85500000D03*
X184900000Y-85500000D03*
X181700000Y-85500000D03*
%TD*%
D51*
%TO.C,R48*%
X123710000Y-55600000D03*
X122690000Y-55600000D03*
%TD*%
D64*
%TO.C,C2*%
X146900000Y-147420000D03*
X146900000Y-148380000D03*
%TD*%
D125*
%TO.C,U3*%
X114737500Y-89425000D03*
X114737500Y-88775000D03*
X114737500Y-88125000D03*
X114737500Y-87475000D03*
X114737500Y-86825000D03*
X114737500Y-86175000D03*
X114737500Y-85525000D03*
X114737500Y-84875000D03*
X114737500Y-84225000D03*
X114737500Y-83575000D03*
X114737500Y-82925000D03*
X114737500Y-82275000D03*
X114737500Y-81625000D03*
X114737500Y-80975000D03*
X120462500Y-80975000D03*
X120462500Y-81625000D03*
X120462500Y-82275000D03*
X120462500Y-82925000D03*
X120462500Y-83575000D03*
X120462500Y-84225000D03*
X120462500Y-84875000D03*
X120462500Y-85525000D03*
X120462500Y-86175000D03*
X120462500Y-86825000D03*
X120462500Y-87475000D03*
X120462500Y-88125000D03*
X120462500Y-88775000D03*
X120462500Y-89425000D03*
D126*
X117600000Y-85200000D03*
%TD*%
D51*
%TO.C,R1*%
X184610000Y-148900000D03*
X183590000Y-148900000D03*
%TD*%
D64*
%TO.C,C81*%
X124300000Y-56820000D03*
X124300000Y-57780000D03*
%TD*%
D59*
%TO.C,R52*%
X121890000Y-82300000D03*
X122910000Y-82300000D03*
%TD*%
D127*
%TO.C,U17*%
X158520000Y-62830000D03*
D128*
X156450000Y-64100000D03*
X158520000Y-65370000D03*
%TD*%
D129*
%TO.C,R20*%
X188500000Y-134750000D03*
X188500000Y-131650000D03*
%TD*%
D65*
%TO.C,C3*%
X187800000Y-138980000D03*
X187800000Y-138020000D03*
%TD*%
D51*
%TO.C,R34*%
X119660000Y-76050000D03*
X118640000Y-76050000D03*
%TD*%
D83*
%TO.C,J5*%
X106400000Y-131490000D03*
X106400000Y-125710000D03*
D84*
X107650000Y-131800000D03*
X107600000Y-131000000D03*
D85*
X107600000Y-129850000D03*
X107600000Y-128850000D03*
X107600000Y-128350000D03*
X107600000Y-127350000D03*
D84*
X107600000Y-126200000D03*
X107650000Y-125400000D03*
X107650000Y-125400000D03*
X107600000Y-126200000D03*
D85*
X107600000Y-126850000D03*
X107600000Y-127850000D03*
X107600000Y-129350000D03*
X107600000Y-130350000D03*
D84*
X107600000Y-131000000D03*
X107650000Y-131800000D03*
D86*
X102700000Y-133420000D03*
D87*
X106880000Y-133420000D03*
D86*
X102700000Y-123780000D03*
D87*
X106880000Y-123780000D03*
%TD*%
D53*
%TO.C,C55*%
X121430000Y-100700000D03*
X120470000Y-100700000D03*
%TD*%
D51*
%TO.C,R64*%
X131260000Y-94700000D03*
X130240000Y-94700000D03*
%TD*%
%TO.C,R41*%
X171710000Y-146600000D03*
X170690000Y-146600000D03*
%TD*%
D118*
%TO.C,Q2*%
X189850000Y-68037500D03*
X187950000Y-68037500D03*
X188900000Y-66162500D03*
%TD*%
D51*
%TO.C,R36*%
X174660000Y-108500000D03*
X173640000Y-108500000D03*
%TD*%
D65*
%TO.C,C38*%
X113200000Y-89780000D03*
X113200000Y-88820000D03*
%TD*%
D66*
%TO.C,R57*%
X139200000Y-132465000D03*
X139200000Y-133485000D03*
%TD*%
D53*
%TO.C,C44*%
X127080000Y-67400000D03*
X126120000Y-67400000D03*
%TD*%
D66*
%TO.C,R42*%
X184500000Y-121840000D03*
X184500000Y-122860000D03*
%TD*%
D51*
%TO.C,R2*%
X146910000Y-146300000D03*
X145890000Y-146300000D03*
%TD*%
D59*
%TO.C,R14*%
X109490000Y-99400000D03*
X110510000Y-99400000D03*
%TD*%
D63*
%TO.C,C79*%
X122275000Y-62600000D03*
X120725000Y-62600000D03*
%TD*%
D66*
%TO.C,R56*%
X136800000Y-132480000D03*
X136800000Y-133500000D03*
%TD*%
D130*
%TO.C,Q1*%
X136837500Y-55850000D03*
X136837500Y-57750000D03*
X134962500Y-56800000D03*
%TD*%
D53*
%TO.C,C42*%
X127100000Y-65100000D03*
X126140000Y-65100000D03*
%TD*%
%TO.C,C40*%
X170480000Y-118600000D03*
X169520000Y-118600000D03*
%TD*%
D64*
%TO.C,C8*%
X110500000Y-96180000D03*
X110500000Y-95220000D03*
%TD*%
D53*
%TO.C,C82*%
X115580000Y-56825000D03*
X114620000Y-56825000D03*
%TD*%
D131*
%TO.C,U24*%
X111700000Y-73837500D03*
X110750000Y-73837500D03*
X109800000Y-73837500D03*
X109800000Y-71562500D03*
X110750000Y-71562500D03*
X111700000Y-71562500D03*
%TD*%
D51*
%TO.C,R29*%
X173535000Y-84450000D03*
X172515000Y-84450000D03*
%TD*%
D95*
%TO.C,R13*%
X138300000Y-54262500D03*
X138300000Y-51337500D03*
%TD*%
D53*
%TO.C,C13*%
X168330000Y-95900000D03*
X167370000Y-95900000D03*
%TD*%
D59*
%TO.C,R16*%
X109490000Y-94300000D03*
X110510000Y-94300000D03*
%TD*%
D132*
%TO.C,R70*%
X166660624Y-90739376D03*
X165939376Y-91460624D03*
%TD*%
D56*
%TO.C,R47*%
X136875000Y-117200000D03*
X138525000Y-117200000D03*
%TD*%
D51*
%TO.C,R6*%
X184010000Y-76200000D03*
X182990000Y-76200000D03*
%TD*%
D64*
%TO.C,C11*%
X179800000Y-145140000D03*
X179800000Y-146100000D03*
%TD*%
D133*
%TO.C,U2*%
X134775000Y-112595000D03*
X134775000Y-113865000D03*
X134775000Y-115135000D03*
X134775000Y-116405000D03*
X129825000Y-116405000D03*
X129825000Y-115135000D03*
X129825000Y-113865000D03*
X129825000Y-112595000D03*
D134*
X132300000Y-114500000D03*
%TD*%
D51*
%TO.C,R17*%
X131260000Y-96950000D03*
X130240000Y-96950000D03*
%TD*%
%TO.C,R66*%
X170510000Y-119600000D03*
X169490000Y-119600000D03*
%TD*%
D121*
%TO.C,R44*%
X146700000Y-143520000D03*
X146700000Y-142500000D03*
%TD*%
D59*
%TO.C,R9*%
X117690000Y-142400000D03*
X118710000Y-142400000D03*
%TD*%
D53*
%TO.C,C46*%
X145580000Y-91200000D03*
X144620000Y-91200000D03*
%TD*%
%TO.C,C61*%
X138580000Y-82200000D03*
X137620000Y-82200000D03*
%TD*%
D59*
%TO.C,R31*%
X188390000Y-70000000D03*
X189410000Y-70000000D03*
%TD*%
D74*
%TO.C,C6*%
X145600000Y-147525000D03*
X145600000Y-149075000D03*
%TD*%
D135*
%TO.C,R46*%
X187950000Y-141575000D03*
X184850000Y-141575000D03*
%TD*%
D136*
%TO.C,FB2*%
X127287500Y-92100000D03*
X125712500Y-92100000D03*
%TD*%
D98*
%TO.C,U7*%
X181600000Y-147505000D03*
X181600000Y-146235000D03*
X181600000Y-144965000D03*
X181600000Y-143695000D03*
X187600000Y-143695000D03*
X187600000Y-144965000D03*
X187600000Y-146235000D03*
X187600000Y-147505000D03*
%TD*%
D75*
%TO.C,C4*%
X136925000Y-115700000D03*
X138475000Y-115700000D03*
%TD*%
D59*
%TO.C,R27*%
X191790000Y-119300000D03*
X192810000Y-119300000D03*
%TD*%
D65*
%TO.C,C51*%
X112200000Y-88580000D03*
X112200000Y-87620000D03*
%TD*%
D66*
%TO.C,R5*%
X187800000Y-136090000D03*
X187800000Y-137110000D03*
%TD*%
D65*
%TO.C,C57*%
X117600000Y-148980000D03*
X117600000Y-148020000D03*
%TD*%
%LPD*%
M02*
