%TF.GenerationSoftware,KiCad,Pcbnew,(6.0.1)*%
%TF.CreationDate,2022-03-11T13:59:14+01:00*%
%TF.ProjectId,pcbV10_front,70636256-3130-45f6-9672-6f6e742e6b69,rev?*%
%TF.SameCoordinates,Original*%
%TF.FileFunction,Profile,NP*%
%FSLAX46Y46*%
G04 Gerber Fmt 4.6, Leading zero omitted, Abs format (unit mm)*
G04 Created by KiCad (PCBNEW (6.0.1)) date 2022-03-11 13:59:14*
%MOMM*%
%LPD*%
G01*
G04 APERTURE LIST*
%TA.AperFunction,Profile*%
%ADD10C,0.050000*%
%TD*%
G04 APERTURE END LIST*
D10*
X50000000Y-150000000D02*
X50000000Y-50000000D01*
X78500000Y-130000000D02*
G75*
G03*
X78500000Y-130000000I-2200000J0D01*
G01*
X57100000Y-58900000D02*
X57100000Y-70200000D01*
X146250000Y-145250000D02*
G75*
G03*
X146250000Y-145250000I-1500000J0D01*
G01*
X78300000Y-88200000D02*
X60100000Y-88200000D01*
X66500000Y-66000000D02*
G75*
G03*
X66500000Y-66000000I-2000000J0D01*
G01*
X120934659Y-100684836D02*
G75*
G03*
X120699999Y-106800000I-6434659J-2815164D01*
G01*
X73500000Y-66000000D02*
G75*
G03*
X73500000Y-66000000I-2000000J0D01*
G01*
X141500000Y-138500000D02*
G75*
G03*
X141500000Y-138500000I-7000000J0D01*
G01*
X61900000Y-87200000D02*
X66900000Y-87200000D01*
X66900000Y-87200000D02*
X66900000Y-85200000D01*
X66900000Y-85200000D02*
X61900000Y-85200000D01*
X61900000Y-85200000D02*
X61900000Y-87200000D01*
X78300000Y-88200000D02*
X78300000Y-104200000D01*
X78250000Y-58400000D02*
G75*
G03*
X78250000Y-58400000I-1600000J0D01*
G01*
X120699999Y-106800000D02*
X120700000Y-119200000D01*
X132300000Y-67000000D02*
G75*
G03*
X132300000Y-67000000I-5400000J0D01*
G01*
X105100000Y-119700000D02*
X107100000Y-119700000D01*
X107100000Y-119700000D02*
X107100000Y-124700000D01*
X107100000Y-124700000D02*
X105100000Y-124700000D01*
X105100000Y-124700000D02*
X105100000Y-119700000D01*
X60100000Y-70200000D02*
X60100000Y-88200000D01*
X61700000Y-116000000D02*
X66700000Y-116000000D01*
X66700000Y-116000000D02*
X66700000Y-118000000D01*
X66700000Y-118000000D02*
X61700000Y-118000000D01*
X61700000Y-118000000D02*
X61700000Y-116000000D01*
X79000000Y-96500000D02*
X81000000Y-96500000D01*
X81000000Y-96500000D02*
X81000000Y-101500000D01*
X81000000Y-101500000D02*
X79000000Y-101500000D01*
X79000000Y-101500000D02*
X79000000Y-96500000D01*
X141500000Y-121000000D02*
G75*
G03*
X141500000Y-121000000I-7000000J0D01*
G01*
X53000000Y-58900000D02*
X57100000Y-58900000D01*
X120700000Y-119200000D02*
X127500000Y-119200000D01*
X127400000Y-124800000D02*
X127400000Y-138200000D01*
X91200000Y-112200000D02*
X96200000Y-112200000D01*
X96200000Y-112200000D02*
X96200000Y-114200000D01*
X96200000Y-114200000D02*
X91200000Y-114200000D01*
X91200000Y-114200000D02*
X91200000Y-112200000D01*
X120684899Y-135208038D02*
X120700000Y-124800000D01*
X99800000Y-112200000D02*
X104800000Y-112200000D01*
X104800000Y-112200000D02*
X104800000Y-114200000D01*
X104800000Y-114200000D02*
X99800000Y-114200000D01*
X99800000Y-114200000D02*
X99800000Y-112200000D01*
X126250000Y-143250000D02*
G75*
G03*
X126250000Y-143250000I-1750000J0D01*
G01*
X104000000Y-81500000D02*
G75*
G03*
X104000000Y-81500000I-3500000J0D01*
G01*
X146250000Y-141750000D02*
G75*
G03*
X146250000Y-141750000I-1500000J0D01*
G01*
X61800000Y-94100000D02*
X53000000Y-94100000D01*
X127500000Y-100700000D02*
X120934659Y-100684836D01*
X87500000Y-66000000D02*
G75*
G03*
X87500000Y-66000000I-2000000J0D01*
G01*
X120700000Y-124800000D02*
X127400000Y-124800000D01*
X136200000Y-65200000D02*
G75*
G03*
X136200000Y-65200000I-2000000J0D01*
G01*
X76250000Y-143250000D02*
G75*
G03*
X76250000Y-143250000I-1750000J0D01*
G01*
X127400000Y-138200000D02*
X121499999Y-138200000D01*
X60300000Y-130800000D02*
X63300000Y-130800000D01*
X63300000Y-130800000D02*
X63300000Y-146800000D01*
X63300000Y-146800000D02*
X60300000Y-146800000D01*
X60300000Y-146800000D02*
X60300000Y-130800000D01*
X50000000Y-50000000D02*
X150000000Y-50000000D01*
X60100000Y-70200000D02*
X57100000Y-70200000D01*
X119100000Y-72400000D02*
X140500000Y-72400000D01*
X140500000Y-72400000D02*
X140500000Y-76000000D01*
X140500000Y-76000000D02*
X119100000Y-76000000D01*
X119100000Y-76000000D02*
X119100000Y-72400000D01*
X80500000Y-66000000D02*
G75*
G03*
X80500000Y-66000000I-2000000J0D01*
G01*
X78300000Y-104200000D02*
X61800000Y-104200000D01*
X118000000Y-121000000D02*
G75*
G03*
X118000000Y-121000000I-3500000J0D01*
G01*
X105400000Y-91000000D02*
X119400000Y-91000000D01*
X119400000Y-91000000D02*
X119400000Y-94000000D01*
X119400000Y-94000000D02*
X105400000Y-94000000D01*
X105400000Y-94000000D02*
X105400000Y-91000000D01*
X150000000Y-150000000D02*
X50000000Y-150000000D01*
X122750000Y-58400000D02*
G75*
G03*
X122750000Y-58400000I-1600000J0D01*
G01*
X53000000Y-94100000D02*
X53000000Y-58900000D01*
X127500000Y-119200000D02*
X127500000Y-100700000D01*
X120684900Y-135208038D02*
G75*
G03*
X121499999Y-138200000I-6184900J-3291961D01*
G01*
X61800000Y-104200000D02*
X61800000Y-94100000D01*
X150000000Y-50000000D02*
X150000000Y-150000000D01*
M02*
