M48
; DRILL file {KiCad (6.0.1)} date Sun Mar 13 10:13:47 2022
; FORMAT={-:-/ absolute / inch / decimal}
; #@! TF.CreationDate,2022-03-13T10:13:47+01:00
; #@! TF.GenerationSoftware,Kicad,Pcbnew,(6.0.1)
; #@! TF.FileFunction,NonPlated,1,2,NPTH
FMAT,2
INCH
; #@! TA.AperFunction,NonPlated,NPTH,ComponentDrill
T1C0.0197
; #@! TA.AperFunction,NonPlated,NPTH,ComponentDrill
T2C0.0256
; #@! TA.AperFunction,NonPlated,NPTH,ComponentDrill
T3C0.0472
; #@! TA.AperFunction,NonPlated,NPTH,ComponentDrill
T4C0.0787
; #@! TA.AperFunction,NonPlated,NPTH,ComponentDrill
T5C0.1260
; #@! TA.AperFunction,NonPlated,NPTH,ComponentDrill
T6C0.1339
; #@! TA.AperFunction,NonPlated,NPTH,ComponentDrill
T7C0.1378
%
G90
G05
T1
X3.4941Y-4.1378
T2
X2.2165Y-3.8075
X2.2165Y-4.035
X2.2165Y-4.7642
X2.2165Y-4.9917
T3
X2.1654Y-5.2126
X3.3819Y-2.0699
X3.3819Y-2.3061
X4.8307Y-4.0197
X4.8307Y-4.9665
T4
X3.7835Y-3.2087
X4.1299Y-3.2087
X4.3307Y-4.0748
X4.3307Y-5.4528
X4.3701Y-3.1969
X4.3701Y-3.2953
X4.3701Y-3.3937
X4.4488Y-3.1476
X4.4488Y-3.2461
X4.4488Y-3.3445
X4.4488Y-3.4429
X4.5276Y-3.0984
X4.5276Y-3.1969
X4.5276Y-3.2953
X4.5276Y-3.3937
X4.5276Y-3.4921
X4.6063Y-3.1476
X4.6063Y-3.2461
X4.6063Y-3.3445
X4.6063Y-3.4429
X4.685Y-3.0984
X4.685Y-3.1969
X4.685Y-3.2953
X4.685Y-3.3937
X4.685Y-3.4921
X4.685Y-4.0748
X4.685Y-5.4528
X4.7638Y-3.1476
X4.7638Y-3.2461
X4.7638Y-3.3445
X4.7638Y-3.4429
X4.8425Y-3.0984
X4.8425Y-3.1969
X4.8425Y-3.2953
X4.8425Y-3.3937
X4.8425Y-3.4921
X4.9213Y-3.1476
X4.9213Y-3.2461
X4.9213Y-3.3445
X4.9213Y-3.4429
X5.0Y-3.1969
X5.0Y-3.2953
X5.0Y-3.3937
X5.1181Y-4.7638
X5.1181Y-5.4528
X5.4724Y-4.7638
X5.4724Y-5.4528
T5
X2.6854Y-3.5874
X2.6854Y-3.9874
T6
X2.9331Y-5.6398
X4.9016Y-5.6398
T7
X3.311Y-2.8283
T7
G00X3.0177Y-2.2992
M15
G01X3.0177Y-2.2992
M16
G05
G00X4.7697Y-2.2992
M15
G01X4.7697Y-2.2992
M16
G05
T0
M30
