%TF.GenerationSoftware,KiCad,Pcbnew,(6.0.1)*%
%TF.CreationDate,2022-03-29T23:04:51+02:00*%
%TF.ProjectId,pcbV10,70636256-3130-42e6-9b69-6361645f7063,rev?*%
%TF.SameCoordinates,Original*%
%TF.FileFunction,Soldermask,Top*%
%TF.FilePolarity,Negative*%
%FSLAX46Y46*%
G04 Gerber Fmt 4.6, Leading zero omitted, Abs format (unit mm)*
G04 Created by KiCad (PCBNEW (6.0.1)) date 2022-03-29 23:04:51*
%MOMM*%
%LPD*%
G01*
G04 APERTURE LIST*
G04 Aperture macros list*
%AMRoundRect*
0 Rectangle with rounded corners*
0 $1 Rounding radius*
0 $2 $3 $4 $5 $6 $7 $8 $9 X,Y pos of 4 corners*
0 Add a 4 corners polygon primitive as box body*
4,1,4,$2,$3,$4,$5,$6,$7,$8,$9,$2,$3,0*
0 Add four circle primitives for the rounded corners*
1,1,$1+$1,$2,$3*
1,1,$1+$1,$4,$5*
1,1,$1+$1,$6,$7*
1,1,$1+$1,$8,$9*
0 Add four rect primitives between the rounded corners*
20,1,$1+$1,$2,$3,$4,$5,0*
20,1,$1+$1,$4,$5,$6,$7,0*
20,1,$1+$1,$6,$7,$8,$9,0*
20,1,$1+$1,$8,$9,$2,$3,0*%
%AMFreePoly0*
4,1,22,0.550000,-0.750000,0.000000,-0.750000,0.000000,-0.745033,-0.079941,-0.743568,-0.215256,-0.701293,-0.333266,-0.622738,-0.424486,-0.514219,-0.481581,-0.384460,-0.499164,-0.250000,-0.500000,-0.250000,-0.500000,0.250000,-0.499164,0.250000,-0.499963,0.256109,-0.478152,0.396186,-0.417904,0.524511,-0.324060,0.630769,-0.204165,0.706417,-0.067858,0.745374,0.000000,0.744959,0.000000,0.750000,
0.550000,0.750000,0.550000,-0.750000,0.550000,-0.750000,$1*%
%AMFreePoly1*
4,1,20,0.000000,0.744959,0.073905,0.744508,0.209726,0.703889,0.328688,0.626782,0.421226,0.519385,0.479903,0.390333,0.500000,0.250000,0.500000,-0.250000,0.499851,-0.262216,0.476331,-0.402017,0.414519,-0.529596,0.319384,-0.634700,0.198574,-0.708877,0.061801,-0.746166,0.000000,-0.745033,0.000000,-0.750000,-0.550000,-0.750000,-0.550000,0.750000,0.000000,0.750000,0.000000,0.744959,
0.000000,0.744959,$1*%
%AMFreePoly2*
4,1,22,0.500000,-0.750000,0.000000,-0.750000,0.000000,-0.745033,-0.079941,-0.743568,-0.215256,-0.701293,-0.333266,-0.622738,-0.424486,-0.514219,-0.481581,-0.384460,-0.499164,-0.250000,-0.500000,-0.250000,-0.500000,0.250000,-0.499164,0.250000,-0.499963,0.256109,-0.478152,0.396186,-0.417904,0.524511,-0.324060,0.630769,-0.204165,0.706417,-0.067858,0.745374,0.000000,0.744959,0.000000,0.750000,
0.500000,0.750000,0.500000,-0.750000,0.500000,-0.750000,$1*%
%AMFreePoly3*
4,1,20,0.000000,0.744959,0.073905,0.744508,0.209726,0.703889,0.328688,0.626782,0.421226,0.519385,0.479903,0.390333,0.500000,0.250000,0.500000,-0.250000,0.499851,-0.262216,0.476331,-0.402017,0.414519,-0.529596,0.319384,-0.634700,0.198574,-0.708877,0.061801,-0.746166,0.000000,-0.745033,0.000000,-0.750000,-0.500000,-0.750000,-0.500000,0.750000,0.000000,0.750000,0.000000,0.744959,
0.000000,0.744959,$1*%
G04 Aperture macros list end*
%ADD10C,0.500000*%
%ADD11RoundRect,0.225000X0.250000X-0.225000X0.250000X0.225000X-0.250000X0.225000X-0.250000X-0.225000X0*%
%ADD12RoundRect,0.225000X-0.250000X0.225000X-0.250000X-0.225000X0.250000X-0.225000X0.250000X0.225000X0*%
%ADD13RoundRect,0.225000X-0.225000X-0.250000X0.225000X-0.250000X0.225000X0.250000X-0.225000X0.250000X0*%
%ADD14RoundRect,0.225000X0.225000X0.250000X-0.225000X0.250000X-0.225000X-0.250000X0.225000X-0.250000X0*%
%ADD15R,1.600000X1.600000*%
%ADD16C,1.600000*%
%ADD17R,1.500000X1.000000*%
%ADD18R,1.200000X0.900000*%
%ADD19RoundRect,0.243750X0.243750X0.456250X-0.243750X0.456250X-0.243750X-0.456250X0.243750X-0.456250X0*%
%ADD20O,2.200000X1.700000*%
%ADD21C,1.200000*%
%ADD22RoundRect,0.250000X-0.600000X0.600000X-0.600000X-0.600000X0.600000X-0.600000X0.600000X0.600000X0*%
%ADD23O,1.950000X1.700000*%
%ADD24C,0.650000*%
%ADD25R,1.450000X0.600000*%
%ADD26R,1.450000X0.300000*%
%ADD27O,2.500000X2.000000*%
%ADD28O,3.500000X2.000000*%
%ADD29R,1.700000X1.700000*%
%ADD30O,1.700000X1.700000*%
%ADD31R,2.030000X1.730000*%
%ADD32O,2.030000X1.730000*%
%ADD33R,1.270000X3.600000*%
%ADD34R,1.350000X4.200000*%
%ADD35FreePoly0,180.000000*%
%ADD36R,1.000000X1.500000*%
%ADD37FreePoly1,180.000000*%
%ADD38FreePoly2,90.000000*%
%ADD39FreePoly3,90.000000*%
%ADD40R,1.800000X0.800000*%
%ADD41RoundRect,0.150000X-0.150000X0.587500X-0.150000X-0.587500X0.150000X-0.587500X0.150000X0.587500X0*%
%ADD42RoundRect,0.150000X0.150000X-0.587500X0.150000X0.587500X-0.150000X0.587500X-0.150000X-0.587500X0*%
%ADD43RoundRect,0.150000X-0.587500X-0.150000X0.587500X-0.150000X0.587500X0.150000X-0.587500X0.150000X0*%
%ADD44RoundRect,0.150000X0.587500X0.150000X-0.587500X0.150000X-0.587500X-0.150000X0.587500X-0.150000X0*%
%ADD45RoundRect,0.200000X-0.275000X0.200000X-0.275000X-0.200000X0.275000X-0.200000X0.275000X0.200000X0*%
%ADD46RoundRect,0.200000X0.275000X-0.200000X0.275000X0.200000X-0.275000X0.200000X-0.275000X-0.200000X0*%
%ADD47RoundRect,0.200000X0.200000X0.275000X-0.200000X0.275000X-0.200000X-0.275000X0.200000X-0.275000X0*%
%ADD48RoundRect,0.200000X-0.200000X-0.275000X0.200000X-0.275000X0.200000X0.275000X-0.200000X0.275000X0*%
%ADD49RoundRect,0.250000X-0.312500X-0.625000X0.312500X-0.625000X0.312500X0.625000X-0.312500X0.625000X0*%
%ADD50C,4.000000*%
%ADD51C,1.800000*%
%ADD52C,2.000000*%
%ADD53R,1.500000X2.000000*%
%ADD54R,3.800000X2.000000*%
%ADD55R,2.000000X0.900000*%
%ADD56R,0.900000X2.000000*%
%ADD57R,5.000000X5.000000*%
%ADD58R,2.000000X1.000000*%
%ADD59C,3.200000*%
%ADD60RoundRect,0.400000X0.600000X-0.400000X0.600000X0.400000X-0.600000X0.400000X-0.600000X-0.400000X0*%
%ADD61O,2.000000X1.600000*%
%ADD62RoundRect,0.150000X-0.150000X0.825000X-0.150000X-0.825000X0.150000X-0.825000X0.150000X0.825000X0*%
%ADD63RoundRect,0.250000X0.550000X-0.550000X0.550000X0.550000X-0.550000X0.550000X-0.550000X-0.550000X0*%
%ADD64RoundRect,0.250000X-0.725000X0.600000X-0.725000X-0.600000X0.725000X-0.600000X0.725000X0.600000X0*%
%ADD65C,3.400000*%
%ADD66RoundRect,0.450000X-0.450000X0.650000X-0.450000X-0.650000X0.450000X-0.650000X0.450000X0.650000X0*%
%ADD67O,1.800000X2.200000*%
%ADD68RoundRect,0.400000X0.400000X-0.600000X0.400000X0.600000X-0.400000X0.600000X-0.400000X-0.600000X0*%
%ADD69O,1.600000X2.000000*%
%ADD70R,2.000000X3.200000*%
%ADD71RoundRect,0.150000X0.825000X0.150000X-0.825000X0.150000X-0.825000X-0.150000X0.825000X-0.150000X0*%
%ADD72RoundRect,0.400000X-0.400000X-0.600000X0.400000X-0.600000X0.400000X0.600000X-0.400000X0.600000X0*%
%ADD73O,1.800000X1.400000*%
%ADD74RoundRect,0.250000X0.312500X0.625000X-0.312500X0.625000X-0.312500X-0.625000X0.312500X-0.625000X0*%
%ADD75R,2.200000X2.200000*%
%ADD76R,2.200000X1.250000*%
%ADD77O,1.400000X1.800000*%
%ADD78RoundRect,0.250000X-0.650000X0.325000X-0.650000X-0.325000X0.650000X-0.325000X0.650000X0.325000X0*%
%ADD79RoundRect,0.250000X0.650000X-0.325000X0.650000X0.325000X-0.650000X0.325000X-0.650000X-0.325000X0*%
%ADD80RoundRect,0.235000X1.465000X-0.940000X1.465000X0.940000X-1.465000X0.940000X-1.465000X-0.940000X0*%
%ADD81R,3.500000X3.500000*%
%ADD82RoundRect,0.750000X-1.000000X0.750000X-1.000000X-0.750000X1.000000X-0.750000X1.000000X0.750000X0*%
%ADD83RoundRect,0.875000X-0.875000X0.875000X-0.875000X-0.875000X0.875000X-0.875000X0.875000X0.875000X0*%
%ADD84R,0.800000X2.200000*%
%ADD85R,5.800000X6.400000*%
%ADD86R,1.700000X1.000000*%
%ADD87RoundRect,0.425000X-0.425000X-0.425000X0.425000X-0.425000X0.425000X0.425000X-0.425000X0.425000X0*%
%ADD88R,1.800000X1.100000*%
%ADD89RoundRect,0.275000X0.625000X-0.275000X0.625000X0.275000X-0.625000X0.275000X-0.625000X-0.275000X0*%
%ADD90RoundRect,0.125000X-0.125000X-0.137500X0.125000X-0.137500X0.125000X0.137500X-0.125000X0.137500X0*%
%ADD91R,0.350000X0.500000*%
%ADD92R,0.400000X0.600000*%
%ADD93R,2.200000X1.100000*%
%ADD94RoundRect,0.425000X-0.425000X0.675000X-0.425000X-0.675000X0.425000X-0.675000X0.425000X0.675000X0*%
%ADD95O,1.700000X2.200000*%
%ADD96O,1.600000X1.200000*%
%ADD97RoundRect,0.150000X-0.150000X-0.625000X0.150000X-0.625000X0.150000X0.625000X-0.150000X0.625000X0*%
%ADD98RoundRect,0.250000X-0.350000X-0.650000X0.350000X-0.650000X0.350000X0.650000X-0.350000X0.650000X0*%
%ADD99RoundRect,0.250000X-0.250000X0.550000X-0.250000X-0.550000X0.250000X-0.550000X0.250000X0.550000X0*%
%ADD100R,3.000000X1.500000*%
%ADD101R,1.000000X1.000000*%
%ADD102RoundRect,0.250000X-1.250000X-0.550000X1.250000X-0.550000X1.250000X0.550000X-1.250000X0.550000X0*%
%ADD103RoundRect,0.062500X0.062500X0.687500X-0.062500X0.687500X-0.062500X-0.687500X0.062500X-0.687500X0*%
%ADD104RoundRect,0.250000X0.600000X0.725000X-0.600000X0.725000X-0.600000X-0.725000X0.600000X-0.725000X0*%
%ADD105O,1.700000X1.950000*%
%ADD106RoundRect,0.150000X0.512500X0.150000X-0.512500X0.150000X-0.512500X-0.150000X0.512500X-0.150000X0*%
%ADD107RoundRect,0.075000X-0.075000X0.350000X-0.075000X-0.350000X0.075000X-0.350000X0.075000X0.350000X0*%
%ADD108RoundRect,0.075000X-0.350000X-0.075000X0.350000X-0.075000X0.350000X0.075000X-0.350000X0.075000X0*%
%ADD109RoundRect,0.270000X0.630000X-0.980000X0.630000X0.980000X-0.630000X0.980000X-0.630000X-0.980000X0*%
%ADD110RoundRect,0.250000X0.550000X-1.250000X0.550000X1.250000X-0.550000X1.250000X-0.550000X-1.250000X0*%
%ADD111RoundRect,0.150000X0.150000X-0.825000X0.150000X0.825000X-0.150000X0.825000X-0.150000X-0.825000X0*%
%ADD112RoundRect,0.062500X-0.275000X-0.062500X0.275000X-0.062500X0.275000X0.062500X-0.275000X0.062500X0*%
%ADD113RoundRect,0.062500X-0.062500X-0.275000X0.062500X-0.275000X0.062500X0.275000X-0.062500X0.275000X0*%
%ADD114R,1.450000X1.450000*%
%ADD115O,3.500000X3.500000*%
%ADD116R,1.905000X2.000000*%
%ADD117O,1.905000X2.000000*%
%ADD118C,1.500000*%
%ADD119RoundRect,0.250000X1.550000X-0.650000X1.550000X0.650000X-1.550000X0.650000X-1.550000X-0.650000X0*%
%ADD120O,3.600000X1.800000*%
%ADD121RoundRect,0.150000X-0.150000X0.512500X-0.150000X-0.512500X0.150000X-0.512500X0.150000X0.512500X0*%
%ADD122C,0.500000*%
%ADD123R,0.600000X0.400000*%
%ADD124R,1.500000X2.400000*%
%ADD125R,1.000000X0.400000*%
%ADD126RoundRect,0.250000X0.325000X0.650000X-0.325000X0.650000X-0.325000X-0.650000X0.325000X-0.650000X0*%
%ADD127C,3.600000*%
%ADD128RoundRect,0.250000X0.750000X-0.600000X0.750000X0.600000X-0.750000X0.600000X-0.750000X-0.600000X0*%
%ADD129O,2.000000X1.700000*%
G04 APERTURE END LIST*
D10*
%TO.C,U3*%
X89420000Y-105100000D02*
G75*
G03*
X89420000Y-105100000I-670000J0D01*
G01*
%TD*%
D11*
%TO.C,C1*%
X72700000Y-119975000D03*
X72700000Y-118425000D03*
%TD*%
D12*
%TO.C,C3*%
X72700000Y-121425000D03*
X72700000Y-122975000D03*
%TD*%
D11*
%TO.C,C4*%
X104300000Y-134875000D03*
X104300000Y-133325000D03*
%TD*%
%TO.C,C5*%
X80600000Y-131975000D03*
X80600000Y-130425000D03*
%TD*%
D12*
%TO.C,C8*%
X81500000Y-124425000D03*
X81500000Y-125975000D03*
%TD*%
%TO.C,C9*%
X80600000Y-127425000D03*
X80600000Y-128975000D03*
%TD*%
D13*
%TO.C,C10*%
X69325000Y-118300000D03*
X70875000Y-118300000D03*
%TD*%
%TO.C,C14*%
X73012000Y-62484000D03*
X74562000Y-62484000D03*
%TD*%
D14*
%TO.C,C16*%
X71514000Y-62484000D03*
X69964000Y-62484000D03*
%TD*%
%TO.C,C18*%
X63767000Y-62484000D03*
X62217000Y-62484000D03*
%TD*%
D15*
%TO.C,C27*%
X83194849Y-54200000D03*
D16*
X86694849Y-54200000D03*
%TD*%
D17*
%TO.C,D1*%
X83050000Y-64400000D03*
X83050000Y-67600000D03*
X87950000Y-67600000D03*
X87950000Y-64400000D03*
%TD*%
%TO.C,D2*%
X76050000Y-64400000D03*
X76050000Y-67600000D03*
X80950000Y-67600000D03*
X80950000Y-64400000D03*
%TD*%
D18*
%TO.C,D5*%
X129700000Y-110550000D03*
X129700000Y-107250000D03*
%TD*%
D19*
%TO.C,D6*%
X135137500Y-65200000D03*
X133262500Y-65200000D03*
%TD*%
%TO.C,D7*%
X145687500Y-145250000D03*
X143812500Y-145250000D03*
%TD*%
%TO.C,D8*%
X145687500Y-141750000D03*
X143812500Y-141750000D03*
%TD*%
D20*
%TO.C,GSM_Module1*%
X92583000Y-55700000D03*
X92583000Y-58240000D03*
X92583000Y-60780000D03*
X92583000Y-63320000D03*
X92583000Y-65860000D03*
X92583000Y-68400000D03*
X114083000Y-58000000D03*
X114083000Y-60540000D03*
X114083000Y-63080000D03*
X114083000Y-65620000D03*
X114083000Y-68160000D03*
X114083000Y-70700000D03*
%TD*%
D21*
%TO.C,J3*%
X55000000Y-132400000D03*
D22*
X57000000Y-134000000D03*
D23*
X57000000Y-136500000D03*
X57000000Y-139000000D03*
X57000000Y-141500000D03*
X57000000Y-144000000D03*
%TD*%
D24*
%TO.C,J8*%
X56300000Y-102490000D03*
X56300000Y-96710000D03*
D25*
X57550000Y-96400000D03*
X57500000Y-97200000D03*
D26*
X57500000Y-98350000D03*
X57500000Y-99350000D03*
X57500000Y-99850000D03*
X57500000Y-100850000D03*
D25*
X57500000Y-102000000D03*
X57550000Y-102800000D03*
X57550000Y-102800000D03*
X57500000Y-102000000D03*
D26*
X57500000Y-101350000D03*
X57500000Y-100350000D03*
X57500000Y-98850000D03*
X57500000Y-97850000D03*
D25*
X57500000Y-97200000D03*
X57550000Y-96400000D03*
D27*
X52600000Y-104420000D03*
X52600000Y-94780000D03*
D28*
X56780000Y-94780000D03*
X56780000Y-104420000D03*
%TD*%
D29*
%TO.C,J9*%
X55372000Y-68326000D03*
D30*
X55372000Y-65786000D03*
X55372000Y-63246000D03*
X55372000Y-60706000D03*
%TD*%
D31*
%TO.C,J11*%
X57000000Y-81060000D03*
D32*
X57000000Y-83600000D03*
X57000000Y-86140000D03*
%TD*%
D29*
%TO.C,J12*%
X142460000Y-77290000D03*
D30*
X145000000Y-77290000D03*
X142460000Y-79830000D03*
X145000000Y-79830000D03*
X142460000Y-82370000D03*
X145000000Y-82370000D03*
X142460000Y-84910000D03*
X145000000Y-84910000D03*
X142460000Y-87450000D03*
X145000000Y-87450000D03*
X142460000Y-89990000D03*
X145000000Y-89990000D03*
X142460000Y-92530000D03*
X145000000Y-92530000D03*
X142460000Y-95070000D03*
X145000000Y-95070000D03*
X142460000Y-97610000D03*
X145000000Y-97610000D03*
X142460000Y-100150000D03*
X145000000Y-100150000D03*
X142460000Y-102690000D03*
X145000000Y-102690000D03*
X142460000Y-105230000D03*
X145000000Y-105230000D03*
X142460000Y-107770000D03*
X145000000Y-107770000D03*
X142460000Y-110310000D03*
X145000000Y-110310000D03*
X142460000Y-112850000D03*
X145000000Y-112850000D03*
X142460000Y-115390000D03*
X145000000Y-115390000D03*
X142460000Y-117930000D03*
X145000000Y-117930000D03*
X142460000Y-120470000D03*
X145000000Y-120470000D03*
X142460000Y-123010000D03*
X145000000Y-123010000D03*
X142460000Y-125550000D03*
X145000000Y-125550000D03*
X142460000Y-128090000D03*
X145000000Y-128090000D03*
X142460000Y-130630000D03*
X145000000Y-130630000D03*
X142460000Y-133170000D03*
X145000000Y-133170000D03*
X142460000Y-135710000D03*
X145000000Y-135710000D03*
X142460000Y-138250000D03*
X145000000Y-138250000D03*
%TD*%
D33*
%TO.C,J14*%
X95100000Y-51900000D03*
D34*
X92275000Y-52100000D03*
X97925000Y-52100000D03*
%TD*%
D35*
%TO.C,JP3*%
X88549000Y-97200000D03*
D36*
X87249000Y-97200000D03*
D37*
X85949000Y-97200000D03*
%TD*%
D35*
%TO.C,JP4*%
X93248000Y-97200000D03*
D36*
X91948000Y-97200000D03*
D37*
X90648000Y-97200000D03*
%TD*%
D38*
%TO.C,JP6*%
X93500000Y-92550000D03*
D39*
X93500000Y-91250000D03*
%TD*%
D38*
%TO.C,JP7*%
X90200000Y-92550000D03*
D39*
X90200000Y-91250000D03*
%TD*%
D40*
%TO.C,K1*%
X132390000Y-82300000D03*
X132390000Y-85500000D03*
X132390000Y-87700000D03*
X132390000Y-89900000D03*
X139390000Y-89900000D03*
X139390000Y-87700000D03*
X139390000Y-85500000D03*
X139390000Y-82300000D03*
%TD*%
%TO.C,K2*%
X132390000Y-92847000D03*
X132390000Y-96047000D03*
X132390000Y-98247000D03*
X132390000Y-100447000D03*
X139390000Y-100447000D03*
X139390000Y-98247000D03*
X139390000Y-96047000D03*
X139390000Y-92847000D03*
%TD*%
%TO.C,K3*%
X132390000Y-103515000D03*
X132390000Y-106715000D03*
X132390000Y-108915000D03*
X132390000Y-111115000D03*
X139390000Y-111115000D03*
X139390000Y-108915000D03*
X139390000Y-106715000D03*
X139390000Y-103515000D03*
%TD*%
D41*
%TO.C,Q2*%
X64050000Y-127662500D03*
X62150000Y-127662500D03*
X63100000Y-129537500D03*
%TD*%
D42*
%TO.C,Q4*%
X128450000Y-104800000D03*
X130350000Y-104800000D03*
X129400000Y-102925000D03*
%TD*%
D43*
%TO.C,Q5*%
X134162500Y-69750000D03*
X134162500Y-71650000D03*
X136037500Y-70700000D03*
%TD*%
D44*
%TO.C,Q9*%
X62987500Y-82650000D03*
X62987500Y-80750000D03*
X61112500Y-81700000D03*
%TD*%
D45*
%TO.C,R1*%
X104300000Y-130275000D03*
X104300000Y-131925000D03*
%TD*%
%TO.C,R2*%
X60600000Y-119475000D03*
X60600000Y-121125000D03*
%TD*%
D46*
%TO.C,R3*%
X59400000Y-129625000D03*
X59400000Y-127975000D03*
%TD*%
%TO.C,R4*%
X108000000Y-74725000D03*
X108000000Y-73075000D03*
%TD*%
D47*
%TO.C,R6*%
X67125000Y-129200000D03*
X65475000Y-129200000D03*
%TD*%
D48*
%TO.C,R7*%
X65475000Y-127500000D03*
X67125000Y-127500000D03*
%TD*%
D47*
%TO.C,R15*%
X135025000Y-68200000D03*
X133375000Y-68200000D03*
%TD*%
D46*
%TO.C,R16*%
X132400000Y-71725000D03*
X132400000Y-70075000D03*
%TD*%
D45*
%TO.C,R17*%
X107300000Y-130275000D03*
X107300000Y-131925000D03*
%TD*%
D49*
%TO.C,R19*%
X136737500Y-65300000D03*
X139662500Y-65300000D03*
%TD*%
D46*
%TO.C,R20*%
X105800000Y-131925000D03*
X105800000Y-130275000D03*
%TD*%
D45*
%TO.C,R21*%
X105900000Y-127175000D03*
X105900000Y-128825000D03*
%TD*%
D48*
%TO.C,R22*%
X113602000Y-112014000D03*
X115252000Y-112014000D03*
%TD*%
%TO.C,R23*%
X108649000Y-112100000D03*
X110299000Y-112100000D03*
%TD*%
D46*
%TO.C,R24*%
X141750000Y-146075000D03*
X141750000Y-144425000D03*
%TD*%
%TO.C,R25*%
X141750000Y-142575000D03*
X141750000Y-140925000D03*
%TD*%
D50*
%TO.C,RV1*%
X96100000Y-81500000D03*
X104900000Y-81500000D03*
D51*
X103000000Y-88500000D03*
X100500000Y-88500000D03*
X98000000Y-88500000D03*
%TD*%
D52*
%TO.C,SW1*%
X139000000Y-121000000D03*
X130000000Y-121000000D03*
D53*
X132000000Y-128150000D03*
X132000000Y-113850000D03*
X137000000Y-128150000D03*
X137000000Y-113850000D03*
%TD*%
D52*
%TO.C,SW5*%
X139000000Y-138500000D03*
X130000000Y-138500000D03*
D53*
X132000000Y-131350000D03*
X132000000Y-145650000D03*
X137000000Y-145650000D03*
X137000000Y-131350000D03*
%TD*%
%TO.C,U1*%
X79400000Y-119050000D03*
D54*
X77100000Y-125350000D03*
D53*
X77100000Y-119050000D03*
X74800000Y-119050000D03*
%TD*%
D55*
%TO.C,U2*%
X102250000Y-134195200D03*
X102250000Y-132925200D03*
X102250000Y-131655200D03*
X102250000Y-130385200D03*
X102250000Y-129115200D03*
X102250000Y-127845200D03*
X102250000Y-126575200D03*
X102250000Y-125305200D03*
X102250000Y-124035200D03*
X102250000Y-122765200D03*
X102250000Y-121495200D03*
X102250000Y-120225200D03*
X102250000Y-118955200D03*
X102250000Y-117685200D03*
D56*
X99465000Y-116685200D03*
X98195000Y-116685200D03*
X96925000Y-116685200D03*
X95655000Y-116685200D03*
X94385000Y-116685200D03*
X93115000Y-116685200D03*
X91845000Y-116685200D03*
X90575000Y-116685200D03*
X89305000Y-116685200D03*
X88035000Y-116685200D03*
D55*
X85250000Y-117685200D03*
X85250000Y-118955200D03*
X85250000Y-120225200D03*
X85250000Y-121495200D03*
X85250000Y-122765200D03*
X85250000Y-124035200D03*
X85250000Y-125305200D03*
X85250000Y-126575200D03*
X85250000Y-127845200D03*
X85250000Y-129115200D03*
X85250000Y-130385200D03*
X85250000Y-131655200D03*
X85250000Y-132925200D03*
X85250000Y-134195200D03*
D57*
X94750000Y-126695200D03*
%TD*%
D58*
%TO.C,U17*%
X111500000Y-70400000D03*
X111500000Y-68400000D03*
X111500000Y-66400000D03*
X111500000Y-64400000D03*
X111500000Y-62400000D03*
X111500000Y-60400000D03*
X111500000Y-58400000D03*
X111500000Y-56400000D03*
X95500000Y-56400000D03*
X95500000Y-58400000D03*
X95500000Y-60400000D03*
X95500000Y-62400000D03*
X95500000Y-64400000D03*
X95500000Y-66400000D03*
X95500000Y-68400000D03*
X95500000Y-70400000D03*
%TD*%
D29*
%TO.C,J2*%
X60080000Y-89825000D03*
D30*
X60080000Y-92365000D03*
X57540000Y-89825000D03*
X57540000Y-92365000D03*
X55000000Y-89825000D03*
X55000000Y-92365000D03*
%TD*%
D47*
%TO.C,R12*%
X84175000Y-96700000D03*
X82525000Y-96700000D03*
%TD*%
D41*
%TO.C,Q1*%
X70450000Y-127562500D03*
X68550000Y-127562500D03*
X69500000Y-129437500D03*
%TD*%
D17*
%TO.C,D3*%
X69050000Y-64400000D03*
X69050000Y-67600000D03*
X73950000Y-67600000D03*
X73950000Y-64400000D03*
%TD*%
D13*
%TO.C,C7*%
X80025000Y-62484000D03*
X81575000Y-62484000D03*
%TD*%
D41*
%TO.C,D4*%
X80800000Y-91862500D03*
X78900000Y-91862500D03*
X79850000Y-93737500D03*
%TD*%
D59*
%TO.C,J7*%
X68210000Y-91120000D03*
X68210000Y-101280000D03*
D60*
X77100000Y-93025000D03*
D61*
X74560000Y-94295000D03*
X77100000Y-95565000D03*
X74560000Y-96835000D03*
X77100000Y-98105000D03*
X74560000Y-99375000D03*
%TD*%
D62*
%TO.C,U18*%
X128005000Y-92902000D03*
X126735000Y-92902000D03*
X125465000Y-92902000D03*
X124195000Y-92902000D03*
X124195000Y-97852000D03*
X125465000Y-97852000D03*
X126735000Y-97852000D03*
X128005000Y-97852000D03*
%TD*%
D14*
%TO.C,C25*%
X125575000Y-99949000D03*
X124025000Y-99949000D03*
%TD*%
D46*
%TO.C,R39*%
X121100000Y-93725000D03*
X121100000Y-92075000D03*
%TD*%
D45*
%TO.C,R38*%
X119600000Y-92075000D03*
X119600000Y-93725000D03*
%TD*%
D11*
%TO.C,C23*%
X122600000Y-93675000D03*
X122600000Y-92125000D03*
%TD*%
D13*
%TO.C,C26*%
X127025000Y-99949000D03*
X128575000Y-99949000D03*
%TD*%
D63*
%TO.C,J13*%
X122000000Y-99400000D03*
D16*
X122000000Y-95800000D03*
%TD*%
D12*
%TO.C,C2*%
X105800000Y-133325000D03*
X105800000Y-134875000D03*
%TD*%
D14*
%TO.C,C24*%
X115275000Y-94400000D03*
X113725000Y-94400000D03*
%TD*%
D46*
%TO.C,R37*%
X108900000Y-129525000D03*
X108900000Y-127875000D03*
%TD*%
D21*
%TO.C,J4*%
X122700000Y-126150000D03*
D64*
X124700000Y-127750000D03*
D23*
X124700000Y-130250000D03*
X124700000Y-132750000D03*
X124700000Y-135250000D03*
%TD*%
D52*
%TO.C,SW3*%
X119000000Y-138500000D03*
X110000000Y-138500000D03*
D53*
X112000000Y-145650000D03*
X112000000Y-131350000D03*
X117000000Y-145650000D03*
X117000000Y-131350000D03*
%TD*%
D65*
%TO.C,X1*%
X124500000Y-143250000D03*
X74500000Y-143250000D03*
%TD*%
D13*
%TO.C,C12*%
X98425000Y-110600000D03*
X99975000Y-110600000D03*
%TD*%
D46*
%TO.C,R11*%
X73200000Y-88425000D03*
X73200000Y-86775000D03*
%TD*%
D12*
%TO.C,C6*%
X72700000Y-124425000D03*
X72700000Y-125975000D03*
%TD*%
D66*
%TO.C,U16*%
X79410000Y-51800000D03*
D67*
X76870000Y-51800000D03*
X74330000Y-51800000D03*
X71790000Y-51800000D03*
%TD*%
D21*
%TO.C,J5*%
X122700000Y-102100000D03*
D64*
X124700000Y-103700000D03*
D23*
X124700000Y-106200000D03*
X124700000Y-108700000D03*
X124700000Y-111200000D03*
X124700000Y-113700000D03*
X124700000Y-116200000D03*
%TD*%
D52*
%TO.C,SW4*%
X119000000Y-103500000D03*
X110000000Y-103500000D03*
D53*
X117000000Y-110650000D03*
X117000000Y-96350000D03*
X112000000Y-110650000D03*
X112000000Y-96350000D03*
%TD*%
D68*
%TO.C,SW2*%
X112000000Y-128500000D03*
D69*
X117000000Y-128500000D03*
X114500000Y-128500000D03*
D70*
X108900000Y-121000000D03*
X120100000Y-121000000D03*
D69*
X117000000Y-114000000D03*
X112000000Y-114000000D03*
%TD*%
D31*
%TO.C,J10*%
X57000000Y-72060000D03*
D32*
X57000000Y-74600000D03*
X57000000Y-77140000D03*
%TD*%
D11*
%TO.C,C19*%
X62400000Y-112075000D03*
X62400000Y-110525000D03*
%TD*%
D47*
%TO.C,R8*%
X71975000Y-139500000D03*
X70325000Y-139500000D03*
%TD*%
%TO.C,R5*%
X65925000Y-132500000D03*
X64275000Y-132500000D03*
%TD*%
D71*
%TO.C,U6*%
X107075000Y-110505000D03*
X107075000Y-109235000D03*
X107075000Y-107965000D03*
X107075000Y-106695000D03*
X102125000Y-106695000D03*
X102125000Y-107965000D03*
X102125000Y-109235000D03*
X102125000Y-110505000D03*
%TD*%
D17*
%TO.C,D15*%
X62050000Y-64400000D03*
X62050000Y-67600000D03*
X66950000Y-67600000D03*
X66950000Y-64400000D03*
%TD*%
D45*
%TO.C,R14*%
X128600000Y-112475000D03*
X128600000Y-114125000D03*
%TD*%
D72*
%TO.C,U14*%
X84580000Y-94600000D03*
D69*
X87120000Y-94600000D03*
X89660000Y-94600000D03*
X92200000Y-94600000D03*
X94740000Y-94600000D03*
X97280000Y-94600000D03*
X99820000Y-94600000D03*
%TD*%
D46*
%TO.C,R30*%
X105000000Y-92125000D03*
X105000000Y-90475000D03*
%TD*%
D73*
%TO.C,SW6*%
X80000000Y-101500000D03*
X80000000Y-99000000D03*
X80000000Y-96500000D03*
%TD*%
D45*
%TO.C,R26*%
X90100000Y-86975000D03*
X90100000Y-88625000D03*
%TD*%
D74*
%TO.C,R33*%
X77962500Y-85700000D03*
X75037500Y-85700000D03*
%TD*%
D75*
%TO.C,D13*%
X77000000Y-77800000D03*
D76*
X77000000Y-75525000D03*
%TD*%
D24*
%TO.C,J1*%
X56300000Y-121010000D03*
X56300000Y-126790000D03*
D25*
X57550000Y-120700000D03*
X57500000Y-121500000D03*
D26*
X57500000Y-122650000D03*
X57500000Y-123650000D03*
X57500000Y-124150000D03*
X57500000Y-125150000D03*
D25*
X57500000Y-126300000D03*
X57550000Y-127100000D03*
X57550000Y-127100000D03*
X57500000Y-126300000D03*
D26*
X57500000Y-125650000D03*
X57500000Y-124650000D03*
X57500000Y-123150000D03*
X57500000Y-122150000D03*
D25*
X57500000Y-121500000D03*
X57550000Y-120700000D03*
D27*
X52600000Y-119080000D03*
D28*
X56780000Y-119080000D03*
X56780000Y-128720000D03*
D27*
X52600000Y-128720000D03*
%TD*%
D77*
%TO.C,SW7*%
X104800000Y-113200000D03*
X102300000Y-113200000D03*
X99800000Y-113200000D03*
%TD*%
D73*
%TO.C,SW8*%
X106045000Y-124674000D03*
X106045000Y-122174000D03*
X106045000Y-119674000D03*
%TD*%
D52*
%TO.C,FID1*%
X55245000Y-55118000D03*
%TD*%
%TO.C,FID2*%
X120015000Y-146431000D03*
%TD*%
D12*
%TO.C,C20*%
X104400000Y-127225000D03*
X104400000Y-128775000D03*
%TD*%
D46*
%TO.C,R44*%
X119000000Y-129625000D03*
X119000000Y-127975000D03*
%TD*%
D77*
%TO.C,SW11*%
X66700000Y-117000000D03*
X64200000Y-117000000D03*
X61700000Y-117000000D03*
%TD*%
D47*
%TO.C,R35*%
X71725000Y-86800000D03*
X70075000Y-86800000D03*
%TD*%
D78*
%TO.C,C17*%
X64900000Y-107125000D03*
X64900000Y-110075000D03*
%TD*%
D79*
%TO.C,C22*%
X67200000Y-110075000D03*
X67200000Y-107125000D03*
%TD*%
D12*
%TO.C,C33*%
X67600000Y-104025000D03*
X67600000Y-105575000D03*
%TD*%
%TO.C,C35*%
X78200000Y-105625000D03*
X78200000Y-107175000D03*
%TD*%
D11*
%TO.C,C36*%
X71100000Y-115575000D03*
X71100000Y-114025000D03*
%TD*%
D80*
%TO.C,L2*%
X75500000Y-114825000D03*
X75500000Y-108775000D03*
%TD*%
D45*
%TO.C,R45*%
X80200000Y-103975000D03*
X80200000Y-105625000D03*
%TD*%
D46*
%TO.C,R46*%
X79900000Y-113425000D03*
X79900000Y-111775000D03*
%TD*%
D75*
%TO.C,D10*%
X71000000Y-70700000D03*
D76*
X71000000Y-72975000D03*
%TD*%
D75*
%TO.C,D14*%
X71000000Y-81300000D03*
D76*
X71000000Y-83575000D03*
%TD*%
D75*
%TO.C,D12*%
X71000000Y-76000000D03*
D76*
X71000000Y-78275000D03*
%TD*%
D75*
%TO.C,D11*%
X77000000Y-72500000D03*
D76*
X77000000Y-70225000D03*
%TD*%
D77*
%TO.C,SW9*%
X96200000Y-113200000D03*
X93700000Y-113200000D03*
X91200000Y-113200000D03*
%TD*%
%TO.C,SW10*%
X61900000Y-86200000D03*
X64400000Y-86200000D03*
X66900000Y-86200000D03*
%TD*%
D48*
%TO.C,R34*%
X70075000Y-88300000D03*
X71725000Y-88300000D03*
%TD*%
D45*
%TO.C,R13*%
X82400000Y-90875000D03*
X82400000Y-92525000D03*
%TD*%
D64*
%TO.C,J6*%
X57000000Y-108050000D03*
D23*
X57000000Y-110550000D03*
X57000000Y-113050000D03*
X57000000Y-115550000D03*
%TD*%
D81*
%TO.C,J18*%
X67183000Y-60706000D03*
D82*
X67183000Y-54706000D03*
D83*
X62483000Y-57706000D03*
%TD*%
D29*
%TO.C,J19*%
X142425000Y-66000000D03*
D30*
X144965000Y-66000000D03*
X142425000Y-68540000D03*
X144965000Y-68540000D03*
X142425000Y-71080000D03*
X144965000Y-71080000D03*
X142425000Y-73620000D03*
X144965000Y-73620000D03*
%TD*%
D84*
%TO.C,U21*%
X67080000Y-70200000D03*
X65940000Y-70200000D03*
D85*
X64800000Y-76500000D03*
D84*
X64800000Y-70200000D03*
X63660000Y-70200000D03*
X62520000Y-70200000D03*
%TD*%
D86*
%TO.C,SW12*%
X78650000Y-127800000D03*
X72350000Y-127800000D03*
X78650000Y-131600000D03*
X72350000Y-131600000D03*
%TD*%
D46*
%TO.C,R36*%
X107400000Y-128825000D03*
X107400000Y-127175000D03*
%TD*%
D11*
%TO.C,C15*%
X67400000Y-139075000D03*
X67400000Y-137525000D03*
%TD*%
%TO.C,C29*%
X68900000Y-139075000D03*
X68900000Y-137525000D03*
%TD*%
%TO.C,C30*%
X65900000Y-139075000D03*
X65900000Y-137525000D03*
%TD*%
D13*
%TO.C,C31*%
X133525000Y-54100000D03*
X135075000Y-54100000D03*
%TD*%
%TO.C,C38*%
X75125000Y-133450000D03*
X76675000Y-133450000D03*
%TD*%
D12*
%TO.C,C39*%
X91300000Y-105325000D03*
X91300000Y-106875000D03*
%TD*%
D87*
%TO.C,J16*%
X61825000Y-132475000D03*
D30*
X61825000Y-135015000D03*
X61825000Y-137555000D03*
X61825000Y-140095000D03*
X61825000Y-142635000D03*
X61825000Y-145175000D03*
%TD*%
D29*
%TO.C,J17*%
X138684000Y-74295000D03*
D30*
X136144000Y-74295000D03*
X133604000Y-74295000D03*
X131064000Y-74295000D03*
X128524000Y-74295000D03*
X125984000Y-74295000D03*
X123444000Y-74295000D03*
X120904000Y-74295000D03*
%TD*%
D48*
%TO.C,R28*%
X70675000Y-136500000D03*
X72325000Y-136500000D03*
%TD*%
%TO.C,R29*%
X87675000Y-109050000D03*
X89325000Y-109050000D03*
%TD*%
D62*
%TO.C,U4*%
X71120000Y-120334000D03*
X69850000Y-120334000D03*
X68580000Y-120334000D03*
X67310000Y-120334000D03*
X66040000Y-120334000D03*
X64770000Y-120334000D03*
X63500000Y-120334000D03*
X62230000Y-120334000D03*
X62230000Y-125284000D03*
X63500000Y-125284000D03*
X64770000Y-125284000D03*
X66040000Y-125284000D03*
X67310000Y-125284000D03*
X68580000Y-125284000D03*
X69850000Y-125284000D03*
X71120000Y-125284000D03*
%TD*%
D88*
%TO.C,U7*%
X126020000Y-123170000D03*
D89*
X123950000Y-121900000D03*
X126020000Y-120630000D03*
%TD*%
D90*
%TO.C,U12*%
X64200000Y-133812500D03*
X65000000Y-133812500D03*
X65800000Y-133812500D03*
X66600000Y-133812500D03*
X66600000Y-136187500D03*
X65800000Y-136187500D03*
X65000000Y-136187500D03*
X64200000Y-136187500D03*
%TD*%
D91*
%TO.C,U13*%
X67625000Y-134175000D03*
X68275000Y-134175000D03*
X68925000Y-134175000D03*
X69575000Y-134175000D03*
X69575000Y-136225000D03*
X68925000Y-136225000D03*
X68275000Y-136225000D03*
X67625000Y-136225000D03*
%TD*%
D92*
%TO.C,U15*%
X71000000Y-135300000D03*
X71600000Y-135300000D03*
X72200000Y-135300000D03*
X72800000Y-135300000D03*
X73400000Y-135300000D03*
X73400000Y-133200000D03*
X72800000Y-133200000D03*
X72200000Y-133200000D03*
X71600000Y-133200000D03*
X71000000Y-133200000D03*
D93*
X72350000Y-134250000D03*
%TD*%
D94*
%TO.C,U20*%
X117480000Y-92500000D03*
D95*
X114940000Y-92500000D03*
X112400000Y-92500000D03*
X109860000Y-92500000D03*
X107320000Y-92500000D03*
%TD*%
D96*
%TO.C,U22*%
X129600000Y-68120000D03*
D21*
X129600000Y-65880000D03*
X128020000Y-64300000D03*
X124200000Y-65880000D03*
X124200000Y-68120000D03*
X125780000Y-69700000D03*
%TD*%
D11*
%TO.C,C28*%
X64400000Y-139075000D03*
X64400000Y-137525000D03*
%TD*%
D97*
%TO.C,J21*%
X66000000Y-141650000D03*
X67000000Y-141650000D03*
X68000000Y-141650000D03*
X69000000Y-141650000D03*
D98*
X70300000Y-145525000D03*
X64700000Y-145525000D03*
%TD*%
D52*
%TO.C,SP1*%
X117000000Y-87450000D03*
X127000000Y-86200000D03*
X115000000Y-78700000D03*
X123000000Y-81200000D03*
X113000000Y-82450000D03*
X121000000Y-87450000D03*
X119000000Y-86200000D03*
X119000000Y-78700000D03*
X115000000Y-83700000D03*
X127000000Y-81200000D03*
X121000000Y-84950000D03*
X111000000Y-86200000D03*
X123000000Y-86200000D03*
X111000000Y-83700000D03*
X117000000Y-82450000D03*
X121000000Y-79950000D03*
X123000000Y-78700000D03*
X115000000Y-81200000D03*
X119000000Y-83700000D03*
X119000000Y-81200000D03*
X123000000Y-88700000D03*
X117000000Y-84950000D03*
X115000000Y-88700000D03*
X117000000Y-79950000D03*
X125000000Y-79950000D03*
X113000000Y-79950000D03*
X125000000Y-84950000D03*
X113000000Y-84950000D03*
X125000000Y-82450000D03*
X113000000Y-87450000D03*
X119000000Y-88700000D03*
X123000000Y-83700000D03*
X121000000Y-82450000D03*
X125000000Y-87450000D03*
X127000000Y-83700000D03*
X111000000Y-81200000D03*
X115000000Y-86200000D03*
%TD*%
D99*
%TO.C,X2*%
X145210000Y-54050000D03*
X142670000Y-54050000D03*
X140130000Y-54050000D03*
X137590000Y-54050000D03*
X137590000Y-63050000D03*
X140130000Y-63050000D03*
X142670000Y-63050000D03*
X145210000Y-63050000D03*
%TD*%
D11*
%TO.C,C49*%
X89900000Y-58075000D03*
X89900000Y-56525000D03*
%TD*%
%TO.C,C48*%
X81900000Y-57575000D03*
X81900000Y-56025000D03*
%TD*%
%TO.C,C57*%
X60600000Y-103375000D03*
X60600000Y-101825000D03*
%TD*%
D21*
%TO.C,J22*%
X85900000Y-52575000D03*
X85900000Y-58575000D03*
D100*
X89400000Y-54775000D03*
X89400000Y-51175000D03*
X82400000Y-52175000D03*
X82400000Y-59175000D03*
X89400000Y-60875000D03*
%TD*%
D101*
%TO.C,TP2*%
X109100000Y-131300000D03*
%TD*%
D47*
%TO.C,R54*%
X128225000Y-60200000D03*
X126575000Y-60200000D03*
%TD*%
D102*
%TO.C,C45*%
X101300000Y-102800000D03*
X105700000Y-102800000D03*
%TD*%
D103*
%TO.C,JP2*%
X85000000Y-107660000D03*
X84600000Y-107660000D03*
%TD*%
D75*
%TO.C,D9*%
X77000000Y-83100000D03*
D76*
X77000000Y-80825000D03*
%TD*%
D47*
%TO.C,R51*%
X118425000Y-73200000D03*
X116775000Y-73200000D03*
%TD*%
D11*
%TO.C,C44*%
X100100000Y-107575000D03*
X100100000Y-106025000D03*
%TD*%
D13*
%TO.C,C59*%
X70375000Y-138000000D03*
X71925000Y-138000000D03*
%TD*%
D104*
%TO.C,J24*%
X124900000Y-54000000D03*
D105*
X122400000Y-54000000D03*
X119900000Y-54000000D03*
X117400000Y-54000000D03*
%TD*%
D13*
%TO.C,C53*%
X133625000Y-61800000D03*
X135175000Y-61800000D03*
%TD*%
D106*
%TO.C,U9*%
X75637500Y-106550000D03*
X75637500Y-105600000D03*
X75637500Y-104650000D03*
X73362500Y-104650000D03*
X73362500Y-105600000D03*
X73362500Y-106550000D03*
%TD*%
D48*
%TO.C,R53*%
X113775000Y-73200000D03*
X115425000Y-73200000D03*
%TD*%
D47*
%TO.C,R52*%
X118375000Y-74700000D03*
X116725000Y-74700000D03*
%TD*%
D14*
%TO.C,C47*%
X100000000Y-109100000D03*
X98450000Y-109100000D03*
%TD*%
%TO.C,C54*%
X117775000Y-64000000D03*
X116225000Y-64000000D03*
%TD*%
D11*
%TO.C,C51*%
X129700000Y-60275000D03*
X129700000Y-58725000D03*
%TD*%
D14*
%TO.C,C43*%
X102675000Y-99100000D03*
X101125000Y-99100000D03*
%TD*%
D107*
%TO.C,U23*%
X134450000Y-56400000D03*
X133950000Y-56400000D03*
X133450000Y-56400000D03*
X132950000Y-56400000D03*
X132450000Y-56400000D03*
X131950000Y-56400000D03*
D108*
X131250000Y-57100000D03*
X131250000Y-57600000D03*
X131250000Y-58100000D03*
X131250000Y-58600000D03*
X131250000Y-59100000D03*
X131250000Y-59600000D03*
D107*
X131950000Y-60300000D03*
X132450000Y-60300000D03*
X132950000Y-60300000D03*
X133450000Y-60300000D03*
X133950000Y-60300000D03*
X134450000Y-60300000D03*
D108*
X135150000Y-59600000D03*
X135150000Y-59100000D03*
X135150000Y-58600000D03*
X135150000Y-58100000D03*
X135150000Y-57600000D03*
X135150000Y-57100000D03*
%TD*%
D109*
%TO.C,D16*%
X70100000Y-108800000D03*
X70100000Y-104800000D03*
%TD*%
D12*
%TO.C,C42*%
X99600000Y-98825000D03*
X99600000Y-100375000D03*
%TD*%
%TO.C,C13*%
X93500000Y-100125000D03*
X93500000Y-101675000D03*
%TD*%
D47*
%TO.C,R49*%
X105725000Y-97500000D03*
X104075000Y-97500000D03*
%TD*%
D14*
%TO.C,C52*%
X132175000Y-61800000D03*
X130625000Y-61800000D03*
%TD*%
D47*
%TO.C,R40*%
X90525000Y-101600000D03*
X88875000Y-101600000D03*
%TD*%
D35*
%TO.C,JP1*%
X106700000Y-95500000D03*
D36*
X105400000Y-95500000D03*
D37*
X104100000Y-95500000D03*
%TD*%
D47*
%TO.C,R43*%
X105725000Y-99100000D03*
X104075000Y-99100000D03*
%TD*%
D110*
%TO.C,C46*%
X92400000Y-79500000D03*
X92400000Y-75100000D03*
%TD*%
D48*
%TO.C,R48*%
X91475000Y-72600000D03*
X93125000Y-72600000D03*
%TD*%
D74*
%TO.C,R32*%
X77962500Y-88000000D03*
X75037500Y-88000000D03*
%TD*%
D111*
%TO.C,U10*%
X116295000Y-70975000D03*
X117565000Y-70975000D03*
X118835000Y-70975000D03*
X120105000Y-70975000D03*
X120105000Y-66025000D03*
X118835000Y-66025000D03*
X117565000Y-66025000D03*
X116295000Y-66025000D03*
%TD*%
D112*
%TO.C,U11*%
X60477500Y-106960000D03*
X60477500Y-107460000D03*
X60477500Y-107960000D03*
D113*
X60990000Y-108722500D03*
X61490000Y-108722500D03*
X61990000Y-108722500D03*
X62490000Y-108722500D03*
D112*
X63002500Y-107960000D03*
X63002500Y-107460000D03*
X63002500Y-106960000D03*
D113*
X62490000Y-106197500D03*
X61990000Y-106197500D03*
X61490000Y-106197500D03*
X60990000Y-106197500D03*
D114*
X61740000Y-107460000D03*
%TD*%
D12*
%TO.C,C11*%
X92000000Y-100125000D03*
X92000000Y-101675000D03*
%TD*%
D115*
%TO.C,Q7*%
X84100000Y-71840000D03*
D116*
X86640000Y-88500000D03*
D117*
X84100000Y-88500000D03*
X81560000Y-88500000D03*
%TD*%
D118*
%TO.C,R9*%
X136000000Y-78500000D03*
X139400000Y-78500000D03*
%TD*%
D13*
%TO.C,C55*%
X119825000Y-64000000D03*
X121375000Y-64000000D03*
%TD*%
D119*
%TO.C,J15*%
X71642500Y-99387500D03*
D120*
X71642500Y-95577500D03*
%TD*%
D11*
%TO.C,C50*%
X129700000Y-57275000D03*
X129700000Y-55725000D03*
%TD*%
D46*
%TO.C,R50*%
X90100000Y-64125000D03*
X90100000Y-62475000D03*
%TD*%
D121*
%TO.C,U24*%
X61250000Y-96662500D03*
X60300000Y-96662500D03*
X59350000Y-96662500D03*
X59350000Y-98937500D03*
X60300000Y-98937500D03*
X61250000Y-98937500D03*
%TD*%
D101*
%TO.C,TP1*%
X64800000Y-112000000D03*
%TD*%
D122*
%TO.C,U3*%
X88750000Y-105100000D03*
D123*
X89825000Y-107675000D03*
X89825000Y-107025000D03*
X89825000Y-106375000D03*
X87675000Y-106375000D03*
X87675000Y-107025000D03*
X87675000Y-107675000D03*
%TD*%
D13*
%TO.C,C56*%
X59725000Y-95000000D03*
X61275000Y-95000000D03*
%TD*%
D11*
%TO.C,C32*%
X60650000Y-111675000D03*
X60650000Y-110125000D03*
%TD*%
D46*
%TO.C,R42*%
X98100000Y-100425000D03*
X98100000Y-98775000D03*
%TD*%
D43*
%TO.C,Q6*%
X84562500Y-90550000D03*
X84562500Y-92450000D03*
X86437500Y-91500000D03*
%TD*%
D123*
%TO.C,U8*%
X76400000Y-138750000D03*
X76400000Y-137800000D03*
X76400000Y-136850000D03*
X73600000Y-136850000D03*
X73600000Y-137800000D03*
X73600000Y-138750000D03*
D124*
X75000000Y-137800000D03*
%TD*%
D125*
%TO.C,U5*%
X92800000Y-103125000D03*
X92800000Y-103775000D03*
X92800000Y-104425000D03*
X92800000Y-105075000D03*
X92800000Y-105725000D03*
X92800000Y-106375000D03*
X92800000Y-107025000D03*
X92800000Y-107675000D03*
X98600000Y-107675000D03*
X98600000Y-107025000D03*
X98600000Y-106375000D03*
X98600000Y-105725000D03*
X98600000Y-105075000D03*
X98600000Y-104425000D03*
X98600000Y-103775000D03*
X98600000Y-103125000D03*
%TD*%
D126*
%TO.C,C58*%
X65975000Y-104400000D03*
X63025000Y-104400000D03*
%TD*%
D115*
%TO.C,R18*%
X121150000Y-58400000D03*
X76650000Y-58400000D03*
D127*
X59200000Y-68400000D03*
X138600000Y-68400000D03*
%TD*%
D128*
%TO.C,J20*%
X54737000Y-83693000D03*
D129*
X54737000Y-81193000D03*
%TD*%
D88*
%TO.C,U19*%
X109730000Y-75470000D03*
D89*
X111800000Y-74200000D03*
X109730000Y-72930000D03*
%TD*%
M02*
