M48
; DRILL file {KiCad (6.0.1)} date Fri Feb 25 15:50:48 2022
; FORMAT={-:-/ absolute / inch / decimal}
; #@! TF.CreationDate,2022-02-25T15:50:48+01:00
; #@! TF.GenerationSoftware,Kicad,Pcbnew,(6.0.1)
; #@! TF.FileFunction,NonPlated,1,2,NPTH
FMAT,2
INCH
; #@! TA.AperFunction,NonPlated,NPTH,ComponentDrill
T1C0.0787
%
G90
G05
T1
X4.3701Y-3.1969
X4.3701Y-3.2953
X4.3701Y-3.3937
X4.4488Y-3.1476
X4.4488Y-3.2461
X4.4488Y-3.3445
X4.4488Y-3.4429
X4.5276Y-3.0984
X4.5276Y-3.1969
X4.5276Y-3.2953
X4.5276Y-3.3937
X4.5276Y-3.4921
X4.6063Y-3.1476
X4.6063Y-3.2461
X4.6063Y-3.3445
X4.6063Y-3.4429
X4.685Y-3.0984
X4.685Y-3.1969
X4.685Y-3.2953
X4.685Y-3.3937
X4.685Y-3.4921
X4.7638Y-3.1476
X4.7638Y-3.2461
X4.7638Y-3.3445
X4.7638Y-3.4429
X4.8425Y-3.0984
X4.8425Y-3.1969
X4.8425Y-3.2953
X4.8425Y-3.3937
X4.8425Y-3.4921
X4.9213Y-3.1476
X4.9213Y-3.2461
X4.9213Y-3.3445
X4.9213Y-3.4429
X5.0Y-3.1969
X5.0Y-3.2953
X5.0Y-3.3937
T0
M30
