%TF.GenerationSoftware,KiCad,Pcbnew,(6.0.1)*%
%TF.CreationDate,2022-03-29T23:04:51+02:00*%
%TF.ProjectId,pcbV10,70636256-3130-42e6-9b69-6361645f7063,rev?*%
%TF.SameCoordinates,Original*%
%TF.FileFunction,Profile,NP*%
%FSLAX46Y46*%
G04 Gerber Fmt 4.6, Leading zero omitted, Abs format (unit mm)*
G04 Created by KiCad (PCBNEW (6.0.1)) date 2022-03-29 23:04:51*
%MOMM*%
%LPD*%
G01*
G04 APERTURE LIST*
%TA.AperFunction,Profile*%
%ADD10C,0.050000*%
%TD*%
G04 APERTURE END LIST*
D10*
X50000000Y-130000000D02*
X50000000Y-70000000D01*
X147000000Y-70000000D02*
X147000000Y-53000000D01*
X70000000Y-50000000D02*
X70000000Y-53000000D01*
X53000000Y-130000000D02*
X50000000Y-130000000D01*
X70000000Y-150000000D02*
X70000000Y-147000000D01*
X130000000Y-50000000D02*
X130000000Y-53000000D01*
X130000000Y-53000000D02*
X147000000Y-53000000D01*
X53000000Y-70000000D02*
X50000000Y-70000000D01*
X70000000Y-147000000D02*
X53000000Y-147000000D01*
X130000000Y-147000000D02*
X147000000Y-147000000D01*
X53000000Y-147000000D02*
X53000000Y-130000000D01*
X147000000Y-130000000D02*
X150000000Y-130000000D01*
X70000000Y-50000000D02*
X130000000Y-50000000D01*
X130000000Y-150000000D02*
X130000000Y-147000000D01*
X147000000Y-147000000D02*
X147000000Y-130000000D01*
X130000000Y-150000000D02*
X70000000Y-150000000D01*
X53000000Y-53000000D02*
X53000000Y-70000000D01*
X150000000Y-70000000D02*
X147000000Y-70000000D01*
X70000000Y-53000000D02*
X53000000Y-53000000D01*
X150000000Y-70000000D02*
X150000000Y-130000000D01*
M02*
