M48
; DRILL file {KiCad (6.0.1)} date Sun Mar 13 10:13:47 2022
; FORMAT={-:-/ absolute / inch / decimal}
; #@! TF.CreationDate,2022-03-13T10:13:47+01:00
; #@! TF.GenerationSoftware,Kicad,Pcbnew,(6.0.1)
; #@! TF.FileFunction,Plated,1,2,PTH
FMAT,2
INCH
; #@! TA.AperFunction,Plated,PTH,ViaDrill
T1C0.0157
; #@! TA.AperFunction,Plated,PTH,ComponentDrill
T2C0.0197
; #@! TA.AperFunction,Plated,PTH,ComponentDrill
T3C0.0236
; #@! TA.AperFunction,Plated,PTH,ComponentDrill
T4C0.0276
; #@! TA.AperFunction,Plated,PTH,ComponentDrill
T5C0.0295
; #@! TA.AperFunction,Plated,PTH,ViaDrill
T6C0.0315
; #@! TA.AperFunction,Plated,PTH,ComponentDrill
T7C0.0315
; #@! TA.AperFunction,Plated,PTH,ComponentDrill
T8C0.0354
; #@! TA.AperFunction,Plated,PTH,ComponentDrill
T9C0.0374
; #@! TA.AperFunction,Plated,PTH,ComponentDrill
T10C0.0394
; #@! TA.AperFunction,Plated,PTH,ComponentDrill
T11C0.0402
; #@! TA.AperFunction,Plated,PTH,ComponentDrill
T12C0.0433
; #@! TA.AperFunction,Plated,PTH,ComponentDrill
T13C0.0472
; #@! TA.AperFunction,Plated,PTH,ComponentDrill
T14C0.0591
; #@! TA.AperFunction,Plated,PTH,ComponentDrill
T15C0.0630
%
G90
G05
T1
X2.0602Y-3.4241
X2.0906Y-3.9488
X2.0945Y-3.5669
X2.1811Y-2.8976
X2.1811Y-3.0
X2.2047Y-3.8819
X2.2697Y-3.1319
X2.3189Y-4.3189
X2.3228Y-2.2953
X2.3228Y-2.3976
X2.3228Y-3.2717
X2.3268Y-4.3976
X2.3268Y-4.4646
X2.3268Y-4.9921
X2.3386Y-2.1378
X2.3514Y-3.7402
X2.3622Y-4.1516
X2.374Y-4.9331
X2.374Y-5.4606
X2.3898Y-4.8661
X2.3937Y-3.0591
X2.3976Y-2.9724
X2.3976Y-3.2717
X2.4016Y-2.8976
X2.4173Y-4.1339
X2.4252Y-3.5945
X2.4803Y-4.0512
X2.4843Y-5.0
X2.4882Y-3.5512
X2.4882Y-4.278
X2.4902Y-5.4409
X2.515Y-5.095
X2.5157Y-4.1654
X2.5197Y-2.6575
X2.5354Y-4.1102
X2.5411Y-4.2852
X2.5525Y-2.5975
X2.563Y-3.689
X2.563Y-4.1654
X2.563Y-4.4646
X2.5709Y-2.685
X2.5787Y-5.1339
X2.5984Y-3.8898
X2.6024Y-4.4252
X2.6102Y-3.1693
X2.6102Y-3.2323
X2.626Y-4.8268
X2.6378Y-5.1339
X2.6575Y-3.815
X2.6575Y-5.248
X2.6705Y-3.499
X2.689Y-4.4331
X2.6949Y-5.248
X2.6969Y-2.7677
X2.6969Y-2.8425
X2.7Y-4.79
X2.7047Y-4.4961
X2.7205Y-5.5197
X2.7441Y-4.8307
X2.7598Y-5.2303
X2.76Y-4.7634
X2.7677Y-2.7559
X2.7677Y-2.811
X2.7677Y-2.9646
X2.7677Y-3.0197
X2.7677Y-3.1732
X2.7677Y-3.2283
X2.7697Y-5.4331
X2.7756Y-5.3268
X2.7935Y-3.5845
X2.7953Y-2.7835
X2.7953Y-2.9961
X2.7953Y-3.2008
X2.8031Y-3.9961
X2.815Y-3.8346
X2.815Y-5.0945
X2.8189Y-2.7559
X2.8228Y-2.5472
X2.8228Y-2.811
X2.8228Y-2.9646
X2.8228Y-3.0197
X2.8228Y-3.1732
X2.8228Y-3.2283
X2.8248Y-3.4764
X2.8514Y-3.5562
X2.8661Y-4.5945
X2.8681Y-5.4961
X2.874Y-3.9961
X2.9016Y-2.1929
X2.9016Y-2.3465
X2.9094Y-5.1888
X2.9094Y-5.2441
X2.9134Y-4.9646
X2.9252Y-5.2992
X2.9409Y-4.5945
X2.9685Y-3.9921
X2.9921Y-5.7323
X3.0039Y-2.8268
X3.0039Y-2.8819
X3.0039Y-3.0354
X3.0039Y-3.0906
X3.0039Y-3.2441
X3.0039Y-3.2992
X3.0059Y-5.502
X3.0079Y-4.5945
X3.0157Y-5.5512
X3.0236Y-5.7795
X3.0276Y-5.6772
X3.0315Y-2.8543
X3.0315Y-3.063
X3.0315Y-3.2717
X3.0354Y-4.6299
X3.0354Y-5.6063
X3.0433Y-3.9921
X3.0591Y-2.8268
X3.0591Y-2.8819
X3.0591Y-3.0354
X3.0591Y-3.0906
X3.0591Y-3.2441
X3.0591Y-3.2992
X3.0787Y-2.5472
X3.0906Y-4.5591
X3.1024Y-5.0945
X3.1299Y-4.748
X3.1339Y-2.3465
X3.1339Y-4.5118
X3.1378Y-2.2008
X3.1772Y-4.748
X3.1772Y-4.7953
X3.185Y-2.6063
X3.1929Y-3.8543
X3.1929Y-4.2244
X3.1969Y-4.4488
X3.205Y-5.3225
X3.2087Y-3.7835
X3.2244Y-4.4134
X3.2362Y-4.3307
X3.2402Y-4.2598
X3.252Y-4.0669
X3.255Y-5.3225
X3.2882Y-4.2252
X3.2941Y-5.2125
X3.3189Y-3.9724
X3.32Y-4.1961
X3.3515Y-4.1498
X3.3563Y-4.6333
X3.3583Y-4.5787
X3.36Y-5.3012
X3.3661Y-2.5984
X3.3701Y-2.6732
X3.3711Y-2.184
X3.3752Y-5.1319
X3.378Y-2.4291
X3.3799Y-4.1024
X3.3858Y-3.189
X3.3858Y-3.3583
X3.3898Y-2.9843
X3.4055Y-5.0709
X3.4173Y-5.24
X3.4232Y-3.9331
X3.4252Y-5.0118
X3.4528Y-2.8543
X3.4567Y-2.3268
X3.4626Y-2.5354
X3.47Y-5.325
X3.4843Y-3.8268
X3.4843Y-4.3268
X3.5Y-3.3465
X3.5Y-3.9685
X3.5039Y-3.2402
X3.5276Y-3.7953
X3.53Y-5.325
X3.5315Y-2.8504
X3.5472Y-3.4882
X3.5512Y-4.5315
X3.5531Y-4.1063
X3.563Y-3.9409
X3.5945Y-4.2264
X3.5945Y-4.2933
X3.605Y-5.325
X3.6053Y-4.1023
X3.6142Y-3.3425
X3.6142Y-3.6378
X3.6693Y-3.8268
X3.6775Y-5.325
X3.6791Y-3.7697
X3.7019Y-2.5483
X3.7598Y-3.315
X3.7625Y-5.3225
X3.7795Y-4.3425
X3.83Y-5.3225
X3.8425Y-2.6732
X3.8508Y-3.616
X3.8577Y-4.4814
X3.8622Y-3.9006
X3.8701Y-2.9055
X3.8701Y-2.9488
X3.8819Y-4.4252
X3.8888Y-3.7707
X3.895Y-5.3225
X3.8976Y-3.0276
X3.9045Y-3.436
X3.9094Y-4.0079
X3.9449Y-4.126
X3.9528Y-3.0906
X3.9575Y-5.3225
X3.9592Y-3.5753
X3.9646Y-2.5039
X3.965Y-2.5975
X3.9687Y-4.3506
X3.97Y-2.6575
X3.985Y-5.1833
X3.9886Y-3.6532
X4.0118Y-4.1102
X4.025Y-4.685
X4.025Y-5.2825
X4.0354Y-4.5748
X4.0472Y-2.9488
X4.0472Y-3.0354
X4.065Y-2.2725
X4.065Y-5.13
X4.0748Y-4.0394
X4.0748Y-4.0984
X4.0748Y-4.2362
X4.0751Y-4.2762
X4.0814Y-2.3736
X4.11Y-4.9685
X4.11Y-5.31
X4.1102Y-3.7008
X4.1496Y-4.9685
X4.1654Y-2.9409
X4.1654Y-3.0394
X4.17Y-5.0725
X4.17Y-5.1275
X4.17Y-5.31
X4.1722Y-2.2647
X4.2087Y-3.9291
X4.2126Y-3.5374
X4.2323Y-2.4016
X4.2323Y-2.5591
X4.3189Y-3.937
X4.3275Y-4.2271
X4.335Y-3.975
X4.3465Y-4.9213
X4.3701Y-4.0079
X4.374Y-4.689
X4.39Y-4.5775
X4.39Y-4.7475
X4.4094Y-3.7933
X4.4094Y-4.3563
X4.4094Y-5.1713
X4.4094Y-5.7343
X4.437Y-3.7165
X4.4409Y-3.5472
X4.4646Y-4.2271
X4.5039Y-5.2717
X4.5079Y-3.9173
X4.5079Y-5.3898
X4.5079Y-5.6181
X4.5079Y-5.7638
X4.515Y-3.79
X4.5866Y-2.3858
X4.5945Y-4.9213
X4.6024Y-3.5669
X4.6063Y-5.1713
X4.6063Y-5.7362
X4.6175Y-3.975
X4.6175Y-4.575
X4.6175Y-4.7475
X4.633Y-4.174
X4.6496Y-2.3425
X4.7625Y-3.975
X4.7809Y-4.2271
X4.7913Y-2.5945
X4.7913Y-2.6811
X4.7913Y-2.7598
X4.8031Y-4.6496
X4.8858Y-4.6713
X4.9426Y-4.5237
X4.9488Y-2.5039
X4.9606Y-2.2756
X5.001Y-3.935
X5.0118Y-3.5197
X5.0197Y-2.6102
X5.0354Y-4.6929
X5.0374Y-4.5177
X5.0709Y-2.4606
X5.0709Y-3.1063
X5.0945Y-4.0748
X5.1063Y-4.2874
X5.1102Y-2.8701
X5.1378Y-2.9961
X5.1417Y-4.0709
X5.1417Y-4.6929
X5.1535Y-2.3819
X5.1535Y-3.9134
X5.1575Y-2.2047
X5.1772Y-2.6063
X5.1875Y-4.575
X5.2Y-4.245
X5.2087Y-5.3189
X5.21Y-4.33
X5.3307Y-2.2126
X5.3346Y-2.3858
X5.34Y-4.66
X5.3504Y-3.3504
X5.3575Y-4.22
X5.3583Y-3.6732
X5.3651Y-2.2924
X5.3675Y-3.86
X5.3819Y-3.1496
X5.3839Y-4.4823
X5.3839Y-5.0453
X5.4026Y-2.2548
X5.4134Y-3.9528
X5.4213Y-4.0748
X5.4331Y-2.3937
X5.44Y-4.66
X5.4488Y-5.5748
X5.4558Y-5.3134
X5.475Y-4.33
X5.4764Y-2.2244
X5.5039Y-4.1339
X5.5413Y-2.8583
X5.5472Y-2.2953
X5.5669Y-2.4606
X5.6063Y-2.3622
X5.6614Y-3.8937
X5.7087Y-2.3819
X5.7126Y-2.2087
X5.735Y-5.585
X5.735Y-5.7175
X5.84Y-4.665
X5.8425Y-3.9675
X5.8425Y-4.36
T2
X2.5512Y-4.4094
X4.2953Y-5.1693
T3
X2.4291Y-4.6063
X2.437Y-3.3937
X2.5276Y-4.6063
X2.5354Y-3.3937
X2.626Y-4.6063
X2.6339Y-3.3937
X3.1496Y-3.7992
X3.1496Y-3.8976
X3.1496Y-3.9961
X3.5906Y-4.4567
X3.689Y-4.4567
X3.7874Y-4.4567
X3.9291Y-4.4567
X4.0276Y-4.4567
X4.126Y-4.4567
X4.175Y-4.7116
X4.175Y-4.81
X4.175Y-4.9084
X4.8031Y-3.7717
X4.8031Y-3.9134
T4
X4.8898Y-2.5937
X4.8898Y-2.6819
X4.952Y-2.7441
X5.0402Y-2.5315
X5.1024Y-2.5937
X5.1024Y-2.6819
T5
X4.3358Y-2.8713
X4.3358Y-2.9713
X4.3858Y-2.9213
X4.8957Y-4.7992
X4.9457Y-4.7492
X4.9457Y-4.8492
T6
X3.495Y-4.705
X3.495Y-4.79
X3.495Y-4.875
X3.5Y-4.995
X3.5Y-5.085
X3.59Y-4.705
X3.59Y-4.79
X3.59Y-4.875
X3.59Y-4.995
X3.59Y-5.085
X3.69Y-4.705
X3.69Y-4.79
X3.79Y-4.705
X3.79Y-4.79
X3.885Y-4.705
X3.885Y-4.79
X3.885Y-4.875
X3.885Y-4.995
X3.885Y-5.085
T7
X3.2754Y-2.1339
X3.4132Y-2.1339
T8
X2.9354Y-3.7124
X2.9354Y-3.8124
X2.9354Y-3.9124
X3.0354Y-3.6624
X3.0354Y-3.7624
X3.0354Y-3.8624
X3.645Y-2.1929
X3.645Y-2.2929
X3.645Y-2.3929
X3.645Y-2.4929
X3.645Y-2.5929
X3.645Y-2.6929
X4.4915Y-2.2835
X4.4915Y-2.3835
X4.4915Y-2.4835
X4.4915Y-2.5835
X4.4915Y-2.6835
X4.4915Y-2.7835
T9
X2.2441Y-4.2539
X2.2441Y-4.3524
X2.2441Y-4.4508
X2.2441Y-4.5492
X2.2441Y-5.2756
X2.2441Y-5.374
X2.2441Y-5.4724
X2.2441Y-5.5709
X2.2441Y-5.6693
X4.622Y-2.126
X4.7205Y-2.126
X4.8189Y-2.126
X4.9094Y-4.0827
X4.9094Y-4.1811
X4.9094Y-4.2795
X4.9094Y-4.378
X4.9094Y-4.4764
X4.9094Y-4.5748
X4.9094Y-5.0295
X4.9094Y-5.128
X4.9094Y-5.2264
X4.9094Y-5.3248
X4.9173Y-2.126
T10
X2.1417Y-3.8094
X2.1417Y-3.9094
X2.1417Y-4.0094
X2.1417Y-4.1094
X2.155Y-3.1966
X2.155Y-3.295
X2.1654Y-3.5364
X2.1654Y-3.6364
X2.18Y-2.39
X2.18Y-2.49
X2.18Y-2.59
X2.18Y-2.69
X2.2654Y-3.5364
X2.2654Y-3.6364
X2.3654Y-3.5364
X2.3654Y-3.6364
X2.4341Y-5.2156
X2.4341Y-5.3156
X2.4341Y-5.4156
X2.4341Y-5.5156
X2.4341Y-5.6156
X2.4341Y-5.7156
X2.8264Y-2.0394
X2.9264Y-2.0394
X3.0264Y-2.0394
X3.1264Y-2.0394
X3.3299Y-3.7244
X3.4299Y-3.7244
X3.5299Y-3.7244
X3.6299Y-3.7244
X3.7299Y-3.7244
X3.8299Y-3.7244
X3.8583Y-3.4843
X3.9299Y-3.7244
X3.9567Y-3.4843
X4.0551Y-3.4843
X4.2252Y-3.6417
X4.3252Y-3.6417
X4.4094Y-4.4882
X4.4094Y-5.0591
X4.4252Y-3.6417
X4.5079Y-5.0591
X4.5252Y-3.6417
X4.6063Y-4.4882
X4.6063Y-5.0591
X4.6252Y-3.6417
X4.76Y-2.925
X4.86Y-2.925
X4.96Y-2.925
X5.06Y-2.925
X5.16Y-2.925
X5.26Y-2.925
X5.36Y-2.925
X5.46Y-2.925
X5.6073Y-2.5984
X5.6073Y-2.6984
X5.6073Y-2.7984
X5.6073Y-2.8984
X5.6087Y-3.0429
X5.6087Y-3.1429
X5.6087Y-3.2429
X5.6087Y-3.3429
X5.6087Y-3.4429
X5.6087Y-3.5429
X5.6087Y-3.6429
X5.6087Y-3.7429
X5.6087Y-3.8429
X5.6087Y-3.9429
X5.6087Y-4.0429
X5.6087Y-4.1429
X5.6087Y-4.2429
X5.6087Y-4.3429
X5.6087Y-4.4429
X5.6087Y-4.5429
X5.6087Y-4.6429
X5.6087Y-4.7429
X5.6087Y-4.8429
X5.6087Y-4.9429
X5.6087Y-5.0429
X5.6087Y-5.1429
X5.6087Y-5.2429
X5.6087Y-5.3429
X5.6087Y-5.4429
X5.7073Y-2.5984
X5.7073Y-2.6984
X5.7073Y-2.7984
X5.7073Y-2.8984
X5.7087Y-3.0429
X5.7087Y-3.1429
X5.7087Y-3.2429
X5.7087Y-3.3429
X5.7087Y-3.4429
X5.7087Y-3.5429
X5.7087Y-3.6429
X5.7087Y-3.7429
X5.7087Y-3.8429
X5.7087Y-3.9429
X5.7087Y-4.0429
X5.7087Y-4.1429
X5.7087Y-4.2429
X5.7087Y-4.3429
X5.7087Y-4.4429
X5.7087Y-4.5429
X5.7087Y-4.6429
X5.7087Y-4.7429
X5.7087Y-4.8429
X5.7087Y-4.9429
X5.7087Y-5.0429
X5.7087Y-5.1429
X5.7087Y-5.2429
X5.7087Y-5.3429
X5.7087Y-5.4429
T11
X2.2441Y-2.837
X2.2441Y-2.937
X2.2441Y-3.037
X2.2441Y-3.1913
X2.2441Y-3.2913
X2.2441Y-3.3913
T12
X3.211Y-3.4843
X3.311Y-3.4843
X3.411Y-3.4843
T13
X2.8206Y-3.7629
X2.8206Y-3.9129
T15
X2.3307Y-2.6929
X5.4567Y-2.6929
T3
G00X2.0827Y-3.7512
M15
G01X2.0591Y-3.7512
M16
G05
G00X2.0827Y-4.0913
M15
G01X2.0591Y-4.0913
M16
G05
G00X2.0827Y-4.7079
M15
G01X2.0591Y-4.7079
M16
G05
G00X2.0827Y-5.048
M15
G01X2.0591Y-5.048
M16
G05
G00X2.2571Y-3.7512
M15
G01X2.2138Y-3.7512
M16
G05
G00X2.2571Y-4.0913
M15
G01X2.2138Y-4.0913
M16
G05
G00X2.2571Y-4.7079
M15
G01X2.2138Y-4.7079
M16
G05
G00X2.2571Y-5.048
M15
G01X2.2138Y-5.048
M16
G05
T10
G00X2.46Y-2.2325
M15
G01X2.46Y-2.3113
M16
G05
G00X2.6844Y-2.1538
M15
G01X2.6056Y-2.1538
M16
G05
G00X2.6844Y-2.39
M15
G01X2.6056Y-2.39
M16
G05
T14
G00X4.2874Y-4.7894
M15
G01X4.2874Y-4.7382
M16
G05
G00X4.7283Y-4.7894
M15
G01X4.7283Y-4.7382
M16
G05
T0
M30
