%TF.GenerationSoftware,KiCad,Pcbnew,(6.0.1)*%
%TF.CreationDate,2022-05-30T15:44:07+02:00*%
%TF.ProjectId,pcbV10,70636256-3130-42e6-9b69-6361645f7063,rev?*%
%TF.SameCoordinates,Original*%
%TF.FileFunction,Paste,Top*%
%TF.FilePolarity,Positive*%
%FSLAX46Y46*%
G04 Gerber Fmt 4.6, Leading zero omitted, Abs format (unit mm)*
G04 Created by KiCad (PCBNEW (6.0.1)) date 2022-05-30 15:44:07*
%MOMM*%
%LPD*%
G01*
G04 APERTURE LIST*
G04 Aperture macros list*
%AMRoundRect*
0 Rectangle with rounded corners*
0 $1 Rounding radius*
0 $2 $3 $4 $5 $6 $7 $8 $9 X,Y pos of 4 corners*
0 Add a 4 corners polygon primitive as box body*
4,1,4,$2,$3,$4,$5,$6,$7,$8,$9,$2,$3,0*
0 Add four circle primitives for the rounded corners*
1,1,$1+$1,$2,$3*
1,1,$1+$1,$4,$5*
1,1,$1+$1,$6,$7*
1,1,$1+$1,$8,$9*
0 Add four rect primitives between the rounded corners*
20,1,$1+$1,$2,$3,$4,$5,0*
20,1,$1+$1,$4,$5,$6,$7,0*
20,1,$1+$1,$6,$7,$8,$9,0*
20,1,$1+$1,$8,$9,$2,$3,0*%
%AMOutline5P*
0 Free polygon, 5 corners , with rotation*
0 The origin of the aperture is its center*
0 number of corners: always 5*
0 $1 to $10 corner X, Y*
0 $11 Rotation angle, in degrees counterclockwise*
0 create outline with 5 corners*
4,1,5,$1,$2,$3,$4,$5,$6,$7,$8,$9,$10,$1,$2,$11*%
%AMOutline6P*
0 Free polygon, 6 corners , with rotation*
0 The origin of the aperture is its center*
0 number of corners: always 6*
0 $1 to $12 corner X, Y*
0 $13 Rotation angle, in degrees counterclockwise*
0 create outline with 6 corners*
4,1,6,$1,$2,$3,$4,$5,$6,$7,$8,$9,$10,$11,$12,$1,$2,$13*%
%AMOutline7P*
0 Free polygon, 7 corners , with rotation*
0 The origin of the aperture is its center*
0 number of corners: always 7*
0 $1 to $14 corner X, Y*
0 $15 Rotation angle, in degrees counterclockwise*
0 create outline with 7 corners*
4,1,7,$1,$2,$3,$4,$5,$6,$7,$8,$9,$10,$11,$12,$13,$14,$1,$2,$15*%
%AMOutline8P*
0 Free polygon, 8 corners , with rotation*
0 The origin of the aperture is its center*
0 number of corners: always 8*
0 $1 to $16 corner X, Y*
0 $17 Rotation angle, in degrees counterclockwise*
0 create outline with 8 corners*
4,1,8,$1,$2,$3,$4,$5,$6,$7,$8,$9,$10,$11,$12,$13,$14,$15,$16,$1,$2,$17*%
G04 Aperture macros list end*
%ADD10RoundRect,0.225000X0.250000X-0.225000X0.250000X0.225000X-0.250000X0.225000X-0.250000X-0.225000X0*%
%ADD11RoundRect,0.225000X-0.250000X0.225000X-0.250000X-0.225000X0.250000X-0.225000X0.250000X0.225000X0*%
%ADD12RoundRect,0.225000X-0.225000X-0.250000X0.225000X-0.250000X0.225000X0.250000X-0.225000X0.250000X0*%
%ADD13RoundRect,0.225000X0.225000X0.250000X-0.225000X0.250000X-0.225000X-0.250000X0.225000X-0.250000X0*%
%ADD14R,1.500000X1.000000*%
%ADD15R,1.200000X0.900000*%
%ADD16RoundRect,0.243750X0.243750X0.456250X-0.243750X0.456250X-0.243750X-0.456250X0.243750X-0.456250X0*%
%ADD17R,1.450000X0.600000*%
%ADD18R,1.450000X0.300000*%
%ADD19R,1.270000X3.600000*%
%ADD20R,1.350000X4.200000*%
%ADD21R,1.800000X0.800000*%
%ADD22RoundRect,0.150000X-0.150000X0.587500X-0.150000X-0.587500X0.150000X-0.587500X0.150000X0.587500X0*%
%ADD23RoundRect,0.150000X0.150000X-0.587500X0.150000X0.587500X-0.150000X0.587500X-0.150000X-0.587500X0*%
%ADD24RoundRect,0.150000X-0.587500X-0.150000X0.587500X-0.150000X0.587500X0.150000X-0.587500X0.150000X0*%
%ADD25RoundRect,0.150000X0.587500X0.150000X-0.587500X0.150000X-0.587500X-0.150000X0.587500X-0.150000X0*%
%ADD26RoundRect,0.200000X-0.275000X0.200000X-0.275000X-0.200000X0.275000X-0.200000X0.275000X0.200000X0*%
%ADD27RoundRect,0.200000X0.275000X-0.200000X0.275000X0.200000X-0.275000X0.200000X-0.275000X-0.200000X0*%
%ADD28RoundRect,0.200000X0.200000X0.275000X-0.200000X0.275000X-0.200000X-0.275000X0.200000X-0.275000X0*%
%ADD29RoundRect,0.200000X-0.200000X-0.275000X0.200000X-0.275000X0.200000X0.275000X-0.200000X0.275000X0*%
%ADD30RoundRect,0.250000X-0.312500X-0.625000X0.312500X-0.625000X0.312500X0.625000X-0.312500X0.625000X0*%
%ADD31R,1.500000X2.000000*%
%ADD32R,3.800000X2.000000*%
%ADD33R,2.000000X0.900000*%
%ADD34R,0.900000X2.000000*%
%ADD35R,5.000000X5.000000*%
%ADD36R,2.000000X1.000000*%
%ADD37RoundRect,0.150000X-0.150000X0.825000X-0.150000X-0.825000X0.150000X-0.825000X0.150000X0.825000X0*%
%ADD38RoundRect,0.150000X0.825000X0.150000X-0.825000X0.150000X-0.825000X-0.150000X0.825000X-0.150000X0*%
%ADD39RoundRect,0.250000X0.312500X0.625000X-0.312500X0.625000X-0.312500X-0.625000X0.312500X-0.625000X0*%
%ADD40R,2.200000X2.200000*%
%ADD41R,2.200000X1.250000*%
%ADD42RoundRect,0.250000X-0.650000X0.325000X-0.650000X-0.325000X0.650000X-0.325000X0.650000X0.325000X0*%
%ADD43RoundRect,0.250000X0.650000X-0.325000X0.650000X0.325000X-0.650000X0.325000X-0.650000X-0.325000X0*%
%ADD44RoundRect,0.235000X1.465000X-0.940000X1.465000X0.940000X-1.465000X0.940000X-1.465000X-0.940000X0*%
%ADD45R,2.750000X3.050000*%
%ADD46R,0.800000X2.200000*%
%ADD47R,1.700000X1.000000*%
%ADD48RoundRect,0.125000X-0.125000X-0.137500X0.125000X-0.137500X0.125000X0.137500X-0.125000X0.137500X0*%
%ADD49R,0.350000X0.500000*%
%ADD50R,0.400000X0.600000*%
%ADD51R,2.200000X1.100000*%
%ADD52RoundRect,0.150000X-0.150000X-0.625000X0.150000X-0.625000X0.150000X0.625000X-0.150000X0.625000X0*%
%ADD53RoundRect,0.250000X-0.350000X-0.650000X0.350000X-0.650000X0.350000X0.650000X-0.350000X0.650000X0*%
%ADD54RoundRect,0.250000X-0.250000X0.550000X-0.250000X-0.550000X0.250000X-0.550000X0.250000X0.550000X0*%
%ADD55R,3.000000X1.500000*%
%ADD56RoundRect,0.250000X-1.250000X-0.550000X1.250000X-0.550000X1.250000X0.550000X-1.250000X0.550000X0*%
%ADD57RoundRect,0.062500X0.062500X0.687500X-0.062500X0.687500X-0.062500X-0.687500X0.062500X-0.687500X0*%
%ADD58R,0.800000X0.500000*%
%ADD59RoundRect,0.150000X0.512500X0.150000X-0.512500X0.150000X-0.512500X-0.150000X0.512500X-0.150000X0*%
%ADD60RoundRect,0.218750X0.381250X-0.218750X0.381250X0.218750X-0.381250X0.218750X-0.381250X-0.218750X0*%
%ADD61RoundRect,0.075000X-0.075000X0.350000X-0.075000X-0.350000X0.075000X-0.350000X0.075000X0.350000X0*%
%ADD62RoundRect,0.075000X-0.350000X-0.075000X0.350000X-0.075000X0.350000X0.075000X-0.350000X0.075000X0*%
%ADD63RoundRect,0.250000X0.550000X-1.250000X0.550000X1.250000X-0.550000X1.250000X-0.550000X-1.250000X0*%
%ADD64RoundRect,0.150000X0.150000X-0.825000X0.150000X0.825000X-0.150000X0.825000X-0.150000X-0.825000X0*%
%ADD65RoundRect,0.145000X-0.145000X-0.145000X0.145000X-0.145000X0.145000X0.145000X-0.145000X0.145000X0*%
%ADD66RoundRect,0.062500X-0.275000X-0.062500X0.275000X-0.062500X0.275000X0.062500X-0.275000X0.062500X0*%
%ADD67RoundRect,0.062500X-0.062500X-0.275000X0.062500X-0.275000X0.062500X0.275000X-0.062500X0.275000X0*%
%ADD68R,0.950000X0.450000*%
%ADD69Outline6P,-0.650000X0.070000X-0.545000X0.175000X0.545000X0.175000X0.650000X0.070000X0.650000X-0.175000X-0.650000X-0.175000X270.000000*%
%ADD70Outline6P,-0.175000X1.150000X0.070000X1.150000X0.175000X1.045000X0.175000X-1.045000X0.070000X-1.150000X-0.175000X-1.150000X90.000000*%
%ADD71Outline6P,-0.650000X0.175000X0.650000X0.175000X0.650000X-0.070000X0.545000X-0.175000X-0.545000X-0.175000X-0.650000X-0.070000X270.000000*%
%ADD72Outline6P,-0.175000X1.150000X0.070000X1.150000X0.175000X1.045000X0.175000X-1.045000X0.070000X-1.150000X-0.175000X-1.150000X270.000000*%
%ADD73RoundRect,0.150000X-0.150000X0.512500X-0.150000X-0.512500X0.150000X-0.512500X0.150000X0.512500X0*%
%ADD74R,1.000000X0.400000*%
%ADD75RoundRect,0.250000X0.325000X0.650000X-0.325000X0.650000X-0.325000X-0.650000X0.325000X-0.650000X0*%
G04 APERTURE END LIST*
D10*
%TO.C,C1*%
X72700000Y-119975000D03*
X72700000Y-118425000D03*
%TD*%
D11*
%TO.C,C3*%
X72700000Y-121425000D03*
X72700000Y-122975000D03*
%TD*%
D10*
%TO.C,C4*%
X104300000Y-134875000D03*
X104300000Y-133325000D03*
%TD*%
%TO.C,C5*%
X80600000Y-131975000D03*
X80600000Y-130425000D03*
%TD*%
%TO.C,C8*%
X81500000Y-125975000D03*
X81500000Y-124425000D03*
%TD*%
D11*
%TO.C,C9*%
X80600000Y-127425000D03*
X80600000Y-128975000D03*
%TD*%
D12*
%TO.C,C10*%
X69325000Y-118300000D03*
X70875000Y-118300000D03*
%TD*%
%TO.C,C14*%
X73012000Y-62484000D03*
X74562000Y-62484000D03*
%TD*%
D13*
%TO.C,C16*%
X71514000Y-62484000D03*
X69964000Y-62484000D03*
%TD*%
%TO.C,C18*%
X63767000Y-62484000D03*
X62217000Y-62484000D03*
%TD*%
D14*
%TO.C,D1*%
X83050000Y-64400000D03*
X83050000Y-67600000D03*
X87950000Y-67600000D03*
X87950000Y-64400000D03*
%TD*%
%TO.C,D2*%
X76050000Y-64400000D03*
X76050000Y-67600000D03*
X80950000Y-67600000D03*
X80950000Y-64400000D03*
%TD*%
D15*
%TO.C,D5*%
X129700000Y-110550000D03*
X129700000Y-107250000D03*
%TD*%
D16*
%TO.C,D6*%
X135137500Y-65200000D03*
X133262500Y-65200000D03*
%TD*%
%TO.C,D7*%
X145687500Y-145250000D03*
X143812500Y-145250000D03*
%TD*%
%TO.C,D8*%
X145687500Y-141750000D03*
X143812500Y-141750000D03*
%TD*%
D17*
%TO.C,J8*%
X57550000Y-96400000D03*
X57500000Y-97200000D03*
D18*
X57500000Y-98350000D03*
X57500000Y-99350000D03*
X57500000Y-99850000D03*
X57500000Y-100850000D03*
D17*
X57500000Y-102000000D03*
X57550000Y-102800000D03*
X57550000Y-102800000D03*
X57500000Y-102000000D03*
D18*
X57500000Y-101350000D03*
X57500000Y-100350000D03*
X57500000Y-98850000D03*
X57500000Y-97850000D03*
D17*
X57500000Y-97200000D03*
X57550000Y-96400000D03*
%TD*%
D19*
%TO.C,J14*%
X95100000Y-51900000D03*
D20*
X92275000Y-52100000D03*
X97925000Y-52100000D03*
%TD*%
D21*
%TO.C,K1*%
X132390000Y-82300000D03*
X132390000Y-85500000D03*
X132390000Y-87700000D03*
X132390000Y-89900000D03*
X139390000Y-89900000D03*
X139390000Y-87700000D03*
X139390000Y-85500000D03*
X139390000Y-82300000D03*
%TD*%
%TO.C,K2*%
X132390000Y-92847000D03*
X132390000Y-96047000D03*
X132390000Y-98247000D03*
X132390000Y-100447000D03*
X139390000Y-100447000D03*
X139390000Y-98247000D03*
X139390000Y-96047000D03*
X139390000Y-92847000D03*
%TD*%
%TO.C,K3*%
X132390000Y-103515000D03*
X132390000Y-106715000D03*
X132390000Y-108915000D03*
X132390000Y-111115000D03*
X139390000Y-111115000D03*
X139390000Y-108915000D03*
X139390000Y-106715000D03*
X139390000Y-103515000D03*
%TD*%
D22*
%TO.C,Q2*%
X64050000Y-127662500D03*
X62150000Y-127662500D03*
X63100000Y-129537500D03*
%TD*%
D23*
%TO.C,Q4*%
X128450000Y-104800000D03*
X130350000Y-104800000D03*
X129400000Y-102925000D03*
%TD*%
D24*
%TO.C,Q5*%
X134162500Y-69750000D03*
X134162500Y-71650000D03*
X136037500Y-70700000D03*
%TD*%
D25*
%TO.C,Q9*%
X62987500Y-82650000D03*
X62987500Y-80750000D03*
X61112500Y-81700000D03*
%TD*%
D26*
%TO.C,R1*%
X104300000Y-130275000D03*
X104300000Y-131925000D03*
%TD*%
%TO.C,R2*%
X60600000Y-119475000D03*
X60600000Y-121125000D03*
%TD*%
D27*
%TO.C,R3*%
X59400000Y-129625000D03*
X59400000Y-127975000D03*
%TD*%
%TO.C,R4*%
X108000000Y-74725000D03*
X108000000Y-73075000D03*
%TD*%
D28*
%TO.C,R6*%
X67125000Y-129200000D03*
X65475000Y-129200000D03*
%TD*%
D29*
%TO.C,R7*%
X65475000Y-127500000D03*
X67125000Y-127500000D03*
%TD*%
D28*
%TO.C,R15*%
X135025000Y-68200000D03*
X133375000Y-68200000D03*
%TD*%
D27*
%TO.C,R16*%
X132400000Y-71725000D03*
X132400000Y-70075000D03*
%TD*%
D26*
%TO.C,R17*%
X107300000Y-130275000D03*
X107300000Y-131925000D03*
%TD*%
D30*
%TO.C,R19*%
X136737500Y-65300000D03*
X139662500Y-65300000D03*
%TD*%
D27*
%TO.C,R20*%
X105800000Y-131925000D03*
X105800000Y-130275000D03*
%TD*%
D26*
%TO.C,R21*%
X105900000Y-127175000D03*
X105900000Y-128825000D03*
%TD*%
D29*
%TO.C,R22*%
X113602000Y-112014000D03*
X115252000Y-112014000D03*
%TD*%
%TO.C,R23*%
X108649000Y-112100000D03*
X110299000Y-112100000D03*
%TD*%
D27*
%TO.C,R24*%
X141750000Y-146075000D03*
X141750000Y-144425000D03*
%TD*%
%TO.C,R25*%
X141750000Y-142575000D03*
X141750000Y-140925000D03*
%TD*%
D31*
%TO.C,SW1*%
X132000000Y-128150000D03*
X132000000Y-113850000D03*
X137000000Y-128150000D03*
X137000000Y-113850000D03*
%TD*%
%TO.C,SW5*%
X132000000Y-131350000D03*
X132000000Y-145650000D03*
X137000000Y-145650000D03*
X137000000Y-131350000D03*
%TD*%
%TO.C,U1*%
X79400000Y-119050000D03*
D32*
X77100000Y-125350000D03*
D31*
X77100000Y-119050000D03*
X74800000Y-119050000D03*
%TD*%
D33*
%TO.C,U2*%
X102250000Y-134195200D03*
X102250000Y-132925200D03*
X102250000Y-131655200D03*
X102250000Y-130385200D03*
X102250000Y-129115200D03*
X102250000Y-127845200D03*
X102250000Y-126575200D03*
X102250000Y-125305200D03*
X102250000Y-124035200D03*
X102250000Y-122765200D03*
X102250000Y-121495200D03*
X102250000Y-120225200D03*
X102250000Y-118955200D03*
X102250000Y-117685200D03*
D34*
X99465000Y-116685200D03*
X98195000Y-116685200D03*
X96925000Y-116685200D03*
X95655000Y-116685200D03*
X94385000Y-116685200D03*
X93115000Y-116685200D03*
X91845000Y-116685200D03*
X90575000Y-116685200D03*
X89305000Y-116685200D03*
X88035000Y-116685200D03*
D33*
X85250000Y-117685200D03*
X85250000Y-118955200D03*
X85250000Y-120225200D03*
X85250000Y-121495200D03*
X85250000Y-122765200D03*
X85250000Y-124035200D03*
X85250000Y-125305200D03*
X85250000Y-126575200D03*
X85250000Y-127845200D03*
X85250000Y-129115200D03*
X85250000Y-130385200D03*
X85250000Y-131655200D03*
X85250000Y-132925200D03*
X85250000Y-134195200D03*
D35*
X94750000Y-126695200D03*
%TD*%
D36*
%TO.C,U17*%
X111500000Y-70400000D03*
X111500000Y-68400000D03*
X111500000Y-66400000D03*
X111500000Y-64400000D03*
X111500000Y-62400000D03*
X111500000Y-60400000D03*
X111500000Y-58400000D03*
X111500000Y-56400000D03*
X95500000Y-56400000D03*
X95500000Y-58400000D03*
X95500000Y-60400000D03*
X95500000Y-62400000D03*
X95500000Y-64400000D03*
X95500000Y-66400000D03*
X95500000Y-68400000D03*
X95500000Y-70400000D03*
%TD*%
D28*
%TO.C,R12*%
X84325000Y-96700000D03*
X82675000Y-96700000D03*
%TD*%
D22*
%TO.C,Q1*%
X70450000Y-127562500D03*
X68550000Y-127562500D03*
X69500000Y-129437500D03*
%TD*%
D14*
%TO.C,D3*%
X69050000Y-64400000D03*
X69050000Y-67600000D03*
X73950000Y-67600000D03*
X73950000Y-64400000D03*
%TD*%
D12*
%TO.C,C7*%
X80025000Y-62484000D03*
X81575000Y-62484000D03*
%TD*%
D22*
%TO.C,D4*%
X81050000Y-91862500D03*
X79150000Y-91862500D03*
X80100000Y-93737500D03*
%TD*%
D37*
%TO.C,U18*%
X128005000Y-92902000D03*
X126735000Y-92902000D03*
X125465000Y-92902000D03*
X124195000Y-92902000D03*
X124195000Y-97852000D03*
X125465000Y-97852000D03*
X126735000Y-97852000D03*
X128005000Y-97852000D03*
%TD*%
D13*
%TO.C,C25*%
X125575000Y-99949000D03*
X124025000Y-99949000D03*
%TD*%
D27*
%TO.C,R39*%
X121100000Y-93725000D03*
X121100000Y-92075000D03*
%TD*%
D26*
%TO.C,R38*%
X119600000Y-92075000D03*
X119600000Y-93725000D03*
%TD*%
D10*
%TO.C,C23*%
X122600000Y-93675000D03*
X122600000Y-92125000D03*
%TD*%
D12*
%TO.C,C26*%
X127025000Y-99949000D03*
X128575000Y-99949000D03*
%TD*%
D11*
%TO.C,C2*%
X105800000Y-133325000D03*
X105800000Y-134875000D03*
%TD*%
D13*
%TO.C,C24*%
X115275000Y-94400000D03*
X113725000Y-94400000D03*
%TD*%
D27*
%TO.C,R37*%
X108900000Y-129525000D03*
X108900000Y-127875000D03*
%TD*%
D31*
%TO.C,SW3*%
X112000000Y-145650000D03*
X112000000Y-131350000D03*
X117000000Y-145650000D03*
X117000000Y-131350000D03*
%TD*%
D12*
%TO.C,C12*%
X98425000Y-110600000D03*
X99975000Y-110600000D03*
%TD*%
D27*
%TO.C,R11*%
X73200000Y-88425000D03*
X73200000Y-86775000D03*
%TD*%
D11*
%TO.C,C6*%
X72700000Y-124425000D03*
X72700000Y-125975000D03*
%TD*%
D31*
%TO.C,SW4*%
X117000000Y-110650000D03*
X117000000Y-96350000D03*
X112000000Y-110650000D03*
X112000000Y-96350000D03*
%TD*%
D10*
%TO.C,C19*%
X62400000Y-112075000D03*
X62400000Y-110525000D03*
%TD*%
D28*
%TO.C,R8*%
X71975000Y-139500000D03*
X70325000Y-139500000D03*
%TD*%
%TO.C,R5*%
X65925000Y-132500000D03*
X64275000Y-132500000D03*
%TD*%
D38*
%TO.C,U6*%
X107075000Y-110505000D03*
X107075000Y-109235000D03*
X107075000Y-107965000D03*
X107075000Y-106695000D03*
X102125000Y-106695000D03*
X102125000Y-107965000D03*
X102125000Y-109235000D03*
X102125000Y-110505000D03*
%TD*%
D14*
%TO.C,D15*%
X62050000Y-64400000D03*
X62050000Y-67600000D03*
X66950000Y-67600000D03*
X66950000Y-64400000D03*
%TD*%
D26*
%TO.C,R14*%
X128600000Y-112475000D03*
X128600000Y-114125000D03*
%TD*%
D27*
%TO.C,R30*%
X105000000Y-93075000D03*
X105000000Y-91425000D03*
%TD*%
D26*
%TO.C,R26*%
X90100000Y-86975000D03*
X90100000Y-88625000D03*
%TD*%
D39*
%TO.C,R33*%
X77962500Y-85700000D03*
X75037500Y-85700000D03*
%TD*%
D40*
%TO.C,D13*%
X77000000Y-77800000D03*
D41*
X77000000Y-75525000D03*
%TD*%
D17*
%TO.C,J1*%
X57550000Y-120700000D03*
X57500000Y-121500000D03*
D18*
X57500000Y-122650000D03*
X57500000Y-123650000D03*
X57500000Y-124150000D03*
X57500000Y-125150000D03*
D17*
X57500000Y-126300000D03*
X57550000Y-127100000D03*
X57550000Y-127100000D03*
X57500000Y-126300000D03*
D18*
X57500000Y-125650000D03*
X57500000Y-124650000D03*
X57500000Y-123150000D03*
X57500000Y-122150000D03*
D17*
X57500000Y-121500000D03*
X57550000Y-120700000D03*
%TD*%
D11*
%TO.C,C20*%
X104400000Y-127225000D03*
X104400000Y-128775000D03*
%TD*%
D27*
%TO.C,R44*%
X119000000Y-129625000D03*
X119000000Y-127975000D03*
%TD*%
D28*
%TO.C,R35*%
X71725000Y-86800000D03*
X70075000Y-86800000D03*
%TD*%
D42*
%TO.C,C17*%
X64900000Y-107125000D03*
X64900000Y-110075000D03*
%TD*%
D43*
%TO.C,C22*%
X68750000Y-111725000D03*
X68750000Y-108775000D03*
%TD*%
D11*
%TO.C,C33*%
X70650000Y-104175000D03*
X70650000Y-105725000D03*
%TD*%
D13*
%TO.C,C35*%
X74225000Y-107400000D03*
X72675000Y-107400000D03*
%TD*%
D10*
%TO.C,C36*%
X69200000Y-116225000D03*
X69200000Y-114675000D03*
%TD*%
D44*
%TO.C,L2*%
X73550000Y-115625000D03*
X73550000Y-109575000D03*
%TD*%
D27*
%TO.C,R45*%
X76250000Y-105575000D03*
X76250000Y-103925000D03*
%TD*%
%TO.C,R46*%
X77750000Y-105575000D03*
X77750000Y-103925000D03*
%TD*%
D40*
%TO.C,D10*%
X71000000Y-70700000D03*
D41*
X71000000Y-72975000D03*
%TD*%
D40*
%TO.C,D14*%
X71000000Y-81300000D03*
D41*
X71000000Y-83575000D03*
%TD*%
D40*
%TO.C,D12*%
X71000000Y-76000000D03*
D41*
X71000000Y-78275000D03*
%TD*%
D40*
%TO.C,D11*%
X77000000Y-72500000D03*
D41*
X77000000Y-70225000D03*
%TD*%
D29*
%TO.C,R34*%
X70075000Y-88300000D03*
X71725000Y-88300000D03*
%TD*%
D26*
%TO.C,R13*%
X82600000Y-90875000D03*
X82600000Y-92525000D03*
%TD*%
D45*
%TO.C,U21*%
X63275000Y-78175000D03*
X66325000Y-78175000D03*
X66325000Y-74825000D03*
X63275000Y-74825000D03*
D46*
X67080000Y-70200000D03*
X65940000Y-70200000D03*
X64800000Y-70200000D03*
X63660000Y-70200000D03*
X62520000Y-70200000D03*
%TD*%
D47*
%TO.C,SW12*%
X78650000Y-127800000D03*
X72350000Y-127800000D03*
X78650000Y-131600000D03*
X72350000Y-131600000D03*
%TD*%
D27*
%TO.C,R36*%
X107400000Y-128825000D03*
X107400000Y-127175000D03*
%TD*%
D10*
%TO.C,C15*%
X67400000Y-139075000D03*
X67400000Y-137525000D03*
%TD*%
%TO.C,C29*%
X68900000Y-139075000D03*
X68900000Y-137525000D03*
%TD*%
%TO.C,C30*%
X65900000Y-139075000D03*
X65900000Y-137525000D03*
%TD*%
D12*
%TO.C,C31*%
X133525000Y-54100000D03*
X135075000Y-54100000D03*
%TD*%
%TO.C,C38*%
X75125000Y-133450000D03*
X76675000Y-133450000D03*
%TD*%
D29*
%TO.C,R28*%
X70675000Y-136500000D03*
X72325000Y-136500000D03*
%TD*%
D37*
%TO.C,U4*%
X71120000Y-120334000D03*
X69850000Y-120334000D03*
X68580000Y-120334000D03*
X67310000Y-120334000D03*
X66040000Y-120334000D03*
X64770000Y-120334000D03*
X63500000Y-120334000D03*
X62230000Y-120334000D03*
X62230000Y-125284000D03*
X63500000Y-125284000D03*
X64770000Y-125284000D03*
X66040000Y-125284000D03*
X67310000Y-125284000D03*
X68580000Y-125284000D03*
X69850000Y-125284000D03*
X71120000Y-125284000D03*
%TD*%
D48*
%TO.C,U12*%
X64200000Y-133812500D03*
X65000000Y-133812500D03*
X65800000Y-133812500D03*
X66600000Y-133812500D03*
X66600000Y-136187500D03*
X65800000Y-136187500D03*
X65000000Y-136187500D03*
X64200000Y-136187500D03*
%TD*%
D49*
%TO.C,U13*%
X67625000Y-134175000D03*
X68275000Y-134175000D03*
X68925000Y-134175000D03*
X69575000Y-134175000D03*
X69575000Y-136225000D03*
X68925000Y-136225000D03*
X68275000Y-136225000D03*
X67625000Y-136225000D03*
%TD*%
D50*
%TO.C,U15*%
X71000000Y-135300000D03*
X71600000Y-135300000D03*
X72200000Y-135300000D03*
X72800000Y-135300000D03*
X73400000Y-135300000D03*
X73400000Y-133200000D03*
X72800000Y-133200000D03*
X72200000Y-133200000D03*
X71600000Y-133200000D03*
X71000000Y-133200000D03*
D51*
X72350000Y-134250000D03*
%TD*%
D10*
%TO.C,C28*%
X64400000Y-139075000D03*
X64400000Y-137525000D03*
%TD*%
D52*
%TO.C,J21*%
X66000000Y-141650000D03*
X67000000Y-141650000D03*
X68000000Y-141650000D03*
X69000000Y-141650000D03*
D53*
X70300000Y-145525000D03*
X64700000Y-145525000D03*
%TD*%
D54*
%TO.C,X2*%
X145210000Y-54050000D03*
X142670000Y-54050000D03*
X140130000Y-54050000D03*
X137590000Y-54050000D03*
X137590000Y-63050000D03*
X140130000Y-63050000D03*
X142670000Y-63050000D03*
X145210000Y-63050000D03*
%TD*%
D10*
%TO.C,C49*%
X89900000Y-58075000D03*
X89900000Y-56525000D03*
%TD*%
%TO.C,C48*%
X81900000Y-57575000D03*
X81900000Y-56025000D03*
%TD*%
%TO.C,C57*%
X60200000Y-103375000D03*
X60200000Y-101825000D03*
%TD*%
D55*
%TO.C,J22*%
X89400000Y-54775000D03*
X89400000Y-51175000D03*
X82400000Y-52175000D03*
X82400000Y-59175000D03*
X89400000Y-60875000D03*
%TD*%
D26*
%TO.C,R54*%
X127000000Y-59375000D03*
X127000000Y-61025000D03*
%TD*%
D56*
%TO.C,C45*%
X101550000Y-102950000D03*
X105950000Y-102950000D03*
%TD*%
D57*
%TO.C,JP2*%
X84550000Y-108100000D03*
X84150000Y-108100000D03*
%TD*%
D40*
%TO.C,D9*%
X77000000Y-83100000D03*
D41*
X77000000Y-80825000D03*
%TD*%
D58*
%TO.C,U3*%
X73650000Y-136750000D03*
X73650000Y-137750000D03*
X73650000Y-138750000D03*
X75650000Y-138750000D03*
X75650000Y-137750000D03*
X75650000Y-136750000D03*
%TD*%
D28*
%TO.C,R51*%
X119625000Y-70250000D03*
X117975000Y-70250000D03*
%TD*%
D10*
%TO.C,C44*%
X100100000Y-107575000D03*
X100100000Y-106025000D03*
%TD*%
D12*
%TO.C,C53*%
X133625000Y-61800000D03*
X135175000Y-61800000D03*
%TD*%
D59*
%TO.C,U9*%
X74587500Y-105900000D03*
X74587500Y-104950000D03*
X74587500Y-104000000D03*
X72312500Y-104000000D03*
X72312500Y-104950000D03*
X72312500Y-105900000D03*
%TD*%
D27*
%TO.C,R53*%
X116550000Y-71825000D03*
X116550000Y-70175000D03*
%TD*%
D28*
%TO.C,R52*%
X119625000Y-71750000D03*
X117975000Y-71750000D03*
%TD*%
D13*
%TO.C,C47*%
X100000000Y-109100000D03*
X98450000Y-109100000D03*
%TD*%
D11*
%TO.C,C54*%
X116400000Y-59325000D03*
X116400000Y-60875000D03*
%TD*%
D60*
%TO.C,FB1*%
X79850000Y-112362500D03*
X79850000Y-110237500D03*
%TD*%
D10*
%TO.C,C51*%
X129700000Y-60275000D03*
X129700000Y-58725000D03*
%TD*%
D11*
%TO.C,C43*%
X101100000Y-97875000D03*
X101100000Y-99425000D03*
%TD*%
D61*
%TO.C,U23*%
X134450000Y-56400000D03*
X133950000Y-56400000D03*
X133450000Y-56400000D03*
X132950000Y-56400000D03*
X132450000Y-56400000D03*
X131950000Y-56400000D03*
D62*
X131250000Y-57100000D03*
X131250000Y-57600000D03*
X131250000Y-58100000D03*
X131250000Y-58600000D03*
X131250000Y-59100000D03*
X131250000Y-59600000D03*
D61*
X131950000Y-60300000D03*
X132450000Y-60300000D03*
X132950000Y-60300000D03*
X133450000Y-60300000D03*
X133950000Y-60300000D03*
X134450000Y-60300000D03*
D62*
X135150000Y-59600000D03*
X135150000Y-59100000D03*
X135150000Y-58600000D03*
X135150000Y-58100000D03*
X135150000Y-57600000D03*
X135150000Y-57100000D03*
%TD*%
D11*
%TO.C,C39*%
X87500000Y-100175000D03*
X87500000Y-101725000D03*
%TD*%
%TO.C,C42*%
X99600000Y-98975000D03*
X99600000Y-100525000D03*
%TD*%
%TO.C,C13*%
X90850000Y-103525000D03*
X90850000Y-105075000D03*
%TD*%
D28*
%TO.C,R49*%
X105725000Y-97500000D03*
X104075000Y-97500000D03*
%TD*%
D13*
%TO.C,C52*%
X132175000Y-61800000D03*
X130625000Y-61800000D03*
%TD*%
D27*
%TO.C,R40*%
X87850000Y-105125000D03*
X87850000Y-103475000D03*
%TD*%
D28*
%TO.C,R43*%
X105725000Y-99150000D03*
X104075000Y-99150000D03*
%TD*%
D63*
%TO.C,C46*%
X92400000Y-79500000D03*
X92400000Y-75100000D03*
%TD*%
D29*
%TO.C,R48*%
X90475000Y-72550000D03*
X92125000Y-72550000D03*
%TD*%
D39*
%TO.C,R32*%
X77962500Y-88000000D03*
X75037500Y-88000000D03*
%TD*%
D64*
%TO.C,U10*%
X116295000Y-68275000D03*
X117565000Y-68275000D03*
X118835000Y-68275000D03*
X120105000Y-68275000D03*
X120105000Y-63325000D03*
X118835000Y-63325000D03*
X117565000Y-63325000D03*
X116295000Y-63325000D03*
%TD*%
D65*
%TO.C,U11*%
X62100000Y-107100000D03*
X62100000Y-107820000D03*
X61380000Y-107820000D03*
X61380000Y-107100000D03*
D66*
X60477500Y-106960000D03*
X60477500Y-107460000D03*
X60477500Y-107960000D03*
D67*
X60990000Y-108722500D03*
X61490000Y-108722500D03*
X61990000Y-108722500D03*
X62490000Y-108722500D03*
D66*
X63002500Y-107960000D03*
X63002500Y-107460000D03*
X63002500Y-106960000D03*
D67*
X62490000Y-106197500D03*
X61990000Y-106197500D03*
X61490000Y-106197500D03*
X60990000Y-106197500D03*
%TD*%
D68*
%TO.C,U26*%
X91125000Y-100775000D03*
X92475000Y-100775000D03*
X92475000Y-99925000D03*
X91125000Y-99925000D03*
D69*
X90075000Y-100350000D03*
D70*
X91800000Y-101575000D03*
D71*
X93525000Y-100350000D03*
D72*
X91800000Y-99125000D03*
%TD*%
D42*
%TO.C,C60*%
X68750000Y-104125000D03*
X68750000Y-107075000D03*
%TD*%
D11*
%TO.C,C11*%
X89350000Y-103525000D03*
X89350000Y-105075000D03*
%TD*%
%TO.C,C55*%
X125500000Y-59425000D03*
X125500000Y-60975000D03*
%TD*%
D10*
%TO.C,C50*%
X129700000Y-57275000D03*
X129700000Y-55725000D03*
%TD*%
D27*
%TO.C,R50*%
X90100000Y-64125000D03*
X90100000Y-62475000D03*
%TD*%
D73*
%TO.C,U24*%
X61250000Y-96662500D03*
X60300000Y-96662500D03*
X59350000Y-96662500D03*
X59350000Y-98937500D03*
X60300000Y-98937500D03*
X61250000Y-98937500D03*
%TD*%
D12*
%TO.C,C56*%
X59725000Y-95000000D03*
X61275000Y-95000000D03*
%TD*%
D13*
%TO.C,C61*%
X71925000Y-138000000D03*
X70375000Y-138000000D03*
%TD*%
D10*
%TO.C,C32*%
X60650000Y-111675000D03*
X60650000Y-110125000D03*
%TD*%
D27*
%TO.C,R42*%
X98100000Y-101775000D03*
X98100000Y-100125000D03*
%TD*%
D24*
%TO.C,Q6*%
X84862500Y-90550000D03*
X84862500Y-92450000D03*
X86737500Y-91500000D03*
%TD*%
D11*
%TO.C,C37*%
X89000000Y-100175000D03*
X89000000Y-101725000D03*
%TD*%
D74*
%TO.C,U5*%
X92800000Y-103125000D03*
X92800000Y-103775000D03*
X92800000Y-104425000D03*
X92800000Y-105075000D03*
X92800000Y-105725000D03*
X92800000Y-106375000D03*
X92800000Y-107025000D03*
X92800000Y-107675000D03*
X98600000Y-107675000D03*
X98600000Y-107025000D03*
X98600000Y-106375000D03*
X98600000Y-105725000D03*
X98600000Y-105075000D03*
X98600000Y-104425000D03*
X98600000Y-103775000D03*
X98600000Y-103125000D03*
%TD*%
D75*
%TO.C,C58*%
X65975000Y-104400000D03*
X63025000Y-104400000D03*
%TD*%
M02*
