%TF.GenerationSoftware,KiCad,Pcbnew,8.0.5*%
%TF.CreationDate,2024-10-18T10:17:48+02:00*%
%TF.ProjectId,labathome_pcb15,6c616261-7468-46f6-9d65-5f7063623135,rev?*%
%TF.SameCoordinates,Original*%
%TF.FileFunction,Soldermask,Bot*%
%TF.FilePolarity,Negative*%
%FSLAX46Y46*%
G04 Gerber Fmt 4.6, Leading zero omitted, Abs format (unit mm)*
G04 Created by KiCad (PCBNEW 8.0.5) date 2024-10-18 10:17:48*
%MOMM*%
%LPD*%
G01*
G04 APERTURE LIST*
G04 Aperture macros list*
%AMRoundRect*
0 Rectangle with rounded corners*
0 $1 Rounding radius*
0 $2 $3 $4 $5 $6 $7 $8 $9 X,Y pos of 4 corners*
0 Add a 4 corners polygon primitive as box body*
4,1,4,$2,$3,$4,$5,$6,$7,$8,$9,$2,$3,0*
0 Add four circle primitives for the rounded corners*
1,1,$1+$1,$2,$3*
1,1,$1+$1,$4,$5*
1,1,$1+$1,$6,$7*
1,1,$1+$1,$8,$9*
0 Add four rect primitives between the rounded corners*
20,1,$1+$1,$2,$3,$4,$5,0*
20,1,$1+$1,$4,$5,$6,$7,0*
20,1,$1+$1,$6,$7,$8,$9,0*
20,1,$1+$1,$8,$9,$2,$3,0*%
%AMHorizOval*
0 Thick line with rounded ends*
0 $1 width*
0 $2 $3 position (X,Y) of the first rounded end (center of the circle)*
0 $4 $5 position (X,Y) of the second rounded end (center of the circle)*
0 Add line between two ends*
20,1,$1,$2,$3,$4,$5,0*
0 Add two circle primitives to create the rounded ends*
1,1,$1,$2,$3*
1,1,$1,$4,$5*%
%AMRotRect*
0 Rectangle, with rotation*
0 The origin of the aperture is its center*
0 $1 length*
0 $2 width*
0 $3 Rotation angle, in degrees counterclockwise*
0 Add horizontal line*
21,1,$1,$2,0,0,$3*%
%AMFreePoly0*
4,1,19,0.500000,-0.750000,0.000000,-0.750000,0.000000,-0.744911,-0.071157,-0.744911,-0.207708,-0.704816,-0.327430,-0.627875,-0.420627,-0.520320,-0.479746,-0.390866,-0.500000,-0.250000,-0.500000,0.250000,-0.479746,0.390866,-0.420627,0.520320,-0.327430,0.627875,-0.207708,0.704816,-0.071157,0.744911,0.000000,0.744911,0.000000,0.750000,0.500000,0.750000,0.500000,-0.750000,0.500000,-0.750000,
$1*%
%AMFreePoly1*
4,1,19,0.000000,0.744911,0.071157,0.744911,0.207708,0.704816,0.327430,0.627875,0.420627,0.520320,0.479746,0.390866,0.500000,0.250000,0.500000,-0.250000,0.479746,-0.390866,0.420627,-0.520320,0.327430,-0.627875,0.207708,-0.704816,0.071157,-0.744911,0.000000,-0.744911,0.000000,-0.750000,-0.500000,-0.750000,-0.500000,0.750000,0.000000,0.750000,0.000000,0.744911,0.000000,0.744911,
$1*%
G04 Aperture macros list end*
%ADD10R,1.700000X1.700000*%
%ADD11O,1.700000X1.700000*%
%ADD12RoundRect,0.750000X-1.000000X0.750000X-1.000000X-0.750000X1.000000X-0.750000X1.000000X0.750000X0*%
%ADD13RoundRect,0.750000X-1.000000X1.000000X-1.000000X-1.000000X1.000000X-1.000000X1.000000X1.000000X0*%
%ADD14RoundRect,0.875000X-0.875000X0.875000X-0.875000X-0.875000X0.875000X-0.875000X0.875000X0.875000X0*%
%ADD15RoundRect,0.450000X-0.750000X0.450000X-0.750000X-0.450000X0.750000X-0.450000X0.750000X0.450000X0*%
%ADD16RoundRect,0.250000X0.600000X-0.600000X0.600000X0.600000X-0.600000X0.600000X-0.600000X-0.600000X0*%
%ADD17C,1.500000*%
%ADD18R,1.100000X1.800000*%
%ADD19RoundRect,0.275000X-0.275000X-0.625000X0.275000X-0.625000X0.275000X0.625000X-0.275000X0.625000X0*%
%ADD20RoundRect,0.450000X0.750000X-0.450000X0.750000X0.450000X-0.750000X0.450000X-0.750000X-0.450000X0*%
%ADD21RoundRect,0.400000X-0.400000X-0.400000X0.400000X-0.400000X0.400000X0.400000X-0.400000X0.400000X0*%
%ADD22O,1.800000X1.600000*%
%ADD23O,1.600000X2.200000*%
%ADD24C,1.700000*%
%ADD25R,1.350000X1.350000*%
%ADD26C,1.350000*%
%ADD27C,1.200000*%
%ADD28C,3.400000*%
%ADD29RoundRect,0.500000X0.350000X-0.350000X0.350000X0.350000X-0.350000X0.350000X-0.350000X-0.350000X0*%
%ADD30HorizOval,1.400000X0.000000X0.000000X0.000000X0.000000X0*%
%ADD31C,1.600000*%
%ADD32RoundRect,0.100000X0.021213X0.162635X-0.162635X-0.021213X-0.021213X-0.162635X0.162635X0.021213X0*%
%ADD33RoundRect,0.150000X-0.587500X-0.150000X0.587500X-0.150000X0.587500X0.150000X-0.587500X0.150000X0*%
%ADD34RoundRect,0.100000X0.130000X0.100000X-0.130000X0.100000X-0.130000X-0.100000X0.130000X-0.100000X0*%
%ADD35RoundRect,0.140000X0.140000X0.170000X-0.140000X0.170000X-0.140000X-0.170000X0.140000X-0.170000X0*%
%ADD36RoundRect,0.250000X-1.500000X-0.550000X1.500000X-0.550000X1.500000X0.550000X-1.500000X0.550000X0*%
%ADD37RoundRect,0.200000X-0.200000X-0.275000X0.200000X-0.275000X0.200000X0.275000X-0.200000X0.275000X0*%
%ADD38RoundRect,0.150000X0.150000X-0.587500X0.150000X0.587500X-0.150000X0.587500X-0.150000X-0.587500X0*%
%ADD39O,3.500000X3.500000*%
%ADD40C,3.600000*%
%ADD41RoundRect,0.250000X-0.450000X0.350000X-0.450000X-0.350000X0.450000X-0.350000X0.450000X0.350000X0*%
%ADD42RoundRect,0.100000X-0.100000X0.130000X-0.100000X-0.130000X0.100000X-0.130000X0.100000X0.130000X0*%
%ADD43C,0.900000*%
%ADD44R,2.000000X0.700000*%
%ADD45R,0.800000X2.000000*%
%ADD46RoundRect,0.225000X0.225000X0.250000X-0.225000X0.250000X-0.225000X-0.250000X0.225000X-0.250000X0*%
%ADD47RoundRect,0.140000X-0.219203X-0.021213X-0.021213X-0.219203X0.219203X0.021213X0.021213X0.219203X0*%
%ADD48RoundRect,0.140000X-0.170000X0.140000X-0.170000X-0.140000X0.170000X-0.140000X0.170000X0.140000X0*%
%ADD49RoundRect,0.135000X0.135000X0.185000X-0.135000X0.185000X-0.135000X-0.185000X0.135000X-0.185000X0*%
%ADD50RoundRect,0.100000X-0.130000X-0.100000X0.130000X-0.100000X0.130000X0.100000X-0.130000X0.100000X0*%
%ADD51C,1.000000*%
%ADD52R,0.700000X1.600000*%
%ADD53R,1.200000X2.200000*%
%ADD54R,1.200000X1.500000*%
%ADD55R,1.600000X1.500000*%
%ADD56RoundRect,0.250000X-0.450000X-0.425000X0.450000X-0.425000X0.450000X0.425000X-0.450000X0.425000X0*%
%ADD57RoundRect,0.140000X-0.021213X0.219203X-0.219203X0.021213X0.021213X-0.219203X0.219203X-0.021213X0*%
%ADD58RoundRect,0.335000X-1.340000X-1.365000X1.340000X-1.365000X1.340000X1.365000X-1.340000X1.365000X0*%
%ADD59RoundRect,0.220000X-0.780000X-0.330000X0.780000X-0.330000X0.780000X0.330000X-0.780000X0.330000X0*%
%ADD60RoundRect,0.082000X-0.328000X-0.618000X0.328000X-0.618000X0.328000X0.618000X-0.328000X0.618000X0*%
%ADD61RoundRect,0.225000X-0.250000X0.225000X-0.250000X-0.225000X0.250000X-0.225000X0.250000X0.225000X0*%
%ADD62RoundRect,0.225000X0.250000X-0.225000X0.250000X0.225000X-0.250000X0.225000X-0.250000X-0.225000X0*%
%ADD63RoundRect,0.140000X-0.140000X-0.170000X0.140000X-0.170000X0.140000X0.170000X-0.140000X0.170000X0*%
%ADD64RoundRect,0.250000X0.475000X-0.250000X0.475000X0.250000X-0.475000X0.250000X-0.475000X-0.250000X0*%
%ADD65RoundRect,0.100000X0.100000X-0.130000X0.100000X0.130000X-0.100000X0.130000X-0.100000X-0.130000X0*%
%ADD66C,2.000000*%
%ADD67RoundRect,0.112500X-0.187500X-0.112500X0.187500X-0.112500X0.187500X0.112500X-0.187500X0.112500X0*%
%ADD68RoundRect,0.130000X0.520000X0.670000X-0.520000X0.670000X-0.520000X-0.670000X0.520000X-0.670000X0*%
%ADD69RoundRect,0.220000X0.330000X-0.780000X0.330000X0.780000X-0.330000X0.780000X-0.330000X-0.780000X0*%
%ADD70RoundRect,0.250000X0.750000X-1.250000X0.750000X1.250000X-0.750000X1.250000X-0.750000X-1.250000X0*%
%ADD71RoundRect,0.150000X0.825000X0.150000X-0.825000X0.150000X-0.825000X-0.150000X0.825000X-0.150000X0*%
%ADD72R,2.300000X2.300000*%
%ADD73RoundRect,0.225000X-0.225000X-0.250000X0.225000X-0.250000X0.225000X0.250000X-0.225000X0.250000X0*%
%ADD74RoundRect,0.150000X0.512500X0.150000X-0.512500X0.150000X-0.512500X-0.150000X0.512500X-0.150000X0*%
%ADD75RoundRect,0.112500X-0.112500X0.187500X-0.112500X-0.187500X0.112500X-0.187500X0.112500X0.187500X0*%
%ADD76RoundRect,0.135000X-0.035355X0.226274X-0.226274X0.035355X0.035355X-0.226274X0.226274X-0.035355X0*%
%ADD77R,3.600000X1.500000*%
%ADD78RoundRect,0.255000X0.255000X-1.330000X0.255000X1.330000X-0.255000X1.330000X-0.255000X-1.330000X0*%
%ADD79RoundRect,0.250000X-0.250000X-0.475000X0.250000X-0.475000X0.250000X0.475000X-0.250000X0.475000X0*%
%ADD80C,0.650000*%
%ADD81R,1.450000X0.600000*%
%ADD82R,1.450000X0.300000*%
%ADD83O,2.500000X2.000000*%
%ADD84O,3.500000X2.000000*%
%ADD85RoundRect,0.062500X0.282843X-0.194454X-0.194454X0.282843X-0.282843X0.194454X0.194454X-0.282843X0*%
%ADD86RoundRect,0.062500X0.282843X0.194454X0.194454X0.282843X-0.282843X-0.194454X-0.194454X-0.282843X0*%
%ADD87RotRect,3.600000X3.600000X135.000000*%
%ADD88RoundRect,0.218750X0.026517X-0.335876X0.335876X-0.026517X-0.026517X0.335876X-0.335876X0.026517X0*%
%ADD89RoundRect,0.250000X0.450000X0.425000X-0.450000X0.425000X-0.450000X-0.425000X0.450000X-0.425000X0*%
%ADD90RoundRect,0.200000X-0.200000X0.750000X-0.200000X-0.750000X0.200000X-0.750000X0.200000X0.750000X0*%
%ADD91RoundRect,0.140000X0.170000X-0.140000X0.170000X0.140000X-0.170000X0.140000X-0.170000X-0.140000X0*%
%ADD92RoundRect,0.250000X-0.425000X0.450000X-0.425000X-0.450000X0.425000X-0.450000X0.425000X0.450000X0*%
%ADD93RoundRect,0.250000X-0.625000X0.312500X-0.625000X-0.312500X0.625000X-0.312500X0.625000X0.312500X0*%
%ADD94RoundRect,0.162500X0.162500X-0.617500X0.162500X0.617500X-0.162500X0.617500X-0.162500X-0.617500X0*%
%ADD95RoundRect,0.135000X-0.135000X-0.185000X0.135000X-0.185000X0.135000X0.185000X-0.135000X0.185000X0*%
%ADD96R,0.800000X0.500000*%
%ADD97R,2.200000X3.000000*%
%ADD98R,2.200000X2.000000*%
%ADD99R,2.200000X0.600000*%
%ADD100RoundRect,0.050000X0.285000X0.100000X-0.285000X0.100000X-0.285000X-0.100000X0.285000X-0.100000X0*%
%ADD101RoundRect,0.150000X0.625000X-0.150000X0.625000X0.150000X-0.625000X0.150000X-0.625000X-0.150000X0*%
%ADD102RoundRect,0.250000X0.650000X-0.350000X0.650000X0.350000X-0.650000X0.350000X-0.650000X-0.350000X0*%
%ADD103RoundRect,0.087500X-0.225000X-0.087500X0.225000X-0.087500X0.225000X0.087500X-0.225000X0.087500X0*%
%ADD104RoundRect,0.087500X-0.087500X-0.225000X0.087500X-0.225000X0.087500X0.225000X-0.087500X0.225000X0*%
%ADD105RoundRect,0.185000X-1.315000X-0.185000X1.315000X-0.185000X1.315000X0.185000X-1.315000X0.185000X0*%
%ADD106FreePoly0,270.000000*%
%ADD107FreePoly1,270.000000*%
%ADD108C,0.700000*%
%ADD109R,0.900000X1.400000*%
%ADD110R,1.400000X1.200000*%
%ADD111R,1.500000X0.900000*%
%ADD112R,0.900000X1.500000*%
%ADD113R,0.900000X0.900000*%
%ADD114RoundRect,0.135000X-0.185000X0.135000X-0.185000X-0.135000X0.185000X-0.135000X0.185000X0.135000X0*%
%ADD115RoundRect,0.335000X1.340000X1.365000X-1.340000X1.365000X-1.340000X-1.365000X1.340000X-1.365000X0*%
%ADD116RoundRect,0.250000X0.600000X0.750000X-0.600000X0.750000X-0.600000X-0.750000X0.600000X-0.750000X0*%
%ADD117O,1.700000X2.000000*%
%ADD118RoundRect,0.250000X-0.350000X-0.450000X0.350000X-0.450000X0.350000X0.450000X-0.350000X0.450000X0*%
%ADD119RoundRect,0.075000X0.700000X0.075000X-0.700000X0.075000X-0.700000X-0.075000X0.700000X-0.075000X0*%
%ADD120RoundRect,0.075000X0.075000X0.700000X-0.075000X0.700000X-0.075000X-0.700000X0.075000X-0.700000X0*%
%ADD121RoundRect,0.150000X-0.150000X0.825000X-0.150000X-0.825000X0.150000X-0.825000X0.150000X0.825000X0*%
%ADD122C,3.200000*%
%ADD123RoundRect,0.428571X-1.571429X-1.071429X1.571429X-1.071429X1.571429X1.071429X-1.571429X1.071429X0*%
%ADD124C,3.500000*%
%ADD125RoundRect,0.250000X0.850000X0.350000X-0.850000X0.350000X-0.850000X-0.350000X0.850000X-0.350000X0*%
%ADD126RoundRect,0.249997X2.950003X2.650003X-2.950003X2.650003X-2.950003X-2.650003X2.950003X-2.650003X0*%
%ADD127RoundRect,0.135000X0.185000X-0.135000X0.185000X0.135000X-0.185000X0.135000X-0.185000X-0.135000X0*%
%ADD128RoundRect,0.375000X-0.375000X0.625000X-0.375000X-0.625000X0.375000X-0.625000X0.375000X0.625000X0*%
%ADD129RoundRect,0.500000X-1.400000X0.500000X-1.400000X-0.500000X1.400000X-0.500000X1.400000X0.500000X0*%
%ADD130RoundRect,0.200000X0.750000X0.200000X-0.750000X0.200000X-0.750000X-0.200000X0.750000X-0.200000X0*%
%ADD131RoundRect,0.100000X0.162635X-0.021213X-0.021213X0.162635X-0.162635X0.021213X0.021213X-0.162635X0*%
%ADD132R,0.800000X1.800000*%
%ADD133RoundRect,0.100000X-0.637500X-0.100000X0.637500X-0.100000X0.637500X0.100000X-0.637500X0.100000X0*%
%ADD134R,2.850000X5.400000*%
%ADD135FreePoly0,180.000000*%
%ADD136FreePoly1,180.000000*%
%ADD137R,1.000000X3.000000*%
%ADD138R,1.800000X1.100000*%
%ADD139RoundRect,0.275000X-0.625000X0.275000X-0.625000X-0.275000X0.625000X-0.275000X0.625000X0.275000X0*%
%ADD140RoundRect,0.250000X0.625000X-0.400000X0.625000X0.400000X-0.625000X0.400000X-0.625000X-0.400000X0*%
%ADD141R,3.000000X2.200000*%
%ADD142R,2.000000X2.200000*%
%ADD143FreePoly0,0.000000*%
%ADD144FreePoly1,0.000000*%
%ADD145RoundRect,0.250000X-0.450000X0.325000X-0.450000X-0.325000X0.450000X-0.325000X0.450000X0.325000X0*%
%ADD146R,1.000000X1.500000*%
%ADD147RoundRect,0.250000X-1.425000X0.362500X-1.425000X-0.362500X1.425000X-0.362500X1.425000X0.362500X0*%
%ADD148RoundRect,0.250000X0.550000X-1.500000X0.550000X1.500000X-0.550000X1.500000X-0.550000X-1.500000X0*%
%ADD149RoundRect,0.250000X0.312500X0.625000X-0.312500X0.625000X-0.312500X-0.625000X0.312500X-0.625000X0*%
%ADD150RoundRect,0.250000X-0.625000X0.400000X-0.625000X-0.400000X0.625000X-0.400000X0.625000X0.400000X0*%
%ADD151RoundRect,0.218750X0.218750X0.256250X-0.218750X0.256250X-0.218750X-0.256250X0.218750X-0.256250X0*%
G04 APERTURE END LIST*
D10*
%TO.C,J12*%
X111600000Y-148380000D03*
D11*
X111600000Y-145840000D03*
X111600000Y-143300000D03*
X111600000Y-140760000D03*
X111600000Y-138220000D03*
X111600000Y-135680000D03*
X111600000Y-133140000D03*
X111600000Y-130600000D03*
%TD*%
D10*
%TO.C,J10*%
X114800000Y-110600000D03*
D11*
X114800000Y-113140000D03*
X114800000Y-115680000D03*
X114800000Y-118220000D03*
X114800000Y-120760000D03*
X114800000Y-123300000D03*
%TD*%
D12*
%TO.C,J9*%
X118457500Y-57700000D03*
D13*
X118457500Y-63700000D03*
D14*
X113757500Y-60700000D03*
%TD*%
D15*
%TO.C,J27*%
X108005000Y-110950000D03*
X108005000Y-114450000D03*
X108005000Y-117950000D03*
X108005000Y-121450000D03*
%TD*%
D16*
%TO.C,J34*%
X120900000Y-95600000D03*
D11*
X120900000Y-93060000D03*
X123440000Y-95600000D03*
X123440000Y-93060000D03*
X125980000Y-95600000D03*
X125980000Y-93060000D03*
%TD*%
D17*
%TO.C,R32*%
X174800000Y-86400000D03*
X171400000Y-86400000D03*
%TD*%
D18*
%TO.C,U13*%
X181850000Y-124000000D03*
D19*
X183120000Y-121930000D03*
X184390000Y-124000000D03*
%TD*%
D15*
%TO.C,J1*%
X108005000Y-95550000D03*
X108005000Y-99050000D03*
X108005000Y-102550000D03*
X108005000Y-106050000D03*
%TD*%
D20*
%TO.C,J18*%
X191995000Y-89150000D03*
X191995000Y-85650000D03*
X191995000Y-82150000D03*
X191995000Y-78650000D03*
%TD*%
%TO.C,J15*%
X192000000Y-147550000D03*
X192000000Y-144050000D03*
X192000000Y-140550000D03*
X192000000Y-137050000D03*
%TD*%
D15*
%TO.C,J2*%
X108005000Y-137050000D03*
X108005000Y-140550000D03*
X108005000Y-144050000D03*
X108005000Y-147550000D03*
%TD*%
D21*
%TO.C,M1*%
X162540000Y-51500000D03*
D22*
X162540000Y-54040000D03*
X162540000Y-56580000D03*
X162540000Y-59120000D03*
X162540000Y-61660000D03*
X162540000Y-64200000D03*
X182860000Y-64200000D03*
X182860000Y-61660000D03*
X182860000Y-59120000D03*
X182860000Y-56580000D03*
X182860000Y-54040000D03*
X182860000Y-51500000D03*
%TD*%
D10*
%TO.C,J19*%
X111200000Y-123300000D03*
D11*
X111200000Y-120760000D03*
X111200000Y-118220000D03*
X111200000Y-115680000D03*
X111200000Y-113140000D03*
X111200000Y-110600000D03*
%TD*%
D10*
%TO.C,J20*%
X115200000Y-130680000D03*
D11*
X115200000Y-133220000D03*
X115200000Y-135760000D03*
X115200000Y-138300000D03*
X115200000Y-140840000D03*
X115200000Y-143380000D03*
X115200000Y-145920000D03*
X115200000Y-148460000D03*
%TD*%
D10*
%TO.C,J4*%
X115000000Y-104700000D03*
D11*
X115000000Y-102160000D03*
X115000000Y-99620000D03*
X115000000Y-97080000D03*
%TD*%
D23*
%TO.C,X3*%
X164880000Y-68300000D03*
X167420000Y-68300000D03*
X169960000Y-68300000D03*
X172500000Y-68300000D03*
X175040000Y-68300000D03*
X177580000Y-68300000D03*
X180120000Y-68300000D03*
%TD*%
D15*
%TO.C,J22*%
X108005000Y-52450000D03*
X108005000Y-55950000D03*
X108005000Y-59450000D03*
X108005000Y-62950000D03*
%TD*%
D10*
%TO.C,U15*%
X168875000Y-62489500D03*
D24*
X168875000Y-59949500D03*
X171415000Y-62489500D03*
X171415000Y-59949500D03*
X173955000Y-62489500D03*
X173955000Y-59949500D03*
X176495000Y-62489500D03*
X176495000Y-59949500D03*
%TD*%
D25*
%TO.C,U6*%
X165792500Y-51492500D03*
D26*
X165792500Y-53492500D03*
X165792500Y-55492500D03*
X165792500Y-57492500D03*
X165792500Y-59492500D03*
X165792500Y-61492500D03*
X165792500Y-63492500D03*
X165792500Y-65492500D03*
X179392500Y-65492500D03*
X179392500Y-63492500D03*
X179392500Y-61492500D03*
X179392500Y-59492500D03*
X179392500Y-57492500D03*
X179392500Y-55492500D03*
X179392500Y-53492500D03*
X179392500Y-51492500D03*
%TD*%
D27*
%TO.C,MK1*%
X186650000Y-115000000D03*
X184750000Y-115000000D03*
%TD*%
%TO.C,SW6*%
X175100000Y-114261000D03*
X170600000Y-114261000D03*
%TD*%
D20*
%TO.C,J24*%
X191995000Y-73750000D03*
X191995000Y-70250000D03*
X191995000Y-66750000D03*
X191995000Y-63250000D03*
%TD*%
D10*
%TO.C,J23*%
X123700000Y-105900000D03*
D11*
X126240000Y-105900000D03*
X128780000Y-105900000D03*
X131320000Y-105900000D03*
X133860000Y-105900000D03*
X136400000Y-105900000D03*
%TD*%
D28*
%TO.C,X1*%
X125000000Y-142755000D03*
X175000000Y-142755000D03*
%TD*%
D29*
%TO.C,J8*%
X129050000Y-99900000D03*
D11*
X131590000Y-99900000D03*
X134130000Y-99900000D03*
X136670000Y-99900000D03*
%TD*%
D15*
%TO.C,J28*%
X108005000Y-80150000D03*
X108005000Y-83650000D03*
X108005000Y-87150000D03*
X108005000Y-90650000D03*
%TD*%
D20*
%TO.C,J21*%
X192000000Y-132150000D03*
X192000000Y-128650000D03*
X192000000Y-125150000D03*
X192000000Y-121650000D03*
%TD*%
D30*
%TO.C,U22*%
X175165869Y-79767990D03*
D31*
X176023080Y-77698500D03*
X175167990Y-75634131D03*
X171034131Y-75632010D03*
X170176920Y-77701500D03*
X171032010Y-79765869D03*
%TD*%
D32*
%TO.C,R63*%
X124576274Y-85923726D03*
X124123726Y-86376274D03*
%TD*%
D33*
%TO.C,Q4*%
X177362500Y-84800000D03*
X177362500Y-82900000D03*
X179237500Y-83850000D03*
%TD*%
D34*
%TO.C,C32*%
X127820000Y-92000000D03*
X127180000Y-92000000D03*
%TD*%
D35*
%TO.C,C43*%
X134980000Y-68600000D03*
X134020000Y-68600000D03*
%TD*%
D36*
%TO.C,C19*%
X180000000Y-109850000D03*
X185600000Y-109850000D03*
%TD*%
D37*
%TO.C,R7*%
X118125000Y-119400000D03*
X119775000Y-119400000D03*
%TD*%
D38*
%TO.C,Q6*%
X144250000Y-122237500D03*
X142350000Y-122237500D03*
X143300000Y-120362500D03*
%TD*%
D39*
%TO.C,R33*%
X127750000Y-53800000D03*
X172250000Y-53800000D03*
D40*
X110300000Y-63800000D03*
X189700000Y-63800000D03*
%TD*%
D41*
%TO.C,R49*%
X104850000Y-100900000D03*
X104850000Y-102900000D03*
%TD*%
D42*
%TO.C,R45*%
X155300000Y-82980000D03*
X155300000Y-83620000D03*
%TD*%
D43*
%TO.C,SW3*%
X196930000Y-142700000D03*
X196930000Y-145700000D03*
D44*
X194920000Y-141950000D03*
X194920000Y-144950000D03*
X194920000Y-146450000D03*
D45*
X198030000Y-140050000D03*
X195820000Y-140050000D03*
X198030000Y-148350000D03*
X195820000Y-148350000D03*
%TD*%
D46*
%TO.C,C84*%
X114575000Y-66850000D03*
X113025000Y-66850000D03*
%TD*%
D47*
%TO.C,C14*%
X171610589Y-116710589D03*
X172289411Y-117389411D03*
%TD*%
D34*
%TO.C,R60*%
X122870000Y-62000000D03*
X122230000Y-62000000D03*
%TD*%
D48*
%TO.C,C10*%
X110900000Y-104720000D03*
X110900000Y-105680000D03*
%TD*%
D49*
%TO.C,R69*%
X124360000Y-88900000D03*
X123340000Y-88900000D03*
%TD*%
D50*
%TO.C,R68*%
X123130000Y-89750000D03*
X123770000Y-89750000D03*
%TD*%
D51*
%TO.C,TP6*%
X183655000Y-119685000D03*
%TD*%
%TO.C,J17*%
X141500000Y-138725000D03*
X133500000Y-138725000D03*
D52*
X134300000Y-127725000D03*
X135400000Y-127725000D03*
X136500000Y-127725000D03*
X137600000Y-127725000D03*
X138700000Y-127725000D03*
X139800000Y-127725000D03*
X140900000Y-127725000D03*
X142000000Y-127725000D03*
X143100000Y-127725000D03*
D53*
X144300000Y-138325000D03*
D54*
X144300000Y-128725000D03*
D55*
X129700000Y-128725000D03*
D53*
X128800000Y-138325000D03*
%TD*%
D56*
%TO.C,C17*%
X172550000Y-107200000D03*
X175250000Y-107200000D03*
%TD*%
D57*
%TO.C,C12*%
X163539411Y-117960589D03*
X162860589Y-118639411D03*
%TD*%
D50*
%TO.C,R59*%
X121430000Y-60250000D03*
X122070000Y-60250000D03*
%TD*%
D58*
%TO.C,L4*%
X115675000Y-71100000D03*
X122725000Y-71100000D03*
%TD*%
D43*
%TO.C,SW2*%
X196900000Y-131700000D03*
X196900000Y-134700000D03*
D44*
X194890000Y-130950000D03*
X194890000Y-133950000D03*
X194890000Y-135450000D03*
D45*
X198000000Y-129050000D03*
X195790000Y-129050000D03*
X198000000Y-137350000D03*
X195790000Y-137350000D03*
%TD*%
D59*
%TO.C,SW5*%
X126650000Y-124250000D03*
X135150000Y-124250000D03*
X126650000Y-119750000D03*
X135150000Y-119750000D03*
%TD*%
D60*
%TO.C,D21*%
X157650000Y-89150000D03*
X156150000Y-89150000D03*
X156150000Y-94550000D03*
X157650000Y-94550000D03*
%TD*%
D61*
%TO.C,C28*%
X131950000Y-110125000D03*
X131950000Y-111675000D03*
%TD*%
D62*
%TO.C,C52*%
X110500000Y-90725000D03*
X110500000Y-89175000D03*
%TD*%
D42*
%TO.C,C50*%
X139700000Y-90080000D03*
X139700000Y-90720000D03*
%TD*%
D63*
%TO.C,C36*%
X137195000Y-79725000D03*
X138155000Y-79725000D03*
%TD*%
D64*
%TO.C,C1*%
X139650000Y-113150000D03*
X139650000Y-111250000D03*
%TD*%
D34*
%TO.C,C54*%
X118420000Y-133350000D03*
X117780000Y-133350000D03*
%TD*%
D65*
%TO.C,C25*%
X140350000Y-76570000D03*
X140350000Y-75930000D03*
%TD*%
D37*
%TO.C,R3*%
X138025000Y-114650000D03*
X139675000Y-114650000D03*
%TD*%
D50*
%TO.C,R18*%
X109080000Y-129850000D03*
X109720000Y-129850000D03*
%TD*%
D66*
%TO.C,LS2*%
X154000000Y-97800000D03*
X150000000Y-97800000D03*
X146000000Y-97800000D03*
X156000000Y-99050000D03*
X152000000Y-99050000D03*
X148000000Y-99050000D03*
X144000000Y-99050000D03*
X158000000Y-100300000D03*
X154000000Y-100300000D03*
X150000000Y-100300000D03*
X146000000Y-100300000D03*
X142000000Y-100300000D03*
X156000000Y-101550000D03*
X152000000Y-101550000D03*
X148000000Y-101550000D03*
X144000000Y-101550000D03*
X158000000Y-102800000D03*
X154000000Y-102800000D03*
X150000000Y-102800000D03*
X146000000Y-102800000D03*
X142000000Y-102800000D03*
X156000000Y-104050000D03*
X152000000Y-104050000D03*
X148000000Y-104050000D03*
X144000000Y-104050000D03*
X158000000Y-105300000D03*
X154000000Y-105300000D03*
X150000000Y-105300000D03*
X146000000Y-105300000D03*
X142000000Y-105300000D03*
X156000000Y-106550000D03*
X152000000Y-106550000D03*
X148000000Y-106550000D03*
X144000000Y-106550000D03*
X154000000Y-107800000D03*
X150000000Y-107800000D03*
X146000000Y-107800000D03*
%TD*%
D67*
%TO.C,D20*%
X159450000Y-88900000D03*
X161550000Y-88900000D03*
%TD*%
D65*
%TO.C,C45*%
X158500000Y-89520000D03*
X158500000Y-88880000D03*
%TD*%
D50*
%TO.C,R54*%
X185130000Y-118300000D03*
X185770000Y-118300000D03*
%TD*%
D68*
%TO.C,D19*%
X122200000Y-76650000D03*
X118400000Y-76650000D03*
%TD*%
D69*
%TO.C,SW7*%
X175350000Y-103250000D03*
X175350000Y-94750000D03*
X170850000Y-103250000D03*
X170850000Y-94750000D03*
%TD*%
D42*
%TO.C,R55*%
X192000000Y-109880000D03*
X192000000Y-110520000D03*
%TD*%
D27*
%TO.C,J14*%
X190975000Y-104000000D03*
X196975000Y-104000000D03*
D70*
X194575000Y-100500000D03*
X197275000Y-107500000D03*
X198275000Y-100500000D03*
X190275000Y-107500000D03*
X188575000Y-100500000D03*
%TD*%
D71*
%TO.C,U2*%
X134425000Y-113195000D03*
X134425000Y-114465000D03*
X134425000Y-115735000D03*
X134425000Y-117005000D03*
X129475000Y-117005000D03*
X129475000Y-115735000D03*
X129475000Y-114465000D03*
X129475000Y-113195000D03*
D72*
X131950000Y-115100000D03*
%TD*%
D73*
%TO.C,C29*%
X118175000Y-120900000D03*
X119725000Y-120900000D03*
%TD*%
D74*
%TO.C,U8*%
X119937500Y-123450000D03*
X119937500Y-124400000D03*
X119937500Y-125350000D03*
X117662500Y-125350000D03*
X117662500Y-124400000D03*
X117662500Y-123450000D03*
%TD*%
D75*
%TO.C,D13*%
X179250000Y-79450000D03*
X179250000Y-81550000D03*
%TD*%
D76*
%TO.C,R73*%
X112810624Y-125439376D03*
X112089376Y-126160624D03*
%TD*%
D77*
%TO.C,LS1*%
X151975000Y-111325000D03*
X151975000Y-114375000D03*
%TD*%
D50*
%TO.C,C35*%
X139705000Y-82475000D03*
X140345000Y-82475000D03*
%TD*%
D78*
%TO.C,J26*%
X155340000Y-65362500D03*
X155340000Y-59912500D03*
X152780000Y-65362500D03*
X152780000Y-59912500D03*
X150180000Y-65362500D03*
X150180000Y-59912500D03*
X147640000Y-65362500D03*
X147640000Y-59912500D03*
X145100000Y-65362500D03*
X145100000Y-59912500D03*
X142560000Y-65362500D03*
X142560000Y-59912500D03*
X140020000Y-65362500D03*
X140020000Y-59912500D03*
X137420000Y-65362500D03*
X137420000Y-59912500D03*
X134860000Y-65362500D03*
X134860000Y-59912500D03*
%TD*%
D34*
%TO.C,C47*%
X150420000Y-88750000D03*
X149780000Y-88750000D03*
%TD*%
D79*
%TO.C,C80*%
X117700001Y-66500000D03*
X119599999Y-66500000D03*
%TD*%
D42*
%TO.C,C60*%
X170900000Y-73080000D03*
X170900000Y-73720000D03*
%TD*%
D80*
%TO.C,J13*%
X106350000Y-74740000D03*
X106350000Y-68960000D03*
D81*
X107600000Y-75050000D03*
X107550000Y-74250000D03*
D82*
X107550000Y-73100000D03*
X107550000Y-72100000D03*
X107550000Y-71600000D03*
X107550000Y-70600000D03*
D81*
X107550000Y-69450000D03*
X107600000Y-68650000D03*
X107600000Y-68650000D03*
X107550000Y-69450000D03*
D82*
X107550000Y-70100000D03*
X107550000Y-71100000D03*
X107550000Y-72600000D03*
X107550000Y-73600000D03*
D81*
X107550000Y-74250000D03*
X107600000Y-75050000D03*
D83*
X102650000Y-76670000D03*
D84*
X106830000Y-76670000D03*
D83*
X102650000Y-67030000D03*
D84*
X106830000Y-67030000D03*
%TD*%
D37*
%TO.C,R28*%
X118125000Y-117850000D03*
X119775000Y-117850000D03*
%TD*%
D34*
%TO.C,C26*%
X138270000Y-126500000D03*
X137630000Y-126500000D03*
%TD*%
D61*
%TO.C,C31*%
X130450000Y-110125000D03*
X130450000Y-111675000D03*
%TD*%
D85*
%TO.C,U10*%
X170869848Y-118194975D03*
X170516295Y-118548528D03*
X170162742Y-118902082D03*
X169809188Y-119255635D03*
X169455635Y-119609188D03*
X169102082Y-119962742D03*
X168748528Y-120316295D03*
X168394975Y-120669848D03*
D86*
X167405025Y-120669848D03*
X167051472Y-120316295D03*
X166697918Y-119962742D03*
X166344365Y-119609188D03*
X165990812Y-119255635D03*
X165637258Y-118902082D03*
X165283705Y-118548528D03*
X164930152Y-118194975D03*
D85*
X164930152Y-117205025D03*
X165283705Y-116851472D03*
X165637258Y-116497918D03*
X165990812Y-116144365D03*
X166344365Y-115790812D03*
X166697918Y-115437258D03*
X167051472Y-115083705D03*
X167405025Y-114730152D03*
D86*
X168394975Y-114730152D03*
X168748528Y-115083705D03*
X169102082Y-115437258D03*
X169455635Y-115790812D03*
X169809188Y-116144365D03*
X170162742Y-116497918D03*
X170516295Y-116851472D03*
X170869848Y-117205025D03*
D87*
X167900000Y-117700000D03*
%TD*%
D34*
%TO.C,C53*%
X175420000Y-137000000D03*
X174780000Y-137000000D03*
%TD*%
D88*
%TO.C,FB1*%
X172593153Y-116006847D03*
X173706847Y-114893153D03*
%TD*%
D42*
%TO.C,C27*%
X145050000Y-114205000D03*
X145050000Y-114845000D03*
%TD*%
D89*
%TO.C,C20*%
X181000000Y-118300000D03*
X178300000Y-118300000D03*
%TD*%
D35*
%TO.C,C59*%
X169080000Y-58400000D03*
X168120000Y-58400000D03*
%TD*%
D89*
%TO.C,C23*%
X181000000Y-116150000D03*
X178300000Y-116150000D03*
%TD*%
D42*
%TO.C,R58*%
X145700000Y-130530000D03*
X145700000Y-131170000D03*
%TD*%
D46*
%TO.C,C56*%
X118575000Y-144200000D03*
X117025000Y-144200000D03*
%TD*%
D34*
%TO.C,C48*%
X145820000Y-88750000D03*
X145180000Y-88750000D03*
%TD*%
D63*
%TO.C,C22*%
X177220000Y-113400000D03*
X178180000Y-113400000D03*
%TD*%
D49*
%TO.C,R35*%
X155310000Y-84525000D03*
X154290000Y-84525000D03*
%TD*%
D90*
%TO.C,D3*%
X187750000Y-145600000D03*
X189650000Y-145600000D03*
X188700000Y-148600000D03*
%TD*%
D56*
%TO.C,C16*%
X171050000Y-109800000D03*
X173750000Y-109800000D03*
%TD*%
D34*
%TO.C,R39*%
X170820000Y-90825000D03*
X170180000Y-90825000D03*
%TD*%
D46*
%TO.C,C83*%
X114575000Y-68350000D03*
X113025000Y-68350000D03*
%TD*%
D91*
%TO.C,C15*%
X168650000Y-113730000D03*
X168650000Y-112770000D03*
%TD*%
D65*
%TO.C,R75*%
X145450000Y-122220000D03*
X145450000Y-121580000D03*
%TD*%
D92*
%TO.C,C24*%
X166400000Y-106750000D03*
X166400000Y-109450000D03*
%TD*%
D93*
%TO.C,R15*%
X165950000Y-78237500D03*
X165950000Y-81162500D03*
%TD*%
D94*
%TO.C,U27*%
X124600000Y-66450000D03*
X123650000Y-66450000D03*
X122700000Y-66450000D03*
X122700000Y-63750000D03*
X123650000Y-63750000D03*
X124600000Y-63750000D03*
%TD*%
D49*
%TO.C,R74*%
X144310000Y-123700000D03*
X143290000Y-123700000D03*
%TD*%
D95*
%TO.C,R10*%
X108990000Y-103800000D03*
X110010000Y-103800000D03*
%TD*%
D61*
%TO.C,C30*%
X128950000Y-110125000D03*
X128950000Y-111675000D03*
%TD*%
D96*
%TO.C,U12*%
X118700000Y-149000000D03*
X118700000Y-148000000D03*
X118700000Y-147000000D03*
X120700000Y-147000000D03*
X120700000Y-148000000D03*
X120700000Y-149000000D03*
%TD*%
D42*
%TO.C,R65*%
X140400000Y-72280000D03*
X140400000Y-72920000D03*
%TD*%
D97*
%TO.C,D8*%
X147000000Y-71300000D03*
D98*
X147000000Y-68250000D03*
%TD*%
D42*
%TO.C,R62*%
X152350000Y-116780000D03*
X152350000Y-117420000D03*
%TD*%
D99*
%TO.C,U1*%
X180600000Y-137830000D03*
X180600000Y-136560000D03*
X180600000Y-135290000D03*
X180600000Y-134020000D03*
X186600000Y-134020000D03*
X186600000Y-135290000D03*
X186600000Y-136560000D03*
X186600000Y-137830000D03*
%TD*%
D60*
%TO.C,D15*%
X153044201Y-89150000D03*
X151544201Y-89150000D03*
X151544201Y-94550000D03*
X153044201Y-94550000D03*
%TD*%
D100*
%TO.C,U18*%
X110840000Y-124900000D03*
X110840000Y-125400000D03*
X110840000Y-125900000D03*
X110840000Y-126400000D03*
X109360000Y-126400000D03*
X109360000Y-125900000D03*
X109360000Y-125400000D03*
X109360000Y-124900000D03*
%TD*%
D50*
%TO.C,C49*%
X130880000Y-93250000D03*
X131520000Y-93250000D03*
%TD*%
D80*
%TO.C,J29*%
X193632500Y-53260000D03*
X193632500Y-59040000D03*
D81*
X192382500Y-52950000D03*
X192432500Y-53750000D03*
D82*
X192432500Y-54900000D03*
X192432500Y-55900000D03*
X192432500Y-56400000D03*
X192432500Y-57400000D03*
D81*
X192432500Y-58550000D03*
X192382500Y-59350000D03*
X192382500Y-59350000D03*
X192432500Y-58550000D03*
D82*
X192432500Y-57900000D03*
X192432500Y-56900000D03*
X192432500Y-55400000D03*
X192432500Y-54400000D03*
D81*
X192432500Y-53750000D03*
X192382500Y-52950000D03*
D83*
X197332500Y-51330000D03*
D84*
X193152500Y-51330000D03*
D83*
X197332500Y-60970000D03*
D84*
X193152500Y-60970000D03*
%TD*%
D69*
%TO.C,SW8*%
X175350000Y-133250000D03*
X175350000Y-124750000D03*
X170850000Y-133250000D03*
X170850000Y-124750000D03*
%TD*%
D27*
%TO.C,J16*%
X190975000Y-115000000D03*
X196975000Y-115000000D03*
D70*
X194575000Y-111500000D03*
X197275000Y-118500000D03*
X198275000Y-111500000D03*
X190275000Y-118500000D03*
X188575000Y-111500000D03*
%TD*%
D101*
%TO.C,J11*%
X105300000Y-143700000D03*
X105300000Y-142700000D03*
X105300000Y-141700000D03*
X105300000Y-140700000D03*
D102*
X101425000Y-145000000D03*
X101425000Y-139400000D03*
%TD*%
D103*
%TO.C,U9*%
X117237500Y-136100000D03*
X117237500Y-135600000D03*
X117237500Y-135100000D03*
X117237500Y-134600000D03*
D104*
X117900000Y-134437500D03*
X118400000Y-134437500D03*
X118900000Y-134437500D03*
D103*
X119562500Y-134600000D03*
X119562500Y-135100000D03*
X119562500Y-135600000D03*
X119562500Y-136100000D03*
D104*
X118900000Y-136262500D03*
X118400000Y-136262500D03*
X117900000Y-136262500D03*
%TD*%
D97*
%TO.C,D9*%
X147000000Y-78300000D03*
D98*
X147000000Y-75250000D03*
%TD*%
D105*
%TO.C,J6*%
X167800000Y-138870000D03*
X172300000Y-138870000D03*
X167800000Y-137600000D03*
X172300000Y-137600000D03*
X167800000Y-136330000D03*
X172300000Y-136330000D03*
%TD*%
D106*
%TO.C,JP3*%
X167250000Y-127400000D03*
D107*
X167250000Y-128700000D03*
%TD*%
D32*
%TO.C,C65*%
X165376274Y-119723726D03*
X164923726Y-120176274D03*
%TD*%
D108*
%TO.C,SW1*%
X181400000Y-147050000D03*
X183100000Y-147050000D03*
D109*
X180550000Y-145350000D03*
X183950000Y-145350000D03*
D110*
X179550000Y-147650000D03*
X184950000Y-147650000D03*
%TD*%
D111*
%TO.C,U4*%
X147450000Y-141120000D03*
X147450000Y-139850000D03*
X147450000Y-138580000D03*
X147450000Y-137310000D03*
X147450000Y-136040000D03*
X147450000Y-134770000D03*
X147450000Y-133500000D03*
X147450000Y-132230000D03*
X147450000Y-130960000D03*
X147450000Y-129690000D03*
X147450000Y-128420000D03*
X147450000Y-127150000D03*
X147450000Y-125880000D03*
X147450000Y-124610000D03*
D112*
X149215000Y-123360000D03*
X150485000Y-123360000D03*
X151755000Y-123360000D03*
X153025000Y-123360000D03*
X154295000Y-123360000D03*
X155565000Y-123360000D03*
X156835000Y-123360000D03*
X158105000Y-123360000D03*
X159375000Y-123360000D03*
X160645000Y-123360000D03*
X161915000Y-123360000D03*
X163185000Y-123360000D03*
D111*
X164950000Y-124610000D03*
X164950000Y-125880000D03*
X164950000Y-127150000D03*
X164950000Y-128420000D03*
X164950000Y-129690000D03*
X164950000Y-130960000D03*
X164950000Y-132230000D03*
X164950000Y-133500000D03*
X164950000Y-134770000D03*
X164950000Y-136040000D03*
X164950000Y-137310000D03*
X164950000Y-138580000D03*
X164950000Y-139850000D03*
X164950000Y-141120000D03*
D113*
X153300000Y-132000000D03*
X153300000Y-132000000D03*
X153300000Y-133400000D03*
X153300000Y-134800000D03*
X154700000Y-132000000D03*
X154700000Y-133400000D03*
X154700000Y-134800000D03*
X154700000Y-134800000D03*
X156100000Y-132000000D03*
X156100000Y-133400000D03*
X156100000Y-134800000D03*
%TD*%
D114*
%TO.C,R43*%
X109900000Y-141690000D03*
X109900000Y-142710000D03*
%TD*%
D46*
%TO.C,C64*%
X104275000Y-114550000D03*
X102725000Y-114550000D03*
%TD*%
D114*
%TO.C,R30*%
X187800000Y-71990000D03*
X187800000Y-73010000D03*
%TD*%
D36*
%TO.C,C18*%
X179800000Y-102700000D03*
X185400000Y-102700000D03*
%TD*%
D115*
%TO.C,L1*%
X126525000Y-113450000D03*
X119475000Y-113450000D03*
%TD*%
D116*
%TO.C,J7*%
X164700000Y-84450000D03*
D117*
X162200000Y-84450000D03*
%TD*%
D34*
%TO.C,R22*%
X177820000Y-57500000D03*
X177180000Y-57500000D03*
%TD*%
D118*
%TO.C,R52*%
X102900000Y-104700000D03*
X104900000Y-104700000D03*
%TD*%
D50*
%TO.C,C34*%
X137155000Y-80550000D03*
X137795000Y-80550000D03*
%TD*%
D42*
%TO.C,R37*%
X167200000Y-101080000D03*
X167200000Y-101720000D03*
%TD*%
D119*
%TO.C,U5*%
X138275000Y-82425000D03*
X138275000Y-82925000D03*
X138275000Y-83425000D03*
X138275000Y-83925000D03*
X138275000Y-84425000D03*
X138275000Y-84925000D03*
X138275000Y-85425000D03*
X138275000Y-85925000D03*
X138275000Y-86425000D03*
X138275000Y-86925000D03*
X138275000Y-87425000D03*
X138275000Y-87925000D03*
X138275000Y-88425000D03*
X138275000Y-88925000D03*
X138275000Y-89425000D03*
X138275000Y-89925000D03*
D120*
X136350000Y-91850000D03*
X135850000Y-91850000D03*
X135350000Y-91850000D03*
X134850000Y-91850000D03*
X134350000Y-91850000D03*
X133850000Y-91850000D03*
X133350000Y-91850000D03*
X132850000Y-91850000D03*
X132350000Y-91850000D03*
X131850000Y-91850000D03*
X131350000Y-91850000D03*
X130850000Y-91850000D03*
X130350000Y-91850000D03*
X129850000Y-91850000D03*
X129350000Y-91850000D03*
X128850000Y-91850000D03*
D119*
X126925000Y-89925000D03*
X126925000Y-89425000D03*
X126925000Y-88925000D03*
X126925000Y-88425000D03*
X126925000Y-87925000D03*
X126925000Y-87425000D03*
X126925000Y-86925000D03*
X126925000Y-86425000D03*
X126925000Y-85925000D03*
X126925000Y-85425000D03*
X126925000Y-84925000D03*
X126925000Y-84425000D03*
X126925000Y-83925000D03*
X126925000Y-83425000D03*
X126925000Y-82925000D03*
X126925000Y-82425000D03*
D120*
X128850000Y-80500000D03*
X129350000Y-80500000D03*
X129850000Y-80500000D03*
X130350000Y-80500000D03*
X130850000Y-80500000D03*
X131350000Y-80500000D03*
X131850000Y-80500000D03*
X132350000Y-80500000D03*
X132850000Y-80500000D03*
X133350000Y-80500000D03*
X133850000Y-80500000D03*
X134350000Y-80500000D03*
X134850000Y-80500000D03*
X135350000Y-80500000D03*
X135850000Y-80500000D03*
X136350000Y-80500000D03*
%TD*%
D27*
%TO.C,J3*%
X190975000Y-93000000D03*
X196975000Y-93000000D03*
D70*
X194575000Y-89500000D03*
X197275000Y-96500000D03*
X198275000Y-89500000D03*
X190275000Y-96500000D03*
X188575000Y-89500000D03*
%TD*%
D95*
%TO.C,R40*%
X168390000Y-132000000D03*
X169410000Y-132000000D03*
%TD*%
D121*
%TO.C,U16*%
X102595000Y-107625000D03*
X103865000Y-107625000D03*
X105135000Y-107625000D03*
X106405000Y-107625000D03*
X106405000Y-112575000D03*
X105135000Y-112575000D03*
X103865000Y-112575000D03*
X102595000Y-112575000D03*
%TD*%
D63*
%TO.C,C37*%
X130670000Y-94100000D03*
X131630000Y-94100000D03*
%TD*%
D122*
%TO.C,BT1*%
X124390000Y-127600000D03*
X180000000Y-127600000D03*
D123*
X115745000Y-127600000D03*
D124*
X187745000Y-127600000D03*
%TD*%
D114*
%TO.C,R8*%
X190650000Y-134240000D03*
X190650000Y-135260000D03*
%TD*%
D125*
%TO.C,Q3*%
X168840000Y-71570000D03*
D126*
X162540000Y-73850000D03*
D125*
X168840000Y-76130000D03*
%TD*%
D63*
%TO.C,C61*%
X122020000Y-82700000D03*
X122980000Y-82700000D03*
%TD*%
D127*
%TO.C,R12*%
X157600000Y-60000000D03*
X157600000Y-58980000D03*
%TD*%
D92*
%TO.C,C62*%
X168800000Y-105950000D03*
X168800000Y-108650000D03*
%TD*%
D42*
%TO.C,R53*%
X177050000Y-74780000D03*
X177050000Y-75420000D03*
%TD*%
D50*
%TO.C,R61*%
X132580000Y-126950000D03*
X133220000Y-126950000D03*
%TD*%
D34*
%TO.C,C5*%
X172720000Y-147000000D03*
X172080000Y-147000000D03*
%TD*%
D48*
%TO.C,C9*%
X110600000Y-101420000D03*
X110600000Y-102380000D03*
%TD*%
D50*
%TO.C,R25*%
X186680000Y-118300000D03*
X187320000Y-118300000D03*
%TD*%
D91*
%TO.C,C21*%
X169600000Y-113480000D03*
X169600000Y-112520000D03*
%TD*%
D42*
%TO.C,R4*%
X127900000Y-117680000D03*
X127900000Y-118320000D03*
%TD*%
D33*
%TO.C,Q5*%
X156762500Y-84550000D03*
X156762500Y-82650000D03*
X158637500Y-83600000D03*
%TD*%
D50*
%TO.C,R19*%
X109930000Y-128950000D03*
X110570000Y-128950000D03*
%TD*%
D48*
%TO.C,C41*%
X132800000Y-56220000D03*
X132800000Y-57180000D03*
%TD*%
D61*
%TO.C,C7*%
X121200000Y-117825000D03*
X121200000Y-119375000D03*
%TD*%
D50*
%TO.C,R21*%
X185880000Y-144800000D03*
X186520000Y-144800000D03*
%TD*%
%TO.C,R67*%
X152330000Y-116000000D03*
X152970000Y-116000000D03*
%TD*%
D128*
%TO.C,U11*%
X126800000Y-58950000D03*
X129100000Y-58950000D03*
D129*
X129100000Y-65250000D03*
D128*
X131400000Y-58950000D03*
%TD*%
D42*
%TO.C,R11*%
X171400000Y-88080000D03*
X171400000Y-88720000D03*
%TD*%
D32*
%TO.C,C66*%
X164876274Y-119223726D03*
X164423726Y-119676274D03*
%TD*%
D46*
%TO.C,C63*%
X113125000Y-83800000D03*
X111575000Y-83800000D03*
%TD*%
D130*
%TO.C,D2*%
X186650000Y-130300000D03*
X186650000Y-132200000D03*
X183650000Y-131250000D03*
%TD*%
D131*
%TO.C,R26*%
X164226274Y-116026274D03*
X163773726Y-115573726D03*
%TD*%
D34*
%TO.C,R51*%
X111420000Y-100500000D03*
X110780000Y-100500000D03*
%TD*%
D42*
%TO.C,C33*%
X125500000Y-81480000D03*
X125500000Y-82120000D03*
%TD*%
D114*
%TO.C,R71*%
X140500000Y-73740000D03*
X140500000Y-74760000D03*
%TD*%
D132*
%TO.C,K1*%
X181700000Y-78500000D03*
X184900000Y-78500000D03*
X187100000Y-78500000D03*
X189300000Y-78500000D03*
X189300000Y-85500000D03*
X187100000Y-85500000D03*
X184900000Y-85500000D03*
X181700000Y-85500000D03*
%TD*%
D49*
%TO.C,R48*%
X125010000Y-62000000D03*
X123990000Y-62000000D03*
%TD*%
D65*
%TO.C,C2*%
X145950000Y-139220000D03*
X145950000Y-138580000D03*
%TD*%
D133*
%TO.C,U3*%
X114837500Y-91125000D03*
X114837500Y-90475000D03*
X114837500Y-89825000D03*
X114837500Y-89175000D03*
X114837500Y-88525000D03*
X114837500Y-87875000D03*
X114837500Y-87225000D03*
X114837500Y-86575000D03*
X114837500Y-85925000D03*
X114837500Y-85275000D03*
X114837500Y-84625000D03*
X114837500Y-83975000D03*
X114837500Y-83325000D03*
X114837500Y-82675000D03*
X120562500Y-82675000D03*
X120562500Y-83325000D03*
X120562500Y-83975000D03*
X120562500Y-84625000D03*
X120562500Y-85275000D03*
X120562500Y-85925000D03*
X120562500Y-86575000D03*
X120562500Y-87225000D03*
X120562500Y-87875000D03*
X120562500Y-88525000D03*
X120562500Y-89175000D03*
X120562500Y-89825000D03*
X120562500Y-90475000D03*
X120562500Y-91125000D03*
D134*
X117700000Y-86900000D03*
%TD*%
D49*
%TO.C,R1*%
X177110000Y-147000000D03*
X176090000Y-147000000D03*
%TD*%
D135*
%TO.C,JP5*%
X128450000Y-69250000D03*
D136*
X127150000Y-69250000D03*
%TD*%
D46*
%TO.C,C81*%
X125425000Y-68300000D03*
X123875000Y-68300000D03*
%TD*%
D49*
%TO.C,R24*%
X178210000Y-114400000D03*
X177190000Y-114400000D03*
%TD*%
D137*
%TO.C,J36*%
X138550000Y-72125000D03*
X138550000Y-77165000D03*
X136010000Y-72125000D03*
X136010000Y-77165000D03*
X133470000Y-72125000D03*
X133470000Y-77165000D03*
X130930000Y-72125000D03*
X130930000Y-77165000D03*
X128390000Y-72125000D03*
X128390000Y-77165000D03*
X125850000Y-72125000D03*
X125850000Y-77165000D03*
%TD*%
D138*
%TO.C,U17*%
X160170000Y-62480000D03*
D139*
X158100000Y-63750000D03*
X160170000Y-65020000D03*
%TD*%
D140*
%TO.C,R20*%
X189000000Y-134750000D03*
X189000000Y-131650000D03*
%TD*%
D141*
%TO.C,D10*%
X151300000Y-82700000D03*
D142*
X148250000Y-82700000D03*
%TD*%
D34*
%TO.C,C3*%
X188820000Y-137800000D03*
X188180000Y-137800000D03*
%TD*%
D127*
%TO.C,R34*%
X123550000Y-77285000D03*
X123550000Y-76265000D03*
%TD*%
D60*
%TO.C,D17*%
X143950000Y-89200000D03*
X142450000Y-89200000D03*
X142450000Y-94600000D03*
X143950000Y-94600000D03*
%TD*%
D80*
%TO.C,J5*%
X106400000Y-131490000D03*
X106400000Y-125710000D03*
D81*
X107650000Y-131800000D03*
X107600000Y-131000000D03*
D82*
X107600000Y-129850000D03*
X107600000Y-128850000D03*
X107600000Y-128350000D03*
X107600000Y-127350000D03*
D81*
X107600000Y-126200000D03*
X107650000Y-125400000D03*
X107650000Y-125400000D03*
X107600000Y-126200000D03*
D82*
X107600000Y-126850000D03*
X107600000Y-127850000D03*
X107600000Y-129350000D03*
X107600000Y-130350000D03*
D81*
X107600000Y-131000000D03*
X107650000Y-131800000D03*
D83*
X102700000Y-133420000D03*
D84*
X106880000Y-133420000D03*
D83*
X102700000Y-123780000D03*
D84*
X106880000Y-123780000D03*
%TD*%
D143*
%TO.C,JP4*%
X136450000Y-69250000D03*
D144*
X137750000Y-69250000D03*
%TD*%
D50*
%TO.C,C55*%
X119230000Y-133350000D03*
X119870000Y-133350000D03*
%TD*%
D34*
%TO.C,R64*%
X111720000Y-103800000D03*
X111080000Y-103800000D03*
%TD*%
D60*
%TO.C,D16*%
X148450000Y-89150000D03*
X146950000Y-89150000D03*
X146950000Y-94550000D03*
X148450000Y-94550000D03*
%TD*%
D34*
%TO.C,R41*%
X175420000Y-136300000D03*
X174780000Y-136300000D03*
%TD*%
D38*
%TO.C,Q2*%
X188500000Y-68237500D03*
X186600000Y-68237500D03*
X187550000Y-66362500D03*
%TD*%
D145*
%TO.C,R23*%
X183200000Y-114875000D03*
X183200000Y-116925000D03*
%TD*%
D65*
%TO.C,R36*%
X168000000Y-101720000D03*
X168000000Y-101080000D03*
%TD*%
D91*
%TO.C,C38*%
X113350000Y-91480000D03*
X113350000Y-90520000D03*
%TD*%
D51*
%TO.C,TP1*%
X186195000Y-119685000D03*
%TD*%
D65*
%TO.C,R57*%
X145700000Y-132620000D03*
X145700000Y-131980000D03*
%TD*%
D63*
%TO.C,C44*%
X134020000Y-67650000D03*
X134980000Y-67650000D03*
%TD*%
D114*
%TO.C,R42*%
X186600000Y-122490000D03*
X186600000Y-123510000D03*
%TD*%
D65*
%TO.C,R2*%
X145950000Y-137770000D03*
X145950000Y-137130000D03*
%TD*%
D95*
%TO.C,R14*%
X108690000Y-100500000D03*
X109710000Y-100500000D03*
%TD*%
D68*
%TO.C,D14*%
X182300000Y-75400000D03*
X178500000Y-75400000D03*
%TD*%
D146*
%TO.C,JP1*%
X186750000Y-116500000D03*
X185450000Y-116500000D03*
%TD*%
D61*
%TO.C,C79*%
X121100000Y-65225000D03*
X121100000Y-66775000D03*
%TD*%
D34*
%TO.C,R72*%
X111020000Y-127300000D03*
X110380000Y-127300000D03*
%TD*%
D42*
%TO.C,R56*%
X144850000Y-132630000D03*
X144850000Y-133270000D03*
%TD*%
D33*
%TO.C,Q1*%
X160262500Y-69350000D03*
X160262500Y-67450000D03*
X162137500Y-68400000D03*
%TD*%
D91*
%TO.C,C42*%
X131800000Y-57180000D03*
X131800000Y-56220000D03*
%TD*%
D34*
%TO.C,C40*%
X168820000Y-124900000D03*
X168180000Y-124900000D03*
%TD*%
D97*
%TO.C,D12*%
X153000000Y-68700000D03*
D98*
X153000000Y-71750000D03*
%TD*%
D97*
%TO.C,D11*%
X153000000Y-75700000D03*
D98*
X153000000Y-78750000D03*
%TD*%
D35*
%TO.C,C8*%
X109180000Y-93050000D03*
X108220000Y-93050000D03*
%TD*%
%TO.C,C82*%
X122230000Y-61100000D03*
X121270000Y-61100000D03*
%TD*%
D147*
%TO.C,R38*%
X104400000Y-85437500D03*
X104400000Y-91362500D03*
%TD*%
D148*
%TO.C,C39*%
X112800000Y-81050000D03*
X112800000Y-75450000D03*
%TD*%
D49*
%TO.C,R29*%
X178260000Y-86100000D03*
X177240000Y-86100000D03*
%TD*%
D93*
%TO.C,R13*%
X168250000Y-78237500D03*
X168250000Y-81162500D03*
%TD*%
D57*
%TO.C,C13*%
X164239411Y-118660589D03*
X163560589Y-119339411D03*
%TD*%
D95*
%TO.C,R16*%
X108190000Y-94000000D03*
X109210000Y-94000000D03*
%TD*%
D114*
%TO.C,R70*%
X163600000Y-96090001D03*
X163600000Y-97109999D03*
%TD*%
D37*
%TO.C,R47*%
X136325000Y-113150000D03*
X137975000Y-113150000D03*
%TD*%
D49*
%TO.C,R6*%
X184510000Y-74850000D03*
X183490000Y-74850000D03*
%TD*%
D42*
%TO.C,C11*%
X179000000Y-140980000D03*
X179000000Y-141620000D03*
%TD*%
D65*
%TO.C,R17*%
X110200000Y-94320000D03*
X110200000Y-93680000D03*
%TD*%
D49*
%TO.C,R66*%
X169010000Y-124050000D03*
X167990000Y-124050000D03*
%TD*%
D127*
%TO.C,R44*%
X120100000Y-138310000D03*
X120100000Y-137290000D03*
%TD*%
D95*
%TO.C,R9*%
X117690000Y-142400000D03*
X118710000Y-142400000D03*
%TD*%
D34*
%TO.C,C46*%
X155020000Y-88750000D03*
X154380000Y-88750000D03*
%TD*%
D149*
%TO.C,R78*%
X145362500Y-118250000D03*
X142437500Y-118250000D03*
%TD*%
D42*
%TO.C,R50*%
X108400000Y-108180000D03*
X108400000Y-108820000D03*
%TD*%
D50*
%TO.C,R31*%
X187680000Y-71200000D03*
X188320000Y-71200000D03*
%TD*%
D61*
%TO.C,C6*%
X145600000Y-140325000D03*
X145600000Y-141875000D03*
%TD*%
D150*
%TO.C,R46*%
X189000000Y-140350000D03*
X189000000Y-143450000D03*
%TD*%
D151*
%TO.C,FB2*%
X129537500Y-93650000D03*
X127962500Y-93650000D03*
%TD*%
D99*
%TO.C,U7*%
X180600000Y-143455000D03*
X180600000Y-142185000D03*
X180600000Y-140915000D03*
X180600000Y-139645000D03*
X186600000Y-139645000D03*
X186600000Y-140915000D03*
X186600000Y-142185000D03*
X186600000Y-143455000D03*
%TD*%
D79*
%TO.C,C4*%
X134700000Y-111400000D03*
X136600000Y-111400000D03*
%TD*%
D50*
%TO.C,R27*%
X192280000Y-119300000D03*
X192920000Y-119300000D03*
%TD*%
D62*
%TO.C,C51*%
X112000000Y-90725000D03*
X112000000Y-89175000D03*
%TD*%
D49*
%TO.C,R5*%
X190010000Y-138950000D03*
X188990000Y-138950000D03*
%TD*%
D65*
%TO.C,C57*%
X117600000Y-148820000D03*
X117600000Y-148180000D03*
%TD*%
M02*
